G04 EAGLE Gerber RS-274X export*
G75*
%MOMM*%
%FSLAX34Y34*%
%LPD*%
%INSilkscreen Bottom*%
%IPPOS*%
%AMOC8*
5,1,8,0,0,1.08239X$1,22.5*%
G01*
%ADD10C,0.101600*%
%ADD11C,0.076200*%
%ADD12C,0.152400*%
%ADD13C,0.203200*%


D10*
X66167Y60833D02*
X66167Y72517D01*
X66167Y67324D02*
X59676Y67324D01*
X59676Y72517D02*
X59676Y60833D01*
X49431Y67324D02*
X47484Y67324D01*
X47484Y60833D01*
X51379Y60833D01*
X51478Y60835D01*
X51578Y60841D01*
X51677Y60850D01*
X51775Y60863D01*
X51873Y60880D01*
X51971Y60901D01*
X52067Y60926D01*
X52162Y60954D01*
X52256Y60986D01*
X52349Y61021D01*
X52441Y61060D01*
X52531Y61103D01*
X52619Y61148D01*
X52706Y61198D01*
X52790Y61250D01*
X52873Y61306D01*
X52953Y61364D01*
X53031Y61426D01*
X53106Y61491D01*
X53179Y61559D01*
X53249Y61629D01*
X53317Y61702D01*
X53382Y61777D01*
X53444Y61855D01*
X53502Y61935D01*
X53558Y62018D01*
X53610Y62102D01*
X53660Y62189D01*
X53705Y62277D01*
X53748Y62367D01*
X53787Y62459D01*
X53822Y62552D01*
X53854Y62646D01*
X53882Y62741D01*
X53907Y62837D01*
X53928Y62935D01*
X53945Y63033D01*
X53958Y63131D01*
X53967Y63230D01*
X53973Y63330D01*
X53975Y63429D01*
X53975Y69921D01*
X53973Y70020D01*
X53967Y70120D01*
X53958Y70219D01*
X53945Y70317D01*
X53928Y70415D01*
X53907Y70513D01*
X53882Y70609D01*
X53854Y70704D01*
X53822Y70798D01*
X53787Y70891D01*
X53748Y70983D01*
X53705Y71073D01*
X53660Y71161D01*
X53610Y71248D01*
X53558Y71332D01*
X53502Y71415D01*
X53444Y71495D01*
X53382Y71573D01*
X53317Y71648D01*
X53249Y71721D01*
X53179Y71791D01*
X53106Y71859D01*
X53031Y71924D01*
X52953Y71986D01*
X52873Y72044D01*
X52790Y72100D01*
X52706Y72152D01*
X52619Y72202D01*
X52531Y72247D01*
X52441Y72290D01*
X52349Y72329D01*
X52256Y72364D01*
X52162Y72396D01*
X52067Y72424D01*
X51971Y72449D01*
X51873Y72470D01*
X51775Y72487D01*
X51677Y72500D01*
X51578Y72509D01*
X51478Y72515D01*
X51379Y72517D01*
X47484Y72517D01*
X41191Y70894D02*
X41290Y70687D01*
X41383Y70477D01*
X41471Y70264D01*
X41554Y70050D01*
X41632Y69834D01*
X41705Y69616D01*
X41773Y69396D01*
X41835Y69175D01*
X41892Y68952D01*
X41944Y68728D01*
X41990Y68503D01*
X42031Y68277D01*
X42066Y68050D01*
X42096Y67822D01*
X42121Y67593D01*
X42140Y67364D01*
X42154Y67135D01*
X42162Y66905D01*
X42165Y66675D01*
X41191Y70894D02*
X41158Y70984D01*
X41122Y71073D01*
X41082Y71161D01*
X41038Y71246D01*
X40991Y71330D01*
X40941Y71412D01*
X40887Y71492D01*
X40831Y71569D01*
X40771Y71645D01*
X40708Y71718D01*
X40643Y71788D01*
X40574Y71856D01*
X40503Y71920D01*
X40430Y71982D01*
X40354Y72041D01*
X40276Y72097D01*
X40195Y72150D01*
X40113Y72199D01*
X40029Y72245D01*
X39942Y72288D01*
X39855Y72327D01*
X39765Y72363D01*
X39675Y72395D01*
X39583Y72423D01*
X39490Y72448D01*
X39396Y72469D01*
X39302Y72486D01*
X39207Y72500D01*
X39111Y72509D01*
X39015Y72515D01*
X38919Y72517D01*
X38823Y72515D01*
X38727Y72509D01*
X38631Y72500D01*
X38536Y72486D01*
X38442Y72469D01*
X38348Y72448D01*
X38255Y72423D01*
X38163Y72395D01*
X38073Y72363D01*
X37983Y72327D01*
X37896Y72288D01*
X37809Y72245D01*
X37725Y72199D01*
X37643Y72150D01*
X37562Y72097D01*
X37484Y72041D01*
X37408Y71982D01*
X37335Y71920D01*
X37264Y71856D01*
X37195Y71788D01*
X37130Y71718D01*
X37067Y71645D01*
X37007Y71570D01*
X36951Y71492D01*
X36897Y71412D01*
X36847Y71330D01*
X36800Y71246D01*
X36757Y71161D01*
X36716Y71073D01*
X36680Y70984D01*
X36647Y70894D01*
X36548Y70686D01*
X36455Y70476D01*
X36367Y70264D01*
X36284Y70050D01*
X36206Y69833D01*
X36133Y69615D01*
X36065Y69396D01*
X36003Y69174D01*
X35946Y68952D01*
X35894Y68728D01*
X35848Y68503D01*
X35807Y68277D01*
X35772Y68049D01*
X35742Y67822D01*
X35717Y67593D01*
X35698Y67364D01*
X35684Y67135D01*
X35676Y66905D01*
X35673Y66675D01*
X42164Y66675D02*
X42161Y66445D01*
X42153Y66215D01*
X42139Y65986D01*
X42120Y65757D01*
X42095Y65528D01*
X42065Y65300D01*
X42030Y65073D01*
X41989Y64847D01*
X41943Y64622D01*
X41891Y64398D01*
X41834Y64175D01*
X41772Y63954D01*
X41704Y63734D01*
X41631Y63516D01*
X41553Y63300D01*
X41470Y63086D01*
X41382Y62874D01*
X41289Y62663D01*
X41190Y62456D01*
X41191Y62456D02*
X41158Y62366D01*
X41122Y62277D01*
X41081Y62189D01*
X41038Y62104D01*
X40991Y62020D01*
X40941Y61938D01*
X40887Y61858D01*
X40831Y61781D01*
X40771Y61705D01*
X40708Y61632D01*
X40643Y61562D01*
X40574Y61494D01*
X40503Y61430D01*
X40430Y61368D01*
X40354Y61309D01*
X40276Y61253D01*
X40195Y61200D01*
X40113Y61151D01*
X40029Y61105D01*
X39942Y61062D01*
X39855Y61023D01*
X39765Y60987D01*
X39675Y60955D01*
X39583Y60927D01*
X39490Y60902D01*
X39396Y60881D01*
X39302Y60864D01*
X39207Y60850D01*
X39111Y60841D01*
X39015Y60835D01*
X38919Y60833D01*
X36647Y62456D02*
X36548Y62663D01*
X36455Y62874D01*
X36367Y63086D01*
X36284Y63300D01*
X36206Y63516D01*
X36133Y63734D01*
X36065Y63954D01*
X36003Y64175D01*
X35946Y64398D01*
X35894Y64622D01*
X35848Y64847D01*
X35807Y65073D01*
X35772Y65300D01*
X35742Y65528D01*
X35717Y65757D01*
X35698Y65986D01*
X35684Y66215D01*
X35676Y66445D01*
X35673Y66675D01*
X36647Y62456D02*
X36680Y62366D01*
X36716Y62277D01*
X36757Y62189D01*
X36800Y62104D01*
X36847Y62020D01*
X36897Y61938D01*
X36951Y61858D01*
X37007Y61780D01*
X37067Y61705D01*
X37130Y61632D01*
X37195Y61562D01*
X37264Y61494D01*
X37335Y61430D01*
X37408Y61368D01*
X37484Y61309D01*
X37562Y61253D01*
X37643Y61200D01*
X37725Y61151D01*
X37809Y61105D01*
X37896Y61062D01*
X37983Y61023D01*
X38073Y60987D01*
X38163Y60955D01*
X38255Y60927D01*
X38348Y60902D01*
X38442Y60881D01*
X38536Y60864D01*
X38631Y60850D01*
X38727Y60841D01*
X38823Y60835D01*
X38919Y60833D01*
X41515Y63429D02*
X36322Y69921D01*
X30184Y67324D02*
X26938Y67324D01*
X26938Y67325D02*
X26825Y67323D01*
X26712Y67317D01*
X26599Y67307D01*
X26486Y67293D01*
X26374Y67276D01*
X26263Y67254D01*
X26153Y67229D01*
X26043Y67199D01*
X25935Y67166D01*
X25828Y67129D01*
X25722Y67089D01*
X25618Y67044D01*
X25515Y66996D01*
X25414Y66945D01*
X25315Y66890D01*
X25218Y66832D01*
X25123Y66770D01*
X25030Y66705D01*
X24940Y66637D01*
X24852Y66566D01*
X24766Y66491D01*
X24683Y66414D01*
X24603Y66334D01*
X24526Y66251D01*
X24451Y66165D01*
X24380Y66077D01*
X24312Y65987D01*
X24247Y65894D01*
X24185Y65799D01*
X24127Y65702D01*
X24072Y65603D01*
X24021Y65502D01*
X23973Y65399D01*
X23928Y65295D01*
X23888Y65189D01*
X23851Y65082D01*
X23818Y64974D01*
X23788Y64864D01*
X23763Y64754D01*
X23741Y64643D01*
X23724Y64531D01*
X23710Y64418D01*
X23700Y64305D01*
X23694Y64192D01*
X23692Y64079D01*
X23694Y63966D01*
X23700Y63853D01*
X23710Y63740D01*
X23724Y63627D01*
X23741Y63515D01*
X23763Y63404D01*
X23788Y63294D01*
X23818Y63184D01*
X23851Y63076D01*
X23888Y62969D01*
X23928Y62863D01*
X23973Y62759D01*
X24021Y62656D01*
X24072Y62555D01*
X24127Y62456D01*
X24185Y62359D01*
X24247Y62264D01*
X24312Y62171D01*
X24380Y62081D01*
X24451Y61993D01*
X24526Y61907D01*
X24603Y61824D01*
X24683Y61744D01*
X24766Y61667D01*
X24852Y61592D01*
X24940Y61521D01*
X25030Y61453D01*
X25123Y61388D01*
X25218Y61326D01*
X25315Y61268D01*
X25414Y61213D01*
X25515Y61162D01*
X25618Y61114D01*
X25722Y61069D01*
X25828Y61029D01*
X25935Y60992D01*
X26043Y60959D01*
X26153Y60929D01*
X26263Y60904D01*
X26374Y60882D01*
X26486Y60865D01*
X26599Y60851D01*
X26712Y60841D01*
X26825Y60835D01*
X26938Y60833D01*
X30184Y60833D01*
X30184Y72517D01*
X26938Y72517D01*
X26837Y72515D01*
X26737Y72509D01*
X26637Y72499D01*
X26537Y72486D01*
X26438Y72468D01*
X26339Y72447D01*
X26242Y72422D01*
X26145Y72393D01*
X26050Y72360D01*
X25956Y72324D01*
X25864Y72284D01*
X25773Y72241D01*
X25684Y72194D01*
X25597Y72144D01*
X25511Y72090D01*
X25428Y72033D01*
X25348Y71973D01*
X25269Y71910D01*
X25193Y71843D01*
X25120Y71774D01*
X25050Y71702D01*
X24982Y71628D01*
X24917Y71551D01*
X24856Y71471D01*
X24797Y71389D01*
X24742Y71305D01*
X24690Y71219D01*
X24641Y71131D01*
X24596Y71041D01*
X24554Y70949D01*
X24516Y70856D01*
X24482Y70761D01*
X24451Y70666D01*
X24424Y70569D01*
X24401Y70471D01*
X24381Y70372D01*
X24366Y70272D01*
X24354Y70172D01*
X24346Y70072D01*
X24342Y69971D01*
X24342Y69871D01*
X24346Y69770D01*
X24354Y69670D01*
X24366Y69570D01*
X24381Y69470D01*
X24401Y69371D01*
X24424Y69273D01*
X24451Y69176D01*
X24482Y69081D01*
X24516Y68986D01*
X24554Y68893D01*
X24596Y68801D01*
X24641Y68711D01*
X24690Y68623D01*
X24742Y68537D01*
X24797Y68453D01*
X24856Y68371D01*
X24917Y68291D01*
X24982Y68214D01*
X25050Y68140D01*
X25120Y68068D01*
X25193Y67999D01*
X25269Y67932D01*
X25348Y67869D01*
X25428Y67809D01*
X25511Y67752D01*
X25597Y67698D01*
X25684Y67648D01*
X25773Y67601D01*
X25864Y67558D01*
X25956Y67518D01*
X26050Y67482D01*
X26145Y67449D01*
X26242Y67420D01*
X26339Y67395D01*
X26438Y67374D01*
X26537Y67356D01*
X26637Y67343D01*
X26737Y67333D01*
X26837Y67327D01*
X26938Y67325D01*
X19304Y69921D02*
X16059Y72517D01*
X16059Y60833D01*
X19304Y60833D02*
X12813Y60833D01*
X5311Y60833D02*
X2714Y60833D01*
X5311Y60833D02*
X5410Y60835D01*
X5510Y60841D01*
X5609Y60850D01*
X5707Y60863D01*
X5805Y60880D01*
X5903Y60901D01*
X5999Y60926D01*
X6094Y60954D01*
X6188Y60986D01*
X6281Y61021D01*
X6373Y61060D01*
X6463Y61103D01*
X6551Y61148D01*
X6638Y61198D01*
X6722Y61250D01*
X6805Y61306D01*
X6885Y61364D01*
X6963Y61426D01*
X7038Y61491D01*
X7111Y61559D01*
X7181Y61629D01*
X7249Y61702D01*
X7314Y61777D01*
X7376Y61855D01*
X7434Y61935D01*
X7490Y62018D01*
X7542Y62102D01*
X7592Y62189D01*
X7637Y62277D01*
X7680Y62367D01*
X7719Y62459D01*
X7754Y62552D01*
X7786Y62646D01*
X7814Y62741D01*
X7839Y62837D01*
X7860Y62935D01*
X7877Y63033D01*
X7890Y63131D01*
X7899Y63230D01*
X7905Y63330D01*
X7907Y63429D01*
X7907Y69921D01*
X7905Y70020D01*
X7899Y70120D01*
X7890Y70219D01*
X7877Y70317D01*
X7860Y70415D01*
X7839Y70513D01*
X7814Y70609D01*
X7786Y70704D01*
X7754Y70798D01*
X7719Y70891D01*
X7680Y70983D01*
X7637Y71073D01*
X7592Y71161D01*
X7542Y71248D01*
X7490Y71332D01*
X7434Y71415D01*
X7376Y71495D01*
X7314Y71573D01*
X7249Y71648D01*
X7181Y71721D01*
X7111Y71791D01*
X7038Y71859D01*
X6963Y71924D01*
X6885Y71986D01*
X6805Y72044D01*
X6722Y72100D01*
X6638Y72152D01*
X6551Y72202D01*
X6463Y72247D01*
X6373Y72290D01*
X6281Y72329D01*
X6188Y72364D01*
X6094Y72396D01*
X5999Y72424D01*
X5903Y72449D01*
X5805Y72470D01*
X5707Y72487D01*
X5609Y72500D01*
X5510Y72509D01*
X5410Y72515D01*
X5311Y72517D01*
X2714Y72517D01*
X-2054Y60833D02*
X-7247Y60833D01*
X-2054Y60833D02*
X-2054Y72517D01*
X-7247Y72517D01*
X-5949Y67324D02*
X-2054Y67324D01*
X-11938Y64079D02*
X-11938Y72517D01*
X-11937Y64079D02*
X-11939Y63966D01*
X-11945Y63853D01*
X-11955Y63740D01*
X-11969Y63627D01*
X-11986Y63515D01*
X-12008Y63404D01*
X-12033Y63294D01*
X-12063Y63184D01*
X-12096Y63076D01*
X-12133Y62969D01*
X-12173Y62863D01*
X-12218Y62759D01*
X-12266Y62656D01*
X-12317Y62555D01*
X-12372Y62456D01*
X-12430Y62359D01*
X-12492Y62264D01*
X-12557Y62171D01*
X-12625Y62081D01*
X-12696Y61993D01*
X-12771Y61907D01*
X-12848Y61824D01*
X-12928Y61744D01*
X-13011Y61667D01*
X-13097Y61592D01*
X-13185Y61521D01*
X-13275Y61453D01*
X-13368Y61388D01*
X-13463Y61326D01*
X-13560Y61268D01*
X-13659Y61213D01*
X-13760Y61162D01*
X-13863Y61114D01*
X-13967Y61069D01*
X-14073Y61029D01*
X-14180Y60992D01*
X-14288Y60959D01*
X-14398Y60929D01*
X-14508Y60904D01*
X-14619Y60882D01*
X-14731Y60865D01*
X-14844Y60851D01*
X-14957Y60841D01*
X-15070Y60835D01*
X-15183Y60833D01*
X-15296Y60835D01*
X-15409Y60841D01*
X-15522Y60851D01*
X-15635Y60865D01*
X-15747Y60882D01*
X-15858Y60904D01*
X-15968Y60929D01*
X-16078Y60959D01*
X-16186Y60992D01*
X-16293Y61029D01*
X-16399Y61069D01*
X-16503Y61114D01*
X-16606Y61162D01*
X-16707Y61213D01*
X-16806Y61268D01*
X-16903Y61326D01*
X-16998Y61388D01*
X-17091Y61453D01*
X-17181Y61521D01*
X-17269Y61592D01*
X-17355Y61667D01*
X-17438Y61744D01*
X-17518Y61824D01*
X-17595Y61907D01*
X-17670Y61993D01*
X-17741Y62081D01*
X-17809Y62171D01*
X-17874Y62264D01*
X-17936Y62359D01*
X-17994Y62456D01*
X-18049Y62555D01*
X-18100Y62656D01*
X-18148Y62759D01*
X-18193Y62863D01*
X-18233Y62969D01*
X-18270Y63076D01*
X-18303Y63184D01*
X-18333Y63294D01*
X-18358Y63404D01*
X-18380Y63515D01*
X-18397Y63627D01*
X-18411Y63740D01*
X-18421Y63853D01*
X-18427Y63966D01*
X-18429Y64079D01*
X-18429Y72517D01*
D11*
X-28829Y126953D02*
X-28829Y129042D01*
X-28829Y126953D02*
X-28827Y126864D01*
X-28821Y126776D01*
X-28812Y126688D01*
X-28799Y126600D01*
X-28782Y126513D01*
X-28762Y126427D01*
X-28737Y126342D01*
X-28710Y126257D01*
X-28678Y126174D01*
X-28644Y126093D01*
X-28605Y126013D01*
X-28564Y125935D01*
X-28519Y125858D01*
X-28471Y125784D01*
X-28420Y125711D01*
X-28366Y125641D01*
X-28308Y125574D01*
X-28248Y125508D01*
X-28186Y125446D01*
X-28120Y125386D01*
X-28053Y125328D01*
X-27983Y125274D01*
X-27910Y125223D01*
X-27836Y125175D01*
X-27759Y125130D01*
X-27681Y125089D01*
X-27601Y125050D01*
X-27520Y125016D01*
X-27437Y124984D01*
X-27352Y124957D01*
X-27267Y124932D01*
X-27181Y124912D01*
X-27094Y124895D01*
X-27006Y124882D01*
X-26918Y124873D01*
X-26830Y124867D01*
X-26741Y124865D01*
X-21519Y124865D01*
X-21519Y124864D02*
X-21428Y124866D01*
X-21337Y124872D01*
X-21246Y124882D01*
X-21156Y124896D01*
X-21067Y124914D01*
X-20978Y124935D01*
X-20891Y124961D01*
X-20805Y124990D01*
X-20720Y125023D01*
X-20636Y125060D01*
X-20554Y125100D01*
X-20475Y125144D01*
X-20397Y125191D01*
X-20321Y125242D01*
X-20247Y125296D01*
X-20176Y125353D01*
X-20108Y125413D01*
X-20042Y125476D01*
X-19979Y125542D01*
X-19919Y125610D01*
X-19862Y125681D01*
X-19808Y125755D01*
X-19757Y125831D01*
X-19710Y125908D01*
X-19666Y125988D01*
X-19626Y126070D01*
X-19589Y126154D01*
X-19556Y126238D01*
X-19527Y126325D01*
X-19501Y126412D01*
X-19480Y126501D01*
X-19462Y126590D01*
X-19448Y126680D01*
X-19438Y126771D01*
X-19432Y126862D01*
X-19430Y126953D01*
X-19431Y126953D02*
X-19431Y129042D01*
X-21519Y132510D02*
X-19431Y135121D01*
X-28829Y135121D01*
X-28829Y132510D02*
X-28829Y137732D01*
D12*
X-16307Y175730D02*
X3823Y175730D01*
D11*
X-9779Y127454D02*
X-9779Y125366D01*
X-9777Y125277D01*
X-9771Y125189D01*
X-9762Y125101D01*
X-9749Y125013D01*
X-9732Y124926D01*
X-9712Y124840D01*
X-9687Y124755D01*
X-9660Y124670D01*
X-9628Y124587D01*
X-9594Y124506D01*
X-9555Y124426D01*
X-9514Y124348D01*
X-9469Y124271D01*
X-9421Y124197D01*
X-9370Y124124D01*
X-9316Y124054D01*
X-9258Y123987D01*
X-9198Y123921D01*
X-9136Y123859D01*
X-9070Y123799D01*
X-9003Y123741D01*
X-8933Y123687D01*
X-8860Y123636D01*
X-8786Y123588D01*
X-8709Y123543D01*
X-8631Y123502D01*
X-8551Y123463D01*
X-8470Y123429D01*
X-8387Y123397D01*
X-8302Y123370D01*
X-8217Y123345D01*
X-8131Y123325D01*
X-8044Y123308D01*
X-7956Y123295D01*
X-7868Y123286D01*
X-7780Y123280D01*
X-7691Y123278D01*
X-7691Y123277D02*
X-2469Y123277D01*
X-2378Y123279D01*
X-2287Y123285D01*
X-2196Y123295D01*
X-2106Y123309D01*
X-2017Y123327D01*
X-1928Y123348D01*
X-1841Y123374D01*
X-1755Y123403D01*
X-1670Y123436D01*
X-1586Y123473D01*
X-1504Y123513D01*
X-1425Y123557D01*
X-1347Y123604D01*
X-1271Y123655D01*
X-1197Y123709D01*
X-1126Y123766D01*
X-1058Y123826D01*
X-992Y123889D01*
X-929Y123955D01*
X-869Y124023D01*
X-812Y124094D01*
X-758Y124168D01*
X-707Y124244D01*
X-660Y124321D01*
X-616Y124401D01*
X-576Y124483D01*
X-539Y124567D01*
X-506Y124651D01*
X-477Y124738D01*
X-451Y124825D01*
X-430Y124914D01*
X-412Y125003D01*
X-398Y125093D01*
X-388Y125184D01*
X-382Y125275D01*
X-380Y125366D01*
X-381Y125366D02*
X-381Y127454D01*
X-381Y133795D02*
X-383Y133890D01*
X-389Y133984D01*
X-398Y134078D01*
X-411Y134172D01*
X-428Y134265D01*
X-449Y134357D01*
X-474Y134449D01*
X-502Y134539D01*
X-534Y134628D01*
X-569Y134716D01*
X-608Y134802D01*
X-650Y134887D01*
X-696Y134970D01*
X-745Y135051D01*
X-797Y135130D01*
X-852Y135207D01*
X-911Y135281D01*
X-972Y135353D01*
X-1036Y135423D01*
X-1103Y135490D01*
X-1173Y135554D01*
X-1245Y135615D01*
X-1319Y135674D01*
X-1396Y135729D01*
X-1475Y135781D01*
X-1556Y135830D01*
X-1639Y135876D01*
X-1724Y135918D01*
X-1810Y135957D01*
X-1898Y135992D01*
X-1987Y136024D01*
X-2077Y136052D01*
X-2169Y136077D01*
X-2261Y136098D01*
X-2354Y136115D01*
X-2448Y136128D01*
X-2542Y136137D01*
X-2636Y136143D01*
X-2731Y136145D01*
X-381Y133795D02*
X-383Y133687D01*
X-389Y133578D01*
X-399Y133470D01*
X-412Y133363D01*
X-430Y133256D01*
X-451Y133149D01*
X-476Y133044D01*
X-505Y132939D01*
X-537Y132836D01*
X-574Y132734D01*
X-614Y132633D01*
X-657Y132534D01*
X-704Y132436D01*
X-755Y132340D01*
X-809Y132246D01*
X-866Y132154D01*
X-927Y132064D01*
X-991Y131976D01*
X-1057Y131891D01*
X-1127Y131808D01*
X-1200Y131728D01*
X-1276Y131650D01*
X-1354Y131575D01*
X-1435Y131503D01*
X-1519Y131434D01*
X-1605Y131368D01*
X-1693Y131305D01*
X-1784Y131246D01*
X-1876Y131189D01*
X-1971Y131136D01*
X-2068Y131087D01*
X-2166Y131041D01*
X-2265Y130998D01*
X-2367Y130959D01*
X-2469Y130924D01*
X-4559Y135361D02*
X-4490Y135430D01*
X-4419Y135496D01*
X-4346Y135560D01*
X-4270Y135621D01*
X-4191Y135679D01*
X-4111Y135733D01*
X-4028Y135785D01*
X-3944Y135833D01*
X-3858Y135879D01*
X-3770Y135920D01*
X-3680Y135959D01*
X-3589Y135994D01*
X-3497Y136025D01*
X-3404Y136053D01*
X-3310Y136077D01*
X-3215Y136097D01*
X-3119Y136114D01*
X-3022Y136127D01*
X-2925Y136136D01*
X-2828Y136142D01*
X-2731Y136144D01*
X-4558Y135361D02*
X-9779Y130923D01*
X-9779Y136144D01*
X-43117Y129042D02*
X-43117Y126953D01*
X-43116Y126953D02*
X-43114Y126864D01*
X-43108Y126776D01*
X-43099Y126688D01*
X-43086Y126600D01*
X-43069Y126513D01*
X-43049Y126427D01*
X-43024Y126342D01*
X-42997Y126257D01*
X-42965Y126174D01*
X-42931Y126093D01*
X-42892Y126013D01*
X-42851Y125935D01*
X-42806Y125858D01*
X-42758Y125784D01*
X-42707Y125711D01*
X-42653Y125641D01*
X-42595Y125574D01*
X-42535Y125508D01*
X-42473Y125446D01*
X-42407Y125386D01*
X-42340Y125328D01*
X-42270Y125274D01*
X-42197Y125223D01*
X-42123Y125175D01*
X-42046Y125130D01*
X-41968Y125089D01*
X-41888Y125050D01*
X-41807Y125016D01*
X-41724Y124984D01*
X-41639Y124957D01*
X-41554Y124932D01*
X-41468Y124912D01*
X-41381Y124895D01*
X-41293Y124882D01*
X-41205Y124873D01*
X-41117Y124867D01*
X-41028Y124865D01*
X-35807Y124865D01*
X-35807Y124864D02*
X-35716Y124866D01*
X-35625Y124872D01*
X-35534Y124882D01*
X-35444Y124896D01*
X-35355Y124914D01*
X-35266Y124935D01*
X-35179Y124961D01*
X-35093Y124990D01*
X-35008Y125023D01*
X-34924Y125060D01*
X-34842Y125100D01*
X-34763Y125144D01*
X-34685Y125191D01*
X-34609Y125242D01*
X-34535Y125296D01*
X-34464Y125353D01*
X-34396Y125413D01*
X-34330Y125476D01*
X-34267Y125542D01*
X-34207Y125610D01*
X-34150Y125681D01*
X-34096Y125755D01*
X-34045Y125831D01*
X-33998Y125908D01*
X-33954Y125988D01*
X-33914Y126070D01*
X-33877Y126154D01*
X-33844Y126238D01*
X-33815Y126325D01*
X-33789Y126412D01*
X-33768Y126501D01*
X-33750Y126590D01*
X-33736Y126680D01*
X-33726Y126771D01*
X-33720Y126862D01*
X-33718Y126953D01*
X-33719Y126953D02*
X-33719Y129042D01*
X-43117Y132510D02*
X-43117Y135643D01*
X-43116Y135643D02*
X-43114Y135732D01*
X-43108Y135820D01*
X-43099Y135908D01*
X-43086Y135996D01*
X-43069Y136083D01*
X-43049Y136169D01*
X-43024Y136254D01*
X-42997Y136339D01*
X-42965Y136422D01*
X-42931Y136503D01*
X-42892Y136583D01*
X-42851Y136661D01*
X-42806Y136738D01*
X-42758Y136812D01*
X-42707Y136885D01*
X-42653Y136955D01*
X-42595Y137022D01*
X-42535Y137088D01*
X-42473Y137150D01*
X-42407Y137210D01*
X-42340Y137268D01*
X-42270Y137322D01*
X-42197Y137373D01*
X-42123Y137421D01*
X-42046Y137466D01*
X-41968Y137507D01*
X-41888Y137546D01*
X-41807Y137580D01*
X-41724Y137612D01*
X-41639Y137639D01*
X-41554Y137664D01*
X-41468Y137684D01*
X-41381Y137701D01*
X-41293Y137714D01*
X-41205Y137723D01*
X-41117Y137729D01*
X-41028Y137731D01*
X-41028Y137732D02*
X-39984Y137732D01*
X-39984Y137731D02*
X-39895Y137729D01*
X-39807Y137723D01*
X-39719Y137714D01*
X-39631Y137701D01*
X-39544Y137684D01*
X-39458Y137664D01*
X-39373Y137639D01*
X-39288Y137612D01*
X-39205Y137580D01*
X-39124Y137546D01*
X-39044Y137507D01*
X-38966Y137466D01*
X-38889Y137421D01*
X-38815Y137373D01*
X-38742Y137322D01*
X-38672Y137268D01*
X-38605Y137210D01*
X-38539Y137150D01*
X-38477Y137088D01*
X-38417Y137022D01*
X-38359Y136955D01*
X-38305Y136885D01*
X-38254Y136812D01*
X-38206Y136738D01*
X-38161Y136661D01*
X-38120Y136583D01*
X-38081Y136503D01*
X-38047Y136422D01*
X-38015Y136339D01*
X-37988Y136254D01*
X-37963Y136169D01*
X-37943Y136083D01*
X-37926Y135996D01*
X-37913Y135908D01*
X-37904Y135820D01*
X-37898Y135732D01*
X-37896Y135643D01*
X-37895Y135643D02*
X-37895Y132510D01*
X-33719Y132510D01*
X-33719Y137732D01*
D12*
X-42215Y175730D02*
X-62344Y175730D01*
D11*
X-58992Y129042D02*
X-58992Y126953D01*
X-58991Y126953D02*
X-58989Y126864D01*
X-58983Y126776D01*
X-58974Y126688D01*
X-58961Y126600D01*
X-58944Y126513D01*
X-58924Y126427D01*
X-58899Y126342D01*
X-58872Y126257D01*
X-58840Y126174D01*
X-58806Y126093D01*
X-58767Y126013D01*
X-58726Y125935D01*
X-58681Y125858D01*
X-58633Y125784D01*
X-58582Y125711D01*
X-58528Y125641D01*
X-58470Y125574D01*
X-58410Y125508D01*
X-58348Y125446D01*
X-58282Y125386D01*
X-58215Y125328D01*
X-58145Y125274D01*
X-58072Y125223D01*
X-57998Y125175D01*
X-57921Y125130D01*
X-57843Y125089D01*
X-57763Y125050D01*
X-57682Y125016D01*
X-57599Y124984D01*
X-57514Y124957D01*
X-57429Y124932D01*
X-57343Y124912D01*
X-57256Y124895D01*
X-57168Y124882D01*
X-57080Y124873D01*
X-56992Y124867D01*
X-56903Y124865D01*
X-51682Y124865D01*
X-51682Y124864D02*
X-51591Y124866D01*
X-51500Y124872D01*
X-51409Y124882D01*
X-51319Y124896D01*
X-51230Y124914D01*
X-51141Y124935D01*
X-51054Y124961D01*
X-50968Y124990D01*
X-50883Y125023D01*
X-50799Y125060D01*
X-50717Y125100D01*
X-50638Y125144D01*
X-50560Y125191D01*
X-50484Y125242D01*
X-50410Y125296D01*
X-50339Y125353D01*
X-50271Y125413D01*
X-50205Y125476D01*
X-50142Y125542D01*
X-50082Y125610D01*
X-50025Y125681D01*
X-49971Y125755D01*
X-49920Y125831D01*
X-49873Y125908D01*
X-49829Y125988D01*
X-49789Y126070D01*
X-49752Y126154D01*
X-49719Y126238D01*
X-49690Y126325D01*
X-49664Y126412D01*
X-49643Y126501D01*
X-49625Y126590D01*
X-49611Y126680D01*
X-49601Y126771D01*
X-49595Y126862D01*
X-49593Y126953D01*
X-49594Y126953D02*
X-49594Y129042D01*
X-49594Y134599D02*
X-56903Y132510D01*
X-56903Y137732D01*
X-54815Y136165D02*
X-58992Y136165D01*
X-194056Y167069D02*
X-194056Y176467D01*
X-198233Y176467D01*
X-198233Y172290D02*
X-194056Y172290D01*
X-202095Y172290D02*
X-204705Y172290D01*
X-204806Y172288D01*
X-204907Y172282D01*
X-205008Y172272D01*
X-205108Y172259D01*
X-205208Y172241D01*
X-205307Y172220D01*
X-205405Y172194D01*
X-205502Y172165D01*
X-205598Y172133D01*
X-205692Y172096D01*
X-205785Y172056D01*
X-205877Y172012D01*
X-205966Y171965D01*
X-206054Y171914D01*
X-206140Y171860D01*
X-206223Y171803D01*
X-206305Y171743D01*
X-206383Y171679D01*
X-206460Y171613D01*
X-206533Y171543D01*
X-206604Y171471D01*
X-206672Y171396D01*
X-206737Y171318D01*
X-206799Y171238D01*
X-206858Y171156D01*
X-206914Y171071D01*
X-206966Y170985D01*
X-207015Y170896D01*
X-207061Y170805D01*
X-207102Y170713D01*
X-207141Y170619D01*
X-207175Y170524D01*
X-207206Y170428D01*
X-207233Y170330D01*
X-207257Y170232D01*
X-207276Y170132D01*
X-207292Y170032D01*
X-207304Y169932D01*
X-207312Y169831D01*
X-207316Y169730D01*
X-207316Y169628D01*
X-207312Y169527D01*
X-207304Y169426D01*
X-207292Y169326D01*
X-207276Y169226D01*
X-207257Y169126D01*
X-207233Y169028D01*
X-207206Y168930D01*
X-207175Y168834D01*
X-207141Y168739D01*
X-207102Y168645D01*
X-207061Y168553D01*
X-207015Y168462D01*
X-206966Y168374D01*
X-206914Y168287D01*
X-206858Y168202D01*
X-206799Y168120D01*
X-206737Y168040D01*
X-206672Y167962D01*
X-206604Y167887D01*
X-206533Y167815D01*
X-206460Y167745D01*
X-206383Y167679D01*
X-206305Y167615D01*
X-206223Y167555D01*
X-206140Y167498D01*
X-206054Y167444D01*
X-205966Y167393D01*
X-205877Y167346D01*
X-205785Y167302D01*
X-205692Y167262D01*
X-205598Y167225D01*
X-205502Y167193D01*
X-205405Y167164D01*
X-205307Y167138D01*
X-205208Y167117D01*
X-205108Y167099D01*
X-205008Y167086D01*
X-204907Y167076D01*
X-204806Y167070D01*
X-204705Y167068D01*
X-204705Y167069D02*
X-202095Y167069D01*
X-202095Y176467D01*
X-204705Y176467D01*
X-204705Y176466D02*
X-204795Y176464D01*
X-204884Y176458D01*
X-204974Y176449D01*
X-205063Y176435D01*
X-205151Y176418D01*
X-205238Y176397D01*
X-205325Y176372D01*
X-205410Y176343D01*
X-205494Y176311D01*
X-205576Y176276D01*
X-205657Y176236D01*
X-205736Y176194D01*
X-205813Y176148D01*
X-205888Y176098D01*
X-205961Y176046D01*
X-206032Y175990D01*
X-206100Y175932D01*
X-206165Y175870D01*
X-206228Y175806D01*
X-206288Y175739D01*
X-206345Y175670D01*
X-206399Y175598D01*
X-206450Y175524D01*
X-206498Y175448D01*
X-206542Y175370D01*
X-206583Y175290D01*
X-206621Y175208D01*
X-206655Y175125D01*
X-206685Y175040D01*
X-206712Y174954D01*
X-206735Y174868D01*
X-206754Y174780D01*
X-206769Y174691D01*
X-206781Y174602D01*
X-206789Y174513D01*
X-206793Y174423D01*
X-206793Y174333D01*
X-206789Y174243D01*
X-206781Y174154D01*
X-206769Y174065D01*
X-206754Y173976D01*
X-206735Y173888D01*
X-206712Y173802D01*
X-206685Y173716D01*
X-206655Y173631D01*
X-206621Y173548D01*
X-206583Y173466D01*
X-206542Y173386D01*
X-206498Y173308D01*
X-206450Y173232D01*
X-206399Y173158D01*
X-206345Y173086D01*
X-206288Y173017D01*
X-206228Y172950D01*
X-206165Y172886D01*
X-206100Y172824D01*
X-206032Y172766D01*
X-205961Y172710D01*
X-205888Y172658D01*
X-205813Y172608D01*
X-205736Y172562D01*
X-205657Y172520D01*
X-205576Y172480D01*
X-205494Y172445D01*
X-205410Y172413D01*
X-205325Y172384D01*
X-205238Y172359D01*
X-205151Y172338D01*
X-205063Y172321D01*
X-204974Y172307D01*
X-204884Y172298D01*
X-204795Y172292D01*
X-204705Y172290D01*
X-210802Y174378D02*
X-213413Y176467D01*
X-213413Y167069D01*
X-210802Y167069D02*
X-216024Y167069D01*
X-71036Y169482D02*
X-71036Y160084D01*
X-71036Y169482D02*
X-73647Y169482D01*
X-73748Y169480D01*
X-73849Y169474D01*
X-73950Y169464D01*
X-74050Y169451D01*
X-74150Y169433D01*
X-74249Y169412D01*
X-74347Y169386D01*
X-74444Y169357D01*
X-74540Y169325D01*
X-74634Y169288D01*
X-74727Y169248D01*
X-74819Y169204D01*
X-74908Y169157D01*
X-74996Y169106D01*
X-75082Y169052D01*
X-75165Y168995D01*
X-75247Y168935D01*
X-75325Y168871D01*
X-75402Y168805D01*
X-75475Y168735D01*
X-75546Y168663D01*
X-75614Y168588D01*
X-75679Y168510D01*
X-75741Y168430D01*
X-75800Y168348D01*
X-75856Y168263D01*
X-75908Y168177D01*
X-75957Y168088D01*
X-76003Y167997D01*
X-76044Y167905D01*
X-76083Y167811D01*
X-76117Y167716D01*
X-76148Y167620D01*
X-76175Y167522D01*
X-76199Y167424D01*
X-76218Y167324D01*
X-76234Y167224D01*
X-76246Y167124D01*
X-76254Y167023D01*
X-76258Y166922D01*
X-76258Y166820D01*
X-76254Y166719D01*
X-76246Y166618D01*
X-76234Y166518D01*
X-76218Y166418D01*
X-76199Y166318D01*
X-76175Y166220D01*
X-76148Y166122D01*
X-76117Y166026D01*
X-76083Y165931D01*
X-76044Y165837D01*
X-76003Y165745D01*
X-75957Y165654D01*
X-75908Y165566D01*
X-75856Y165479D01*
X-75800Y165394D01*
X-75741Y165312D01*
X-75679Y165232D01*
X-75614Y165154D01*
X-75546Y165079D01*
X-75475Y165007D01*
X-75402Y164937D01*
X-75325Y164871D01*
X-75247Y164807D01*
X-75165Y164747D01*
X-75082Y164690D01*
X-74996Y164636D01*
X-74908Y164585D01*
X-74819Y164538D01*
X-74727Y164494D01*
X-74634Y164454D01*
X-74540Y164417D01*
X-74444Y164385D01*
X-74347Y164356D01*
X-74249Y164330D01*
X-74150Y164309D01*
X-74050Y164291D01*
X-73950Y164278D01*
X-73849Y164268D01*
X-73748Y164262D01*
X-73647Y164260D01*
X-71036Y164260D01*
X-74169Y164260D02*
X-76257Y160084D01*
X-85345Y167132D02*
X-85343Y167227D01*
X-85337Y167321D01*
X-85328Y167415D01*
X-85315Y167509D01*
X-85298Y167602D01*
X-85277Y167694D01*
X-85252Y167786D01*
X-85224Y167876D01*
X-85192Y167965D01*
X-85157Y168053D01*
X-85118Y168139D01*
X-85076Y168224D01*
X-85030Y168307D01*
X-84981Y168388D01*
X-84929Y168467D01*
X-84874Y168544D01*
X-84815Y168618D01*
X-84754Y168690D01*
X-84690Y168760D01*
X-84623Y168827D01*
X-84553Y168891D01*
X-84481Y168952D01*
X-84407Y169011D01*
X-84330Y169066D01*
X-84251Y169118D01*
X-84170Y169167D01*
X-84087Y169213D01*
X-84002Y169255D01*
X-83916Y169294D01*
X-83828Y169329D01*
X-83739Y169361D01*
X-83649Y169389D01*
X-83557Y169414D01*
X-83465Y169435D01*
X-83372Y169452D01*
X-83278Y169465D01*
X-83184Y169474D01*
X-83090Y169480D01*
X-82995Y169482D01*
X-82995Y169481D02*
X-82887Y169479D01*
X-82778Y169473D01*
X-82670Y169463D01*
X-82563Y169450D01*
X-82456Y169432D01*
X-82349Y169411D01*
X-82244Y169386D01*
X-82139Y169357D01*
X-82036Y169325D01*
X-81934Y169288D01*
X-81833Y169248D01*
X-81734Y169205D01*
X-81636Y169158D01*
X-81540Y169107D01*
X-81446Y169053D01*
X-81354Y168996D01*
X-81264Y168935D01*
X-81176Y168871D01*
X-81091Y168805D01*
X-81008Y168735D01*
X-80928Y168662D01*
X-80850Y168586D01*
X-80775Y168508D01*
X-80703Y168427D01*
X-80634Y168343D01*
X-80568Y168257D01*
X-80505Y168169D01*
X-80446Y168078D01*
X-80389Y167986D01*
X-80336Y167891D01*
X-80287Y167795D01*
X-80241Y167696D01*
X-80198Y167597D01*
X-80159Y167495D01*
X-80124Y167393D01*
X-84561Y165304D02*
X-84630Y165373D01*
X-84696Y165444D01*
X-84760Y165517D01*
X-84821Y165593D01*
X-84879Y165672D01*
X-84933Y165752D01*
X-84985Y165835D01*
X-85033Y165919D01*
X-85079Y166005D01*
X-85120Y166093D01*
X-85159Y166183D01*
X-85194Y166274D01*
X-85225Y166366D01*
X-85253Y166459D01*
X-85277Y166553D01*
X-85297Y166648D01*
X-85314Y166744D01*
X-85327Y166841D01*
X-85336Y166938D01*
X-85342Y167035D01*
X-85344Y167132D01*
X-84561Y165305D02*
X-80123Y160084D01*
X-85344Y160084D01*
X-195644Y162179D02*
X-195644Y152781D01*
X-195644Y162179D02*
X-198254Y162179D01*
X-198355Y162177D01*
X-198456Y162171D01*
X-198557Y162161D01*
X-198657Y162148D01*
X-198757Y162130D01*
X-198856Y162109D01*
X-198954Y162083D01*
X-199051Y162054D01*
X-199147Y162022D01*
X-199241Y161985D01*
X-199334Y161945D01*
X-199426Y161901D01*
X-199515Y161854D01*
X-199603Y161803D01*
X-199689Y161749D01*
X-199772Y161692D01*
X-199854Y161632D01*
X-199932Y161568D01*
X-200009Y161502D01*
X-200082Y161432D01*
X-200153Y161360D01*
X-200221Y161285D01*
X-200286Y161207D01*
X-200348Y161127D01*
X-200407Y161045D01*
X-200463Y160960D01*
X-200515Y160874D01*
X-200564Y160785D01*
X-200610Y160694D01*
X-200651Y160602D01*
X-200690Y160508D01*
X-200724Y160413D01*
X-200755Y160317D01*
X-200782Y160219D01*
X-200806Y160121D01*
X-200825Y160021D01*
X-200841Y159921D01*
X-200853Y159821D01*
X-200861Y159720D01*
X-200865Y159619D01*
X-200865Y159517D01*
X-200861Y159416D01*
X-200853Y159315D01*
X-200841Y159215D01*
X-200825Y159115D01*
X-200806Y159015D01*
X-200782Y158917D01*
X-200755Y158819D01*
X-200724Y158723D01*
X-200690Y158628D01*
X-200651Y158534D01*
X-200610Y158442D01*
X-200564Y158351D01*
X-200515Y158263D01*
X-200463Y158176D01*
X-200407Y158091D01*
X-200348Y158009D01*
X-200286Y157929D01*
X-200221Y157851D01*
X-200153Y157776D01*
X-200082Y157704D01*
X-200009Y157634D01*
X-199932Y157568D01*
X-199854Y157504D01*
X-199772Y157444D01*
X-199689Y157387D01*
X-199603Y157333D01*
X-199515Y157282D01*
X-199426Y157235D01*
X-199334Y157191D01*
X-199241Y157151D01*
X-199147Y157114D01*
X-199051Y157082D01*
X-198954Y157053D01*
X-198856Y157027D01*
X-198757Y157006D01*
X-198657Y156988D01*
X-198557Y156975D01*
X-198456Y156965D01*
X-198355Y156959D01*
X-198254Y156957D01*
X-198254Y156958D02*
X-195644Y156958D01*
X-198776Y156958D02*
X-200865Y152781D01*
X-204730Y160091D02*
X-207341Y162179D01*
X-207341Y152781D01*
X-204730Y152781D02*
X-209952Y152781D01*
X58484Y125011D02*
X67882Y125011D01*
X67882Y127622D01*
X67880Y127723D01*
X67874Y127824D01*
X67864Y127925D01*
X67851Y128025D01*
X67833Y128125D01*
X67812Y128224D01*
X67786Y128322D01*
X67757Y128419D01*
X67725Y128515D01*
X67688Y128609D01*
X67648Y128702D01*
X67604Y128794D01*
X67557Y128883D01*
X67506Y128971D01*
X67452Y129057D01*
X67395Y129140D01*
X67335Y129222D01*
X67271Y129300D01*
X67205Y129377D01*
X67135Y129450D01*
X67063Y129521D01*
X66988Y129589D01*
X66910Y129654D01*
X66830Y129716D01*
X66748Y129775D01*
X66663Y129831D01*
X66577Y129883D01*
X66488Y129932D01*
X66397Y129978D01*
X66305Y130019D01*
X66211Y130058D01*
X66116Y130092D01*
X66020Y130123D01*
X65922Y130150D01*
X65824Y130174D01*
X65724Y130193D01*
X65624Y130209D01*
X65524Y130221D01*
X65423Y130229D01*
X65322Y130233D01*
X65220Y130233D01*
X65119Y130229D01*
X65018Y130221D01*
X64918Y130209D01*
X64818Y130193D01*
X64718Y130174D01*
X64620Y130150D01*
X64522Y130123D01*
X64426Y130092D01*
X64331Y130058D01*
X64237Y130019D01*
X64145Y129978D01*
X64054Y129932D01*
X63966Y129883D01*
X63879Y129831D01*
X63794Y129775D01*
X63712Y129716D01*
X63632Y129654D01*
X63554Y129589D01*
X63479Y129521D01*
X63407Y129450D01*
X63337Y129377D01*
X63271Y129300D01*
X63207Y129222D01*
X63147Y129140D01*
X63090Y129057D01*
X63036Y128971D01*
X62985Y128883D01*
X62938Y128794D01*
X62894Y128702D01*
X62854Y128609D01*
X62817Y128515D01*
X62785Y128419D01*
X62756Y128322D01*
X62730Y128224D01*
X62709Y128125D01*
X62691Y128025D01*
X62678Y127925D01*
X62668Y127824D01*
X62662Y127723D01*
X62660Y127622D01*
X62660Y125011D01*
X62660Y128144D02*
X58484Y130232D01*
X58484Y134098D02*
X58484Y136708D01*
X58483Y136708D02*
X58485Y136809D01*
X58491Y136910D01*
X58501Y137011D01*
X58514Y137111D01*
X58532Y137211D01*
X58553Y137310D01*
X58579Y137408D01*
X58608Y137505D01*
X58640Y137601D01*
X58677Y137695D01*
X58717Y137788D01*
X58761Y137880D01*
X58808Y137969D01*
X58859Y138057D01*
X58913Y138143D01*
X58970Y138226D01*
X59030Y138308D01*
X59094Y138386D01*
X59160Y138463D01*
X59230Y138536D01*
X59302Y138607D01*
X59377Y138675D01*
X59455Y138740D01*
X59535Y138802D01*
X59617Y138861D01*
X59702Y138917D01*
X59789Y138969D01*
X59877Y139018D01*
X59968Y139064D01*
X60060Y139105D01*
X60154Y139144D01*
X60249Y139178D01*
X60345Y139209D01*
X60443Y139236D01*
X60541Y139260D01*
X60641Y139279D01*
X60741Y139295D01*
X60841Y139307D01*
X60942Y139315D01*
X61043Y139319D01*
X61145Y139319D01*
X61246Y139315D01*
X61347Y139307D01*
X61447Y139295D01*
X61547Y139279D01*
X61647Y139260D01*
X61745Y139236D01*
X61843Y139209D01*
X61939Y139178D01*
X62034Y139144D01*
X62128Y139105D01*
X62220Y139064D01*
X62311Y139018D01*
X62400Y138969D01*
X62486Y138917D01*
X62571Y138861D01*
X62653Y138802D01*
X62733Y138740D01*
X62811Y138675D01*
X62886Y138607D01*
X62958Y138536D01*
X63028Y138463D01*
X63094Y138386D01*
X63158Y138308D01*
X63218Y138226D01*
X63275Y138143D01*
X63329Y138057D01*
X63380Y137969D01*
X63427Y137880D01*
X63471Y137788D01*
X63511Y137695D01*
X63548Y137601D01*
X63580Y137505D01*
X63609Y137408D01*
X63635Y137310D01*
X63656Y137211D01*
X63674Y137111D01*
X63687Y137011D01*
X63697Y136910D01*
X63703Y136809D01*
X63705Y136708D01*
X67882Y137231D02*
X67882Y134098D01*
X67881Y137231D02*
X67879Y137321D01*
X67873Y137410D01*
X67864Y137500D01*
X67850Y137589D01*
X67833Y137677D01*
X67812Y137764D01*
X67787Y137851D01*
X67758Y137936D01*
X67726Y138020D01*
X67691Y138102D01*
X67651Y138183D01*
X67609Y138262D01*
X67563Y138339D01*
X67513Y138414D01*
X67461Y138487D01*
X67405Y138558D01*
X67347Y138626D01*
X67285Y138691D01*
X67221Y138754D01*
X67154Y138814D01*
X67085Y138871D01*
X67013Y138925D01*
X66939Y138976D01*
X66863Y139024D01*
X66785Y139068D01*
X66705Y139109D01*
X66623Y139147D01*
X66540Y139181D01*
X66455Y139211D01*
X66369Y139238D01*
X66283Y139261D01*
X66195Y139280D01*
X66106Y139295D01*
X66017Y139307D01*
X65928Y139315D01*
X65838Y139319D01*
X65748Y139319D01*
X65658Y139315D01*
X65569Y139307D01*
X65480Y139295D01*
X65391Y139280D01*
X65303Y139261D01*
X65217Y139238D01*
X65131Y139211D01*
X65046Y139181D01*
X64963Y139147D01*
X64881Y139109D01*
X64801Y139068D01*
X64723Y139024D01*
X64647Y138976D01*
X64573Y138925D01*
X64501Y138871D01*
X64432Y138814D01*
X64365Y138754D01*
X64301Y138691D01*
X64239Y138626D01*
X64181Y138558D01*
X64125Y138487D01*
X64073Y138414D01*
X64023Y138339D01*
X63977Y138262D01*
X63935Y138183D01*
X63895Y138102D01*
X63860Y138020D01*
X63828Y137936D01*
X63799Y137851D01*
X63774Y137764D01*
X63753Y137677D01*
X63736Y137589D01*
X63722Y137500D01*
X63713Y137410D01*
X63707Y137321D01*
X63705Y137231D01*
X63705Y135142D01*
X-108832Y90869D02*
X-110920Y90869D01*
X-108832Y90869D02*
X-108743Y90871D01*
X-108655Y90877D01*
X-108567Y90886D01*
X-108479Y90899D01*
X-108392Y90916D01*
X-108306Y90936D01*
X-108221Y90961D01*
X-108136Y90988D01*
X-108053Y91020D01*
X-107972Y91054D01*
X-107892Y91093D01*
X-107814Y91134D01*
X-107737Y91179D01*
X-107663Y91227D01*
X-107590Y91278D01*
X-107520Y91332D01*
X-107453Y91390D01*
X-107387Y91450D01*
X-107325Y91512D01*
X-107265Y91578D01*
X-107207Y91645D01*
X-107153Y91715D01*
X-107102Y91788D01*
X-107054Y91862D01*
X-107009Y91939D01*
X-106968Y92017D01*
X-106929Y92097D01*
X-106895Y92178D01*
X-106863Y92261D01*
X-106836Y92346D01*
X-106811Y92431D01*
X-106791Y92517D01*
X-106774Y92604D01*
X-106761Y92692D01*
X-106752Y92780D01*
X-106746Y92868D01*
X-106744Y92957D01*
X-106744Y98178D01*
X-106746Y98269D01*
X-106752Y98360D01*
X-106762Y98451D01*
X-106776Y98541D01*
X-106793Y98630D01*
X-106815Y98718D01*
X-106841Y98806D01*
X-106870Y98892D01*
X-106903Y98977D01*
X-106940Y99060D01*
X-106980Y99142D01*
X-107024Y99222D01*
X-107071Y99300D01*
X-107122Y99376D01*
X-107175Y99449D01*
X-107232Y99520D01*
X-107293Y99589D01*
X-107356Y99654D01*
X-107421Y99717D01*
X-107490Y99777D01*
X-107561Y99835D01*
X-107634Y99888D01*
X-107710Y99939D01*
X-107788Y99986D01*
X-107868Y100030D01*
X-107950Y100070D01*
X-108033Y100107D01*
X-108118Y100140D01*
X-108204Y100169D01*
X-108292Y100195D01*
X-108380Y100217D01*
X-108469Y100234D01*
X-108559Y100248D01*
X-108650Y100258D01*
X-108741Y100264D01*
X-108832Y100266D01*
X-108832Y100267D02*
X-110920Y100267D01*
X-114389Y93479D02*
X-114391Y93580D01*
X-114397Y93681D01*
X-114407Y93782D01*
X-114420Y93882D01*
X-114438Y93982D01*
X-114459Y94081D01*
X-114485Y94179D01*
X-114514Y94276D01*
X-114546Y94372D01*
X-114583Y94466D01*
X-114623Y94559D01*
X-114667Y94651D01*
X-114714Y94740D01*
X-114765Y94828D01*
X-114819Y94914D01*
X-114876Y94997D01*
X-114936Y95079D01*
X-115000Y95157D01*
X-115066Y95234D01*
X-115136Y95307D01*
X-115208Y95378D01*
X-115283Y95446D01*
X-115361Y95511D01*
X-115441Y95573D01*
X-115523Y95632D01*
X-115608Y95688D01*
X-115695Y95740D01*
X-115783Y95789D01*
X-115874Y95835D01*
X-115966Y95876D01*
X-116060Y95915D01*
X-116155Y95949D01*
X-116251Y95980D01*
X-116349Y96007D01*
X-116447Y96031D01*
X-116547Y96050D01*
X-116647Y96066D01*
X-116747Y96078D01*
X-116848Y96086D01*
X-116949Y96090D01*
X-117051Y96090D01*
X-117152Y96086D01*
X-117253Y96078D01*
X-117353Y96066D01*
X-117453Y96050D01*
X-117553Y96031D01*
X-117651Y96007D01*
X-117749Y95980D01*
X-117845Y95949D01*
X-117940Y95915D01*
X-118034Y95876D01*
X-118126Y95835D01*
X-118217Y95789D01*
X-118306Y95740D01*
X-118392Y95688D01*
X-118477Y95632D01*
X-118559Y95573D01*
X-118639Y95511D01*
X-118717Y95446D01*
X-118792Y95378D01*
X-118864Y95307D01*
X-118934Y95234D01*
X-119000Y95157D01*
X-119064Y95079D01*
X-119124Y94997D01*
X-119181Y94914D01*
X-119235Y94828D01*
X-119286Y94740D01*
X-119333Y94651D01*
X-119377Y94559D01*
X-119417Y94466D01*
X-119454Y94372D01*
X-119486Y94276D01*
X-119515Y94179D01*
X-119541Y94081D01*
X-119562Y93982D01*
X-119580Y93882D01*
X-119593Y93782D01*
X-119603Y93681D01*
X-119609Y93580D01*
X-119611Y93479D01*
X-119609Y93378D01*
X-119603Y93277D01*
X-119593Y93176D01*
X-119580Y93076D01*
X-119562Y92976D01*
X-119541Y92877D01*
X-119515Y92779D01*
X-119486Y92682D01*
X-119454Y92586D01*
X-119417Y92492D01*
X-119377Y92399D01*
X-119333Y92307D01*
X-119286Y92218D01*
X-119235Y92130D01*
X-119181Y92044D01*
X-119124Y91961D01*
X-119064Y91879D01*
X-119000Y91801D01*
X-118934Y91724D01*
X-118864Y91651D01*
X-118792Y91580D01*
X-118717Y91512D01*
X-118639Y91447D01*
X-118559Y91385D01*
X-118477Y91326D01*
X-118392Y91270D01*
X-118306Y91218D01*
X-118217Y91169D01*
X-118126Y91123D01*
X-118034Y91082D01*
X-117940Y91043D01*
X-117845Y91009D01*
X-117749Y90978D01*
X-117651Y90951D01*
X-117553Y90927D01*
X-117453Y90908D01*
X-117353Y90892D01*
X-117253Y90880D01*
X-117152Y90872D01*
X-117051Y90868D01*
X-116949Y90868D01*
X-116848Y90872D01*
X-116747Y90880D01*
X-116647Y90892D01*
X-116547Y90908D01*
X-116447Y90927D01*
X-116349Y90951D01*
X-116251Y90978D01*
X-116155Y91009D01*
X-116060Y91043D01*
X-115966Y91082D01*
X-115874Y91123D01*
X-115783Y91169D01*
X-115695Y91218D01*
X-115608Y91270D01*
X-115523Y91326D01*
X-115441Y91385D01*
X-115361Y91447D01*
X-115283Y91512D01*
X-115208Y91580D01*
X-115136Y91651D01*
X-115066Y91724D01*
X-115000Y91801D01*
X-114936Y91879D01*
X-114876Y91961D01*
X-114819Y92044D01*
X-114765Y92130D01*
X-114714Y92218D01*
X-114667Y92307D01*
X-114623Y92399D01*
X-114583Y92492D01*
X-114546Y92586D01*
X-114514Y92682D01*
X-114485Y92779D01*
X-114459Y92877D01*
X-114438Y92976D01*
X-114420Y93076D01*
X-114407Y93176D01*
X-114397Y93277D01*
X-114391Y93378D01*
X-114389Y93479D01*
X-114912Y98178D02*
X-114914Y98268D01*
X-114920Y98357D01*
X-114929Y98447D01*
X-114943Y98536D01*
X-114960Y98624D01*
X-114981Y98711D01*
X-115006Y98798D01*
X-115035Y98883D01*
X-115067Y98967D01*
X-115102Y99049D01*
X-115142Y99130D01*
X-115184Y99209D01*
X-115230Y99286D01*
X-115280Y99361D01*
X-115332Y99434D01*
X-115388Y99505D01*
X-115446Y99573D01*
X-115508Y99638D01*
X-115572Y99701D01*
X-115639Y99761D01*
X-115708Y99818D01*
X-115780Y99872D01*
X-115854Y99923D01*
X-115930Y99971D01*
X-116008Y100015D01*
X-116088Y100056D01*
X-116170Y100094D01*
X-116253Y100128D01*
X-116338Y100158D01*
X-116424Y100185D01*
X-116510Y100208D01*
X-116598Y100227D01*
X-116687Y100242D01*
X-116776Y100254D01*
X-116865Y100262D01*
X-116955Y100266D01*
X-117045Y100266D01*
X-117135Y100262D01*
X-117224Y100254D01*
X-117313Y100242D01*
X-117402Y100227D01*
X-117490Y100208D01*
X-117576Y100185D01*
X-117662Y100158D01*
X-117747Y100128D01*
X-117830Y100094D01*
X-117912Y100056D01*
X-117992Y100015D01*
X-118070Y99971D01*
X-118146Y99923D01*
X-118220Y99872D01*
X-118292Y99818D01*
X-118361Y99761D01*
X-118428Y99701D01*
X-118492Y99638D01*
X-118554Y99573D01*
X-118612Y99505D01*
X-118668Y99434D01*
X-118720Y99361D01*
X-118770Y99286D01*
X-118816Y99209D01*
X-118858Y99130D01*
X-118898Y99049D01*
X-118933Y98967D01*
X-118965Y98883D01*
X-118994Y98798D01*
X-119019Y98711D01*
X-119040Y98624D01*
X-119057Y98536D01*
X-119071Y98447D01*
X-119080Y98357D01*
X-119086Y98268D01*
X-119088Y98178D01*
X-119086Y98088D01*
X-119080Y97999D01*
X-119071Y97909D01*
X-119057Y97820D01*
X-119040Y97732D01*
X-119019Y97645D01*
X-118994Y97558D01*
X-118965Y97473D01*
X-118933Y97389D01*
X-118898Y97307D01*
X-118858Y97226D01*
X-118816Y97147D01*
X-118770Y97070D01*
X-118720Y96995D01*
X-118668Y96922D01*
X-118612Y96851D01*
X-118554Y96783D01*
X-118492Y96718D01*
X-118428Y96655D01*
X-118361Y96595D01*
X-118292Y96538D01*
X-118220Y96484D01*
X-118146Y96433D01*
X-118070Y96385D01*
X-117992Y96341D01*
X-117912Y96300D01*
X-117830Y96262D01*
X-117747Y96228D01*
X-117662Y96198D01*
X-117576Y96171D01*
X-117490Y96148D01*
X-117402Y96129D01*
X-117313Y96114D01*
X-117224Y96102D01*
X-117135Y96094D01*
X-117045Y96090D01*
X-116955Y96090D01*
X-116865Y96094D01*
X-116776Y96102D01*
X-116687Y96114D01*
X-116598Y96129D01*
X-116510Y96148D01*
X-116424Y96171D01*
X-116338Y96198D01*
X-116253Y96228D01*
X-116170Y96262D01*
X-116088Y96300D01*
X-116008Y96341D01*
X-115930Y96385D01*
X-115854Y96433D01*
X-115780Y96484D01*
X-115708Y96538D01*
X-115639Y96595D01*
X-115572Y96655D01*
X-115508Y96718D01*
X-115446Y96783D01*
X-115388Y96851D01*
X-115332Y96922D01*
X-115280Y96995D01*
X-115230Y97070D01*
X-115184Y97147D01*
X-115142Y97226D01*
X-115102Y97307D01*
X-115067Y97389D01*
X-115035Y97473D01*
X-115006Y97558D01*
X-114981Y97645D01*
X-114960Y97732D01*
X-114943Y97820D01*
X-114929Y97909D01*
X-114920Y97999D01*
X-114914Y98088D01*
X-114912Y98178D01*
D12*
X-119545Y126352D02*
X-119545Y146482D01*
D11*
X-104570Y132144D02*
X-102482Y132144D01*
X-102393Y132146D01*
X-102305Y132152D01*
X-102217Y132161D01*
X-102129Y132174D01*
X-102042Y132191D01*
X-101956Y132211D01*
X-101871Y132236D01*
X-101786Y132263D01*
X-101703Y132295D01*
X-101622Y132329D01*
X-101542Y132368D01*
X-101464Y132409D01*
X-101387Y132454D01*
X-101313Y132502D01*
X-101240Y132553D01*
X-101170Y132607D01*
X-101103Y132665D01*
X-101037Y132725D01*
X-100975Y132787D01*
X-100915Y132853D01*
X-100857Y132920D01*
X-100803Y132990D01*
X-100752Y133063D01*
X-100704Y133137D01*
X-100659Y133214D01*
X-100618Y133292D01*
X-100579Y133372D01*
X-100545Y133453D01*
X-100513Y133536D01*
X-100486Y133621D01*
X-100461Y133706D01*
X-100441Y133792D01*
X-100424Y133879D01*
X-100411Y133967D01*
X-100402Y134055D01*
X-100396Y134143D01*
X-100394Y134232D01*
X-100394Y139453D01*
X-100396Y139544D01*
X-100402Y139635D01*
X-100412Y139726D01*
X-100426Y139816D01*
X-100443Y139905D01*
X-100465Y139993D01*
X-100491Y140081D01*
X-100520Y140167D01*
X-100553Y140252D01*
X-100590Y140335D01*
X-100630Y140417D01*
X-100674Y140497D01*
X-100721Y140575D01*
X-100772Y140651D01*
X-100825Y140724D01*
X-100882Y140795D01*
X-100943Y140864D01*
X-101006Y140929D01*
X-101071Y140992D01*
X-101140Y141052D01*
X-101211Y141110D01*
X-101284Y141163D01*
X-101360Y141214D01*
X-101438Y141261D01*
X-101518Y141305D01*
X-101600Y141345D01*
X-101683Y141382D01*
X-101768Y141415D01*
X-101854Y141444D01*
X-101942Y141470D01*
X-102030Y141492D01*
X-102119Y141509D01*
X-102209Y141523D01*
X-102300Y141533D01*
X-102391Y141539D01*
X-102482Y141541D01*
X-102482Y141542D02*
X-104570Y141542D01*
X-110128Y136320D02*
X-113260Y136320D01*
X-110128Y136321D02*
X-110039Y136323D01*
X-109951Y136329D01*
X-109863Y136338D01*
X-109775Y136351D01*
X-109688Y136368D01*
X-109602Y136388D01*
X-109517Y136413D01*
X-109432Y136440D01*
X-109349Y136472D01*
X-109268Y136506D01*
X-109188Y136545D01*
X-109110Y136586D01*
X-109033Y136631D01*
X-108959Y136679D01*
X-108886Y136730D01*
X-108816Y136784D01*
X-108749Y136842D01*
X-108683Y136902D01*
X-108621Y136964D01*
X-108561Y137030D01*
X-108503Y137097D01*
X-108449Y137167D01*
X-108398Y137240D01*
X-108350Y137314D01*
X-108305Y137391D01*
X-108264Y137469D01*
X-108225Y137549D01*
X-108191Y137630D01*
X-108159Y137713D01*
X-108132Y137798D01*
X-108107Y137883D01*
X-108087Y137969D01*
X-108070Y138056D01*
X-108057Y138144D01*
X-108048Y138232D01*
X-108042Y138320D01*
X-108040Y138409D01*
X-108039Y138409D02*
X-108039Y138931D01*
X-108041Y139032D01*
X-108047Y139133D01*
X-108057Y139234D01*
X-108070Y139334D01*
X-108088Y139434D01*
X-108109Y139533D01*
X-108135Y139631D01*
X-108164Y139728D01*
X-108196Y139824D01*
X-108233Y139918D01*
X-108273Y140011D01*
X-108317Y140103D01*
X-108364Y140192D01*
X-108415Y140280D01*
X-108469Y140366D01*
X-108526Y140449D01*
X-108586Y140531D01*
X-108650Y140609D01*
X-108716Y140686D01*
X-108786Y140759D01*
X-108858Y140830D01*
X-108933Y140898D01*
X-109011Y140963D01*
X-109091Y141025D01*
X-109173Y141084D01*
X-109258Y141140D01*
X-109345Y141192D01*
X-109433Y141241D01*
X-109524Y141287D01*
X-109616Y141328D01*
X-109710Y141367D01*
X-109805Y141401D01*
X-109901Y141432D01*
X-109999Y141459D01*
X-110097Y141483D01*
X-110197Y141502D01*
X-110297Y141518D01*
X-110397Y141530D01*
X-110498Y141538D01*
X-110599Y141542D01*
X-110701Y141542D01*
X-110802Y141538D01*
X-110903Y141530D01*
X-111003Y141518D01*
X-111103Y141502D01*
X-111203Y141483D01*
X-111301Y141459D01*
X-111399Y141432D01*
X-111495Y141401D01*
X-111590Y141367D01*
X-111684Y141328D01*
X-111776Y141287D01*
X-111867Y141241D01*
X-111956Y141192D01*
X-112042Y141140D01*
X-112127Y141084D01*
X-112209Y141025D01*
X-112289Y140963D01*
X-112367Y140898D01*
X-112442Y140830D01*
X-112514Y140759D01*
X-112584Y140686D01*
X-112650Y140609D01*
X-112714Y140531D01*
X-112774Y140449D01*
X-112831Y140366D01*
X-112885Y140280D01*
X-112936Y140192D01*
X-112983Y140103D01*
X-113027Y140011D01*
X-113067Y139918D01*
X-113104Y139824D01*
X-113136Y139728D01*
X-113165Y139631D01*
X-113191Y139533D01*
X-113212Y139434D01*
X-113230Y139334D01*
X-113243Y139234D01*
X-113253Y139133D01*
X-113259Y139032D01*
X-113261Y138931D01*
X-113260Y138931D02*
X-113260Y136320D01*
X-113258Y136194D01*
X-113252Y136068D01*
X-113243Y135942D01*
X-113230Y135817D01*
X-113212Y135692D01*
X-113192Y135567D01*
X-113167Y135443D01*
X-113139Y135320D01*
X-113107Y135198D01*
X-113071Y135077D01*
X-113032Y134957D01*
X-112989Y134839D01*
X-112942Y134722D01*
X-112892Y134606D01*
X-112838Y134491D01*
X-112782Y134379D01*
X-112721Y134268D01*
X-112658Y134159D01*
X-112591Y134052D01*
X-112521Y133947D01*
X-112447Y133844D01*
X-112371Y133744D01*
X-112292Y133646D01*
X-112210Y133550D01*
X-112124Y133457D01*
X-112037Y133366D01*
X-111946Y133279D01*
X-111853Y133193D01*
X-111757Y133111D01*
X-111659Y133032D01*
X-111559Y132956D01*
X-111456Y132882D01*
X-111351Y132812D01*
X-111244Y132745D01*
X-111135Y132682D01*
X-111024Y132621D01*
X-110912Y132565D01*
X-110797Y132511D01*
X-110681Y132461D01*
X-110564Y132414D01*
X-110446Y132371D01*
X-110326Y132332D01*
X-110205Y132296D01*
X-110083Y132264D01*
X-109960Y132236D01*
X-109836Y132211D01*
X-109711Y132191D01*
X-109586Y132173D01*
X-109461Y132160D01*
X-109335Y132151D01*
X-109209Y132145D01*
X-109083Y132143D01*
X187071Y147972D02*
X187071Y150060D01*
X187071Y147972D02*
X187073Y147883D01*
X187079Y147795D01*
X187088Y147707D01*
X187101Y147619D01*
X187118Y147532D01*
X187138Y147446D01*
X187163Y147361D01*
X187190Y147276D01*
X187222Y147193D01*
X187256Y147112D01*
X187295Y147032D01*
X187336Y146954D01*
X187381Y146877D01*
X187429Y146803D01*
X187480Y146730D01*
X187534Y146660D01*
X187592Y146593D01*
X187652Y146527D01*
X187714Y146465D01*
X187780Y146405D01*
X187847Y146347D01*
X187917Y146293D01*
X187990Y146242D01*
X188064Y146194D01*
X188141Y146149D01*
X188219Y146108D01*
X188299Y146069D01*
X188380Y146035D01*
X188463Y146003D01*
X188548Y145976D01*
X188633Y145951D01*
X188719Y145931D01*
X188806Y145914D01*
X188894Y145901D01*
X188982Y145892D01*
X189070Y145886D01*
X189159Y145884D01*
X189159Y145883D02*
X194381Y145883D01*
X194381Y145884D02*
X194472Y145886D01*
X194563Y145892D01*
X194654Y145902D01*
X194744Y145916D01*
X194833Y145933D01*
X194921Y145955D01*
X195009Y145981D01*
X195095Y146010D01*
X195180Y146043D01*
X195263Y146080D01*
X195345Y146120D01*
X195425Y146164D01*
X195503Y146211D01*
X195579Y146262D01*
X195652Y146315D01*
X195723Y146372D01*
X195792Y146433D01*
X195857Y146496D01*
X195920Y146561D01*
X195980Y146630D01*
X196038Y146701D01*
X196091Y146774D01*
X196142Y146850D01*
X196189Y146928D01*
X196233Y147008D01*
X196273Y147090D01*
X196310Y147173D01*
X196343Y147258D01*
X196372Y147344D01*
X196398Y147432D01*
X196420Y147520D01*
X196437Y147609D01*
X196451Y147699D01*
X196461Y147790D01*
X196467Y147881D01*
X196469Y147972D01*
X196469Y150060D01*
X194381Y153529D02*
X196469Y156139D01*
X187071Y156139D01*
X187071Y153529D02*
X187071Y158750D01*
X194381Y162673D02*
X196469Y165283D01*
X187071Y165283D01*
X187071Y162673D02*
X187071Y167894D01*
X-106744Y70104D02*
X-106744Y60706D01*
X-106744Y70104D02*
X-109354Y70104D01*
X-109455Y70102D01*
X-109556Y70096D01*
X-109657Y70086D01*
X-109757Y70073D01*
X-109857Y70055D01*
X-109956Y70034D01*
X-110054Y70008D01*
X-110151Y69979D01*
X-110247Y69947D01*
X-110341Y69910D01*
X-110434Y69870D01*
X-110526Y69826D01*
X-110615Y69779D01*
X-110703Y69728D01*
X-110789Y69674D01*
X-110872Y69617D01*
X-110954Y69557D01*
X-111032Y69493D01*
X-111109Y69427D01*
X-111182Y69357D01*
X-111253Y69285D01*
X-111321Y69210D01*
X-111386Y69132D01*
X-111448Y69052D01*
X-111507Y68970D01*
X-111563Y68885D01*
X-111615Y68799D01*
X-111664Y68710D01*
X-111710Y68619D01*
X-111751Y68527D01*
X-111790Y68433D01*
X-111824Y68338D01*
X-111855Y68242D01*
X-111882Y68144D01*
X-111906Y68046D01*
X-111925Y67946D01*
X-111941Y67846D01*
X-111953Y67746D01*
X-111961Y67645D01*
X-111965Y67544D01*
X-111965Y67442D01*
X-111961Y67341D01*
X-111953Y67240D01*
X-111941Y67140D01*
X-111925Y67040D01*
X-111906Y66940D01*
X-111882Y66842D01*
X-111855Y66744D01*
X-111824Y66648D01*
X-111790Y66553D01*
X-111751Y66459D01*
X-111710Y66367D01*
X-111664Y66276D01*
X-111615Y66188D01*
X-111563Y66101D01*
X-111507Y66016D01*
X-111448Y65934D01*
X-111386Y65854D01*
X-111321Y65776D01*
X-111253Y65701D01*
X-111182Y65629D01*
X-111109Y65559D01*
X-111032Y65493D01*
X-110954Y65429D01*
X-110872Y65369D01*
X-110789Y65312D01*
X-110703Y65258D01*
X-110615Y65207D01*
X-110526Y65160D01*
X-110434Y65116D01*
X-110341Y65076D01*
X-110247Y65039D01*
X-110151Y65007D01*
X-110054Y64978D01*
X-109956Y64952D01*
X-109857Y64931D01*
X-109757Y64913D01*
X-109657Y64900D01*
X-109556Y64890D01*
X-109455Y64884D01*
X-109354Y64882D01*
X-109354Y64883D02*
X-106744Y64883D01*
X-109876Y64883D02*
X-111965Y60706D01*
X-115830Y62794D02*
X-117919Y70104D01*
X-115830Y62794D02*
X-121052Y62794D01*
X-119485Y60706D02*
X-119485Y64883D01*
X-106744Y76581D02*
X-106744Y85979D01*
X-109354Y85979D01*
X-109455Y85977D01*
X-109556Y85971D01*
X-109657Y85961D01*
X-109757Y85948D01*
X-109857Y85930D01*
X-109956Y85909D01*
X-110054Y85883D01*
X-110151Y85854D01*
X-110247Y85822D01*
X-110341Y85785D01*
X-110434Y85745D01*
X-110526Y85701D01*
X-110615Y85654D01*
X-110703Y85603D01*
X-110789Y85549D01*
X-110872Y85492D01*
X-110954Y85432D01*
X-111032Y85368D01*
X-111109Y85302D01*
X-111182Y85232D01*
X-111253Y85160D01*
X-111321Y85085D01*
X-111386Y85007D01*
X-111448Y84927D01*
X-111507Y84845D01*
X-111563Y84760D01*
X-111615Y84674D01*
X-111664Y84585D01*
X-111710Y84494D01*
X-111751Y84402D01*
X-111790Y84308D01*
X-111824Y84213D01*
X-111855Y84117D01*
X-111882Y84019D01*
X-111906Y83921D01*
X-111925Y83821D01*
X-111941Y83721D01*
X-111953Y83621D01*
X-111961Y83520D01*
X-111965Y83419D01*
X-111965Y83317D01*
X-111961Y83216D01*
X-111953Y83115D01*
X-111941Y83015D01*
X-111925Y82915D01*
X-111906Y82815D01*
X-111882Y82717D01*
X-111855Y82619D01*
X-111824Y82523D01*
X-111790Y82428D01*
X-111751Y82334D01*
X-111710Y82242D01*
X-111664Y82151D01*
X-111615Y82063D01*
X-111563Y81976D01*
X-111507Y81891D01*
X-111448Y81809D01*
X-111386Y81729D01*
X-111321Y81651D01*
X-111253Y81576D01*
X-111182Y81504D01*
X-111109Y81434D01*
X-111032Y81368D01*
X-110954Y81304D01*
X-110872Y81244D01*
X-110789Y81187D01*
X-110703Y81133D01*
X-110615Y81082D01*
X-110526Y81035D01*
X-110434Y80991D01*
X-110341Y80951D01*
X-110247Y80914D01*
X-110151Y80882D01*
X-110054Y80853D01*
X-109956Y80827D01*
X-109857Y80806D01*
X-109757Y80788D01*
X-109657Y80775D01*
X-109556Y80765D01*
X-109455Y80759D01*
X-109354Y80757D01*
X-109354Y80758D02*
X-106744Y80758D01*
X-109876Y80758D02*
X-111965Y76581D01*
X-115830Y76581D02*
X-118963Y76581D01*
X-119052Y76583D01*
X-119140Y76589D01*
X-119228Y76598D01*
X-119316Y76611D01*
X-119403Y76628D01*
X-119489Y76648D01*
X-119574Y76673D01*
X-119659Y76700D01*
X-119742Y76732D01*
X-119823Y76766D01*
X-119903Y76805D01*
X-119981Y76846D01*
X-120058Y76891D01*
X-120132Y76939D01*
X-120205Y76990D01*
X-120275Y77044D01*
X-120342Y77102D01*
X-120408Y77162D01*
X-120470Y77224D01*
X-120530Y77290D01*
X-120588Y77357D01*
X-120642Y77427D01*
X-120693Y77500D01*
X-120741Y77574D01*
X-120786Y77651D01*
X-120827Y77729D01*
X-120866Y77809D01*
X-120900Y77890D01*
X-120932Y77973D01*
X-120959Y78058D01*
X-120984Y78143D01*
X-121004Y78229D01*
X-121021Y78316D01*
X-121034Y78404D01*
X-121043Y78492D01*
X-121049Y78580D01*
X-121051Y78669D01*
X-121052Y78669D02*
X-121052Y79714D01*
X-121051Y79714D02*
X-121049Y79803D01*
X-121043Y79891D01*
X-121034Y79979D01*
X-121021Y80067D01*
X-121004Y80154D01*
X-120984Y80240D01*
X-120959Y80325D01*
X-120932Y80410D01*
X-120900Y80493D01*
X-120866Y80574D01*
X-120827Y80654D01*
X-120786Y80732D01*
X-120741Y80809D01*
X-120693Y80883D01*
X-120642Y80956D01*
X-120588Y81026D01*
X-120530Y81093D01*
X-120470Y81159D01*
X-120408Y81221D01*
X-120342Y81281D01*
X-120275Y81339D01*
X-120205Y81393D01*
X-120132Y81444D01*
X-120058Y81492D01*
X-119981Y81537D01*
X-119903Y81578D01*
X-119823Y81617D01*
X-119742Y81651D01*
X-119659Y81683D01*
X-119574Y81710D01*
X-119489Y81735D01*
X-119403Y81755D01*
X-119316Y81772D01*
X-119228Y81785D01*
X-119140Y81794D01*
X-119052Y81800D01*
X-118963Y81802D01*
X-115830Y81802D01*
X-115830Y85979D01*
X-121052Y85979D01*
D12*
X-171018Y111608D02*
X-191148Y111608D01*
D11*
X-185357Y99808D02*
X-185357Y97719D01*
X-185356Y97719D02*
X-185354Y97630D01*
X-185348Y97542D01*
X-185339Y97454D01*
X-185326Y97366D01*
X-185309Y97279D01*
X-185289Y97193D01*
X-185264Y97108D01*
X-185237Y97023D01*
X-185205Y96940D01*
X-185171Y96859D01*
X-185132Y96779D01*
X-185091Y96701D01*
X-185046Y96624D01*
X-184998Y96550D01*
X-184947Y96477D01*
X-184893Y96407D01*
X-184835Y96340D01*
X-184775Y96274D01*
X-184713Y96212D01*
X-184647Y96152D01*
X-184580Y96094D01*
X-184510Y96040D01*
X-184437Y95989D01*
X-184363Y95941D01*
X-184286Y95896D01*
X-184208Y95855D01*
X-184128Y95816D01*
X-184047Y95782D01*
X-183964Y95750D01*
X-183879Y95723D01*
X-183794Y95698D01*
X-183708Y95678D01*
X-183621Y95661D01*
X-183533Y95648D01*
X-183445Y95639D01*
X-183357Y95633D01*
X-183268Y95631D01*
X-178047Y95631D01*
X-177956Y95633D01*
X-177865Y95639D01*
X-177774Y95649D01*
X-177684Y95663D01*
X-177595Y95681D01*
X-177506Y95702D01*
X-177419Y95728D01*
X-177333Y95757D01*
X-177248Y95790D01*
X-177164Y95827D01*
X-177082Y95867D01*
X-177003Y95911D01*
X-176925Y95958D01*
X-176849Y96009D01*
X-176775Y96063D01*
X-176704Y96120D01*
X-176636Y96180D01*
X-176570Y96243D01*
X-176507Y96309D01*
X-176447Y96377D01*
X-176390Y96448D01*
X-176336Y96522D01*
X-176285Y96598D01*
X-176238Y96675D01*
X-176194Y96755D01*
X-176154Y96837D01*
X-176117Y96921D01*
X-176084Y97005D01*
X-176055Y97092D01*
X-176029Y97179D01*
X-176008Y97268D01*
X-175990Y97357D01*
X-175976Y97447D01*
X-175966Y97538D01*
X-175960Y97629D01*
X-175958Y97720D01*
X-175959Y97719D02*
X-175959Y99808D01*
X-175959Y103277D02*
X-177003Y103277D01*
X-175959Y103277D02*
X-175959Y108498D01*
X-185357Y105887D01*
X-104570Y105156D02*
X-102482Y105156D01*
X-102393Y105158D01*
X-102305Y105164D01*
X-102217Y105173D01*
X-102129Y105186D01*
X-102042Y105203D01*
X-101956Y105223D01*
X-101871Y105248D01*
X-101786Y105275D01*
X-101703Y105307D01*
X-101622Y105341D01*
X-101542Y105380D01*
X-101464Y105421D01*
X-101387Y105466D01*
X-101313Y105514D01*
X-101240Y105565D01*
X-101170Y105619D01*
X-101103Y105677D01*
X-101037Y105737D01*
X-100975Y105799D01*
X-100915Y105865D01*
X-100857Y105932D01*
X-100803Y106002D01*
X-100752Y106075D01*
X-100704Y106149D01*
X-100659Y106226D01*
X-100618Y106304D01*
X-100579Y106384D01*
X-100545Y106465D01*
X-100513Y106548D01*
X-100486Y106633D01*
X-100461Y106718D01*
X-100441Y106804D01*
X-100424Y106891D01*
X-100411Y106979D01*
X-100402Y107067D01*
X-100396Y107155D01*
X-100394Y107244D01*
X-100394Y112466D01*
X-100396Y112557D01*
X-100402Y112648D01*
X-100412Y112739D01*
X-100426Y112829D01*
X-100443Y112918D01*
X-100465Y113006D01*
X-100491Y113094D01*
X-100520Y113180D01*
X-100553Y113265D01*
X-100590Y113348D01*
X-100630Y113430D01*
X-100674Y113510D01*
X-100721Y113588D01*
X-100772Y113664D01*
X-100825Y113737D01*
X-100882Y113808D01*
X-100943Y113877D01*
X-101006Y113942D01*
X-101071Y114005D01*
X-101140Y114065D01*
X-101211Y114123D01*
X-101284Y114176D01*
X-101360Y114227D01*
X-101438Y114274D01*
X-101518Y114318D01*
X-101600Y114358D01*
X-101683Y114395D01*
X-101768Y114428D01*
X-101854Y114457D01*
X-101942Y114483D01*
X-102030Y114505D01*
X-102119Y114522D01*
X-102209Y114536D01*
X-102300Y114546D01*
X-102391Y114552D01*
X-102482Y114554D01*
X-104570Y114554D01*
X-108039Y112466D02*
X-110650Y114554D01*
X-110650Y105156D01*
X-113260Y105156D02*
X-108039Y105156D01*
X-120055Y114555D02*
X-120150Y114553D01*
X-120244Y114547D01*
X-120338Y114538D01*
X-120432Y114525D01*
X-120525Y114508D01*
X-120617Y114487D01*
X-120709Y114462D01*
X-120799Y114434D01*
X-120888Y114402D01*
X-120976Y114367D01*
X-121062Y114328D01*
X-121147Y114286D01*
X-121230Y114240D01*
X-121311Y114191D01*
X-121390Y114139D01*
X-121467Y114084D01*
X-121541Y114025D01*
X-121613Y113964D01*
X-121683Y113900D01*
X-121750Y113833D01*
X-121814Y113763D01*
X-121875Y113691D01*
X-121934Y113617D01*
X-121989Y113540D01*
X-122041Y113461D01*
X-122090Y113380D01*
X-122136Y113297D01*
X-122178Y113212D01*
X-122217Y113126D01*
X-122252Y113038D01*
X-122284Y112949D01*
X-122312Y112859D01*
X-122337Y112767D01*
X-122358Y112675D01*
X-122375Y112582D01*
X-122388Y112488D01*
X-122397Y112394D01*
X-122403Y112300D01*
X-122405Y112205D01*
X-120055Y114554D02*
X-119947Y114552D01*
X-119838Y114546D01*
X-119730Y114536D01*
X-119623Y114523D01*
X-119516Y114505D01*
X-119409Y114484D01*
X-119304Y114459D01*
X-119199Y114430D01*
X-119096Y114398D01*
X-118994Y114361D01*
X-118893Y114321D01*
X-118794Y114278D01*
X-118696Y114231D01*
X-118600Y114180D01*
X-118506Y114126D01*
X-118414Y114069D01*
X-118324Y114008D01*
X-118236Y113944D01*
X-118151Y113878D01*
X-118068Y113808D01*
X-117988Y113735D01*
X-117910Y113659D01*
X-117835Y113581D01*
X-117763Y113500D01*
X-117694Y113416D01*
X-117628Y113330D01*
X-117565Y113242D01*
X-117506Y113151D01*
X-117449Y113059D01*
X-117396Y112964D01*
X-117347Y112868D01*
X-117301Y112769D01*
X-117258Y112670D01*
X-117219Y112568D01*
X-117184Y112466D01*
X-121622Y110377D02*
X-121691Y110446D01*
X-121757Y110517D01*
X-121821Y110590D01*
X-121882Y110666D01*
X-121940Y110745D01*
X-121994Y110825D01*
X-122046Y110908D01*
X-122094Y110992D01*
X-122140Y111078D01*
X-122181Y111166D01*
X-122220Y111256D01*
X-122255Y111347D01*
X-122286Y111439D01*
X-122314Y111532D01*
X-122338Y111626D01*
X-122358Y111721D01*
X-122375Y111817D01*
X-122388Y111914D01*
X-122397Y112011D01*
X-122403Y112108D01*
X-122405Y112205D01*
X-121621Y110377D02*
X-117183Y105156D01*
X-122404Y105156D01*
D12*
X-119545Y143815D02*
X-119545Y163944D01*
D11*
X-99808Y149606D02*
X-97719Y149606D01*
X-97630Y149608D01*
X-97542Y149614D01*
X-97454Y149623D01*
X-97366Y149636D01*
X-97279Y149653D01*
X-97193Y149673D01*
X-97108Y149698D01*
X-97023Y149725D01*
X-96940Y149757D01*
X-96859Y149791D01*
X-96779Y149830D01*
X-96701Y149871D01*
X-96624Y149916D01*
X-96550Y149964D01*
X-96477Y150015D01*
X-96407Y150069D01*
X-96340Y150127D01*
X-96274Y150187D01*
X-96212Y150249D01*
X-96152Y150315D01*
X-96094Y150382D01*
X-96040Y150452D01*
X-95989Y150525D01*
X-95941Y150599D01*
X-95896Y150676D01*
X-95855Y150754D01*
X-95816Y150834D01*
X-95782Y150915D01*
X-95750Y150998D01*
X-95723Y151083D01*
X-95698Y151168D01*
X-95678Y151254D01*
X-95661Y151341D01*
X-95648Y151429D01*
X-95639Y151517D01*
X-95633Y151605D01*
X-95631Y151694D01*
X-95631Y156916D01*
X-95633Y157007D01*
X-95639Y157098D01*
X-95649Y157189D01*
X-95663Y157279D01*
X-95680Y157368D01*
X-95702Y157456D01*
X-95728Y157544D01*
X-95757Y157630D01*
X-95790Y157715D01*
X-95827Y157798D01*
X-95867Y157880D01*
X-95911Y157960D01*
X-95958Y158038D01*
X-96009Y158114D01*
X-96062Y158187D01*
X-96119Y158258D01*
X-96180Y158327D01*
X-96243Y158392D01*
X-96308Y158455D01*
X-96377Y158515D01*
X-96448Y158573D01*
X-96521Y158626D01*
X-96597Y158677D01*
X-96675Y158724D01*
X-96755Y158768D01*
X-96837Y158808D01*
X-96920Y158845D01*
X-97005Y158878D01*
X-97091Y158907D01*
X-97179Y158933D01*
X-97267Y158955D01*
X-97356Y158972D01*
X-97446Y158986D01*
X-97537Y158996D01*
X-97628Y159002D01*
X-97719Y159004D01*
X-99808Y159004D01*
X-103277Y156916D02*
X-105887Y159004D01*
X-105887Y149606D01*
X-103277Y149606D02*
X-108498Y149606D01*
X-112420Y154305D02*
X-112422Y154490D01*
X-112429Y154675D01*
X-112440Y154859D01*
X-112455Y155043D01*
X-112475Y155227D01*
X-112499Y155411D01*
X-112528Y155593D01*
X-112561Y155775D01*
X-112598Y155956D01*
X-112640Y156136D01*
X-112686Y156316D01*
X-112736Y156494D01*
X-112790Y156670D01*
X-112849Y156846D01*
X-112911Y157020D01*
X-112978Y157192D01*
X-113049Y157363D01*
X-113124Y157532D01*
X-113203Y157699D01*
X-113233Y157779D01*
X-113266Y157858D01*
X-113303Y157935D01*
X-113343Y158011D01*
X-113386Y158085D01*
X-113432Y158157D01*
X-113482Y158226D01*
X-113534Y158294D01*
X-113590Y158359D01*
X-113648Y158422D01*
X-113710Y158481D01*
X-113773Y158539D01*
X-113840Y158593D01*
X-113908Y158644D01*
X-113979Y158692D01*
X-114052Y158737D01*
X-114126Y158779D01*
X-114203Y158817D01*
X-114281Y158852D01*
X-114360Y158884D01*
X-114441Y158912D01*
X-114523Y158936D01*
X-114607Y158957D01*
X-114690Y158974D01*
X-114775Y158987D01*
X-114860Y158996D01*
X-114945Y159002D01*
X-115031Y159004D01*
X-115117Y159002D01*
X-115202Y158996D01*
X-115287Y158987D01*
X-115372Y158974D01*
X-115455Y158957D01*
X-115539Y158936D01*
X-115621Y158912D01*
X-115702Y158884D01*
X-115781Y158852D01*
X-115859Y158817D01*
X-115936Y158779D01*
X-116010Y158737D01*
X-116083Y158692D01*
X-116154Y158644D01*
X-116222Y158593D01*
X-116289Y158539D01*
X-116352Y158481D01*
X-116414Y158422D01*
X-116472Y158359D01*
X-116528Y158294D01*
X-116580Y158226D01*
X-116630Y158157D01*
X-116676Y158085D01*
X-116719Y158011D01*
X-116759Y157935D01*
X-116796Y157858D01*
X-116829Y157779D01*
X-116859Y157699D01*
X-116938Y157532D01*
X-117013Y157363D01*
X-117084Y157192D01*
X-117151Y157020D01*
X-117213Y156846D01*
X-117272Y156670D01*
X-117326Y156494D01*
X-117376Y156316D01*
X-117422Y156136D01*
X-117464Y155956D01*
X-117501Y155775D01*
X-117534Y155593D01*
X-117563Y155411D01*
X-117587Y155227D01*
X-117607Y155043D01*
X-117622Y154859D01*
X-117633Y154675D01*
X-117640Y154490D01*
X-117642Y154305D01*
X-112421Y154305D02*
X-112423Y154120D01*
X-112430Y153935D01*
X-112441Y153751D01*
X-112456Y153567D01*
X-112476Y153383D01*
X-112500Y153199D01*
X-112529Y153017D01*
X-112562Y152835D01*
X-112599Y152654D01*
X-112641Y152474D01*
X-112687Y152294D01*
X-112737Y152116D01*
X-112791Y151940D01*
X-112850Y151764D01*
X-112912Y151590D01*
X-112979Y151418D01*
X-113050Y151247D01*
X-113125Y151078D01*
X-113204Y150911D01*
X-113203Y150911D02*
X-113233Y150831D01*
X-113266Y150752D01*
X-113303Y150675D01*
X-113343Y150599D01*
X-113386Y150525D01*
X-113432Y150453D01*
X-113482Y150384D01*
X-113535Y150316D01*
X-113590Y150251D01*
X-113649Y150188D01*
X-113710Y150129D01*
X-113773Y150071D01*
X-113840Y150017D01*
X-113908Y149966D01*
X-113979Y149918D01*
X-114052Y149873D01*
X-114126Y149831D01*
X-114203Y149793D01*
X-114281Y149758D01*
X-114360Y149726D01*
X-114441Y149698D01*
X-114523Y149674D01*
X-114607Y149653D01*
X-114690Y149636D01*
X-114775Y149623D01*
X-114860Y149614D01*
X-114945Y149608D01*
X-115031Y149606D01*
X-116859Y150911D02*
X-116938Y151078D01*
X-117013Y151247D01*
X-117084Y151418D01*
X-117151Y151590D01*
X-117213Y151764D01*
X-117272Y151940D01*
X-117326Y152116D01*
X-117376Y152294D01*
X-117422Y152474D01*
X-117464Y152654D01*
X-117501Y152835D01*
X-117534Y153017D01*
X-117563Y153199D01*
X-117587Y153383D01*
X-117607Y153567D01*
X-117622Y153751D01*
X-117633Y153935D01*
X-117640Y154120D01*
X-117642Y154305D01*
X-116859Y150911D02*
X-116829Y150831D01*
X-116796Y150752D01*
X-116759Y150675D01*
X-116719Y150599D01*
X-116676Y150525D01*
X-116630Y150453D01*
X-116580Y150384D01*
X-116528Y150316D01*
X-116472Y150251D01*
X-116414Y150188D01*
X-116352Y150129D01*
X-116289Y150071D01*
X-116222Y150017D01*
X-116154Y149966D01*
X-116083Y149918D01*
X-116010Y149873D01*
X-115936Y149831D01*
X-115859Y149793D01*
X-115781Y149758D01*
X-115702Y149726D01*
X-115621Y149698D01*
X-115539Y149674D01*
X-115455Y149653D01*
X-115372Y149636D01*
X-115287Y149623D01*
X-115202Y149614D01*
X-115117Y149608D01*
X-115031Y149606D01*
X-112943Y151694D02*
X-117120Y156916D01*
X-99808Y117856D02*
X-97719Y117856D01*
X-97630Y117858D01*
X-97542Y117864D01*
X-97454Y117873D01*
X-97366Y117886D01*
X-97279Y117903D01*
X-97193Y117923D01*
X-97108Y117948D01*
X-97023Y117975D01*
X-96940Y118007D01*
X-96859Y118041D01*
X-96779Y118080D01*
X-96701Y118121D01*
X-96624Y118166D01*
X-96550Y118214D01*
X-96477Y118265D01*
X-96407Y118319D01*
X-96340Y118377D01*
X-96274Y118437D01*
X-96212Y118499D01*
X-96152Y118565D01*
X-96094Y118632D01*
X-96040Y118702D01*
X-95989Y118775D01*
X-95941Y118849D01*
X-95896Y118926D01*
X-95855Y119004D01*
X-95816Y119084D01*
X-95782Y119165D01*
X-95750Y119248D01*
X-95723Y119333D01*
X-95698Y119418D01*
X-95678Y119504D01*
X-95661Y119591D01*
X-95648Y119679D01*
X-95639Y119767D01*
X-95633Y119855D01*
X-95631Y119944D01*
X-95631Y125166D01*
X-95633Y125257D01*
X-95639Y125348D01*
X-95649Y125439D01*
X-95663Y125529D01*
X-95680Y125618D01*
X-95702Y125706D01*
X-95728Y125794D01*
X-95757Y125880D01*
X-95790Y125965D01*
X-95827Y126048D01*
X-95867Y126130D01*
X-95911Y126210D01*
X-95958Y126288D01*
X-96009Y126364D01*
X-96062Y126437D01*
X-96119Y126508D01*
X-96180Y126577D01*
X-96243Y126642D01*
X-96308Y126705D01*
X-96377Y126765D01*
X-96448Y126823D01*
X-96521Y126876D01*
X-96597Y126927D01*
X-96675Y126974D01*
X-96755Y127018D01*
X-96837Y127058D01*
X-96920Y127095D01*
X-97005Y127128D01*
X-97091Y127157D01*
X-97179Y127183D01*
X-97267Y127205D01*
X-97356Y127222D01*
X-97446Y127236D01*
X-97537Y127246D01*
X-97628Y127252D01*
X-97719Y127254D01*
X-99808Y127254D01*
X-103277Y125166D02*
X-105887Y127254D01*
X-105887Y117856D01*
X-103277Y117856D02*
X-108498Y117856D01*
X-112421Y119944D02*
X-114509Y127254D01*
X-112421Y119944D02*
X-117642Y119944D01*
X-116075Y117856D02*
X-116075Y122033D01*
X-171069Y99808D02*
X-171069Y97719D01*
X-171067Y97630D01*
X-171061Y97542D01*
X-171052Y97454D01*
X-171039Y97366D01*
X-171022Y97279D01*
X-171002Y97193D01*
X-170977Y97108D01*
X-170950Y97023D01*
X-170918Y96940D01*
X-170884Y96859D01*
X-170845Y96779D01*
X-170804Y96701D01*
X-170759Y96624D01*
X-170711Y96550D01*
X-170660Y96477D01*
X-170606Y96407D01*
X-170548Y96340D01*
X-170488Y96274D01*
X-170426Y96212D01*
X-170360Y96152D01*
X-170293Y96094D01*
X-170223Y96040D01*
X-170150Y95989D01*
X-170076Y95941D01*
X-169999Y95896D01*
X-169921Y95855D01*
X-169841Y95816D01*
X-169760Y95782D01*
X-169677Y95750D01*
X-169592Y95723D01*
X-169507Y95698D01*
X-169421Y95678D01*
X-169334Y95661D01*
X-169246Y95648D01*
X-169158Y95639D01*
X-169070Y95633D01*
X-168981Y95631D01*
X-163759Y95631D01*
X-163668Y95633D01*
X-163577Y95639D01*
X-163486Y95649D01*
X-163396Y95663D01*
X-163307Y95681D01*
X-163218Y95702D01*
X-163131Y95728D01*
X-163045Y95757D01*
X-162960Y95790D01*
X-162876Y95827D01*
X-162794Y95867D01*
X-162715Y95911D01*
X-162637Y95958D01*
X-162561Y96009D01*
X-162487Y96063D01*
X-162416Y96120D01*
X-162348Y96180D01*
X-162282Y96243D01*
X-162219Y96309D01*
X-162159Y96377D01*
X-162102Y96448D01*
X-162048Y96522D01*
X-161997Y96598D01*
X-161950Y96675D01*
X-161906Y96755D01*
X-161866Y96837D01*
X-161829Y96921D01*
X-161796Y97005D01*
X-161767Y97092D01*
X-161741Y97179D01*
X-161720Y97268D01*
X-161702Y97357D01*
X-161688Y97447D01*
X-161678Y97538D01*
X-161672Y97629D01*
X-161670Y97720D01*
X-161671Y97719D02*
X-161671Y99808D01*
X-171069Y103277D02*
X-171069Y105887D01*
X-171067Y105988D01*
X-171061Y106089D01*
X-171051Y106190D01*
X-171038Y106290D01*
X-171020Y106390D01*
X-170999Y106489D01*
X-170973Y106587D01*
X-170944Y106684D01*
X-170912Y106780D01*
X-170875Y106874D01*
X-170835Y106967D01*
X-170791Y107059D01*
X-170744Y107148D01*
X-170693Y107236D01*
X-170639Y107322D01*
X-170582Y107405D01*
X-170522Y107487D01*
X-170458Y107565D01*
X-170392Y107642D01*
X-170322Y107715D01*
X-170250Y107786D01*
X-170175Y107854D01*
X-170097Y107919D01*
X-170017Y107981D01*
X-169935Y108040D01*
X-169850Y108096D01*
X-169764Y108148D01*
X-169675Y108197D01*
X-169584Y108243D01*
X-169492Y108284D01*
X-169398Y108323D01*
X-169303Y108357D01*
X-169207Y108388D01*
X-169109Y108415D01*
X-169011Y108439D01*
X-168911Y108458D01*
X-168811Y108474D01*
X-168711Y108486D01*
X-168610Y108494D01*
X-168509Y108498D01*
X-168407Y108498D01*
X-168306Y108494D01*
X-168205Y108486D01*
X-168105Y108474D01*
X-168005Y108458D01*
X-167905Y108439D01*
X-167807Y108415D01*
X-167709Y108388D01*
X-167613Y108357D01*
X-167518Y108323D01*
X-167424Y108284D01*
X-167332Y108243D01*
X-167241Y108197D01*
X-167153Y108148D01*
X-167066Y108096D01*
X-166981Y108040D01*
X-166899Y107981D01*
X-166819Y107919D01*
X-166741Y107854D01*
X-166666Y107786D01*
X-166594Y107715D01*
X-166524Y107642D01*
X-166458Y107565D01*
X-166394Y107487D01*
X-166334Y107405D01*
X-166277Y107322D01*
X-166223Y107236D01*
X-166172Y107148D01*
X-166125Y107059D01*
X-166081Y106967D01*
X-166041Y106874D01*
X-166004Y106780D01*
X-165972Y106684D01*
X-165943Y106587D01*
X-165917Y106489D01*
X-165896Y106390D01*
X-165878Y106290D01*
X-165865Y106190D01*
X-165855Y106089D01*
X-165849Y105988D01*
X-165847Y105887D01*
X-161671Y106409D02*
X-161671Y103277D01*
X-161671Y106409D02*
X-161673Y106499D01*
X-161679Y106588D01*
X-161688Y106678D01*
X-161702Y106767D01*
X-161719Y106855D01*
X-161740Y106942D01*
X-161765Y107029D01*
X-161794Y107114D01*
X-161826Y107198D01*
X-161861Y107280D01*
X-161901Y107361D01*
X-161943Y107440D01*
X-161989Y107517D01*
X-162039Y107592D01*
X-162091Y107665D01*
X-162147Y107736D01*
X-162205Y107804D01*
X-162267Y107869D01*
X-162331Y107932D01*
X-162398Y107992D01*
X-162467Y108049D01*
X-162539Y108103D01*
X-162613Y108154D01*
X-162689Y108202D01*
X-162767Y108246D01*
X-162847Y108287D01*
X-162929Y108325D01*
X-163012Y108359D01*
X-163097Y108389D01*
X-163183Y108416D01*
X-163269Y108439D01*
X-163357Y108458D01*
X-163446Y108473D01*
X-163535Y108485D01*
X-163624Y108493D01*
X-163714Y108497D01*
X-163804Y108497D01*
X-163894Y108493D01*
X-163983Y108485D01*
X-164072Y108473D01*
X-164161Y108458D01*
X-164249Y108439D01*
X-164335Y108416D01*
X-164421Y108389D01*
X-164506Y108359D01*
X-164589Y108325D01*
X-164671Y108287D01*
X-164751Y108246D01*
X-164829Y108202D01*
X-164905Y108154D01*
X-164979Y108103D01*
X-165051Y108049D01*
X-165120Y107992D01*
X-165187Y107932D01*
X-165251Y107869D01*
X-165313Y107804D01*
X-165371Y107736D01*
X-165427Y107665D01*
X-165479Y107592D01*
X-165529Y107517D01*
X-165575Y107440D01*
X-165617Y107361D01*
X-165657Y107280D01*
X-165692Y107198D01*
X-165724Y107114D01*
X-165753Y107029D01*
X-165778Y106942D01*
X-165799Y106855D01*
X-165816Y106767D01*
X-165830Y106678D01*
X-165839Y106588D01*
X-165845Y106499D01*
X-165847Y106409D01*
X-165848Y106409D02*
X-165848Y104321D01*
D12*
X-209550Y23813D02*
X-222250Y23813D01*
X-228600Y30163D01*
X-228600Y42863D01*
X-222250Y49213D01*
X-184150Y23813D02*
X-177800Y30163D01*
X-184150Y23813D02*
X-196850Y23813D01*
X-203200Y30163D01*
X-203200Y42863D01*
X-196850Y49213D01*
X-184150Y49213D01*
X-177800Y42863D01*
X-203200Y30163D02*
X-209550Y23813D01*
X-203200Y42863D02*
X-209550Y49213D01*
X-222250Y49213D01*
X-146050Y23813D02*
X-133350Y23813D01*
X-146050Y23813D02*
X-152400Y30163D01*
X-152400Y42863D01*
X-146050Y49213D01*
X-152400Y30163D02*
X-158750Y23813D01*
X-171450Y23813D01*
X-177800Y30163D01*
X-177800Y42863D01*
X-171450Y49213D01*
X-158750Y49213D01*
X-152400Y42863D01*
X-107950Y23813D02*
X-101600Y30163D01*
X-107950Y23813D02*
X-120650Y23813D01*
X-127000Y30163D01*
X-127000Y42863D01*
X-120650Y49213D01*
X-107950Y49213D01*
X-101600Y42863D01*
X-127000Y30163D02*
X-133350Y23813D01*
X-127000Y42863D02*
X-133350Y49213D01*
X-146050Y49213D01*
X-69850Y23813D02*
X-57150Y23813D01*
X-69850Y23813D02*
X-76200Y30163D01*
X-76200Y42863D01*
X-69850Y49213D01*
X-76200Y30163D02*
X-82550Y23813D01*
X-95250Y23813D01*
X-101600Y30163D01*
X-101600Y42863D01*
X-95250Y49213D01*
X-82550Y49213D01*
X-76200Y42863D01*
X-31750Y23813D02*
X-25400Y30163D01*
X-31750Y23813D02*
X-44450Y23813D01*
X-50800Y30163D01*
X-50800Y42863D01*
X-44450Y49213D01*
X-31750Y49213D01*
X-25400Y42863D01*
X-50800Y30163D02*
X-57150Y23813D01*
X-50800Y42863D02*
X-57150Y49213D01*
X-69850Y49213D01*
X6350Y23813D02*
X19050Y23813D01*
X6350Y23813D02*
X0Y30163D01*
X0Y42863D01*
X6350Y49213D01*
X0Y30163D02*
X-6350Y23813D01*
X-19050Y23813D01*
X-25400Y30163D01*
X-25400Y42863D01*
X-19050Y49213D01*
X-6350Y49213D01*
X0Y42863D01*
X44450Y23813D02*
X50800Y30163D01*
X44450Y23813D02*
X31750Y23813D01*
X25400Y30163D01*
X25400Y42863D01*
X31750Y49213D01*
X44450Y49213D01*
X50800Y42863D01*
X25400Y30163D02*
X19050Y23813D01*
X25400Y42863D02*
X19050Y49213D01*
X6350Y49213D01*
X82550Y23813D02*
X95250Y23813D01*
X82550Y23813D02*
X76200Y30163D01*
X76200Y42863D01*
X82550Y49213D01*
X76200Y30163D02*
X69850Y23813D01*
X57150Y23813D01*
X50800Y30163D01*
X50800Y42863D01*
X57150Y49213D01*
X69850Y49213D01*
X76200Y42863D01*
X120650Y23813D02*
X127000Y30163D01*
X120650Y23813D02*
X107950Y23813D01*
X101600Y30163D01*
X101600Y42863D01*
X107950Y49213D01*
X120650Y49213D01*
X127000Y42863D01*
X101600Y30163D02*
X95250Y23813D01*
X101600Y42863D02*
X95250Y49213D01*
X82550Y49213D01*
X158750Y23813D02*
X171450Y23813D01*
X158750Y23813D02*
X152400Y30163D01*
X152400Y42863D01*
X158750Y49213D01*
X152400Y30163D02*
X146050Y23813D01*
X133350Y23813D01*
X127000Y30163D01*
X127000Y42863D01*
X133350Y49213D01*
X146050Y49213D01*
X152400Y42863D01*
X196850Y23813D02*
X203200Y30163D01*
X196850Y23813D02*
X184150Y23813D01*
X177800Y30163D01*
X177800Y42863D01*
X184150Y49213D01*
X196850Y49213D01*
X203200Y42863D01*
X177800Y30163D02*
X171450Y23813D01*
X177800Y42863D02*
X171450Y49213D01*
X158750Y49213D01*
X234950Y23813D02*
X247650Y23813D01*
X234950Y23813D02*
X228600Y30163D01*
X228600Y42863D01*
X234950Y49213D01*
X228600Y30163D02*
X222250Y23813D01*
X209550Y23813D01*
X203200Y30163D01*
X203200Y42863D01*
X209550Y49213D01*
X222250Y49213D01*
X228600Y42863D01*
X254000Y42863D02*
X254000Y30163D01*
X247650Y23813D01*
X254000Y42863D02*
X247650Y49213D01*
X234950Y49213D01*
X-234950Y23813D02*
X-247650Y23813D01*
X-254000Y30163D01*
X-254000Y42863D01*
X-247650Y49213D01*
X-228600Y30163D02*
X-234950Y23813D01*
X-228600Y42863D02*
X-234950Y49213D01*
X-247650Y49213D01*
X209550Y204788D02*
X222250Y204788D01*
X228600Y198438D01*
X228600Y185738D01*
X222250Y179388D01*
X184150Y204788D02*
X177800Y198438D01*
X184150Y204788D02*
X196850Y204788D01*
X203200Y198438D01*
X203200Y185738D01*
X196850Y179388D01*
X184150Y179388D01*
X177800Y185738D01*
X203200Y198438D02*
X209550Y204788D01*
X203200Y185738D02*
X209550Y179388D01*
X222250Y179388D01*
X146050Y204788D02*
X133350Y204788D01*
X146050Y204788D02*
X152400Y198438D01*
X152400Y185738D01*
X146050Y179388D01*
X152400Y198438D02*
X158750Y204788D01*
X171450Y204788D01*
X177800Y198438D01*
X177800Y185738D01*
X171450Y179388D01*
X158750Y179388D01*
X152400Y185738D01*
X107950Y204788D02*
X101600Y198438D01*
X107950Y204788D02*
X120650Y204788D01*
X127000Y198438D01*
X127000Y185738D01*
X120650Y179388D01*
X107950Y179388D01*
X101600Y185738D01*
X127000Y198438D02*
X133350Y204788D01*
X127000Y185738D02*
X133350Y179388D01*
X146050Y179388D01*
X69850Y204788D02*
X57150Y204788D01*
X69850Y204788D02*
X76200Y198438D01*
X76200Y185738D01*
X69850Y179388D01*
X76200Y198438D02*
X82550Y204788D01*
X95250Y204788D01*
X101600Y198438D01*
X101600Y185738D01*
X95250Y179388D01*
X82550Y179388D01*
X76200Y185738D01*
X31750Y204788D02*
X25400Y198438D01*
X31750Y204788D02*
X44450Y204788D01*
X50800Y198438D01*
X50800Y185738D01*
X44450Y179388D01*
X31750Y179388D01*
X25400Y185738D01*
X50800Y198438D02*
X57150Y204788D01*
X50800Y185738D02*
X57150Y179388D01*
X69850Y179388D01*
X-6350Y204788D02*
X-19050Y204788D01*
X-6350Y204788D02*
X0Y198438D01*
X0Y185738D01*
X-6350Y179388D01*
X0Y198438D02*
X6350Y204788D01*
X19050Y204788D01*
X25400Y198438D01*
X25400Y185738D01*
X19050Y179388D01*
X6350Y179388D01*
X0Y185738D01*
X-44450Y204788D02*
X-50800Y198438D01*
X-44450Y204788D02*
X-31750Y204788D01*
X-25400Y198438D01*
X-25400Y185738D01*
X-31750Y179388D01*
X-44450Y179388D01*
X-50800Y185738D01*
X-25400Y198438D02*
X-19050Y204788D01*
X-25400Y185738D02*
X-19050Y179388D01*
X-6350Y179388D01*
X-82550Y204788D02*
X-95250Y204788D01*
X-82550Y204788D02*
X-76200Y198438D01*
X-76200Y185738D01*
X-82550Y179388D01*
X-76200Y198438D02*
X-69850Y204788D01*
X-57150Y204788D01*
X-50800Y198438D01*
X-50800Y185738D01*
X-57150Y179388D01*
X-69850Y179388D01*
X-76200Y185738D01*
X-120650Y204788D02*
X-127000Y198438D01*
X-120650Y204788D02*
X-107950Y204788D01*
X-101600Y198438D01*
X-101600Y185738D01*
X-107950Y179388D01*
X-120650Y179388D01*
X-127000Y185738D01*
X-101600Y198438D02*
X-95250Y204788D01*
X-101600Y185738D02*
X-95250Y179388D01*
X-82550Y179388D01*
X-158750Y204788D02*
X-171450Y204788D01*
X-158750Y204788D02*
X-152400Y198438D01*
X-152400Y185738D01*
X-158750Y179388D01*
X-152400Y198438D02*
X-146050Y204788D01*
X-133350Y204788D01*
X-127000Y198438D01*
X-127000Y185738D01*
X-133350Y179388D01*
X-146050Y179388D01*
X-152400Y185738D01*
X-196850Y204788D02*
X-203200Y198438D01*
X-196850Y204788D02*
X-184150Y204788D01*
X-177800Y198438D01*
X-177800Y185738D01*
X-184150Y179388D01*
X-196850Y179388D01*
X-203200Y185738D01*
X-177800Y198438D02*
X-171450Y204788D01*
X-177800Y185738D02*
X-171450Y179388D01*
X-158750Y179388D01*
X-234950Y204788D02*
X-247650Y204788D01*
X-234950Y204788D02*
X-228600Y198438D01*
X-228600Y185738D01*
X-234950Y179388D01*
X-228600Y198438D02*
X-222250Y204788D01*
X-209550Y204788D01*
X-203200Y198438D01*
X-203200Y185738D01*
X-209550Y179388D01*
X-222250Y179388D01*
X-228600Y185738D01*
X-254000Y185738D02*
X-254000Y198438D01*
X-247650Y204788D01*
X-254000Y185738D02*
X-247650Y179388D01*
X-234950Y179388D01*
X234950Y204788D02*
X247650Y204788D01*
X254000Y198438D01*
X254000Y185738D01*
X247650Y179388D01*
X228600Y198438D02*
X234950Y204788D01*
X228600Y185738D02*
X234950Y179388D01*
X247650Y179388D01*
D11*
X-51054Y72273D02*
X-51054Y70184D01*
X-51052Y70095D01*
X-51046Y70007D01*
X-51037Y69919D01*
X-51024Y69831D01*
X-51007Y69744D01*
X-50987Y69658D01*
X-50962Y69573D01*
X-50935Y69488D01*
X-50903Y69405D01*
X-50869Y69324D01*
X-50830Y69244D01*
X-50789Y69166D01*
X-50744Y69089D01*
X-50696Y69015D01*
X-50645Y68942D01*
X-50591Y68872D01*
X-50533Y68805D01*
X-50473Y68739D01*
X-50411Y68677D01*
X-50345Y68617D01*
X-50278Y68559D01*
X-50208Y68505D01*
X-50135Y68454D01*
X-50061Y68406D01*
X-49984Y68361D01*
X-49906Y68320D01*
X-49826Y68281D01*
X-49745Y68247D01*
X-49662Y68215D01*
X-49577Y68188D01*
X-49492Y68163D01*
X-49406Y68143D01*
X-49319Y68126D01*
X-49231Y68113D01*
X-49143Y68104D01*
X-49055Y68098D01*
X-48966Y68096D01*
X-43744Y68096D01*
X-43744Y68095D02*
X-43653Y68097D01*
X-43562Y68103D01*
X-43471Y68113D01*
X-43381Y68127D01*
X-43292Y68145D01*
X-43203Y68166D01*
X-43116Y68192D01*
X-43030Y68221D01*
X-42945Y68254D01*
X-42861Y68291D01*
X-42779Y68331D01*
X-42700Y68375D01*
X-42622Y68422D01*
X-42546Y68473D01*
X-42472Y68527D01*
X-42401Y68584D01*
X-42333Y68644D01*
X-42267Y68707D01*
X-42204Y68773D01*
X-42144Y68841D01*
X-42087Y68912D01*
X-42033Y68986D01*
X-41982Y69062D01*
X-41935Y69139D01*
X-41891Y69219D01*
X-41851Y69301D01*
X-41814Y69385D01*
X-41781Y69469D01*
X-41752Y69556D01*
X-41726Y69643D01*
X-41705Y69732D01*
X-41687Y69821D01*
X-41673Y69911D01*
X-41663Y70002D01*
X-41657Y70093D01*
X-41655Y70184D01*
X-41656Y70184D02*
X-41656Y72273D01*
X-43744Y75741D02*
X-41656Y78352D01*
X-51054Y78352D01*
X-51054Y75741D02*
X-51054Y80963D01*
X-45833Y84885D02*
X-45833Y88018D01*
X-45835Y88107D01*
X-45841Y88195D01*
X-45850Y88283D01*
X-45863Y88371D01*
X-45880Y88458D01*
X-45900Y88544D01*
X-45925Y88629D01*
X-45952Y88714D01*
X-45984Y88797D01*
X-46018Y88878D01*
X-46057Y88958D01*
X-46098Y89036D01*
X-46143Y89113D01*
X-46191Y89187D01*
X-46242Y89260D01*
X-46296Y89330D01*
X-46354Y89397D01*
X-46414Y89463D01*
X-46476Y89525D01*
X-46542Y89585D01*
X-46609Y89643D01*
X-46679Y89697D01*
X-46752Y89748D01*
X-46826Y89796D01*
X-46903Y89841D01*
X-46981Y89882D01*
X-47061Y89921D01*
X-47142Y89955D01*
X-47225Y89987D01*
X-47310Y90014D01*
X-47395Y90039D01*
X-47481Y90059D01*
X-47568Y90076D01*
X-47656Y90089D01*
X-47744Y90098D01*
X-47832Y90104D01*
X-47921Y90106D01*
X-47921Y90107D02*
X-48443Y90107D01*
X-48544Y90105D01*
X-48645Y90099D01*
X-48746Y90089D01*
X-48846Y90076D01*
X-48946Y90058D01*
X-49045Y90037D01*
X-49143Y90011D01*
X-49240Y89982D01*
X-49336Y89950D01*
X-49430Y89913D01*
X-49523Y89873D01*
X-49615Y89829D01*
X-49704Y89782D01*
X-49792Y89731D01*
X-49878Y89677D01*
X-49961Y89620D01*
X-50043Y89560D01*
X-50121Y89496D01*
X-50198Y89430D01*
X-50271Y89360D01*
X-50342Y89288D01*
X-50410Y89213D01*
X-50475Y89135D01*
X-50537Y89055D01*
X-50596Y88973D01*
X-50652Y88888D01*
X-50704Y88802D01*
X-50753Y88713D01*
X-50799Y88622D01*
X-50840Y88530D01*
X-50879Y88436D01*
X-50913Y88341D01*
X-50944Y88245D01*
X-50971Y88147D01*
X-50995Y88049D01*
X-51014Y87949D01*
X-51030Y87849D01*
X-51042Y87749D01*
X-51050Y87648D01*
X-51054Y87547D01*
X-51054Y87445D01*
X-51050Y87344D01*
X-51042Y87243D01*
X-51030Y87143D01*
X-51014Y87043D01*
X-50995Y86943D01*
X-50971Y86845D01*
X-50944Y86747D01*
X-50913Y86651D01*
X-50879Y86556D01*
X-50840Y86462D01*
X-50799Y86370D01*
X-50753Y86279D01*
X-50704Y86191D01*
X-50652Y86104D01*
X-50596Y86019D01*
X-50537Y85937D01*
X-50475Y85857D01*
X-50410Y85779D01*
X-50342Y85704D01*
X-50271Y85632D01*
X-50198Y85562D01*
X-50121Y85496D01*
X-50043Y85432D01*
X-49961Y85372D01*
X-49878Y85315D01*
X-49792Y85261D01*
X-49704Y85210D01*
X-49615Y85163D01*
X-49523Y85119D01*
X-49430Y85079D01*
X-49336Y85042D01*
X-49240Y85010D01*
X-49143Y84981D01*
X-49045Y84955D01*
X-48946Y84934D01*
X-48846Y84916D01*
X-48746Y84903D01*
X-48645Y84893D01*
X-48544Y84887D01*
X-48443Y84885D01*
X-45833Y84885D01*
X-45704Y84887D01*
X-45576Y84893D01*
X-45448Y84903D01*
X-45320Y84917D01*
X-45192Y84934D01*
X-45065Y84956D01*
X-44939Y84982D01*
X-44814Y85011D01*
X-44690Y85044D01*
X-44567Y85082D01*
X-44445Y85122D01*
X-44324Y85167D01*
X-44205Y85215D01*
X-44087Y85267D01*
X-43971Y85323D01*
X-43857Y85382D01*
X-43745Y85445D01*
X-43634Y85511D01*
X-43526Y85580D01*
X-43420Y85653D01*
X-43316Y85729D01*
X-43214Y85808D01*
X-43115Y85890D01*
X-43019Y85975D01*
X-42925Y86063D01*
X-42834Y86154D01*
X-42746Y86248D01*
X-42661Y86344D01*
X-42579Y86443D01*
X-42500Y86545D01*
X-42424Y86649D01*
X-42351Y86755D01*
X-42282Y86863D01*
X-42216Y86973D01*
X-42153Y87086D01*
X-42094Y87200D01*
X-42038Y87316D01*
X-41986Y87434D01*
X-41938Y87553D01*
X-41893Y87674D01*
X-41853Y87796D01*
X-41815Y87919D01*
X-41782Y88043D01*
X-41753Y88168D01*
X-41727Y88294D01*
X-41705Y88421D01*
X-41688Y88549D01*
X-41674Y88677D01*
X-41664Y88805D01*
X-41658Y88933D01*
X-41656Y89062D01*
D12*
X-130493Y204153D02*
X-158433Y204153D01*
X-160973Y221933D02*
X-160971Y222033D01*
X-160965Y222132D01*
X-160955Y222232D01*
X-160942Y222330D01*
X-160924Y222429D01*
X-160903Y222526D01*
X-160878Y222622D01*
X-160849Y222718D01*
X-160816Y222812D01*
X-160780Y222905D01*
X-160740Y222996D01*
X-160696Y223086D01*
X-160649Y223174D01*
X-160599Y223260D01*
X-160545Y223344D01*
X-160488Y223426D01*
X-160428Y223505D01*
X-160364Y223583D01*
X-160298Y223657D01*
X-160229Y223729D01*
X-160157Y223798D01*
X-160083Y223864D01*
X-160005Y223928D01*
X-159926Y223988D01*
X-159844Y224045D01*
X-159760Y224099D01*
X-159674Y224149D01*
X-159586Y224196D01*
X-159496Y224240D01*
X-159405Y224280D01*
X-159312Y224316D01*
X-159218Y224349D01*
X-159122Y224378D01*
X-159026Y224403D01*
X-158929Y224424D01*
X-158830Y224442D01*
X-158732Y224455D01*
X-158632Y224465D01*
X-158533Y224471D01*
X-158433Y224473D01*
X-130493Y224473D02*
X-130393Y224471D01*
X-130294Y224465D01*
X-130194Y224455D01*
X-130096Y224442D01*
X-129997Y224424D01*
X-129900Y224403D01*
X-129804Y224378D01*
X-129708Y224349D01*
X-129614Y224316D01*
X-129521Y224280D01*
X-129430Y224240D01*
X-129340Y224196D01*
X-129252Y224149D01*
X-129166Y224099D01*
X-129082Y224045D01*
X-129000Y223988D01*
X-128921Y223928D01*
X-128843Y223864D01*
X-128769Y223798D01*
X-128697Y223729D01*
X-128628Y223657D01*
X-128562Y223583D01*
X-128498Y223505D01*
X-128438Y223426D01*
X-128381Y223344D01*
X-128327Y223260D01*
X-128277Y223174D01*
X-128230Y223086D01*
X-128186Y222996D01*
X-128146Y222905D01*
X-128110Y222812D01*
X-128077Y222718D01*
X-128048Y222622D01*
X-128023Y222526D01*
X-128002Y222429D01*
X-127984Y222330D01*
X-127971Y222232D01*
X-127961Y222132D01*
X-127955Y222033D01*
X-127953Y221933D01*
X-127953Y206693D02*
X-127955Y206593D01*
X-127961Y206494D01*
X-127971Y206394D01*
X-127984Y206296D01*
X-128002Y206197D01*
X-128023Y206100D01*
X-128048Y206004D01*
X-128077Y205908D01*
X-128110Y205814D01*
X-128146Y205721D01*
X-128186Y205630D01*
X-128230Y205540D01*
X-128277Y205452D01*
X-128327Y205366D01*
X-128381Y205282D01*
X-128438Y205200D01*
X-128498Y205121D01*
X-128562Y205043D01*
X-128628Y204969D01*
X-128697Y204897D01*
X-128769Y204828D01*
X-128843Y204762D01*
X-128921Y204698D01*
X-129000Y204638D01*
X-129082Y204581D01*
X-129166Y204527D01*
X-129252Y204477D01*
X-129340Y204430D01*
X-129430Y204386D01*
X-129521Y204346D01*
X-129614Y204310D01*
X-129708Y204277D01*
X-129804Y204248D01*
X-129900Y204223D01*
X-129997Y204202D01*
X-130096Y204184D01*
X-130194Y204171D01*
X-130294Y204161D01*
X-130393Y204155D01*
X-130493Y204153D01*
X-158433Y204153D02*
X-158533Y204155D01*
X-158632Y204161D01*
X-158732Y204171D01*
X-158830Y204184D01*
X-158929Y204202D01*
X-159026Y204223D01*
X-159122Y204248D01*
X-159218Y204277D01*
X-159312Y204310D01*
X-159405Y204346D01*
X-159496Y204386D01*
X-159586Y204430D01*
X-159674Y204477D01*
X-159760Y204527D01*
X-159844Y204581D01*
X-159926Y204638D01*
X-160005Y204698D01*
X-160083Y204762D01*
X-160157Y204828D01*
X-160229Y204897D01*
X-160298Y204969D01*
X-160364Y205043D01*
X-160428Y205121D01*
X-160488Y205200D01*
X-160545Y205282D01*
X-160599Y205366D01*
X-160649Y205452D01*
X-160696Y205540D01*
X-160740Y205630D01*
X-160780Y205721D01*
X-160816Y205814D01*
X-160849Y205908D01*
X-160878Y206004D01*
X-160903Y206100D01*
X-160924Y206197D01*
X-160942Y206296D01*
X-160955Y206394D01*
X-160965Y206494D01*
X-160971Y206593D01*
X-160973Y206693D01*
X-160973Y221933D01*
X-127953Y221933D02*
X-127953Y206693D01*
X-130493Y224473D02*
X-158433Y224473D01*
D10*
X-165325Y221742D02*
X-168373Y212598D01*
X-171421Y221742D01*
X-175348Y221742D02*
X-175348Y212598D01*
X-175348Y221742D02*
X-177888Y221742D01*
X-177988Y221740D01*
X-178087Y221734D01*
X-178187Y221724D01*
X-178285Y221711D01*
X-178384Y221693D01*
X-178481Y221672D01*
X-178577Y221647D01*
X-178673Y221618D01*
X-178767Y221585D01*
X-178860Y221549D01*
X-178951Y221509D01*
X-179041Y221465D01*
X-179129Y221418D01*
X-179215Y221368D01*
X-179299Y221314D01*
X-179381Y221257D01*
X-179460Y221197D01*
X-179538Y221133D01*
X-179612Y221067D01*
X-179684Y220998D01*
X-179753Y220926D01*
X-179819Y220852D01*
X-179883Y220774D01*
X-179943Y220695D01*
X-180000Y220613D01*
X-180054Y220529D01*
X-180104Y220443D01*
X-180151Y220355D01*
X-180195Y220265D01*
X-180235Y220174D01*
X-180271Y220081D01*
X-180304Y219987D01*
X-180333Y219891D01*
X-180358Y219795D01*
X-180379Y219698D01*
X-180397Y219599D01*
X-180410Y219501D01*
X-180420Y219401D01*
X-180426Y219302D01*
X-180428Y219202D01*
X-180426Y219102D01*
X-180420Y219003D01*
X-180410Y218903D01*
X-180397Y218805D01*
X-180379Y218706D01*
X-180358Y218609D01*
X-180333Y218513D01*
X-180304Y218417D01*
X-180271Y218323D01*
X-180235Y218230D01*
X-180195Y218139D01*
X-180151Y218049D01*
X-180104Y217961D01*
X-180054Y217875D01*
X-180000Y217791D01*
X-179943Y217709D01*
X-179883Y217630D01*
X-179819Y217552D01*
X-179753Y217478D01*
X-179684Y217406D01*
X-179612Y217337D01*
X-179538Y217271D01*
X-179460Y217207D01*
X-179381Y217147D01*
X-179299Y217090D01*
X-179215Y217036D01*
X-179129Y216986D01*
X-179041Y216939D01*
X-178951Y216895D01*
X-178860Y216855D01*
X-178767Y216819D01*
X-178673Y216786D01*
X-178577Y216757D01*
X-178481Y216732D01*
X-178384Y216711D01*
X-178285Y216693D01*
X-178187Y216680D01*
X-178087Y216670D01*
X-177988Y216664D01*
X-177888Y216662D01*
X-175348Y216662D01*
X-178396Y216662D02*
X-180428Y212598D01*
X-186500Y214630D02*
X-186500Y221742D01*
X-186500Y214630D02*
X-186498Y214541D01*
X-186492Y214453D01*
X-186483Y214365D01*
X-186469Y214277D01*
X-186452Y214190D01*
X-186431Y214104D01*
X-186406Y214019D01*
X-186377Y213935D01*
X-186345Y213852D01*
X-186310Y213771D01*
X-186270Y213692D01*
X-186228Y213614D01*
X-186182Y213538D01*
X-186133Y213464D01*
X-186080Y213393D01*
X-186025Y213324D01*
X-185966Y213257D01*
X-185905Y213193D01*
X-185841Y213132D01*
X-185774Y213073D01*
X-185705Y213018D01*
X-185634Y212965D01*
X-185560Y212916D01*
X-185484Y212870D01*
X-185406Y212828D01*
X-185327Y212788D01*
X-185246Y212753D01*
X-185163Y212721D01*
X-185079Y212692D01*
X-184994Y212667D01*
X-184908Y212646D01*
X-184821Y212629D01*
X-184733Y212615D01*
X-184645Y212606D01*
X-184557Y212600D01*
X-184468Y212598D01*
X-183452Y212598D01*
D12*
X-120333Y204153D02*
X-92393Y204153D01*
X-120333Y224473D02*
X-120433Y224471D01*
X-120532Y224465D01*
X-120632Y224455D01*
X-120730Y224442D01*
X-120829Y224424D01*
X-120926Y224403D01*
X-121022Y224378D01*
X-121118Y224349D01*
X-121212Y224316D01*
X-121305Y224280D01*
X-121396Y224240D01*
X-121486Y224196D01*
X-121574Y224149D01*
X-121660Y224099D01*
X-121744Y224045D01*
X-121826Y223988D01*
X-121905Y223928D01*
X-121983Y223864D01*
X-122057Y223798D01*
X-122129Y223729D01*
X-122198Y223657D01*
X-122264Y223583D01*
X-122328Y223505D01*
X-122388Y223426D01*
X-122445Y223344D01*
X-122499Y223260D01*
X-122549Y223174D01*
X-122596Y223086D01*
X-122640Y222996D01*
X-122680Y222905D01*
X-122716Y222812D01*
X-122749Y222718D01*
X-122778Y222622D01*
X-122803Y222526D01*
X-122824Y222429D01*
X-122842Y222330D01*
X-122855Y222232D01*
X-122865Y222132D01*
X-122871Y222033D01*
X-122873Y221933D01*
X-92393Y224473D02*
X-92293Y224471D01*
X-92194Y224465D01*
X-92094Y224455D01*
X-91996Y224442D01*
X-91897Y224424D01*
X-91800Y224403D01*
X-91704Y224378D01*
X-91608Y224349D01*
X-91514Y224316D01*
X-91421Y224280D01*
X-91330Y224240D01*
X-91240Y224196D01*
X-91152Y224149D01*
X-91066Y224099D01*
X-90982Y224045D01*
X-90900Y223988D01*
X-90821Y223928D01*
X-90743Y223864D01*
X-90669Y223798D01*
X-90597Y223729D01*
X-90528Y223657D01*
X-90462Y223583D01*
X-90398Y223505D01*
X-90338Y223426D01*
X-90281Y223344D01*
X-90227Y223260D01*
X-90177Y223174D01*
X-90130Y223086D01*
X-90086Y222996D01*
X-90046Y222905D01*
X-90010Y222812D01*
X-89977Y222718D01*
X-89948Y222622D01*
X-89923Y222526D01*
X-89902Y222429D01*
X-89884Y222330D01*
X-89871Y222232D01*
X-89861Y222132D01*
X-89855Y222033D01*
X-89853Y221933D01*
X-89853Y206693D02*
X-89855Y206593D01*
X-89861Y206494D01*
X-89871Y206394D01*
X-89884Y206296D01*
X-89902Y206197D01*
X-89923Y206100D01*
X-89948Y206004D01*
X-89977Y205908D01*
X-90010Y205814D01*
X-90046Y205721D01*
X-90086Y205630D01*
X-90130Y205540D01*
X-90177Y205452D01*
X-90227Y205366D01*
X-90281Y205282D01*
X-90338Y205200D01*
X-90398Y205121D01*
X-90462Y205043D01*
X-90528Y204969D01*
X-90597Y204897D01*
X-90669Y204828D01*
X-90743Y204762D01*
X-90821Y204698D01*
X-90900Y204638D01*
X-90982Y204581D01*
X-91066Y204527D01*
X-91152Y204477D01*
X-91240Y204430D01*
X-91330Y204386D01*
X-91421Y204346D01*
X-91514Y204310D01*
X-91608Y204277D01*
X-91704Y204248D01*
X-91800Y204223D01*
X-91897Y204202D01*
X-91996Y204184D01*
X-92094Y204171D01*
X-92194Y204161D01*
X-92293Y204155D01*
X-92393Y204153D01*
X-120333Y204153D02*
X-120433Y204155D01*
X-120532Y204161D01*
X-120632Y204171D01*
X-120730Y204184D01*
X-120829Y204202D01*
X-120926Y204223D01*
X-121022Y204248D01*
X-121118Y204277D01*
X-121212Y204310D01*
X-121305Y204346D01*
X-121396Y204386D01*
X-121486Y204430D01*
X-121574Y204477D01*
X-121660Y204527D01*
X-121744Y204581D01*
X-121826Y204638D01*
X-121905Y204698D01*
X-121983Y204762D01*
X-122057Y204828D01*
X-122129Y204897D01*
X-122198Y204969D01*
X-122264Y205043D01*
X-122328Y205121D01*
X-122388Y205200D01*
X-122445Y205282D01*
X-122499Y205366D01*
X-122549Y205452D01*
X-122596Y205540D01*
X-122640Y205630D01*
X-122680Y205721D01*
X-122716Y205814D01*
X-122749Y205908D01*
X-122778Y206004D01*
X-122803Y206100D01*
X-122824Y206197D01*
X-122842Y206296D01*
X-122855Y206394D01*
X-122865Y206494D01*
X-122871Y206593D01*
X-122873Y206693D01*
X-122873Y221933D01*
X-89853Y221933D02*
X-89853Y206693D01*
X-92393Y224473D02*
X-120333Y224473D01*
D10*
X-68030Y212598D02*
X-64982Y221742D01*
X-71078Y221742D02*
X-68030Y212598D01*
X-75091Y217678D02*
X-77631Y217678D01*
X-77731Y217676D01*
X-77830Y217670D01*
X-77930Y217660D01*
X-78028Y217647D01*
X-78127Y217629D01*
X-78224Y217608D01*
X-78320Y217583D01*
X-78416Y217554D01*
X-78510Y217521D01*
X-78603Y217485D01*
X-78694Y217445D01*
X-78784Y217401D01*
X-78872Y217354D01*
X-78958Y217304D01*
X-79042Y217250D01*
X-79124Y217193D01*
X-79203Y217133D01*
X-79281Y217069D01*
X-79355Y217003D01*
X-79427Y216934D01*
X-79496Y216862D01*
X-79562Y216788D01*
X-79626Y216710D01*
X-79686Y216631D01*
X-79743Y216549D01*
X-79797Y216465D01*
X-79847Y216379D01*
X-79894Y216291D01*
X-79938Y216201D01*
X-79978Y216110D01*
X-80014Y216017D01*
X-80047Y215923D01*
X-80076Y215827D01*
X-80101Y215731D01*
X-80122Y215634D01*
X-80140Y215535D01*
X-80153Y215437D01*
X-80163Y215337D01*
X-80169Y215238D01*
X-80171Y215138D01*
X-80169Y215038D01*
X-80163Y214939D01*
X-80153Y214839D01*
X-80140Y214741D01*
X-80122Y214642D01*
X-80101Y214545D01*
X-80076Y214449D01*
X-80047Y214353D01*
X-80014Y214259D01*
X-79978Y214166D01*
X-79938Y214075D01*
X-79894Y213985D01*
X-79847Y213897D01*
X-79797Y213811D01*
X-79743Y213727D01*
X-79686Y213645D01*
X-79626Y213566D01*
X-79562Y213488D01*
X-79496Y213414D01*
X-79427Y213342D01*
X-79355Y213273D01*
X-79281Y213207D01*
X-79203Y213143D01*
X-79124Y213083D01*
X-79042Y213026D01*
X-78958Y212972D01*
X-78872Y212922D01*
X-78784Y212875D01*
X-78694Y212831D01*
X-78603Y212791D01*
X-78510Y212755D01*
X-78416Y212722D01*
X-78320Y212693D01*
X-78224Y212668D01*
X-78127Y212647D01*
X-78028Y212629D01*
X-77930Y212616D01*
X-77830Y212606D01*
X-77731Y212600D01*
X-77631Y212598D01*
X-75091Y212598D01*
X-75091Y221742D01*
X-77631Y221742D01*
X-77720Y221740D01*
X-77808Y221734D01*
X-77896Y221725D01*
X-77984Y221711D01*
X-78071Y221694D01*
X-78157Y221673D01*
X-78242Y221648D01*
X-78326Y221619D01*
X-78409Y221587D01*
X-78490Y221552D01*
X-78569Y221512D01*
X-78647Y221470D01*
X-78723Y221424D01*
X-78797Y221375D01*
X-78868Y221322D01*
X-78937Y221267D01*
X-79004Y221208D01*
X-79068Y221147D01*
X-79129Y221083D01*
X-79188Y221016D01*
X-79243Y220947D01*
X-79296Y220876D01*
X-79345Y220802D01*
X-79391Y220726D01*
X-79433Y220648D01*
X-79473Y220569D01*
X-79508Y220488D01*
X-79540Y220405D01*
X-79569Y220321D01*
X-79594Y220236D01*
X-79615Y220150D01*
X-79632Y220063D01*
X-79646Y219975D01*
X-79655Y219887D01*
X-79661Y219799D01*
X-79663Y219710D01*
X-79661Y219621D01*
X-79655Y219533D01*
X-79646Y219445D01*
X-79632Y219357D01*
X-79615Y219270D01*
X-79594Y219184D01*
X-79569Y219099D01*
X-79540Y219015D01*
X-79508Y218932D01*
X-79473Y218851D01*
X-79433Y218772D01*
X-79391Y218694D01*
X-79345Y218618D01*
X-79296Y218544D01*
X-79243Y218473D01*
X-79188Y218404D01*
X-79129Y218337D01*
X-79068Y218273D01*
X-79004Y218212D01*
X-78937Y218153D01*
X-78868Y218098D01*
X-78797Y218045D01*
X-78723Y217996D01*
X-78647Y217950D01*
X-78569Y217908D01*
X-78490Y217868D01*
X-78409Y217833D01*
X-78326Y217801D01*
X-78242Y217772D01*
X-78157Y217747D01*
X-78071Y217726D01*
X-77984Y217709D01*
X-77896Y217695D01*
X-77808Y217686D01*
X-77720Y217680D01*
X-77631Y217678D01*
X-85852Y214630D02*
X-85852Y221742D01*
X-85852Y214630D02*
X-85850Y214541D01*
X-85844Y214453D01*
X-85835Y214365D01*
X-85821Y214277D01*
X-85804Y214190D01*
X-85783Y214104D01*
X-85758Y214019D01*
X-85729Y213935D01*
X-85697Y213852D01*
X-85662Y213771D01*
X-85622Y213692D01*
X-85580Y213614D01*
X-85534Y213538D01*
X-85485Y213464D01*
X-85432Y213393D01*
X-85377Y213324D01*
X-85318Y213257D01*
X-85257Y213193D01*
X-85193Y213132D01*
X-85126Y213073D01*
X-85057Y213018D01*
X-84986Y212965D01*
X-84912Y212916D01*
X-84836Y212870D01*
X-84758Y212828D01*
X-84679Y212788D01*
X-84598Y212753D01*
X-84515Y212721D01*
X-84431Y212692D01*
X-84346Y212667D01*
X-84260Y212646D01*
X-84173Y212629D01*
X-84085Y212615D01*
X-83997Y212606D01*
X-83909Y212600D01*
X-83820Y212598D01*
X-82804Y212598D01*
D11*
X-68517Y77386D02*
X-59119Y77386D01*
X-59119Y79997D01*
X-59118Y79997D02*
X-59120Y80098D01*
X-59126Y80199D01*
X-59136Y80300D01*
X-59149Y80400D01*
X-59167Y80500D01*
X-59188Y80599D01*
X-59214Y80697D01*
X-59243Y80794D01*
X-59275Y80890D01*
X-59312Y80984D01*
X-59352Y81077D01*
X-59396Y81169D01*
X-59443Y81258D01*
X-59494Y81346D01*
X-59548Y81432D01*
X-59605Y81515D01*
X-59665Y81597D01*
X-59729Y81675D01*
X-59795Y81752D01*
X-59865Y81825D01*
X-59937Y81896D01*
X-60012Y81964D01*
X-60090Y82029D01*
X-60170Y82091D01*
X-60252Y82150D01*
X-60337Y82206D01*
X-60424Y82258D01*
X-60512Y82307D01*
X-60603Y82353D01*
X-60695Y82394D01*
X-60789Y82433D01*
X-60884Y82467D01*
X-60980Y82498D01*
X-61078Y82525D01*
X-61176Y82549D01*
X-61276Y82568D01*
X-61376Y82584D01*
X-61476Y82596D01*
X-61577Y82604D01*
X-61678Y82608D01*
X-61780Y82608D01*
X-61881Y82604D01*
X-61982Y82596D01*
X-62082Y82584D01*
X-62182Y82568D01*
X-62282Y82549D01*
X-62380Y82525D01*
X-62478Y82498D01*
X-62574Y82467D01*
X-62669Y82433D01*
X-62763Y82394D01*
X-62855Y82353D01*
X-62946Y82307D01*
X-63035Y82258D01*
X-63121Y82206D01*
X-63206Y82150D01*
X-63288Y82091D01*
X-63368Y82029D01*
X-63446Y81964D01*
X-63521Y81896D01*
X-63593Y81825D01*
X-63663Y81752D01*
X-63729Y81675D01*
X-63793Y81597D01*
X-63853Y81515D01*
X-63910Y81432D01*
X-63964Y81346D01*
X-64015Y81258D01*
X-64062Y81169D01*
X-64106Y81077D01*
X-64146Y80984D01*
X-64183Y80890D01*
X-64215Y80794D01*
X-64244Y80697D01*
X-64270Y80599D01*
X-64291Y80500D01*
X-64309Y80400D01*
X-64322Y80300D01*
X-64332Y80199D01*
X-64338Y80098D01*
X-64340Y79997D01*
X-64340Y77386D01*
X-64340Y80519D02*
X-68517Y82607D01*
X-63295Y86473D02*
X-63295Y89606D01*
X-63296Y89606D02*
X-63298Y89695D01*
X-63304Y89783D01*
X-63313Y89871D01*
X-63326Y89959D01*
X-63343Y90046D01*
X-63363Y90132D01*
X-63388Y90217D01*
X-63415Y90302D01*
X-63447Y90385D01*
X-63481Y90466D01*
X-63520Y90546D01*
X-63561Y90624D01*
X-63606Y90701D01*
X-63654Y90775D01*
X-63705Y90848D01*
X-63759Y90918D01*
X-63817Y90985D01*
X-63877Y91051D01*
X-63939Y91113D01*
X-64005Y91173D01*
X-64072Y91231D01*
X-64142Y91285D01*
X-64215Y91336D01*
X-64289Y91384D01*
X-64366Y91429D01*
X-64444Y91470D01*
X-64524Y91509D01*
X-64605Y91543D01*
X-64688Y91575D01*
X-64773Y91602D01*
X-64858Y91627D01*
X-64944Y91647D01*
X-65031Y91664D01*
X-65119Y91677D01*
X-65207Y91686D01*
X-65295Y91692D01*
X-65384Y91694D01*
X-65906Y91694D01*
X-66007Y91692D01*
X-66108Y91686D01*
X-66209Y91676D01*
X-66309Y91663D01*
X-66409Y91645D01*
X-66508Y91624D01*
X-66606Y91598D01*
X-66703Y91569D01*
X-66799Y91537D01*
X-66893Y91500D01*
X-66986Y91460D01*
X-67078Y91416D01*
X-67167Y91369D01*
X-67255Y91318D01*
X-67341Y91264D01*
X-67424Y91207D01*
X-67506Y91147D01*
X-67584Y91083D01*
X-67661Y91017D01*
X-67734Y90947D01*
X-67805Y90875D01*
X-67873Y90800D01*
X-67938Y90722D01*
X-68000Y90642D01*
X-68059Y90560D01*
X-68115Y90475D01*
X-68167Y90389D01*
X-68216Y90300D01*
X-68262Y90209D01*
X-68303Y90117D01*
X-68342Y90023D01*
X-68376Y89928D01*
X-68407Y89832D01*
X-68434Y89734D01*
X-68458Y89636D01*
X-68477Y89536D01*
X-68493Y89436D01*
X-68505Y89336D01*
X-68513Y89235D01*
X-68517Y89134D01*
X-68517Y89032D01*
X-68513Y88931D01*
X-68505Y88830D01*
X-68493Y88730D01*
X-68477Y88630D01*
X-68458Y88530D01*
X-68434Y88432D01*
X-68407Y88334D01*
X-68376Y88238D01*
X-68342Y88143D01*
X-68303Y88049D01*
X-68262Y87957D01*
X-68216Y87866D01*
X-68167Y87778D01*
X-68115Y87691D01*
X-68059Y87606D01*
X-68000Y87524D01*
X-67938Y87444D01*
X-67873Y87366D01*
X-67805Y87291D01*
X-67734Y87219D01*
X-67661Y87149D01*
X-67584Y87083D01*
X-67506Y87019D01*
X-67424Y86959D01*
X-67341Y86902D01*
X-67255Y86848D01*
X-67167Y86797D01*
X-67078Y86750D01*
X-66986Y86706D01*
X-66893Y86666D01*
X-66799Y86629D01*
X-66703Y86597D01*
X-66606Y86568D01*
X-66508Y86542D01*
X-66409Y86521D01*
X-66309Y86503D01*
X-66209Y86490D01*
X-66108Y86480D01*
X-66007Y86474D01*
X-65906Y86472D01*
X-65906Y86473D02*
X-63295Y86473D01*
X-63166Y86475D01*
X-63038Y86481D01*
X-62910Y86491D01*
X-62782Y86505D01*
X-62654Y86522D01*
X-62527Y86544D01*
X-62401Y86570D01*
X-62276Y86599D01*
X-62152Y86632D01*
X-62029Y86670D01*
X-61907Y86710D01*
X-61786Y86755D01*
X-61667Y86803D01*
X-61549Y86855D01*
X-61433Y86911D01*
X-61319Y86970D01*
X-61207Y87033D01*
X-61096Y87099D01*
X-60988Y87168D01*
X-60882Y87241D01*
X-60778Y87317D01*
X-60676Y87396D01*
X-60577Y87478D01*
X-60481Y87563D01*
X-60387Y87651D01*
X-60296Y87742D01*
X-60208Y87836D01*
X-60123Y87932D01*
X-60041Y88031D01*
X-59962Y88133D01*
X-59886Y88237D01*
X-59813Y88343D01*
X-59744Y88451D01*
X-59678Y88561D01*
X-59615Y88674D01*
X-59556Y88788D01*
X-59500Y88904D01*
X-59448Y89022D01*
X-59400Y89141D01*
X-59355Y89262D01*
X-59315Y89384D01*
X-59277Y89507D01*
X-59244Y89631D01*
X-59215Y89756D01*
X-59189Y89882D01*
X-59167Y90009D01*
X-59150Y90137D01*
X-59136Y90265D01*
X-59126Y90393D01*
X-59120Y90521D01*
X-59118Y90650D01*
D10*
X-233430Y136015D02*
X-233430Y162435D01*
X-249170Y162435D02*
X-249170Y136015D01*
X-233430Y136015D01*
X-233430Y162435D02*
X-249170Y162435D01*
D13*
X-241400Y154725D02*
X-246400Y144725D01*
X-236400Y144725D01*
X-241400Y154725D01*
X-246400Y154725D01*
X-241400Y154725D02*
X-236400Y154725D01*
D11*
X-229807Y140081D02*
X-220409Y140081D01*
X-220409Y142692D01*
X-220408Y142692D02*
X-220410Y142792D01*
X-220416Y142892D01*
X-220425Y142991D01*
X-220439Y143091D01*
X-220456Y143189D01*
X-220477Y143287D01*
X-220501Y143384D01*
X-220530Y143480D01*
X-220562Y143575D01*
X-220597Y143668D01*
X-220636Y143760D01*
X-220679Y143851D01*
X-220725Y143939D01*
X-220775Y144026D01*
X-220827Y144111D01*
X-220883Y144194D01*
X-220942Y144275D01*
X-221005Y144353D01*
X-221070Y144429D01*
X-221138Y144503D01*
X-221208Y144573D01*
X-221282Y144641D01*
X-221358Y144706D01*
X-221436Y144769D01*
X-221517Y144828D01*
X-221600Y144884D01*
X-221685Y144936D01*
X-221772Y144986D01*
X-221860Y145032D01*
X-221951Y145075D01*
X-222043Y145114D01*
X-222136Y145149D01*
X-222231Y145181D01*
X-222327Y145210D01*
X-222424Y145234D01*
X-222522Y145255D01*
X-222620Y145272D01*
X-222720Y145286D01*
X-222819Y145295D01*
X-222919Y145301D01*
X-223019Y145303D01*
X-223019Y145302D02*
X-227196Y145302D01*
X-227196Y145303D02*
X-227296Y145301D01*
X-227396Y145295D01*
X-227495Y145286D01*
X-227595Y145272D01*
X-227693Y145255D01*
X-227791Y145234D01*
X-227888Y145210D01*
X-227984Y145181D01*
X-228079Y145149D01*
X-228172Y145114D01*
X-228264Y145075D01*
X-228355Y145032D01*
X-228443Y144986D01*
X-228530Y144936D01*
X-228615Y144884D01*
X-228698Y144828D01*
X-228779Y144769D01*
X-228857Y144706D01*
X-228933Y144641D01*
X-229007Y144573D01*
X-229077Y144503D01*
X-229145Y144429D01*
X-229210Y144353D01*
X-229273Y144275D01*
X-229332Y144194D01*
X-229388Y144111D01*
X-229440Y144026D01*
X-229490Y143939D01*
X-229536Y143851D01*
X-229579Y143760D01*
X-229618Y143668D01*
X-229653Y143575D01*
X-229685Y143480D01*
X-229714Y143384D01*
X-229738Y143287D01*
X-229759Y143189D01*
X-229776Y143091D01*
X-229790Y142991D01*
X-229799Y142892D01*
X-229805Y142792D01*
X-229807Y142692D01*
X-229807Y140081D01*
X-220408Y152401D02*
X-220410Y152496D01*
X-220416Y152590D01*
X-220425Y152684D01*
X-220438Y152778D01*
X-220455Y152871D01*
X-220476Y152963D01*
X-220501Y153055D01*
X-220529Y153145D01*
X-220561Y153234D01*
X-220596Y153322D01*
X-220635Y153408D01*
X-220677Y153493D01*
X-220723Y153576D01*
X-220772Y153657D01*
X-220824Y153736D01*
X-220879Y153813D01*
X-220938Y153887D01*
X-220999Y153959D01*
X-221063Y154029D01*
X-221130Y154096D01*
X-221200Y154160D01*
X-221272Y154221D01*
X-221346Y154280D01*
X-221423Y154335D01*
X-221502Y154387D01*
X-221583Y154436D01*
X-221666Y154482D01*
X-221751Y154524D01*
X-221837Y154563D01*
X-221925Y154598D01*
X-222014Y154630D01*
X-222104Y154658D01*
X-222196Y154683D01*
X-222288Y154704D01*
X-222381Y154721D01*
X-222475Y154734D01*
X-222569Y154743D01*
X-222663Y154749D01*
X-222758Y154751D01*
X-220409Y152401D02*
X-220411Y152293D01*
X-220417Y152184D01*
X-220427Y152076D01*
X-220440Y151969D01*
X-220458Y151862D01*
X-220479Y151755D01*
X-220504Y151650D01*
X-220533Y151545D01*
X-220565Y151442D01*
X-220602Y151340D01*
X-220642Y151239D01*
X-220685Y151140D01*
X-220732Y151042D01*
X-220783Y150946D01*
X-220837Y150852D01*
X-220894Y150760D01*
X-220955Y150670D01*
X-221019Y150582D01*
X-221085Y150497D01*
X-221155Y150414D01*
X-221228Y150334D01*
X-221304Y150256D01*
X-221382Y150181D01*
X-221463Y150109D01*
X-221547Y150040D01*
X-221633Y149974D01*
X-221721Y149911D01*
X-221812Y149852D01*
X-221904Y149795D01*
X-221999Y149742D01*
X-222096Y149693D01*
X-222194Y149647D01*
X-222293Y149604D01*
X-222395Y149565D01*
X-222497Y149530D01*
X-224586Y153968D02*
X-224517Y154037D01*
X-224446Y154103D01*
X-224373Y154167D01*
X-224297Y154228D01*
X-224218Y154286D01*
X-224138Y154340D01*
X-224055Y154392D01*
X-223971Y154440D01*
X-223885Y154486D01*
X-223797Y154527D01*
X-223707Y154566D01*
X-223616Y154601D01*
X-223524Y154632D01*
X-223431Y154660D01*
X-223337Y154684D01*
X-223242Y154704D01*
X-223146Y154721D01*
X-223049Y154734D01*
X-222952Y154743D01*
X-222855Y154749D01*
X-222758Y154751D01*
X-224585Y153968D02*
X-229807Y149530D01*
X-229807Y154751D01*
X72644Y209931D02*
X72644Y219329D01*
X70033Y219329D01*
X69932Y219327D01*
X69831Y219321D01*
X69730Y219311D01*
X69630Y219298D01*
X69530Y219280D01*
X69431Y219259D01*
X69333Y219233D01*
X69236Y219204D01*
X69140Y219172D01*
X69046Y219135D01*
X68953Y219095D01*
X68861Y219051D01*
X68772Y219004D01*
X68684Y218953D01*
X68598Y218899D01*
X68515Y218842D01*
X68433Y218782D01*
X68355Y218718D01*
X68278Y218652D01*
X68205Y218582D01*
X68134Y218510D01*
X68066Y218435D01*
X68001Y218357D01*
X67939Y218277D01*
X67880Y218195D01*
X67824Y218110D01*
X67772Y218024D01*
X67723Y217935D01*
X67677Y217844D01*
X67636Y217752D01*
X67597Y217658D01*
X67563Y217563D01*
X67532Y217467D01*
X67505Y217369D01*
X67481Y217271D01*
X67462Y217171D01*
X67446Y217071D01*
X67434Y216971D01*
X67426Y216870D01*
X67422Y216769D01*
X67422Y216667D01*
X67426Y216566D01*
X67434Y216465D01*
X67446Y216365D01*
X67462Y216265D01*
X67481Y216165D01*
X67505Y216067D01*
X67532Y215969D01*
X67563Y215873D01*
X67597Y215778D01*
X67636Y215684D01*
X67677Y215592D01*
X67723Y215501D01*
X67772Y215413D01*
X67824Y215326D01*
X67880Y215241D01*
X67939Y215159D01*
X68001Y215079D01*
X68066Y215001D01*
X68134Y214926D01*
X68205Y214854D01*
X68278Y214784D01*
X68355Y214718D01*
X68433Y214654D01*
X68515Y214594D01*
X68598Y214537D01*
X68684Y214483D01*
X68772Y214432D01*
X68861Y214385D01*
X68953Y214341D01*
X69046Y214301D01*
X69140Y214264D01*
X69236Y214232D01*
X69333Y214203D01*
X69431Y214177D01*
X69530Y214156D01*
X69630Y214138D01*
X69730Y214125D01*
X69831Y214115D01*
X69932Y214109D01*
X70033Y214107D01*
X70033Y214108D02*
X72644Y214108D01*
X69511Y214108D02*
X67423Y209931D01*
X63557Y218285D02*
X63557Y219329D01*
X58336Y219329D01*
X60947Y209931D01*
M02*
