G04 EAGLE Gerber RS-274X export*
G75*
%MOMM*%
%FSLAX34Y34*%
%LPD*%
%INSilkscreen Bottom*%
%IPPOS*%
%AMOC8*
5,1,8,0,0,1.08239X$1,22.5*%
G01*
%ADD10C,0.101600*%
%ADD11C,0.076200*%
%ADD12C,0.152400*%
%ADD13C,0.203200*%


D10*
X66167Y60833D02*
X66167Y72517D01*
X66167Y67324D02*
X59676Y67324D01*
X59676Y72517D02*
X59676Y60833D01*
X49431Y67324D02*
X47484Y67324D01*
X47484Y60833D01*
X51379Y60833D01*
X51478Y60835D01*
X51578Y60841D01*
X51677Y60850D01*
X51775Y60863D01*
X51873Y60880D01*
X51971Y60901D01*
X52067Y60926D01*
X52162Y60954D01*
X52256Y60986D01*
X52349Y61021D01*
X52441Y61060D01*
X52531Y61103D01*
X52619Y61148D01*
X52706Y61198D01*
X52790Y61250D01*
X52873Y61306D01*
X52953Y61364D01*
X53031Y61426D01*
X53106Y61491D01*
X53179Y61559D01*
X53249Y61629D01*
X53317Y61702D01*
X53382Y61777D01*
X53444Y61855D01*
X53502Y61935D01*
X53558Y62018D01*
X53610Y62102D01*
X53660Y62189D01*
X53705Y62277D01*
X53748Y62367D01*
X53787Y62459D01*
X53822Y62552D01*
X53854Y62646D01*
X53882Y62741D01*
X53907Y62837D01*
X53928Y62935D01*
X53945Y63033D01*
X53958Y63131D01*
X53967Y63230D01*
X53973Y63330D01*
X53975Y63429D01*
X53975Y69921D01*
X53973Y70020D01*
X53967Y70120D01*
X53958Y70219D01*
X53945Y70317D01*
X53928Y70415D01*
X53907Y70513D01*
X53882Y70609D01*
X53854Y70704D01*
X53822Y70798D01*
X53787Y70891D01*
X53748Y70983D01*
X53705Y71073D01*
X53660Y71161D01*
X53610Y71248D01*
X53558Y71332D01*
X53502Y71415D01*
X53444Y71495D01*
X53382Y71573D01*
X53317Y71648D01*
X53249Y71721D01*
X53179Y71791D01*
X53106Y71859D01*
X53031Y71924D01*
X52953Y71986D01*
X52873Y72044D01*
X52790Y72100D01*
X52706Y72152D01*
X52619Y72202D01*
X52531Y72247D01*
X52441Y72290D01*
X52349Y72329D01*
X52256Y72364D01*
X52162Y72396D01*
X52067Y72424D01*
X51971Y72449D01*
X51873Y72470D01*
X51775Y72487D01*
X51677Y72500D01*
X51578Y72509D01*
X51478Y72515D01*
X51379Y72517D01*
X47484Y72517D01*
X41191Y70894D02*
X41290Y70687D01*
X41383Y70477D01*
X41471Y70264D01*
X41554Y70050D01*
X41632Y69834D01*
X41705Y69616D01*
X41773Y69396D01*
X41835Y69175D01*
X41892Y68952D01*
X41944Y68728D01*
X41990Y68503D01*
X42031Y68277D01*
X42066Y68050D01*
X42096Y67822D01*
X42121Y67593D01*
X42140Y67364D01*
X42154Y67135D01*
X42162Y66905D01*
X42165Y66675D01*
X41191Y70894D02*
X41158Y70984D01*
X41122Y71073D01*
X41082Y71161D01*
X41038Y71246D01*
X40991Y71330D01*
X40941Y71412D01*
X40887Y71492D01*
X40831Y71569D01*
X40771Y71645D01*
X40708Y71718D01*
X40643Y71788D01*
X40574Y71856D01*
X40503Y71920D01*
X40430Y71982D01*
X40354Y72041D01*
X40276Y72097D01*
X40195Y72150D01*
X40113Y72199D01*
X40029Y72245D01*
X39942Y72288D01*
X39855Y72327D01*
X39765Y72363D01*
X39675Y72395D01*
X39583Y72423D01*
X39490Y72448D01*
X39396Y72469D01*
X39302Y72486D01*
X39207Y72500D01*
X39111Y72509D01*
X39015Y72515D01*
X38919Y72517D01*
X38823Y72515D01*
X38727Y72509D01*
X38631Y72500D01*
X38536Y72486D01*
X38442Y72469D01*
X38348Y72448D01*
X38255Y72423D01*
X38163Y72395D01*
X38073Y72363D01*
X37983Y72327D01*
X37896Y72288D01*
X37809Y72245D01*
X37725Y72199D01*
X37643Y72150D01*
X37562Y72097D01*
X37484Y72041D01*
X37408Y71982D01*
X37335Y71920D01*
X37264Y71856D01*
X37195Y71788D01*
X37130Y71718D01*
X37067Y71645D01*
X37007Y71570D01*
X36951Y71492D01*
X36897Y71412D01*
X36847Y71330D01*
X36800Y71246D01*
X36757Y71161D01*
X36716Y71073D01*
X36680Y70984D01*
X36647Y70894D01*
X36548Y70686D01*
X36455Y70476D01*
X36367Y70264D01*
X36284Y70050D01*
X36206Y69833D01*
X36133Y69615D01*
X36065Y69396D01*
X36003Y69174D01*
X35946Y68952D01*
X35894Y68728D01*
X35848Y68503D01*
X35807Y68277D01*
X35772Y68049D01*
X35742Y67822D01*
X35717Y67593D01*
X35698Y67364D01*
X35684Y67135D01*
X35676Y66905D01*
X35673Y66675D01*
X42164Y66675D02*
X42161Y66445D01*
X42153Y66215D01*
X42139Y65986D01*
X42120Y65757D01*
X42095Y65528D01*
X42065Y65300D01*
X42030Y65073D01*
X41989Y64847D01*
X41943Y64622D01*
X41891Y64398D01*
X41834Y64175D01*
X41772Y63954D01*
X41704Y63734D01*
X41631Y63516D01*
X41553Y63300D01*
X41470Y63086D01*
X41382Y62874D01*
X41289Y62663D01*
X41190Y62456D01*
X41191Y62456D02*
X41158Y62366D01*
X41122Y62277D01*
X41081Y62189D01*
X41038Y62104D01*
X40991Y62020D01*
X40941Y61938D01*
X40887Y61858D01*
X40831Y61781D01*
X40771Y61705D01*
X40708Y61632D01*
X40643Y61562D01*
X40574Y61494D01*
X40503Y61430D01*
X40430Y61368D01*
X40354Y61309D01*
X40276Y61253D01*
X40195Y61200D01*
X40113Y61151D01*
X40029Y61105D01*
X39942Y61062D01*
X39855Y61023D01*
X39765Y60987D01*
X39675Y60955D01*
X39583Y60927D01*
X39490Y60902D01*
X39396Y60881D01*
X39302Y60864D01*
X39207Y60850D01*
X39111Y60841D01*
X39015Y60835D01*
X38919Y60833D01*
X36647Y62456D02*
X36548Y62663D01*
X36455Y62874D01*
X36367Y63086D01*
X36284Y63300D01*
X36206Y63516D01*
X36133Y63734D01*
X36065Y63954D01*
X36003Y64175D01*
X35946Y64398D01*
X35894Y64622D01*
X35848Y64847D01*
X35807Y65073D01*
X35772Y65300D01*
X35742Y65528D01*
X35717Y65757D01*
X35698Y65986D01*
X35684Y66215D01*
X35676Y66445D01*
X35673Y66675D01*
X36647Y62456D02*
X36680Y62366D01*
X36716Y62277D01*
X36757Y62189D01*
X36800Y62104D01*
X36847Y62020D01*
X36897Y61938D01*
X36951Y61858D01*
X37007Y61780D01*
X37067Y61705D01*
X37130Y61632D01*
X37195Y61562D01*
X37264Y61494D01*
X37335Y61430D01*
X37408Y61368D01*
X37484Y61309D01*
X37562Y61253D01*
X37643Y61200D01*
X37725Y61151D01*
X37809Y61105D01*
X37896Y61062D01*
X37983Y61023D01*
X38073Y60987D01*
X38163Y60955D01*
X38255Y60927D01*
X38348Y60902D01*
X38442Y60881D01*
X38536Y60864D01*
X38631Y60850D01*
X38727Y60841D01*
X38823Y60835D01*
X38919Y60833D01*
X41515Y63429D02*
X36322Y69921D01*
X30184Y67324D02*
X26938Y67324D01*
X26938Y67325D02*
X26825Y67323D01*
X26712Y67317D01*
X26599Y67307D01*
X26486Y67293D01*
X26374Y67276D01*
X26263Y67254D01*
X26153Y67229D01*
X26043Y67199D01*
X25935Y67166D01*
X25828Y67129D01*
X25722Y67089D01*
X25618Y67044D01*
X25515Y66996D01*
X25414Y66945D01*
X25315Y66890D01*
X25218Y66832D01*
X25123Y66770D01*
X25030Y66705D01*
X24940Y66637D01*
X24852Y66566D01*
X24766Y66491D01*
X24683Y66414D01*
X24603Y66334D01*
X24526Y66251D01*
X24451Y66165D01*
X24380Y66077D01*
X24312Y65987D01*
X24247Y65894D01*
X24185Y65799D01*
X24127Y65702D01*
X24072Y65603D01*
X24021Y65502D01*
X23973Y65399D01*
X23928Y65295D01*
X23888Y65189D01*
X23851Y65082D01*
X23818Y64974D01*
X23788Y64864D01*
X23763Y64754D01*
X23741Y64643D01*
X23724Y64531D01*
X23710Y64418D01*
X23700Y64305D01*
X23694Y64192D01*
X23692Y64079D01*
X23694Y63966D01*
X23700Y63853D01*
X23710Y63740D01*
X23724Y63627D01*
X23741Y63515D01*
X23763Y63404D01*
X23788Y63294D01*
X23818Y63184D01*
X23851Y63076D01*
X23888Y62969D01*
X23928Y62863D01*
X23973Y62759D01*
X24021Y62656D01*
X24072Y62555D01*
X24127Y62456D01*
X24185Y62359D01*
X24247Y62264D01*
X24312Y62171D01*
X24380Y62081D01*
X24451Y61993D01*
X24526Y61907D01*
X24603Y61824D01*
X24683Y61744D01*
X24766Y61667D01*
X24852Y61592D01*
X24940Y61521D01*
X25030Y61453D01*
X25123Y61388D01*
X25218Y61326D01*
X25315Y61268D01*
X25414Y61213D01*
X25515Y61162D01*
X25618Y61114D01*
X25722Y61069D01*
X25828Y61029D01*
X25935Y60992D01*
X26043Y60959D01*
X26153Y60929D01*
X26263Y60904D01*
X26374Y60882D01*
X26486Y60865D01*
X26599Y60851D01*
X26712Y60841D01*
X26825Y60835D01*
X26938Y60833D01*
X30184Y60833D01*
X30184Y72517D01*
X26938Y72517D01*
X26837Y72515D01*
X26737Y72509D01*
X26637Y72499D01*
X26537Y72486D01*
X26438Y72468D01*
X26339Y72447D01*
X26242Y72422D01*
X26145Y72393D01*
X26050Y72360D01*
X25956Y72324D01*
X25864Y72284D01*
X25773Y72241D01*
X25684Y72194D01*
X25597Y72144D01*
X25511Y72090D01*
X25428Y72033D01*
X25348Y71973D01*
X25269Y71910D01*
X25193Y71843D01*
X25120Y71774D01*
X25050Y71702D01*
X24982Y71628D01*
X24917Y71551D01*
X24856Y71471D01*
X24797Y71389D01*
X24742Y71305D01*
X24690Y71219D01*
X24641Y71131D01*
X24596Y71041D01*
X24554Y70949D01*
X24516Y70856D01*
X24482Y70761D01*
X24451Y70666D01*
X24424Y70569D01*
X24401Y70471D01*
X24381Y70372D01*
X24366Y70272D01*
X24354Y70172D01*
X24346Y70072D01*
X24342Y69971D01*
X24342Y69871D01*
X24346Y69770D01*
X24354Y69670D01*
X24366Y69570D01*
X24381Y69470D01*
X24401Y69371D01*
X24424Y69273D01*
X24451Y69176D01*
X24482Y69081D01*
X24516Y68986D01*
X24554Y68893D01*
X24596Y68801D01*
X24641Y68711D01*
X24690Y68623D01*
X24742Y68537D01*
X24797Y68453D01*
X24856Y68371D01*
X24917Y68291D01*
X24982Y68214D01*
X25050Y68140D01*
X25120Y68068D01*
X25193Y67999D01*
X25269Y67932D01*
X25348Y67869D01*
X25428Y67809D01*
X25511Y67752D01*
X25597Y67698D01*
X25684Y67648D01*
X25773Y67601D01*
X25864Y67558D01*
X25956Y67518D01*
X26050Y67482D01*
X26145Y67449D01*
X26242Y67420D01*
X26339Y67395D01*
X26438Y67374D01*
X26537Y67356D01*
X26637Y67343D01*
X26737Y67333D01*
X26837Y67327D01*
X26938Y67325D01*
X19304Y69921D02*
X16059Y72517D01*
X16059Y60833D01*
X19304Y60833D02*
X12813Y60833D01*
X5311Y60833D02*
X2714Y60833D01*
X5311Y60833D02*
X5410Y60835D01*
X5510Y60841D01*
X5609Y60850D01*
X5707Y60863D01*
X5805Y60880D01*
X5903Y60901D01*
X5999Y60926D01*
X6094Y60954D01*
X6188Y60986D01*
X6281Y61021D01*
X6373Y61060D01*
X6463Y61103D01*
X6551Y61148D01*
X6638Y61198D01*
X6722Y61250D01*
X6805Y61306D01*
X6885Y61364D01*
X6963Y61426D01*
X7038Y61491D01*
X7111Y61559D01*
X7181Y61629D01*
X7249Y61702D01*
X7314Y61777D01*
X7376Y61855D01*
X7434Y61935D01*
X7490Y62018D01*
X7542Y62102D01*
X7592Y62189D01*
X7637Y62277D01*
X7680Y62367D01*
X7719Y62459D01*
X7754Y62552D01*
X7786Y62646D01*
X7814Y62741D01*
X7839Y62837D01*
X7860Y62935D01*
X7877Y63033D01*
X7890Y63131D01*
X7899Y63230D01*
X7905Y63330D01*
X7907Y63429D01*
X7907Y69921D01*
X7905Y70020D01*
X7899Y70120D01*
X7890Y70219D01*
X7877Y70317D01*
X7860Y70415D01*
X7839Y70513D01*
X7814Y70609D01*
X7786Y70704D01*
X7754Y70798D01*
X7719Y70891D01*
X7680Y70983D01*
X7637Y71073D01*
X7592Y71161D01*
X7542Y71248D01*
X7490Y71332D01*
X7434Y71415D01*
X7376Y71495D01*
X7314Y71573D01*
X7249Y71648D01*
X7181Y71721D01*
X7111Y71791D01*
X7038Y71859D01*
X6963Y71924D01*
X6885Y71986D01*
X6805Y72044D01*
X6722Y72100D01*
X6638Y72152D01*
X6551Y72202D01*
X6463Y72247D01*
X6373Y72290D01*
X6281Y72329D01*
X6188Y72364D01*
X6094Y72396D01*
X5999Y72424D01*
X5903Y72449D01*
X5805Y72470D01*
X5707Y72487D01*
X5609Y72500D01*
X5510Y72509D01*
X5410Y72515D01*
X5311Y72517D01*
X2714Y72517D01*
X-2054Y60833D02*
X-7247Y60833D01*
X-2054Y60833D02*
X-2054Y72517D01*
X-7247Y72517D01*
X-5949Y67324D02*
X-2054Y67324D01*
X-11938Y64079D02*
X-11938Y72517D01*
X-11937Y64079D02*
X-11939Y63966D01*
X-11945Y63853D01*
X-11955Y63740D01*
X-11969Y63627D01*
X-11986Y63515D01*
X-12008Y63404D01*
X-12033Y63294D01*
X-12063Y63184D01*
X-12096Y63076D01*
X-12133Y62969D01*
X-12173Y62863D01*
X-12218Y62759D01*
X-12266Y62656D01*
X-12317Y62555D01*
X-12372Y62456D01*
X-12430Y62359D01*
X-12492Y62264D01*
X-12557Y62171D01*
X-12625Y62081D01*
X-12696Y61993D01*
X-12771Y61907D01*
X-12848Y61824D01*
X-12928Y61744D01*
X-13011Y61667D01*
X-13097Y61592D01*
X-13185Y61521D01*
X-13275Y61453D01*
X-13368Y61388D01*
X-13463Y61326D01*
X-13560Y61268D01*
X-13659Y61213D01*
X-13760Y61162D01*
X-13863Y61114D01*
X-13967Y61069D01*
X-14073Y61029D01*
X-14180Y60992D01*
X-14288Y60959D01*
X-14398Y60929D01*
X-14508Y60904D01*
X-14619Y60882D01*
X-14731Y60865D01*
X-14844Y60851D01*
X-14957Y60841D01*
X-15070Y60835D01*
X-15183Y60833D01*
X-15296Y60835D01*
X-15409Y60841D01*
X-15522Y60851D01*
X-15635Y60865D01*
X-15747Y60882D01*
X-15858Y60904D01*
X-15968Y60929D01*
X-16078Y60959D01*
X-16186Y60992D01*
X-16293Y61029D01*
X-16399Y61069D01*
X-16503Y61114D01*
X-16606Y61162D01*
X-16707Y61213D01*
X-16806Y61268D01*
X-16903Y61326D01*
X-16998Y61388D01*
X-17091Y61453D01*
X-17181Y61521D01*
X-17269Y61592D01*
X-17355Y61667D01*
X-17438Y61744D01*
X-17518Y61824D01*
X-17595Y61907D01*
X-17670Y61993D01*
X-17741Y62081D01*
X-17809Y62171D01*
X-17874Y62264D01*
X-17936Y62359D01*
X-17994Y62456D01*
X-18049Y62555D01*
X-18100Y62656D01*
X-18148Y62759D01*
X-18193Y62863D01*
X-18233Y62969D01*
X-18270Y63076D01*
X-18303Y63184D01*
X-18333Y63294D01*
X-18358Y63404D01*
X-18380Y63515D01*
X-18397Y63627D01*
X-18411Y63740D01*
X-18421Y63853D01*
X-18427Y63966D01*
X-18429Y64079D01*
X-18429Y72517D01*
D11*
X-28829Y126953D02*
X-28829Y129042D01*
X-28829Y126953D02*
X-28827Y126864D01*
X-28821Y126776D01*
X-28812Y126688D01*
X-28799Y126600D01*
X-28782Y126513D01*
X-28762Y126427D01*
X-28737Y126342D01*
X-28710Y126257D01*
X-28678Y126174D01*
X-28644Y126093D01*
X-28605Y126013D01*
X-28564Y125935D01*
X-28519Y125858D01*
X-28471Y125784D01*
X-28420Y125711D01*
X-28366Y125641D01*
X-28308Y125574D01*
X-28248Y125508D01*
X-28186Y125446D01*
X-28120Y125386D01*
X-28053Y125328D01*
X-27983Y125274D01*
X-27910Y125223D01*
X-27836Y125175D01*
X-27759Y125130D01*
X-27681Y125089D01*
X-27601Y125050D01*
X-27520Y125016D01*
X-27437Y124984D01*
X-27352Y124957D01*
X-27267Y124932D01*
X-27181Y124912D01*
X-27094Y124895D01*
X-27006Y124882D01*
X-26918Y124873D01*
X-26830Y124867D01*
X-26741Y124865D01*
X-21519Y124865D01*
X-21519Y124864D02*
X-21428Y124866D01*
X-21337Y124872D01*
X-21246Y124882D01*
X-21156Y124896D01*
X-21067Y124914D01*
X-20978Y124935D01*
X-20891Y124961D01*
X-20805Y124990D01*
X-20720Y125023D01*
X-20636Y125060D01*
X-20554Y125100D01*
X-20475Y125144D01*
X-20397Y125191D01*
X-20321Y125242D01*
X-20247Y125296D01*
X-20176Y125353D01*
X-20108Y125413D01*
X-20042Y125476D01*
X-19979Y125542D01*
X-19919Y125610D01*
X-19862Y125681D01*
X-19808Y125755D01*
X-19757Y125831D01*
X-19710Y125908D01*
X-19666Y125988D01*
X-19626Y126070D01*
X-19589Y126154D01*
X-19556Y126238D01*
X-19527Y126325D01*
X-19501Y126412D01*
X-19480Y126501D01*
X-19462Y126590D01*
X-19448Y126680D01*
X-19438Y126771D01*
X-19432Y126862D01*
X-19430Y126953D01*
X-19431Y126953D02*
X-19431Y129042D01*
X-21519Y132510D02*
X-19431Y135121D01*
X-28829Y135121D01*
X-28829Y132510D02*
X-28829Y137732D01*
D12*
X-16307Y175730D02*
X3823Y175730D01*
D11*
X-9779Y127454D02*
X-9779Y125366D01*
X-9777Y125277D01*
X-9771Y125189D01*
X-9762Y125101D01*
X-9749Y125013D01*
X-9732Y124926D01*
X-9712Y124840D01*
X-9687Y124755D01*
X-9660Y124670D01*
X-9628Y124587D01*
X-9594Y124506D01*
X-9555Y124426D01*
X-9514Y124348D01*
X-9469Y124271D01*
X-9421Y124197D01*
X-9370Y124124D01*
X-9316Y124054D01*
X-9258Y123987D01*
X-9198Y123921D01*
X-9136Y123859D01*
X-9070Y123799D01*
X-9003Y123741D01*
X-8933Y123687D01*
X-8860Y123636D01*
X-8786Y123588D01*
X-8709Y123543D01*
X-8631Y123502D01*
X-8551Y123463D01*
X-8470Y123429D01*
X-8387Y123397D01*
X-8302Y123370D01*
X-8217Y123345D01*
X-8131Y123325D01*
X-8044Y123308D01*
X-7956Y123295D01*
X-7868Y123286D01*
X-7780Y123280D01*
X-7691Y123278D01*
X-7691Y123277D02*
X-2469Y123277D01*
X-2378Y123279D01*
X-2287Y123285D01*
X-2196Y123295D01*
X-2106Y123309D01*
X-2017Y123327D01*
X-1928Y123348D01*
X-1841Y123374D01*
X-1755Y123403D01*
X-1670Y123436D01*
X-1586Y123473D01*
X-1504Y123513D01*
X-1425Y123557D01*
X-1347Y123604D01*
X-1271Y123655D01*
X-1197Y123709D01*
X-1126Y123766D01*
X-1058Y123826D01*
X-992Y123889D01*
X-929Y123955D01*
X-869Y124023D01*
X-812Y124094D01*
X-758Y124168D01*
X-707Y124244D01*
X-660Y124321D01*
X-616Y124401D01*
X-576Y124483D01*
X-539Y124567D01*
X-506Y124651D01*
X-477Y124738D01*
X-451Y124825D01*
X-430Y124914D01*
X-412Y125003D01*
X-398Y125093D01*
X-388Y125184D01*
X-382Y125275D01*
X-380Y125366D01*
X-381Y125366D02*
X-381Y127454D01*
X-381Y133795D02*
X-383Y133890D01*
X-389Y133984D01*
X-398Y134078D01*
X-411Y134172D01*
X-428Y134265D01*
X-449Y134357D01*
X-474Y134449D01*
X-502Y134539D01*
X-534Y134628D01*
X-569Y134716D01*
X-608Y134802D01*
X-650Y134887D01*
X-696Y134970D01*
X-745Y135051D01*
X-797Y135130D01*
X-852Y135207D01*
X-911Y135281D01*
X-972Y135353D01*
X-1036Y135423D01*
X-1103Y135490D01*
X-1173Y135554D01*
X-1245Y135615D01*
X-1319Y135674D01*
X-1396Y135729D01*
X-1475Y135781D01*
X-1556Y135830D01*
X-1639Y135876D01*
X-1724Y135918D01*
X-1810Y135957D01*
X-1898Y135992D01*
X-1987Y136024D01*
X-2077Y136052D01*
X-2169Y136077D01*
X-2261Y136098D01*
X-2354Y136115D01*
X-2448Y136128D01*
X-2542Y136137D01*
X-2636Y136143D01*
X-2731Y136145D01*
X-381Y133795D02*
X-383Y133687D01*
X-389Y133578D01*
X-399Y133470D01*
X-412Y133363D01*
X-430Y133256D01*
X-451Y133149D01*
X-476Y133044D01*
X-505Y132939D01*
X-537Y132836D01*
X-574Y132734D01*
X-614Y132633D01*
X-657Y132534D01*
X-704Y132436D01*
X-755Y132340D01*
X-809Y132246D01*
X-866Y132154D01*
X-927Y132064D01*
X-991Y131976D01*
X-1057Y131891D01*
X-1127Y131808D01*
X-1200Y131728D01*
X-1276Y131650D01*
X-1354Y131575D01*
X-1435Y131503D01*
X-1519Y131434D01*
X-1605Y131368D01*
X-1693Y131305D01*
X-1784Y131246D01*
X-1876Y131189D01*
X-1971Y131136D01*
X-2068Y131087D01*
X-2166Y131041D01*
X-2265Y130998D01*
X-2367Y130959D01*
X-2469Y130924D01*
X-4559Y135361D02*
X-4490Y135430D01*
X-4419Y135496D01*
X-4346Y135560D01*
X-4270Y135621D01*
X-4191Y135679D01*
X-4111Y135733D01*
X-4028Y135785D01*
X-3944Y135833D01*
X-3858Y135879D01*
X-3770Y135920D01*
X-3680Y135959D01*
X-3589Y135994D01*
X-3497Y136025D01*
X-3404Y136053D01*
X-3310Y136077D01*
X-3215Y136097D01*
X-3119Y136114D01*
X-3022Y136127D01*
X-2925Y136136D01*
X-2828Y136142D01*
X-2731Y136144D01*
X-4558Y135361D02*
X-9779Y130923D01*
X-9779Y136144D01*
X-43117Y129042D02*
X-43117Y126953D01*
X-43116Y126953D02*
X-43114Y126864D01*
X-43108Y126776D01*
X-43099Y126688D01*
X-43086Y126600D01*
X-43069Y126513D01*
X-43049Y126427D01*
X-43024Y126342D01*
X-42997Y126257D01*
X-42965Y126174D01*
X-42931Y126093D01*
X-42892Y126013D01*
X-42851Y125935D01*
X-42806Y125858D01*
X-42758Y125784D01*
X-42707Y125711D01*
X-42653Y125641D01*
X-42595Y125574D01*
X-42535Y125508D01*
X-42473Y125446D01*
X-42407Y125386D01*
X-42340Y125328D01*
X-42270Y125274D01*
X-42197Y125223D01*
X-42123Y125175D01*
X-42046Y125130D01*
X-41968Y125089D01*
X-41888Y125050D01*
X-41807Y125016D01*
X-41724Y124984D01*
X-41639Y124957D01*
X-41554Y124932D01*
X-41468Y124912D01*
X-41381Y124895D01*
X-41293Y124882D01*
X-41205Y124873D01*
X-41117Y124867D01*
X-41028Y124865D01*
X-35807Y124865D01*
X-35807Y124864D02*
X-35716Y124866D01*
X-35625Y124872D01*
X-35534Y124882D01*
X-35444Y124896D01*
X-35355Y124914D01*
X-35266Y124935D01*
X-35179Y124961D01*
X-35093Y124990D01*
X-35008Y125023D01*
X-34924Y125060D01*
X-34842Y125100D01*
X-34763Y125144D01*
X-34685Y125191D01*
X-34609Y125242D01*
X-34535Y125296D01*
X-34464Y125353D01*
X-34396Y125413D01*
X-34330Y125476D01*
X-34267Y125542D01*
X-34207Y125610D01*
X-34150Y125681D01*
X-34096Y125755D01*
X-34045Y125831D01*
X-33998Y125908D01*
X-33954Y125988D01*
X-33914Y126070D01*
X-33877Y126154D01*
X-33844Y126238D01*
X-33815Y126325D01*
X-33789Y126412D01*
X-33768Y126501D01*
X-33750Y126590D01*
X-33736Y126680D01*
X-33726Y126771D01*
X-33720Y126862D01*
X-33718Y126953D01*
X-33719Y126953D02*
X-33719Y129042D01*
X-43117Y132510D02*
X-43117Y135643D01*
X-43116Y135643D02*
X-43114Y135732D01*
X-43108Y135820D01*
X-43099Y135908D01*
X-43086Y135996D01*
X-43069Y136083D01*
X-43049Y136169D01*
X-43024Y136254D01*
X-42997Y136339D01*
X-42965Y136422D01*
X-42931Y136503D01*
X-42892Y136583D01*
X-42851Y136661D01*
X-42806Y136738D01*
X-42758Y136812D01*
X-42707Y136885D01*
X-42653Y136955D01*
X-42595Y137022D01*
X-42535Y137088D01*
X-42473Y137150D01*
X-42407Y137210D01*
X-42340Y137268D01*
X-42270Y137322D01*
X-42197Y137373D01*
X-42123Y137421D01*
X-42046Y137466D01*
X-41968Y137507D01*
X-41888Y137546D01*
X-41807Y137580D01*
X-41724Y137612D01*
X-41639Y137639D01*
X-41554Y137664D01*
X-41468Y137684D01*
X-41381Y137701D01*
X-41293Y137714D01*
X-41205Y137723D01*
X-41117Y137729D01*
X-41028Y137731D01*
X-41028Y137732D02*
X-39984Y137732D01*
X-39984Y137731D02*
X-39895Y137729D01*
X-39807Y137723D01*
X-39719Y137714D01*
X-39631Y137701D01*
X-39544Y137684D01*
X-39458Y137664D01*
X-39373Y137639D01*
X-39288Y137612D01*
X-39205Y137580D01*
X-39124Y137546D01*
X-39044Y137507D01*
X-38966Y137466D01*
X-38889Y137421D01*
X-38815Y137373D01*
X-38742Y137322D01*
X-38672Y137268D01*
X-38605Y137210D01*
X-38539Y137150D01*
X-38477Y137088D01*
X-38417Y137022D01*
X-38359Y136955D01*
X-38305Y136885D01*
X-38254Y136812D01*
X-38206Y136738D01*
X-38161Y136661D01*
X-38120Y136583D01*
X-38081Y136503D01*
X-38047Y136422D01*
X-38015Y136339D01*
X-37988Y136254D01*
X-37963Y136169D01*
X-37943Y136083D01*
X-37926Y135996D01*
X-37913Y135908D01*
X-37904Y135820D01*
X-37898Y135732D01*
X-37896Y135643D01*
X-37895Y135643D02*
X-37895Y132510D01*
X-33719Y132510D01*
X-33719Y137732D01*
D12*
X-42215Y175730D02*
X-62344Y175730D01*
D11*
X-58992Y129042D02*
X-58992Y126953D01*
X-58991Y126953D02*
X-58989Y126864D01*
X-58983Y126776D01*
X-58974Y126688D01*
X-58961Y126600D01*
X-58944Y126513D01*
X-58924Y126427D01*
X-58899Y126342D01*
X-58872Y126257D01*
X-58840Y126174D01*
X-58806Y126093D01*
X-58767Y126013D01*
X-58726Y125935D01*
X-58681Y125858D01*
X-58633Y125784D01*
X-58582Y125711D01*
X-58528Y125641D01*
X-58470Y125574D01*
X-58410Y125508D01*
X-58348Y125446D01*
X-58282Y125386D01*
X-58215Y125328D01*
X-58145Y125274D01*
X-58072Y125223D01*
X-57998Y125175D01*
X-57921Y125130D01*
X-57843Y125089D01*
X-57763Y125050D01*
X-57682Y125016D01*
X-57599Y124984D01*
X-57514Y124957D01*
X-57429Y124932D01*
X-57343Y124912D01*
X-57256Y124895D01*
X-57168Y124882D01*
X-57080Y124873D01*
X-56992Y124867D01*
X-56903Y124865D01*
X-51682Y124865D01*
X-51682Y124864D02*
X-51591Y124866D01*
X-51500Y124872D01*
X-51409Y124882D01*
X-51319Y124896D01*
X-51230Y124914D01*
X-51141Y124935D01*
X-51054Y124961D01*
X-50968Y124990D01*
X-50883Y125023D01*
X-50799Y125060D01*
X-50717Y125100D01*
X-50638Y125144D01*
X-50560Y125191D01*
X-50484Y125242D01*
X-50410Y125296D01*
X-50339Y125353D01*
X-50271Y125413D01*
X-50205Y125476D01*
X-50142Y125542D01*
X-50082Y125610D01*
X-50025Y125681D01*
X-49971Y125755D01*
X-49920Y125831D01*
X-49873Y125908D01*
X-49829Y125988D01*
X-49789Y126070D01*
X-49752Y126154D01*
X-49719Y126238D01*
X-49690Y126325D01*
X-49664Y126412D01*
X-49643Y126501D01*
X-49625Y126590D01*
X-49611Y126680D01*
X-49601Y126771D01*
X-49595Y126862D01*
X-49593Y126953D01*
X-49594Y126953D02*
X-49594Y129042D01*
X-49594Y134599D02*
X-56903Y132510D01*
X-56903Y137732D01*
X-54815Y136165D02*
X-58992Y136165D01*
X-194056Y167069D02*
X-194056Y176467D01*
X-198233Y176467D01*
X-198233Y172290D02*
X-194056Y172290D01*
X-202095Y172290D02*
X-204705Y172290D01*
X-204806Y172288D01*
X-204907Y172282D01*
X-205008Y172272D01*
X-205108Y172259D01*
X-205208Y172241D01*
X-205307Y172220D01*
X-205405Y172194D01*
X-205502Y172165D01*
X-205598Y172133D01*
X-205692Y172096D01*
X-205785Y172056D01*
X-205877Y172012D01*
X-205966Y171965D01*
X-206054Y171914D01*
X-206140Y171860D01*
X-206223Y171803D01*
X-206305Y171743D01*
X-206383Y171679D01*
X-206460Y171613D01*
X-206533Y171543D01*
X-206604Y171471D01*
X-206672Y171396D01*
X-206737Y171318D01*
X-206799Y171238D01*
X-206858Y171156D01*
X-206914Y171071D01*
X-206966Y170985D01*
X-207015Y170896D01*
X-207061Y170805D01*
X-207102Y170713D01*
X-207141Y170619D01*
X-207175Y170524D01*
X-207206Y170428D01*
X-207233Y170330D01*
X-207257Y170232D01*
X-207276Y170132D01*
X-207292Y170032D01*
X-207304Y169932D01*
X-207312Y169831D01*
X-207316Y169730D01*
X-207316Y169628D01*
X-207312Y169527D01*
X-207304Y169426D01*
X-207292Y169326D01*
X-207276Y169226D01*
X-207257Y169126D01*
X-207233Y169028D01*
X-207206Y168930D01*
X-207175Y168834D01*
X-207141Y168739D01*
X-207102Y168645D01*
X-207061Y168553D01*
X-207015Y168462D01*
X-206966Y168374D01*
X-206914Y168287D01*
X-206858Y168202D01*
X-206799Y168120D01*
X-206737Y168040D01*
X-206672Y167962D01*
X-206604Y167887D01*
X-206533Y167815D01*
X-206460Y167745D01*
X-206383Y167679D01*
X-206305Y167615D01*
X-206223Y167555D01*
X-206140Y167498D01*
X-206054Y167444D01*
X-205966Y167393D01*
X-205877Y167346D01*
X-205785Y167302D01*
X-205692Y167262D01*
X-205598Y167225D01*
X-205502Y167193D01*
X-205405Y167164D01*
X-205307Y167138D01*
X-205208Y167117D01*
X-205108Y167099D01*
X-205008Y167086D01*
X-204907Y167076D01*
X-204806Y167070D01*
X-204705Y167068D01*
X-204705Y167069D02*
X-202095Y167069D01*
X-202095Y176467D01*
X-204705Y176467D01*
X-204705Y176466D02*
X-204795Y176464D01*
X-204884Y176458D01*
X-204974Y176449D01*
X-205063Y176435D01*
X-205151Y176418D01*
X-205238Y176397D01*
X-205325Y176372D01*
X-205410Y176343D01*
X-205494Y176311D01*
X-205576Y176276D01*
X-205657Y176236D01*
X-205736Y176194D01*
X-205813Y176148D01*
X-205888Y176098D01*
X-205961Y176046D01*
X-206032Y175990D01*
X-206100Y175932D01*
X-206165Y175870D01*
X-206228Y175806D01*
X-206288Y175739D01*
X-206345Y175670D01*
X-206399Y175598D01*
X-206450Y175524D01*
X-206498Y175448D01*
X-206542Y175370D01*
X-206583Y175290D01*
X-206621Y175208D01*
X-206655Y175125D01*
X-206685Y175040D01*
X-206712Y174954D01*
X-206735Y174868D01*
X-206754Y174780D01*
X-206769Y174691D01*
X-206781Y174602D01*
X-206789Y174513D01*
X-206793Y174423D01*
X-206793Y174333D01*
X-206789Y174243D01*
X-206781Y174154D01*
X-206769Y174065D01*
X-206754Y173976D01*
X-206735Y173888D01*
X-206712Y173802D01*
X-206685Y173716D01*
X-206655Y173631D01*
X-206621Y173548D01*
X-206583Y173466D01*
X-206542Y173386D01*
X-206498Y173308D01*
X-206450Y173232D01*
X-206399Y173158D01*
X-206345Y173086D01*
X-206288Y173017D01*
X-206228Y172950D01*
X-206165Y172886D01*
X-206100Y172824D01*
X-206032Y172766D01*
X-205961Y172710D01*
X-205888Y172658D01*
X-205813Y172608D01*
X-205736Y172562D01*
X-205657Y172520D01*
X-205576Y172480D01*
X-205494Y172445D01*
X-205410Y172413D01*
X-205325Y172384D01*
X-205238Y172359D01*
X-205151Y172338D01*
X-205063Y172321D01*
X-204974Y172307D01*
X-204884Y172298D01*
X-204795Y172292D01*
X-204705Y172290D01*
X-210802Y174378D02*
X-213413Y176467D01*
X-213413Y167069D01*
X-210802Y167069D02*
X-216024Y167069D01*
X-80582Y125794D02*
X-71184Y125794D01*
X-71184Y128404D01*
X-71183Y128404D02*
X-71185Y128505D01*
X-71191Y128606D01*
X-71201Y128707D01*
X-71214Y128807D01*
X-71232Y128907D01*
X-71253Y129006D01*
X-71279Y129104D01*
X-71308Y129201D01*
X-71340Y129297D01*
X-71377Y129391D01*
X-71417Y129484D01*
X-71461Y129576D01*
X-71508Y129665D01*
X-71559Y129753D01*
X-71613Y129839D01*
X-71670Y129922D01*
X-71730Y130004D01*
X-71794Y130082D01*
X-71860Y130159D01*
X-71930Y130232D01*
X-72002Y130303D01*
X-72077Y130371D01*
X-72155Y130436D01*
X-72235Y130498D01*
X-72317Y130557D01*
X-72402Y130613D01*
X-72489Y130665D01*
X-72577Y130714D01*
X-72668Y130760D01*
X-72760Y130801D01*
X-72854Y130840D01*
X-72949Y130874D01*
X-73045Y130905D01*
X-73143Y130932D01*
X-73241Y130956D01*
X-73341Y130975D01*
X-73441Y130991D01*
X-73541Y131003D01*
X-73642Y131011D01*
X-73743Y131015D01*
X-73845Y131015D01*
X-73946Y131011D01*
X-74047Y131003D01*
X-74147Y130991D01*
X-74247Y130975D01*
X-74347Y130956D01*
X-74445Y130932D01*
X-74543Y130905D01*
X-74639Y130874D01*
X-74734Y130840D01*
X-74828Y130801D01*
X-74920Y130760D01*
X-75011Y130714D01*
X-75100Y130665D01*
X-75186Y130613D01*
X-75271Y130557D01*
X-75353Y130498D01*
X-75433Y130436D01*
X-75511Y130371D01*
X-75586Y130303D01*
X-75658Y130232D01*
X-75728Y130159D01*
X-75794Y130082D01*
X-75858Y130004D01*
X-75918Y129922D01*
X-75975Y129839D01*
X-76029Y129753D01*
X-76080Y129665D01*
X-76127Y129576D01*
X-76171Y129484D01*
X-76211Y129391D01*
X-76248Y129297D01*
X-76280Y129201D01*
X-76309Y129104D01*
X-76335Y129006D01*
X-76356Y128907D01*
X-76374Y128807D01*
X-76387Y128707D01*
X-76397Y128606D01*
X-76403Y128505D01*
X-76405Y128404D01*
X-76405Y125794D01*
X-76405Y128926D02*
X-80582Y131015D01*
X-73533Y140102D02*
X-73438Y140100D01*
X-73344Y140094D01*
X-73250Y140085D01*
X-73156Y140072D01*
X-73063Y140055D01*
X-72971Y140034D01*
X-72879Y140009D01*
X-72789Y139981D01*
X-72700Y139949D01*
X-72612Y139914D01*
X-72526Y139875D01*
X-72441Y139833D01*
X-72358Y139787D01*
X-72277Y139738D01*
X-72198Y139686D01*
X-72121Y139631D01*
X-72047Y139572D01*
X-71975Y139511D01*
X-71905Y139447D01*
X-71838Y139380D01*
X-71774Y139310D01*
X-71713Y139238D01*
X-71654Y139164D01*
X-71599Y139087D01*
X-71547Y139008D01*
X-71498Y138927D01*
X-71452Y138844D01*
X-71410Y138759D01*
X-71371Y138673D01*
X-71336Y138585D01*
X-71304Y138496D01*
X-71276Y138406D01*
X-71251Y138314D01*
X-71230Y138222D01*
X-71213Y138129D01*
X-71200Y138035D01*
X-71191Y137941D01*
X-71185Y137847D01*
X-71183Y137752D01*
X-71184Y137752D02*
X-71186Y137644D01*
X-71192Y137535D01*
X-71202Y137427D01*
X-71215Y137320D01*
X-71233Y137213D01*
X-71254Y137106D01*
X-71279Y137001D01*
X-71308Y136896D01*
X-71340Y136793D01*
X-71377Y136691D01*
X-71417Y136590D01*
X-71460Y136491D01*
X-71507Y136393D01*
X-71558Y136297D01*
X-71612Y136203D01*
X-71669Y136111D01*
X-71730Y136021D01*
X-71794Y135933D01*
X-71860Y135848D01*
X-71930Y135765D01*
X-72003Y135685D01*
X-72079Y135607D01*
X-72157Y135532D01*
X-72238Y135460D01*
X-72322Y135391D01*
X-72408Y135325D01*
X-72496Y135262D01*
X-72587Y135203D01*
X-72679Y135146D01*
X-72774Y135093D01*
X-72871Y135044D01*
X-72969Y134998D01*
X-73068Y134955D01*
X-73170Y134916D01*
X-73272Y134881D01*
X-75361Y139319D02*
X-75292Y139388D01*
X-75221Y139454D01*
X-75148Y139518D01*
X-75072Y139579D01*
X-74993Y139637D01*
X-74913Y139691D01*
X-74830Y139743D01*
X-74746Y139791D01*
X-74660Y139837D01*
X-74572Y139878D01*
X-74482Y139917D01*
X-74391Y139952D01*
X-74299Y139983D01*
X-74206Y140011D01*
X-74112Y140035D01*
X-74017Y140055D01*
X-73921Y140072D01*
X-73824Y140085D01*
X-73727Y140094D01*
X-73630Y140100D01*
X-73533Y140102D01*
X-75360Y139318D02*
X-80582Y134880D01*
X-80582Y140102D01*
X-195644Y149606D02*
X-195644Y159004D01*
X-198254Y159004D01*
X-198355Y159002D01*
X-198456Y158996D01*
X-198557Y158986D01*
X-198657Y158973D01*
X-198757Y158955D01*
X-198856Y158934D01*
X-198954Y158908D01*
X-199051Y158879D01*
X-199147Y158847D01*
X-199241Y158810D01*
X-199334Y158770D01*
X-199426Y158726D01*
X-199515Y158679D01*
X-199603Y158628D01*
X-199689Y158574D01*
X-199772Y158517D01*
X-199854Y158457D01*
X-199932Y158393D01*
X-200009Y158327D01*
X-200082Y158257D01*
X-200153Y158185D01*
X-200221Y158110D01*
X-200286Y158032D01*
X-200348Y157952D01*
X-200407Y157870D01*
X-200463Y157785D01*
X-200515Y157699D01*
X-200564Y157610D01*
X-200610Y157519D01*
X-200651Y157427D01*
X-200690Y157333D01*
X-200724Y157238D01*
X-200755Y157142D01*
X-200782Y157044D01*
X-200806Y156946D01*
X-200825Y156846D01*
X-200841Y156746D01*
X-200853Y156646D01*
X-200861Y156545D01*
X-200865Y156444D01*
X-200865Y156342D01*
X-200861Y156241D01*
X-200853Y156140D01*
X-200841Y156040D01*
X-200825Y155940D01*
X-200806Y155840D01*
X-200782Y155742D01*
X-200755Y155644D01*
X-200724Y155548D01*
X-200690Y155453D01*
X-200651Y155359D01*
X-200610Y155267D01*
X-200564Y155176D01*
X-200515Y155088D01*
X-200463Y155001D01*
X-200407Y154916D01*
X-200348Y154834D01*
X-200286Y154754D01*
X-200221Y154676D01*
X-200153Y154601D01*
X-200082Y154529D01*
X-200009Y154459D01*
X-199932Y154393D01*
X-199854Y154329D01*
X-199772Y154269D01*
X-199689Y154212D01*
X-199603Y154158D01*
X-199515Y154107D01*
X-199426Y154060D01*
X-199334Y154016D01*
X-199241Y153976D01*
X-199147Y153939D01*
X-199051Y153907D01*
X-198954Y153878D01*
X-198856Y153852D01*
X-198757Y153831D01*
X-198657Y153813D01*
X-198557Y153800D01*
X-198456Y153790D01*
X-198355Y153784D01*
X-198254Y153782D01*
X-198254Y153783D02*
X-195644Y153783D01*
X-198776Y153783D02*
X-200865Y149606D01*
X-204730Y156916D02*
X-207341Y159004D01*
X-207341Y149606D01*
X-204730Y149606D02*
X-209952Y149606D01*
X58484Y125011D02*
X67882Y125011D01*
X67882Y127622D01*
X67880Y127723D01*
X67874Y127824D01*
X67864Y127925D01*
X67851Y128025D01*
X67833Y128125D01*
X67812Y128224D01*
X67786Y128322D01*
X67757Y128419D01*
X67725Y128515D01*
X67688Y128609D01*
X67648Y128702D01*
X67604Y128794D01*
X67557Y128883D01*
X67506Y128971D01*
X67452Y129057D01*
X67395Y129140D01*
X67335Y129222D01*
X67271Y129300D01*
X67205Y129377D01*
X67135Y129450D01*
X67063Y129521D01*
X66988Y129589D01*
X66910Y129654D01*
X66830Y129716D01*
X66748Y129775D01*
X66663Y129831D01*
X66577Y129883D01*
X66488Y129932D01*
X66397Y129978D01*
X66305Y130019D01*
X66211Y130058D01*
X66116Y130092D01*
X66020Y130123D01*
X65922Y130150D01*
X65824Y130174D01*
X65724Y130193D01*
X65624Y130209D01*
X65524Y130221D01*
X65423Y130229D01*
X65322Y130233D01*
X65220Y130233D01*
X65119Y130229D01*
X65018Y130221D01*
X64918Y130209D01*
X64818Y130193D01*
X64718Y130174D01*
X64620Y130150D01*
X64522Y130123D01*
X64426Y130092D01*
X64331Y130058D01*
X64237Y130019D01*
X64145Y129978D01*
X64054Y129932D01*
X63966Y129883D01*
X63879Y129831D01*
X63794Y129775D01*
X63712Y129716D01*
X63632Y129654D01*
X63554Y129589D01*
X63479Y129521D01*
X63407Y129450D01*
X63337Y129377D01*
X63271Y129300D01*
X63207Y129222D01*
X63147Y129140D01*
X63090Y129057D01*
X63036Y128971D01*
X62985Y128883D01*
X62938Y128794D01*
X62894Y128702D01*
X62854Y128609D01*
X62817Y128515D01*
X62785Y128419D01*
X62756Y128322D01*
X62730Y128224D01*
X62709Y128125D01*
X62691Y128025D01*
X62678Y127925D01*
X62668Y127824D01*
X62662Y127723D01*
X62660Y127622D01*
X62660Y125011D01*
X62660Y128144D02*
X58484Y130232D01*
X58484Y134098D02*
X58484Y136708D01*
X58483Y136708D02*
X58485Y136809D01*
X58491Y136910D01*
X58501Y137011D01*
X58514Y137111D01*
X58532Y137211D01*
X58553Y137310D01*
X58579Y137408D01*
X58608Y137505D01*
X58640Y137601D01*
X58677Y137695D01*
X58717Y137788D01*
X58761Y137880D01*
X58808Y137969D01*
X58859Y138057D01*
X58913Y138143D01*
X58970Y138226D01*
X59030Y138308D01*
X59094Y138386D01*
X59160Y138463D01*
X59230Y138536D01*
X59302Y138607D01*
X59377Y138675D01*
X59455Y138740D01*
X59535Y138802D01*
X59617Y138861D01*
X59702Y138917D01*
X59789Y138969D01*
X59877Y139018D01*
X59968Y139064D01*
X60060Y139105D01*
X60154Y139144D01*
X60249Y139178D01*
X60345Y139209D01*
X60443Y139236D01*
X60541Y139260D01*
X60641Y139279D01*
X60741Y139295D01*
X60841Y139307D01*
X60942Y139315D01*
X61043Y139319D01*
X61145Y139319D01*
X61246Y139315D01*
X61347Y139307D01*
X61447Y139295D01*
X61547Y139279D01*
X61647Y139260D01*
X61745Y139236D01*
X61843Y139209D01*
X61939Y139178D01*
X62034Y139144D01*
X62128Y139105D01*
X62220Y139064D01*
X62311Y139018D01*
X62400Y138969D01*
X62486Y138917D01*
X62571Y138861D01*
X62653Y138802D01*
X62733Y138740D01*
X62811Y138675D01*
X62886Y138607D01*
X62958Y138536D01*
X63028Y138463D01*
X63094Y138386D01*
X63158Y138308D01*
X63218Y138226D01*
X63275Y138143D01*
X63329Y138057D01*
X63380Y137969D01*
X63427Y137880D01*
X63471Y137788D01*
X63511Y137695D01*
X63548Y137601D01*
X63580Y137505D01*
X63609Y137408D01*
X63635Y137310D01*
X63656Y137211D01*
X63674Y137111D01*
X63687Y137011D01*
X63697Y136910D01*
X63703Y136809D01*
X63705Y136708D01*
X67882Y137231D02*
X67882Y134098D01*
X67881Y137231D02*
X67879Y137321D01*
X67873Y137410D01*
X67864Y137500D01*
X67850Y137589D01*
X67833Y137677D01*
X67812Y137764D01*
X67787Y137851D01*
X67758Y137936D01*
X67726Y138020D01*
X67691Y138102D01*
X67651Y138183D01*
X67609Y138262D01*
X67563Y138339D01*
X67513Y138414D01*
X67461Y138487D01*
X67405Y138558D01*
X67347Y138626D01*
X67285Y138691D01*
X67221Y138754D01*
X67154Y138814D01*
X67085Y138871D01*
X67013Y138925D01*
X66939Y138976D01*
X66863Y139024D01*
X66785Y139068D01*
X66705Y139109D01*
X66623Y139147D01*
X66540Y139181D01*
X66455Y139211D01*
X66369Y139238D01*
X66283Y139261D01*
X66195Y139280D01*
X66106Y139295D01*
X66017Y139307D01*
X65928Y139315D01*
X65838Y139319D01*
X65748Y139319D01*
X65658Y139315D01*
X65569Y139307D01*
X65480Y139295D01*
X65391Y139280D01*
X65303Y139261D01*
X65217Y139238D01*
X65131Y139211D01*
X65046Y139181D01*
X64963Y139147D01*
X64881Y139109D01*
X64801Y139068D01*
X64723Y139024D01*
X64647Y138976D01*
X64573Y138925D01*
X64501Y138871D01*
X64432Y138814D01*
X64365Y138754D01*
X64301Y138691D01*
X64239Y138626D01*
X64181Y138558D01*
X64125Y138487D01*
X64073Y138414D01*
X64023Y138339D01*
X63977Y138262D01*
X63935Y138183D01*
X63895Y138102D01*
X63860Y138020D01*
X63828Y137936D01*
X63799Y137851D01*
X63774Y137764D01*
X63753Y137677D01*
X63736Y137589D01*
X63722Y137500D01*
X63713Y137410D01*
X63707Y137321D01*
X63705Y137231D01*
X63705Y135142D01*
X-108832Y100394D02*
X-110920Y100394D01*
X-108832Y100394D02*
X-108743Y100396D01*
X-108655Y100402D01*
X-108567Y100411D01*
X-108479Y100424D01*
X-108392Y100441D01*
X-108306Y100461D01*
X-108221Y100486D01*
X-108136Y100513D01*
X-108053Y100545D01*
X-107972Y100579D01*
X-107892Y100618D01*
X-107814Y100659D01*
X-107737Y100704D01*
X-107663Y100752D01*
X-107590Y100803D01*
X-107520Y100857D01*
X-107453Y100915D01*
X-107387Y100975D01*
X-107325Y101037D01*
X-107265Y101103D01*
X-107207Y101170D01*
X-107153Y101240D01*
X-107102Y101313D01*
X-107054Y101387D01*
X-107009Y101464D01*
X-106968Y101542D01*
X-106929Y101622D01*
X-106895Y101703D01*
X-106863Y101786D01*
X-106836Y101871D01*
X-106811Y101956D01*
X-106791Y102042D01*
X-106774Y102129D01*
X-106761Y102217D01*
X-106752Y102305D01*
X-106746Y102393D01*
X-106744Y102482D01*
X-106744Y107703D01*
X-106746Y107794D01*
X-106752Y107885D01*
X-106762Y107976D01*
X-106776Y108066D01*
X-106793Y108155D01*
X-106815Y108243D01*
X-106841Y108331D01*
X-106870Y108417D01*
X-106903Y108502D01*
X-106940Y108585D01*
X-106980Y108667D01*
X-107024Y108747D01*
X-107071Y108825D01*
X-107122Y108901D01*
X-107175Y108974D01*
X-107232Y109045D01*
X-107293Y109114D01*
X-107356Y109179D01*
X-107421Y109242D01*
X-107490Y109302D01*
X-107561Y109360D01*
X-107634Y109413D01*
X-107710Y109464D01*
X-107788Y109511D01*
X-107868Y109555D01*
X-107950Y109595D01*
X-108033Y109632D01*
X-108118Y109665D01*
X-108204Y109694D01*
X-108292Y109720D01*
X-108380Y109742D01*
X-108469Y109759D01*
X-108559Y109773D01*
X-108650Y109783D01*
X-108741Y109789D01*
X-108832Y109791D01*
X-108832Y109792D02*
X-110920Y109792D01*
X-114389Y103004D02*
X-114391Y103105D01*
X-114397Y103206D01*
X-114407Y103307D01*
X-114420Y103407D01*
X-114438Y103507D01*
X-114459Y103606D01*
X-114485Y103704D01*
X-114514Y103801D01*
X-114546Y103897D01*
X-114583Y103991D01*
X-114623Y104084D01*
X-114667Y104176D01*
X-114714Y104265D01*
X-114765Y104353D01*
X-114819Y104439D01*
X-114876Y104522D01*
X-114936Y104604D01*
X-115000Y104682D01*
X-115066Y104759D01*
X-115136Y104832D01*
X-115208Y104903D01*
X-115283Y104971D01*
X-115361Y105036D01*
X-115441Y105098D01*
X-115523Y105157D01*
X-115608Y105213D01*
X-115695Y105265D01*
X-115783Y105314D01*
X-115874Y105360D01*
X-115966Y105401D01*
X-116060Y105440D01*
X-116155Y105474D01*
X-116251Y105505D01*
X-116349Y105532D01*
X-116447Y105556D01*
X-116547Y105575D01*
X-116647Y105591D01*
X-116747Y105603D01*
X-116848Y105611D01*
X-116949Y105615D01*
X-117051Y105615D01*
X-117152Y105611D01*
X-117253Y105603D01*
X-117353Y105591D01*
X-117453Y105575D01*
X-117553Y105556D01*
X-117651Y105532D01*
X-117749Y105505D01*
X-117845Y105474D01*
X-117940Y105440D01*
X-118034Y105401D01*
X-118126Y105360D01*
X-118217Y105314D01*
X-118306Y105265D01*
X-118392Y105213D01*
X-118477Y105157D01*
X-118559Y105098D01*
X-118639Y105036D01*
X-118717Y104971D01*
X-118792Y104903D01*
X-118864Y104832D01*
X-118934Y104759D01*
X-119000Y104682D01*
X-119064Y104604D01*
X-119124Y104522D01*
X-119181Y104439D01*
X-119235Y104353D01*
X-119286Y104265D01*
X-119333Y104176D01*
X-119377Y104084D01*
X-119417Y103991D01*
X-119454Y103897D01*
X-119486Y103801D01*
X-119515Y103704D01*
X-119541Y103606D01*
X-119562Y103507D01*
X-119580Y103407D01*
X-119593Y103307D01*
X-119603Y103206D01*
X-119609Y103105D01*
X-119611Y103004D01*
X-119609Y102903D01*
X-119603Y102802D01*
X-119593Y102701D01*
X-119580Y102601D01*
X-119562Y102501D01*
X-119541Y102402D01*
X-119515Y102304D01*
X-119486Y102207D01*
X-119454Y102111D01*
X-119417Y102017D01*
X-119377Y101924D01*
X-119333Y101832D01*
X-119286Y101743D01*
X-119235Y101655D01*
X-119181Y101569D01*
X-119124Y101486D01*
X-119064Y101404D01*
X-119000Y101326D01*
X-118934Y101249D01*
X-118864Y101176D01*
X-118792Y101105D01*
X-118717Y101037D01*
X-118639Y100972D01*
X-118559Y100910D01*
X-118477Y100851D01*
X-118392Y100795D01*
X-118306Y100743D01*
X-118217Y100694D01*
X-118126Y100648D01*
X-118034Y100607D01*
X-117940Y100568D01*
X-117845Y100534D01*
X-117749Y100503D01*
X-117651Y100476D01*
X-117553Y100452D01*
X-117453Y100433D01*
X-117353Y100417D01*
X-117253Y100405D01*
X-117152Y100397D01*
X-117051Y100393D01*
X-116949Y100393D01*
X-116848Y100397D01*
X-116747Y100405D01*
X-116647Y100417D01*
X-116547Y100433D01*
X-116447Y100452D01*
X-116349Y100476D01*
X-116251Y100503D01*
X-116155Y100534D01*
X-116060Y100568D01*
X-115966Y100607D01*
X-115874Y100648D01*
X-115783Y100694D01*
X-115695Y100743D01*
X-115608Y100795D01*
X-115523Y100851D01*
X-115441Y100910D01*
X-115361Y100972D01*
X-115283Y101037D01*
X-115208Y101105D01*
X-115136Y101176D01*
X-115066Y101249D01*
X-115000Y101326D01*
X-114936Y101404D01*
X-114876Y101486D01*
X-114819Y101569D01*
X-114765Y101655D01*
X-114714Y101743D01*
X-114667Y101832D01*
X-114623Y101924D01*
X-114583Y102017D01*
X-114546Y102111D01*
X-114514Y102207D01*
X-114485Y102304D01*
X-114459Y102402D01*
X-114438Y102501D01*
X-114420Y102601D01*
X-114407Y102701D01*
X-114397Y102802D01*
X-114391Y102903D01*
X-114389Y103004D01*
X-114912Y107703D02*
X-114914Y107793D01*
X-114920Y107882D01*
X-114929Y107972D01*
X-114943Y108061D01*
X-114960Y108149D01*
X-114981Y108236D01*
X-115006Y108323D01*
X-115035Y108408D01*
X-115067Y108492D01*
X-115102Y108574D01*
X-115142Y108655D01*
X-115184Y108734D01*
X-115230Y108811D01*
X-115280Y108886D01*
X-115332Y108959D01*
X-115388Y109030D01*
X-115446Y109098D01*
X-115508Y109163D01*
X-115572Y109226D01*
X-115639Y109286D01*
X-115708Y109343D01*
X-115780Y109397D01*
X-115854Y109448D01*
X-115930Y109496D01*
X-116008Y109540D01*
X-116088Y109581D01*
X-116170Y109619D01*
X-116253Y109653D01*
X-116338Y109683D01*
X-116424Y109710D01*
X-116510Y109733D01*
X-116598Y109752D01*
X-116687Y109767D01*
X-116776Y109779D01*
X-116865Y109787D01*
X-116955Y109791D01*
X-117045Y109791D01*
X-117135Y109787D01*
X-117224Y109779D01*
X-117313Y109767D01*
X-117402Y109752D01*
X-117490Y109733D01*
X-117576Y109710D01*
X-117662Y109683D01*
X-117747Y109653D01*
X-117830Y109619D01*
X-117912Y109581D01*
X-117992Y109540D01*
X-118070Y109496D01*
X-118146Y109448D01*
X-118220Y109397D01*
X-118292Y109343D01*
X-118361Y109286D01*
X-118428Y109226D01*
X-118492Y109163D01*
X-118554Y109098D01*
X-118612Y109030D01*
X-118668Y108959D01*
X-118720Y108886D01*
X-118770Y108811D01*
X-118816Y108734D01*
X-118858Y108655D01*
X-118898Y108574D01*
X-118933Y108492D01*
X-118965Y108408D01*
X-118994Y108323D01*
X-119019Y108236D01*
X-119040Y108149D01*
X-119057Y108061D01*
X-119071Y107972D01*
X-119080Y107882D01*
X-119086Y107793D01*
X-119088Y107703D01*
X-119086Y107613D01*
X-119080Y107524D01*
X-119071Y107434D01*
X-119057Y107345D01*
X-119040Y107257D01*
X-119019Y107170D01*
X-118994Y107083D01*
X-118965Y106998D01*
X-118933Y106914D01*
X-118898Y106832D01*
X-118858Y106751D01*
X-118816Y106672D01*
X-118770Y106595D01*
X-118720Y106520D01*
X-118668Y106447D01*
X-118612Y106376D01*
X-118554Y106308D01*
X-118492Y106243D01*
X-118428Y106180D01*
X-118361Y106120D01*
X-118292Y106063D01*
X-118220Y106009D01*
X-118146Y105958D01*
X-118070Y105910D01*
X-117992Y105866D01*
X-117912Y105825D01*
X-117830Y105787D01*
X-117747Y105753D01*
X-117662Y105723D01*
X-117576Y105696D01*
X-117490Y105673D01*
X-117402Y105654D01*
X-117313Y105639D01*
X-117224Y105627D01*
X-117135Y105619D01*
X-117045Y105615D01*
X-116955Y105615D01*
X-116865Y105619D01*
X-116776Y105627D01*
X-116687Y105639D01*
X-116598Y105654D01*
X-116510Y105673D01*
X-116424Y105696D01*
X-116338Y105723D01*
X-116253Y105753D01*
X-116170Y105787D01*
X-116088Y105825D01*
X-116008Y105866D01*
X-115930Y105910D01*
X-115854Y105958D01*
X-115780Y106009D01*
X-115708Y106063D01*
X-115639Y106120D01*
X-115572Y106180D01*
X-115508Y106243D01*
X-115446Y106308D01*
X-115388Y106376D01*
X-115332Y106447D01*
X-115280Y106520D01*
X-115230Y106595D01*
X-115184Y106672D01*
X-115142Y106751D01*
X-115102Y106832D01*
X-115067Y106914D01*
X-115035Y106998D01*
X-115006Y107083D01*
X-114981Y107170D01*
X-114960Y107257D01*
X-114943Y107345D01*
X-114929Y107434D01*
X-114920Y107524D01*
X-114914Y107613D01*
X-114912Y107703D01*
D12*
X-119545Y134290D02*
X-119545Y154419D01*
D11*
X-104570Y140081D02*
X-102482Y140081D01*
X-102393Y140083D01*
X-102305Y140089D01*
X-102217Y140098D01*
X-102129Y140111D01*
X-102042Y140128D01*
X-101956Y140148D01*
X-101871Y140173D01*
X-101786Y140200D01*
X-101703Y140232D01*
X-101622Y140266D01*
X-101542Y140305D01*
X-101464Y140346D01*
X-101387Y140391D01*
X-101313Y140439D01*
X-101240Y140490D01*
X-101170Y140544D01*
X-101103Y140602D01*
X-101037Y140662D01*
X-100975Y140724D01*
X-100915Y140790D01*
X-100857Y140857D01*
X-100803Y140927D01*
X-100752Y141000D01*
X-100704Y141074D01*
X-100659Y141151D01*
X-100618Y141229D01*
X-100579Y141309D01*
X-100545Y141390D01*
X-100513Y141473D01*
X-100486Y141558D01*
X-100461Y141643D01*
X-100441Y141729D01*
X-100424Y141816D01*
X-100411Y141904D01*
X-100402Y141992D01*
X-100396Y142080D01*
X-100394Y142169D01*
X-100394Y147391D01*
X-100396Y147482D01*
X-100402Y147573D01*
X-100412Y147664D01*
X-100426Y147754D01*
X-100443Y147843D01*
X-100465Y147931D01*
X-100491Y148019D01*
X-100520Y148105D01*
X-100553Y148190D01*
X-100590Y148273D01*
X-100630Y148355D01*
X-100674Y148435D01*
X-100721Y148513D01*
X-100772Y148589D01*
X-100825Y148662D01*
X-100882Y148733D01*
X-100943Y148802D01*
X-101006Y148867D01*
X-101071Y148930D01*
X-101140Y148990D01*
X-101211Y149048D01*
X-101284Y149101D01*
X-101360Y149152D01*
X-101438Y149199D01*
X-101518Y149243D01*
X-101600Y149283D01*
X-101683Y149320D01*
X-101768Y149353D01*
X-101854Y149382D01*
X-101942Y149408D01*
X-102030Y149430D01*
X-102119Y149447D01*
X-102209Y149461D01*
X-102300Y149471D01*
X-102391Y149477D01*
X-102482Y149479D01*
X-104570Y149479D01*
X-110128Y144258D02*
X-113260Y144258D01*
X-110128Y144258D02*
X-110039Y144260D01*
X-109951Y144266D01*
X-109863Y144275D01*
X-109775Y144288D01*
X-109688Y144305D01*
X-109602Y144325D01*
X-109517Y144350D01*
X-109432Y144377D01*
X-109349Y144409D01*
X-109268Y144443D01*
X-109188Y144482D01*
X-109110Y144523D01*
X-109033Y144568D01*
X-108959Y144616D01*
X-108886Y144667D01*
X-108816Y144721D01*
X-108749Y144779D01*
X-108683Y144839D01*
X-108621Y144901D01*
X-108561Y144967D01*
X-108503Y145034D01*
X-108449Y145104D01*
X-108398Y145177D01*
X-108350Y145251D01*
X-108305Y145328D01*
X-108264Y145406D01*
X-108225Y145486D01*
X-108191Y145567D01*
X-108159Y145650D01*
X-108132Y145735D01*
X-108107Y145820D01*
X-108087Y145906D01*
X-108070Y145993D01*
X-108057Y146081D01*
X-108048Y146169D01*
X-108042Y146257D01*
X-108040Y146346D01*
X-108039Y146346D02*
X-108039Y146868D01*
X-108041Y146969D01*
X-108047Y147070D01*
X-108057Y147171D01*
X-108070Y147271D01*
X-108088Y147371D01*
X-108109Y147470D01*
X-108135Y147568D01*
X-108164Y147665D01*
X-108196Y147761D01*
X-108233Y147855D01*
X-108273Y147948D01*
X-108317Y148040D01*
X-108364Y148129D01*
X-108415Y148217D01*
X-108469Y148303D01*
X-108526Y148386D01*
X-108586Y148468D01*
X-108650Y148546D01*
X-108716Y148623D01*
X-108786Y148696D01*
X-108858Y148767D01*
X-108933Y148835D01*
X-109011Y148900D01*
X-109091Y148962D01*
X-109173Y149021D01*
X-109258Y149077D01*
X-109345Y149129D01*
X-109433Y149178D01*
X-109524Y149224D01*
X-109616Y149265D01*
X-109710Y149304D01*
X-109805Y149338D01*
X-109901Y149369D01*
X-109999Y149396D01*
X-110097Y149420D01*
X-110197Y149439D01*
X-110297Y149455D01*
X-110397Y149467D01*
X-110498Y149475D01*
X-110599Y149479D01*
X-110701Y149479D01*
X-110802Y149475D01*
X-110903Y149467D01*
X-111003Y149455D01*
X-111103Y149439D01*
X-111203Y149420D01*
X-111301Y149396D01*
X-111399Y149369D01*
X-111495Y149338D01*
X-111590Y149304D01*
X-111684Y149265D01*
X-111776Y149224D01*
X-111867Y149178D01*
X-111956Y149129D01*
X-112042Y149077D01*
X-112127Y149021D01*
X-112209Y148962D01*
X-112289Y148900D01*
X-112367Y148835D01*
X-112442Y148767D01*
X-112514Y148696D01*
X-112584Y148623D01*
X-112650Y148546D01*
X-112714Y148468D01*
X-112774Y148386D01*
X-112831Y148303D01*
X-112885Y148217D01*
X-112936Y148129D01*
X-112983Y148040D01*
X-113027Y147948D01*
X-113067Y147855D01*
X-113104Y147761D01*
X-113136Y147665D01*
X-113165Y147568D01*
X-113191Y147470D01*
X-113212Y147371D01*
X-113230Y147271D01*
X-113243Y147171D01*
X-113253Y147070D01*
X-113259Y146969D01*
X-113261Y146868D01*
X-113260Y146868D02*
X-113260Y144258D01*
X-113258Y144132D01*
X-113252Y144006D01*
X-113243Y143880D01*
X-113230Y143755D01*
X-113212Y143630D01*
X-113192Y143505D01*
X-113167Y143381D01*
X-113139Y143258D01*
X-113107Y143136D01*
X-113071Y143015D01*
X-113032Y142895D01*
X-112989Y142777D01*
X-112942Y142660D01*
X-112892Y142544D01*
X-112838Y142429D01*
X-112782Y142317D01*
X-112721Y142206D01*
X-112658Y142097D01*
X-112591Y141990D01*
X-112521Y141885D01*
X-112447Y141782D01*
X-112371Y141682D01*
X-112292Y141584D01*
X-112210Y141488D01*
X-112124Y141395D01*
X-112037Y141304D01*
X-111946Y141217D01*
X-111853Y141131D01*
X-111757Y141049D01*
X-111659Y140970D01*
X-111559Y140894D01*
X-111456Y140820D01*
X-111351Y140750D01*
X-111244Y140683D01*
X-111135Y140620D01*
X-111024Y140559D01*
X-110912Y140503D01*
X-110797Y140449D01*
X-110681Y140399D01*
X-110564Y140352D01*
X-110446Y140309D01*
X-110326Y140270D01*
X-110205Y140234D01*
X-110083Y140202D01*
X-109960Y140174D01*
X-109836Y140149D01*
X-109711Y140129D01*
X-109586Y140111D01*
X-109461Y140098D01*
X-109335Y140089D01*
X-109209Y140083D01*
X-109083Y140081D01*
X187071Y147972D02*
X187071Y150060D01*
X187071Y147972D02*
X187073Y147883D01*
X187079Y147795D01*
X187088Y147707D01*
X187101Y147619D01*
X187118Y147532D01*
X187138Y147446D01*
X187163Y147361D01*
X187190Y147276D01*
X187222Y147193D01*
X187256Y147112D01*
X187295Y147032D01*
X187336Y146954D01*
X187381Y146877D01*
X187429Y146803D01*
X187480Y146730D01*
X187534Y146660D01*
X187592Y146593D01*
X187652Y146527D01*
X187714Y146465D01*
X187780Y146405D01*
X187847Y146347D01*
X187917Y146293D01*
X187990Y146242D01*
X188064Y146194D01*
X188141Y146149D01*
X188219Y146108D01*
X188299Y146069D01*
X188380Y146035D01*
X188463Y146003D01*
X188548Y145976D01*
X188633Y145951D01*
X188719Y145931D01*
X188806Y145914D01*
X188894Y145901D01*
X188982Y145892D01*
X189070Y145886D01*
X189159Y145884D01*
X189159Y145883D02*
X194381Y145883D01*
X194381Y145884D02*
X194472Y145886D01*
X194563Y145892D01*
X194654Y145902D01*
X194744Y145916D01*
X194833Y145933D01*
X194921Y145955D01*
X195009Y145981D01*
X195095Y146010D01*
X195180Y146043D01*
X195263Y146080D01*
X195345Y146120D01*
X195425Y146164D01*
X195503Y146211D01*
X195579Y146262D01*
X195652Y146315D01*
X195723Y146372D01*
X195792Y146433D01*
X195857Y146496D01*
X195920Y146561D01*
X195980Y146630D01*
X196038Y146701D01*
X196091Y146774D01*
X196142Y146850D01*
X196189Y146928D01*
X196233Y147008D01*
X196273Y147090D01*
X196310Y147173D01*
X196343Y147258D01*
X196372Y147344D01*
X196398Y147432D01*
X196420Y147520D01*
X196437Y147609D01*
X196451Y147699D01*
X196461Y147790D01*
X196467Y147881D01*
X196469Y147972D01*
X196469Y150060D01*
X194381Y153529D02*
X196469Y156139D01*
X187071Y156139D01*
X187071Y153529D02*
X187071Y158750D01*
X194381Y162673D02*
X196469Y165283D01*
X187071Y165283D01*
X187071Y162673D02*
X187071Y167894D01*
X-106744Y70104D02*
X-106744Y60706D01*
X-106744Y70104D02*
X-109354Y70104D01*
X-109455Y70102D01*
X-109556Y70096D01*
X-109657Y70086D01*
X-109757Y70073D01*
X-109857Y70055D01*
X-109956Y70034D01*
X-110054Y70008D01*
X-110151Y69979D01*
X-110247Y69947D01*
X-110341Y69910D01*
X-110434Y69870D01*
X-110526Y69826D01*
X-110615Y69779D01*
X-110703Y69728D01*
X-110789Y69674D01*
X-110872Y69617D01*
X-110954Y69557D01*
X-111032Y69493D01*
X-111109Y69427D01*
X-111182Y69357D01*
X-111253Y69285D01*
X-111321Y69210D01*
X-111386Y69132D01*
X-111448Y69052D01*
X-111507Y68970D01*
X-111563Y68885D01*
X-111615Y68799D01*
X-111664Y68710D01*
X-111710Y68619D01*
X-111751Y68527D01*
X-111790Y68433D01*
X-111824Y68338D01*
X-111855Y68242D01*
X-111882Y68144D01*
X-111906Y68046D01*
X-111925Y67946D01*
X-111941Y67846D01*
X-111953Y67746D01*
X-111961Y67645D01*
X-111965Y67544D01*
X-111965Y67442D01*
X-111961Y67341D01*
X-111953Y67240D01*
X-111941Y67140D01*
X-111925Y67040D01*
X-111906Y66940D01*
X-111882Y66842D01*
X-111855Y66744D01*
X-111824Y66648D01*
X-111790Y66553D01*
X-111751Y66459D01*
X-111710Y66367D01*
X-111664Y66276D01*
X-111615Y66188D01*
X-111563Y66101D01*
X-111507Y66016D01*
X-111448Y65934D01*
X-111386Y65854D01*
X-111321Y65776D01*
X-111253Y65701D01*
X-111182Y65629D01*
X-111109Y65559D01*
X-111032Y65493D01*
X-110954Y65429D01*
X-110872Y65369D01*
X-110789Y65312D01*
X-110703Y65258D01*
X-110615Y65207D01*
X-110526Y65160D01*
X-110434Y65116D01*
X-110341Y65076D01*
X-110247Y65039D01*
X-110151Y65007D01*
X-110054Y64978D01*
X-109956Y64952D01*
X-109857Y64931D01*
X-109757Y64913D01*
X-109657Y64900D01*
X-109556Y64890D01*
X-109455Y64884D01*
X-109354Y64882D01*
X-109354Y64883D02*
X-106744Y64883D01*
X-109876Y64883D02*
X-111965Y60706D01*
X-115830Y62794D02*
X-117919Y70104D01*
X-115830Y62794D02*
X-121052Y62794D01*
X-119485Y60706D02*
X-119485Y64883D01*
X-106744Y81344D02*
X-106744Y90742D01*
X-109354Y90742D01*
X-109455Y90740D01*
X-109556Y90734D01*
X-109657Y90724D01*
X-109757Y90711D01*
X-109857Y90693D01*
X-109956Y90672D01*
X-110054Y90646D01*
X-110151Y90617D01*
X-110247Y90585D01*
X-110341Y90548D01*
X-110434Y90508D01*
X-110526Y90464D01*
X-110615Y90417D01*
X-110703Y90366D01*
X-110789Y90312D01*
X-110872Y90255D01*
X-110954Y90195D01*
X-111032Y90131D01*
X-111109Y90065D01*
X-111182Y89995D01*
X-111253Y89923D01*
X-111321Y89848D01*
X-111386Y89770D01*
X-111448Y89690D01*
X-111507Y89608D01*
X-111563Y89523D01*
X-111615Y89437D01*
X-111664Y89348D01*
X-111710Y89257D01*
X-111751Y89165D01*
X-111790Y89071D01*
X-111824Y88976D01*
X-111855Y88880D01*
X-111882Y88782D01*
X-111906Y88684D01*
X-111925Y88584D01*
X-111941Y88484D01*
X-111953Y88384D01*
X-111961Y88283D01*
X-111965Y88182D01*
X-111965Y88080D01*
X-111961Y87979D01*
X-111953Y87878D01*
X-111941Y87778D01*
X-111925Y87678D01*
X-111906Y87578D01*
X-111882Y87480D01*
X-111855Y87382D01*
X-111824Y87286D01*
X-111790Y87191D01*
X-111751Y87097D01*
X-111710Y87005D01*
X-111664Y86914D01*
X-111615Y86826D01*
X-111563Y86739D01*
X-111507Y86654D01*
X-111448Y86572D01*
X-111386Y86492D01*
X-111321Y86414D01*
X-111253Y86339D01*
X-111182Y86267D01*
X-111109Y86197D01*
X-111032Y86131D01*
X-110954Y86067D01*
X-110872Y86007D01*
X-110789Y85950D01*
X-110703Y85896D01*
X-110615Y85845D01*
X-110526Y85798D01*
X-110434Y85754D01*
X-110341Y85714D01*
X-110247Y85677D01*
X-110151Y85645D01*
X-110054Y85616D01*
X-109956Y85590D01*
X-109857Y85569D01*
X-109757Y85551D01*
X-109657Y85538D01*
X-109556Y85528D01*
X-109455Y85522D01*
X-109354Y85520D01*
X-106744Y85520D01*
X-109876Y85520D02*
X-111965Y81344D01*
X-115830Y81344D02*
X-118963Y81344D01*
X-119052Y81346D01*
X-119140Y81352D01*
X-119228Y81361D01*
X-119316Y81374D01*
X-119403Y81391D01*
X-119489Y81411D01*
X-119574Y81436D01*
X-119659Y81463D01*
X-119742Y81495D01*
X-119823Y81529D01*
X-119903Y81568D01*
X-119981Y81609D01*
X-120058Y81654D01*
X-120132Y81702D01*
X-120205Y81753D01*
X-120275Y81807D01*
X-120342Y81865D01*
X-120408Y81925D01*
X-120470Y81987D01*
X-120530Y82053D01*
X-120588Y82120D01*
X-120642Y82190D01*
X-120693Y82263D01*
X-120741Y82337D01*
X-120786Y82414D01*
X-120827Y82492D01*
X-120866Y82572D01*
X-120900Y82653D01*
X-120932Y82736D01*
X-120959Y82821D01*
X-120984Y82906D01*
X-121004Y82992D01*
X-121021Y83079D01*
X-121034Y83167D01*
X-121043Y83255D01*
X-121049Y83343D01*
X-121051Y83432D01*
X-121052Y83432D02*
X-121052Y84476D01*
X-121051Y84476D02*
X-121049Y84565D01*
X-121043Y84653D01*
X-121034Y84741D01*
X-121021Y84829D01*
X-121004Y84916D01*
X-120984Y85002D01*
X-120959Y85087D01*
X-120932Y85172D01*
X-120900Y85255D01*
X-120866Y85336D01*
X-120827Y85416D01*
X-120786Y85494D01*
X-120741Y85571D01*
X-120693Y85645D01*
X-120642Y85718D01*
X-120588Y85788D01*
X-120530Y85855D01*
X-120470Y85921D01*
X-120408Y85983D01*
X-120342Y86043D01*
X-120275Y86101D01*
X-120205Y86155D01*
X-120132Y86206D01*
X-120058Y86254D01*
X-119981Y86299D01*
X-119903Y86340D01*
X-119823Y86379D01*
X-119742Y86413D01*
X-119659Y86445D01*
X-119574Y86472D01*
X-119489Y86497D01*
X-119403Y86517D01*
X-119316Y86534D01*
X-119228Y86547D01*
X-119140Y86556D01*
X-119052Y86562D01*
X-118963Y86564D01*
X-118963Y86565D02*
X-115830Y86565D01*
X-115830Y90742D01*
X-121052Y90742D01*
D12*
X-170802Y142392D02*
X-190932Y142392D01*
D11*
X-187579Y94117D02*
X-187579Y92028D01*
X-187577Y91939D01*
X-187571Y91851D01*
X-187562Y91763D01*
X-187549Y91675D01*
X-187532Y91588D01*
X-187512Y91502D01*
X-187487Y91417D01*
X-187460Y91332D01*
X-187428Y91249D01*
X-187394Y91168D01*
X-187355Y91088D01*
X-187314Y91010D01*
X-187269Y90933D01*
X-187221Y90859D01*
X-187170Y90786D01*
X-187116Y90716D01*
X-187058Y90649D01*
X-186998Y90583D01*
X-186936Y90521D01*
X-186870Y90461D01*
X-186803Y90403D01*
X-186733Y90349D01*
X-186660Y90298D01*
X-186586Y90250D01*
X-186509Y90205D01*
X-186431Y90164D01*
X-186351Y90125D01*
X-186270Y90091D01*
X-186187Y90059D01*
X-186102Y90032D01*
X-186017Y90007D01*
X-185931Y89987D01*
X-185844Y89970D01*
X-185756Y89957D01*
X-185668Y89948D01*
X-185580Y89942D01*
X-185491Y89940D01*
X-180269Y89940D01*
X-180269Y89939D02*
X-180178Y89941D01*
X-180087Y89947D01*
X-179996Y89957D01*
X-179906Y89971D01*
X-179817Y89989D01*
X-179728Y90010D01*
X-179641Y90036D01*
X-179555Y90065D01*
X-179470Y90098D01*
X-179386Y90135D01*
X-179304Y90175D01*
X-179225Y90219D01*
X-179147Y90266D01*
X-179071Y90317D01*
X-178997Y90371D01*
X-178926Y90428D01*
X-178858Y90488D01*
X-178792Y90551D01*
X-178729Y90617D01*
X-178669Y90685D01*
X-178612Y90756D01*
X-178558Y90830D01*
X-178507Y90906D01*
X-178460Y90983D01*
X-178416Y91063D01*
X-178376Y91145D01*
X-178339Y91229D01*
X-178306Y91313D01*
X-178277Y91400D01*
X-178251Y91487D01*
X-178230Y91576D01*
X-178212Y91665D01*
X-178198Y91755D01*
X-178188Y91846D01*
X-178182Y91937D01*
X-178180Y92028D01*
X-178181Y92028D02*
X-178181Y94117D01*
X-178181Y97585D02*
X-179225Y97585D01*
X-178181Y97585D02*
X-178181Y102807D01*
X-187579Y100196D01*
X-104570Y117856D02*
X-102482Y117856D01*
X-102393Y117858D01*
X-102305Y117864D01*
X-102217Y117873D01*
X-102129Y117886D01*
X-102042Y117903D01*
X-101956Y117923D01*
X-101871Y117948D01*
X-101786Y117975D01*
X-101703Y118007D01*
X-101622Y118041D01*
X-101542Y118080D01*
X-101464Y118121D01*
X-101387Y118166D01*
X-101313Y118214D01*
X-101240Y118265D01*
X-101170Y118319D01*
X-101103Y118377D01*
X-101037Y118437D01*
X-100975Y118499D01*
X-100915Y118565D01*
X-100857Y118632D01*
X-100803Y118702D01*
X-100752Y118775D01*
X-100704Y118849D01*
X-100659Y118926D01*
X-100618Y119004D01*
X-100579Y119084D01*
X-100545Y119165D01*
X-100513Y119248D01*
X-100486Y119333D01*
X-100461Y119418D01*
X-100441Y119504D01*
X-100424Y119591D01*
X-100411Y119679D01*
X-100402Y119767D01*
X-100396Y119855D01*
X-100394Y119944D01*
X-100394Y125166D01*
X-100396Y125257D01*
X-100402Y125348D01*
X-100412Y125439D01*
X-100426Y125529D01*
X-100443Y125618D01*
X-100465Y125706D01*
X-100491Y125794D01*
X-100520Y125880D01*
X-100553Y125965D01*
X-100590Y126048D01*
X-100630Y126130D01*
X-100674Y126210D01*
X-100721Y126288D01*
X-100772Y126364D01*
X-100825Y126437D01*
X-100882Y126508D01*
X-100943Y126577D01*
X-101006Y126642D01*
X-101071Y126705D01*
X-101140Y126765D01*
X-101211Y126823D01*
X-101284Y126876D01*
X-101360Y126927D01*
X-101438Y126974D01*
X-101518Y127018D01*
X-101600Y127058D01*
X-101683Y127095D01*
X-101768Y127128D01*
X-101854Y127157D01*
X-101942Y127183D01*
X-102030Y127205D01*
X-102119Y127222D01*
X-102209Y127236D01*
X-102300Y127246D01*
X-102391Y127252D01*
X-102482Y127254D01*
X-104570Y127254D01*
X-108039Y125166D02*
X-110650Y127254D01*
X-110650Y117856D01*
X-113260Y117856D02*
X-108039Y117856D01*
X-120055Y127255D02*
X-120150Y127253D01*
X-120244Y127247D01*
X-120338Y127238D01*
X-120432Y127225D01*
X-120525Y127208D01*
X-120617Y127187D01*
X-120709Y127162D01*
X-120799Y127134D01*
X-120888Y127102D01*
X-120976Y127067D01*
X-121062Y127028D01*
X-121147Y126986D01*
X-121230Y126940D01*
X-121311Y126891D01*
X-121390Y126839D01*
X-121467Y126784D01*
X-121541Y126725D01*
X-121613Y126664D01*
X-121683Y126600D01*
X-121750Y126533D01*
X-121814Y126463D01*
X-121875Y126391D01*
X-121934Y126317D01*
X-121989Y126240D01*
X-122041Y126161D01*
X-122090Y126080D01*
X-122136Y125997D01*
X-122178Y125912D01*
X-122217Y125826D01*
X-122252Y125738D01*
X-122284Y125649D01*
X-122312Y125559D01*
X-122337Y125467D01*
X-122358Y125375D01*
X-122375Y125282D01*
X-122388Y125188D01*
X-122397Y125094D01*
X-122403Y125000D01*
X-122405Y124905D01*
X-120055Y127254D02*
X-119947Y127252D01*
X-119838Y127246D01*
X-119730Y127236D01*
X-119623Y127223D01*
X-119516Y127205D01*
X-119409Y127184D01*
X-119304Y127159D01*
X-119199Y127130D01*
X-119096Y127098D01*
X-118994Y127061D01*
X-118893Y127021D01*
X-118794Y126978D01*
X-118696Y126931D01*
X-118600Y126880D01*
X-118506Y126826D01*
X-118414Y126769D01*
X-118324Y126708D01*
X-118236Y126644D01*
X-118151Y126578D01*
X-118068Y126508D01*
X-117988Y126435D01*
X-117910Y126359D01*
X-117835Y126281D01*
X-117763Y126200D01*
X-117694Y126116D01*
X-117628Y126030D01*
X-117565Y125942D01*
X-117506Y125851D01*
X-117449Y125759D01*
X-117396Y125664D01*
X-117347Y125568D01*
X-117301Y125469D01*
X-117258Y125370D01*
X-117219Y125268D01*
X-117184Y125166D01*
X-121622Y123077D02*
X-121691Y123146D01*
X-121757Y123217D01*
X-121821Y123290D01*
X-121882Y123366D01*
X-121940Y123445D01*
X-121994Y123525D01*
X-122046Y123608D01*
X-122094Y123692D01*
X-122140Y123778D01*
X-122181Y123866D01*
X-122220Y123956D01*
X-122255Y124047D01*
X-122286Y124139D01*
X-122314Y124232D01*
X-122338Y124326D01*
X-122358Y124421D01*
X-122375Y124517D01*
X-122388Y124614D01*
X-122397Y124711D01*
X-122403Y124808D01*
X-122405Y124905D01*
X-121621Y123077D02*
X-117183Y117856D01*
X-122404Y117856D01*
D12*
X-119545Y148577D02*
X-119545Y168707D01*
D11*
X-99808Y154369D02*
X-97719Y154369D01*
X-97630Y154371D01*
X-97542Y154377D01*
X-97454Y154386D01*
X-97366Y154399D01*
X-97279Y154416D01*
X-97193Y154436D01*
X-97108Y154461D01*
X-97023Y154488D01*
X-96940Y154520D01*
X-96859Y154554D01*
X-96779Y154593D01*
X-96701Y154634D01*
X-96624Y154679D01*
X-96550Y154727D01*
X-96477Y154778D01*
X-96407Y154832D01*
X-96340Y154890D01*
X-96274Y154950D01*
X-96212Y155012D01*
X-96152Y155078D01*
X-96094Y155145D01*
X-96040Y155215D01*
X-95989Y155288D01*
X-95941Y155362D01*
X-95896Y155439D01*
X-95855Y155517D01*
X-95816Y155597D01*
X-95782Y155678D01*
X-95750Y155761D01*
X-95723Y155846D01*
X-95698Y155931D01*
X-95678Y156017D01*
X-95661Y156104D01*
X-95648Y156192D01*
X-95639Y156280D01*
X-95633Y156368D01*
X-95631Y156457D01*
X-95631Y161678D01*
X-95633Y161769D01*
X-95639Y161860D01*
X-95649Y161951D01*
X-95663Y162041D01*
X-95680Y162130D01*
X-95702Y162218D01*
X-95728Y162306D01*
X-95757Y162392D01*
X-95790Y162477D01*
X-95827Y162560D01*
X-95867Y162642D01*
X-95911Y162722D01*
X-95958Y162800D01*
X-96009Y162876D01*
X-96062Y162949D01*
X-96119Y163020D01*
X-96180Y163089D01*
X-96243Y163154D01*
X-96308Y163217D01*
X-96377Y163277D01*
X-96448Y163335D01*
X-96521Y163388D01*
X-96597Y163439D01*
X-96675Y163486D01*
X-96755Y163530D01*
X-96837Y163570D01*
X-96920Y163607D01*
X-97005Y163640D01*
X-97091Y163669D01*
X-97179Y163695D01*
X-97267Y163717D01*
X-97356Y163734D01*
X-97446Y163748D01*
X-97537Y163758D01*
X-97628Y163764D01*
X-97719Y163766D01*
X-97719Y163767D02*
X-99808Y163767D01*
X-103277Y161678D02*
X-105887Y163767D01*
X-105887Y154369D01*
X-103277Y154369D02*
X-108498Y154369D01*
X-112420Y159068D02*
X-112422Y159253D01*
X-112429Y159438D01*
X-112440Y159622D01*
X-112455Y159806D01*
X-112475Y159990D01*
X-112499Y160174D01*
X-112528Y160356D01*
X-112561Y160538D01*
X-112598Y160719D01*
X-112640Y160899D01*
X-112686Y161079D01*
X-112736Y161257D01*
X-112790Y161433D01*
X-112849Y161609D01*
X-112911Y161783D01*
X-112978Y161955D01*
X-113049Y162126D01*
X-113124Y162295D01*
X-113203Y162462D01*
X-113233Y162542D01*
X-113266Y162621D01*
X-113303Y162698D01*
X-113343Y162774D01*
X-113386Y162848D01*
X-113432Y162920D01*
X-113482Y162989D01*
X-113534Y163057D01*
X-113590Y163122D01*
X-113648Y163185D01*
X-113710Y163244D01*
X-113773Y163302D01*
X-113840Y163356D01*
X-113908Y163407D01*
X-113979Y163455D01*
X-114052Y163500D01*
X-114126Y163542D01*
X-114203Y163580D01*
X-114281Y163615D01*
X-114360Y163647D01*
X-114441Y163675D01*
X-114523Y163699D01*
X-114607Y163720D01*
X-114690Y163737D01*
X-114775Y163750D01*
X-114860Y163759D01*
X-114945Y163765D01*
X-115031Y163767D01*
X-115117Y163765D01*
X-115202Y163759D01*
X-115287Y163750D01*
X-115372Y163737D01*
X-115455Y163720D01*
X-115539Y163699D01*
X-115621Y163675D01*
X-115702Y163647D01*
X-115781Y163615D01*
X-115859Y163580D01*
X-115936Y163542D01*
X-116010Y163500D01*
X-116083Y163455D01*
X-116154Y163407D01*
X-116222Y163356D01*
X-116289Y163302D01*
X-116352Y163244D01*
X-116414Y163185D01*
X-116472Y163122D01*
X-116528Y163057D01*
X-116580Y162989D01*
X-116630Y162920D01*
X-116676Y162848D01*
X-116719Y162774D01*
X-116759Y162698D01*
X-116796Y162621D01*
X-116829Y162542D01*
X-116859Y162462D01*
X-116938Y162295D01*
X-117013Y162126D01*
X-117084Y161955D01*
X-117151Y161783D01*
X-117213Y161609D01*
X-117272Y161433D01*
X-117326Y161257D01*
X-117376Y161079D01*
X-117422Y160899D01*
X-117464Y160719D01*
X-117501Y160538D01*
X-117534Y160356D01*
X-117563Y160174D01*
X-117587Y159990D01*
X-117607Y159806D01*
X-117622Y159622D01*
X-117633Y159438D01*
X-117640Y159253D01*
X-117642Y159068D01*
X-112421Y159068D02*
X-112423Y158883D01*
X-112430Y158698D01*
X-112441Y158514D01*
X-112456Y158330D01*
X-112476Y158146D01*
X-112500Y157962D01*
X-112529Y157780D01*
X-112562Y157598D01*
X-112599Y157417D01*
X-112641Y157237D01*
X-112687Y157057D01*
X-112737Y156879D01*
X-112791Y156703D01*
X-112850Y156527D01*
X-112912Y156353D01*
X-112979Y156181D01*
X-113050Y156010D01*
X-113125Y155841D01*
X-113204Y155674D01*
X-113203Y155673D02*
X-113233Y155593D01*
X-113266Y155514D01*
X-113303Y155437D01*
X-113343Y155361D01*
X-113386Y155287D01*
X-113432Y155215D01*
X-113482Y155146D01*
X-113535Y155078D01*
X-113590Y155013D01*
X-113649Y154950D01*
X-113710Y154891D01*
X-113773Y154833D01*
X-113840Y154779D01*
X-113908Y154728D01*
X-113979Y154680D01*
X-114052Y154635D01*
X-114126Y154593D01*
X-114203Y154555D01*
X-114281Y154520D01*
X-114360Y154488D01*
X-114441Y154460D01*
X-114523Y154436D01*
X-114607Y154415D01*
X-114690Y154398D01*
X-114775Y154385D01*
X-114860Y154376D01*
X-114945Y154370D01*
X-115031Y154368D01*
X-116859Y155674D02*
X-116938Y155841D01*
X-117013Y156010D01*
X-117084Y156181D01*
X-117151Y156353D01*
X-117213Y156527D01*
X-117272Y156703D01*
X-117326Y156879D01*
X-117376Y157057D01*
X-117422Y157237D01*
X-117464Y157417D01*
X-117501Y157598D01*
X-117534Y157780D01*
X-117563Y157962D01*
X-117587Y158146D01*
X-117607Y158330D01*
X-117622Y158514D01*
X-117633Y158698D01*
X-117640Y158883D01*
X-117642Y159068D01*
X-116859Y155673D02*
X-116829Y155593D01*
X-116796Y155514D01*
X-116759Y155437D01*
X-116719Y155361D01*
X-116676Y155287D01*
X-116630Y155215D01*
X-116580Y155146D01*
X-116528Y155078D01*
X-116472Y155013D01*
X-116414Y154950D01*
X-116352Y154891D01*
X-116289Y154833D01*
X-116222Y154779D01*
X-116154Y154728D01*
X-116083Y154680D01*
X-116010Y154635D01*
X-115936Y154593D01*
X-115859Y154555D01*
X-115781Y154520D01*
X-115702Y154488D01*
X-115621Y154460D01*
X-115539Y154436D01*
X-115455Y154415D01*
X-115372Y154398D01*
X-115287Y154385D01*
X-115202Y154376D01*
X-115117Y154370D01*
X-115031Y154368D01*
X-112943Y156457D02*
X-117120Y161678D01*
X-99808Y128969D02*
X-97719Y128969D01*
X-97630Y128971D01*
X-97542Y128977D01*
X-97454Y128986D01*
X-97366Y128999D01*
X-97279Y129016D01*
X-97193Y129036D01*
X-97108Y129061D01*
X-97023Y129088D01*
X-96940Y129120D01*
X-96859Y129154D01*
X-96779Y129193D01*
X-96701Y129234D01*
X-96624Y129279D01*
X-96550Y129327D01*
X-96477Y129378D01*
X-96407Y129432D01*
X-96340Y129490D01*
X-96274Y129550D01*
X-96212Y129612D01*
X-96152Y129678D01*
X-96094Y129745D01*
X-96040Y129815D01*
X-95989Y129888D01*
X-95941Y129962D01*
X-95896Y130039D01*
X-95855Y130117D01*
X-95816Y130197D01*
X-95782Y130278D01*
X-95750Y130361D01*
X-95723Y130446D01*
X-95698Y130531D01*
X-95678Y130617D01*
X-95661Y130704D01*
X-95648Y130792D01*
X-95639Y130880D01*
X-95633Y130968D01*
X-95631Y131057D01*
X-95631Y136278D01*
X-95633Y136369D01*
X-95639Y136460D01*
X-95649Y136551D01*
X-95663Y136641D01*
X-95680Y136730D01*
X-95702Y136818D01*
X-95728Y136906D01*
X-95757Y136992D01*
X-95790Y137077D01*
X-95827Y137160D01*
X-95867Y137242D01*
X-95911Y137322D01*
X-95958Y137400D01*
X-96009Y137476D01*
X-96062Y137549D01*
X-96119Y137620D01*
X-96180Y137689D01*
X-96243Y137754D01*
X-96308Y137817D01*
X-96377Y137877D01*
X-96448Y137935D01*
X-96521Y137988D01*
X-96597Y138039D01*
X-96675Y138086D01*
X-96755Y138130D01*
X-96837Y138170D01*
X-96920Y138207D01*
X-97005Y138240D01*
X-97091Y138269D01*
X-97179Y138295D01*
X-97267Y138317D01*
X-97356Y138334D01*
X-97446Y138348D01*
X-97537Y138358D01*
X-97628Y138364D01*
X-97719Y138366D01*
X-97719Y138367D02*
X-99808Y138367D01*
X-103277Y136278D02*
X-105887Y138367D01*
X-105887Y128969D01*
X-103277Y128969D02*
X-108498Y128969D01*
X-112421Y131057D02*
X-114509Y138367D01*
X-112421Y131057D02*
X-117642Y131057D01*
X-116075Y133145D02*
X-116075Y128969D01*
X-170117Y95704D02*
X-170117Y93616D01*
X-170116Y93616D02*
X-170114Y93527D01*
X-170108Y93439D01*
X-170099Y93351D01*
X-170086Y93263D01*
X-170069Y93176D01*
X-170049Y93090D01*
X-170024Y93005D01*
X-169997Y92920D01*
X-169965Y92837D01*
X-169931Y92756D01*
X-169892Y92676D01*
X-169851Y92598D01*
X-169806Y92521D01*
X-169758Y92447D01*
X-169707Y92374D01*
X-169653Y92304D01*
X-169595Y92237D01*
X-169535Y92171D01*
X-169473Y92109D01*
X-169407Y92049D01*
X-169340Y91991D01*
X-169270Y91937D01*
X-169197Y91886D01*
X-169123Y91838D01*
X-169046Y91793D01*
X-168968Y91752D01*
X-168888Y91713D01*
X-168807Y91679D01*
X-168724Y91647D01*
X-168639Y91620D01*
X-168554Y91595D01*
X-168468Y91575D01*
X-168381Y91558D01*
X-168293Y91545D01*
X-168205Y91536D01*
X-168117Y91530D01*
X-168028Y91528D01*
X-168028Y91527D02*
X-162807Y91527D01*
X-162716Y91529D01*
X-162625Y91535D01*
X-162534Y91545D01*
X-162444Y91559D01*
X-162355Y91577D01*
X-162266Y91598D01*
X-162179Y91624D01*
X-162093Y91653D01*
X-162008Y91686D01*
X-161924Y91723D01*
X-161842Y91763D01*
X-161763Y91807D01*
X-161685Y91854D01*
X-161609Y91905D01*
X-161535Y91959D01*
X-161464Y92016D01*
X-161396Y92076D01*
X-161330Y92139D01*
X-161267Y92205D01*
X-161207Y92273D01*
X-161150Y92344D01*
X-161096Y92418D01*
X-161045Y92494D01*
X-160998Y92571D01*
X-160954Y92651D01*
X-160914Y92733D01*
X-160877Y92817D01*
X-160844Y92901D01*
X-160815Y92988D01*
X-160789Y93075D01*
X-160768Y93164D01*
X-160750Y93253D01*
X-160736Y93343D01*
X-160726Y93434D01*
X-160720Y93525D01*
X-160718Y93616D01*
X-160719Y93616D02*
X-160719Y95704D01*
X-170117Y99173D02*
X-170117Y101783D01*
X-170115Y101884D01*
X-170109Y101985D01*
X-170099Y102086D01*
X-170086Y102186D01*
X-170068Y102286D01*
X-170047Y102385D01*
X-170021Y102483D01*
X-169992Y102580D01*
X-169960Y102676D01*
X-169923Y102770D01*
X-169883Y102863D01*
X-169839Y102955D01*
X-169792Y103044D01*
X-169741Y103132D01*
X-169687Y103218D01*
X-169630Y103301D01*
X-169570Y103383D01*
X-169506Y103461D01*
X-169440Y103538D01*
X-169370Y103611D01*
X-169298Y103682D01*
X-169223Y103750D01*
X-169145Y103815D01*
X-169065Y103877D01*
X-168983Y103936D01*
X-168898Y103992D01*
X-168812Y104044D01*
X-168723Y104093D01*
X-168632Y104139D01*
X-168540Y104180D01*
X-168446Y104219D01*
X-168351Y104253D01*
X-168255Y104284D01*
X-168157Y104311D01*
X-168059Y104335D01*
X-167959Y104354D01*
X-167859Y104370D01*
X-167759Y104382D01*
X-167658Y104390D01*
X-167557Y104394D01*
X-167455Y104394D01*
X-167354Y104390D01*
X-167253Y104382D01*
X-167153Y104370D01*
X-167053Y104354D01*
X-166953Y104335D01*
X-166855Y104311D01*
X-166757Y104284D01*
X-166661Y104253D01*
X-166566Y104219D01*
X-166472Y104180D01*
X-166380Y104139D01*
X-166289Y104093D01*
X-166201Y104044D01*
X-166114Y103992D01*
X-166029Y103936D01*
X-165947Y103877D01*
X-165867Y103815D01*
X-165789Y103750D01*
X-165714Y103682D01*
X-165642Y103611D01*
X-165572Y103538D01*
X-165506Y103461D01*
X-165442Y103383D01*
X-165382Y103301D01*
X-165325Y103218D01*
X-165271Y103132D01*
X-165220Y103044D01*
X-165173Y102955D01*
X-165129Y102863D01*
X-165089Y102770D01*
X-165052Y102676D01*
X-165020Y102580D01*
X-164991Y102483D01*
X-164965Y102385D01*
X-164944Y102286D01*
X-164926Y102186D01*
X-164913Y102086D01*
X-164903Y101985D01*
X-164897Y101884D01*
X-164895Y101783D01*
X-160719Y102306D02*
X-160719Y99173D01*
X-160719Y102306D02*
X-160721Y102396D01*
X-160727Y102485D01*
X-160736Y102575D01*
X-160750Y102664D01*
X-160767Y102752D01*
X-160788Y102839D01*
X-160813Y102926D01*
X-160842Y103011D01*
X-160874Y103095D01*
X-160909Y103177D01*
X-160949Y103258D01*
X-160991Y103337D01*
X-161037Y103414D01*
X-161087Y103489D01*
X-161139Y103562D01*
X-161195Y103633D01*
X-161253Y103701D01*
X-161315Y103766D01*
X-161379Y103829D01*
X-161446Y103889D01*
X-161515Y103946D01*
X-161587Y104000D01*
X-161661Y104051D01*
X-161737Y104099D01*
X-161815Y104143D01*
X-161895Y104184D01*
X-161977Y104222D01*
X-162060Y104256D01*
X-162145Y104286D01*
X-162231Y104313D01*
X-162317Y104336D01*
X-162405Y104355D01*
X-162494Y104370D01*
X-162583Y104382D01*
X-162672Y104390D01*
X-162762Y104394D01*
X-162852Y104394D01*
X-162942Y104390D01*
X-163031Y104382D01*
X-163120Y104370D01*
X-163209Y104355D01*
X-163297Y104336D01*
X-163383Y104313D01*
X-163469Y104286D01*
X-163554Y104256D01*
X-163637Y104222D01*
X-163719Y104184D01*
X-163799Y104143D01*
X-163877Y104099D01*
X-163953Y104051D01*
X-164027Y104000D01*
X-164099Y103946D01*
X-164168Y103889D01*
X-164235Y103829D01*
X-164299Y103766D01*
X-164361Y103701D01*
X-164419Y103633D01*
X-164475Y103562D01*
X-164527Y103489D01*
X-164577Y103414D01*
X-164623Y103337D01*
X-164665Y103258D01*
X-164705Y103177D01*
X-164740Y103095D01*
X-164772Y103011D01*
X-164801Y102926D01*
X-164826Y102839D01*
X-164847Y102752D01*
X-164864Y102664D01*
X-164878Y102575D01*
X-164887Y102485D01*
X-164893Y102396D01*
X-164895Y102306D01*
X-164895Y100217D01*
D12*
X-209550Y23813D02*
X-222250Y23813D01*
X-228600Y30163D01*
X-228600Y42863D01*
X-222250Y49213D01*
X-184150Y23813D02*
X-177800Y30163D01*
X-184150Y23813D02*
X-196850Y23813D01*
X-203200Y30163D01*
X-203200Y42863D01*
X-196850Y49213D01*
X-184150Y49213D01*
X-177800Y42863D01*
X-203200Y30163D02*
X-209550Y23813D01*
X-203200Y42863D02*
X-209550Y49213D01*
X-222250Y49213D01*
X-146050Y23813D02*
X-133350Y23813D01*
X-146050Y23813D02*
X-152400Y30163D01*
X-152400Y42863D01*
X-146050Y49213D01*
X-152400Y30163D02*
X-158750Y23813D01*
X-171450Y23813D01*
X-177800Y30163D01*
X-177800Y42863D01*
X-171450Y49213D01*
X-158750Y49213D01*
X-152400Y42863D01*
X-107950Y23813D02*
X-101600Y30163D01*
X-107950Y23813D02*
X-120650Y23813D01*
X-127000Y30163D01*
X-127000Y42863D01*
X-120650Y49213D01*
X-107950Y49213D01*
X-101600Y42863D01*
X-127000Y30163D02*
X-133350Y23813D01*
X-127000Y42863D02*
X-133350Y49213D01*
X-146050Y49213D01*
X-69850Y23813D02*
X-57150Y23813D01*
X-69850Y23813D02*
X-76200Y30163D01*
X-76200Y42863D01*
X-69850Y49213D01*
X-76200Y30163D02*
X-82550Y23813D01*
X-95250Y23813D01*
X-101600Y30163D01*
X-101600Y42863D01*
X-95250Y49213D01*
X-82550Y49213D01*
X-76200Y42863D01*
X-31750Y23813D02*
X-25400Y30163D01*
X-31750Y23813D02*
X-44450Y23813D01*
X-50800Y30163D01*
X-50800Y42863D01*
X-44450Y49213D01*
X-31750Y49213D01*
X-25400Y42863D01*
X-50800Y30163D02*
X-57150Y23813D01*
X-50800Y42863D02*
X-57150Y49213D01*
X-69850Y49213D01*
X6350Y23813D02*
X19050Y23813D01*
X6350Y23813D02*
X0Y30163D01*
X0Y42863D01*
X6350Y49213D01*
X0Y30163D02*
X-6350Y23813D01*
X-19050Y23813D01*
X-25400Y30163D01*
X-25400Y42863D01*
X-19050Y49213D01*
X-6350Y49213D01*
X0Y42863D01*
X44450Y23813D02*
X50800Y30163D01*
X44450Y23813D02*
X31750Y23813D01*
X25400Y30163D01*
X25400Y42863D01*
X31750Y49213D01*
X44450Y49213D01*
X50800Y42863D01*
X25400Y30163D02*
X19050Y23813D01*
X25400Y42863D02*
X19050Y49213D01*
X6350Y49213D01*
X82550Y23813D02*
X95250Y23813D01*
X82550Y23813D02*
X76200Y30163D01*
X76200Y42863D01*
X82550Y49213D01*
X76200Y30163D02*
X69850Y23813D01*
X57150Y23813D01*
X50800Y30163D01*
X50800Y42863D01*
X57150Y49213D01*
X69850Y49213D01*
X76200Y42863D01*
X120650Y23813D02*
X127000Y30163D01*
X120650Y23813D02*
X107950Y23813D01*
X101600Y30163D01*
X101600Y42863D01*
X107950Y49213D01*
X120650Y49213D01*
X127000Y42863D01*
X101600Y30163D02*
X95250Y23813D01*
X101600Y42863D02*
X95250Y49213D01*
X82550Y49213D01*
X158750Y23813D02*
X171450Y23813D01*
X158750Y23813D02*
X152400Y30163D01*
X152400Y42863D01*
X158750Y49213D01*
X152400Y30163D02*
X146050Y23813D01*
X133350Y23813D01*
X127000Y30163D01*
X127000Y42863D01*
X133350Y49213D01*
X146050Y49213D01*
X152400Y42863D01*
X196850Y23813D02*
X203200Y30163D01*
X196850Y23813D02*
X184150Y23813D01*
X177800Y30163D01*
X177800Y42863D01*
X184150Y49213D01*
X196850Y49213D01*
X203200Y42863D01*
X177800Y30163D02*
X171450Y23813D01*
X177800Y42863D02*
X171450Y49213D01*
X158750Y49213D01*
X234950Y23813D02*
X247650Y23813D01*
X234950Y23813D02*
X228600Y30163D01*
X228600Y42863D01*
X234950Y49213D01*
X228600Y30163D02*
X222250Y23813D01*
X209550Y23813D01*
X203200Y30163D01*
X203200Y42863D01*
X209550Y49213D01*
X222250Y49213D01*
X228600Y42863D01*
X254000Y42863D02*
X254000Y30163D01*
X247650Y23813D01*
X254000Y42863D02*
X247650Y49213D01*
X234950Y49213D01*
X-234950Y23813D02*
X-247650Y23813D01*
X-254000Y30163D01*
X-254000Y42863D01*
X-247650Y49213D01*
X-228600Y30163D02*
X-234950Y23813D01*
X-228600Y42863D02*
X-234950Y49213D01*
X-247650Y49213D01*
X209550Y204788D02*
X222250Y204788D01*
X228600Y198438D01*
X228600Y185738D01*
X222250Y179388D01*
X184150Y204788D02*
X177800Y198438D01*
X184150Y204788D02*
X196850Y204788D01*
X203200Y198438D01*
X203200Y185738D01*
X196850Y179388D01*
X184150Y179388D01*
X177800Y185738D01*
X203200Y198438D02*
X209550Y204788D01*
X203200Y185738D02*
X209550Y179388D01*
X222250Y179388D01*
X146050Y204788D02*
X133350Y204788D01*
X146050Y204788D02*
X152400Y198438D01*
X152400Y185738D01*
X146050Y179388D01*
X152400Y198438D02*
X158750Y204788D01*
X171450Y204788D01*
X177800Y198438D01*
X177800Y185738D01*
X171450Y179388D01*
X158750Y179388D01*
X152400Y185738D01*
X107950Y204788D02*
X101600Y198438D01*
X107950Y204788D02*
X120650Y204788D01*
X127000Y198438D01*
X127000Y185738D01*
X120650Y179388D01*
X107950Y179388D01*
X101600Y185738D01*
X127000Y198438D02*
X133350Y204788D01*
X127000Y185738D02*
X133350Y179388D01*
X146050Y179388D01*
X69850Y204788D02*
X57150Y204788D01*
X69850Y204788D02*
X76200Y198438D01*
X76200Y185738D01*
X69850Y179388D01*
X76200Y198438D02*
X82550Y204788D01*
X95250Y204788D01*
X101600Y198438D01*
X101600Y185738D01*
X95250Y179388D01*
X82550Y179388D01*
X76200Y185738D01*
X31750Y204788D02*
X25400Y198438D01*
X31750Y204788D02*
X44450Y204788D01*
X50800Y198438D01*
X50800Y185738D01*
X44450Y179388D01*
X31750Y179388D01*
X25400Y185738D01*
X50800Y198438D02*
X57150Y204788D01*
X50800Y185738D02*
X57150Y179388D01*
X69850Y179388D01*
X-6350Y204788D02*
X-19050Y204788D01*
X-6350Y204788D02*
X0Y198438D01*
X0Y185738D01*
X-6350Y179388D01*
X0Y198438D02*
X6350Y204788D01*
X19050Y204788D01*
X25400Y198438D01*
X25400Y185738D01*
X19050Y179388D01*
X6350Y179388D01*
X0Y185738D01*
X-44450Y204788D02*
X-50800Y198438D01*
X-44450Y204788D02*
X-31750Y204788D01*
X-25400Y198438D01*
X-25400Y185738D01*
X-31750Y179388D01*
X-44450Y179388D01*
X-50800Y185738D01*
X-25400Y198438D02*
X-19050Y204788D01*
X-25400Y185738D02*
X-19050Y179388D01*
X-6350Y179388D01*
X-82550Y204788D02*
X-95250Y204788D01*
X-82550Y204788D02*
X-76200Y198438D01*
X-76200Y185738D01*
X-82550Y179388D01*
X-76200Y198438D02*
X-69850Y204788D01*
X-57150Y204788D01*
X-50800Y198438D01*
X-50800Y185738D01*
X-57150Y179388D01*
X-69850Y179388D01*
X-76200Y185738D01*
X-120650Y204788D02*
X-127000Y198438D01*
X-120650Y204788D02*
X-107950Y204788D01*
X-101600Y198438D01*
X-101600Y185738D01*
X-107950Y179388D01*
X-120650Y179388D01*
X-127000Y185738D01*
X-101600Y198438D02*
X-95250Y204788D01*
X-101600Y185738D02*
X-95250Y179388D01*
X-82550Y179388D01*
X-158750Y204788D02*
X-171450Y204788D01*
X-158750Y204788D02*
X-152400Y198438D01*
X-152400Y185738D01*
X-158750Y179388D01*
X-152400Y198438D02*
X-146050Y204788D01*
X-133350Y204788D01*
X-127000Y198438D01*
X-127000Y185738D01*
X-133350Y179388D01*
X-146050Y179388D01*
X-152400Y185738D01*
X-196850Y204788D02*
X-203200Y198438D01*
X-196850Y204788D02*
X-184150Y204788D01*
X-177800Y198438D01*
X-177800Y185738D01*
X-184150Y179388D01*
X-196850Y179388D01*
X-203200Y185738D01*
X-177800Y198438D02*
X-171450Y204788D01*
X-177800Y185738D02*
X-171450Y179388D01*
X-158750Y179388D01*
X-234950Y204788D02*
X-247650Y204788D01*
X-234950Y204788D02*
X-228600Y198438D01*
X-228600Y185738D01*
X-234950Y179388D01*
X-228600Y198438D02*
X-222250Y204788D01*
X-209550Y204788D01*
X-203200Y198438D01*
X-203200Y185738D01*
X-209550Y179388D01*
X-222250Y179388D01*
X-228600Y185738D01*
X-254000Y185738D02*
X-254000Y198438D01*
X-247650Y204788D01*
X-254000Y185738D02*
X-247650Y179388D01*
X-234950Y179388D01*
X234950Y204788D02*
X247650Y204788D01*
X254000Y198438D01*
X254000Y185738D01*
X247650Y179388D01*
X228600Y198438D02*
X234950Y204788D01*
X228600Y185738D02*
X234950Y179388D01*
X247650Y179388D01*
D11*
X-46292Y72273D02*
X-46292Y70184D01*
X-46291Y70184D02*
X-46289Y70095D01*
X-46283Y70007D01*
X-46274Y69919D01*
X-46261Y69831D01*
X-46244Y69744D01*
X-46224Y69658D01*
X-46199Y69573D01*
X-46172Y69488D01*
X-46140Y69405D01*
X-46106Y69324D01*
X-46067Y69244D01*
X-46026Y69166D01*
X-45981Y69089D01*
X-45933Y69015D01*
X-45882Y68942D01*
X-45828Y68872D01*
X-45770Y68805D01*
X-45710Y68739D01*
X-45648Y68677D01*
X-45582Y68617D01*
X-45515Y68559D01*
X-45445Y68505D01*
X-45372Y68454D01*
X-45298Y68406D01*
X-45221Y68361D01*
X-45143Y68320D01*
X-45063Y68281D01*
X-44982Y68247D01*
X-44899Y68215D01*
X-44814Y68188D01*
X-44729Y68163D01*
X-44643Y68143D01*
X-44556Y68126D01*
X-44468Y68113D01*
X-44380Y68104D01*
X-44292Y68098D01*
X-44203Y68096D01*
X-38982Y68096D01*
X-38982Y68095D02*
X-38891Y68097D01*
X-38800Y68103D01*
X-38709Y68113D01*
X-38619Y68127D01*
X-38530Y68145D01*
X-38441Y68166D01*
X-38354Y68192D01*
X-38268Y68221D01*
X-38183Y68254D01*
X-38099Y68291D01*
X-38017Y68331D01*
X-37938Y68375D01*
X-37860Y68422D01*
X-37784Y68473D01*
X-37710Y68527D01*
X-37639Y68584D01*
X-37571Y68644D01*
X-37505Y68707D01*
X-37442Y68773D01*
X-37382Y68841D01*
X-37325Y68912D01*
X-37271Y68986D01*
X-37220Y69062D01*
X-37173Y69139D01*
X-37129Y69219D01*
X-37089Y69301D01*
X-37052Y69385D01*
X-37019Y69469D01*
X-36990Y69556D01*
X-36964Y69643D01*
X-36943Y69732D01*
X-36925Y69821D01*
X-36911Y69911D01*
X-36901Y70002D01*
X-36895Y70093D01*
X-36893Y70184D01*
X-36894Y70184D02*
X-36894Y72273D01*
X-38982Y75741D02*
X-36894Y78352D01*
X-46292Y78352D01*
X-46292Y75741D02*
X-46292Y80963D01*
X-41070Y84885D02*
X-41070Y88018D01*
X-41071Y88018D02*
X-41073Y88107D01*
X-41079Y88195D01*
X-41088Y88283D01*
X-41101Y88371D01*
X-41118Y88458D01*
X-41138Y88544D01*
X-41163Y88629D01*
X-41190Y88714D01*
X-41222Y88797D01*
X-41256Y88878D01*
X-41295Y88958D01*
X-41336Y89036D01*
X-41381Y89113D01*
X-41429Y89187D01*
X-41480Y89260D01*
X-41534Y89330D01*
X-41592Y89397D01*
X-41652Y89463D01*
X-41714Y89525D01*
X-41780Y89585D01*
X-41847Y89643D01*
X-41917Y89697D01*
X-41990Y89748D01*
X-42064Y89796D01*
X-42141Y89841D01*
X-42219Y89882D01*
X-42299Y89921D01*
X-42380Y89955D01*
X-42463Y89987D01*
X-42548Y90014D01*
X-42633Y90039D01*
X-42719Y90059D01*
X-42806Y90076D01*
X-42894Y90089D01*
X-42982Y90098D01*
X-43070Y90104D01*
X-43159Y90106D01*
X-43159Y90107D02*
X-43681Y90107D01*
X-43782Y90105D01*
X-43883Y90099D01*
X-43984Y90089D01*
X-44084Y90076D01*
X-44184Y90058D01*
X-44283Y90037D01*
X-44381Y90011D01*
X-44478Y89982D01*
X-44574Y89950D01*
X-44668Y89913D01*
X-44761Y89873D01*
X-44853Y89829D01*
X-44942Y89782D01*
X-45030Y89731D01*
X-45116Y89677D01*
X-45199Y89620D01*
X-45281Y89560D01*
X-45359Y89496D01*
X-45436Y89430D01*
X-45509Y89360D01*
X-45580Y89288D01*
X-45648Y89213D01*
X-45713Y89135D01*
X-45775Y89055D01*
X-45834Y88973D01*
X-45890Y88888D01*
X-45942Y88802D01*
X-45991Y88713D01*
X-46037Y88622D01*
X-46078Y88530D01*
X-46117Y88436D01*
X-46151Y88341D01*
X-46182Y88245D01*
X-46209Y88147D01*
X-46233Y88049D01*
X-46252Y87949D01*
X-46268Y87849D01*
X-46280Y87749D01*
X-46288Y87648D01*
X-46292Y87547D01*
X-46292Y87445D01*
X-46288Y87344D01*
X-46280Y87243D01*
X-46268Y87143D01*
X-46252Y87043D01*
X-46233Y86943D01*
X-46209Y86845D01*
X-46182Y86747D01*
X-46151Y86651D01*
X-46117Y86556D01*
X-46078Y86462D01*
X-46037Y86370D01*
X-45991Y86279D01*
X-45942Y86191D01*
X-45890Y86104D01*
X-45834Y86019D01*
X-45775Y85937D01*
X-45713Y85857D01*
X-45648Y85779D01*
X-45580Y85704D01*
X-45509Y85632D01*
X-45436Y85562D01*
X-45359Y85496D01*
X-45281Y85432D01*
X-45199Y85372D01*
X-45116Y85315D01*
X-45030Y85261D01*
X-44942Y85210D01*
X-44853Y85163D01*
X-44761Y85119D01*
X-44668Y85079D01*
X-44574Y85042D01*
X-44478Y85010D01*
X-44381Y84981D01*
X-44283Y84955D01*
X-44184Y84934D01*
X-44084Y84916D01*
X-43984Y84903D01*
X-43883Y84893D01*
X-43782Y84887D01*
X-43681Y84885D01*
X-41070Y84885D01*
X-40941Y84887D01*
X-40813Y84893D01*
X-40685Y84903D01*
X-40557Y84917D01*
X-40429Y84934D01*
X-40302Y84956D01*
X-40176Y84982D01*
X-40051Y85011D01*
X-39927Y85044D01*
X-39804Y85082D01*
X-39682Y85122D01*
X-39561Y85167D01*
X-39442Y85215D01*
X-39324Y85267D01*
X-39208Y85323D01*
X-39094Y85382D01*
X-38982Y85445D01*
X-38871Y85511D01*
X-38763Y85580D01*
X-38657Y85653D01*
X-38553Y85729D01*
X-38451Y85808D01*
X-38352Y85890D01*
X-38256Y85975D01*
X-38162Y86063D01*
X-38071Y86154D01*
X-37983Y86248D01*
X-37898Y86344D01*
X-37816Y86443D01*
X-37737Y86545D01*
X-37661Y86649D01*
X-37588Y86755D01*
X-37519Y86863D01*
X-37453Y86973D01*
X-37390Y87086D01*
X-37331Y87200D01*
X-37275Y87316D01*
X-37223Y87434D01*
X-37175Y87553D01*
X-37130Y87674D01*
X-37090Y87796D01*
X-37052Y87919D01*
X-37019Y88043D01*
X-36990Y88168D01*
X-36964Y88294D01*
X-36942Y88421D01*
X-36925Y88549D01*
X-36911Y88677D01*
X-36901Y88805D01*
X-36895Y88933D01*
X-36893Y89062D01*
D12*
X-130493Y204153D02*
X-158433Y204153D01*
X-160973Y221933D02*
X-160971Y222033D01*
X-160965Y222132D01*
X-160955Y222232D01*
X-160942Y222330D01*
X-160924Y222429D01*
X-160903Y222526D01*
X-160878Y222622D01*
X-160849Y222718D01*
X-160816Y222812D01*
X-160780Y222905D01*
X-160740Y222996D01*
X-160696Y223086D01*
X-160649Y223174D01*
X-160599Y223260D01*
X-160545Y223344D01*
X-160488Y223426D01*
X-160428Y223505D01*
X-160364Y223583D01*
X-160298Y223657D01*
X-160229Y223729D01*
X-160157Y223798D01*
X-160083Y223864D01*
X-160005Y223928D01*
X-159926Y223988D01*
X-159844Y224045D01*
X-159760Y224099D01*
X-159674Y224149D01*
X-159586Y224196D01*
X-159496Y224240D01*
X-159405Y224280D01*
X-159312Y224316D01*
X-159218Y224349D01*
X-159122Y224378D01*
X-159026Y224403D01*
X-158929Y224424D01*
X-158830Y224442D01*
X-158732Y224455D01*
X-158632Y224465D01*
X-158533Y224471D01*
X-158433Y224473D01*
X-130493Y224473D02*
X-130393Y224471D01*
X-130294Y224465D01*
X-130194Y224455D01*
X-130096Y224442D01*
X-129997Y224424D01*
X-129900Y224403D01*
X-129804Y224378D01*
X-129708Y224349D01*
X-129614Y224316D01*
X-129521Y224280D01*
X-129430Y224240D01*
X-129340Y224196D01*
X-129252Y224149D01*
X-129166Y224099D01*
X-129082Y224045D01*
X-129000Y223988D01*
X-128921Y223928D01*
X-128843Y223864D01*
X-128769Y223798D01*
X-128697Y223729D01*
X-128628Y223657D01*
X-128562Y223583D01*
X-128498Y223505D01*
X-128438Y223426D01*
X-128381Y223344D01*
X-128327Y223260D01*
X-128277Y223174D01*
X-128230Y223086D01*
X-128186Y222996D01*
X-128146Y222905D01*
X-128110Y222812D01*
X-128077Y222718D01*
X-128048Y222622D01*
X-128023Y222526D01*
X-128002Y222429D01*
X-127984Y222330D01*
X-127971Y222232D01*
X-127961Y222132D01*
X-127955Y222033D01*
X-127953Y221933D01*
X-127953Y206693D02*
X-127955Y206593D01*
X-127961Y206494D01*
X-127971Y206394D01*
X-127984Y206296D01*
X-128002Y206197D01*
X-128023Y206100D01*
X-128048Y206004D01*
X-128077Y205908D01*
X-128110Y205814D01*
X-128146Y205721D01*
X-128186Y205630D01*
X-128230Y205540D01*
X-128277Y205452D01*
X-128327Y205366D01*
X-128381Y205282D01*
X-128438Y205200D01*
X-128498Y205121D01*
X-128562Y205043D01*
X-128628Y204969D01*
X-128697Y204897D01*
X-128769Y204828D01*
X-128843Y204762D01*
X-128921Y204698D01*
X-129000Y204638D01*
X-129082Y204581D01*
X-129166Y204527D01*
X-129252Y204477D01*
X-129340Y204430D01*
X-129430Y204386D01*
X-129521Y204346D01*
X-129614Y204310D01*
X-129708Y204277D01*
X-129804Y204248D01*
X-129900Y204223D01*
X-129997Y204202D01*
X-130096Y204184D01*
X-130194Y204171D01*
X-130294Y204161D01*
X-130393Y204155D01*
X-130493Y204153D01*
X-158433Y204153D02*
X-158533Y204155D01*
X-158632Y204161D01*
X-158732Y204171D01*
X-158830Y204184D01*
X-158929Y204202D01*
X-159026Y204223D01*
X-159122Y204248D01*
X-159218Y204277D01*
X-159312Y204310D01*
X-159405Y204346D01*
X-159496Y204386D01*
X-159586Y204430D01*
X-159674Y204477D01*
X-159760Y204527D01*
X-159844Y204581D01*
X-159926Y204638D01*
X-160005Y204698D01*
X-160083Y204762D01*
X-160157Y204828D01*
X-160229Y204897D01*
X-160298Y204969D01*
X-160364Y205043D01*
X-160428Y205121D01*
X-160488Y205200D01*
X-160545Y205282D01*
X-160599Y205366D01*
X-160649Y205452D01*
X-160696Y205540D01*
X-160740Y205630D01*
X-160780Y205721D01*
X-160816Y205814D01*
X-160849Y205908D01*
X-160878Y206004D01*
X-160903Y206100D01*
X-160924Y206197D01*
X-160942Y206296D01*
X-160955Y206394D01*
X-160965Y206494D01*
X-160971Y206593D01*
X-160973Y206693D01*
X-160973Y221933D01*
X-127953Y221933D02*
X-127953Y206693D01*
X-130493Y224473D02*
X-158433Y224473D01*
D10*
X-165325Y221742D02*
X-168373Y212598D01*
X-171421Y221742D01*
X-175348Y221742D02*
X-175348Y212598D01*
X-175348Y221742D02*
X-177888Y221742D01*
X-177988Y221740D01*
X-178087Y221734D01*
X-178187Y221724D01*
X-178285Y221711D01*
X-178384Y221693D01*
X-178481Y221672D01*
X-178577Y221647D01*
X-178673Y221618D01*
X-178767Y221585D01*
X-178860Y221549D01*
X-178951Y221509D01*
X-179041Y221465D01*
X-179129Y221418D01*
X-179215Y221368D01*
X-179299Y221314D01*
X-179381Y221257D01*
X-179460Y221197D01*
X-179538Y221133D01*
X-179612Y221067D01*
X-179684Y220998D01*
X-179753Y220926D01*
X-179819Y220852D01*
X-179883Y220774D01*
X-179943Y220695D01*
X-180000Y220613D01*
X-180054Y220529D01*
X-180104Y220443D01*
X-180151Y220355D01*
X-180195Y220265D01*
X-180235Y220174D01*
X-180271Y220081D01*
X-180304Y219987D01*
X-180333Y219891D01*
X-180358Y219795D01*
X-180379Y219698D01*
X-180397Y219599D01*
X-180410Y219501D01*
X-180420Y219401D01*
X-180426Y219302D01*
X-180428Y219202D01*
X-180426Y219102D01*
X-180420Y219003D01*
X-180410Y218903D01*
X-180397Y218805D01*
X-180379Y218706D01*
X-180358Y218609D01*
X-180333Y218513D01*
X-180304Y218417D01*
X-180271Y218323D01*
X-180235Y218230D01*
X-180195Y218139D01*
X-180151Y218049D01*
X-180104Y217961D01*
X-180054Y217875D01*
X-180000Y217791D01*
X-179943Y217709D01*
X-179883Y217630D01*
X-179819Y217552D01*
X-179753Y217478D01*
X-179684Y217406D01*
X-179612Y217337D01*
X-179538Y217271D01*
X-179460Y217207D01*
X-179381Y217147D01*
X-179299Y217090D01*
X-179215Y217036D01*
X-179129Y216986D01*
X-179041Y216939D01*
X-178951Y216895D01*
X-178860Y216855D01*
X-178767Y216819D01*
X-178673Y216786D01*
X-178577Y216757D01*
X-178481Y216732D01*
X-178384Y216711D01*
X-178285Y216693D01*
X-178187Y216680D01*
X-178087Y216670D01*
X-177988Y216664D01*
X-177888Y216662D01*
X-175348Y216662D01*
X-178396Y216662D02*
X-180428Y212598D01*
X-186500Y214630D02*
X-186500Y221742D01*
X-186500Y214630D02*
X-186498Y214541D01*
X-186492Y214453D01*
X-186483Y214365D01*
X-186469Y214277D01*
X-186452Y214190D01*
X-186431Y214104D01*
X-186406Y214019D01*
X-186377Y213935D01*
X-186345Y213852D01*
X-186310Y213771D01*
X-186270Y213692D01*
X-186228Y213614D01*
X-186182Y213538D01*
X-186133Y213464D01*
X-186080Y213393D01*
X-186025Y213324D01*
X-185966Y213257D01*
X-185905Y213193D01*
X-185841Y213132D01*
X-185774Y213073D01*
X-185705Y213018D01*
X-185634Y212965D01*
X-185560Y212916D01*
X-185484Y212870D01*
X-185406Y212828D01*
X-185327Y212788D01*
X-185246Y212753D01*
X-185163Y212721D01*
X-185079Y212692D01*
X-184994Y212667D01*
X-184908Y212646D01*
X-184821Y212629D01*
X-184733Y212615D01*
X-184645Y212606D01*
X-184557Y212600D01*
X-184468Y212598D01*
X-183452Y212598D01*
D12*
X-120333Y204153D02*
X-92393Y204153D01*
X-120333Y224473D02*
X-120433Y224471D01*
X-120532Y224465D01*
X-120632Y224455D01*
X-120730Y224442D01*
X-120829Y224424D01*
X-120926Y224403D01*
X-121022Y224378D01*
X-121118Y224349D01*
X-121212Y224316D01*
X-121305Y224280D01*
X-121396Y224240D01*
X-121486Y224196D01*
X-121574Y224149D01*
X-121660Y224099D01*
X-121744Y224045D01*
X-121826Y223988D01*
X-121905Y223928D01*
X-121983Y223864D01*
X-122057Y223798D01*
X-122129Y223729D01*
X-122198Y223657D01*
X-122264Y223583D01*
X-122328Y223505D01*
X-122388Y223426D01*
X-122445Y223344D01*
X-122499Y223260D01*
X-122549Y223174D01*
X-122596Y223086D01*
X-122640Y222996D01*
X-122680Y222905D01*
X-122716Y222812D01*
X-122749Y222718D01*
X-122778Y222622D01*
X-122803Y222526D01*
X-122824Y222429D01*
X-122842Y222330D01*
X-122855Y222232D01*
X-122865Y222132D01*
X-122871Y222033D01*
X-122873Y221933D01*
X-92393Y224473D02*
X-92293Y224471D01*
X-92194Y224465D01*
X-92094Y224455D01*
X-91996Y224442D01*
X-91897Y224424D01*
X-91800Y224403D01*
X-91704Y224378D01*
X-91608Y224349D01*
X-91514Y224316D01*
X-91421Y224280D01*
X-91330Y224240D01*
X-91240Y224196D01*
X-91152Y224149D01*
X-91066Y224099D01*
X-90982Y224045D01*
X-90900Y223988D01*
X-90821Y223928D01*
X-90743Y223864D01*
X-90669Y223798D01*
X-90597Y223729D01*
X-90528Y223657D01*
X-90462Y223583D01*
X-90398Y223505D01*
X-90338Y223426D01*
X-90281Y223344D01*
X-90227Y223260D01*
X-90177Y223174D01*
X-90130Y223086D01*
X-90086Y222996D01*
X-90046Y222905D01*
X-90010Y222812D01*
X-89977Y222718D01*
X-89948Y222622D01*
X-89923Y222526D01*
X-89902Y222429D01*
X-89884Y222330D01*
X-89871Y222232D01*
X-89861Y222132D01*
X-89855Y222033D01*
X-89853Y221933D01*
X-89853Y206693D02*
X-89855Y206593D01*
X-89861Y206494D01*
X-89871Y206394D01*
X-89884Y206296D01*
X-89902Y206197D01*
X-89923Y206100D01*
X-89948Y206004D01*
X-89977Y205908D01*
X-90010Y205814D01*
X-90046Y205721D01*
X-90086Y205630D01*
X-90130Y205540D01*
X-90177Y205452D01*
X-90227Y205366D01*
X-90281Y205282D01*
X-90338Y205200D01*
X-90398Y205121D01*
X-90462Y205043D01*
X-90528Y204969D01*
X-90597Y204897D01*
X-90669Y204828D01*
X-90743Y204762D01*
X-90821Y204698D01*
X-90900Y204638D01*
X-90982Y204581D01*
X-91066Y204527D01*
X-91152Y204477D01*
X-91240Y204430D01*
X-91330Y204386D01*
X-91421Y204346D01*
X-91514Y204310D01*
X-91608Y204277D01*
X-91704Y204248D01*
X-91800Y204223D01*
X-91897Y204202D01*
X-91996Y204184D01*
X-92094Y204171D01*
X-92194Y204161D01*
X-92293Y204155D01*
X-92393Y204153D01*
X-120333Y204153D02*
X-120433Y204155D01*
X-120532Y204161D01*
X-120632Y204171D01*
X-120730Y204184D01*
X-120829Y204202D01*
X-120926Y204223D01*
X-121022Y204248D01*
X-121118Y204277D01*
X-121212Y204310D01*
X-121305Y204346D01*
X-121396Y204386D01*
X-121486Y204430D01*
X-121574Y204477D01*
X-121660Y204527D01*
X-121744Y204581D01*
X-121826Y204638D01*
X-121905Y204698D01*
X-121983Y204762D01*
X-122057Y204828D01*
X-122129Y204897D01*
X-122198Y204969D01*
X-122264Y205043D01*
X-122328Y205121D01*
X-122388Y205200D01*
X-122445Y205282D01*
X-122499Y205366D01*
X-122549Y205452D01*
X-122596Y205540D01*
X-122640Y205630D01*
X-122680Y205721D01*
X-122716Y205814D01*
X-122749Y205908D01*
X-122778Y206004D01*
X-122803Y206100D01*
X-122824Y206197D01*
X-122842Y206296D01*
X-122855Y206394D01*
X-122865Y206494D01*
X-122871Y206593D01*
X-122873Y206693D01*
X-122873Y221933D01*
X-89853Y221933D02*
X-89853Y206693D01*
X-92393Y224473D02*
X-120333Y224473D01*
D10*
X-68030Y212598D02*
X-64982Y221742D01*
X-71078Y221742D02*
X-68030Y212598D01*
X-75091Y217678D02*
X-77631Y217678D01*
X-77731Y217676D01*
X-77830Y217670D01*
X-77930Y217660D01*
X-78028Y217647D01*
X-78127Y217629D01*
X-78224Y217608D01*
X-78320Y217583D01*
X-78416Y217554D01*
X-78510Y217521D01*
X-78603Y217485D01*
X-78694Y217445D01*
X-78784Y217401D01*
X-78872Y217354D01*
X-78958Y217304D01*
X-79042Y217250D01*
X-79124Y217193D01*
X-79203Y217133D01*
X-79281Y217069D01*
X-79355Y217003D01*
X-79427Y216934D01*
X-79496Y216862D01*
X-79562Y216788D01*
X-79626Y216710D01*
X-79686Y216631D01*
X-79743Y216549D01*
X-79797Y216465D01*
X-79847Y216379D01*
X-79894Y216291D01*
X-79938Y216201D01*
X-79978Y216110D01*
X-80014Y216017D01*
X-80047Y215923D01*
X-80076Y215827D01*
X-80101Y215731D01*
X-80122Y215634D01*
X-80140Y215535D01*
X-80153Y215437D01*
X-80163Y215337D01*
X-80169Y215238D01*
X-80171Y215138D01*
X-80169Y215038D01*
X-80163Y214939D01*
X-80153Y214839D01*
X-80140Y214741D01*
X-80122Y214642D01*
X-80101Y214545D01*
X-80076Y214449D01*
X-80047Y214353D01*
X-80014Y214259D01*
X-79978Y214166D01*
X-79938Y214075D01*
X-79894Y213985D01*
X-79847Y213897D01*
X-79797Y213811D01*
X-79743Y213727D01*
X-79686Y213645D01*
X-79626Y213566D01*
X-79562Y213488D01*
X-79496Y213414D01*
X-79427Y213342D01*
X-79355Y213273D01*
X-79281Y213207D01*
X-79203Y213143D01*
X-79124Y213083D01*
X-79042Y213026D01*
X-78958Y212972D01*
X-78872Y212922D01*
X-78784Y212875D01*
X-78694Y212831D01*
X-78603Y212791D01*
X-78510Y212755D01*
X-78416Y212722D01*
X-78320Y212693D01*
X-78224Y212668D01*
X-78127Y212647D01*
X-78028Y212629D01*
X-77930Y212616D01*
X-77830Y212606D01*
X-77731Y212600D01*
X-77631Y212598D01*
X-75091Y212598D01*
X-75091Y221742D01*
X-77631Y221742D01*
X-77720Y221740D01*
X-77808Y221734D01*
X-77896Y221725D01*
X-77984Y221711D01*
X-78071Y221694D01*
X-78157Y221673D01*
X-78242Y221648D01*
X-78326Y221619D01*
X-78409Y221587D01*
X-78490Y221552D01*
X-78569Y221512D01*
X-78647Y221470D01*
X-78723Y221424D01*
X-78797Y221375D01*
X-78868Y221322D01*
X-78937Y221267D01*
X-79004Y221208D01*
X-79068Y221147D01*
X-79129Y221083D01*
X-79188Y221016D01*
X-79243Y220947D01*
X-79296Y220876D01*
X-79345Y220802D01*
X-79391Y220726D01*
X-79433Y220648D01*
X-79473Y220569D01*
X-79508Y220488D01*
X-79540Y220405D01*
X-79569Y220321D01*
X-79594Y220236D01*
X-79615Y220150D01*
X-79632Y220063D01*
X-79646Y219975D01*
X-79655Y219887D01*
X-79661Y219799D01*
X-79663Y219710D01*
X-79661Y219621D01*
X-79655Y219533D01*
X-79646Y219445D01*
X-79632Y219357D01*
X-79615Y219270D01*
X-79594Y219184D01*
X-79569Y219099D01*
X-79540Y219015D01*
X-79508Y218932D01*
X-79473Y218851D01*
X-79433Y218772D01*
X-79391Y218694D01*
X-79345Y218618D01*
X-79296Y218544D01*
X-79243Y218473D01*
X-79188Y218404D01*
X-79129Y218337D01*
X-79068Y218273D01*
X-79004Y218212D01*
X-78937Y218153D01*
X-78868Y218098D01*
X-78797Y218045D01*
X-78723Y217996D01*
X-78647Y217950D01*
X-78569Y217908D01*
X-78490Y217868D01*
X-78409Y217833D01*
X-78326Y217801D01*
X-78242Y217772D01*
X-78157Y217747D01*
X-78071Y217726D01*
X-77984Y217709D01*
X-77896Y217695D01*
X-77808Y217686D01*
X-77720Y217680D01*
X-77631Y217678D01*
X-85852Y214630D02*
X-85852Y221742D01*
X-85852Y214630D02*
X-85850Y214541D01*
X-85844Y214453D01*
X-85835Y214365D01*
X-85821Y214277D01*
X-85804Y214190D01*
X-85783Y214104D01*
X-85758Y214019D01*
X-85729Y213935D01*
X-85697Y213852D01*
X-85662Y213771D01*
X-85622Y213692D01*
X-85580Y213614D01*
X-85534Y213538D01*
X-85485Y213464D01*
X-85432Y213393D01*
X-85377Y213324D01*
X-85318Y213257D01*
X-85257Y213193D01*
X-85193Y213132D01*
X-85126Y213073D01*
X-85057Y213018D01*
X-84986Y212965D01*
X-84912Y212916D01*
X-84836Y212870D01*
X-84758Y212828D01*
X-84679Y212788D01*
X-84598Y212753D01*
X-84515Y212721D01*
X-84431Y212692D01*
X-84346Y212667D01*
X-84260Y212646D01*
X-84173Y212629D01*
X-84085Y212615D01*
X-83997Y212606D01*
X-83909Y212600D01*
X-83820Y212598D01*
X-82804Y212598D01*
D11*
X-68517Y77386D02*
X-59119Y77386D01*
X-59119Y79997D01*
X-59118Y79997D02*
X-59120Y80098D01*
X-59126Y80199D01*
X-59136Y80300D01*
X-59149Y80400D01*
X-59167Y80500D01*
X-59188Y80599D01*
X-59214Y80697D01*
X-59243Y80794D01*
X-59275Y80890D01*
X-59312Y80984D01*
X-59352Y81077D01*
X-59396Y81169D01*
X-59443Y81258D01*
X-59494Y81346D01*
X-59548Y81432D01*
X-59605Y81515D01*
X-59665Y81597D01*
X-59729Y81675D01*
X-59795Y81752D01*
X-59865Y81825D01*
X-59937Y81896D01*
X-60012Y81964D01*
X-60090Y82029D01*
X-60170Y82091D01*
X-60252Y82150D01*
X-60337Y82206D01*
X-60424Y82258D01*
X-60512Y82307D01*
X-60603Y82353D01*
X-60695Y82394D01*
X-60789Y82433D01*
X-60884Y82467D01*
X-60980Y82498D01*
X-61078Y82525D01*
X-61176Y82549D01*
X-61276Y82568D01*
X-61376Y82584D01*
X-61476Y82596D01*
X-61577Y82604D01*
X-61678Y82608D01*
X-61780Y82608D01*
X-61881Y82604D01*
X-61982Y82596D01*
X-62082Y82584D01*
X-62182Y82568D01*
X-62282Y82549D01*
X-62380Y82525D01*
X-62478Y82498D01*
X-62574Y82467D01*
X-62669Y82433D01*
X-62763Y82394D01*
X-62855Y82353D01*
X-62946Y82307D01*
X-63035Y82258D01*
X-63121Y82206D01*
X-63206Y82150D01*
X-63288Y82091D01*
X-63368Y82029D01*
X-63446Y81964D01*
X-63521Y81896D01*
X-63593Y81825D01*
X-63663Y81752D01*
X-63729Y81675D01*
X-63793Y81597D01*
X-63853Y81515D01*
X-63910Y81432D01*
X-63964Y81346D01*
X-64015Y81258D01*
X-64062Y81169D01*
X-64106Y81077D01*
X-64146Y80984D01*
X-64183Y80890D01*
X-64215Y80794D01*
X-64244Y80697D01*
X-64270Y80599D01*
X-64291Y80500D01*
X-64309Y80400D01*
X-64322Y80300D01*
X-64332Y80199D01*
X-64338Y80098D01*
X-64340Y79997D01*
X-64340Y77386D01*
X-64340Y80519D02*
X-68517Y82607D01*
X-63295Y86473D02*
X-63295Y89606D01*
X-63296Y89606D02*
X-63298Y89695D01*
X-63304Y89783D01*
X-63313Y89871D01*
X-63326Y89959D01*
X-63343Y90046D01*
X-63363Y90132D01*
X-63388Y90217D01*
X-63415Y90302D01*
X-63447Y90385D01*
X-63481Y90466D01*
X-63520Y90546D01*
X-63561Y90624D01*
X-63606Y90701D01*
X-63654Y90775D01*
X-63705Y90848D01*
X-63759Y90918D01*
X-63817Y90985D01*
X-63877Y91051D01*
X-63939Y91113D01*
X-64005Y91173D01*
X-64072Y91231D01*
X-64142Y91285D01*
X-64215Y91336D01*
X-64289Y91384D01*
X-64366Y91429D01*
X-64444Y91470D01*
X-64524Y91509D01*
X-64605Y91543D01*
X-64688Y91575D01*
X-64773Y91602D01*
X-64858Y91627D01*
X-64944Y91647D01*
X-65031Y91664D01*
X-65119Y91677D01*
X-65207Y91686D01*
X-65295Y91692D01*
X-65384Y91694D01*
X-65906Y91694D01*
X-66007Y91692D01*
X-66108Y91686D01*
X-66209Y91676D01*
X-66309Y91663D01*
X-66409Y91645D01*
X-66508Y91624D01*
X-66606Y91598D01*
X-66703Y91569D01*
X-66799Y91537D01*
X-66893Y91500D01*
X-66986Y91460D01*
X-67078Y91416D01*
X-67167Y91369D01*
X-67255Y91318D01*
X-67341Y91264D01*
X-67424Y91207D01*
X-67506Y91147D01*
X-67584Y91083D01*
X-67661Y91017D01*
X-67734Y90947D01*
X-67805Y90875D01*
X-67873Y90800D01*
X-67938Y90722D01*
X-68000Y90642D01*
X-68059Y90560D01*
X-68115Y90475D01*
X-68167Y90389D01*
X-68216Y90300D01*
X-68262Y90209D01*
X-68303Y90117D01*
X-68342Y90023D01*
X-68376Y89928D01*
X-68407Y89832D01*
X-68434Y89734D01*
X-68458Y89636D01*
X-68477Y89536D01*
X-68493Y89436D01*
X-68505Y89336D01*
X-68513Y89235D01*
X-68517Y89134D01*
X-68517Y89032D01*
X-68513Y88931D01*
X-68505Y88830D01*
X-68493Y88730D01*
X-68477Y88630D01*
X-68458Y88530D01*
X-68434Y88432D01*
X-68407Y88334D01*
X-68376Y88238D01*
X-68342Y88143D01*
X-68303Y88049D01*
X-68262Y87957D01*
X-68216Y87866D01*
X-68167Y87778D01*
X-68115Y87691D01*
X-68059Y87606D01*
X-68000Y87524D01*
X-67938Y87444D01*
X-67873Y87366D01*
X-67805Y87291D01*
X-67734Y87219D01*
X-67661Y87149D01*
X-67584Y87083D01*
X-67506Y87019D01*
X-67424Y86959D01*
X-67341Y86902D01*
X-67255Y86848D01*
X-67167Y86797D01*
X-67078Y86750D01*
X-66986Y86706D01*
X-66893Y86666D01*
X-66799Y86629D01*
X-66703Y86597D01*
X-66606Y86568D01*
X-66508Y86542D01*
X-66409Y86521D01*
X-66309Y86503D01*
X-66209Y86490D01*
X-66108Y86480D01*
X-66007Y86474D01*
X-65906Y86472D01*
X-65906Y86473D02*
X-63295Y86473D01*
X-63166Y86475D01*
X-63038Y86481D01*
X-62910Y86491D01*
X-62782Y86505D01*
X-62654Y86522D01*
X-62527Y86544D01*
X-62401Y86570D01*
X-62276Y86599D01*
X-62152Y86632D01*
X-62029Y86670D01*
X-61907Y86710D01*
X-61786Y86755D01*
X-61667Y86803D01*
X-61549Y86855D01*
X-61433Y86911D01*
X-61319Y86970D01*
X-61207Y87033D01*
X-61096Y87099D01*
X-60988Y87168D01*
X-60882Y87241D01*
X-60778Y87317D01*
X-60676Y87396D01*
X-60577Y87478D01*
X-60481Y87563D01*
X-60387Y87651D01*
X-60296Y87742D01*
X-60208Y87836D01*
X-60123Y87932D01*
X-60041Y88031D01*
X-59962Y88133D01*
X-59886Y88237D01*
X-59813Y88343D01*
X-59744Y88451D01*
X-59678Y88561D01*
X-59615Y88674D01*
X-59556Y88788D01*
X-59500Y88904D01*
X-59448Y89022D01*
X-59400Y89141D01*
X-59355Y89262D01*
X-59315Y89384D01*
X-59277Y89507D01*
X-59244Y89631D01*
X-59215Y89756D01*
X-59189Y89882D01*
X-59167Y90009D01*
X-59150Y90137D01*
X-59136Y90265D01*
X-59126Y90393D01*
X-59120Y90521D01*
X-59118Y90650D01*
D10*
X-233430Y136015D02*
X-233430Y162435D01*
X-249170Y162435D02*
X-249170Y136015D01*
X-233430Y136015D01*
X-233430Y162435D02*
X-249170Y162435D01*
D13*
X-241400Y154725D02*
X-246400Y144725D01*
X-236400Y144725D01*
X-241400Y154725D01*
X-246400Y154725D01*
X-241400Y154725D02*
X-236400Y154725D01*
D11*
X-229807Y140081D02*
X-220409Y140081D01*
X-220409Y142692D01*
X-220408Y142692D02*
X-220410Y142792D01*
X-220416Y142892D01*
X-220425Y142991D01*
X-220439Y143091D01*
X-220456Y143189D01*
X-220477Y143287D01*
X-220501Y143384D01*
X-220530Y143480D01*
X-220562Y143575D01*
X-220597Y143668D01*
X-220636Y143760D01*
X-220679Y143851D01*
X-220725Y143939D01*
X-220775Y144026D01*
X-220827Y144111D01*
X-220883Y144194D01*
X-220942Y144275D01*
X-221005Y144353D01*
X-221070Y144429D01*
X-221138Y144503D01*
X-221208Y144573D01*
X-221282Y144641D01*
X-221358Y144706D01*
X-221436Y144769D01*
X-221517Y144828D01*
X-221600Y144884D01*
X-221685Y144936D01*
X-221772Y144986D01*
X-221860Y145032D01*
X-221951Y145075D01*
X-222043Y145114D01*
X-222136Y145149D01*
X-222231Y145181D01*
X-222327Y145210D01*
X-222424Y145234D01*
X-222522Y145255D01*
X-222620Y145272D01*
X-222720Y145286D01*
X-222819Y145295D01*
X-222919Y145301D01*
X-223019Y145303D01*
X-223019Y145302D02*
X-227196Y145302D01*
X-227196Y145303D02*
X-227296Y145301D01*
X-227396Y145295D01*
X-227495Y145286D01*
X-227595Y145272D01*
X-227693Y145255D01*
X-227791Y145234D01*
X-227888Y145210D01*
X-227984Y145181D01*
X-228079Y145149D01*
X-228172Y145114D01*
X-228264Y145075D01*
X-228355Y145032D01*
X-228443Y144986D01*
X-228530Y144936D01*
X-228615Y144884D01*
X-228698Y144828D01*
X-228779Y144769D01*
X-228857Y144706D01*
X-228933Y144641D01*
X-229007Y144573D01*
X-229077Y144503D01*
X-229145Y144429D01*
X-229210Y144353D01*
X-229273Y144275D01*
X-229332Y144194D01*
X-229388Y144111D01*
X-229440Y144026D01*
X-229490Y143939D01*
X-229536Y143851D01*
X-229579Y143760D01*
X-229618Y143668D01*
X-229653Y143575D01*
X-229685Y143480D01*
X-229714Y143384D01*
X-229738Y143287D01*
X-229759Y143189D01*
X-229776Y143091D01*
X-229790Y142991D01*
X-229799Y142892D01*
X-229805Y142792D01*
X-229807Y142692D01*
X-229807Y140081D01*
X-220408Y152401D02*
X-220410Y152496D01*
X-220416Y152590D01*
X-220425Y152684D01*
X-220438Y152778D01*
X-220455Y152871D01*
X-220476Y152963D01*
X-220501Y153055D01*
X-220529Y153145D01*
X-220561Y153234D01*
X-220596Y153322D01*
X-220635Y153408D01*
X-220677Y153493D01*
X-220723Y153576D01*
X-220772Y153657D01*
X-220824Y153736D01*
X-220879Y153813D01*
X-220938Y153887D01*
X-220999Y153959D01*
X-221063Y154029D01*
X-221130Y154096D01*
X-221200Y154160D01*
X-221272Y154221D01*
X-221346Y154280D01*
X-221423Y154335D01*
X-221502Y154387D01*
X-221583Y154436D01*
X-221666Y154482D01*
X-221751Y154524D01*
X-221837Y154563D01*
X-221925Y154598D01*
X-222014Y154630D01*
X-222104Y154658D01*
X-222196Y154683D01*
X-222288Y154704D01*
X-222381Y154721D01*
X-222475Y154734D01*
X-222569Y154743D01*
X-222663Y154749D01*
X-222758Y154751D01*
X-220409Y152401D02*
X-220411Y152293D01*
X-220417Y152184D01*
X-220427Y152076D01*
X-220440Y151969D01*
X-220458Y151862D01*
X-220479Y151755D01*
X-220504Y151650D01*
X-220533Y151545D01*
X-220565Y151442D01*
X-220602Y151340D01*
X-220642Y151239D01*
X-220685Y151140D01*
X-220732Y151042D01*
X-220783Y150946D01*
X-220837Y150852D01*
X-220894Y150760D01*
X-220955Y150670D01*
X-221019Y150582D01*
X-221085Y150497D01*
X-221155Y150414D01*
X-221228Y150334D01*
X-221304Y150256D01*
X-221382Y150181D01*
X-221463Y150109D01*
X-221547Y150040D01*
X-221633Y149974D01*
X-221721Y149911D01*
X-221812Y149852D01*
X-221904Y149795D01*
X-221999Y149742D01*
X-222096Y149693D01*
X-222194Y149647D01*
X-222293Y149604D01*
X-222395Y149565D01*
X-222497Y149530D01*
X-224586Y153968D02*
X-224517Y154037D01*
X-224446Y154103D01*
X-224373Y154167D01*
X-224297Y154228D01*
X-224218Y154286D01*
X-224138Y154340D01*
X-224055Y154392D01*
X-223971Y154440D01*
X-223885Y154486D01*
X-223797Y154527D01*
X-223707Y154566D01*
X-223616Y154601D01*
X-223524Y154632D01*
X-223431Y154660D01*
X-223337Y154684D01*
X-223242Y154704D01*
X-223146Y154721D01*
X-223049Y154734D01*
X-222952Y154743D01*
X-222855Y154749D01*
X-222758Y154751D01*
X-224585Y153968D02*
X-229807Y149530D01*
X-229807Y154751D01*
X72644Y209931D02*
X72644Y219329D01*
X70033Y219329D01*
X69932Y219327D01*
X69831Y219321D01*
X69730Y219311D01*
X69630Y219298D01*
X69530Y219280D01*
X69431Y219259D01*
X69333Y219233D01*
X69236Y219204D01*
X69140Y219172D01*
X69046Y219135D01*
X68953Y219095D01*
X68861Y219051D01*
X68772Y219004D01*
X68684Y218953D01*
X68598Y218899D01*
X68515Y218842D01*
X68433Y218782D01*
X68355Y218718D01*
X68278Y218652D01*
X68205Y218582D01*
X68134Y218510D01*
X68066Y218435D01*
X68001Y218357D01*
X67939Y218277D01*
X67880Y218195D01*
X67824Y218110D01*
X67772Y218024D01*
X67723Y217935D01*
X67677Y217844D01*
X67636Y217752D01*
X67597Y217658D01*
X67563Y217563D01*
X67532Y217467D01*
X67505Y217369D01*
X67481Y217271D01*
X67462Y217171D01*
X67446Y217071D01*
X67434Y216971D01*
X67426Y216870D01*
X67422Y216769D01*
X67422Y216667D01*
X67426Y216566D01*
X67434Y216465D01*
X67446Y216365D01*
X67462Y216265D01*
X67481Y216165D01*
X67505Y216067D01*
X67532Y215969D01*
X67563Y215873D01*
X67597Y215778D01*
X67636Y215684D01*
X67677Y215592D01*
X67723Y215501D01*
X67772Y215413D01*
X67824Y215326D01*
X67880Y215241D01*
X67939Y215159D01*
X68001Y215079D01*
X68066Y215001D01*
X68134Y214926D01*
X68205Y214854D01*
X68278Y214784D01*
X68355Y214718D01*
X68433Y214654D01*
X68515Y214594D01*
X68598Y214537D01*
X68684Y214483D01*
X68772Y214432D01*
X68861Y214385D01*
X68953Y214341D01*
X69046Y214301D01*
X69140Y214264D01*
X69236Y214232D01*
X69333Y214203D01*
X69431Y214177D01*
X69530Y214156D01*
X69630Y214138D01*
X69730Y214125D01*
X69831Y214115D01*
X69932Y214109D01*
X70033Y214107D01*
X70033Y214108D02*
X72644Y214108D01*
X69511Y214108D02*
X67423Y209931D01*
X63557Y218285D02*
X63557Y219329D01*
X58336Y219329D01*
X60947Y209931D01*
M02*
