G04 EAGLE Gerber RS-274X export*
G75*
%MOMM*%
%FSLAX34Y34*%
%LPD*%
%INSoldermask Top*%
%IPPOS*%
%AMOC8*
5,1,8,0,0,1.08239X$1,22.5*%
G01*
%ADD10R,1.603197X0.603200*%
%ADD11R,0.503200X0.753200*%
%ADD12R,5.803200X5.803200*%
%ADD13R,1.003200X1.003200*%
%ADD14C,1.727200*%
%ADD15R,1.403200X0.753200*%
%ADD16C,1.727200*%
%ADD17R,1.553200X0.603200*%
%ADD18R,2.103200X2.003200*%
%ADD19R,2.103200X2.103200*%
%ADD20C,0.753200*%


D10*
G36*
X-41955Y154673D02*
X-53290Y166008D01*
X-49025Y170273D01*
X-37690Y158938D01*
X-41955Y154673D01*
G37*
G36*
X-50440Y146188D02*
X-61775Y157523D01*
X-57510Y161788D01*
X-46175Y150453D01*
X-50440Y146188D01*
G37*
G36*
X-58925Y137702D02*
X-70260Y149037D01*
X-65995Y153302D01*
X-54660Y141967D01*
X-58925Y137702D01*
G37*
D11*
G36*
X-8565Y158534D02*
X-5006Y162093D01*
X319Y156768D01*
X-3240Y153209D01*
X-8565Y158534D01*
G37*
G36*
X-12101Y154997D02*
X-8542Y158556D01*
X-3217Y153231D01*
X-6776Y149672D01*
X-12101Y154997D01*
G37*
G36*
X-15638Y151460D02*
X-12079Y155019D01*
X-6754Y149694D01*
X-10313Y146135D01*
X-15638Y151460D01*
G37*
G36*
X-19174Y147924D02*
X-15615Y151483D01*
X-10290Y146158D01*
X-13849Y142599D01*
X-19174Y147924D01*
G37*
G36*
X-22710Y144388D02*
X-19151Y147947D01*
X-13826Y142622D01*
X-17385Y139063D01*
X-22710Y144388D01*
G37*
G36*
X-26246Y140852D02*
X-22687Y144411D01*
X-17362Y139086D01*
X-20921Y135527D01*
X-26246Y140852D01*
G37*
G36*
X-29783Y137315D02*
X-26224Y140874D01*
X-20899Y135549D01*
X-24458Y131990D01*
X-29783Y137315D01*
G37*
G36*
X-33320Y133778D02*
X-29761Y137337D01*
X-24436Y132012D01*
X-27995Y128453D01*
X-33320Y133778D01*
G37*
G36*
X-36856Y130242D02*
X-33297Y133801D01*
X-27972Y128476D01*
X-31531Y124917D01*
X-36856Y130242D01*
G37*
G36*
X-40392Y126706D02*
X-36833Y130265D01*
X-31508Y124940D01*
X-35067Y121381D01*
X-40392Y126706D01*
G37*
G36*
X-43929Y123169D02*
X-40370Y126728D01*
X-35045Y121403D01*
X-38604Y117844D01*
X-43929Y123169D01*
G37*
G36*
X-47465Y119633D02*
X-43906Y123192D01*
X-38581Y117867D01*
X-42140Y114308D01*
X-47465Y119633D01*
G37*
G36*
X-42140Y114292D02*
X-38581Y110733D01*
X-43906Y105408D01*
X-47465Y108967D01*
X-42140Y114292D01*
G37*
G36*
X-38604Y110756D02*
X-35045Y107197D01*
X-40370Y101872D01*
X-43929Y105431D01*
X-38604Y110756D01*
G37*
G36*
X-35067Y107219D02*
X-31508Y103660D01*
X-36833Y98335D01*
X-40392Y101894D01*
X-35067Y107219D01*
G37*
G36*
X-31531Y103683D02*
X-27972Y100124D01*
X-33297Y94799D01*
X-36856Y98358D01*
X-31531Y103683D01*
G37*
G36*
X-27995Y100147D02*
X-24436Y96588D01*
X-29761Y91263D01*
X-33320Y94822D01*
X-27995Y100147D01*
G37*
G36*
X-24458Y96610D02*
X-20899Y93051D01*
X-26224Y87726D01*
X-29783Y91285D01*
X-24458Y96610D01*
G37*
G36*
X-20921Y93073D02*
X-17362Y89514D01*
X-22687Y84189D01*
X-26246Y87748D01*
X-20921Y93073D01*
G37*
G36*
X-17385Y89537D02*
X-13826Y85978D01*
X-19151Y80653D01*
X-22710Y84212D01*
X-17385Y89537D01*
G37*
G36*
X-13849Y86001D02*
X-10290Y82442D01*
X-15615Y77117D01*
X-19174Y80676D01*
X-13849Y86001D01*
G37*
G36*
X-10313Y82465D02*
X-6754Y78906D01*
X-12079Y73581D01*
X-15638Y77140D01*
X-10313Y82465D01*
G37*
G36*
X-6776Y78928D02*
X-3217Y75369D01*
X-8542Y70044D01*
X-12101Y73603D01*
X-6776Y78928D01*
G37*
G36*
X-3240Y75391D02*
X319Y71832D01*
X-5006Y66507D01*
X-8565Y70066D01*
X-3240Y75391D01*
G37*
G36*
X335Y71832D02*
X3894Y75391D01*
X9219Y70066D01*
X5660Y66507D01*
X335Y71832D01*
G37*
G36*
X3871Y75369D02*
X7430Y78928D01*
X12755Y73603D01*
X9196Y70044D01*
X3871Y75369D01*
G37*
G36*
X7408Y78906D02*
X10967Y82465D01*
X16292Y77140D01*
X12733Y73581D01*
X7408Y78906D01*
G37*
G36*
X10945Y82442D02*
X14504Y86001D01*
X19829Y80676D01*
X16270Y77117D01*
X10945Y82442D01*
G37*
G36*
X14481Y85978D02*
X18040Y89537D01*
X23365Y84212D01*
X19806Y80653D01*
X14481Y85978D01*
G37*
G36*
X18017Y89514D02*
X21576Y93073D01*
X26901Y87748D01*
X23342Y84189D01*
X18017Y89514D01*
G37*
G36*
X21554Y93051D02*
X25113Y96610D01*
X30438Y91285D01*
X26879Y87726D01*
X21554Y93051D01*
G37*
G36*
X25090Y96588D02*
X28649Y100147D01*
X33974Y94822D01*
X30415Y91263D01*
X25090Y96588D01*
G37*
G36*
X28626Y100124D02*
X32185Y103683D01*
X37510Y98358D01*
X33951Y94799D01*
X28626Y100124D01*
G37*
G36*
X32163Y103660D02*
X35722Y107219D01*
X41047Y101894D01*
X37488Y98335D01*
X32163Y103660D01*
G37*
G36*
X35700Y107197D02*
X39259Y110756D01*
X44584Y105431D01*
X41025Y101872D01*
X35700Y107197D01*
G37*
G36*
X39236Y110733D02*
X42795Y114292D01*
X48120Y108967D01*
X44561Y105408D01*
X39236Y110733D01*
G37*
G36*
X44561Y123192D02*
X48120Y119633D01*
X42795Y114308D01*
X39236Y117867D01*
X44561Y123192D01*
G37*
G36*
X41025Y126728D02*
X44584Y123169D01*
X39259Y117844D01*
X35700Y121403D01*
X41025Y126728D01*
G37*
G36*
X37488Y130265D02*
X41047Y126706D01*
X35722Y121381D01*
X32163Y124940D01*
X37488Y130265D01*
G37*
G36*
X33951Y133801D02*
X37510Y130242D01*
X32185Y124917D01*
X28626Y128476D01*
X33951Y133801D01*
G37*
G36*
X30415Y137337D02*
X33974Y133778D01*
X28649Y128453D01*
X25090Y132012D01*
X30415Y137337D01*
G37*
G36*
X26879Y140874D02*
X30438Y137315D01*
X25113Y131990D01*
X21554Y135549D01*
X26879Y140874D01*
G37*
G36*
X23342Y144411D02*
X26901Y140852D01*
X21576Y135527D01*
X18017Y139086D01*
X23342Y144411D01*
G37*
G36*
X19806Y147947D02*
X23365Y144388D01*
X18040Y139063D01*
X14481Y142622D01*
X19806Y147947D01*
G37*
G36*
X16270Y151483D02*
X19829Y147924D01*
X14504Y142599D01*
X10945Y146158D01*
X16270Y151483D01*
G37*
G36*
X12733Y155019D02*
X16292Y151460D01*
X10967Y146135D01*
X7408Y149694D01*
X12733Y155019D01*
G37*
G36*
X9196Y158556D02*
X12755Y154997D01*
X7430Y149672D01*
X3871Y153231D01*
X9196Y158556D01*
G37*
G36*
X5660Y162093D02*
X9219Y158534D01*
X3894Y153209D01*
X335Y156768D01*
X5660Y162093D01*
G37*
D12*
G36*
X327Y73266D02*
X-40707Y114300D01*
X327Y155334D01*
X41361Y114300D01*
X327Y73266D01*
G37*
D13*
X-173475Y168275D03*
X-188475Y168275D03*
D14*
X227330Y165100D02*
X242570Y165100D01*
X242570Y139700D02*
X227330Y139700D01*
X227330Y114300D02*
X242570Y114300D01*
X242570Y88900D02*
X227330Y88900D01*
X227330Y63500D02*
X242570Y63500D01*
D15*
X-154288Y114275D03*
X-154288Y104775D03*
X-154288Y95275D03*
X-128288Y95275D03*
X-128288Y114275D03*
D16*
X172212Y125032D03*
X172212Y170244D03*
X107188Y125032D03*
X107188Y170244D03*
D17*
X-212963Y114300D03*
X-212963Y107800D03*
X-212963Y120800D03*
X-212963Y127300D03*
X-212963Y101300D03*
D18*
X-239713Y74300D03*
D19*
X-239713Y102300D03*
X-239713Y126300D03*
D18*
X-239713Y154300D03*
D20*
X-215213Y135050D03*
X-215213Y93550D03*
D16*
X241300Y36513D03*
X215900Y36513D03*
X190500Y36513D03*
X165100Y36513D03*
X139700Y36513D03*
X114300Y36513D03*
X88900Y36513D03*
X63500Y36513D03*
X38100Y36513D03*
X12700Y36513D03*
X-12700Y36513D03*
X-38100Y36513D03*
X-63500Y36513D03*
X-88900Y36513D03*
X-114300Y36513D03*
X-139700Y36513D03*
X-165100Y36513D03*
X-190500Y36513D03*
X-215900Y36513D03*
X-241300Y36513D03*
X-241300Y192088D03*
X-215900Y192088D03*
X-190500Y192088D03*
X-165100Y192088D03*
X-139700Y192088D03*
X-114300Y192088D03*
X-88900Y192088D03*
X-63500Y192088D03*
X-38100Y192088D03*
X-12700Y192088D03*
X12700Y192088D03*
X38100Y192088D03*
X63500Y192088D03*
X88900Y192088D03*
X114300Y192088D03*
X139700Y192088D03*
X165100Y192088D03*
X190500Y192088D03*
X215900Y192088D03*
X241300Y192088D03*
X106998Y103569D03*
X106998Y58357D03*
X172022Y103569D03*
X172022Y58357D03*
D13*
X46010Y170985D03*
X61010Y170985D03*
M02*
