G04 EAGLE Gerber RS-274X export*
G75*
%MOMM*%
%FSLAX34Y34*%
%LPD*%
%INSoldermask Bottom*%
%IPPOS*%
%AMOC8*
5,1,8,0,0,1.08239X$1,22.5*%
G01*
%ADD10R,1.203200X1.303200*%
%ADD11R,1.703200X1.503200*%
%ADD12R,1.303200X1.203200*%
%ADD13C,1.727200*%
%ADD14R,1.503200X1.703200*%
%ADD15C,1.727200*%
%ADD16C,0.753200*%
%ADD17R,1.371600X1.803400*%
%ADD18R,0.152400X1.828800*%
%ADD19R,1.003200X1.803200*%


D10*
X-23813Y164075D03*
X-23813Y147075D03*
D11*
X-6350Y165075D03*
X-6350Y146075D03*
D10*
X-38100Y164075D03*
X-38100Y147075D03*
D11*
X-52388Y165075D03*
X-52388Y146075D03*
D10*
X-169300Y171450D03*
X-186300Y171450D03*
X-86288Y152400D03*
X-69288Y152400D03*
X-169300Y155575D03*
X-186300Y155575D03*
D12*
X79375Y138675D03*
X79375Y121675D03*
D13*
X227330Y165100D02*
X242570Y165100D01*
X242570Y139700D02*
X227330Y139700D01*
X227330Y114300D02*
X242570Y114300D01*
X242570Y88900D02*
X227330Y88900D01*
X227330Y63500D02*
X242570Y63500D01*
D12*
X-131200Y95250D03*
X-148200Y95250D03*
D14*
X-130200Y136525D03*
X-149200Y136525D03*
D10*
X204788Y164075D03*
X204788Y147075D03*
X-131200Y65088D03*
X-148200Y65088D03*
X-131200Y80963D03*
X-148200Y80963D03*
D15*
X172212Y125032D03*
X172212Y170244D03*
X107188Y125032D03*
X107188Y170244D03*
D16*
X-215213Y135050D03*
X-215213Y93550D03*
D11*
X-180975Y122263D03*
X-180975Y141263D03*
D12*
X-131200Y111125D03*
X-148200Y111125D03*
D14*
X-130200Y153988D03*
X-149200Y153988D03*
D12*
X-131200Y122238D03*
X-148200Y122238D03*
D10*
X-168275Y123263D03*
X-168275Y140263D03*
D15*
X241300Y36513D03*
X215900Y36513D03*
X190500Y36513D03*
X165100Y36513D03*
X139700Y36513D03*
X114300Y36513D03*
X88900Y36513D03*
X63500Y36513D03*
X38100Y36513D03*
X12700Y36513D03*
X-12700Y36513D03*
X-38100Y36513D03*
X-63500Y36513D03*
X-88900Y36513D03*
X-114300Y36513D03*
X-139700Y36513D03*
X-165100Y36513D03*
X-190500Y36513D03*
X-215900Y36513D03*
X-241300Y36513D03*
X-241300Y192088D03*
X-215900Y192088D03*
X-190500Y192088D03*
X-165100Y192088D03*
X-139700Y192088D03*
X-114300Y192088D03*
X-88900Y192088D03*
X-63500Y192088D03*
X-38100Y192088D03*
X-12700Y192088D03*
X12700Y192088D03*
X38100Y192088D03*
X63500Y192088D03*
X88900Y192088D03*
X114300Y192088D03*
X139700Y192088D03*
X165100Y192088D03*
X190500Y192088D03*
X215900Y192088D03*
X241300Y192088D03*
X106998Y103569D03*
X106998Y58357D03*
X172022Y103569D03*
X172022Y58357D03*
D10*
X-46038Y116450D03*
X-46038Y99450D03*
D17*
X-136843Y214313D03*
X-152083Y214313D03*
D18*
X-144463Y214313D03*
D17*
X-98743Y214313D03*
X-113983Y214313D03*
D18*
X-106363Y214313D03*
D12*
X-61913Y116450D03*
X-61913Y99450D03*
D19*
X-241300Y132225D03*
X-241300Y166225D03*
D10*
X51363Y215900D03*
X34363Y215900D03*
M02*
