G04 EAGLE Gerber RS-274X export*
G75*
%MOMM*%
%FSLAX34Y34*%
%LPD*%
%INBottom Copper*%
%IPPOS*%
%AMOC8*
5,1,8,0,0,1.08239X$1,22.5*%
G01*
%ADD10R,1.100000X1.000000*%
%ADD11R,1.300000X1.500000*%
%ADD12R,1.000000X1.100000*%
%ADD13C,1.524000*%
%ADD14P,1.649562X8X22.500000*%
%ADD15C,1.524000*%
%ADD16C,0.304800*%
%ADD17C,0.756400*%
%ADD18C,0.406400*%
%ADD19C,0.609600*%
%ADD20C,0.508000*%
%ADD21C,0.254000*%

G36*
X763770Y32641D02*
X763770Y32641D01*
X763780Y32640D01*
X763970Y32661D01*
X764160Y32680D01*
X764170Y32683D01*
X764181Y32684D01*
X764362Y32742D01*
X764545Y32798D01*
X764554Y32803D01*
X764564Y32806D01*
X764730Y32898D01*
X764899Y32990D01*
X764907Y32996D01*
X764916Y33002D01*
X765062Y33125D01*
X765208Y33247D01*
X765215Y33256D01*
X765223Y33263D01*
X765341Y33413D01*
X765460Y33561D01*
X765465Y33571D01*
X765472Y33579D01*
X765558Y33750D01*
X765646Y33918D01*
X765649Y33929D01*
X765653Y33938D01*
X765704Y34122D01*
X765757Y34305D01*
X765758Y34316D01*
X765761Y34326D01*
X765790Y34657D01*
X765943Y56452D01*
X765941Y56468D01*
X765943Y56484D01*
X765923Y56670D01*
X765906Y56853D01*
X765901Y56868D01*
X765899Y56884D01*
X765843Y57062D01*
X765790Y57239D01*
X765783Y57253D01*
X765778Y57268D01*
X765688Y57430D01*
X765601Y57594D01*
X765591Y57606D01*
X765583Y57620D01*
X765463Y57762D01*
X765345Y57905D01*
X765333Y57915D01*
X765322Y57927D01*
X765176Y58043D01*
X765033Y58159D01*
X765019Y58167D01*
X765007Y58177D01*
X764841Y58261D01*
X764677Y58347D01*
X764662Y58352D01*
X764648Y58359D01*
X764468Y58409D01*
X764291Y58462D01*
X764275Y58463D01*
X764260Y58467D01*
X764073Y58481D01*
X763890Y58497D01*
X763874Y58496D01*
X763858Y58497D01*
X763673Y58473D01*
X763490Y58453D01*
X763475Y58448D01*
X763459Y58446D01*
X763283Y58387D01*
X763106Y58331D01*
X763092Y58323D01*
X763077Y58318D01*
X762915Y58225D01*
X762754Y58136D01*
X762742Y58125D01*
X762728Y58117D01*
X762475Y57902D01*
X761262Y56689D01*
X757621Y55181D01*
X754129Y55181D01*
X754103Y55178D01*
X754076Y55180D01*
X753902Y55158D01*
X753728Y55141D01*
X753703Y55133D01*
X753676Y55130D01*
X753511Y55074D01*
X753344Y55023D01*
X753320Y55010D01*
X753295Y55001D01*
X753143Y54914D01*
X752990Y54831D01*
X752969Y54814D01*
X752946Y54801D01*
X752693Y54586D01*
X744384Y46277D01*
X742424Y45465D01*
X645051Y45465D01*
X643091Y46277D01*
X641304Y48064D01*
X637335Y52033D01*
X636523Y53993D01*
X636523Y54586D01*
X636522Y54599D01*
X636523Y54612D01*
X636502Y54799D01*
X636483Y54986D01*
X636479Y54999D01*
X636478Y55013D01*
X636420Y55192D01*
X636365Y55371D01*
X636359Y55383D01*
X636355Y55396D01*
X636263Y55561D01*
X636173Y55725D01*
X636165Y55736D01*
X636158Y55747D01*
X636036Y55890D01*
X635916Y56035D01*
X635905Y56043D01*
X635897Y56053D01*
X635749Y56169D01*
X635602Y56287D01*
X635590Y56293D01*
X635580Y56301D01*
X635411Y56386D01*
X635245Y56472D01*
X635232Y56476D01*
X635220Y56482D01*
X635039Y56532D01*
X634858Y56584D01*
X634844Y56585D01*
X634831Y56588D01*
X634643Y56601D01*
X634456Y56617D01*
X634443Y56615D01*
X634430Y56616D01*
X634242Y56592D01*
X634057Y56570D01*
X634044Y56566D01*
X634031Y56564D01*
X633715Y56462D01*
X630621Y55181D01*
X626679Y55181D01*
X623038Y56689D01*
X620251Y59476D01*
X618743Y63117D01*
X618743Y67058D01*
X620251Y70699D01*
X623038Y73486D01*
X626679Y74994D01*
X630621Y74994D01*
X634347Y73451D01*
X634383Y73421D01*
X634391Y73417D01*
X634398Y73411D01*
X634568Y73323D01*
X634739Y73232D01*
X634747Y73230D01*
X634755Y73226D01*
X634940Y73173D01*
X635124Y73118D01*
X635134Y73117D01*
X635142Y73114D01*
X635333Y73099D01*
X635525Y73081D01*
X635535Y73082D01*
X635544Y73081D01*
X635733Y73104D01*
X635926Y73124D01*
X635934Y73127D01*
X635943Y73128D01*
X636125Y73188D01*
X636310Y73246D01*
X636318Y73250D01*
X636326Y73253D01*
X636494Y73348D01*
X636662Y73441D01*
X636669Y73447D01*
X636677Y73451D01*
X636821Y73576D01*
X636969Y73701D01*
X636975Y73708D01*
X636982Y73714D01*
X637099Y73866D01*
X637219Y74017D01*
X637223Y74025D01*
X637228Y74032D01*
X637314Y74205D01*
X637401Y74376D01*
X637404Y74385D01*
X637408Y74393D01*
X637458Y74579D01*
X637509Y74764D01*
X637510Y74773D01*
X637512Y74782D01*
X637539Y75112D01*
X637539Y82737D01*
X637537Y82764D01*
X637539Y82791D01*
X637517Y82965D01*
X637499Y83138D01*
X637492Y83164D01*
X637488Y83190D01*
X637433Y83356D01*
X637381Y83523D01*
X637368Y83547D01*
X637360Y83572D01*
X637273Y83723D01*
X637189Y83877D01*
X637172Y83897D01*
X637159Y83921D01*
X636944Y84174D01*
X620952Y100166D01*
X620140Y102126D01*
X620140Y115679D01*
X620137Y115710D01*
X620139Y115742D01*
X620117Y115911D01*
X620100Y116080D01*
X620091Y116110D01*
X620087Y116141D01*
X619986Y116457D01*
X619406Y117855D01*
X619406Y120270D01*
X620330Y122500D01*
X620561Y122731D01*
X620578Y122752D01*
X620599Y122769D01*
X620706Y122908D01*
X620816Y123043D01*
X620829Y123066D01*
X620845Y123088D01*
X620923Y123244D01*
X621005Y123398D01*
X621013Y123424D01*
X621025Y123448D01*
X621070Y123617D01*
X621120Y123784D01*
X621122Y123811D01*
X621129Y123837D01*
X621156Y124168D01*
X621156Y125413D01*
X621154Y125430D01*
X621156Y125448D01*
X621135Y125630D01*
X621116Y125813D01*
X621111Y125830D01*
X621109Y125848D01*
X621052Y126022D01*
X620998Y126198D01*
X620990Y126214D01*
X620984Y126231D01*
X620894Y126391D01*
X620806Y126552D01*
X620795Y126566D01*
X620786Y126581D01*
X620666Y126721D01*
X620549Y126861D01*
X620535Y126873D01*
X620523Y126886D01*
X620378Y126999D01*
X620235Y127114D01*
X620219Y127122D01*
X620205Y127133D01*
X620040Y127215D01*
X619878Y127299D01*
X619861Y127304D01*
X619845Y127312D01*
X619667Y127360D01*
X619491Y127411D01*
X619473Y127412D01*
X619456Y127417D01*
X619125Y127444D01*
X606105Y127444D01*
X606096Y127443D01*
X606087Y127444D01*
X605895Y127423D01*
X605704Y127404D01*
X605695Y127401D01*
X605686Y127400D01*
X605503Y127342D01*
X605319Y127286D01*
X605311Y127281D01*
X605303Y127279D01*
X605133Y127185D01*
X604965Y127094D01*
X604958Y127088D01*
X604950Y127084D01*
X604802Y126959D01*
X604656Y126836D01*
X604650Y126829D01*
X604643Y126823D01*
X604523Y126671D01*
X604403Y126522D01*
X604399Y126515D01*
X604394Y126508D01*
X604306Y126335D01*
X604218Y126165D01*
X604215Y126157D01*
X604211Y126149D01*
X604160Y125963D01*
X604106Y125778D01*
X604106Y125769D01*
X604103Y125761D01*
X604089Y125568D01*
X604074Y125377D01*
X604075Y125368D01*
X604074Y125359D01*
X604098Y125168D01*
X604121Y124977D01*
X604123Y124969D01*
X604124Y124960D01*
X604186Y124778D01*
X604245Y124594D01*
X604250Y124587D01*
X604253Y124578D01*
X604349Y124411D01*
X604443Y124244D01*
X604449Y124237D01*
X604454Y124229D01*
X604668Y123976D01*
X605220Y123425D01*
X606144Y121194D01*
X606144Y118780D01*
X605220Y116549D01*
X603513Y114842D01*
X603298Y114753D01*
X603279Y114743D01*
X603257Y114736D01*
X603101Y114648D01*
X602943Y114563D01*
X602926Y114549D01*
X602907Y114538D01*
X602771Y114421D01*
X602633Y114307D01*
X602619Y114289D01*
X602602Y114275D01*
X602492Y114133D01*
X602379Y113994D01*
X602369Y113974D01*
X602355Y113957D01*
X602275Y113796D01*
X602192Y113638D01*
X602186Y113616D01*
X602176Y113596D01*
X602129Y113423D01*
X602079Y113251D01*
X602077Y113229D01*
X602071Y113207D01*
X602044Y112877D01*
X602044Y99464D01*
X595861Y93281D01*
X573443Y93281D01*
X573425Y93279D01*
X573407Y93280D01*
X573225Y93259D01*
X573042Y93241D01*
X573025Y93236D01*
X573008Y93234D01*
X572833Y93177D01*
X572657Y93123D01*
X572642Y93114D01*
X572625Y93109D01*
X572465Y93018D01*
X572303Y92931D01*
X572290Y92920D01*
X572274Y92911D01*
X572135Y92791D01*
X571994Y92673D01*
X571983Y92659D01*
X571969Y92648D01*
X571857Y92503D01*
X571742Y92359D01*
X571734Y92344D01*
X571723Y92330D01*
X571641Y92165D01*
X571556Y92002D01*
X571551Y91985D01*
X571543Y91969D01*
X571496Y91791D01*
X571445Y91615D01*
X571443Y91597D01*
X571439Y91580D01*
X571412Y91250D01*
X571412Y84040D01*
X570072Y82701D01*
X558178Y82701D01*
X557061Y83817D01*
X557048Y83829D01*
X557036Y83842D01*
X556892Y83956D01*
X556750Y84072D01*
X556734Y84081D01*
X556720Y84092D01*
X556556Y84175D01*
X556394Y84261D01*
X556377Y84266D01*
X556361Y84274D01*
X556184Y84323D01*
X556008Y84376D01*
X555990Y84377D01*
X555973Y84382D01*
X555790Y84396D01*
X555607Y84412D01*
X555589Y84410D01*
X555572Y84412D01*
X555390Y84389D01*
X555207Y84369D01*
X555190Y84363D01*
X555172Y84361D01*
X554999Y84303D01*
X554823Y84247D01*
X554807Y84239D01*
X554791Y84233D01*
X554632Y84141D01*
X554471Y84052D01*
X554457Y84041D01*
X554442Y84032D01*
X554189Y83817D01*
X553072Y82701D01*
X541178Y82701D01*
X539838Y84040D01*
X539838Y91325D01*
X539836Y91352D01*
X539838Y91379D01*
X539816Y91552D01*
X539798Y91726D01*
X539791Y91751D01*
X539787Y91778D01*
X539732Y91944D01*
X539680Y92111D01*
X539667Y92134D01*
X539659Y92160D01*
X539572Y92311D01*
X539488Y92465D01*
X539471Y92485D01*
X539458Y92509D01*
X539243Y92762D01*
X536112Y95893D01*
X536092Y95910D01*
X536074Y95930D01*
X535936Y96037D01*
X535801Y96148D01*
X535777Y96160D01*
X535756Y96177D01*
X535599Y96255D01*
X535445Y96336D01*
X535420Y96344D01*
X535396Y96356D01*
X535226Y96401D01*
X535059Y96451D01*
X535033Y96453D01*
X535007Y96460D01*
X534676Y96488D01*
X521617Y96488D01*
X521520Y96517D01*
X521489Y96520D01*
X521459Y96528D01*
X521128Y96555D01*
X490490Y96555D01*
X490463Y96552D01*
X490437Y96554D01*
X490263Y96532D01*
X490089Y96515D01*
X490064Y96507D01*
X490037Y96504D01*
X489871Y96448D01*
X489704Y96397D01*
X489681Y96384D01*
X489655Y96376D01*
X489504Y96288D01*
X489350Y96205D01*
X489330Y96188D01*
X489307Y96175D01*
X489214Y96096D01*
X487666Y95455D01*
X487650Y95447D01*
X487633Y95441D01*
X487473Y95351D01*
X487311Y95265D01*
X487298Y95253D01*
X487282Y95245D01*
X487142Y95125D01*
X487001Y95008D01*
X486990Y94994D01*
X486976Y94983D01*
X486863Y94838D01*
X486747Y94696D01*
X486739Y94680D01*
X486728Y94666D01*
X486645Y94502D01*
X486560Y94339D01*
X486558Y94330D01*
X486557Y94330D01*
X486555Y94322D01*
X486547Y94306D01*
X486499Y94129D01*
X486447Y93953D01*
X486446Y93944D01*
X486446Y93943D01*
X486445Y93934D01*
X486441Y93918D01*
X486428Y93735D01*
X486412Y93552D01*
X486413Y93544D01*
X486413Y93542D01*
X486414Y93531D01*
X486413Y93516D01*
X486437Y93334D01*
X486458Y93152D01*
X486459Y93146D01*
X486460Y93142D01*
X486464Y93131D01*
X486465Y93117D01*
X486567Y92801D01*
X487604Y90298D01*
X487604Y87884D01*
X486680Y85653D01*
X484973Y83946D01*
X484254Y83648D01*
X484227Y83634D01*
X484197Y83624D01*
X484049Y83539D01*
X483899Y83458D01*
X483875Y83438D01*
X483848Y83423D01*
X483595Y83208D01*
X478363Y77975D01*
X478354Y77965D01*
X478344Y77956D01*
X478227Y77810D01*
X478108Y77664D01*
X478101Y77652D01*
X478093Y77642D01*
X478007Y77474D01*
X477919Y77308D01*
X477915Y77295D01*
X477909Y77283D01*
X477858Y77103D01*
X477804Y76922D01*
X477803Y76909D01*
X477799Y76896D01*
X477785Y76710D01*
X477768Y76521D01*
X477769Y76508D01*
X477768Y76495D01*
X477791Y76309D01*
X477811Y76121D01*
X477815Y76108D01*
X477817Y76095D01*
X477876Y75916D01*
X477933Y75737D01*
X477939Y75725D01*
X477943Y75713D01*
X478036Y75550D01*
X478127Y75385D01*
X478136Y75375D01*
X478143Y75363D01*
X478267Y75221D01*
X478388Y75078D01*
X478398Y75070D01*
X478407Y75059D01*
X478557Y74945D01*
X478704Y74828D01*
X478716Y74822D01*
X478726Y74814D01*
X479022Y74662D01*
X481862Y73486D01*
X484649Y70699D01*
X486157Y67058D01*
X486157Y63117D01*
X484649Y59476D01*
X481862Y56689D01*
X478221Y55181D01*
X474279Y55181D01*
X470638Y56689D01*
X468399Y58928D01*
X468385Y58940D01*
X468373Y58953D01*
X468230Y59067D01*
X468087Y59183D01*
X468072Y59192D01*
X468058Y59203D01*
X467893Y59286D01*
X467732Y59372D01*
X467715Y59377D01*
X467699Y59385D01*
X467521Y59435D01*
X467346Y59487D01*
X467328Y59489D01*
X467311Y59493D01*
X467128Y59507D01*
X466945Y59523D01*
X466927Y59521D01*
X466909Y59523D01*
X466727Y59500D01*
X466544Y59480D01*
X466527Y59475D01*
X466510Y59472D01*
X466336Y59414D01*
X466161Y59358D01*
X466145Y59350D01*
X466128Y59344D01*
X465969Y59253D01*
X465808Y59164D01*
X465795Y59152D01*
X465779Y59143D01*
X465526Y58928D01*
X462905Y56307D01*
X462904Y56307D01*
X459631Y53033D01*
X456953Y50355D01*
X456276Y50355D01*
X456250Y50352D01*
X456223Y50354D01*
X456049Y50332D01*
X455876Y50315D01*
X455850Y50307D01*
X455823Y50304D01*
X455658Y50248D01*
X455491Y50197D01*
X455467Y50184D01*
X455442Y50175D01*
X455290Y50088D01*
X455137Y50005D01*
X455116Y49988D01*
X455093Y49975D01*
X454840Y49760D01*
X452323Y47243D01*
X438264Y47243D01*
X430435Y55072D01*
X430418Y55086D01*
X430403Y55103D01*
X430263Y55214D01*
X430124Y55327D01*
X430104Y55338D01*
X430086Y55352D01*
X429926Y55432D01*
X429768Y55516D01*
X429747Y55522D01*
X429727Y55532D01*
X429554Y55580D01*
X429382Y55631D01*
X429360Y55633D01*
X429338Y55639D01*
X429160Y55651D01*
X428981Y55667D01*
X428959Y55665D01*
X428937Y55666D01*
X428760Y55643D01*
X428581Y55624D01*
X428560Y55617D01*
X428537Y55614D01*
X428222Y55513D01*
X427421Y55181D01*
X423479Y55181D01*
X419838Y56689D01*
X417051Y59476D01*
X415543Y63117D01*
X415543Y67058D01*
X417051Y70699D01*
X417566Y71213D01*
X417571Y71220D01*
X417578Y71226D01*
X417698Y71375D01*
X417821Y71525D01*
X417825Y71533D01*
X417830Y71540D01*
X417918Y71709D01*
X418009Y71880D01*
X418012Y71889D01*
X418016Y71897D01*
X418069Y72081D01*
X418124Y72266D01*
X418125Y72275D01*
X418127Y72284D01*
X418143Y72475D01*
X418160Y72667D01*
X418159Y72676D01*
X418160Y72685D01*
X418138Y72875D01*
X418117Y73068D01*
X418114Y73076D01*
X418113Y73085D01*
X418054Y73268D01*
X417996Y73451D01*
X417991Y73459D01*
X417988Y73468D01*
X417893Y73636D01*
X417801Y73804D01*
X417795Y73811D01*
X417791Y73818D01*
X417665Y73964D01*
X417540Y74111D01*
X417533Y74116D01*
X417527Y74123D01*
X417375Y74241D01*
X417224Y74360D01*
X417216Y74364D01*
X417209Y74370D01*
X417036Y74456D01*
X416865Y74543D01*
X416857Y74545D01*
X416849Y74549D01*
X416660Y74600D01*
X416478Y74651D01*
X416469Y74651D01*
X416460Y74654D01*
X416129Y74681D01*
X409371Y74681D01*
X409362Y74680D01*
X409353Y74681D01*
X409161Y74660D01*
X408970Y74641D01*
X408962Y74638D01*
X408953Y74637D01*
X408769Y74579D01*
X408585Y74523D01*
X408577Y74519D01*
X408569Y74516D01*
X408400Y74422D01*
X408231Y74331D01*
X408224Y74325D01*
X408217Y74321D01*
X408069Y74196D01*
X407922Y74073D01*
X407916Y74066D01*
X407910Y74061D01*
X407789Y73909D01*
X407670Y73760D01*
X407666Y73752D01*
X407660Y73745D01*
X407572Y73572D01*
X407484Y73402D01*
X407482Y73394D01*
X407478Y73386D01*
X407426Y73200D01*
X407373Y73015D01*
X407372Y73006D01*
X407370Y72998D01*
X407355Y72805D01*
X407340Y72614D01*
X407341Y72605D01*
X407340Y72596D01*
X407364Y72405D01*
X407387Y72214D01*
X407390Y72206D01*
X407391Y72197D01*
X407452Y72015D01*
X407512Y71831D01*
X407516Y71824D01*
X407519Y71815D01*
X407615Y71648D01*
X407709Y71481D01*
X407715Y71474D01*
X407720Y71466D01*
X407934Y71213D01*
X408449Y70699D01*
X409957Y67058D01*
X409957Y63117D01*
X408449Y59476D01*
X405662Y56689D01*
X402021Y55181D01*
X401200Y55181D01*
X401191Y55180D01*
X401182Y55181D01*
X400990Y55160D01*
X400799Y55141D01*
X400791Y55138D01*
X400782Y55137D01*
X400599Y55080D01*
X400414Y55023D01*
X400406Y55018D01*
X400398Y55016D01*
X400229Y54923D01*
X400060Y54831D01*
X400053Y54825D01*
X400046Y54821D01*
X399899Y54696D01*
X399751Y54573D01*
X399745Y54566D01*
X399739Y54560D01*
X399620Y54410D01*
X399499Y54259D01*
X399494Y54252D01*
X399489Y54245D01*
X399401Y54072D01*
X399313Y53902D01*
X399311Y53894D01*
X399307Y53886D01*
X399255Y53699D01*
X399202Y53515D01*
X399201Y53506D01*
X399199Y53498D01*
X399184Y53303D01*
X399169Y53114D01*
X399170Y53105D01*
X399169Y53096D01*
X399194Y52904D01*
X399216Y52714D01*
X399218Y52706D01*
X399220Y52697D01*
X399281Y52514D01*
X399341Y52331D01*
X399345Y52323D01*
X399348Y52315D01*
X399443Y52150D01*
X399538Y51981D01*
X399544Y51974D01*
X399549Y51966D01*
X399763Y51713D01*
X402621Y48856D01*
X402642Y48839D01*
X402659Y48818D01*
X402797Y48712D01*
X402933Y48601D01*
X402956Y48588D01*
X402977Y48572D01*
X403134Y48494D01*
X403288Y48412D01*
X403314Y48404D01*
X403338Y48392D01*
X403507Y48347D01*
X403674Y48297D01*
X403701Y48295D01*
X403727Y48288D01*
X404057Y48261D01*
X408724Y48261D01*
X408751Y48263D01*
X408778Y48261D01*
X408952Y48283D01*
X409125Y48301D01*
X409151Y48308D01*
X409177Y48312D01*
X409343Y48367D01*
X409510Y48419D01*
X409534Y48432D01*
X409559Y48440D01*
X409710Y48527D01*
X409864Y48611D01*
X409884Y48628D01*
X409908Y48641D01*
X410161Y48856D01*
X410900Y49595D01*
X413130Y50519D01*
X415545Y50519D01*
X417775Y49595D01*
X419482Y47888D01*
X420406Y45657D01*
X420406Y43243D01*
X419482Y41012D01*
X417775Y39305D01*
X415545Y38381D01*
X413130Y38381D01*
X410900Y39305D01*
X410161Y40044D01*
X410140Y40061D01*
X410123Y40082D01*
X409985Y40189D01*
X409849Y40299D01*
X409826Y40312D01*
X409804Y40328D01*
X409647Y40406D01*
X409493Y40488D01*
X409468Y40496D01*
X409444Y40508D01*
X409274Y40553D01*
X409108Y40603D01*
X409081Y40605D01*
X409055Y40612D01*
X408724Y40639D01*
X400059Y40639D01*
X397873Y42825D01*
X397863Y42834D01*
X397854Y42844D01*
X397707Y42961D01*
X397562Y43080D01*
X397550Y43086D01*
X397539Y43095D01*
X397372Y43181D01*
X397206Y43269D01*
X397193Y43273D01*
X397181Y43279D01*
X397001Y43330D01*
X396820Y43384D01*
X396807Y43385D01*
X396794Y43388D01*
X396608Y43403D01*
X396419Y43420D01*
X396406Y43419D01*
X396392Y43420D01*
X396208Y43397D01*
X396019Y43377D01*
X396006Y43373D01*
X395993Y43371D01*
X395816Y43312D01*
X395635Y43255D01*
X395623Y43249D01*
X395611Y43244D01*
X395447Y43151D01*
X395283Y43060D01*
X395273Y43052D01*
X395261Y43045D01*
X395118Y42921D01*
X394976Y42800D01*
X394967Y42789D01*
X394957Y42780D01*
X394843Y42632D01*
X394726Y42484D01*
X394720Y42472D01*
X394712Y42461D01*
X394560Y42166D01*
X394082Y41012D01*
X392375Y39305D01*
X390145Y38381D01*
X387730Y38381D01*
X385500Y39305D01*
X384761Y40044D01*
X384740Y40061D01*
X384723Y40082D01*
X384585Y40189D01*
X384449Y40299D01*
X384426Y40312D01*
X384404Y40328D01*
X384247Y40406D01*
X384093Y40488D01*
X384068Y40496D01*
X384044Y40508D01*
X383874Y40553D01*
X383708Y40603D01*
X383681Y40605D01*
X383655Y40612D01*
X383324Y40639D01*
X381009Y40639D01*
X378429Y43219D01*
X378408Y43236D01*
X378391Y43257D01*
X378253Y43364D01*
X378117Y43474D01*
X378094Y43487D01*
X378073Y43503D01*
X377916Y43581D01*
X377762Y43663D01*
X377736Y43671D01*
X377712Y43683D01*
X377543Y43728D01*
X377376Y43778D01*
X377349Y43780D01*
X377323Y43787D01*
X376993Y43814D01*
X371484Y43814D01*
X358172Y57126D01*
X358158Y57138D01*
X358146Y57151D01*
X358002Y57265D01*
X357860Y57382D01*
X357845Y57390D01*
X357831Y57401D01*
X357666Y57485D01*
X357505Y57570D01*
X357488Y57575D01*
X357472Y57583D01*
X357295Y57633D01*
X357119Y57685D01*
X357101Y57687D01*
X357084Y57691D01*
X356901Y57705D01*
X356718Y57721D01*
X356700Y57719D01*
X356682Y57721D01*
X356501Y57698D01*
X356317Y57678D01*
X356300Y57673D01*
X356283Y57670D01*
X356109Y57612D01*
X355934Y57556D01*
X355918Y57548D01*
X355901Y57542D01*
X355741Y57450D01*
X355581Y57362D01*
X355568Y57350D01*
X355552Y57341D01*
X355299Y57126D01*
X354862Y56689D01*
X351221Y55181D01*
X347279Y55181D01*
X343638Y56689D01*
X340851Y59476D01*
X339343Y63117D01*
X339343Y67058D01*
X340851Y70699D01*
X343638Y73486D01*
X347279Y74994D01*
X351221Y74994D01*
X354862Y73486D01*
X357649Y70699D01*
X359100Y67196D01*
X359115Y67168D01*
X359124Y67138D01*
X359210Y66990D01*
X359290Y66841D01*
X359310Y66817D01*
X359325Y66790D01*
X359540Y66537D01*
X360006Y66071D01*
X361276Y64801D01*
X361283Y64795D01*
X361288Y64788D01*
X361438Y64668D01*
X361587Y64546D01*
X361595Y64542D01*
X361602Y64536D01*
X361772Y64448D01*
X361943Y64357D01*
X361952Y64355D01*
X361959Y64351D01*
X362144Y64298D01*
X362329Y64242D01*
X362338Y64242D01*
X362346Y64239D01*
X362537Y64224D01*
X362730Y64206D01*
X362739Y64207D01*
X362748Y64206D01*
X362937Y64229D01*
X363130Y64249D01*
X363139Y64252D01*
X363147Y64253D01*
X363329Y64313D01*
X363514Y64371D01*
X363522Y64375D01*
X363530Y64378D01*
X363697Y64472D01*
X363866Y64566D01*
X363873Y64572D01*
X363881Y64576D01*
X364026Y64701D01*
X364173Y64826D01*
X364179Y64833D01*
X364186Y64839D01*
X364302Y64990D01*
X364423Y65142D01*
X364427Y65150D01*
X364432Y65157D01*
X364517Y65328D01*
X364605Y65501D01*
X364608Y65510D01*
X364612Y65518D01*
X364661Y65703D01*
X364713Y65889D01*
X364714Y65898D01*
X364716Y65907D01*
X364743Y66237D01*
X364743Y67058D01*
X366251Y70699D01*
X369038Y73486D01*
X372679Y74994D01*
X376621Y74994D01*
X380262Y73486D01*
X383049Y70699D01*
X384500Y67196D01*
X384515Y67168D01*
X384525Y67138D01*
X384609Y66991D01*
X384690Y66841D01*
X384710Y66816D01*
X384725Y66790D01*
X384940Y66537D01*
X385405Y66071D01*
X385406Y66071D01*
X386676Y64801D01*
X386683Y64795D01*
X386688Y64788D01*
X386838Y64668D01*
X386987Y64546D01*
X386995Y64542D01*
X387002Y64536D01*
X387173Y64447D01*
X387343Y64357D01*
X387351Y64355D01*
X387359Y64351D01*
X387545Y64297D01*
X387729Y64242D01*
X387738Y64242D01*
X387746Y64239D01*
X387938Y64224D01*
X388130Y64206D01*
X388139Y64207D01*
X388148Y64206D01*
X388337Y64229D01*
X388530Y64249D01*
X388539Y64252D01*
X388547Y64253D01*
X388729Y64313D01*
X388914Y64371D01*
X388922Y64375D01*
X388930Y64378D01*
X389099Y64473D01*
X389266Y64566D01*
X389273Y64572D01*
X389281Y64576D01*
X389427Y64702D01*
X389573Y64826D01*
X389579Y64833D01*
X389586Y64839D01*
X389703Y64991D01*
X389823Y65142D01*
X389827Y65150D01*
X389832Y65157D01*
X389918Y65329D01*
X390005Y65501D01*
X390008Y65510D01*
X390012Y65518D01*
X390062Y65704D01*
X390113Y65889D01*
X390114Y65898D01*
X390116Y65907D01*
X390143Y66237D01*
X390143Y67058D01*
X391651Y70699D01*
X394438Y73486D01*
X394985Y73713D01*
X395005Y73723D01*
X395026Y73730D01*
X395183Y73819D01*
X395340Y73903D01*
X395357Y73917D01*
X395377Y73928D01*
X395513Y74045D01*
X395651Y74159D01*
X395665Y74177D01*
X395682Y74191D01*
X395791Y74332D01*
X395904Y74472D01*
X395915Y74492D01*
X395928Y74509D01*
X396008Y74669D01*
X396091Y74828D01*
X396098Y74850D01*
X396108Y74870D01*
X396154Y75043D01*
X396204Y75215D01*
X396206Y75237D01*
X396212Y75259D01*
X396239Y75589D01*
X396239Y77778D01*
X400763Y82302D01*
X427040Y82302D01*
X427049Y82303D01*
X427058Y82302D01*
X427249Y82323D01*
X427441Y82342D01*
X427449Y82345D01*
X427458Y82346D01*
X427643Y82404D01*
X427826Y82460D01*
X427834Y82465D01*
X427842Y82467D01*
X428012Y82561D01*
X428180Y82652D01*
X428187Y82658D01*
X428194Y82662D01*
X428341Y82787D01*
X428489Y82910D01*
X428495Y82917D01*
X428501Y82923D01*
X428620Y83073D01*
X428741Y83224D01*
X428745Y83232D01*
X428751Y83239D01*
X428839Y83411D01*
X428927Y83581D01*
X428929Y83589D01*
X428933Y83598D01*
X428985Y83784D01*
X429038Y83968D01*
X429039Y83977D01*
X429041Y83985D01*
X429055Y84174D01*
X429071Y84369D01*
X429070Y84378D01*
X429071Y84387D01*
X429047Y84578D01*
X429024Y84769D01*
X429021Y84777D01*
X429020Y84786D01*
X428959Y84969D01*
X428899Y85152D01*
X428895Y85160D01*
X428892Y85168D01*
X428796Y85334D01*
X428701Y85502D01*
X428696Y85509D01*
X428691Y85517D01*
X428555Y85677D01*
X427037Y89342D01*
X427037Y93284D01*
X428545Y96925D01*
X431332Y99712D01*
X431360Y99723D01*
X431364Y99725D01*
X431369Y99727D01*
X431542Y99821D01*
X431715Y99914D01*
X431719Y99916D01*
X431723Y99919D01*
X431872Y100043D01*
X432026Y100170D01*
X432028Y100173D01*
X432032Y100176D01*
X432151Y100324D01*
X432279Y100483D01*
X432281Y100487D01*
X432284Y100490D01*
X432373Y100662D01*
X432466Y100839D01*
X432468Y100844D01*
X432470Y100847D01*
X432524Y101036D01*
X432580Y101225D01*
X432580Y101230D01*
X432581Y101234D01*
X432598Y101434D01*
X432614Y101627D01*
X432614Y101631D01*
X432614Y101636D01*
X432591Y101831D01*
X432569Y102027D01*
X432568Y102031D01*
X432567Y102035D01*
X432507Y102219D01*
X432446Y102410D01*
X432444Y102414D01*
X432442Y102418D01*
X432347Y102588D01*
X432250Y102761D01*
X432247Y102765D01*
X432244Y102769D01*
X432118Y102915D01*
X431988Y103067D01*
X431984Y103070D01*
X431981Y103074D01*
X431825Y103195D01*
X431671Y103316D01*
X431667Y103318D01*
X431663Y103320D01*
X431484Y103409D01*
X431311Y103496D01*
X431307Y103498D01*
X431303Y103500D01*
X431108Y103552D01*
X430923Y103603D01*
X430918Y103603D01*
X430914Y103604D01*
X430583Y103631D01*
X361091Y103631D01*
X359504Y104289D01*
X324331Y139461D01*
X324310Y139478D01*
X324293Y139499D01*
X324155Y139606D01*
X324020Y139716D01*
X323996Y139729D01*
X323975Y139745D01*
X323818Y139823D01*
X323664Y139905D01*
X323638Y139913D01*
X323614Y139925D01*
X323445Y139970D01*
X323278Y140020D01*
X323251Y140022D01*
X323225Y140029D01*
X322895Y140056D01*
X321018Y140056D01*
X320991Y140054D01*
X320964Y140056D01*
X320790Y140034D01*
X320617Y140016D01*
X320591Y140009D01*
X320565Y140005D01*
X320399Y139950D01*
X320232Y139898D01*
X320208Y139885D01*
X320183Y139877D01*
X320032Y139790D01*
X319878Y139706D01*
X319858Y139689D01*
X319834Y139676D01*
X319581Y139461D01*
X319350Y139230D01*
X317120Y138306D01*
X314705Y138306D01*
X312475Y139230D01*
X310768Y140937D01*
X309844Y143168D01*
X309844Y145582D01*
X310768Y147813D01*
X310819Y147864D01*
X310830Y147878D01*
X310844Y147889D01*
X310958Y148033D01*
X311074Y148175D01*
X311082Y148191D01*
X311093Y148205D01*
X311177Y148370D01*
X311262Y148531D01*
X311267Y148548D01*
X311276Y148564D01*
X311325Y148741D01*
X311377Y148917D01*
X311379Y148935D01*
X311384Y148952D01*
X311397Y149135D01*
X311414Y149318D01*
X311412Y149336D01*
X311413Y149353D01*
X311390Y149535D01*
X311370Y149718D01*
X311365Y149735D01*
X311363Y149753D01*
X311304Y149926D01*
X311249Y150102D01*
X311240Y150118D01*
X311234Y150135D01*
X311143Y150294D01*
X311054Y150454D01*
X311042Y150468D01*
X311033Y150483D01*
X310819Y150736D01*
X310768Y150787D01*
X309844Y153018D01*
X309844Y155432D01*
X310768Y157663D01*
X312475Y159370D01*
X314705Y160294D01*
X317120Y160294D01*
X319350Y159370D01*
X319581Y159139D01*
X319602Y159122D01*
X319619Y159101D01*
X319757Y158994D01*
X319893Y158884D01*
X319916Y158871D01*
X319938Y158855D01*
X320095Y158777D01*
X320249Y158695D01*
X320274Y158687D01*
X320298Y158675D01*
X320468Y158630D01*
X320634Y158580D01*
X320661Y158578D01*
X320687Y158571D01*
X321018Y158544D01*
X325514Y158544D01*
X327102Y157886D01*
X365774Y119214D01*
X365795Y119197D01*
X365813Y119176D01*
X365950Y119069D01*
X366086Y118959D01*
X366109Y118946D01*
X366131Y118930D01*
X366288Y118852D01*
X366442Y118770D01*
X366467Y118762D01*
X366491Y118750D01*
X366661Y118705D01*
X366827Y118655D01*
X366854Y118653D01*
X366880Y118646D01*
X367211Y118619D01*
X457514Y118619D01*
X459102Y117961D01*
X460602Y116461D01*
X464926Y112137D01*
X464946Y112120D01*
X464964Y112100D01*
X465102Y111993D01*
X465237Y111882D01*
X465261Y111870D01*
X465282Y111853D01*
X465439Y111775D01*
X465593Y111694D01*
X465618Y111686D01*
X465643Y111674D01*
X465812Y111628D01*
X465979Y111579D01*
X466005Y111576D01*
X466031Y111569D01*
X466362Y111542D01*
X513718Y111542D01*
X513745Y111545D01*
X513772Y111543D01*
X513946Y111565D01*
X514119Y111582D01*
X514145Y111590D01*
X514171Y111593D01*
X514337Y111649D01*
X514504Y111700D01*
X514528Y111713D01*
X514553Y111722D01*
X514704Y111809D01*
X514858Y111892D01*
X514878Y111909D01*
X514902Y111923D01*
X515155Y112137D01*
X520577Y117559D01*
X521907Y118110D01*
X522164Y118217D01*
X525016Y118217D01*
X526603Y117559D01*
X528124Y116039D01*
X528145Y116022D01*
X528162Y116001D01*
X528300Y115894D01*
X528436Y115784D01*
X528459Y115771D01*
X528480Y115755D01*
X528637Y115677D01*
X528791Y115595D01*
X528817Y115587D01*
X528841Y115575D01*
X529010Y115530D01*
X529177Y115480D01*
X529204Y115478D01*
X529230Y115471D01*
X529560Y115444D01*
X537807Y115444D01*
X537825Y115446D01*
X537843Y115444D01*
X538025Y115465D01*
X538208Y115484D01*
X538225Y115489D01*
X538242Y115491D01*
X538417Y115548D01*
X538593Y115602D01*
X538608Y115610D01*
X538625Y115616D01*
X538785Y115706D01*
X538947Y115794D01*
X538960Y115805D01*
X538976Y115814D01*
X539115Y115934D01*
X539256Y116051D01*
X539267Y116065D01*
X539281Y116077D01*
X539393Y116222D01*
X539508Y116365D01*
X539516Y116381D01*
X539527Y116395D01*
X539609Y116560D01*
X539694Y116722D01*
X539699Y116739D01*
X539707Y116755D01*
X539754Y116934D01*
X539805Y117109D01*
X539807Y117127D01*
X539811Y117144D01*
X539838Y117475D01*
X539838Y117572D01*
X541178Y118912D01*
X553072Y118912D01*
X554189Y117795D01*
X554203Y117784D01*
X554214Y117770D01*
X554358Y117656D01*
X554500Y117540D01*
X554516Y117532D01*
X554530Y117521D01*
X554694Y117437D01*
X554856Y117352D01*
X554873Y117346D01*
X554889Y117338D01*
X555066Y117289D01*
X555242Y117237D01*
X555260Y117235D01*
X555277Y117230D01*
X555460Y117217D01*
X555643Y117200D01*
X555661Y117202D01*
X555678Y117201D01*
X555860Y117224D01*
X556043Y117244D01*
X556060Y117249D01*
X556078Y117251D01*
X556252Y117310D01*
X556427Y117365D01*
X556443Y117374D01*
X556459Y117380D01*
X556618Y117471D01*
X556779Y117560D01*
X556793Y117572D01*
X556808Y117581D01*
X557061Y117795D01*
X558178Y118912D01*
X570072Y118912D01*
X571412Y117572D01*
X571412Y110363D01*
X571414Y110345D01*
X571412Y110327D01*
X571433Y110145D01*
X571452Y109962D01*
X571457Y109945D01*
X571459Y109928D01*
X571516Y109753D01*
X571570Y109577D01*
X571578Y109562D01*
X571584Y109545D01*
X571674Y109385D01*
X571762Y109223D01*
X571773Y109210D01*
X571782Y109194D01*
X571902Y109055D01*
X572019Y108914D01*
X572033Y108903D01*
X572045Y108889D01*
X572190Y108777D01*
X572333Y108662D01*
X572349Y108654D01*
X572363Y108643D01*
X572528Y108561D01*
X572690Y108476D01*
X572707Y108471D01*
X572723Y108463D01*
X572902Y108416D01*
X573077Y108365D01*
X573095Y108363D01*
X573112Y108359D01*
X573443Y108332D01*
X573570Y108332D01*
X573597Y108334D01*
X573624Y108332D01*
X573798Y108354D01*
X573971Y108372D01*
X573997Y108379D01*
X574023Y108383D01*
X574189Y108438D01*
X574356Y108490D01*
X574380Y108503D01*
X574405Y108511D01*
X574556Y108598D01*
X574710Y108682D01*
X574730Y108699D01*
X574754Y108712D01*
X575007Y108927D01*
X576000Y109920D01*
X578230Y110844D01*
X580645Y110844D01*
X582875Y109920D01*
X584582Y108213D01*
X585506Y105982D01*
X585506Y103568D01*
X585355Y103203D01*
X585351Y103190D01*
X585345Y103178D01*
X585293Y102997D01*
X585239Y102817D01*
X585237Y102804D01*
X585234Y102791D01*
X585218Y102603D01*
X585200Y102417D01*
X585202Y102403D01*
X585201Y102390D01*
X585223Y102203D01*
X585242Y102016D01*
X585246Y102003D01*
X585248Y101990D01*
X585306Y101811D01*
X585362Y101632D01*
X585368Y101620D01*
X585372Y101607D01*
X585465Y101443D01*
X585555Y101279D01*
X585564Y101268D01*
X585570Y101257D01*
X585694Y101114D01*
X585814Y100970D01*
X585825Y100962D01*
X585834Y100952D01*
X585982Y100837D01*
X586129Y100720D01*
X586141Y100713D01*
X586152Y100705D01*
X586320Y100622D01*
X586487Y100536D01*
X586500Y100532D01*
X586512Y100526D01*
X586694Y100477D01*
X586875Y100426D01*
X586888Y100425D01*
X586901Y100421D01*
X587232Y100394D01*
X592073Y100394D01*
X592100Y100397D01*
X592127Y100395D01*
X592301Y100417D01*
X592474Y100434D01*
X592499Y100442D01*
X592526Y100445D01*
X592692Y100501D01*
X592859Y100552D01*
X592882Y100565D01*
X592908Y100574D01*
X593059Y100661D01*
X593213Y100744D01*
X593233Y100761D01*
X593257Y100774D01*
X593510Y100989D01*
X594336Y101815D01*
X594353Y101836D01*
X594373Y101854D01*
X594480Y101991D01*
X594591Y102127D01*
X594603Y102150D01*
X594620Y102172D01*
X594698Y102329D01*
X594780Y102483D01*
X594787Y102508D01*
X594799Y102532D01*
X594845Y102702D01*
X594894Y102868D01*
X594897Y102895D01*
X594904Y102921D01*
X594931Y103252D01*
X594931Y116144D01*
X594928Y116175D01*
X594930Y116206D01*
X594908Y116376D01*
X594891Y116545D01*
X594882Y116574D01*
X594878Y116605D01*
X594776Y116921D01*
X594006Y118780D01*
X594006Y121194D01*
X594930Y123425D01*
X595482Y123976D01*
X595487Y123983D01*
X595494Y123989D01*
X595614Y124138D01*
X595737Y124288D01*
X595741Y124296D01*
X595747Y124303D01*
X595834Y124472D01*
X595925Y124643D01*
X595928Y124652D01*
X595932Y124660D01*
X595985Y124844D01*
X596040Y125029D01*
X596041Y125038D01*
X596044Y125047D01*
X596059Y125238D01*
X596077Y125430D01*
X596076Y125439D01*
X596076Y125448D01*
X596054Y125637D01*
X596033Y125831D01*
X596031Y125839D01*
X596029Y125848D01*
X595970Y126031D01*
X595912Y126214D01*
X595907Y126222D01*
X595905Y126231D01*
X595810Y126399D01*
X595717Y126567D01*
X595711Y126574D01*
X595707Y126581D01*
X595580Y126728D01*
X595456Y126874D01*
X595449Y126879D01*
X595444Y126886D01*
X595291Y127004D01*
X595141Y127123D01*
X595133Y127127D01*
X595125Y127133D01*
X594952Y127219D01*
X594782Y127306D01*
X594773Y127308D01*
X594765Y127312D01*
X594577Y127363D01*
X594394Y127414D01*
X594385Y127414D01*
X594376Y127417D01*
X594045Y127444D01*
X573943Y127444D01*
X573925Y127442D01*
X573907Y127443D01*
X573725Y127422D01*
X573542Y127404D01*
X573525Y127399D01*
X573508Y127397D01*
X573333Y127340D01*
X573157Y127286D01*
X573142Y127277D01*
X573125Y127272D01*
X572965Y127181D01*
X572803Y127094D01*
X572790Y127083D01*
X572774Y127074D01*
X572635Y126954D01*
X572494Y126836D01*
X572483Y126822D01*
X572469Y126811D01*
X572357Y126665D01*
X572242Y126522D01*
X572234Y126507D01*
X572223Y126493D01*
X572141Y126328D01*
X572056Y126165D01*
X572051Y126148D01*
X572043Y126132D01*
X571996Y125954D01*
X571973Y125877D01*
X570572Y124476D01*
X557678Y124476D01*
X556338Y125815D01*
X556338Y137710D01*
X558195Y139567D01*
X558212Y139587D01*
X558233Y139605D01*
X558340Y139743D01*
X558450Y139878D01*
X558463Y139902D01*
X558479Y139923D01*
X558557Y140080D01*
X558639Y140234D01*
X558647Y140260D01*
X558659Y140284D01*
X558704Y140453D01*
X558754Y140620D01*
X558756Y140646D01*
X558763Y140672D01*
X558790Y141003D01*
X558790Y148520D01*
X558788Y148537D01*
X558790Y148555D01*
X558769Y148737D01*
X558750Y148920D01*
X558745Y148937D01*
X558743Y148955D01*
X558686Y149129D01*
X558632Y149305D01*
X558624Y149321D01*
X558618Y149338D01*
X558528Y149498D01*
X558440Y149659D01*
X558429Y149673D01*
X558420Y149688D01*
X558300Y149828D01*
X558183Y149968D01*
X558169Y149980D01*
X558157Y149993D01*
X558012Y150106D01*
X557869Y150221D01*
X557853Y150229D01*
X557839Y150240D01*
X557674Y150322D01*
X557512Y150406D01*
X557495Y150411D01*
X557479Y150419D01*
X557300Y150467D01*
X557125Y150518D01*
X557107Y150519D01*
X557090Y150524D01*
X556759Y150551D01*
X556090Y150551D01*
X554751Y151890D01*
X554751Y168785D01*
X556090Y170124D01*
X570985Y170124D01*
X572324Y168785D01*
X572324Y151890D01*
X570880Y150446D01*
X570705Y150393D01*
X570690Y150384D01*
X570673Y150379D01*
X570513Y150288D01*
X570351Y150201D01*
X570338Y150190D01*
X570322Y150181D01*
X570183Y150061D01*
X570042Y149943D01*
X570031Y149929D01*
X570017Y149918D01*
X569905Y149773D01*
X569790Y149629D01*
X569782Y149614D01*
X569771Y149600D01*
X569689Y149435D01*
X569604Y149272D01*
X569599Y149255D01*
X569591Y149239D01*
X569544Y149061D01*
X569493Y148885D01*
X569491Y148867D01*
X569487Y148850D01*
X569460Y148520D01*
X569460Y141003D01*
X569462Y140976D01*
X569460Y140950D01*
X569482Y140776D01*
X569500Y140602D01*
X569507Y140577D01*
X569511Y140550D01*
X569567Y140384D01*
X569618Y140218D01*
X569631Y140194D01*
X569639Y140169D01*
X569726Y140017D01*
X569810Y139863D01*
X569827Y139843D01*
X569840Y139820D01*
X570055Y139567D01*
X571966Y137655D01*
X572016Y137501D01*
X572070Y137327D01*
X572078Y137311D01*
X572084Y137294D01*
X572174Y137134D01*
X572262Y136973D01*
X572273Y136959D01*
X572282Y136944D01*
X572402Y136804D01*
X572519Y136664D01*
X572533Y136652D01*
X572545Y136639D01*
X572690Y136526D01*
X572833Y136411D01*
X572849Y136403D01*
X572863Y136392D01*
X573028Y136310D01*
X573190Y136226D01*
X573207Y136221D01*
X573223Y136213D01*
X573402Y136165D01*
X573577Y136114D01*
X573595Y136113D01*
X573612Y136108D01*
X573943Y136081D01*
X626334Y136081D01*
X627921Y135424D01*
X629136Y134209D01*
X629794Y132622D01*
X629794Y124168D01*
X629796Y124141D01*
X629794Y124114D01*
X629816Y123941D01*
X629834Y123767D01*
X629842Y123741D01*
X629845Y123715D01*
X629900Y123549D01*
X629952Y123382D01*
X629965Y123359D01*
X629973Y123333D01*
X630060Y123181D01*
X630144Y123028D01*
X630161Y123008D01*
X630174Y122984D01*
X630389Y122731D01*
X630620Y122500D01*
X631544Y120270D01*
X631544Y117855D01*
X630964Y116457D01*
X630955Y116427D01*
X630941Y116399D01*
X630897Y116234D01*
X630848Y116071D01*
X630845Y116040D01*
X630837Y116010D01*
X630810Y115679D01*
X630810Y106239D01*
X630812Y106212D01*
X630810Y106185D01*
X630832Y106011D01*
X630850Y105838D01*
X630857Y105812D01*
X630861Y105786D01*
X630916Y105620D01*
X630968Y105453D01*
X630981Y105429D01*
X630989Y105404D01*
X631076Y105253D01*
X631160Y105099D01*
X631177Y105079D01*
X631190Y105055D01*
X631405Y104802D01*
X646381Y89826D01*
X647193Y87866D01*
X647193Y85743D01*
X646331Y83664D01*
X646322Y83634D01*
X646308Y83606D01*
X646264Y83441D01*
X646215Y83278D01*
X646212Y83247D01*
X646204Y83217D01*
X646177Y82886D01*
X646177Y75589D01*
X646178Y75576D01*
X646177Y75563D01*
X646198Y75376D01*
X646217Y75189D01*
X646221Y75176D01*
X646222Y75162D01*
X646280Y74983D01*
X646335Y74804D01*
X646341Y74792D01*
X646345Y74779D01*
X646437Y74614D01*
X646527Y74450D01*
X646535Y74439D01*
X646542Y74428D01*
X646664Y74285D01*
X646784Y74140D01*
X646795Y74132D01*
X646803Y74122D01*
X646951Y74006D01*
X647098Y73888D01*
X647110Y73882D01*
X647120Y73874D01*
X647289Y73789D01*
X647455Y73703D01*
X647468Y73699D01*
X647480Y73693D01*
X647661Y73643D01*
X647842Y73591D01*
X647856Y73590D01*
X647869Y73587D01*
X648057Y73574D01*
X648244Y73558D01*
X648257Y73560D01*
X648270Y73559D01*
X648458Y73583D01*
X648643Y73605D01*
X648656Y73609D01*
X648669Y73611D01*
X648985Y73713D01*
X652079Y74994D01*
X656021Y74994D01*
X659662Y73486D01*
X662449Y70699D01*
X663957Y67058D01*
X663957Y63117D01*
X662425Y59419D01*
X662320Y59291D01*
X662316Y59283D01*
X662310Y59276D01*
X662222Y59106D01*
X662131Y58935D01*
X662129Y58927D01*
X662125Y58919D01*
X662072Y58734D01*
X662017Y58549D01*
X662016Y58540D01*
X662013Y58532D01*
X661998Y58341D01*
X661980Y58148D01*
X661981Y58139D01*
X661980Y58130D01*
X662003Y57941D01*
X662024Y57748D01*
X662026Y57739D01*
X662027Y57731D01*
X662087Y57548D01*
X662145Y57364D01*
X662149Y57356D01*
X662152Y57348D01*
X662247Y57180D01*
X662340Y57012D01*
X662346Y57005D01*
X662350Y56997D01*
X662476Y56852D01*
X662600Y56705D01*
X662607Y56699D01*
X662613Y56692D01*
X662764Y56575D01*
X662916Y56455D01*
X662924Y56451D01*
X662931Y56446D01*
X663102Y56361D01*
X663275Y56273D01*
X663284Y56270D01*
X663292Y56266D01*
X663477Y56217D01*
X663663Y56165D01*
X663672Y56164D01*
X663681Y56162D01*
X664011Y56135D01*
X669489Y56135D01*
X669498Y56136D01*
X669507Y56135D01*
X669697Y56155D01*
X669889Y56175D01*
X669898Y56177D01*
X669907Y56178D01*
X670090Y56236D01*
X670274Y56293D01*
X670282Y56297D01*
X670291Y56300D01*
X670460Y56393D01*
X670628Y56485D01*
X670635Y56490D01*
X670643Y56495D01*
X670791Y56621D01*
X670937Y56742D01*
X670943Y56749D01*
X670950Y56755D01*
X671070Y56907D01*
X671190Y57056D01*
X671194Y57064D01*
X671200Y57071D01*
X671287Y57243D01*
X671375Y57413D01*
X671378Y57422D01*
X671382Y57430D01*
X671434Y57616D01*
X671487Y57800D01*
X671487Y57809D01*
X671490Y57818D01*
X671504Y58009D01*
X671520Y58202D01*
X671519Y58211D01*
X671519Y58219D01*
X671495Y58409D01*
X671473Y58601D01*
X671470Y58610D01*
X671469Y58619D01*
X671408Y58801D01*
X671348Y58984D01*
X671343Y58992D01*
X671341Y59001D01*
X671245Y59167D01*
X671150Y59335D01*
X671144Y59342D01*
X671140Y59349D01*
X671070Y59432D01*
X669543Y63117D01*
X669543Y67058D01*
X671051Y70699D01*
X673838Y73486D01*
X677479Y74994D01*
X681421Y74994D01*
X685062Y73486D01*
X687849Y70699D01*
X689357Y67058D01*
X689357Y63117D01*
X687825Y59419D01*
X687720Y59291D01*
X687716Y59283D01*
X687710Y59276D01*
X687622Y59106D01*
X687531Y58935D01*
X687529Y58927D01*
X687525Y58919D01*
X687472Y58734D01*
X687417Y58549D01*
X687416Y58540D01*
X687413Y58532D01*
X687398Y58341D01*
X687380Y58148D01*
X687381Y58139D01*
X687380Y58130D01*
X687403Y57941D01*
X687424Y57748D01*
X687426Y57739D01*
X687427Y57731D01*
X687487Y57548D01*
X687545Y57364D01*
X687549Y57356D01*
X687552Y57348D01*
X687647Y57180D01*
X687740Y57012D01*
X687746Y57005D01*
X687750Y56997D01*
X687876Y56852D01*
X688000Y56705D01*
X688007Y56699D01*
X688013Y56692D01*
X688164Y56575D01*
X688316Y56455D01*
X688324Y56451D01*
X688331Y56446D01*
X688502Y56361D01*
X688675Y56273D01*
X688684Y56270D01*
X688692Y56266D01*
X688877Y56217D01*
X689063Y56165D01*
X689072Y56164D01*
X689081Y56162D01*
X689411Y56135D01*
X738311Y56135D01*
X738338Y56137D01*
X738365Y56135D01*
X738539Y56157D01*
X738712Y56175D01*
X738738Y56182D01*
X738764Y56186D01*
X738930Y56241D01*
X739097Y56293D01*
X739121Y56306D01*
X739146Y56314D01*
X739297Y56401D01*
X739451Y56485D01*
X739471Y56502D01*
X739495Y56515D01*
X739748Y56730D01*
X745148Y62130D01*
X745165Y62151D01*
X745186Y62168D01*
X745293Y62306D01*
X745403Y62442D01*
X745416Y62465D01*
X745432Y62487D01*
X745510Y62644D01*
X745592Y62798D01*
X745600Y62823D01*
X745612Y62847D01*
X745657Y63016D01*
X745707Y63183D01*
X745709Y63210D01*
X745716Y63236D01*
X745743Y63567D01*
X745743Y67058D01*
X747251Y70699D01*
X750038Y73486D01*
X753679Y74994D01*
X757621Y74994D01*
X761262Y73486D01*
X762595Y72153D01*
X762596Y72152D01*
X762598Y72150D01*
X762753Y72024D01*
X762906Y71898D01*
X762908Y71897D01*
X762909Y71896D01*
X763093Y71799D01*
X763262Y71709D01*
X763264Y71709D01*
X763265Y71708D01*
X763457Y71651D01*
X763648Y71594D01*
X763650Y71594D01*
X763652Y71594D01*
X763837Y71577D01*
X764049Y71558D01*
X764051Y71558D01*
X764053Y71558D01*
X764240Y71579D01*
X764449Y71601D01*
X764451Y71602D01*
X764453Y71602D01*
X764634Y71660D01*
X764833Y71723D01*
X764835Y71724D01*
X764836Y71724D01*
X764999Y71815D01*
X765186Y71918D01*
X765187Y71919D01*
X765188Y71920D01*
X765330Y72040D01*
X765493Y72178D01*
X765494Y72180D01*
X765495Y72181D01*
X765610Y72327D01*
X765742Y72494D01*
X765743Y72496D01*
X765744Y72497D01*
X765830Y72667D01*
X765924Y72853D01*
X765925Y72855D01*
X765926Y72856D01*
X765975Y73033D01*
X766032Y73241D01*
X766033Y73243D01*
X766033Y73244D01*
X766062Y73575D01*
X766832Y183593D01*
X766831Y183609D01*
X766832Y183625D01*
X766812Y183810D01*
X766795Y183994D01*
X766790Y184009D01*
X766789Y184025D01*
X766733Y184202D01*
X766680Y184379D01*
X766672Y184394D01*
X766667Y184409D01*
X766578Y184571D01*
X766490Y184735D01*
X766480Y184747D01*
X766472Y184761D01*
X766352Y184903D01*
X766235Y185046D01*
X766222Y185056D01*
X766212Y185068D01*
X766066Y185184D01*
X765923Y185300D01*
X765909Y185308D01*
X765896Y185318D01*
X765731Y185402D01*
X765567Y185488D01*
X765551Y185493D01*
X765537Y185500D01*
X765358Y185550D01*
X765181Y185602D01*
X765165Y185604D01*
X765149Y185608D01*
X764963Y185622D01*
X764780Y185638D01*
X764764Y185636D01*
X764748Y185638D01*
X764563Y185614D01*
X764379Y185594D01*
X764364Y185589D01*
X764348Y185587D01*
X764172Y185528D01*
X763996Y185472D01*
X763982Y185464D01*
X763967Y185459D01*
X763806Y185366D01*
X763644Y185276D01*
X763632Y185266D01*
X763618Y185258D01*
X763365Y185043D01*
X761597Y183276D01*
X749703Y183276D01*
X747846Y185133D01*
X747825Y185150D01*
X747808Y185170D01*
X747670Y185277D01*
X747534Y185388D01*
X747511Y185400D01*
X747489Y185417D01*
X747333Y185495D01*
X747179Y185577D01*
X747153Y185584D01*
X747129Y185596D01*
X746960Y185642D01*
X746793Y185691D01*
X746766Y185694D01*
X746740Y185701D01*
X746409Y185728D01*
X740012Y185728D01*
X739985Y185725D01*
X739959Y185727D01*
X739785Y185705D01*
X739611Y185688D01*
X739586Y185680D01*
X739559Y185677D01*
X739393Y185621D01*
X739226Y185570D01*
X739203Y185557D01*
X739177Y185548D01*
X739026Y185461D01*
X738872Y185378D01*
X738852Y185361D01*
X738829Y185348D01*
X738576Y185133D01*
X737132Y183689D01*
X734972Y182794D01*
X733491Y182181D01*
X714309Y182181D01*
X710668Y183689D01*
X707881Y186476D01*
X707655Y187023D01*
X707644Y187042D01*
X707637Y187064D01*
X707549Y187220D01*
X707465Y187378D01*
X707451Y187395D01*
X707440Y187414D01*
X707322Y187550D01*
X707208Y187688D01*
X707191Y187702D01*
X707176Y187719D01*
X707035Y187829D01*
X706896Y187942D01*
X706876Y187952D01*
X706858Y187966D01*
X706698Y188045D01*
X706539Y188129D01*
X706518Y188135D01*
X706498Y188145D01*
X706325Y188192D01*
X706153Y188242D01*
X706131Y188244D01*
X706109Y188250D01*
X705778Y188277D01*
X700380Y188277D01*
X700363Y188275D01*
X700345Y188276D01*
X700163Y188255D01*
X699980Y188237D01*
X699963Y188232D01*
X699945Y188230D01*
X699771Y188173D01*
X699595Y188119D01*
X699579Y188110D01*
X699562Y188105D01*
X699402Y188014D01*
X699241Y187927D01*
X699227Y187916D01*
X699212Y187907D01*
X699072Y187787D01*
X698932Y187669D01*
X698920Y187655D01*
X698907Y187644D01*
X698794Y187499D01*
X698679Y187355D01*
X698671Y187340D01*
X698660Y187326D01*
X698578Y187161D01*
X698494Y186998D01*
X698489Y186981D01*
X698481Y186965D01*
X698433Y186787D01*
X698382Y186611D01*
X698381Y186593D01*
X698376Y186576D01*
X698349Y186246D01*
X698349Y178765D01*
X697233Y177649D01*
X697221Y177635D01*
X697208Y177623D01*
X697094Y177479D01*
X696978Y177337D01*
X696969Y177322D01*
X696958Y177308D01*
X696875Y177143D01*
X696789Y176982D01*
X696784Y176965D01*
X696776Y176949D01*
X696726Y176771D01*
X696674Y176596D01*
X696673Y176578D01*
X696668Y176561D01*
X696654Y176378D01*
X696638Y176195D01*
X696640Y176177D01*
X696638Y176159D01*
X696661Y175977D01*
X696681Y175794D01*
X696687Y175777D01*
X696689Y175760D01*
X696747Y175586D01*
X696803Y175411D01*
X696811Y175395D01*
X696817Y175378D01*
X696909Y175219D01*
X696998Y175058D01*
X697009Y175045D01*
X697018Y175029D01*
X697233Y174776D01*
X698349Y173660D01*
X698349Y161765D01*
X697010Y160426D01*
X684115Y160426D01*
X683847Y160694D01*
X683826Y160711D01*
X683809Y160732D01*
X683671Y160839D01*
X683535Y160949D01*
X683512Y160962D01*
X683490Y160978D01*
X683334Y161056D01*
X683180Y161138D01*
X683154Y161146D01*
X683130Y161158D01*
X682961Y161203D01*
X682794Y161253D01*
X682767Y161255D01*
X682741Y161262D01*
X682410Y161289D01*
X680301Y161289D01*
X680274Y161287D01*
X680247Y161289D01*
X680073Y161267D01*
X679900Y161249D01*
X679874Y161242D01*
X679848Y161238D01*
X679682Y161183D01*
X679515Y161131D01*
X679491Y161118D01*
X679466Y161110D01*
X679314Y161023D01*
X679161Y160939D01*
X679141Y160922D01*
X679117Y160909D01*
X678864Y160694D01*
X678125Y159955D01*
X675895Y159031D01*
X673480Y159031D01*
X671250Y159955D01*
X669543Y161662D01*
X668619Y163893D01*
X668619Y166307D01*
X669543Y168538D01*
X671250Y170245D01*
X673480Y171169D01*
X675895Y171169D01*
X678125Y170245D01*
X678864Y169506D01*
X678885Y169489D01*
X678902Y169468D01*
X679040Y169361D01*
X679176Y169251D01*
X679199Y169238D01*
X679221Y169222D01*
X679378Y169144D01*
X679532Y169062D01*
X679557Y169054D01*
X679581Y169042D01*
X679751Y168997D01*
X679917Y168947D01*
X679944Y168945D01*
X679970Y168938D01*
X680301Y168911D01*
X680745Y168911D01*
X680762Y168913D01*
X680780Y168911D01*
X680962Y168932D01*
X681145Y168951D01*
X681162Y168956D01*
X681180Y168958D01*
X681354Y169015D01*
X681530Y169069D01*
X681546Y169077D01*
X681563Y169083D01*
X681723Y169173D01*
X681884Y169261D01*
X681898Y169272D01*
X681913Y169281D01*
X682053Y169401D01*
X682193Y169518D01*
X682205Y169532D01*
X682218Y169544D01*
X682331Y169689D01*
X682446Y169832D01*
X682454Y169848D01*
X682465Y169862D01*
X682547Y170027D01*
X682631Y170189D01*
X682636Y170206D01*
X682644Y170222D01*
X682692Y170401D01*
X682743Y170576D01*
X682744Y170594D01*
X682749Y170611D01*
X682776Y170942D01*
X682776Y173660D01*
X683892Y174776D01*
X683904Y174790D01*
X683917Y174802D01*
X684031Y174946D01*
X684147Y175088D01*
X684156Y175103D01*
X684167Y175117D01*
X684250Y175282D01*
X684336Y175443D01*
X684341Y175460D01*
X684349Y175476D01*
X684398Y175653D01*
X684451Y175829D01*
X684452Y175847D01*
X684457Y175864D01*
X684471Y176047D01*
X684487Y176230D01*
X684485Y176248D01*
X684487Y176266D01*
X684464Y176448D01*
X684444Y176631D01*
X684438Y176648D01*
X684436Y176665D01*
X684378Y176839D01*
X684322Y177014D01*
X684314Y177030D01*
X684308Y177047D01*
X684216Y177206D01*
X684127Y177367D01*
X684116Y177380D01*
X684107Y177396D01*
X683892Y177649D01*
X682776Y178765D01*
X682776Y183864D01*
X682775Y183873D01*
X682776Y183882D01*
X682755Y184075D01*
X682736Y184264D01*
X682733Y184273D01*
X682732Y184282D01*
X682674Y184465D01*
X682618Y184649D01*
X682613Y184657D01*
X682611Y184666D01*
X682518Y184833D01*
X682426Y185003D01*
X682420Y185010D01*
X682416Y185018D01*
X682291Y185165D01*
X682168Y185313D01*
X682161Y185318D01*
X682155Y185325D01*
X682004Y185445D01*
X681854Y185565D01*
X681847Y185569D01*
X681840Y185575D01*
X681667Y185662D01*
X681497Y185750D01*
X681489Y185753D01*
X681481Y185757D01*
X681294Y185809D01*
X681110Y185862D01*
X681101Y185863D01*
X681093Y185865D01*
X680900Y185879D01*
X680709Y185895D01*
X680700Y185894D01*
X680691Y185894D01*
X680499Y185870D01*
X680309Y185848D01*
X680301Y185845D01*
X680292Y185844D01*
X680109Y185783D01*
X679926Y185723D01*
X679918Y185719D01*
X679910Y185716D01*
X679743Y185620D01*
X679576Y185525D01*
X679569Y185519D01*
X679561Y185515D01*
X679308Y185300D01*
X663903Y169895D01*
X663886Y169874D01*
X663866Y169856D01*
X663759Y169718D01*
X663648Y169583D01*
X663635Y169559D01*
X663619Y169538D01*
X663541Y169381D01*
X663459Y169227D01*
X663451Y169202D01*
X663439Y169178D01*
X663394Y169008D01*
X663344Y168841D01*
X663342Y168815D01*
X663335Y168789D01*
X663308Y168458D01*
X663308Y167054D01*
X662384Y164823D01*
X660677Y163116D01*
X658446Y162192D01*
X656032Y162192D01*
X653801Y163116D01*
X652094Y164823D01*
X651170Y167054D01*
X651170Y169468D01*
X652094Y171699D01*
X653801Y173406D01*
X656032Y174330D01*
X657436Y174330D01*
X657463Y174332D01*
X657490Y174330D01*
X657664Y174352D01*
X657837Y174370D01*
X657863Y174377D01*
X657889Y174381D01*
X658055Y174436D01*
X658222Y174488D01*
X658246Y174500D01*
X658271Y174509D01*
X658423Y174596D01*
X658576Y174679D01*
X658596Y174697D01*
X658620Y174710D01*
X658873Y174925D01*
X693816Y209868D01*
X694243Y209868D01*
X694256Y209870D01*
X694270Y209868D01*
X694456Y209889D01*
X694644Y209908D01*
X694656Y209912D01*
X694670Y209914D01*
X694849Y209971D01*
X695029Y210026D01*
X695040Y210033D01*
X695053Y210037D01*
X695218Y210129D01*
X695383Y210218D01*
X695393Y210227D01*
X695405Y210233D01*
X695547Y210355D01*
X695692Y210476D01*
X695700Y210486D01*
X695710Y210495D01*
X695826Y210643D01*
X695944Y210790D01*
X695950Y210801D01*
X695959Y210812D01*
X696043Y210981D01*
X696130Y211147D01*
X696133Y211160D01*
X696139Y211172D01*
X696189Y211353D01*
X696241Y211534D01*
X696242Y211547D01*
X696246Y211560D01*
X696259Y211748D01*
X696274Y211935D01*
X696272Y211948D01*
X696273Y211962D01*
X696249Y212149D01*
X696227Y212335D01*
X696223Y212348D01*
X696221Y212361D01*
X696120Y212677D01*
X694943Y215517D01*
X694943Y219458D01*
X696451Y223099D01*
X699238Y225886D01*
X702879Y227394D01*
X706821Y227394D01*
X710462Y225886D01*
X712701Y223647D01*
X712715Y223635D01*
X712726Y223622D01*
X712871Y223508D01*
X713013Y223392D01*
X713028Y223383D01*
X713042Y223372D01*
X713206Y223289D01*
X713368Y223203D01*
X713385Y223198D01*
X713401Y223190D01*
X713578Y223140D01*
X713754Y223088D01*
X713772Y223086D01*
X713789Y223082D01*
X713972Y223068D01*
X714155Y223052D01*
X714173Y223054D01*
X714191Y223052D01*
X714373Y223075D01*
X714555Y223095D01*
X714573Y223101D01*
X714590Y223103D01*
X714764Y223161D01*
X714939Y223217D01*
X714955Y223225D01*
X714972Y223231D01*
X715131Y223323D01*
X715292Y223411D01*
X715305Y223423D01*
X715321Y223432D01*
X715574Y223647D01*
X724147Y232220D01*
X736353Y232220D01*
X744926Y223647D01*
X744940Y223635D01*
X744952Y223622D01*
X745095Y223508D01*
X745238Y223392D01*
X745253Y223383D01*
X745268Y223372D01*
X745432Y223289D01*
X745593Y223203D01*
X745610Y223198D01*
X745626Y223190D01*
X745804Y223140D01*
X745979Y223088D01*
X745997Y223086D01*
X746014Y223082D01*
X746198Y223068D01*
X746380Y223052D01*
X746398Y223054D01*
X746416Y223052D01*
X746598Y223075D01*
X746781Y223095D01*
X746798Y223100D01*
X746815Y223103D01*
X746989Y223161D01*
X747164Y223217D01*
X747180Y223225D01*
X747197Y223231D01*
X747356Y223322D01*
X747517Y223411D01*
X747530Y223423D01*
X747546Y223432D01*
X747799Y223647D01*
X750038Y225886D01*
X753679Y227394D01*
X757621Y227394D01*
X761262Y225886D01*
X763654Y223494D01*
X763655Y223493D01*
X763656Y223491D01*
X763806Y223369D01*
X763965Y223239D01*
X763967Y223238D01*
X763968Y223237D01*
X764142Y223145D01*
X764321Y223050D01*
X764323Y223050D01*
X764324Y223049D01*
X764508Y222995D01*
X764707Y222935D01*
X764709Y222935D01*
X764710Y222935D01*
X764896Y222918D01*
X765108Y222899D01*
X765110Y222899D01*
X765111Y222899D01*
X765299Y222920D01*
X765508Y222942D01*
X765510Y222943D01*
X765512Y222943D01*
X765693Y223001D01*
X765892Y223064D01*
X765894Y223065D01*
X765895Y223065D01*
X766065Y223159D01*
X766244Y223259D01*
X766246Y223260D01*
X766247Y223261D01*
X766399Y223390D01*
X766551Y223519D01*
X766552Y223521D01*
X766554Y223522D01*
X766676Y223677D01*
X766801Y223835D01*
X766802Y223837D01*
X766803Y223838D01*
X766891Y224013D01*
X766983Y224194D01*
X766984Y224196D01*
X766985Y224197D01*
X767036Y224384D01*
X767091Y224582D01*
X767091Y224584D01*
X767092Y224586D01*
X767121Y224916D01*
X767292Y249377D01*
X767290Y249402D01*
X767292Y249427D01*
X767272Y249603D01*
X767255Y249778D01*
X767248Y249802D01*
X767245Y249827D01*
X767190Y249995D01*
X767140Y250164D01*
X767128Y250186D01*
X767120Y250210D01*
X767034Y250364D01*
X766951Y250519D01*
X766935Y250539D01*
X766923Y250560D01*
X766807Y250694D01*
X766695Y250830D01*
X766676Y250846D01*
X766659Y250865D01*
X766520Y250973D01*
X766383Y251085D01*
X766361Y251097D01*
X766341Y251112D01*
X766183Y251191D01*
X766027Y251273D01*
X766003Y251280D01*
X765981Y251291D01*
X765809Y251337D01*
X765641Y251387D01*
X765616Y251389D01*
X765592Y251396D01*
X765261Y251423D01*
X264858Y251423D01*
X264841Y251421D01*
X264823Y251422D01*
X264641Y251401D01*
X264458Y251383D01*
X264441Y251378D01*
X264423Y251376D01*
X264249Y251319D01*
X264073Y251265D01*
X264057Y251256D01*
X264040Y251251D01*
X263880Y251160D01*
X263719Y251073D01*
X263705Y251062D01*
X263690Y251053D01*
X263550Y250933D01*
X263410Y250815D01*
X263398Y250801D01*
X263385Y250790D01*
X263272Y250645D01*
X263157Y250501D01*
X263149Y250486D01*
X263138Y250472D01*
X263056Y250307D01*
X262972Y250144D01*
X262967Y250127D01*
X262959Y250111D01*
X262911Y249933D01*
X262860Y249757D01*
X262859Y249739D01*
X262854Y249722D01*
X262827Y249392D01*
X262827Y226179D01*
X262828Y226170D01*
X262827Y226161D01*
X262848Y225969D01*
X262867Y225778D01*
X262870Y225770D01*
X262871Y225761D01*
X262929Y225577D01*
X262985Y225393D01*
X262990Y225385D01*
X262992Y225377D01*
X263086Y225207D01*
X263177Y225039D01*
X263183Y225032D01*
X263187Y225025D01*
X263312Y224877D01*
X263435Y224730D01*
X263442Y224724D01*
X263448Y224718D01*
X263599Y224598D01*
X263749Y224478D01*
X263757Y224474D01*
X263763Y224468D01*
X263935Y224381D01*
X264106Y224292D01*
X264114Y224290D01*
X264122Y224286D01*
X264308Y224234D01*
X264493Y224181D01*
X264502Y224180D01*
X264510Y224178D01*
X264703Y224164D01*
X264894Y224148D01*
X264903Y224149D01*
X264912Y224148D01*
X265105Y224173D01*
X265294Y224195D01*
X265302Y224198D01*
X265311Y224199D01*
X265494Y224260D01*
X265677Y224320D01*
X265685Y224324D01*
X265693Y224327D01*
X265858Y224422D01*
X266027Y224518D01*
X266034Y224523D01*
X266042Y224528D01*
X266295Y224743D01*
X267438Y225886D01*
X271079Y227394D01*
X275021Y227394D01*
X278662Y225886D01*
X281449Y223099D01*
X282957Y219458D01*
X282957Y215517D01*
X282748Y215013D01*
X282740Y214987D01*
X282728Y214963D01*
X282682Y214795D01*
X282631Y214627D01*
X282629Y214601D01*
X282622Y214575D01*
X282610Y214400D01*
X282593Y214227D01*
X282596Y214200D01*
X282594Y214173D01*
X282617Y214000D01*
X282635Y213826D01*
X282643Y213800D01*
X282646Y213774D01*
X282664Y213718D01*
X282664Y202318D01*
X282666Y202300D01*
X282665Y202282D01*
X282686Y202100D01*
X282704Y201917D01*
X282709Y201900D01*
X282711Y201883D01*
X282768Y201708D01*
X282822Y201532D01*
X282831Y201517D01*
X282836Y201500D01*
X282927Y201340D01*
X283014Y201178D01*
X283025Y201165D01*
X283034Y201149D01*
X283154Y201010D01*
X283272Y200869D01*
X283286Y200858D01*
X283297Y200844D01*
X283442Y200732D01*
X283586Y200617D01*
X283601Y200609D01*
X283615Y200598D01*
X283780Y200516D01*
X283943Y200431D01*
X283960Y200426D01*
X283976Y200418D01*
X284154Y200371D01*
X284330Y200320D01*
X284348Y200318D01*
X284365Y200314D01*
X284695Y200287D01*
X285285Y200287D01*
X286624Y198947D01*
X286624Y182053D01*
X285285Y180713D01*
X270390Y180713D01*
X269051Y182053D01*
X269051Y198947D01*
X270390Y200287D01*
X270980Y200287D01*
X270997Y200289D01*
X271015Y200287D01*
X271197Y200308D01*
X271380Y200327D01*
X271397Y200332D01*
X271415Y200334D01*
X271589Y200391D01*
X271765Y200445D01*
X271781Y200453D01*
X271798Y200459D01*
X271958Y200549D01*
X272119Y200637D01*
X272133Y200648D01*
X272148Y200657D01*
X272288Y200777D01*
X272428Y200894D01*
X272440Y200908D01*
X272453Y200920D01*
X272566Y201065D01*
X272681Y201208D01*
X272689Y201224D01*
X272700Y201238D01*
X272782Y201403D01*
X272866Y201565D01*
X272871Y201582D01*
X272879Y201598D01*
X272927Y201777D01*
X272978Y201952D01*
X272979Y201970D01*
X272984Y201987D01*
X273011Y202318D01*
X273011Y205550D01*
X273009Y205567D01*
X273010Y205585D01*
X272989Y205767D01*
X272971Y205950D01*
X272966Y205967D01*
X272964Y205985D01*
X272907Y206158D01*
X272853Y206335D01*
X272844Y206351D01*
X272839Y206368D01*
X272748Y206528D01*
X272661Y206689D01*
X272650Y206703D01*
X272641Y206718D01*
X272521Y206858D01*
X272403Y206998D01*
X272389Y207010D01*
X272378Y207023D01*
X272233Y207136D01*
X272089Y207251D01*
X272074Y207259D01*
X272060Y207270D01*
X271895Y207352D01*
X271732Y207436D01*
X271715Y207441D01*
X271699Y207449D01*
X271521Y207497D01*
X271345Y207548D01*
X271327Y207549D01*
X271310Y207554D01*
X271104Y207571D01*
X267438Y209089D01*
X266295Y210232D01*
X266288Y210238D01*
X266282Y210245D01*
X266132Y210366D01*
X265983Y210488D01*
X265975Y210492D01*
X265968Y210497D01*
X265798Y210586D01*
X265628Y210676D01*
X265619Y210679D01*
X265611Y210683D01*
X265427Y210736D01*
X265242Y210791D01*
X265233Y210792D01*
X265224Y210794D01*
X265033Y210810D01*
X264841Y210827D01*
X264832Y210826D01*
X264823Y210827D01*
X264634Y210805D01*
X264440Y210784D01*
X264432Y210781D01*
X264423Y210780D01*
X264241Y210721D01*
X264057Y210662D01*
X264049Y210658D01*
X264040Y210655D01*
X263873Y210561D01*
X263704Y210468D01*
X263697Y210462D01*
X263690Y210457D01*
X263545Y210332D01*
X263397Y210207D01*
X263392Y210200D01*
X263385Y210194D01*
X263268Y210044D01*
X263148Y209891D01*
X263144Y209883D01*
X263138Y209876D01*
X263053Y209706D01*
X262965Y209532D01*
X262963Y209524D01*
X262959Y209516D01*
X262909Y209330D01*
X262857Y209144D01*
X262857Y209135D01*
X262854Y209127D01*
X262827Y208796D01*
X262827Y73779D01*
X262828Y73770D01*
X262827Y73761D01*
X262848Y73569D01*
X262867Y73378D01*
X262870Y73370D01*
X262871Y73361D01*
X262929Y73177D01*
X262985Y72993D01*
X262990Y72985D01*
X262992Y72977D01*
X263085Y72809D01*
X263177Y72639D01*
X263183Y72632D01*
X263187Y72625D01*
X263312Y72477D01*
X263435Y72330D01*
X263442Y72324D01*
X263448Y72318D01*
X263599Y72198D01*
X263749Y72078D01*
X263757Y72074D01*
X263763Y72068D01*
X263935Y71981D01*
X264106Y71892D01*
X264114Y71890D01*
X264122Y71886D01*
X264308Y71834D01*
X264493Y71781D01*
X264502Y71780D01*
X264510Y71778D01*
X264703Y71764D01*
X264894Y71748D01*
X264903Y71749D01*
X264912Y71748D01*
X265105Y71773D01*
X265294Y71795D01*
X265302Y71798D01*
X265311Y71799D01*
X265494Y71860D01*
X265677Y71920D01*
X265685Y71924D01*
X265693Y71927D01*
X265858Y72022D01*
X266027Y72118D01*
X266034Y72123D01*
X266042Y72128D01*
X266295Y72343D01*
X267438Y73486D01*
X271079Y74994D01*
X275021Y74994D01*
X278662Y73486D01*
X281449Y70699D01*
X282957Y67058D01*
X282957Y63117D01*
X281449Y59476D01*
X278662Y56689D01*
X275021Y55181D01*
X271079Y55181D01*
X267438Y56689D01*
X266295Y57832D01*
X266288Y57838D01*
X266282Y57845D01*
X266132Y57966D01*
X265983Y58088D01*
X265975Y58092D01*
X265968Y58097D01*
X265798Y58186D01*
X265628Y58276D01*
X265619Y58279D01*
X265611Y58283D01*
X265427Y58336D01*
X265242Y58391D01*
X265233Y58392D01*
X265224Y58394D01*
X265033Y58410D01*
X264841Y58427D01*
X264832Y58426D01*
X264823Y58427D01*
X264634Y58405D01*
X264440Y58384D01*
X264432Y58381D01*
X264423Y58380D01*
X264241Y58321D01*
X264057Y58262D01*
X264049Y58258D01*
X264040Y58255D01*
X263873Y58161D01*
X263704Y58068D01*
X263697Y58062D01*
X263690Y58057D01*
X263545Y57932D01*
X263397Y57807D01*
X263392Y57800D01*
X263385Y57794D01*
X263268Y57644D01*
X263148Y57491D01*
X263144Y57483D01*
X263138Y57476D01*
X263053Y57306D01*
X262965Y57132D01*
X262963Y57124D01*
X262959Y57116D01*
X262909Y56930D01*
X262857Y56744D01*
X262857Y56735D01*
X262854Y56727D01*
X262827Y56396D01*
X262827Y34671D01*
X262829Y34653D01*
X262828Y34635D01*
X262849Y34453D01*
X262867Y34270D01*
X262872Y34253D01*
X262874Y34236D01*
X262931Y34061D01*
X262985Y33885D01*
X262994Y33870D01*
X262999Y33853D01*
X263090Y33693D01*
X263177Y33531D01*
X263188Y33518D01*
X263197Y33502D01*
X263317Y33363D01*
X263435Y33222D01*
X263449Y33211D01*
X263460Y33197D01*
X263605Y33085D01*
X263749Y32970D01*
X263764Y32962D01*
X263778Y32951D01*
X263943Y32869D01*
X264106Y32784D01*
X264123Y32779D01*
X264139Y32771D01*
X264317Y32724D01*
X264493Y32673D01*
X264511Y32671D01*
X264528Y32667D01*
X264858Y32640D01*
X763759Y32640D01*
X763770Y32641D01*
G37*
%LPC*%
G36*
X467240Y117213D02*
X467240Y117213D01*
X465901Y118553D01*
X465901Y127000D01*
X465899Y127018D01*
X465900Y127036D01*
X465879Y127218D01*
X465861Y127401D01*
X465856Y127418D01*
X465854Y127435D01*
X465797Y127610D01*
X465743Y127786D01*
X465734Y127801D01*
X465729Y127818D01*
X465638Y127978D01*
X465551Y128140D01*
X465540Y128153D01*
X465531Y128169D01*
X465411Y128308D01*
X465293Y128449D01*
X465279Y128460D01*
X465268Y128474D01*
X465123Y128586D01*
X464979Y128701D01*
X464964Y128709D01*
X464950Y128720D01*
X464785Y128802D01*
X464622Y128887D01*
X464605Y128892D01*
X464589Y128900D01*
X464411Y128947D01*
X464235Y128998D01*
X464217Y129000D01*
X464200Y129004D01*
X463870Y129031D01*
X446443Y129031D01*
X446425Y129029D01*
X446407Y129031D01*
X446225Y129010D01*
X446042Y128991D01*
X446025Y128986D01*
X446008Y128984D01*
X445833Y128927D01*
X445657Y128873D01*
X445642Y128865D01*
X445625Y128859D01*
X445465Y128769D01*
X445303Y128681D01*
X445290Y128670D01*
X445274Y128661D01*
X445135Y128541D01*
X444994Y128424D01*
X444983Y128410D01*
X444969Y128398D01*
X444857Y128253D01*
X444742Y128110D01*
X444734Y128094D01*
X444723Y128080D01*
X444641Y127915D01*
X444556Y127753D01*
X444551Y127736D01*
X444543Y127720D01*
X444496Y127541D01*
X444445Y127366D01*
X444443Y127348D01*
X444439Y127331D01*
X444412Y127000D01*
X444412Y126903D01*
X443072Y125563D01*
X431178Y125563D01*
X429838Y126903D01*
X429838Y139797D01*
X431178Y141137D01*
X443072Y141137D01*
X444412Y139797D01*
X444412Y139700D01*
X444414Y139682D01*
X444412Y139664D01*
X444433Y139482D01*
X444452Y139299D01*
X444457Y139282D01*
X444459Y139265D01*
X444516Y139090D01*
X444570Y138914D01*
X444578Y138899D01*
X444584Y138882D01*
X444674Y138722D01*
X444762Y138560D01*
X444773Y138547D01*
X444782Y138531D01*
X444902Y138392D01*
X445019Y138251D01*
X445033Y138240D01*
X445045Y138226D01*
X445190Y138114D01*
X445333Y137999D01*
X445349Y137991D01*
X445363Y137980D01*
X445528Y137898D01*
X445690Y137813D01*
X445707Y137808D01*
X445723Y137800D01*
X445902Y137753D01*
X446077Y137702D01*
X446095Y137700D01*
X446112Y137696D01*
X446443Y137669D01*
X467830Y137669D01*
X467847Y137671D01*
X467865Y137669D01*
X468047Y137690D01*
X468230Y137709D01*
X468247Y137714D01*
X468265Y137716D01*
X468439Y137773D01*
X468615Y137827D01*
X468631Y137835D01*
X468648Y137841D01*
X468808Y137931D01*
X468969Y138019D01*
X468983Y138030D01*
X468998Y138039D01*
X469138Y138159D01*
X469278Y138276D01*
X469290Y138290D01*
X469303Y138302D01*
X469416Y138447D01*
X469531Y138590D01*
X469539Y138606D01*
X469550Y138620D01*
X469632Y138785D01*
X469716Y138947D01*
X469721Y138964D01*
X469729Y138980D01*
X469777Y139159D01*
X469828Y139334D01*
X469829Y139352D01*
X469834Y139369D01*
X469861Y139700D01*
X469861Y148598D01*
X470596Y150372D01*
X471953Y151729D01*
X473727Y152464D01*
X480226Y152464D01*
X480253Y152467D01*
X480280Y152465D01*
X480454Y152487D01*
X480627Y152504D01*
X480653Y152512D01*
X480679Y152515D01*
X480845Y152571D01*
X481012Y152622D01*
X481036Y152635D01*
X481061Y152644D01*
X481213Y152731D01*
X481366Y152814D01*
X481386Y152831D01*
X481410Y152844D01*
X481663Y153059D01*
X483528Y154924D01*
X483625Y154924D01*
X483643Y154926D01*
X483661Y154925D01*
X483843Y154946D01*
X484026Y154964D01*
X484043Y154969D01*
X484060Y154971D01*
X484235Y155028D01*
X484411Y155082D01*
X484426Y155091D01*
X484443Y155096D01*
X484603Y155187D01*
X484765Y155274D01*
X484778Y155285D01*
X484794Y155294D01*
X484933Y155414D01*
X485074Y155532D01*
X485085Y155546D01*
X485099Y155557D01*
X485211Y155702D01*
X485326Y155846D01*
X485334Y155861D01*
X485345Y155875D01*
X485427Y156040D01*
X485512Y156203D01*
X485517Y156220D01*
X485525Y156236D01*
X485572Y156414D01*
X485623Y156590D01*
X485625Y156608D01*
X485629Y156625D01*
X485656Y156955D01*
X485656Y160545D01*
X485654Y160562D01*
X485656Y160580D01*
X485635Y160762D01*
X485616Y160945D01*
X485611Y160962D01*
X485609Y160980D01*
X485552Y161154D01*
X485498Y161330D01*
X485490Y161346D01*
X485484Y161363D01*
X485394Y161523D01*
X485306Y161684D01*
X485295Y161698D01*
X485286Y161713D01*
X485166Y161853D01*
X485049Y161993D01*
X485035Y162005D01*
X485023Y162018D01*
X484878Y162131D01*
X484735Y162246D01*
X484719Y162254D01*
X484705Y162265D01*
X484540Y162347D01*
X484378Y162431D01*
X484361Y162436D01*
X484345Y162444D01*
X484166Y162492D01*
X483991Y162543D01*
X483973Y162544D01*
X483956Y162549D01*
X483625Y162576D01*
X483528Y162576D01*
X482188Y163915D01*
X482188Y169982D01*
X482186Y170008D01*
X482188Y170035D01*
X482166Y170209D01*
X482148Y170382D01*
X482141Y170408D01*
X482137Y170435D01*
X482081Y170601D01*
X482030Y170767D01*
X482018Y170791D01*
X482009Y170816D01*
X481922Y170968D01*
X481838Y171121D01*
X481821Y171142D01*
X481808Y171165D01*
X481593Y171418D01*
X479629Y173382D01*
X479622Y173388D01*
X479617Y173395D01*
X479467Y173515D01*
X479318Y173637D01*
X479310Y173641D01*
X479303Y173647D01*
X479133Y173736D01*
X478962Y173826D01*
X478953Y173828D01*
X478946Y173833D01*
X478761Y173886D01*
X478576Y173941D01*
X478567Y173941D01*
X478559Y173944D01*
X478368Y173960D01*
X478175Y173977D01*
X478166Y173976D01*
X478157Y173977D01*
X477968Y173955D01*
X477775Y173934D01*
X477766Y173931D01*
X477758Y173930D01*
X477576Y173871D01*
X477391Y173812D01*
X477383Y173808D01*
X477375Y173805D01*
X477208Y173711D01*
X477039Y173617D01*
X477032Y173612D01*
X477024Y173607D01*
X476879Y173482D01*
X476732Y173357D01*
X476726Y173350D01*
X476719Y173344D01*
X476603Y173194D01*
X476482Y173041D01*
X476478Y173033D01*
X476473Y173026D01*
X476387Y172854D01*
X476300Y172682D01*
X476297Y172673D01*
X476293Y172665D01*
X476243Y172479D01*
X476192Y172294D01*
X476191Y172285D01*
X476189Y172277D01*
X476162Y171946D01*
X476162Y160240D01*
X474822Y158901D01*
X462928Y158901D01*
X461811Y160017D01*
X461797Y160029D01*
X461786Y160042D01*
X461780Y160046D01*
X461777Y160051D01*
X461681Y160125D01*
X461642Y160156D01*
X461500Y160272D01*
X461484Y160281D01*
X461470Y160292D01*
X461459Y160297D01*
X461459Y160298D01*
X461454Y160300D01*
X461306Y160375D01*
X461144Y160461D01*
X461127Y160466D01*
X461111Y160474D01*
X460934Y160524D01*
X460758Y160576D01*
X460740Y160577D01*
X460723Y160582D01*
X460540Y160596D01*
X460357Y160612D01*
X460339Y160610D01*
X460322Y160612D01*
X460140Y160589D01*
X459957Y160569D01*
X459940Y160563D01*
X459922Y160561D01*
X459748Y160503D01*
X459573Y160447D01*
X459557Y160439D01*
X459541Y160433D01*
X459382Y160341D01*
X459255Y160271D01*
X459232Y160259D01*
X459231Y160258D01*
X459221Y160252D01*
X459207Y160241D01*
X459192Y160232D01*
X458939Y160017D01*
X457822Y158901D01*
X451037Y158901D01*
X451011Y158898D01*
X450984Y158900D01*
X450810Y158878D01*
X450637Y158861D01*
X450611Y158853D01*
X450585Y158850D01*
X450419Y158794D01*
X450252Y158743D01*
X450228Y158730D01*
X450203Y158721D01*
X450051Y158634D01*
X449898Y158551D01*
X449877Y158534D01*
X449854Y158521D01*
X449601Y158306D01*
X447445Y156150D01*
X447428Y156129D01*
X447408Y156112D01*
X447301Y155974D01*
X447190Y155839D01*
X447178Y155815D01*
X447161Y155794D01*
X447083Y155637D01*
X447001Y155483D01*
X446994Y155457D01*
X446982Y155433D01*
X446936Y155264D01*
X446887Y155097D01*
X446884Y155070D01*
X446877Y155044D01*
X446850Y154714D01*
X446850Y154366D01*
X445342Y150725D01*
X442555Y147938D01*
X438914Y146430D01*
X434973Y146430D01*
X431332Y147938D01*
X428545Y150725D01*
X427037Y154366D01*
X427037Y158308D01*
X428545Y161949D01*
X431332Y164736D01*
X431557Y164829D01*
X431558Y164829D01*
X434973Y166244D01*
X438914Y166244D01*
X441780Y165057D01*
X441793Y165053D01*
X441804Y165047D01*
X441984Y164995D01*
X442165Y164940D01*
X442178Y164939D01*
X442191Y164935D01*
X442379Y164920D01*
X442566Y164902D01*
X442579Y164904D01*
X442593Y164902D01*
X442780Y164924D01*
X442966Y164944D01*
X442979Y164948D01*
X442992Y164949D01*
X443172Y165008D01*
X443351Y165064D01*
X443362Y165070D01*
X443375Y165074D01*
X443540Y165167D01*
X443704Y165257D01*
X443714Y165266D01*
X443726Y165272D01*
X443868Y165395D01*
X444012Y165516D01*
X444020Y165527D01*
X444031Y165535D01*
X444146Y165684D01*
X444263Y165831D01*
X444269Y165843D01*
X444277Y165853D01*
X444361Y166022D01*
X444447Y166189D01*
X444451Y166202D01*
X444457Y166214D01*
X444506Y166397D01*
X444557Y166576D01*
X444558Y166590D01*
X444561Y166603D01*
X444588Y166933D01*
X444588Y173135D01*
X445928Y174474D01*
X450077Y174474D01*
X450086Y174475D01*
X450095Y174474D01*
X450286Y174495D01*
X450477Y174514D01*
X450486Y174517D01*
X450495Y174518D01*
X450677Y174575D01*
X450862Y174632D01*
X450870Y174637D01*
X450879Y174639D01*
X451047Y174732D01*
X451216Y174824D01*
X451223Y174830D01*
X451231Y174834D01*
X451378Y174959D01*
X451526Y175082D01*
X451531Y175089D01*
X451538Y175095D01*
X451657Y175245D01*
X451778Y175396D01*
X451782Y175403D01*
X451788Y175410D01*
X451875Y175583D01*
X451963Y175753D01*
X451966Y175761D01*
X451970Y175769D01*
X452022Y175956D01*
X452075Y176140D01*
X452076Y176149D01*
X452078Y176157D01*
X452092Y176350D01*
X452108Y176541D01*
X452107Y176550D01*
X452107Y176559D01*
X452083Y176751D01*
X452061Y176941D01*
X452058Y176949D01*
X452057Y176958D01*
X451996Y177141D01*
X451936Y177324D01*
X451932Y177332D01*
X451929Y177340D01*
X451833Y177505D01*
X451738Y177674D01*
X451732Y177681D01*
X451728Y177689D01*
X451513Y177942D01*
X448924Y180531D01*
X448903Y180548D01*
X448886Y180568D01*
X448748Y180675D01*
X448613Y180786D01*
X448589Y180798D01*
X448568Y180815D01*
X448412Y180892D01*
X448257Y180975D01*
X448231Y180982D01*
X448207Y180994D01*
X448038Y181040D01*
X447871Y181089D01*
X447844Y181092D01*
X447818Y181099D01*
X447488Y181126D01*
X446275Y181126D01*
X446248Y181123D01*
X446221Y181125D01*
X446048Y181103D01*
X445874Y181086D01*
X445849Y181078D01*
X445822Y181075D01*
X445656Y181019D01*
X445489Y180968D01*
X445466Y180955D01*
X445440Y180946D01*
X445289Y180859D01*
X445135Y180776D01*
X445115Y180759D01*
X445091Y180746D01*
X445001Y180669D01*
X443372Y179994D01*
X440600Y179994D01*
X440574Y179991D01*
X440547Y179993D01*
X440373Y179971D01*
X440199Y179954D01*
X440174Y179946D01*
X440147Y179943D01*
X439982Y179887D01*
X439815Y179836D01*
X439791Y179823D01*
X439766Y179814D01*
X439614Y179727D01*
X439461Y179644D01*
X439440Y179627D01*
X439417Y179614D01*
X439164Y179399D01*
X424379Y164614D01*
X424135Y164513D01*
X422791Y163956D01*
X377782Y163956D01*
X377755Y163954D01*
X377729Y163956D01*
X377555Y163934D01*
X377381Y163916D01*
X377356Y163909D01*
X377329Y163905D01*
X377164Y163850D01*
X376996Y163798D01*
X376973Y163785D01*
X376948Y163777D01*
X376796Y163690D01*
X376642Y163606D01*
X376622Y163589D01*
X376599Y163576D01*
X376346Y163361D01*
X375229Y162245D01*
X372999Y161321D01*
X370584Y161321D01*
X368354Y162245D01*
X366647Y163952D01*
X365723Y166182D01*
X365723Y168597D01*
X366647Y170827D01*
X368354Y172534D01*
X370584Y173458D01*
X372999Y173458D01*
X374712Y172748D01*
X374742Y172739D01*
X374770Y172725D01*
X374935Y172681D01*
X375098Y172632D01*
X375129Y172629D01*
X375159Y172621D01*
X375490Y172594D01*
X405392Y172594D01*
X405401Y172595D01*
X405410Y172594D01*
X405602Y172615D01*
X405793Y172634D01*
X405801Y172636D01*
X405810Y172637D01*
X405993Y172695D01*
X406178Y172752D01*
X406186Y172756D01*
X406194Y172759D01*
X406362Y172852D01*
X406532Y172944D01*
X406539Y172949D01*
X406546Y172954D01*
X406693Y173078D01*
X406841Y173201D01*
X406847Y173208D01*
X406853Y173214D01*
X406972Y173365D01*
X407093Y173515D01*
X407097Y173523D01*
X407103Y173530D01*
X407191Y173703D01*
X407279Y173872D01*
X407281Y173881D01*
X407285Y173889D01*
X407337Y174075D01*
X407390Y174259D01*
X407391Y174268D01*
X407393Y174277D01*
X407407Y174468D01*
X407423Y174661D01*
X407422Y174669D01*
X407423Y174678D01*
X407398Y174871D01*
X407376Y175060D01*
X407373Y175069D01*
X407372Y175078D01*
X407311Y175261D01*
X407251Y175443D01*
X407247Y175451D01*
X407244Y175459D01*
X407149Y175625D01*
X407053Y175794D01*
X407048Y175801D01*
X407043Y175808D01*
X406829Y176061D01*
X401256Y181634D01*
X401256Y185468D01*
X401255Y185477D01*
X401256Y185486D01*
X401235Y185677D01*
X401216Y185869D01*
X401213Y185877D01*
X401212Y185886D01*
X401155Y186068D01*
X401098Y186254D01*
X401093Y186261D01*
X401091Y186270D01*
X400998Y186438D01*
X400906Y186608D01*
X400900Y186614D01*
X400896Y186622D01*
X400771Y186770D01*
X400648Y186917D01*
X400641Y186922D01*
X400635Y186929D01*
X400484Y187049D01*
X400334Y187169D01*
X400327Y187173D01*
X400320Y187179D01*
X400147Y187266D01*
X399977Y187355D01*
X399969Y187357D01*
X399961Y187361D01*
X399775Y187413D01*
X399590Y187466D01*
X399581Y187467D01*
X399573Y187469D01*
X399380Y187483D01*
X399189Y187499D01*
X399180Y187498D01*
X399171Y187499D01*
X398978Y187474D01*
X398789Y187452D01*
X398781Y187449D01*
X398772Y187448D01*
X398589Y187387D01*
X398406Y187327D01*
X398398Y187323D01*
X398390Y187320D01*
X398225Y187225D01*
X398056Y187129D01*
X398049Y187123D01*
X398041Y187119D01*
X397788Y186904D01*
X396360Y185476D01*
X381465Y185476D01*
X380126Y186815D01*
X380126Y203710D01*
X381992Y205576D01*
X381995Y205579D01*
X381998Y205582D01*
X382119Y205731D01*
X382247Y205887D01*
X382249Y205891D01*
X382252Y205895D01*
X382344Y206070D01*
X382436Y206243D01*
X382437Y206247D01*
X382439Y206251D01*
X382495Y206442D01*
X382550Y206629D01*
X382551Y206633D01*
X382552Y206638D01*
X382569Y206830D01*
X382587Y207030D01*
X382586Y207034D01*
X382587Y207039D01*
X382565Y207229D01*
X382543Y207430D01*
X382542Y207434D01*
X382541Y207439D01*
X382482Y207625D01*
X382422Y207814D01*
X382420Y207818D01*
X382418Y207822D01*
X382321Y207996D01*
X382227Y208166D01*
X382224Y208170D01*
X382222Y208174D01*
X382095Y208322D01*
X381967Y208473D01*
X381963Y208476D01*
X381960Y208479D01*
X381807Y208599D01*
X381651Y208723D01*
X381647Y208725D01*
X381643Y208728D01*
X381469Y208815D01*
X381292Y208905D01*
X381287Y208906D01*
X381283Y208908D01*
X381097Y208959D01*
X380904Y209013D01*
X380899Y209014D01*
X380895Y209015D01*
X380699Y209028D01*
X380502Y209043D01*
X380498Y209042D01*
X380493Y209042D01*
X380297Y209017D01*
X380103Y208992D01*
X380099Y208991D01*
X380094Y208990D01*
X379778Y208889D01*
X376621Y207581D01*
X372679Y207581D01*
X369038Y209089D01*
X366251Y211876D01*
X364743Y215517D01*
X364743Y219458D01*
X366251Y223099D01*
X369038Y225886D01*
X372679Y227394D01*
X376621Y227394D01*
X380262Y225886D01*
X383049Y223099D01*
X384557Y219458D01*
X384557Y215517D01*
X383729Y213519D01*
X383728Y213515D01*
X383726Y213511D01*
X383670Y213323D01*
X383613Y213134D01*
X383612Y213130D01*
X383611Y213125D01*
X383593Y212924D01*
X383575Y212733D01*
X383575Y212729D01*
X383575Y212724D01*
X383596Y212525D01*
X383616Y212333D01*
X383618Y212329D01*
X383618Y212324D01*
X383678Y212136D01*
X383736Y211948D01*
X383738Y211944D01*
X383740Y211940D01*
X383834Y211770D01*
X383929Y211595D01*
X383932Y211592D01*
X383935Y211588D01*
X384061Y211438D01*
X384189Y211287D01*
X384192Y211284D01*
X384195Y211281D01*
X384349Y211159D01*
X384503Y211036D01*
X384507Y211034D01*
X384511Y211031D01*
X384687Y210942D01*
X384862Y210852D01*
X384866Y210851D01*
X384870Y210849D01*
X385062Y210795D01*
X385249Y210742D01*
X385253Y210742D01*
X385258Y210741D01*
X385459Y210726D01*
X385650Y210711D01*
X385655Y210712D01*
X385659Y210712D01*
X385857Y210737D01*
X386050Y210760D01*
X386054Y210761D01*
X386059Y210762D01*
X386245Y210824D01*
X386432Y210887D01*
X386436Y210889D01*
X386440Y210890D01*
X386612Y210989D01*
X386782Y211086D01*
X386785Y211089D01*
X386789Y211091D01*
X387042Y211306D01*
X389548Y213812D01*
X389565Y213833D01*
X389586Y213850D01*
X389693Y213988D01*
X389803Y214123D01*
X389816Y214147D01*
X389832Y214168D01*
X389910Y214325D01*
X389992Y214479D01*
X390000Y214505D01*
X390012Y214529D01*
X390057Y214698D01*
X390107Y214865D01*
X390109Y214892D01*
X390116Y214917D01*
X390143Y215248D01*
X390143Y219458D01*
X391651Y223099D01*
X394438Y225886D01*
X398079Y227394D01*
X402021Y227394D01*
X405662Y225886D01*
X408449Y223099D01*
X409957Y219458D01*
X409957Y215517D01*
X408449Y211876D01*
X405662Y209089D01*
X402021Y207581D01*
X398732Y207581D01*
X398723Y207580D01*
X398714Y207581D01*
X398522Y207560D01*
X398331Y207541D01*
X398323Y207538D01*
X398314Y207537D01*
X398132Y207480D01*
X397946Y207423D01*
X397939Y207418D01*
X397930Y207416D01*
X397761Y207323D01*
X397592Y207231D01*
X397586Y207225D01*
X397578Y207221D01*
X397430Y207096D01*
X397283Y206973D01*
X397278Y206966D01*
X397271Y206960D01*
X397151Y206808D01*
X397031Y206659D01*
X397027Y206652D01*
X397021Y206645D01*
X396933Y206472D01*
X396845Y206302D01*
X396843Y206294D01*
X396839Y206286D01*
X396787Y206100D01*
X396734Y205915D01*
X396733Y205906D01*
X396731Y205898D01*
X396717Y205705D01*
X396701Y205514D01*
X396702Y205505D01*
X396701Y205496D01*
X396726Y205304D01*
X396748Y205114D01*
X396751Y205106D01*
X396752Y205097D01*
X396813Y204915D01*
X396873Y204731D01*
X396877Y204724D01*
X396880Y204715D01*
X396976Y204548D01*
X397071Y204381D01*
X397077Y204374D01*
X397081Y204366D01*
X397296Y204113D01*
X397699Y203710D01*
X397699Y191188D01*
X397700Y191179D01*
X397699Y191171D01*
X397720Y190977D01*
X397739Y190788D01*
X397742Y190779D01*
X397743Y190770D01*
X397801Y190586D01*
X397857Y190403D01*
X397862Y190395D01*
X397864Y190386D01*
X397957Y190218D01*
X398049Y190049D01*
X398055Y190042D01*
X398059Y190034D01*
X398184Y189887D01*
X398307Y189739D01*
X398314Y189734D01*
X398320Y189727D01*
X398470Y189608D01*
X398621Y189487D01*
X398628Y189483D01*
X398635Y189477D01*
X398808Y189390D01*
X398978Y189302D01*
X398986Y189299D01*
X398994Y189295D01*
X399181Y189243D01*
X399365Y189190D01*
X399374Y189190D01*
X399382Y189187D01*
X399575Y189173D01*
X399766Y189157D01*
X399775Y189158D01*
X399784Y189158D01*
X399976Y189182D01*
X400166Y189204D01*
X400174Y189207D01*
X400183Y189208D01*
X400366Y189270D01*
X400549Y189329D01*
X400557Y189334D01*
X400565Y189336D01*
X400732Y189432D01*
X400899Y189527D01*
X400906Y189533D01*
X400914Y189537D01*
X401167Y189752D01*
X407059Y195644D01*
X415266Y195644D01*
X421069Y189841D01*
X421069Y181634D01*
X415496Y176061D01*
X415491Y176054D01*
X415484Y176049D01*
X415364Y175899D01*
X415241Y175750D01*
X415237Y175742D01*
X415232Y175735D01*
X415143Y175565D01*
X415053Y175394D01*
X415050Y175385D01*
X415046Y175378D01*
X414993Y175192D01*
X414938Y175008D01*
X414937Y174999D01*
X414935Y174991D01*
X414919Y174799D01*
X414902Y174607D01*
X414903Y174598D01*
X414902Y174589D01*
X414924Y174400D01*
X414945Y174207D01*
X414948Y174198D01*
X414949Y174190D01*
X415008Y174007D01*
X415067Y173823D01*
X415071Y173815D01*
X415074Y173807D01*
X415169Y173637D01*
X415261Y173471D01*
X415267Y173464D01*
X415272Y173456D01*
X415398Y173310D01*
X415522Y173164D01*
X415529Y173158D01*
X415535Y173151D01*
X415686Y173034D01*
X415838Y172914D01*
X415846Y172910D01*
X415853Y172905D01*
X416025Y172819D01*
X416197Y172732D01*
X416205Y172729D01*
X416213Y172725D01*
X416400Y172675D01*
X416585Y172624D01*
X416593Y172623D01*
X416602Y172621D01*
X416933Y172594D01*
X419302Y172594D01*
X419329Y172596D01*
X419355Y172594D01*
X419529Y172616D01*
X419703Y172634D01*
X419728Y172641D01*
X419755Y172645D01*
X419920Y172700D01*
X420088Y172752D01*
X420111Y172765D01*
X420136Y172773D01*
X420288Y172860D01*
X420442Y172944D01*
X420462Y172961D01*
X420485Y172974D01*
X420738Y173189D01*
X435523Y187974D01*
X437111Y188631D01*
X437795Y188631D01*
X437812Y188633D01*
X437830Y188632D01*
X438012Y188653D01*
X438195Y188671D01*
X438212Y188676D01*
X438230Y188678D01*
X438404Y188735D01*
X438580Y188789D01*
X438596Y188798D01*
X438613Y188803D01*
X438773Y188894D01*
X438934Y188981D01*
X438948Y188992D01*
X438963Y189001D01*
X439103Y189121D01*
X439243Y189239D01*
X439255Y189253D01*
X439268Y189264D01*
X439381Y189409D01*
X439496Y189553D01*
X439504Y189568D01*
X439515Y189582D01*
X439597Y189747D01*
X439681Y189910D01*
X439686Y189927D01*
X439694Y189943D01*
X439742Y190121D01*
X439793Y190297D01*
X439794Y190315D01*
X439799Y190332D01*
X439826Y190662D01*
X439826Y195444D01*
X439823Y195471D01*
X439825Y195498D01*
X439803Y195672D01*
X439786Y195845D01*
X439778Y195870D01*
X439775Y195897D01*
X439719Y196063D01*
X439668Y196230D01*
X439655Y196253D01*
X439646Y196279D01*
X439559Y196430D01*
X439476Y196584D01*
X439459Y196604D01*
X439446Y196628D01*
X439231Y196881D01*
X429126Y206986D01*
X429105Y207003D01*
X429087Y207023D01*
X428950Y207130D01*
X428814Y207241D01*
X428790Y207253D01*
X428769Y207270D01*
X428612Y207348D01*
X428458Y207430D01*
X428433Y207437D01*
X428409Y207449D01*
X428239Y207495D01*
X428073Y207544D01*
X428046Y207547D01*
X428020Y207554D01*
X427689Y207581D01*
X423479Y207581D01*
X419838Y209089D01*
X417051Y211876D01*
X415543Y215517D01*
X415543Y219458D01*
X417051Y223099D01*
X419838Y225886D01*
X423479Y227394D01*
X427421Y227394D01*
X431062Y225886D01*
X431505Y225443D01*
X431519Y225431D01*
X431531Y225418D01*
X431674Y225304D01*
X431817Y225188D01*
X431832Y225179D01*
X431846Y225168D01*
X432010Y225085D01*
X432172Y224999D01*
X432189Y224994D01*
X432205Y224986D01*
X432382Y224937D01*
X432558Y224884D01*
X432576Y224882D01*
X432593Y224878D01*
X432776Y224864D01*
X432959Y224848D01*
X432977Y224850D01*
X432995Y224848D01*
X433177Y224871D01*
X433359Y224891D01*
X433376Y224896D01*
X433394Y224899D01*
X433569Y224957D01*
X433743Y225013D01*
X433759Y225021D01*
X433776Y225027D01*
X433935Y225119D01*
X434096Y225207D01*
X434109Y225219D01*
X434125Y225228D01*
X434378Y225443D01*
X441317Y232382D01*
X442961Y234025D01*
X444735Y234760D01*
X482365Y234760D01*
X484139Y234025D01*
X492722Y225443D01*
X492736Y225431D01*
X492748Y225418D01*
X492892Y225304D01*
X493034Y225188D01*
X493049Y225179D01*
X493064Y225168D01*
X493228Y225085D01*
X493389Y224999D01*
X493407Y224994D01*
X493422Y224986D01*
X493599Y224936D01*
X493775Y224884D01*
X493793Y224882D01*
X493810Y224878D01*
X493993Y224864D01*
X494176Y224848D01*
X494194Y224850D01*
X494212Y224848D01*
X494393Y224871D01*
X494577Y224891D01*
X494594Y224897D01*
X494611Y224899D01*
X494785Y224957D01*
X494960Y225013D01*
X494976Y225021D01*
X494993Y225027D01*
X495153Y225119D01*
X495313Y225207D01*
X495326Y225219D01*
X495342Y225228D01*
X495595Y225443D01*
X496038Y225886D01*
X499679Y227394D01*
X503621Y227394D01*
X507262Y225886D01*
X510049Y223099D01*
X511557Y219458D01*
X511557Y215517D01*
X510049Y211876D01*
X507262Y209089D01*
X504670Y208015D01*
X504658Y208009D01*
X504645Y208005D01*
X504481Y207914D01*
X504315Y207825D01*
X504305Y207817D01*
X504293Y207810D01*
X504150Y207689D01*
X504005Y207569D01*
X503996Y207558D01*
X503986Y207550D01*
X503869Y207402D01*
X503751Y207256D01*
X503745Y207244D01*
X503736Y207234D01*
X503651Y207066D01*
X503564Y206900D01*
X503560Y206887D01*
X503554Y206875D01*
X503504Y206694D01*
X503451Y206513D01*
X503450Y206500D01*
X503446Y206487D01*
X503432Y206298D01*
X503416Y206112D01*
X503418Y206099D01*
X503417Y206085D01*
X503440Y205898D01*
X503461Y205712D01*
X503465Y205699D01*
X503467Y205686D01*
X503527Y205508D01*
X503585Y205329D01*
X503591Y205317D01*
X503595Y205304D01*
X503689Y205142D01*
X503781Y204977D01*
X503790Y204967D01*
X503796Y204956D01*
X504011Y204703D01*
X505980Y202733D01*
X506474Y201541D01*
X506485Y201521D01*
X506492Y201500D01*
X506580Y201344D01*
X506664Y201186D01*
X506679Y201169D01*
X506690Y201149D01*
X506807Y201014D01*
X506921Y200875D01*
X506938Y200861D01*
X506953Y200844D01*
X507094Y200735D01*
X507234Y200622D01*
X507253Y200611D01*
X507271Y200598D01*
X507431Y200518D01*
X507590Y200435D01*
X507611Y200428D01*
X507631Y200418D01*
X507805Y200372D01*
X507976Y200322D01*
X507999Y200320D01*
X508020Y200314D01*
X508351Y200287D01*
X517010Y200287D01*
X518349Y198947D01*
X518349Y182053D01*
X517010Y180713D01*
X514762Y180713D01*
X514753Y180712D01*
X514744Y180713D01*
X514552Y180692D01*
X514361Y180673D01*
X514353Y180671D01*
X514344Y180670D01*
X514162Y180612D01*
X513976Y180555D01*
X513969Y180551D01*
X513960Y180548D01*
X513792Y180455D01*
X513622Y180363D01*
X513616Y180358D01*
X513608Y180353D01*
X513460Y180228D01*
X513313Y180106D01*
X513308Y180099D01*
X513301Y180093D01*
X513181Y179941D01*
X513061Y179792D01*
X513057Y179784D01*
X513051Y179777D01*
X512964Y179605D01*
X512875Y179435D01*
X512873Y179426D01*
X512869Y179418D01*
X512817Y179232D01*
X512764Y179048D01*
X512763Y179039D01*
X512761Y179030D01*
X512747Y178838D01*
X512731Y178646D01*
X512732Y178638D01*
X512731Y178629D01*
X512756Y178434D01*
X512778Y178247D01*
X512781Y178238D01*
X512782Y178229D01*
X512843Y178046D01*
X512903Y177864D01*
X512907Y177856D01*
X512910Y177848D01*
X513005Y177682D01*
X513101Y177513D01*
X513107Y177506D01*
X513111Y177499D01*
X513326Y177246D01*
X514762Y175810D01*
X514762Y163915D01*
X512905Y162058D01*
X512888Y162038D01*
X512867Y162020D01*
X512760Y161882D01*
X512650Y161747D01*
X512637Y161723D01*
X512621Y161702D01*
X512543Y161545D01*
X512461Y161391D01*
X512453Y161365D01*
X512441Y161341D01*
X512396Y161172D01*
X512346Y161005D01*
X512344Y160979D01*
X512337Y160953D01*
X512310Y160622D01*
X512310Y156878D01*
X512312Y156851D01*
X512310Y156825D01*
X512332Y156651D01*
X512350Y156477D01*
X512357Y156452D01*
X512361Y156425D01*
X512417Y156259D01*
X512468Y156093D01*
X512481Y156069D01*
X512489Y156044D01*
X512576Y155892D01*
X512660Y155738D01*
X512677Y155718D01*
X512690Y155695D01*
X512905Y155442D01*
X514762Y153585D01*
X514762Y141690D01*
X513406Y140334D01*
X513361Y140329D01*
X513182Y140311D01*
X513161Y140304D01*
X513139Y140302D01*
X512969Y140245D01*
X512797Y140193D01*
X512778Y140182D01*
X512757Y140175D01*
X512601Y140086D01*
X512443Y140001D01*
X512426Y139987D01*
X512407Y139976D01*
X512271Y139858D01*
X512134Y139743D01*
X512120Y139726D01*
X512103Y139711D01*
X511994Y139569D01*
X511882Y139429D01*
X511871Y139410D01*
X511858Y139392D01*
X511706Y139097D01*
X511067Y137553D01*
X503069Y129556D01*
X503052Y129535D01*
X503032Y129517D01*
X502925Y129380D01*
X502814Y129244D01*
X502802Y129220D01*
X502785Y129199D01*
X502707Y129042D01*
X502625Y128888D01*
X502618Y128863D01*
X502606Y128839D01*
X502560Y128669D01*
X502511Y128503D01*
X502508Y128478D01*
X502507Y128474D01*
X502507Y128472D01*
X502501Y128450D01*
X502474Y128119D01*
X502474Y118553D01*
X501135Y117213D01*
X486240Y117213D01*
X485624Y117830D01*
X485610Y117841D01*
X485598Y117855D01*
X485454Y117969D01*
X485312Y118085D01*
X485297Y118093D01*
X485283Y118104D01*
X485118Y118188D01*
X484957Y118273D01*
X484940Y118279D01*
X484924Y118287D01*
X484747Y118336D01*
X484571Y118388D01*
X484553Y118390D01*
X484536Y118395D01*
X484353Y118408D01*
X484170Y118425D01*
X484152Y118423D01*
X484134Y118424D01*
X483952Y118401D01*
X483769Y118381D01*
X483752Y118376D01*
X483735Y118374D01*
X483561Y118315D01*
X483386Y118260D01*
X483370Y118251D01*
X483353Y118245D01*
X483194Y118154D01*
X483033Y118065D01*
X483020Y118053D01*
X483004Y118044D01*
X482751Y117830D01*
X482135Y117213D01*
X467240Y117213D01*
G37*
%LPD*%
%LPC*%
G36*
X525079Y55181D02*
X525079Y55181D01*
X521438Y56689D01*
X518651Y59476D01*
X517143Y63117D01*
X517143Y67058D01*
X518651Y70699D01*
X521438Y73486D01*
X521816Y73642D01*
X521827Y73649D01*
X521840Y73653D01*
X522006Y73744D01*
X522171Y73833D01*
X522181Y73841D01*
X522193Y73848D01*
X522337Y73970D01*
X522481Y74089D01*
X522489Y74099D01*
X522500Y74108D01*
X522617Y74256D01*
X522735Y74402D01*
X522741Y74413D01*
X522749Y74424D01*
X522835Y74592D01*
X522922Y74758D01*
X522926Y74771D01*
X522932Y74783D01*
X522982Y74964D01*
X523035Y75145D01*
X523036Y75158D01*
X523040Y75171D01*
X523053Y75359D01*
X523069Y75546D01*
X523068Y75559D01*
X523069Y75572D01*
X523045Y75760D01*
X523024Y75946D01*
X523020Y75958D01*
X523019Y75972D01*
X522959Y76150D01*
X522901Y76329D01*
X522895Y76341D01*
X522890Y76353D01*
X522796Y76517D01*
X522705Y76681D01*
X522696Y76691D01*
X522689Y76702D01*
X522475Y76955D01*
X521905Y77525D01*
X520981Y79755D01*
X520981Y82170D01*
X521905Y84400D01*
X523612Y86107D01*
X525843Y87031D01*
X528257Y87031D01*
X530488Y86107D01*
X532391Y84204D01*
X532493Y84083D01*
X534631Y81946D01*
X543528Y73049D01*
X543542Y73037D01*
X543553Y73024D01*
X543698Y72910D01*
X543840Y72793D01*
X543855Y72785D01*
X543869Y72774D01*
X544033Y72691D01*
X544195Y72605D01*
X544212Y72600D01*
X544228Y72592D01*
X544406Y72542D01*
X544581Y72490D01*
X544599Y72488D01*
X544616Y72484D01*
X544799Y72470D01*
X544982Y72454D01*
X545000Y72456D01*
X545018Y72454D01*
X545200Y72477D01*
X545382Y72497D01*
X545400Y72502D01*
X545417Y72505D01*
X545591Y72563D01*
X545766Y72619D01*
X545782Y72627D01*
X545799Y72633D01*
X545958Y72725D01*
X546119Y72813D01*
X546132Y72825D01*
X546148Y72834D01*
X546401Y73049D01*
X546838Y73486D01*
X550479Y74994D01*
X554421Y74994D01*
X558062Y73486D01*
X560849Y70699D01*
X562357Y67058D01*
X562357Y63117D01*
X560849Y59476D01*
X558062Y56689D01*
X554421Y55181D01*
X550479Y55181D01*
X546838Y56689D01*
X544051Y59476D01*
X542600Y62979D01*
X542585Y63007D01*
X542575Y63037D01*
X542491Y63183D01*
X542410Y63334D01*
X542390Y63359D01*
X542375Y63385D01*
X542160Y63638D01*
X541695Y64104D01*
X541694Y64104D01*
X540424Y65374D01*
X540417Y65380D01*
X540412Y65387D01*
X540262Y65507D01*
X540113Y65629D01*
X540105Y65633D01*
X540098Y65639D01*
X539928Y65727D01*
X539757Y65818D01*
X539748Y65820D01*
X539741Y65824D01*
X539556Y65877D01*
X539371Y65933D01*
X539362Y65933D01*
X539354Y65936D01*
X539163Y65951D01*
X538970Y65969D01*
X538961Y65968D01*
X538952Y65969D01*
X538763Y65946D01*
X538570Y65926D01*
X538561Y65923D01*
X538553Y65922D01*
X538371Y65862D01*
X538186Y65804D01*
X538178Y65800D01*
X538170Y65797D01*
X538003Y65703D01*
X537834Y65609D01*
X537827Y65603D01*
X537819Y65599D01*
X537674Y65474D01*
X537527Y65349D01*
X537521Y65342D01*
X537514Y65336D01*
X537398Y65185D01*
X537277Y65033D01*
X537273Y65025D01*
X537268Y65018D01*
X537183Y64847D01*
X537095Y64674D01*
X537092Y64665D01*
X537088Y64657D01*
X537039Y64472D01*
X536987Y64286D01*
X536986Y64277D01*
X536984Y64268D01*
X536957Y63938D01*
X536957Y63117D01*
X535449Y59476D01*
X532662Y56689D01*
X529021Y55181D01*
X525079Y55181D01*
G37*
%LPD*%
%LPC*%
G36*
X714309Y156781D02*
X714309Y156781D01*
X710668Y158289D01*
X707881Y161076D01*
X706373Y164717D01*
X706373Y168658D01*
X707881Y172299D01*
X710668Y175086D01*
X714309Y176594D01*
X733491Y176594D01*
X737132Y175086D01*
X739919Y172299D01*
X741427Y168658D01*
X741427Y164717D01*
X739919Y161076D01*
X737132Y158289D01*
X733491Y156781D01*
X714309Y156781D01*
G37*
%LPD*%
%LPC*%
G36*
X714309Y131381D02*
X714309Y131381D01*
X710668Y132889D01*
X707881Y135676D01*
X706373Y139317D01*
X706373Y143258D01*
X707881Y146899D01*
X710668Y149686D01*
X714309Y151194D01*
X733491Y151194D01*
X737132Y149686D01*
X739919Y146899D01*
X741427Y143258D01*
X741427Y139317D01*
X739919Y135676D01*
X737132Y132889D01*
X733491Y131381D01*
X714309Y131381D01*
G37*
%LPD*%
%LPC*%
G36*
X714309Y105981D02*
X714309Y105981D01*
X710668Y107489D01*
X707881Y110276D01*
X706373Y113917D01*
X706373Y117858D01*
X707881Y121499D01*
X710668Y124286D01*
X714309Y125794D01*
X733491Y125794D01*
X737132Y124286D01*
X739919Y121499D01*
X741427Y117858D01*
X741427Y113917D01*
X739919Y110276D01*
X737132Y107489D01*
X733491Y105981D01*
X714309Y105981D01*
G37*
%LPD*%
%LPC*%
G36*
X525079Y207581D02*
X525079Y207581D01*
X521438Y209089D01*
X518651Y211876D01*
X517143Y215517D01*
X517143Y219458D01*
X518651Y223099D01*
X521438Y225886D01*
X525079Y227394D01*
X529021Y227394D01*
X532662Y225886D01*
X535449Y223099D01*
X536957Y219458D01*
X536957Y215517D01*
X535449Y211876D01*
X532662Y209089D01*
X529021Y207581D01*
X525079Y207581D01*
G37*
%LPD*%
%LPC*%
G36*
X601279Y207581D02*
X601279Y207581D01*
X597638Y209089D01*
X594851Y211876D01*
X593343Y215517D01*
X593343Y219458D01*
X594851Y223099D01*
X597638Y225886D01*
X601279Y227394D01*
X605221Y227394D01*
X608862Y225886D01*
X611649Y223099D01*
X613157Y219458D01*
X613157Y215517D01*
X611649Y211876D01*
X608862Y209089D01*
X605221Y207581D01*
X601279Y207581D01*
G37*
%LPD*%
%LPC*%
G36*
X575879Y207581D02*
X575879Y207581D01*
X572238Y209089D01*
X569451Y211876D01*
X567943Y215517D01*
X567943Y219458D01*
X569451Y223099D01*
X572238Y225886D01*
X575879Y227394D01*
X579821Y227394D01*
X583462Y225886D01*
X586249Y223099D01*
X587757Y219458D01*
X587757Y215517D01*
X586249Y211876D01*
X583462Y209089D01*
X579821Y207581D01*
X575879Y207581D01*
G37*
%LPD*%
%LPC*%
G36*
X550479Y207581D02*
X550479Y207581D01*
X546838Y209089D01*
X544051Y211876D01*
X542543Y215517D01*
X542543Y219458D01*
X544051Y223099D01*
X546838Y225886D01*
X550479Y227394D01*
X554421Y227394D01*
X558062Y225886D01*
X560849Y223099D01*
X562357Y219458D01*
X562357Y215517D01*
X560849Y211876D01*
X558062Y209089D01*
X554421Y207581D01*
X550479Y207581D01*
G37*
%LPD*%
%LPC*%
G36*
X321879Y207581D02*
X321879Y207581D01*
X318238Y209089D01*
X315451Y211876D01*
X313943Y215517D01*
X313943Y219458D01*
X315451Y223099D01*
X318238Y225886D01*
X321879Y227394D01*
X325821Y227394D01*
X329462Y225886D01*
X332249Y223099D01*
X333757Y219458D01*
X333757Y215517D01*
X332249Y211876D01*
X329462Y209089D01*
X325821Y207581D01*
X321879Y207581D01*
G37*
%LPD*%
%LPC*%
G36*
X347279Y207581D02*
X347279Y207581D01*
X343638Y209089D01*
X340851Y211876D01*
X339343Y215517D01*
X339343Y219458D01*
X340851Y223099D01*
X343638Y225886D01*
X347279Y227394D01*
X351221Y227394D01*
X354862Y225886D01*
X357649Y223099D01*
X359157Y219458D01*
X359157Y215517D01*
X357649Y211876D01*
X354862Y209089D01*
X351221Y207581D01*
X347279Y207581D01*
G37*
%LPD*%
%LPC*%
G36*
X626679Y207581D02*
X626679Y207581D01*
X623038Y209089D01*
X620251Y211876D01*
X618743Y215517D01*
X618743Y219458D01*
X620251Y223099D01*
X623038Y225886D01*
X626679Y227394D01*
X630621Y227394D01*
X634262Y225886D01*
X637049Y223099D01*
X638557Y219458D01*
X638557Y215517D01*
X637049Y211876D01*
X634262Y209089D01*
X630621Y207581D01*
X626679Y207581D01*
G37*
%LPD*%
%LPC*%
G36*
X652079Y207581D02*
X652079Y207581D01*
X648438Y209089D01*
X645651Y211876D01*
X644143Y215517D01*
X644143Y219458D01*
X645651Y223099D01*
X648438Y225886D01*
X652079Y227394D01*
X656021Y227394D01*
X659662Y225886D01*
X662449Y223099D01*
X663957Y219458D01*
X663957Y215517D01*
X662449Y211876D01*
X659662Y209089D01*
X656021Y207581D01*
X652079Y207581D01*
G37*
%LPD*%
%LPC*%
G36*
X677479Y207581D02*
X677479Y207581D01*
X673838Y209089D01*
X671051Y211876D01*
X669543Y215517D01*
X669543Y219458D01*
X671051Y223099D01*
X673838Y225886D01*
X677479Y227394D01*
X681421Y227394D01*
X685062Y225886D01*
X687849Y223099D01*
X689357Y219458D01*
X689357Y215517D01*
X687849Y211876D01*
X685062Y209089D01*
X681421Y207581D01*
X677479Y207581D01*
G37*
%LPD*%
%LPC*%
G36*
X296479Y55181D02*
X296479Y55181D01*
X292838Y56689D01*
X290051Y59476D01*
X288543Y63117D01*
X288543Y67058D01*
X290051Y70699D01*
X292838Y73486D01*
X296479Y74994D01*
X300421Y74994D01*
X304062Y73486D01*
X306849Y70699D01*
X308357Y67058D01*
X308357Y63117D01*
X306849Y59476D01*
X304062Y56689D01*
X300421Y55181D01*
X296479Y55181D01*
G37*
%LPD*%
%LPC*%
G36*
X321879Y55181D02*
X321879Y55181D01*
X318238Y56689D01*
X315451Y59476D01*
X313943Y63117D01*
X313943Y67058D01*
X315451Y70699D01*
X318238Y73486D01*
X321879Y74994D01*
X325821Y74994D01*
X329462Y73486D01*
X332249Y70699D01*
X333757Y67058D01*
X333757Y63117D01*
X332249Y59476D01*
X329462Y56689D01*
X325821Y55181D01*
X321879Y55181D01*
G37*
%LPD*%
%LPC*%
G36*
X499679Y55181D02*
X499679Y55181D01*
X496038Y56689D01*
X493251Y59476D01*
X491743Y63117D01*
X491743Y67058D01*
X493251Y70699D01*
X496038Y73486D01*
X499679Y74994D01*
X503621Y74994D01*
X507262Y73486D01*
X510049Y70699D01*
X511557Y67058D01*
X511557Y63117D01*
X510049Y59476D01*
X507262Y56689D01*
X503621Y55181D01*
X499679Y55181D01*
G37*
%LPD*%
%LPC*%
G36*
X575879Y55181D02*
X575879Y55181D01*
X572238Y56689D01*
X569451Y59476D01*
X567943Y63117D01*
X567943Y67058D01*
X569451Y70699D01*
X572238Y73486D01*
X575879Y74994D01*
X579821Y74994D01*
X583462Y73486D01*
X586249Y70699D01*
X587757Y67058D01*
X587757Y63117D01*
X586249Y59476D01*
X583462Y56689D01*
X579821Y55181D01*
X575879Y55181D01*
G37*
%LPD*%
%LPC*%
G36*
X601279Y55181D02*
X601279Y55181D01*
X597638Y56689D01*
X594851Y59476D01*
X593343Y63117D01*
X593343Y67058D01*
X594851Y70699D01*
X597638Y73486D01*
X601279Y74994D01*
X605221Y74994D01*
X608862Y73486D01*
X611649Y70699D01*
X613157Y67058D01*
X613157Y63117D01*
X611649Y59476D01*
X608862Y56689D01*
X605221Y55181D01*
X601279Y55181D01*
G37*
%LPD*%
D10*
X506975Y169863D03*
X489975Y169863D03*
D11*
X509563Y190500D03*
X490563Y190500D03*
D10*
X564125Y131763D03*
X547125Y131763D03*
D11*
X563538Y160338D03*
X544538Y160338D03*
D10*
X506975Y147638D03*
X489975Y147638D03*
D11*
X388913Y195263D03*
X369913Y195263D03*
X493688Y127000D03*
X474688Y127000D03*
D12*
X464113Y188913D03*
X447113Y188913D03*
D13*
X755650Y65088D03*
X730250Y65088D03*
X704850Y65088D03*
X679450Y65088D03*
X654050Y65088D03*
X628650Y65088D03*
X603250Y65088D03*
X577850Y65088D03*
X552450Y65088D03*
X527050Y65088D03*
X501650Y65088D03*
X476250Y65088D03*
X450850Y65088D03*
X425450Y65088D03*
X400050Y65088D03*
X374650Y65088D03*
X349250Y65088D03*
X323850Y65088D03*
X298450Y65088D03*
X273050Y65088D03*
X273050Y217488D03*
X298450Y217488D03*
X323850Y217488D03*
X349250Y217488D03*
X374650Y217488D03*
X400050Y217488D03*
X425450Y217488D03*
X450850Y217488D03*
X476250Y217488D03*
X501650Y217488D03*
X527050Y217488D03*
X552450Y217488D03*
X577850Y217488D03*
X603250Y217488D03*
X628650Y217488D03*
X654050Y217488D03*
X679450Y217488D03*
X704850Y217488D03*
X730250Y217488D03*
X755650Y217488D03*
D14*
X411163Y185738D03*
D10*
X690563Y167713D03*
X690563Y184713D03*
D12*
X420125Y133350D03*
X437125Y133350D03*
X451875Y166688D03*
X468875Y166688D03*
D15*
X716280Y192088D02*
X731520Y192088D01*
X731520Y166688D02*
X716280Y166688D01*
X716280Y141288D02*
X731520Y141288D01*
X731520Y115888D02*
X716280Y115888D01*
X716280Y90488D02*
X731520Y90488D01*
D11*
X277838Y190500D03*
X296838Y190500D03*
D12*
X755650Y191063D03*
X755650Y174063D03*
D13*
X391732Y91313D03*
X436944Y91313D03*
X391732Y156337D03*
X436944Y156337D03*
D12*
X564125Y111125D03*
X547125Y111125D03*
X564125Y90488D03*
X547125Y90488D03*
D16*
X690563Y184713D02*
X697938Y192088D01*
X722313Y192088D01*
D17*
X625475Y119063D03*
D16*
X722313Y192088D02*
X723900Y192088D01*
D18*
X625475Y131763D02*
X625475Y119063D01*
X625475Y131763D02*
X564125Y131763D01*
D19*
X723338Y191063D02*
X755650Y191063D01*
X723338Y191063D02*
X722313Y192088D01*
X641858Y55055D02*
X646113Y50800D01*
X625475Y103188D02*
X625475Y119063D01*
X625475Y103188D02*
X641858Y86805D01*
D18*
X641858Y55055D01*
D19*
X646113Y50800D02*
X741363Y50800D01*
X755650Y65088D01*
X564125Y131763D02*
X564125Y159750D01*
X563538Y160338D01*
D17*
X371791Y167389D03*
D18*
X372677Y168275D01*
X437970Y184313D02*
X442513Y184313D01*
X447113Y188913D01*
X437970Y184313D02*
X421932Y168275D01*
X372677Y168275D01*
X447113Y188450D02*
X468875Y166688D01*
X447113Y188450D02*
X447113Y188913D01*
X544538Y160338D02*
X547125Y157750D01*
X547125Y131763D01*
D19*
X731838Y90488D02*
X755650Y114300D01*
X731838Y90488D02*
X723900Y90488D01*
X755650Y114300D02*
X755650Y174063D01*
D17*
X530225Y155575D03*
X530225Y125413D03*
X654050Y139700D03*
D20*
X296838Y190500D02*
X296838Y215875D01*
X298450Y217488D01*
D17*
X441325Y176213D03*
D16*
X687950Y165100D02*
X690563Y167713D01*
X687950Y165100D02*
X674688Y165100D01*
D17*
X674688Y165100D03*
D20*
X506975Y147638D02*
X506975Y140288D01*
X493688Y127000D01*
D19*
X506975Y147638D02*
X506975Y169863D01*
D17*
X485775Y204068D03*
D20*
X456939Y196412D02*
X454112Y199239D01*
X443699Y199239D01*
X425450Y217488D01*
X456939Y196087D02*
X464113Y188913D01*
X456939Y196087D02*
X456939Y196412D01*
X488696Y222643D02*
X481405Y229934D01*
X488696Y222643D02*
X488696Y212332D01*
X433249Y217488D02*
X425450Y217488D01*
X485775Y209411D02*
X488696Y212332D01*
X485775Y209411D02*
X485775Y204068D01*
X445695Y229934D02*
X433249Y217488D01*
X445695Y229934D02*
X481405Y229934D01*
X501889Y198174D02*
X509563Y190500D01*
X501889Y198174D02*
X501889Y199999D01*
X497820Y204068D01*
X485775Y204068D01*
X506975Y187913D02*
X506975Y169863D01*
X506975Y187913D02*
X509563Y190500D01*
X489975Y147638D02*
X474688Y147638D01*
X474688Y127000D01*
D18*
X489975Y147638D02*
X489975Y169863D01*
X468338Y133350D02*
X437125Y133350D01*
X468338Y133350D02*
X474688Y127000D01*
D20*
X489975Y169863D02*
X478350Y181488D01*
X473939Y185899D01*
X473939Y196412D01*
X471112Y199239D01*
X469099Y199239D01*
X450850Y217488D01*
X481550Y181488D02*
X490563Y190500D01*
X481550Y181488D02*
X478350Y181488D01*
X388913Y195263D02*
X388913Y206350D01*
X400050Y217488D01*
D18*
X451875Y166688D02*
X441525Y156337D01*
X436944Y156337D01*
D17*
X315913Y144375D03*
D18*
X325525Y144375D01*
X486726Y99740D02*
X487860Y100874D01*
X486726Y99740D02*
X462235Y99740D01*
X361950Y107950D02*
X325525Y144375D01*
X361950Y107950D02*
X454025Y107950D01*
X462235Y99740D01*
X547125Y90988D02*
X547125Y90488D01*
X547125Y90988D02*
X537306Y100806D01*
X522554Y100806D01*
X522487Y100874D01*
X487860Y100874D01*
D17*
X315913Y154225D03*
D18*
X324655Y154225D01*
X456655Y114300D02*
X464865Y106090D01*
X465999Y107224D01*
X364580Y114300D02*
X324655Y154225D01*
X364580Y114300D02*
X456655Y114300D01*
X526930Y111125D02*
X547125Y111125D01*
X526930Y111125D02*
X524157Y113898D01*
X523023Y113898D01*
X516349Y107224D01*
X465999Y107224D01*
D20*
X277838Y212700D02*
X273050Y217488D01*
X277838Y212700D02*
X277838Y190500D01*
D17*
X579438Y104775D03*
D21*
X569888Y104775D01*
X569888Y105363D02*
X564125Y111125D01*
X569888Y105363D02*
X569888Y104775D01*
D17*
X600075Y119987D03*
D21*
X594388Y96838D02*
X569888Y96838D01*
X598488Y118400D02*
X600075Y119987D01*
X598488Y118400D02*
X598488Y100937D01*
X594388Y96838D01*
X564125Y91075D02*
X564125Y90488D01*
X564125Y91075D02*
X569888Y96838D01*
D17*
X388938Y44450D03*
D16*
X382588Y44450D01*
X379413Y47625D01*
X373063Y47625D01*
X355600Y65088D01*
X349250Y65088D01*
D17*
X414338Y44450D03*
D16*
X401638Y44450D01*
X381000Y65088D01*
X374650Y65088D01*
D17*
X470783Y88017D03*
D16*
X454908Y88017D01*
X445383Y78492D01*
X402342Y78492D01*
X400050Y76200D01*
X400050Y65088D01*
D17*
X481535Y89091D03*
D21*
X462026Y60458D02*
X455479Y53912D01*
X453962Y53912D01*
X450850Y50800D01*
X481535Y86178D02*
X481535Y89091D01*
X481535Y86178D02*
X462026Y66669D01*
X462026Y60458D01*
X450850Y50800D02*
X439738Y50800D01*
X425450Y65088D01*
D17*
X527050Y80963D03*
D16*
X530225Y80963D02*
X546100Y65088D01*
X530225Y80963D02*
X527050Y80963D01*
X546100Y65088D02*
X552450Y65088D01*
D17*
X657239Y168261D03*
D21*
X719074Y222117D02*
X725621Y228664D01*
X734879Y228664D01*
X695290Y206312D02*
X657239Y168261D01*
X746055Y217488D02*
X755650Y217488D01*
X709479Y206312D02*
X695290Y206312D01*
X734879Y228664D02*
X746055Y217488D01*
X719074Y215906D02*
X709479Y206312D01*
X719074Y215906D02*
X719074Y222117D01*
M02*
