G04 EAGLE Gerber RS-274X export*
G75*
%MOMM*%
%FSLAX34Y34*%
%LPD*%
%INTop Copper*%
%IPPOS*%
%AMOC8*
5,1,8,0,0,1.08239X$1,22.5*%
G01*
%ADD10R,0.800000X0.800000*%
%ADD11C,1.524000*%
%ADD12P,1.649562X8X22.500000*%
%ADD13R,1.000000X1.100000*%
%ADD14C,1.524000*%
%ADD15R,0.254000X0.812800*%
%ADD16R,5.511800X5.511800*%
%ADD17R,1.380000X0.406400*%
%ADD18R,1.550000X1.425000*%
%ADD19R,1.900000X1.800000*%
%ADD20R,1.900000X1.000000*%
%ADD21R,1.300000X1.650000*%
%ADD22R,1.399997X0.400000*%
%ADD23R,1.200000X0.550000*%
%ADD24R,1.100000X1.000000*%
%ADD25R,1.500000X1.300000*%
%ADD26C,0.609600*%
%ADD27C,0.756400*%
%ADD28C,0.254000*%
%ADD29C,1.016000*%
%ADD30C,0.508000*%
%ADD31C,0.406400*%
%ADD32C,0.304800*%

G36*
X264903Y71749D02*
X264903Y71749D01*
X264912Y71748D01*
X265105Y71773D01*
X265294Y71795D01*
X265302Y71798D01*
X265311Y71799D01*
X265494Y71860D01*
X265677Y71920D01*
X265685Y71924D01*
X265693Y71927D01*
X265858Y72022D01*
X266027Y72118D01*
X266034Y72123D01*
X266042Y72128D01*
X266295Y72343D01*
X267438Y73486D01*
X267459Y73494D01*
X267459Y73495D01*
X271079Y74994D01*
X275021Y74994D01*
X275568Y74768D01*
X275589Y74761D01*
X275609Y74751D01*
X275782Y74703D01*
X275953Y74651D01*
X275975Y74649D01*
X275997Y74643D01*
X276176Y74630D01*
X276354Y74613D01*
X276376Y74615D01*
X276398Y74614D01*
X276577Y74636D01*
X276754Y74655D01*
X276775Y74661D01*
X276798Y74664D01*
X276968Y74721D01*
X277139Y74775D01*
X277158Y74785D01*
X277179Y74792D01*
X277335Y74882D01*
X277492Y74968D01*
X277509Y74982D01*
X277528Y74993D01*
X277781Y75208D01*
X289146Y86572D01*
X292433Y86572D01*
X292475Y86551D01*
X292629Y86470D01*
X292654Y86462D01*
X292679Y86450D01*
X292848Y86405D01*
X293015Y86355D01*
X293041Y86353D01*
X293067Y86346D01*
X293398Y86318D01*
X340607Y86318D01*
X340625Y86320D01*
X340643Y86319D01*
X340825Y86340D01*
X341008Y86358D01*
X341025Y86364D01*
X341042Y86366D01*
X341217Y86423D01*
X341393Y86476D01*
X341408Y86485D01*
X341425Y86491D01*
X341585Y86581D01*
X341747Y86668D01*
X341760Y86680D01*
X341776Y86688D01*
X341915Y86809D01*
X342056Y86926D01*
X342067Y86940D01*
X342081Y86952D01*
X342193Y87097D01*
X342308Y87240D01*
X342316Y87256D01*
X342327Y87270D01*
X342409Y87435D01*
X342494Y87597D01*
X342499Y87614D01*
X342507Y87630D01*
X342554Y87808D01*
X342605Y87984D01*
X342607Y88002D01*
X342611Y88019D01*
X342638Y88350D01*
X342638Y101135D01*
X343255Y101751D01*
X343266Y101765D01*
X343280Y101777D01*
X343394Y101921D01*
X343510Y102063D01*
X343518Y102078D01*
X343529Y102092D01*
X343613Y102256D01*
X343698Y102418D01*
X343704Y102435D01*
X343712Y102451D01*
X343761Y102628D01*
X343813Y102804D01*
X343815Y102822D01*
X343820Y102839D01*
X343833Y103022D01*
X343850Y103205D01*
X343848Y103223D01*
X343849Y103241D01*
X343826Y103423D01*
X343806Y103606D01*
X343801Y103623D01*
X343799Y103640D01*
X343740Y103814D01*
X343685Y103989D01*
X343676Y104005D01*
X343670Y104022D01*
X343579Y104181D01*
X343490Y104342D01*
X343478Y104355D01*
X343469Y104371D01*
X343255Y104624D01*
X342293Y105586D01*
X342279Y105597D01*
X342267Y105611D01*
X342123Y105725D01*
X341981Y105841D01*
X341965Y105849D01*
X341951Y105861D01*
X341787Y105944D01*
X341625Y106030D01*
X341608Y106035D01*
X341592Y106043D01*
X341415Y106092D01*
X341239Y106144D01*
X341222Y106146D01*
X341204Y106151D01*
X341021Y106164D01*
X340838Y106181D01*
X340821Y106179D01*
X340803Y106180D01*
X340621Y106157D01*
X340438Y106137D01*
X340421Y106132D01*
X340403Y106130D01*
X340230Y106071D01*
X340054Y106016D01*
X340039Y106007D01*
X340022Y106002D01*
X339863Y105910D01*
X339702Y105821D01*
X339688Y105810D01*
X339673Y105801D01*
X339420Y105586D01*
X338235Y104401D01*
X325340Y104401D01*
X324001Y105740D01*
X324001Y117635D01*
X325340Y118974D01*
X338235Y118974D01*
X338592Y118617D01*
X338612Y118601D01*
X338628Y118582D01*
X338629Y118581D01*
X338630Y118580D01*
X338768Y118473D01*
X338903Y118362D01*
X338927Y118350D01*
X338948Y118333D01*
X339104Y118255D01*
X339259Y118173D01*
X339285Y118166D01*
X339309Y118154D01*
X339478Y118108D01*
X339645Y118059D01*
X339671Y118056D01*
X339697Y118049D01*
X340028Y118022D01*
X340607Y118022D01*
X340625Y118024D01*
X340643Y118023D01*
X340825Y118044D01*
X341008Y118062D01*
X341025Y118067D01*
X341042Y118069D01*
X341217Y118126D01*
X341393Y118180D01*
X341408Y118189D01*
X341425Y118194D01*
X341585Y118285D01*
X341747Y118372D01*
X341760Y118383D01*
X341776Y118392D01*
X341915Y118512D01*
X342056Y118630D01*
X342067Y118644D01*
X342081Y118655D01*
X342193Y118800D01*
X342308Y118944D01*
X342316Y118959D01*
X342327Y118973D01*
X342409Y119138D01*
X342494Y119301D01*
X342499Y119318D01*
X342507Y119334D01*
X342554Y119512D01*
X342605Y119688D01*
X342607Y119705D01*
X342611Y119723D01*
X342638Y120053D01*
X342638Y120135D01*
X343978Y121474D01*
X360872Y121474D01*
X362212Y120135D01*
X362212Y113379D01*
X362213Y113370D01*
X362212Y113361D01*
X362233Y113171D01*
X362252Y112978D01*
X362254Y112970D01*
X362255Y112961D01*
X362313Y112778D01*
X362370Y112594D01*
X362374Y112586D01*
X362377Y112577D01*
X362470Y112409D01*
X362562Y112240D01*
X362567Y112233D01*
X362572Y112225D01*
X362697Y112076D01*
X362819Y111930D01*
X362826Y111925D01*
X362832Y111918D01*
X362983Y111798D01*
X363133Y111678D01*
X363141Y111674D01*
X363148Y111668D01*
X363320Y111581D01*
X363490Y111492D01*
X363499Y111490D01*
X363507Y111486D01*
X363693Y111434D01*
X363877Y111381D01*
X363886Y111380D01*
X363895Y111378D01*
X364087Y111364D01*
X364279Y111348D01*
X364287Y111349D01*
X364296Y111349D01*
X364488Y111373D01*
X364678Y111395D01*
X364687Y111398D01*
X364696Y111399D01*
X364877Y111460D01*
X365061Y111520D01*
X365069Y111524D01*
X365077Y111527D01*
X365243Y111623D01*
X365412Y111718D01*
X365419Y111724D01*
X365426Y111728D01*
X365679Y111943D01*
X366067Y112330D01*
X366084Y112351D01*
X366104Y112369D01*
X366211Y112506D01*
X366322Y112642D01*
X366335Y112666D01*
X366351Y112687D01*
X366429Y112843D01*
X366511Y112998D01*
X366518Y113023D01*
X366530Y113047D01*
X366576Y113217D01*
X366625Y113384D01*
X366628Y113410D01*
X366635Y113436D01*
X366662Y113767D01*
X366662Y136882D01*
X366661Y136891D01*
X366662Y136900D01*
X366641Y137093D01*
X366622Y137283D01*
X366619Y137291D01*
X366618Y137300D01*
X366560Y137484D01*
X366504Y137667D01*
X366499Y137675D01*
X366497Y137684D01*
X366404Y137852D01*
X366312Y138021D01*
X366306Y138028D01*
X366302Y138036D01*
X366177Y138183D01*
X366054Y138331D01*
X366047Y138336D01*
X366041Y138343D01*
X365890Y138463D01*
X365740Y138583D01*
X365733Y138587D01*
X365726Y138593D01*
X365553Y138680D01*
X365383Y138769D01*
X365375Y138771D01*
X365367Y138775D01*
X365180Y138827D01*
X364996Y138880D01*
X364987Y138881D01*
X364979Y138883D01*
X364786Y138897D01*
X364595Y138913D01*
X364586Y138912D01*
X364577Y138912D01*
X364385Y138888D01*
X364195Y138866D01*
X364187Y138863D01*
X364178Y138862D01*
X363996Y138801D01*
X363812Y138741D01*
X363804Y138737D01*
X363796Y138734D01*
X363629Y138638D01*
X363462Y138543D01*
X363455Y138537D01*
X363447Y138533D01*
X363194Y138318D01*
X359782Y134906D01*
X359765Y134885D01*
X359744Y134867D01*
X359637Y134730D01*
X359527Y134594D01*
X359514Y134571D01*
X359498Y134549D01*
X359420Y134392D01*
X359338Y134238D01*
X359330Y134213D01*
X359318Y134189D01*
X359273Y134019D01*
X359223Y133853D01*
X359221Y133826D01*
X359214Y133800D01*
X359187Y133469D01*
X359187Y127403D01*
X357847Y126063D01*
X344953Y126063D01*
X343613Y127403D01*
X343613Y139297D01*
X344953Y140637D01*
X351019Y140637D01*
X351046Y140639D01*
X351073Y140637D01*
X351247Y140659D01*
X351420Y140677D01*
X351445Y140684D01*
X351472Y140688D01*
X351638Y140744D01*
X351805Y140795D01*
X351828Y140808D01*
X351854Y140816D01*
X352005Y140903D01*
X352159Y140987D01*
X352179Y141004D01*
X352203Y141017D01*
X352456Y141232D01*
X355241Y144017D01*
X355258Y144038D01*
X355278Y144055D01*
X355385Y144193D01*
X355496Y144328D01*
X355508Y144352D01*
X355525Y144373D01*
X355602Y144529D01*
X355685Y144684D01*
X355692Y144710D01*
X355704Y144734D01*
X355750Y144903D01*
X355799Y145070D01*
X355802Y145097D01*
X355809Y145122D01*
X355836Y145453D01*
X355836Y148532D01*
X355834Y148550D01*
X355835Y148568D01*
X355814Y148750D01*
X355796Y148933D01*
X355791Y148950D01*
X355789Y148967D01*
X355732Y149142D01*
X355678Y149318D01*
X355669Y149333D01*
X355664Y149350D01*
X355573Y149510D01*
X355486Y149672D01*
X355475Y149685D01*
X355466Y149701D01*
X355346Y149840D01*
X355228Y149981D01*
X355214Y149992D01*
X355203Y150006D01*
X355058Y150118D01*
X354914Y150233D01*
X354899Y150241D01*
X354885Y150252D01*
X354720Y150334D01*
X354557Y150419D01*
X354540Y150424D01*
X354524Y150432D01*
X354346Y150479D01*
X354170Y150530D01*
X354152Y150532D01*
X354135Y150536D01*
X353805Y150563D01*
X353715Y150563D01*
X352376Y151903D01*
X352376Y159297D01*
X353715Y160637D01*
X364631Y160637D01*
X364648Y160639D01*
X364666Y160637D01*
X364848Y160658D01*
X365031Y160677D01*
X365048Y160682D01*
X365066Y160684D01*
X365240Y160741D01*
X365416Y160795D01*
X365432Y160803D01*
X365449Y160809D01*
X365609Y160899D01*
X365770Y160987D01*
X365784Y160998D01*
X365799Y161007D01*
X365939Y161127D01*
X366079Y161244D01*
X366091Y161258D01*
X366104Y161270D01*
X366217Y161415D01*
X366332Y161558D01*
X366340Y161574D01*
X366351Y161588D01*
X366433Y161753D01*
X366517Y161915D01*
X366522Y161932D01*
X366530Y161948D01*
X366578Y162127D01*
X366629Y162302D01*
X366630Y162320D01*
X366635Y162337D01*
X366662Y162668D01*
X366662Y163511D01*
X366659Y163542D01*
X366661Y163573D01*
X366639Y163743D01*
X366622Y163912D01*
X366613Y163941D01*
X366609Y163973D01*
X366507Y164288D01*
X365723Y166182D01*
X365723Y166509D01*
X365720Y166536D01*
X365722Y166562D01*
X365700Y166736D01*
X365683Y166910D01*
X365675Y166935D01*
X365672Y166962D01*
X365616Y167127D01*
X365565Y167295D01*
X365552Y167318D01*
X365543Y167344D01*
X365456Y167495D01*
X365373Y167649D01*
X365356Y167669D01*
X365342Y167692D01*
X365128Y167945D01*
X364754Y168319D01*
X364737Y168333D01*
X364722Y168350D01*
X364581Y168461D01*
X364443Y168574D01*
X364423Y168585D01*
X364405Y168598D01*
X364245Y168679D01*
X364087Y168763D01*
X364066Y168769D01*
X364046Y168779D01*
X363872Y168827D01*
X363701Y168878D01*
X363679Y168880D01*
X363657Y168886D01*
X363479Y168898D01*
X363300Y168914D01*
X363278Y168912D01*
X363256Y168913D01*
X363078Y168890D01*
X362900Y168871D01*
X362879Y168864D01*
X362856Y168861D01*
X362540Y168759D01*
X361724Y168421D01*
X359601Y168421D01*
X357343Y169357D01*
X357238Y169412D01*
X357213Y169420D01*
X357189Y169432D01*
X357019Y169477D01*
X356852Y169527D01*
X356826Y169529D01*
X356800Y169536D01*
X356469Y169563D01*
X353715Y169563D01*
X352376Y170903D01*
X352376Y178297D01*
X352499Y178421D01*
X352511Y178435D01*
X352524Y178446D01*
X352638Y178590D01*
X352755Y178732D01*
X352763Y178748D01*
X352774Y178762D01*
X352857Y178926D01*
X352943Y179088D01*
X352948Y179105D01*
X352956Y179121D01*
X353006Y179298D01*
X353058Y179474D01*
X353060Y179492D01*
X353064Y179509D01*
X353078Y179692D01*
X353094Y179875D01*
X353092Y179893D01*
X353094Y179911D01*
X353071Y180093D01*
X353051Y180275D01*
X353046Y180292D01*
X353043Y180310D01*
X352985Y180484D01*
X352929Y180659D01*
X352921Y180675D01*
X352915Y180692D01*
X352823Y180851D01*
X352735Y181011D01*
X352723Y181025D01*
X352714Y181041D01*
X352500Y181294D01*
X342957Y190836D01*
X342950Y190842D01*
X342944Y190849D01*
X342795Y190969D01*
X342645Y191091D01*
X342637Y191096D01*
X342630Y191101D01*
X342459Y191190D01*
X342290Y191280D01*
X342281Y191282D01*
X342273Y191287D01*
X342088Y191340D01*
X341904Y191395D01*
X341895Y191396D01*
X341886Y191398D01*
X341695Y191414D01*
X341503Y191431D01*
X341494Y191430D01*
X341485Y191431D01*
X341296Y191409D01*
X341102Y191388D01*
X341094Y191385D01*
X341085Y191384D01*
X340903Y191325D01*
X340719Y191266D01*
X340711Y191262D01*
X340702Y191259D01*
X340534Y191164D01*
X340366Y191071D01*
X340360Y191066D01*
X340352Y191061D01*
X340206Y190935D01*
X340059Y190811D01*
X340054Y190804D01*
X340047Y190798D01*
X339930Y190647D01*
X339810Y190495D01*
X339806Y190487D01*
X339800Y190480D01*
X339715Y190308D01*
X339627Y190136D01*
X339625Y190127D01*
X339621Y190119D01*
X339571Y189933D01*
X339519Y189748D01*
X339519Y189739D01*
X339516Y189731D01*
X339489Y189400D01*
X339489Y181668D01*
X339491Y181650D01*
X339490Y181632D01*
X339511Y181450D01*
X339529Y181267D01*
X339534Y181250D01*
X339536Y181233D01*
X339593Y181058D01*
X339647Y180882D01*
X339656Y180867D01*
X339661Y180850D01*
X339752Y180690D01*
X339839Y180528D01*
X339850Y180515D01*
X339859Y180499D01*
X339979Y180360D01*
X340097Y180219D01*
X340111Y180208D01*
X340122Y180194D01*
X340267Y180082D01*
X340411Y179967D01*
X340426Y179959D01*
X340440Y179948D01*
X340605Y179866D01*
X340768Y179781D01*
X340785Y179776D01*
X340801Y179768D01*
X340979Y179721D01*
X341155Y179670D01*
X341173Y179668D01*
X341190Y179664D01*
X341520Y179637D01*
X341610Y179637D01*
X342949Y178297D01*
X342949Y170903D01*
X341610Y169563D01*
X335387Y169563D01*
X335355Y169560D01*
X335324Y169562D01*
X335156Y169540D01*
X334986Y169523D01*
X334956Y169514D01*
X334925Y169510D01*
X334697Y169437D01*
X333804Y169437D01*
X332556Y169437D01*
X332555Y169437D01*
X330694Y169437D01*
X330677Y169435D01*
X330659Y169436D01*
X330477Y169415D01*
X330294Y169397D01*
X330277Y169392D01*
X330259Y169390D01*
X330085Y169333D01*
X329909Y169279D01*
X329893Y169270D01*
X329876Y169265D01*
X329716Y169174D01*
X329555Y169087D01*
X329541Y169076D01*
X329526Y169067D01*
X329386Y168947D01*
X329246Y168829D01*
X329234Y168815D01*
X329221Y168804D01*
X329108Y168659D01*
X328993Y168515D01*
X328985Y168500D01*
X328974Y168486D01*
X328892Y168321D01*
X328808Y168158D01*
X328803Y168141D01*
X328795Y168125D01*
X328747Y167947D01*
X328696Y167771D01*
X328695Y167753D01*
X328690Y167736D01*
X328663Y167406D01*
X328663Y162668D01*
X328665Y162650D01*
X328664Y162632D01*
X328685Y162450D01*
X328703Y162267D01*
X328708Y162250D01*
X328710Y162233D01*
X328767Y162058D01*
X328821Y161882D01*
X328830Y161867D01*
X328835Y161850D01*
X328926Y161690D01*
X329013Y161528D01*
X329024Y161515D01*
X329033Y161499D01*
X329153Y161360D01*
X329271Y161219D01*
X329285Y161208D01*
X329296Y161194D01*
X329441Y161082D01*
X329585Y160967D01*
X329600Y160959D01*
X329614Y160948D01*
X329779Y160866D01*
X329942Y160781D01*
X329959Y160776D01*
X329975Y160768D01*
X330153Y160721D01*
X330329Y160670D01*
X330347Y160668D01*
X330364Y160664D01*
X330694Y160637D01*
X341610Y160637D01*
X342949Y159297D01*
X342949Y151903D01*
X341610Y150563D01*
X335243Y150563D01*
X335212Y150560D01*
X335181Y150562D01*
X335012Y150540D01*
X334992Y150538D01*
X323398Y150538D01*
X323337Y150557D01*
X323328Y150557D01*
X323319Y150560D01*
X323128Y150577D01*
X322936Y150595D01*
X322927Y150594D01*
X322918Y150595D01*
X322727Y150573D01*
X322536Y150553D01*
X322527Y150550D01*
X322518Y150549D01*
X322336Y150491D01*
X322151Y150433D01*
X322143Y150429D01*
X322135Y150426D01*
X321966Y150332D01*
X321798Y150240D01*
X321791Y150234D01*
X321783Y150230D01*
X321636Y150104D01*
X321490Y149981D01*
X321484Y149974D01*
X321477Y149968D01*
X321359Y149817D01*
X321239Y149666D01*
X321235Y149658D01*
X321229Y149651D01*
X321143Y149479D01*
X321055Y149308D01*
X321053Y149299D01*
X321048Y149291D01*
X320998Y149106D01*
X320945Y148921D01*
X320945Y148912D01*
X320942Y148903D01*
X320929Y148713D01*
X320914Y148519D01*
X320915Y148510D01*
X320915Y148501D01*
X320939Y148313D01*
X320963Y148120D01*
X320966Y148111D01*
X320967Y148102D01*
X321068Y147786D01*
X321981Y145582D01*
X321981Y143168D01*
X321057Y140937D01*
X319350Y139230D01*
X317120Y138306D01*
X314705Y138306D01*
X312475Y139230D01*
X310569Y141136D01*
X310548Y141153D01*
X310531Y141174D01*
X310393Y141281D01*
X310257Y141391D01*
X310234Y141404D01*
X310212Y141420D01*
X310055Y141498D01*
X309901Y141580D01*
X309876Y141588D01*
X309852Y141600D01*
X309682Y141645D01*
X309516Y141695D01*
X309489Y141697D01*
X309463Y141704D01*
X309132Y141731D01*
X291803Y141731D01*
X290463Y143071D01*
X290463Y162029D01*
X291803Y163369D01*
X306652Y163369D01*
X306679Y163371D01*
X306705Y163369D01*
X306879Y163391D01*
X307053Y163409D01*
X307078Y163416D01*
X307105Y163420D01*
X307270Y163475D01*
X307438Y163527D01*
X307461Y163540D01*
X307486Y163548D01*
X307638Y163635D01*
X307792Y163719D01*
X307812Y163736D01*
X307835Y163749D01*
X308088Y163964D01*
X314873Y170749D01*
X316461Y171406D01*
X317352Y171406D01*
X317378Y171409D01*
X317405Y171407D01*
X317579Y171429D01*
X317752Y171446D01*
X317778Y171454D01*
X317804Y171457D01*
X317970Y171513D01*
X318137Y171564D01*
X318161Y171577D01*
X318186Y171586D01*
X318338Y171673D01*
X318491Y171756D01*
X318512Y171773D01*
X318535Y171786D01*
X318788Y172001D01*
X319433Y172646D01*
X319453Y172671D01*
X319477Y172691D01*
X319581Y172826D01*
X319688Y172958D01*
X319703Y172986D01*
X319722Y173010D01*
X319874Y173305D01*
X320683Y175260D01*
X322840Y177417D01*
X324427Y178074D01*
X325311Y178074D01*
X325338Y178077D01*
X325365Y178075D01*
X325539Y178097D01*
X325712Y178114D01*
X325738Y178122D01*
X325764Y178125D01*
X325930Y178181D01*
X326097Y178232D01*
X326121Y178245D01*
X326146Y178254D01*
X326298Y178341D01*
X326451Y178424D01*
X326471Y178441D01*
X326495Y178454D01*
X326748Y178669D01*
X327715Y179637D01*
X327805Y179637D01*
X327822Y179639D01*
X327840Y179637D01*
X328022Y179658D01*
X328205Y179677D01*
X328222Y179682D01*
X328240Y179684D01*
X328414Y179741D01*
X328590Y179795D01*
X328606Y179803D01*
X328623Y179809D01*
X328783Y179899D01*
X328944Y179987D01*
X328958Y179998D01*
X328973Y180007D01*
X329113Y180127D01*
X329253Y180244D01*
X329265Y180258D01*
X329278Y180270D01*
X329391Y180415D01*
X329506Y180558D01*
X329514Y180574D01*
X329525Y180588D01*
X329607Y180753D01*
X329691Y180915D01*
X329696Y180932D01*
X329704Y180948D01*
X329752Y181127D01*
X329803Y181302D01*
X329804Y181320D01*
X329809Y181337D01*
X329836Y181668D01*
X329836Y186233D01*
X329833Y186260D01*
X329835Y186286D01*
X329813Y186460D01*
X329796Y186634D01*
X329788Y186659D01*
X329785Y186686D01*
X329729Y186851D01*
X329678Y187019D01*
X329665Y187042D01*
X329656Y187067D01*
X329569Y187219D01*
X329486Y187373D01*
X329469Y187393D01*
X329456Y187416D01*
X329241Y187669D01*
X307312Y209598D01*
X306577Y211372D01*
X306577Y229680D01*
X306575Y229697D01*
X306577Y229715D01*
X306556Y229897D01*
X306537Y230080D01*
X306532Y230097D01*
X306530Y230115D01*
X306473Y230289D01*
X306419Y230465D01*
X306411Y230481D01*
X306405Y230498D01*
X306315Y230658D01*
X306227Y230819D01*
X306216Y230833D01*
X306207Y230848D01*
X306087Y230988D01*
X305970Y231128D01*
X305956Y231140D01*
X305944Y231153D01*
X305799Y231266D01*
X305656Y231381D01*
X305640Y231389D01*
X305626Y231400D01*
X305461Y231482D01*
X305299Y231566D01*
X305282Y231571D01*
X305266Y231579D01*
X305087Y231627D01*
X304912Y231678D01*
X304894Y231679D01*
X304877Y231684D01*
X304546Y231711D01*
X294941Y231711D01*
X294914Y231708D01*
X294887Y231710D01*
X294713Y231688D01*
X294540Y231671D01*
X294515Y231663D01*
X294488Y231660D01*
X294322Y231604D01*
X294155Y231553D01*
X294132Y231540D01*
X294106Y231531D01*
X293955Y231444D01*
X293801Y231361D01*
X293781Y231344D01*
X293757Y231331D01*
X293504Y231116D01*
X283552Y221163D01*
X283535Y221142D01*
X283514Y221125D01*
X283407Y220987D01*
X283297Y220852D01*
X283284Y220828D01*
X283268Y220807D01*
X283190Y220650D01*
X283108Y220496D01*
X283100Y220470D01*
X283088Y220446D01*
X283043Y220277D01*
X282993Y220110D01*
X282991Y220083D01*
X282984Y220058D01*
X282957Y219727D01*
X282957Y215517D01*
X281449Y211876D01*
X278662Y209089D01*
X275021Y207581D01*
X271079Y207581D01*
X267438Y209089D01*
X266295Y210232D01*
X266288Y210238D01*
X266282Y210245D01*
X266132Y210366D01*
X265983Y210488D01*
X265975Y210492D01*
X265968Y210497D01*
X265798Y210586D01*
X265628Y210676D01*
X265619Y210679D01*
X265611Y210683D01*
X265427Y210736D01*
X265242Y210791D01*
X265233Y210792D01*
X265224Y210794D01*
X265033Y210810D01*
X264841Y210827D01*
X264832Y210826D01*
X264823Y210827D01*
X264634Y210805D01*
X264440Y210784D01*
X264432Y210781D01*
X264423Y210780D01*
X264241Y210721D01*
X264057Y210662D01*
X264049Y210658D01*
X264040Y210655D01*
X263873Y210561D01*
X263704Y210468D01*
X263697Y210462D01*
X263690Y210457D01*
X263545Y210332D01*
X263397Y210207D01*
X263392Y210200D01*
X263385Y210194D01*
X263268Y210044D01*
X263148Y209891D01*
X263144Y209883D01*
X263138Y209876D01*
X263053Y209706D01*
X262965Y209532D01*
X262963Y209524D01*
X262959Y209516D01*
X262909Y209330D01*
X262857Y209144D01*
X262857Y209135D01*
X262854Y209127D01*
X262827Y208796D01*
X262827Y73779D01*
X262828Y73770D01*
X262827Y73761D01*
X262848Y73569D01*
X262867Y73378D01*
X262870Y73370D01*
X262871Y73361D01*
X262929Y73178D01*
X262985Y72993D01*
X262990Y72985D01*
X262992Y72977D01*
X263085Y72809D01*
X263177Y72639D01*
X263183Y72632D01*
X263187Y72625D01*
X263312Y72477D01*
X263435Y72330D01*
X263442Y72324D01*
X263448Y72318D01*
X263599Y72198D01*
X263749Y72078D01*
X263757Y72074D01*
X263763Y72068D01*
X263935Y71981D01*
X264106Y71892D01*
X264114Y71890D01*
X264122Y71886D01*
X264308Y71834D01*
X264493Y71781D01*
X264502Y71780D01*
X264510Y71778D01*
X264703Y71764D01*
X264894Y71748D01*
X264903Y71749D01*
G37*
G36*
X467519Y160192D02*
X467519Y160192D01*
X467528Y160191D01*
X467721Y160212D01*
X467910Y160231D01*
X467919Y160233D01*
X467928Y160234D01*
X468112Y160293D01*
X468295Y160349D01*
X468303Y160353D01*
X468312Y160356D01*
X468480Y160449D01*
X468649Y160541D01*
X468656Y160546D01*
X468664Y160551D01*
X468811Y160676D01*
X468959Y160799D01*
X468964Y160806D01*
X468971Y160811D01*
X469090Y160962D01*
X469211Y161112D01*
X469215Y161120D01*
X469221Y161127D01*
X469308Y161300D01*
X469396Y161470D01*
X469399Y161478D01*
X469403Y161486D01*
X469455Y161673D01*
X469508Y161857D01*
X469509Y161865D01*
X469511Y161874D01*
X469525Y162067D01*
X469541Y162258D01*
X469540Y162267D01*
X469540Y162276D01*
X469516Y162468D01*
X469494Y162658D01*
X469491Y162666D01*
X469490Y162675D01*
X469428Y162858D01*
X469369Y163040D01*
X469364Y163048D01*
X469362Y163057D01*
X469266Y163224D01*
X469171Y163391D01*
X469165Y163398D01*
X469161Y163406D01*
X468946Y163659D01*
X462289Y170316D01*
X462289Y172210D01*
X466457Y176378D01*
X468351Y176378D01*
X476386Y168343D01*
X476407Y168326D01*
X476424Y168306D01*
X476562Y168199D01*
X476697Y168088D01*
X476721Y168076D01*
X476742Y168059D01*
X476899Y167981D01*
X477053Y167900D01*
X477079Y167892D01*
X477103Y167880D01*
X477272Y167835D01*
X477439Y167785D01*
X477466Y167783D01*
X477492Y167776D01*
X477822Y167748D01*
X484323Y167748D01*
X484341Y167750D01*
X484359Y167749D01*
X484541Y167770D01*
X484724Y167788D01*
X484741Y167794D01*
X484758Y167796D01*
X484933Y167853D01*
X485109Y167906D01*
X485124Y167915D01*
X485141Y167921D01*
X485301Y168011D01*
X485463Y168098D01*
X485476Y168110D01*
X485492Y168118D01*
X485631Y168239D01*
X485772Y168356D01*
X485783Y168370D01*
X485796Y168382D01*
X485909Y168527D01*
X486024Y168670D01*
X486032Y168686D01*
X486043Y168700D01*
X486125Y168865D01*
X486210Y169027D01*
X486215Y169044D01*
X486223Y169060D01*
X486270Y169238D01*
X486321Y169414D01*
X486323Y169432D01*
X486327Y169449D01*
X486354Y169780D01*
X486354Y179350D01*
X486352Y179377D01*
X486354Y179403D01*
X486332Y179577D01*
X486314Y179751D01*
X486306Y179776D01*
X486303Y179803D01*
X486247Y179968D01*
X486196Y180136D01*
X486183Y180159D01*
X486175Y180184D01*
X486088Y180336D01*
X486004Y180490D01*
X485987Y180510D01*
X485974Y180533D01*
X485759Y180786D01*
X479260Y187286D01*
X479260Y189030D01*
X479258Y189047D01*
X479259Y189065D01*
X479238Y189248D01*
X479220Y189430D01*
X479214Y189447D01*
X479212Y189465D01*
X479155Y189640D01*
X479102Y189815D01*
X479093Y189831D01*
X479088Y189848D01*
X478997Y190008D01*
X478910Y190169D01*
X478898Y190183D01*
X478890Y190199D01*
X478769Y190338D01*
X478652Y190479D01*
X478638Y190490D01*
X478626Y190503D01*
X478481Y190616D01*
X478338Y190731D01*
X478322Y190739D01*
X478308Y190750D01*
X478143Y190832D01*
X477981Y190916D01*
X477964Y190921D01*
X477948Y190929D01*
X477770Y190977D01*
X477594Y191028D01*
X477576Y191029D01*
X477559Y191034D01*
X477228Y191061D01*
X473788Y191061D01*
X464270Y200579D01*
X464249Y200596D01*
X464231Y200617D01*
X464093Y200724D01*
X463958Y200834D01*
X463934Y200847D01*
X463913Y200863D01*
X463756Y200941D01*
X463602Y201023D01*
X463577Y201031D01*
X463553Y201043D01*
X463383Y201088D01*
X463216Y201138D01*
X463190Y201140D01*
X463164Y201147D01*
X462833Y201174D01*
X462133Y201174D01*
X455835Y207472D01*
X455818Y207486D01*
X455803Y207503D01*
X455663Y207614D01*
X455524Y207727D01*
X455504Y207738D01*
X455486Y207752D01*
X455326Y207832D01*
X455168Y207916D01*
X455147Y207922D01*
X455127Y207932D01*
X454954Y207980D01*
X454782Y208031D01*
X454760Y208033D01*
X454738Y208039D01*
X454560Y208051D01*
X454381Y208067D01*
X454359Y208065D01*
X454337Y208066D01*
X454160Y208043D01*
X453981Y208024D01*
X453960Y208017D01*
X453937Y208014D01*
X453622Y207913D01*
X452821Y207581D01*
X448879Y207581D01*
X445238Y209089D01*
X442451Y211876D01*
X440943Y215517D01*
X440943Y219458D01*
X442451Y223099D01*
X445238Y225886D01*
X448879Y227394D01*
X452821Y227394D01*
X456462Y225886D01*
X459249Y223099D01*
X460757Y219458D01*
X460757Y215517D01*
X460425Y214716D01*
X460418Y214695D01*
X460408Y214675D01*
X460360Y214501D01*
X460308Y214330D01*
X460306Y214308D01*
X460300Y214287D01*
X460287Y214107D01*
X460270Y213930D01*
X460273Y213908D01*
X460271Y213885D01*
X460293Y213707D01*
X460312Y213529D01*
X460319Y213508D01*
X460321Y213486D01*
X460378Y213316D01*
X460432Y213145D01*
X460443Y213125D01*
X460450Y213104D01*
X460539Y212949D01*
X460625Y212792D01*
X460639Y212775D01*
X460651Y212755D01*
X460865Y212502D01*
X464485Y208883D01*
X464506Y208866D01*
X464523Y208845D01*
X464661Y208739D01*
X464796Y208628D01*
X464820Y208615D01*
X464841Y208599D01*
X464997Y208521D01*
X465152Y208439D01*
X465178Y208431D01*
X465202Y208419D01*
X465371Y208374D01*
X465538Y208324D01*
X465565Y208322D01*
X465590Y208315D01*
X465921Y208288D01*
X466536Y208288D01*
X466545Y208289D01*
X466554Y208288D01*
X466744Y208309D01*
X466936Y208328D01*
X466945Y208330D01*
X466954Y208331D01*
X467138Y208390D01*
X467321Y208446D01*
X467329Y208450D01*
X467338Y208453D01*
X467507Y208546D01*
X467675Y208638D01*
X467682Y208643D01*
X467690Y208648D01*
X467837Y208773D01*
X467984Y208895D01*
X467990Y208902D01*
X467997Y208908D01*
X468117Y209059D01*
X468237Y209209D01*
X468241Y209217D01*
X468247Y209224D01*
X468334Y209396D01*
X468422Y209566D01*
X468425Y209575D01*
X468429Y209583D01*
X468481Y209769D01*
X468534Y209953D01*
X468534Y209962D01*
X468537Y209971D01*
X468551Y210163D01*
X468567Y210355D01*
X468566Y210363D01*
X468566Y210372D01*
X468542Y210564D01*
X468520Y210754D01*
X468517Y210763D01*
X468516Y210772D01*
X468455Y210953D01*
X468395Y211137D01*
X468390Y211145D01*
X468388Y211153D01*
X468292Y211319D01*
X468197Y211488D01*
X468191Y211495D01*
X468187Y211502D01*
X467972Y211755D01*
X467851Y211876D01*
X466343Y215517D01*
X466343Y219458D01*
X467851Y223099D01*
X470638Y225886D01*
X474279Y227394D01*
X478221Y227394D01*
X481862Y225886D01*
X484649Y223099D01*
X484980Y222298D01*
X484991Y222279D01*
X484998Y222257D01*
X485086Y222101D01*
X485170Y221943D01*
X485185Y221926D01*
X485196Y221907D01*
X485313Y221771D01*
X485427Y221633D01*
X485444Y221619D01*
X485459Y221602D01*
X485600Y221493D01*
X485740Y221379D01*
X485759Y221369D01*
X485777Y221355D01*
X485937Y221276D01*
X486096Y221192D01*
X486117Y221186D01*
X486137Y221176D01*
X486311Y221129D01*
X486482Y221079D01*
X486505Y221077D01*
X486526Y221071D01*
X486857Y221044D01*
X487248Y221044D01*
X488742Y219551D01*
X488752Y219542D01*
X488761Y219532D01*
X488908Y219415D01*
X489053Y219296D01*
X489065Y219289D01*
X489075Y219281D01*
X489243Y219195D01*
X489409Y219107D01*
X489422Y219103D01*
X489434Y219097D01*
X489614Y219046D01*
X489795Y218992D01*
X489808Y218991D01*
X489821Y218987D01*
X490007Y218973D01*
X490196Y218956D01*
X490209Y218957D01*
X490222Y218956D01*
X490408Y218979D01*
X490596Y218999D01*
X490609Y219003D01*
X490622Y219005D01*
X490801Y219064D01*
X490980Y219121D01*
X490992Y219127D01*
X491004Y219132D01*
X491167Y219224D01*
X491332Y219316D01*
X491342Y219324D01*
X491354Y219331D01*
X491495Y219454D01*
X491639Y219576D01*
X491648Y219587D01*
X491658Y219595D01*
X491772Y219744D01*
X491889Y219892D01*
X491895Y219904D01*
X491903Y219915D01*
X492055Y220210D01*
X493251Y223099D01*
X496038Y225886D01*
X499679Y227394D01*
X503621Y227394D01*
X507262Y225886D01*
X510049Y223099D01*
X511557Y219458D01*
X511557Y215517D01*
X511225Y214716D01*
X511218Y214695D01*
X511208Y214675D01*
X511160Y214501D01*
X511108Y214330D01*
X511106Y214308D01*
X511100Y214287D01*
X511087Y214107D01*
X511070Y213930D01*
X511073Y213908D01*
X511071Y213885D01*
X511093Y213707D01*
X511112Y213529D01*
X511119Y213508D01*
X511121Y213486D01*
X511178Y213316D01*
X511232Y213145D01*
X511243Y213125D01*
X511250Y213104D01*
X511339Y212949D01*
X511425Y212792D01*
X511439Y212775D01*
X511451Y212755D01*
X511665Y212502D01*
X514784Y209384D01*
X514805Y209367D01*
X514822Y209346D01*
X514960Y209240D01*
X515095Y209129D01*
X515119Y209116D01*
X515140Y209100D01*
X515296Y209022D01*
X515451Y208940D01*
X515477Y208932D01*
X515501Y208920D01*
X515670Y208875D01*
X515837Y208825D01*
X515864Y208823D01*
X515889Y208816D01*
X516220Y208789D01*
X516890Y208789D01*
X516904Y208790D01*
X516917Y208789D01*
X517103Y208810D01*
X517291Y208829D01*
X517304Y208833D01*
X517317Y208834D01*
X517496Y208892D01*
X517676Y208947D01*
X517687Y208953D01*
X517700Y208957D01*
X517865Y209049D01*
X518030Y209139D01*
X518040Y209147D01*
X518052Y209154D01*
X518194Y209276D01*
X518339Y209396D01*
X518347Y209407D01*
X518358Y209415D01*
X518473Y209563D01*
X518591Y209710D01*
X518598Y209722D01*
X518606Y209732D01*
X518690Y209901D01*
X518777Y210067D01*
X518781Y210080D01*
X518787Y210092D01*
X518836Y210273D01*
X518888Y210454D01*
X518889Y210468D01*
X518893Y210481D01*
X518906Y210669D01*
X518921Y210856D01*
X518920Y210869D01*
X518921Y210882D01*
X518896Y211070D01*
X518874Y211255D01*
X518870Y211268D01*
X518868Y211281D01*
X518767Y211597D01*
X517143Y215517D01*
X517143Y219458D01*
X518651Y223099D01*
X521438Y225886D01*
X525079Y227394D01*
X529021Y227394D01*
X532662Y225886D01*
X535449Y223099D01*
X537034Y219272D01*
X537064Y219183D01*
X537115Y219017D01*
X537127Y218993D01*
X537136Y218968D01*
X537223Y218816D01*
X537307Y218663D01*
X537324Y218642D01*
X537337Y218619D01*
X537552Y218366D01*
X539076Y216842D01*
X539083Y216836D01*
X539088Y216829D01*
X539239Y216708D01*
X539387Y216587D01*
X539395Y216583D01*
X539402Y216577D01*
X539572Y216488D01*
X539743Y216398D01*
X539752Y216396D01*
X539759Y216391D01*
X539944Y216338D01*
X540129Y216283D01*
X540138Y216282D01*
X540146Y216280D01*
X540337Y216264D01*
X540530Y216247D01*
X540539Y216248D01*
X540548Y216247D01*
X540737Y216269D01*
X540930Y216290D01*
X540939Y216293D01*
X540947Y216294D01*
X541129Y216353D01*
X541314Y216412D01*
X541322Y216416D01*
X541330Y216419D01*
X541497Y216513D01*
X541666Y216607D01*
X541673Y216612D01*
X541681Y216617D01*
X541826Y216742D01*
X541973Y216867D01*
X541979Y216874D01*
X541986Y216880D01*
X542102Y217030D01*
X542223Y217183D01*
X542227Y217191D01*
X542232Y217198D01*
X542317Y217369D01*
X542405Y217542D01*
X542408Y217551D01*
X542412Y217559D01*
X542461Y217744D01*
X542513Y217930D01*
X542514Y217939D01*
X542516Y217947D01*
X542543Y218278D01*
X542543Y219458D01*
X544051Y223099D01*
X546838Y225886D01*
X550479Y227394D01*
X554421Y227394D01*
X558062Y225886D01*
X560849Y223099D01*
X562357Y219458D01*
X562357Y215517D01*
X560924Y212058D01*
X560915Y212028D01*
X560901Y212000D01*
X560857Y211835D01*
X560807Y211672D01*
X560804Y211641D01*
X560796Y211611D01*
X560769Y211280D01*
X560769Y191406D01*
X560770Y191397D01*
X560769Y191388D01*
X560790Y191195D01*
X560809Y191005D01*
X560812Y190997D01*
X560813Y190988D01*
X560871Y190805D01*
X560927Y190620D01*
X560932Y190613D01*
X560934Y190604D01*
X561027Y190436D01*
X561119Y190266D01*
X561125Y190260D01*
X561129Y190252D01*
X561254Y190105D01*
X561377Y189957D01*
X561384Y189952D01*
X561390Y189945D01*
X561541Y189825D01*
X561691Y189705D01*
X561698Y189701D01*
X561705Y189695D01*
X561878Y189607D01*
X562048Y189519D01*
X562056Y189517D01*
X562064Y189513D01*
X562251Y189461D01*
X562435Y189408D01*
X562444Y189407D01*
X562452Y189405D01*
X562645Y189391D01*
X562836Y189375D01*
X562845Y189376D01*
X562854Y189375D01*
X563046Y189400D01*
X563236Y189422D01*
X563244Y189425D01*
X563253Y189426D01*
X563436Y189487D01*
X563619Y189547D01*
X563627Y189551D01*
X563635Y189554D01*
X563802Y189650D01*
X563969Y189745D01*
X563976Y189751D01*
X563984Y189755D01*
X564237Y189970D01*
X573698Y199431D01*
X573715Y199452D01*
X573736Y199469D01*
X573843Y199607D01*
X573953Y199743D01*
X573966Y199766D01*
X573982Y199788D01*
X574060Y199944D01*
X574142Y200098D01*
X574150Y200124D01*
X574162Y200148D01*
X574207Y200317D01*
X574257Y200484D01*
X574259Y200511D01*
X574266Y200537D01*
X574293Y200868D01*
X574293Y206881D01*
X574291Y206903D01*
X574293Y206925D01*
X574271Y207103D01*
X574253Y207281D01*
X574247Y207302D01*
X574244Y207325D01*
X574188Y207495D01*
X574135Y207666D01*
X574125Y207686D01*
X574118Y207707D01*
X574029Y207863D01*
X573943Y208020D01*
X573929Y208037D01*
X573918Y208057D01*
X573800Y208192D01*
X573686Y208329D01*
X573668Y208343D01*
X573654Y208360D01*
X573511Y208469D01*
X573372Y208582D01*
X573352Y208592D01*
X573335Y208606D01*
X573039Y208757D01*
X572238Y209089D01*
X569451Y211876D01*
X567943Y215517D01*
X567943Y219458D01*
X569451Y223099D01*
X572238Y225886D01*
X575879Y227394D01*
X579821Y227394D01*
X583462Y225886D01*
X586249Y223099D01*
X587757Y219458D01*
X587757Y215517D01*
X586249Y211876D01*
X583462Y209089D01*
X582661Y208757D01*
X582641Y208747D01*
X582620Y208740D01*
X582464Y208652D01*
X582306Y208567D01*
X582289Y208553D01*
X582269Y208542D01*
X582134Y208425D01*
X581995Y208311D01*
X581981Y208293D01*
X581964Y208279D01*
X581855Y208137D01*
X581742Y207998D01*
X581731Y207978D01*
X581718Y207961D01*
X581638Y207800D01*
X581555Y207641D01*
X581548Y207620D01*
X581538Y207600D01*
X581492Y207426D01*
X581442Y207255D01*
X581440Y207233D01*
X581434Y207211D01*
X581407Y206881D01*
X581407Y204971D01*
X581408Y204962D01*
X581407Y204953D01*
X581428Y204760D01*
X581447Y204570D01*
X581449Y204562D01*
X581450Y204553D01*
X581509Y204369D01*
X581565Y204186D01*
X581569Y204178D01*
X581572Y204169D01*
X581665Y204001D01*
X581757Y203832D01*
X581762Y203825D01*
X581767Y203817D01*
X581891Y203670D01*
X582014Y203522D01*
X582021Y203517D01*
X582027Y203510D01*
X582179Y203390D01*
X582328Y203270D01*
X582336Y203266D01*
X582343Y203260D01*
X582516Y203172D01*
X582685Y203084D01*
X582694Y203082D01*
X582702Y203078D01*
X582888Y203026D01*
X583072Y202973D01*
X583081Y202972D01*
X583090Y202970D01*
X583283Y202956D01*
X583474Y202940D01*
X583482Y202941D01*
X583491Y202941D01*
X583684Y202965D01*
X583873Y202987D01*
X583882Y202990D01*
X583891Y202991D01*
X584073Y203052D01*
X584256Y203112D01*
X584264Y203116D01*
X584272Y203119D01*
X584439Y203215D01*
X584607Y203310D01*
X584614Y203316D01*
X584621Y203320D01*
X584874Y203535D01*
X593413Y212073D01*
X593427Y212090D01*
X593444Y212105D01*
X593554Y212246D01*
X593668Y212385D01*
X593678Y212404D01*
X593692Y212422D01*
X593773Y212583D01*
X593856Y212740D01*
X593863Y212761D01*
X593873Y212782D01*
X593920Y212955D01*
X593971Y213126D01*
X593973Y213148D01*
X593979Y213170D01*
X593991Y213349D01*
X594007Y213527D01*
X594005Y213549D01*
X594007Y213572D01*
X593983Y213749D01*
X593964Y213927D01*
X593957Y213949D01*
X593954Y213971D01*
X593853Y214287D01*
X593343Y215517D01*
X593343Y219458D01*
X594851Y223099D01*
X597638Y225886D01*
X601279Y227394D01*
X605221Y227394D01*
X608862Y225886D01*
X611649Y223099D01*
X613157Y219458D01*
X613157Y215517D01*
X611649Y211876D01*
X608862Y209089D01*
X605221Y207581D01*
X601279Y207581D01*
X600908Y207735D01*
X600886Y207741D01*
X600866Y207751D01*
X600694Y207799D01*
X600522Y207851D01*
X600500Y207853D01*
X600478Y207859D01*
X600299Y207872D01*
X600121Y207889D01*
X600099Y207887D01*
X600077Y207889D01*
X599898Y207866D01*
X599721Y207848D01*
X599700Y207841D01*
X599678Y207838D01*
X599507Y207781D01*
X599337Y207728D01*
X599317Y207717D01*
X599296Y207710D01*
X599140Y207620D01*
X598983Y207535D01*
X598966Y207520D01*
X598947Y207509D01*
X598694Y207294D01*
X582666Y191267D01*
X582660Y191260D01*
X582653Y191254D01*
X582533Y191104D01*
X582411Y190955D01*
X582407Y190947D01*
X582401Y190940D01*
X582313Y190770D01*
X582222Y190599D01*
X582220Y190591D01*
X582216Y190583D01*
X582162Y190398D01*
X582108Y190213D01*
X582107Y190205D01*
X582104Y190196D01*
X582089Y190005D01*
X582071Y189812D01*
X582072Y189803D01*
X582071Y189795D01*
X582094Y189606D01*
X582115Y189412D01*
X582117Y189404D01*
X582118Y189395D01*
X582178Y189213D01*
X582236Y189028D01*
X582240Y189021D01*
X582243Y189012D01*
X582338Y188844D01*
X582431Y188676D01*
X582437Y188669D01*
X582441Y188661D01*
X582567Y188516D01*
X582691Y188369D01*
X582698Y188363D01*
X582704Y188357D01*
X582856Y188239D01*
X583007Y188119D01*
X583015Y188115D01*
X583022Y188110D01*
X583194Y188024D01*
X583366Y187937D01*
X583375Y187935D01*
X583383Y187931D01*
X583569Y187880D01*
X583754Y187829D01*
X583763Y187828D01*
X583772Y187826D01*
X584102Y187799D01*
X592731Y187799D01*
X592757Y187802D01*
X592784Y187800D01*
X592958Y187822D01*
X593132Y187839D01*
X593157Y187847D01*
X593184Y187850D01*
X593349Y187906D01*
X593516Y187957D01*
X593540Y187970D01*
X593565Y187978D01*
X593717Y188066D01*
X593870Y188149D01*
X593891Y188166D01*
X593914Y188179D01*
X594167Y188394D01*
X618530Y212756D01*
X618544Y212773D01*
X618561Y212788D01*
X618671Y212929D01*
X618785Y213068D01*
X618795Y213087D01*
X618809Y213105D01*
X618890Y213266D01*
X618973Y213423D01*
X618980Y213445D01*
X618990Y213465D01*
X619037Y213638D01*
X619088Y213809D01*
X619090Y213832D01*
X619096Y213853D01*
X619108Y214032D01*
X619124Y214210D01*
X619122Y214232D01*
X619124Y214255D01*
X619100Y214432D01*
X619081Y214611D01*
X619074Y214632D01*
X619071Y214654D01*
X618970Y214970D01*
X618743Y215517D01*
X618743Y219458D01*
X620251Y223099D01*
X623038Y225886D01*
X626679Y227394D01*
X630621Y227394D01*
X634262Y225886D01*
X637049Y223099D01*
X638557Y219458D01*
X638557Y215517D01*
X637049Y211876D01*
X634262Y209089D01*
X630621Y207581D01*
X626679Y207581D01*
X626132Y207807D01*
X626111Y207814D01*
X626091Y207824D01*
X625918Y207872D01*
X625747Y207924D01*
X625725Y207926D01*
X625703Y207932D01*
X625524Y207945D01*
X625346Y207962D01*
X625324Y207960D01*
X625302Y207961D01*
X625123Y207939D01*
X624946Y207920D01*
X624924Y207914D01*
X624902Y207911D01*
X624732Y207854D01*
X624561Y207800D01*
X624542Y207790D01*
X624521Y207783D01*
X624365Y207693D01*
X624208Y207607D01*
X624191Y207593D01*
X624172Y207582D01*
X623919Y207367D01*
X599858Y183306D01*
X599852Y183299D01*
X599846Y183294D01*
X599725Y183144D01*
X599603Y182995D01*
X599599Y182987D01*
X599593Y182980D01*
X599504Y182809D01*
X599414Y182639D01*
X599412Y182631D01*
X599408Y182623D01*
X599354Y182438D01*
X599300Y182253D01*
X599299Y182244D01*
X599296Y182236D01*
X599281Y182045D01*
X599263Y181852D01*
X599264Y181843D01*
X599263Y181835D01*
X599286Y181645D01*
X599307Y181452D01*
X599309Y181443D01*
X599310Y181435D01*
X599370Y181253D01*
X599428Y181068D01*
X599432Y181060D01*
X599435Y181052D01*
X599531Y180882D01*
X599623Y180716D01*
X599629Y180709D01*
X599633Y180701D01*
X599759Y180555D01*
X599883Y180409D01*
X599890Y180403D01*
X599896Y180397D01*
X600048Y180279D01*
X600199Y180159D01*
X600207Y180155D01*
X600214Y180150D01*
X600386Y180064D01*
X600558Y179977D01*
X600567Y179975D01*
X600575Y179971D01*
X600761Y179920D01*
X600946Y179869D01*
X600955Y179868D01*
X600964Y179866D01*
X601294Y179839D01*
X610171Y179839D01*
X610197Y179842D01*
X610224Y179840D01*
X610398Y179861D01*
X610571Y179879D01*
X610597Y179887D01*
X610624Y179890D01*
X610789Y179946D01*
X610956Y179997D01*
X610980Y180010D01*
X611005Y180018D01*
X611157Y180106D01*
X611310Y180189D01*
X611331Y180206D01*
X611354Y180219D01*
X611607Y180434D01*
X643930Y212756D01*
X643944Y212773D01*
X643961Y212788D01*
X644071Y212929D01*
X644185Y213068D01*
X644195Y213087D01*
X644209Y213105D01*
X644290Y213266D01*
X644373Y213423D01*
X644380Y213445D01*
X644390Y213465D01*
X644437Y213638D01*
X644488Y213809D01*
X644490Y213832D01*
X644496Y213853D01*
X644508Y214031D01*
X644524Y214210D01*
X644522Y214233D01*
X644524Y214255D01*
X644500Y214432D01*
X644481Y214611D01*
X644474Y214632D01*
X644471Y214654D01*
X644370Y214970D01*
X644143Y215517D01*
X644143Y219458D01*
X645651Y223099D01*
X648438Y225886D01*
X652079Y227394D01*
X656021Y227394D01*
X659662Y225886D01*
X662449Y223099D01*
X663957Y219458D01*
X663957Y219015D01*
X663958Y219006D01*
X663957Y218997D01*
X663978Y218805D01*
X663997Y218614D01*
X663999Y218606D01*
X664000Y218597D01*
X664058Y218415D01*
X664115Y218229D01*
X664119Y218221D01*
X664122Y218213D01*
X664215Y218045D01*
X664307Y217875D01*
X664312Y217869D01*
X664317Y217861D01*
X664442Y217713D01*
X664564Y217566D01*
X664571Y217561D01*
X664577Y217554D01*
X664729Y217434D01*
X664878Y217314D01*
X664886Y217310D01*
X664893Y217304D01*
X665065Y217217D01*
X665235Y217128D01*
X665244Y217126D01*
X665252Y217122D01*
X665438Y217070D01*
X665622Y217017D01*
X665631Y217016D01*
X665640Y217014D01*
X665832Y217000D01*
X666024Y216984D01*
X666032Y216985D01*
X666041Y216984D01*
X666234Y217009D01*
X666423Y217031D01*
X666432Y217034D01*
X666441Y217035D01*
X666624Y217096D01*
X666806Y217156D01*
X666814Y217160D01*
X666822Y217163D01*
X666988Y217258D01*
X667157Y217354D01*
X667164Y217360D01*
X667171Y217364D01*
X667424Y217579D01*
X669427Y219581D01*
X669447Y219605D01*
X669470Y219626D01*
X669574Y219761D01*
X669682Y219893D01*
X669697Y219921D01*
X669716Y219945D01*
X669867Y220240D01*
X671051Y223099D01*
X673838Y225886D01*
X677479Y227394D01*
X681421Y227394D01*
X685062Y225886D01*
X687849Y223099D01*
X689357Y219458D01*
X689357Y215517D01*
X688018Y212284D01*
X688014Y212271D01*
X688008Y212259D01*
X687956Y212080D01*
X687901Y211899D01*
X687900Y211885D01*
X687896Y211872D01*
X687881Y211685D01*
X687863Y211498D01*
X687864Y211485D01*
X687863Y211471D01*
X687885Y211285D01*
X687905Y211097D01*
X687909Y211084D01*
X687910Y211071D01*
X687969Y210892D01*
X688024Y210713D01*
X688031Y210701D01*
X688035Y210688D01*
X688128Y210524D01*
X688218Y210360D01*
X688226Y210349D01*
X688233Y210338D01*
X688355Y210196D01*
X688477Y210052D01*
X688487Y210043D01*
X688496Y210033D01*
X688644Y209918D01*
X688792Y209801D01*
X688804Y209794D01*
X688814Y209786D01*
X688982Y209703D01*
X689150Y209617D01*
X689163Y209613D01*
X689175Y209607D01*
X689357Y209558D01*
X689537Y209507D01*
X689550Y209506D01*
X689563Y209502D01*
X689894Y209475D01*
X690607Y209475D01*
X690634Y209478D01*
X690661Y209476D01*
X690835Y209498D01*
X691008Y209515D01*
X691033Y209523D01*
X691060Y209526D01*
X691226Y209582D01*
X691393Y209633D01*
X691416Y209646D01*
X691442Y209655D01*
X691593Y209742D01*
X691747Y209825D01*
X691767Y209842D01*
X691791Y209856D01*
X692044Y210070D01*
X694730Y212756D01*
X694744Y212773D01*
X694761Y212788D01*
X694871Y212929D01*
X694985Y213068D01*
X694995Y213087D01*
X695009Y213105D01*
X695090Y213266D01*
X695173Y213423D01*
X695180Y213445D01*
X695190Y213465D01*
X695237Y213638D01*
X695288Y213809D01*
X695290Y213832D01*
X695296Y213853D01*
X695308Y214031D01*
X695324Y214210D01*
X695322Y214233D01*
X695324Y214255D01*
X695300Y214432D01*
X695281Y214611D01*
X695274Y214632D01*
X695271Y214654D01*
X695170Y214970D01*
X694943Y215517D01*
X694943Y219458D01*
X696451Y223099D01*
X699238Y225886D01*
X702879Y227394D01*
X706821Y227394D01*
X710462Y225886D01*
X713249Y223099D01*
X714630Y219764D01*
X714636Y219752D01*
X714640Y219739D01*
X714731Y219575D01*
X714820Y219409D01*
X714829Y219399D01*
X714835Y219387D01*
X714956Y219244D01*
X715077Y219099D01*
X715087Y219090D01*
X715096Y219080D01*
X715243Y218963D01*
X715389Y218845D01*
X715401Y218839D01*
X715412Y218830D01*
X715580Y218745D01*
X715746Y218658D01*
X715759Y218654D01*
X715771Y218648D01*
X715953Y218597D01*
X716132Y218545D01*
X716146Y218544D01*
X716158Y218540D01*
X716347Y218526D01*
X716533Y218510D01*
X716546Y218512D01*
X716560Y218511D01*
X716748Y218534D01*
X716933Y218555D01*
X716946Y218559D01*
X716959Y218561D01*
X717138Y218621D01*
X717317Y218678D01*
X717328Y218685D01*
X717341Y218689D01*
X717504Y218783D01*
X717668Y218875D01*
X717678Y218884D01*
X717690Y218890D01*
X717943Y219105D01*
X720184Y221346D01*
X720192Y221347D01*
X720363Y221404D01*
X720534Y221456D01*
X720553Y221467D01*
X720575Y221474D01*
X720731Y221563D01*
X720888Y221648D01*
X720905Y221662D01*
X720924Y221673D01*
X721060Y221792D01*
X721197Y221906D01*
X721211Y221923D01*
X721228Y221938D01*
X721337Y222080D01*
X721449Y222220D01*
X721460Y222239D01*
X721473Y222257D01*
X721625Y222552D01*
X721851Y223099D01*
X724638Y225886D01*
X728279Y227394D01*
X732221Y227394D01*
X734218Y226567D01*
X734222Y226566D01*
X734226Y226563D01*
X734415Y226507D01*
X734603Y226450D01*
X734608Y226450D01*
X734612Y226449D01*
X734813Y226430D01*
X735004Y226412D01*
X735009Y226413D01*
X735013Y226412D01*
X735212Y226434D01*
X735405Y226454D01*
X735409Y226455D01*
X735413Y226456D01*
X735601Y226515D01*
X735789Y226574D01*
X735793Y226576D01*
X735797Y226577D01*
X735968Y226672D01*
X736142Y226767D01*
X736146Y226770D01*
X736150Y226772D01*
X736299Y226899D01*
X736450Y227026D01*
X736453Y227030D01*
X736457Y227032D01*
X736576Y227184D01*
X736701Y227341D01*
X736703Y227345D01*
X736706Y227348D01*
X736795Y227524D01*
X736885Y227699D01*
X736887Y227703D01*
X736889Y227707D01*
X736942Y227899D01*
X736995Y228086D01*
X736995Y228091D01*
X736997Y228095D01*
X737011Y228296D01*
X737026Y228488D01*
X737026Y228492D01*
X737026Y228497D01*
X737001Y228695D01*
X736978Y228888D01*
X736976Y228892D01*
X736976Y228896D01*
X736913Y229082D01*
X736851Y229270D01*
X736849Y229274D01*
X736847Y229278D01*
X736748Y229450D01*
X736652Y229620D01*
X736649Y229623D01*
X736646Y229627D01*
X736432Y229880D01*
X735450Y230862D01*
X735429Y230879D01*
X735411Y230899D01*
X735274Y231006D01*
X735138Y231117D01*
X735114Y231129D01*
X735093Y231146D01*
X734936Y231224D01*
X734782Y231306D01*
X734757Y231313D01*
X734733Y231325D01*
X734563Y231371D01*
X734397Y231420D01*
X734370Y231423D01*
X734344Y231430D01*
X734013Y231457D01*
X345348Y231457D01*
X345321Y231454D01*
X345295Y231456D01*
X345121Y231434D01*
X344947Y231417D01*
X344922Y231409D01*
X344895Y231406D01*
X344729Y231350D01*
X344562Y231299D01*
X344539Y231286D01*
X344513Y231277D01*
X344362Y231190D01*
X344208Y231107D01*
X344188Y231090D01*
X344165Y231077D01*
X343912Y230862D01*
X342831Y229782D01*
X342829Y229778D01*
X342825Y229775D01*
X342702Y229624D01*
X342576Y229470D01*
X342574Y229466D01*
X342571Y229463D01*
X342480Y229288D01*
X342388Y229114D01*
X342386Y229110D01*
X342384Y229106D01*
X342328Y228916D01*
X342273Y228729D01*
X342272Y228724D01*
X342271Y228720D01*
X342255Y228527D01*
X342236Y228328D01*
X342237Y228323D01*
X342237Y228319D01*
X342258Y228128D01*
X342280Y227927D01*
X342281Y227923D01*
X342282Y227919D01*
X342342Y227732D01*
X342401Y227543D01*
X342404Y227540D01*
X342405Y227535D01*
X342500Y227364D01*
X342596Y227191D01*
X342599Y227188D01*
X342601Y227184D01*
X342728Y227036D01*
X342857Y226884D01*
X342860Y226881D01*
X342863Y226878D01*
X343019Y226756D01*
X343173Y226635D01*
X343177Y226633D01*
X343180Y226630D01*
X343355Y226542D01*
X343532Y226452D01*
X343536Y226451D01*
X343540Y226449D01*
X343726Y226398D01*
X343919Y226344D01*
X343924Y226344D01*
X343928Y226343D01*
X344124Y226329D01*
X344321Y226315D01*
X344325Y226315D01*
X344330Y226315D01*
X344526Y226341D01*
X344720Y226365D01*
X344725Y226367D01*
X344729Y226367D01*
X345045Y226469D01*
X347279Y227394D01*
X351221Y227394D01*
X354862Y225886D01*
X357649Y223099D01*
X359157Y219458D01*
X359157Y215517D01*
X357535Y211602D01*
X357529Y211581D01*
X357519Y211561D01*
X357471Y211388D01*
X357419Y211217D01*
X357417Y211195D01*
X357411Y211173D01*
X357398Y210994D01*
X357381Y210816D01*
X357383Y210794D01*
X357381Y210772D01*
X357404Y210593D01*
X357422Y210416D01*
X357429Y210394D01*
X357432Y210372D01*
X357489Y210202D01*
X357542Y210031D01*
X357553Y210012D01*
X357560Y209990D01*
X357650Y209835D01*
X357735Y209678D01*
X357750Y209661D01*
X357761Y209642D01*
X357976Y209389D01*
X367372Y199992D01*
X367379Y199987D01*
X367384Y199980D01*
X367534Y199860D01*
X367683Y199737D01*
X367691Y199733D01*
X367698Y199728D01*
X367869Y199639D01*
X368039Y199549D01*
X368047Y199546D01*
X368055Y199542D01*
X368241Y199489D01*
X368425Y199434D01*
X368434Y199433D01*
X368442Y199431D01*
X368634Y199415D01*
X368826Y199398D01*
X368835Y199399D01*
X368844Y199398D01*
X369033Y199420D01*
X369226Y199441D01*
X369235Y199444D01*
X369243Y199445D01*
X369425Y199504D01*
X369610Y199562D01*
X369618Y199567D01*
X369626Y199570D01*
X369795Y199665D01*
X369962Y199757D01*
X369969Y199763D01*
X369977Y199767D01*
X370123Y199893D01*
X370269Y200018D01*
X370275Y200025D01*
X370282Y200031D01*
X370399Y200182D01*
X370519Y200334D01*
X370523Y200342D01*
X370528Y200349D01*
X370614Y200521D01*
X370701Y200693D01*
X370704Y200701D01*
X370708Y200709D01*
X370758Y200896D01*
X370809Y201081D01*
X370810Y201089D01*
X370812Y201098D01*
X370839Y201429D01*
X370839Y206986D01*
X370837Y207008D01*
X370839Y207030D01*
X370817Y207208D01*
X370799Y207386D01*
X370793Y207408D01*
X370790Y207430D01*
X370734Y207600D01*
X370681Y207771D01*
X370671Y207791D01*
X370664Y207812D01*
X370575Y207968D01*
X370489Y208125D01*
X370475Y208142D01*
X370464Y208162D01*
X370346Y208297D01*
X370232Y208435D01*
X370214Y208448D01*
X370200Y208465D01*
X370057Y208575D01*
X369918Y208687D01*
X369898Y208697D01*
X369881Y208711D01*
X369585Y208862D01*
X369038Y209089D01*
X366251Y211876D01*
X364743Y215517D01*
X364743Y219458D01*
X366251Y223099D01*
X369038Y225886D01*
X372679Y227394D01*
X376621Y227394D01*
X380262Y225886D01*
X383049Y223099D01*
X384557Y219458D01*
X384557Y215517D01*
X383049Y211876D01*
X380262Y209089D01*
X379715Y208862D01*
X379695Y208852D01*
X379674Y208845D01*
X379517Y208756D01*
X379360Y208672D01*
X379343Y208658D01*
X379323Y208647D01*
X379187Y208530D01*
X379049Y208416D01*
X379035Y208398D01*
X379018Y208384D01*
X378909Y208243D01*
X378796Y208103D01*
X378785Y208083D01*
X378772Y208066D01*
X378692Y207906D01*
X378609Y207747D01*
X378602Y207725D01*
X378592Y207705D01*
X378546Y207532D01*
X378496Y207360D01*
X378494Y207338D01*
X378488Y207316D01*
X378461Y206986D01*
X378461Y201645D01*
X378463Y201619D01*
X378461Y201592D01*
X378483Y201418D01*
X378501Y201245D01*
X378508Y201219D01*
X378512Y201193D01*
X378567Y201027D01*
X378619Y200860D01*
X378632Y200836D01*
X378640Y200811D01*
X378727Y200659D01*
X378811Y200506D01*
X378828Y200485D01*
X378841Y200462D01*
X379056Y200209D01*
X397788Y181476D01*
X397795Y181471D01*
X397801Y181464D01*
X397950Y181344D01*
X398100Y181221D01*
X398108Y181217D01*
X398115Y181212D01*
X398286Y181123D01*
X398455Y181033D01*
X398464Y181030D01*
X398472Y181026D01*
X398657Y180973D01*
X398841Y180918D01*
X398850Y180917D01*
X398859Y180915D01*
X399050Y180899D01*
X399242Y180882D01*
X399251Y180883D01*
X399260Y180882D01*
X399449Y180904D01*
X399643Y180925D01*
X399651Y180928D01*
X399660Y180929D01*
X399842Y180988D01*
X400026Y181047D01*
X400034Y181051D01*
X400043Y181054D01*
X400211Y181149D01*
X400379Y181241D01*
X400385Y181247D01*
X400393Y181252D01*
X400539Y181377D01*
X400686Y181502D01*
X400691Y181509D01*
X400698Y181515D01*
X400815Y181666D01*
X400935Y181818D01*
X400939Y181826D01*
X400945Y181833D01*
X401030Y182005D01*
X401118Y182177D01*
X401120Y182185D01*
X401124Y182193D01*
X401174Y182380D01*
X401226Y182565D01*
X401226Y182573D01*
X401229Y182582D01*
X401256Y182913D01*
X401256Y189414D01*
X401253Y189440D01*
X401255Y189467D01*
X401233Y189641D01*
X401216Y189814D01*
X401208Y189840D01*
X401205Y189866D01*
X401149Y190032D01*
X401098Y190199D01*
X401085Y190223D01*
X401076Y190248D01*
X400989Y190400D01*
X400906Y190553D01*
X400889Y190574D01*
X400876Y190597D01*
X400661Y190850D01*
X396239Y195272D01*
X396239Y206986D01*
X396237Y207008D01*
X396239Y207030D01*
X396217Y207208D01*
X396199Y207386D01*
X396193Y207408D01*
X396190Y207430D01*
X396134Y207600D01*
X396081Y207771D01*
X396071Y207791D01*
X396064Y207812D01*
X395975Y207968D01*
X395889Y208125D01*
X395875Y208142D01*
X395864Y208162D01*
X395746Y208297D01*
X395632Y208435D01*
X395614Y208448D01*
X395600Y208465D01*
X395457Y208575D01*
X395318Y208687D01*
X395298Y208697D01*
X395281Y208711D01*
X394985Y208862D01*
X394438Y209089D01*
X391651Y211876D01*
X390143Y215517D01*
X390143Y219458D01*
X391651Y223099D01*
X394438Y225886D01*
X398079Y227394D01*
X402021Y227394D01*
X405662Y225886D01*
X408449Y223099D01*
X409957Y219458D01*
X409957Y215517D01*
X408449Y211876D01*
X405662Y209089D01*
X405115Y208862D01*
X405095Y208852D01*
X405074Y208845D01*
X404917Y208756D01*
X404760Y208672D01*
X404743Y208658D01*
X404723Y208647D01*
X404587Y208530D01*
X404449Y208416D01*
X404435Y208398D01*
X404418Y208384D01*
X404309Y208243D01*
X404196Y208103D01*
X404185Y208083D01*
X404172Y208066D01*
X404092Y207906D01*
X404009Y207747D01*
X404002Y207725D01*
X403992Y207705D01*
X403946Y207532D01*
X403896Y207360D01*
X403894Y207338D01*
X403888Y207316D01*
X403861Y206986D01*
X403861Y199270D01*
X403862Y199254D01*
X403861Y199238D01*
X403862Y199228D01*
X403861Y199217D01*
X403883Y199043D01*
X403901Y198869D01*
X403907Y198850D01*
X403908Y198839D01*
X403910Y198833D01*
X403912Y198817D01*
X403967Y198651D01*
X404019Y198484D01*
X404031Y198462D01*
X404033Y198456D01*
X404034Y198454D01*
X404040Y198435D01*
X404127Y198284D01*
X404211Y198130D01*
X404228Y198110D01*
X404241Y198087D01*
X404456Y197834D01*
X406050Y196239D01*
X406071Y196222D01*
X406088Y196202D01*
X406226Y196095D01*
X406362Y195984D01*
X406385Y195972D01*
X406406Y195955D01*
X406563Y195877D01*
X406717Y195795D01*
X406743Y195788D01*
X406767Y195776D01*
X406936Y195730D01*
X407103Y195681D01*
X407130Y195678D01*
X407156Y195671D01*
X407486Y195644D01*
X415266Y195644D01*
X421069Y189841D01*
X421069Y183498D01*
X421072Y183472D01*
X421070Y183445D01*
X421092Y183271D01*
X421109Y183098D01*
X421117Y183072D01*
X421120Y183045D01*
X421176Y182880D01*
X421227Y182713D01*
X421240Y182689D01*
X421249Y182664D01*
X421336Y182512D01*
X421419Y182359D01*
X421436Y182338D01*
X421449Y182315D01*
X421664Y182062D01*
X436887Y166839D01*
X436908Y166822D01*
X436926Y166801D01*
X437063Y166694D01*
X437199Y166584D01*
X437223Y166571D01*
X437244Y166555D01*
X437401Y166477D01*
X437555Y166395D01*
X437580Y166387D01*
X437604Y166375D01*
X437774Y166330D01*
X437940Y166280D01*
X437967Y166278D01*
X437993Y166271D01*
X438324Y166244D01*
X438914Y166244D01*
X442555Y164736D01*
X445342Y161949D01*
X445551Y161445D01*
X445561Y161425D01*
X445568Y161404D01*
X445656Y161248D01*
X445741Y161090D01*
X445755Y161073D01*
X445766Y161053D01*
X445883Y160918D01*
X445997Y160780D01*
X446015Y160766D01*
X446029Y160749D01*
X446170Y160639D01*
X446310Y160526D01*
X446330Y160516D01*
X446347Y160502D01*
X446507Y160422D01*
X446666Y160339D01*
X446688Y160333D01*
X446708Y160323D01*
X446881Y160276D01*
X447053Y160226D01*
X447075Y160224D01*
X447097Y160218D01*
X447427Y160191D01*
X467510Y160191D01*
X467519Y160192D01*
G37*
G36*
X730688Y55058D02*
X730688Y55058D01*
X730715Y55056D01*
X730889Y55078D01*
X731062Y55095D01*
X731088Y55103D01*
X731114Y55106D01*
X731280Y55162D01*
X731447Y55213D01*
X731471Y55226D01*
X731496Y55235D01*
X731648Y55322D01*
X731801Y55405D01*
X731822Y55422D01*
X731845Y55435D01*
X732098Y55650D01*
X739370Y62922D01*
X739387Y62943D01*
X739407Y62960D01*
X739514Y63098D01*
X739625Y63234D01*
X739638Y63257D01*
X739654Y63278D01*
X739732Y63435D01*
X739814Y63589D01*
X739821Y63615D01*
X739833Y63639D01*
X739879Y63808D01*
X739928Y63975D01*
X739931Y64002D01*
X739938Y64028D01*
X739965Y64358D01*
X739965Y105623D01*
X739964Y105636D01*
X739965Y105649D01*
X739944Y105836D01*
X739925Y106023D01*
X739921Y106036D01*
X739920Y106049D01*
X739862Y106227D01*
X739807Y106408D01*
X739800Y106420D01*
X739796Y106433D01*
X739705Y106596D01*
X739615Y106762D01*
X739607Y106772D01*
X739600Y106784D01*
X739477Y106927D01*
X739357Y107071D01*
X739347Y107080D01*
X739338Y107090D01*
X739190Y107206D01*
X739044Y107324D01*
X739032Y107330D01*
X739021Y107338D01*
X738852Y107423D01*
X738686Y107509D01*
X738673Y107513D01*
X738661Y107519D01*
X738479Y107569D01*
X738299Y107621D01*
X738286Y107622D01*
X738273Y107625D01*
X738085Y107638D01*
X737898Y107653D01*
X737885Y107652D01*
X737871Y107653D01*
X737684Y107628D01*
X737498Y107607D01*
X737486Y107602D01*
X737472Y107601D01*
X737156Y107499D01*
X733491Y105981D01*
X714309Y105981D01*
X710668Y107489D01*
X707881Y110276D01*
X706373Y113917D01*
X706373Y117858D01*
X707881Y121499D01*
X710668Y124286D01*
X714309Y125794D01*
X717042Y125794D01*
X717060Y125796D01*
X717078Y125795D01*
X717260Y125816D01*
X717443Y125834D01*
X717460Y125839D01*
X717477Y125841D01*
X717652Y125898D01*
X717828Y125952D01*
X717843Y125961D01*
X717860Y125966D01*
X718020Y126057D01*
X718182Y126144D01*
X718195Y126155D01*
X718211Y126164D01*
X718350Y126284D01*
X718491Y126402D01*
X718502Y126416D01*
X718516Y126427D01*
X718628Y126572D01*
X718743Y126716D01*
X718751Y126731D01*
X718762Y126745D01*
X718844Y126910D01*
X718929Y127073D01*
X718934Y127090D01*
X718942Y127106D01*
X718989Y127284D01*
X719040Y127460D01*
X719042Y127478D01*
X719046Y127495D01*
X719073Y127825D01*
X719073Y129350D01*
X719071Y129367D01*
X719073Y129385D01*
X719052Y129567D01*
X719033Y129750D01*
X719028Y129767D01*
X719026Y129785D01*
X718969Y129959D01*
X718915Y130135D01*
X718907Y130151D01*
X718901Y130168D01*
X718811Y130328D01*
X718723Y130489D01*
X718712Y130503D01*
X718703Y130518D01*
X718583Y130658D01*
X718466Y130798D01*
X718452Y130810D01*
X718440Y130823D01*
X718295Y130936D01*
X718152Y131051D01*
X718136Y131059D01*
X718122Y131070D01*
X717957Y131152D01*
X717795Y131236D01*
X717778Y131241D01*
X717762Y131249D01*
X717583Y131297D01*
X717408Y131348D01*
X717390Y131349D01*
X717373Y131354D01*
X717042Y131381D01*
X714309Y131381D01*
X710668Y132889D01*
X707691Y135866D01*
X707671Y135883D01*
X707653Y135903D01*
X707515Y136010D01*
X707380Y136121D01*
X707356Y136133D01*
X707335Y136150D01*
X707178Y136228D01*
X707024Y136310D01*
X706999Y136317D01*
X706975Y136329D01*
X706805Y136375D01*
X706638Y136424D01*
X706612Y136427D01*
X706586Y136434D01*
X706255Y136461D01*
X682991Y136461D01*
X682964Y136458D01*
X682937Y136460D01*
X682763Y136438D01*
X682590Y136421D01*
X682565Y136413D01*
X682538Y136410D01*
X682372Y136354D01*
X682205Y136303D01*
X682182Y136290D01*
X682156Y136281D01*
X682005Y136194D01*
X681851Y136111D01*
X681831Y136094D01*
X681807Y136081D01*
X681554Y135866D01*
X671619Y125930D01*
X671599Y125906D01*
X671576Y125886D01*
X671472Y125750D01*
X671364Y125619D01*
X671349Y125591D01*
X671330Y125567D01*
X671179Y125271D01*
X671103Y125090D01*
X667719Y121706D01*
X667702Y121685D01*
X667682Y121667D01*
X667575Y121530D01*
X667464Y121394D01*
X667452Y121370D01*
X667435Y121349D01*
X667357Y121192D01*
X667275Y121038D01*
X667268Y121013D01*
X667256Y120989D01*
X667210Y120819D01*
X667161Y120653D01*
X667158Y120626D01*
X667151Y120600D01*
X667124Y120269D01*
X667124Y114203D01*
X665785Y112863D01*
X658642Y112863D01*
X658633Y112862D01*
X658624Y112863D01*
X658431Y112842D01*
X658241Y112823D01*
X658233Y112821D01*
X658224Y112820D01*
X658039Y112761D01*
X657856Y112705D01*
X657848Y112701D01*
X657840Y112698D01*
X657672Y112605D01*
X657502Y112513D01*
X657495Y112508D01*
X657487Y112503D01*
X657340Y112379D01*
X657193Y112256D01*
X657187Y112249D01*
X657180Y112243D01*
X657061Y112091D01*
X656941Y111942D01*
X656936Y111934D01*
X656931Y111927D01*
X656843Y111754D01*
X656755Y111585D01*
X656753Y111576D01*
X656749Y111568D01*
X656696Y111381D01*
X656644Y111198D01*
X656643Y111189D01*
X656641Y111180D01*
X656626Y110987D01*
X656611Y110796D01*
X656612Y110788D01*
X656611Y110779D01*
X656635Y110586D01*
X656658Y110397D01*
X656660Y110388D01*
X656662Y110379D01*
X656723Y110197D01*
X656783Y110014D01*
X656787Y110006D01*
X656790Y109998D01*
X656886Y109831D01*
X656980Y109663D01*
X656986Y109656D01*
X656991Y109649D01*
X657205Y109396D01*
X695961Y70640D01*
X695961Y61945D01*
X695963Y61919D01*
X695961Y61892D01*
X695983Y61718D01*
X696001Y61545D01*
X696008Y61519D01*
X696012Y61493D01*
X696067Y61327D01*
X696119Y61160D01*
X696132Y61136D01*
X696140Y61111D01*
X696227Y60959D01*
X696311Y60806D01*
X696328Y60785D01*
X696341Y60762D01*
X696556Y60509D01*
X701415Y55650D01*
X701435Y55633D01*
X701453Y55613D01*
X701591Y55506D01*
X701726Y55395D01*
X701750Y55383D01*
X701771Y55366D01*
X701928Y55288D01*
X702082Y55206D01*
X702107Y55199D01*
X702131Y55187D01*
X702301Y55141D01*
X702468Y55092D01*
X702494Y55089D01*
X702520Y55082D01*
X702851Y55055D01*
X730662Y55055D01*
X730688Y55058D01*
G37*
G36*
X659983Y128439D02*
X659983Y128439D01*
X660010Y128437D01*
X660184Y128459D01*
X660357Y128477D01*
X660383Y128484D01*
X660410Y128488D01*
X660575Y128543D01*
X660742Y128595D01*
X660766Y128608D01*
X660791Y128616D01*
X660943Y128703D01*
X661096Y128787D01*
X661117Y128804D01*
X661140Y128817D01*
X661393Y129032D01*
X662404Y130043D01*
X662424Y130067D01*
X662447Y130087D01*
X662551Y130222D01*
X662659Y130354D01*
X662674Y130382D01*
X662693Y130407D01*
X662844Y130702D01*
X662920Y130883D01*
X675772Y143736D01*
X675773Y143736D01*
X676270Y144233D01*
X676275Y144240D01*
X676282Y144246D01*
X676404Y144397D01*
X676525Y144545D01*
X676529Y144553D01*
X676535Y144560D01*
X676623Y144730D01*
X676713Y144900D01*
X676716Y144909D01*
X676720Y144917D01*
X676773Y145100D01*
X676828Y145286D01*
X676829Y145295D01*
X676831Y145304D01*
X676847Y145494D01*
X676865Y145687D01*
X676864Y145696D01*
X676864Y145705D01*
X676842Y145895D01*
X676821Y146087D01*
X676818Y146096D01*
X676817Y146105D01*
X676758Y146288D01*
X676700Y146471D01*
X676695Y146479D01*
X676693Y146488D01*
X676598Y146655D01*
X676505Y146824D01*
X676499Y146830D01*
X676495Y146838D01*
X676369Y146984D01*
X676244Y147131D01*
X676237Y147136D01*
X676232Y147143D01*
X676081Y147260D01*
X675928Y147380D01*
X675920Y147384D01*
X675913Y147390D01*
X675741Y147475D01*
X675570Y147563D01*
X675561Y147565D01*
X675553Y147569D01*
X675365Y147620D01*
X675182Y147671D01*
X675173Y147671D01*
X675164Y147674D01*
X674833Y147701D01*
X669303Y147701D01*
X667963Y149040D01*
X667963Y158935D01*
X668919Y159891D01*
X668933Y159908D01*
X668950Y159922D01*
X669061Y160064D01*
X669174Y160202D01*
X669185Y160222D01*
X669199Y160239D01*
X669279Y160400D01*
X669363Y160558D01*
X669369Y160579D01*
X669379Y160599D01*
X669427Y160772D01*
X669478Y160944D01*
X669480Y160966D01*
X669486Y160988D01*
X669498Y161165D01*
X669514Y161345D01*
X669512Y161367D01*
X669513Y161389D01*
X669490Y161566D01*
X669471Y161745D01*
X669464Y161766D01*
X669461Y161788D01*
X669360Y162104D01*
X668619Y163893D01*
X668619Y166307D01*
X669543Y168538D01*
X671250Y170245D01*
X673480Y171169D01*
X675895Y171169D01*
X678125Y170245D01*
X679832Y168538D01*
X680756Y166307D01*
X680756Y163893D01*
X679759Y161486D01*
X679753Y161464D01*
X679743Y161444D01*
X679695Y161272D01*
X679643Y161100D01*
X679641Y161078D01*
X679635Y161056D01*
X679621Y160877D01*
X679605Y160699D01*
X679607Y160677D01*
X679605Y160655D01*
X679628Y160477D01*
X679646Y160299D01*
X679653Y160278D01*
X679656Y160255D01*
X679713Y160085D01*
X679766Y159915D01*
X679777Y159895D01*
X679784Y159874D01*
X679873Y159718D01*
X679959Y159561D01*
X679974Y159544D01*
X679985Y159525D01*
X680199Y159272D01*
X680537Y158935D01*
X680537Y148586D01*
X680520Y148529D01*
X680519Y148520D01*
X680516Y148511D01*
X680501Y148319D01*
X680483Y148128D01*
X680484Y148119D01*
X680484Y148110D01*
X680506Y147919D01*
X680527Y147728D01*
X680529Y147719D01*
X680530Y147710D01*
X680590Y147527D01*
X680648Y147344D01*
X680652Y147336D01*
X680655Y147327D01*
X680750Y147160D01*
X680843Y146992D01*
X680849Y146985D01*
X680853Y146977D01*
X680979Y146830D01*
X681103Y146685D01*
X681110Y146679D01*
X681116Y146672D01*
X681268Y146555D01*
X681419Y146435D01*
X681427Y146431D01*
X681434Y146425D01*
X681606Y146340D01*
X681778Y146253D01*
X681787Y146250D01*
X681795Y146246D01*
X681982Y146196D01*
X682166Y146144D01*
X682175Y146144D01*
X682184Y146141D01*
X682515Y146114D01*
X706255Y146114D01*
X706282Y146117D01*
X706308Y146115D01*
X706482Y146137D01*
X706656Y146154D01*
X706681Y146162D01*
X706708Y146165D01*
X706874Y146221D01*
X707041Y146272D01*
X707064Y146285D01*
X707090Y146294D01*
X707241Y146381D01*
X707395Y146464D01*
X707415Y146481D01*
X707438Y146494D01*
X707691Y146709D01*
X710668Y149686D01*
X714309Y151194D01*
X733491Y151194D01*
X737156Y149676D01*
X737169Y149672D01*
X737181Y149666D01*
X737361Y149614D01*
X737542Y149559D01*
X737555Y149558D01*
X737568Y149554D01*
X737756Y149539D01*
X737942Y149521D01*
X737956Y149523D01*
X737969Y149522D01*
X738156Y149543D01*
X738343Y149563D01*
X738356Y149567D01*
X738369Y149568D01*
X738548Y149627D01*
X738727Y149683D01*
X738739Y149689D01*
X738752Y149693D01*
X738916Y149786D01*
X739081Y149876D01*
X739091Y149885D01*
X739102Y149891D01*
X739244Y150014D01*
X739389Y150135D01*
X739397Y150146D01*
X739407Y150154D01*
X739522Y150302D01*
X739640Y150450D01*
X739646Y150462D01*
X739654Y150472D01*
X739737Y150639D01*
X739824Y150808D01*
X739827Y150821D01*
X739833Y150833D01*
X739882Y151016D01*
X739933Y151195D01*
X739934Y151209D01*
X739938Y151222D01*
X739965Y151552D01*
X739965Y155187D01*
X739962Y155214D01*
X739964Y155240D01*
X739942Y155414D01*
X739925Y155588D01*
X739917Y155613D01*
X739914Y155640D01*
X739858Y155806D01*
X739807Y155973D01*
X739794Y155996D01*
X739786Y156021D01*
X739698Y156173D01*
X739615Y156327D01*
X739598Y156347D01*
X739585Y156370D01*
X739370Y156623D01*
X738496Y157497D01*
X738479Y157511D01*
X738465Y157528D01*
X738324Y157638D01*
X738185Y157752D01*
X738165Y157763D01*
X738148Y157776D01*
X737988Y157857D01*
X737829Y157941D01*
X737808Y157947D01*
X737788Y157957D01*
X737615Y158004D01*
X737443Y158055D01*
X737421Y158057D01*
X737400Y158063D01*
X737221Y158076D01*
X737042Y158092D01*
X737020Y158089D01*
X736998Y158091D01*
X736820Y158068D01*
X736642Y158048D01*
X736621Y158042D01*
X736599Y158039D01*
X736283Y157937D01*
X733491Y156781D01*
X714309Y156781D01*
X710668Y158289D01*
X707881Y161076D01*
X706373Y164717D01*
X706373Y168658D01*
X707881Y172299D01*
X710668Y175086D01*
X714309Y176594D01*
X733491Y176594D01*
X737132Y175086D01*
X739919Y172299D01*
X741427Y168658D01*
X741427Y166186D01*
X741429Y166160D01*
X741427Y166133D01*
X741449Y165959D01*
X741467Y165786D01*
X741474Y165760D01*
X741478Y165734D01*
X741533Y165568D01*
X741585Y165401D01*
X741598Y165377D01*
X741606Y165352D01*
X741693Y165200D01*
X741777Y165047D01*
X741794Y165026D01*
X741807Y165003D01*
X742022Y164750D01*
X744759Y162013D01*
X746848Y159924D01*
X746855Y159918D01*
X746860Y159911D01*
X747011Y159790D01*
X747159Y159669D01*
X747167Y159665D01*
X747174Y159659D01*
X747344Y159571D01*
X747515Y159480D01*
X747524Y159478D01*
X747531Y159474D01*
X747716Y159421D01*
X747901Y159365D01*
X747910Y159365D01*
X747918Y159362D01*
X748109Y159347D01*
X748302Y159329D01*
X748311Y159330D01*
X748320Y159329D01*
X748509Y159352D01*
X748702Y159372D01*
X748711Y159375D01*
X748719Y159376D01*
X748901Y159436D01*
X749086Y159494D01*
X749094Y159498D01*
X749102Y159501D01*
X749269Y159595D01*
X749438Y159689D01*
X749445Y159695D01*
X749453Y159699D01*
X749598Y159824D01*
X749745Y159949D01*
X749751Y159956D01*
X749758Y159962D01*
X749874Y160113D01*
X749995Y160265D01*
X749999Y160273D01*
X750004Y160280D01*
X750090Y160452D01*
X750177Y160624D01*
X750180Y160633D01*
X750184Y160641D01*
X750234Y160827D01*
X750285Y161012D01*
X750286Y161021D01*
X750288Y161030D01*
X750315Y161360D01*
X750315Y184722D01*
X750313Y184739D01*
X750315Y184757D01*
X750294Y184939D01*
X750275Y185122D01*
X750270Y185139D01*
X750268Y185157D01*
X750211Y185331D01*
X750157Y185507D01*
X750149Y185523D01*
X750143Y185540D01*
X750053Y185700D01*
X749965Y185861D01*
X749954Y185875D01*
X749945Y185890D01*
X749825Y186030D01*
X749708Y186170D01*
X749694Y186182D01*
X749682Y186195D01*
X749537Y186308D01*
X749394Y186423D01*
X749378Y186431D01*
X749364Y186442D01*
X749199Y186524D01*
X749037Y186608D01*
X749020Y186613D01*
X749004Y186621D01*
X748825Y186669D01*
X748650Y186720D01*
X748632Y186721D01*
X748615Y186726D01*
X748284Y186753D01*
X741037Y186753D01*
X741010Y186750D01*
X740984Y186752D01*
X740810Y186730D01*
X740636Y186713D01*
X740611Y186705D01*
X740584Y186702D01*
X740418Y186646D01*
X740251Y186595D01*
X740228Y186582D01*
X740202Y186573D01*
X740051Y186486D01*
X739897Y186403D01*
X739877Y186386D01*
X739854Y186373D01*
X739601Y186158D01*
X737132Y183689D01*
X733491Y182181D01*
X714309Y182181D01*
X710668Y183689D01*
X707881Y186476D01*
X706373Y190117D01*
X706373Y191853D01*
X706372Y191862D01*
X706373Y191871D01*
X706352Y192062D01*
X706333Y192254D01*
X706331Y192262D01*
X706330Y192271D01*
X706272Y192454D01*
X706215Y192639D01*
X706211Y192647D01*
X706208Y192655D01*
X706115Y192824D01*
X706023Y192993D01*
X706018Y192999D01*
X706013Y193007D01*
X705888Y193155D01*
X705766Y193302D01*
X705759Y193307D01*
X705753Y193314D01*
X705601Y193434D01*
X705452Y193554D01*
X705444Y193558D01*
X705437Y193564D01*
X705264Y193652D01*
X705095Y193740D01*
X705086Y193742D01*
X705078Y193746D01*
X704891Y193798D01*
X704708Y193851D01*
X704699Y193852D01*
X704690Y193854D01*
X704499Y193868D01*
X704306Y193884D01*
X704297Y193883D01*
X704288Y193884D01*
X704098Y193859D01*
X703907Y193837D01*
X703898Y193834D01*
X703889Y193833D01*
X703707Y193772D01*
X703650Y193753D01*
X678225Y193753D01*
X678199Y193751D01*
X678172Y193753D01*
X677998Y193731D01*
X677825Y193713D01*
X677799Y193705D01*
X677772Y193702D01*
X677607Y193646D01*
X677440Y193595D01*
X677416Y193582D01*
X677391Y193574D01*
X677239Y193487D01*
X677086Y193403D01*
X677065Y193386D01*
X677042Y193373D01*
X676789Y193158D01*
X660252Y176622D01*
X660244Y176611D01*
X660233Y176602D01*
X660116Y176456D01*
X659997Y176310D01*
X659991Y176298D01*
X659982Y176288D01*
X659896Y176120D01*
X659808Y175954D01*
X659805Y175942D01*
X659798Y175929D01*
X659747Y175748D01*
X659694Y175568D01*
X659692Y175555D01*
X659689Y175542D01*
X659674Y175356D01*
X659657Y175167D01*
X659659Y175154D01*
X659658Y175141D01*
X659680Y174956D01*
X659701Y174767D01*
X659705Y174754D01*
X659706Y174741D01*
X659766Y174562D01*
X659822Y174383D01*
X659829Y174372D01*
X659833Y174359D01*
X659926Y174195D01*
X660017Y174031D01*
X660026Y174021D01*
X660032Y174009D01*
X660156Y173868D01*
X660277Y173724D01*
X660288Y173716D01*
X660297Y173705D01*
X660445Y173591D01*
X660593Y173474D01*
X660606Y173468D01*
X660616Y173460D01*
X660629Y173454D01*
X662384Y171699D01*
X663308Y169468D01*
X663308Y167054D01*
X662384Y164823D01*
X660677Y163116D01*
X658446Y162192D01*
X656032Y162192D01*
X654893Y162664D01*
X654872Y162670D01*
X654852Y162681D01*
X654679Y162729D01*
X654508Y162780D01*
X654485Y162783D01*
X654464Y162789D01*
X654285Y162802D01*
X654107Y162819D01*
X654085Y162816D01*
X654062Y162818D01*
X653884Y162795D01*
X653706Y162777D01*
X653685Y162770D01*
X653663Y162768D01*
X653493Y162711D01*
X653322Y162657D01*
X653302Y162646D01*
X653281Y162639D01*
X653126Y162550D01*
X652969Y162464D01*
X652952Y162449D01*
X652932Y162438D01*
X652679Y162224D01*
X632009Y141553D01*
X632003Y141546D01*
X631996Y141540D01*
X631876Y141391D01*
X631754Y141242D01*
X631749Y141234D01*
X631744Y141227D01*
X631655Y141055D01*
X631565Y140886D01*
X631562Y140877D01*
X631558Y140869D01*
X631505Y140684D01*
X631450Y140500D01*
X631449Y140491D01*
X631447Y140482D01*
X631431Y140291D01*
X631414Y140099D01*
X631415Y140090D01*
X631414Y140081D01*
X631436Y139892D01*
X631457Y139699D01*
X631460Y139690D01*
X631461Y139681D01*
X631520Y139499D01*
X631579Y139315D01*
X631583Y139307D01*
X631586Y139299D01*
X631681Y139130D01*
X631774Y138963D01*
X631779Y138956D01*
X631784Y138948D01*
X631910Y138802D01*
X632034Y138656D01*
X632041Y138650D01*
X632047Y138643D01*
X632198Y138526D01*
X632350Y138406D01*
X632358Y138402D01*
X632365Y138396D01*
X632537Y138311D01*
X632709Y138224D01*
X632717Y138221D01*
X632725Y138217D01*
X632912Y138167D01*
X633097Y138116D01*
X633106Y138115D01*
X633114Y138113D01*
X633445Y138085D01*
X647432Y138085D01*
X656486Y129032D01*
X656507Y129015D01*
X656524Y128994D01*
X656662Y128887D01*
X656797Y128777D01*
X656821Y128764D01*
X656842Y128748D01*
X656999Y128670D01*
X657153Y128588D01*
X657179Y128580D01*
X657203Y128568D01*
X657372Y128523D01*
X657539Y128473D01*
X657566Y128471D01*
X657591Y128464D01*
X657922Y128437D01*
X659957Y128437D01*
X659983Y128439D01*
G37*
G36*
X529447Y100477D02*
X529447Y100477D01*
X529464Y100475D01*
X529646Y100498D01*
X529829Y100518D01*
X529846Y100524D01*
X529864Y100526D01*
X530037Y100584D01*
X530213Y100640D01*
X530229Y100648D01*
X530246Y100654D01*
X530405Y100746D01*
X530565Y100835D01*
X530579Y100846D01*
X530594Y100855D01*
X530847Y101070D01*
X532059Y102281D01*
X534807Y105029D01*
X538343Y108565D01*
X545610Y115832D01*
X547516Y115832D01*
X547534Y115834D01*
X547552Y115832D01*
X547734Y115854D01*
X547917Y115872D01*
X547934Y115877D01*
X547952Y115879D01*
X548126Y115936D01*
X548302Y115990D01*
X548317Y115999D01*
X548334Y116004D01*
X548495Y116095D01*
X548656Y116182D01*
X548669Y116193D01*
X548685Y116202D01*
X548824Y116322D01*
X548965Y116440D01*
X548976Y116454D01*
X548990Y116465D01*
X549102Y116610D01*
X549217Y116753D01*
X549226Y116769D01*
X549237Y116783D01*
X549319Y116948D01*
X549403Y117111D01*
X549408Y117128D01*
X549416Y117144D01*
X549464Y117322D01*
X549514Y117498D01*
X549516Y117515D01*
X549520Y117533D01*
X549547Y117863D01*
X549547Y119770D01*
X566634Y136857D01*
X567846Y138068D01*
X567857Y138082D01*
X567871Y138094D01*
X567985Y138238D01*
X568101Y138380D01*
X568110Y138396D01*
X568121Y138410D01*
X568204Y138574D01*
X568290Y138736D01*
X568295Y138753D01*
X568303Y138769D01*
X568352Y138944D01*
X568405Y139121D01*
X568406Y139139D01*
X568411Y139157D01*
X568424Y139339D01*
X568441Y139522D01*
X568439Y139540D01*
X568440Y139558D01*
X568417Y139740D01*
X568398Y139923D01*
X568392Y139940D01*
X568390Y139958D01*
X568332Y140131D01*
X568276Y140307D01*
X568267Y140322D01*
X568262Y140339D01*
X568171Y140497D01*
X568081Y140659D01*
X568070Y140673D01*
X568061Y140688D01*
X567846Y140941D01*
X567424Y141363D01*
X532059Y176728D01*
X530847Y177940D01*
X530834Y177951D01*
X530822Y177965D01*
X530678Y178079D01*
X530536Y178195D01*
X530520Y178203D01*
X530506Y178214D01*
X530342Y178298D01*
X530180Y178383D01*
X530163Y178388D01*
X530147Y178397D01*
X529970Y178446D01*
X529794Y178498D01*
X529776Y178500D01*
X529759Y178505D01*
X529577Y178518D01*
X529393Y178535D01*
X529376Y178533D01*
X529358Y178534D01*
X529176Y178511D01*
X528993Y178491D01*
X528976Y178486D01*
X528958Y178484D01*
X528785Y178425D01*
X528609Y178370D01*
X528594Y178361D01*
X528577Y178355D01*
X528418Y178264D01*
X528257Y178175D01*
X528243Y178163D01*
X528228Y178154D01*
X527975Y177940D01*
X527552Y177517D01*
X492188Y142153D01*
X490976Y140941D01*
X490965Y140927D01*
X490951Y140916D01*
X490837Y140771D01*
X490721Y140629D01*
X490713Y140614D01*
X490702Y140600D01*
X490618Y140436D01*
X490532Y140274D01*
X490527Y140257D01*
X490519Y140241D01*
X490470Y140063D01*
X490418Y139888D01*
X490416Y139870D01*
X490411Y139853D01*
X490398Y139670D01*
X490381Y139487D01*
X490383Y139469D01*
X490382Y139451D01*
X490405Y139270D01*
X490425Y139087D01*
X490430Y139070D01*
X490432Y139052D01*
X490490Y138879D01*
X490546Y138703D01*
X490555Y138687D01*
X490561Y138670D01*
X490652Y138512D01*
X490741Y138350D01*
X490753Y138337D01*
X490761Y138321D01*
X490976Y138068D01*
X491399Y137646D01*
X527975Y101070D01*
X527989Y101058D01*
X528000Y101045D01*
X528144Y100931D01*
X528286Y100815D01*
X528302Y100806D01*
X528316Y100795D01*
X528481Y100712D01*
X528642Y100626D01*
X528659Y100621D01*
X528675Y100613D01*
X528853Y100563D01*
X529028Y100511D01*
X529046Y100510D01*
X529063Y100505D01*
X529246Y100491D01*
X529429Y100475D01*
X529447Y100477D01*
G37*
G36*
X421516Y142076D02*
X421516Y142076D01*
X421525Y142076D01*
X421718Y142097D01*
X421908Y142115D01*
X421916Y142118D01*
X421925Y142119D01*
X422110Y142177D01*
X422293Y142234D01*
X422300Y142238D01*
X422309Y142240D01*
X422477Y142334D01*
X422647Y142425D01*
X422653Y142431D01*
X422661Y142435D01*
X422808Y142560D01*
X422956Y142683D01*
X422961Y142690D01*
X422968Y142696D01*
X423088Y142847D01*
X423208Y142997D01*
X423212Y143005D01*
X423218Y143012D01*
X423306Y143184D01*
X423394Y143354D01*
X423396Y143363D01*
X423400Y143371D01*
X423452Y143557D01*
X423505Y143741D01*
X423506Y143750D01*
X423508Y143759D01*
X423522Y143949D01*
X423538Y144142D01*
X423537Y144151D01*
X423538Y144160D01*
X423513Y144352D01*
X423491Y144542D01*
X423488Y144551D01*
X423487Y144559D01*
X423426Y144741D01*
X423366Y144925D01*
X423362Y144933D01*
X423359Y144941D01*
X423263Y145108D01*
X423168Y145276D01*
X423163Y145282D01*
X423158Y145290D01*
X422943Y145543D01*
X386408Y182079D01*
X386401Y182084D01*
X386395Y182091D01*
X386245Y182212D01*
X386096Y182334D01*
X386088Y182338D01*
X386081Y182344D01*
X385910Y182432D01*
X385740Y182522D01*
X385732Y182525D01*
X385724Y182529D01*
X385539Y182582D01*
X385355Y182637D01*
X385346Y182638D01*
X385337Y182640D01*
X385146Y182656D01*
X384954Y182674D01*
X384945Y182673D01*
X384936Y182673D01*
X384747Y182651D01*
X384553Y182630D01*
X384545Y182627D01*
X384536Y182626D01*
X384354Y182567D01*
X384169Y182509D01*
X384162Y182504D01*
X384153Y182502D01*
X383985Y182407D01*
X383817Y182314D01*
X383810Y182308D01*
X383803Y182304D01*
X383657Y182178D01*
X383510Y182053D01*
X383505Y182046D01*
X383498Y182041D01*
X383379Y181888D01*
X383261Y181737D01*
X383256Y181729D01*
X383251Y181722D01*
X383165Y181550D01*
X383078Y181378D01*
X383076Y181370D01*
X383072Y181362D01*
X383068Y181348D01*
X383026Y181297D01*
X383013Y181273D01*
X382997Y181252D01*
X382919Y181095D01*
X382837Y180941D01*
X382830Y180915D01*
X382818Y180891D01*
X382772Y180722D01*
X382723Y180555D01*
X382720Y180528D01*
X382713Y180503D01*
X382686Y180172D01*
X382686Y146135D01*
X382689Y146108D01*
X382687Y146081D01*
X382709Y145907D01*
X382726Y145734D01*
X382734Y145709D01*
X382737Y145682D01*
X382793Y145516D01*
X382844Y145349D01*
X382857Y145326D01*
X382865Y145300D01*
X382953Y145149D01*
X383036Y144995D01*
X383053Y144975D01*
X383066Y144951D01*
X383281Y144698D01*
X385309Y142670D01*
X385330Y142653D01*
X385347Y142633D01*
X385485Y142526D01*
X385621Y142415D01*
X385644Y142403D01*
X385665Y142386D01*
X385822Y142308D01*
X385976Y142227D01*
X386002Y142219D01*
X386026Y142207D01*
X386195Y142162D01*
X386362Y142112D01*
X386389Y142110D01*
X386415Y142103D01*
X386745Y142075D01*
X421507Y142075D01*
X421516Y142076D01*
G37*
G36*
X396958Y80902D02*
X396958Y80902D01*
X396985Y80900D01*
X397159Y80922D01*
X397332Y80940D01*
X397358Y80947D01*
X397384Y80951D01*
X397550Y81006D01*
X397717Y81058D01*
X397741Y81071D01*
X397766Y81079D01*
X397918Y81166D01*
X398071Y81250D01*
X398092Y81267D01*
X398115Y81280D01*
X398368Y81495D01*
X398819Y81946D01*
X398836Y81967D01*
X398857Y81984D01*
X398964Y82122D01*
X399074Y82258D01*
X399087Y82281D01*
X399103Y82302D01*
X399181Y82459D01*
X399263Y82613D01*
X399271Y82639D01*
X399283Y82663D01*
X399328Y82832D01*
X399378Y82999D01*
X399380Y83026D01*
X399387Y83052D01*
X399414Y83382D01*
X399414Y108190D01*
X399413Y108199D01*
X399414Y108208D01*
X399393Y108401D01*
X399374Y108591D01*
X399372Y108599D01*
X399371Y108608D01*
X399313Y108792D01*
X399256Y108976D01*
X399252Y108984D01*
X399249Y108992D01*
X399157Y109160D01*
X399064Y109330D01*
X399059Y109337D01*
X399054Y109344D01*
X398930Y109491D01*
X398807Y109639D01*
X398800Y109645D01*
X398794Y109651D01*
X398642Y109771D01*
X398493Y109891D01*
X398485Y109895D01*
X398478Y109901D01*
X398305Y109989D01*
X398136Y110077D01*
X398127Y110079D01*
X398119Y110083D01*
X397933Y110135D01*
X397749Y110188D01*
X397740Y110189D01*
X397731Y110191D01*
X397538Y110205D01*
X397347Y110221D01*
X397339Y110220D01*
X397330Y110221D01*
X397137Y110196D01*
X396948Y110174D01*
X396939Y110171D01*
X396930Y110170D01*
X396747Y110109D01*
X396565Y110049D01*
X396557Y110045D01*
X396549Y110042D01*
X396382Y109946D01*
X396214Y109851D01*
X396207Y109846D01*
X396200Y109841D01*
X395947Y109626D01*
X380513Y94192D01*
X380496Y94172D01*
X380475Y94154D01*
X380368Y94016D01*
X380258Y93881D01*
X380245Y93857D01*
X380229Y93836D01*
X380151Y93679D01*
X380069Y93525D01*
X380061Y93500D01*
X380049Y93476D01*
X380004Y93306D01*
X379954Y93139D01*
X379952Y93113D01*
X379945Y93087D01*
X379918Y92756D01*
X379918Y88199D01*
X376086Y84367D01*
X376081Y84360D01*
X376074Y84355D01*
X375954Y84205D01*
X375831Y84056D01*
X375827Y84048D01*
X375822Y84041D01*
X375733Y83871D01*
X375643Y83700D01*
X375640Y83691D01*
X375636Y83684D01*
X375583Y83499D01*
X375528Y83314D01*
X375527Y83305D01*
X375525Y83297D01*
X375509Y83105D01*
X375492Y82913D01*
X375493Y82904D01*
X375492Y82895D01*
X375514Y82706D01*
X375535Y82513D01*
X375538Y82504D01*
X375539Y82496D01*
X375598Y82314D01*
X375656Y82129D01*
X375661Y82121D01*
X375664Y82113D01*
X375759Y81944D01*
X375851Y81777D01*
X375857Y81770D01*
X375861Y81762D01*
X375987Y81616D01*
X376112Y81470D01*
X376119Y81464D01*
X376125Y81457D01*
X376276Y81340D01*
X376428Y81220D01*
X376436Y81216D01*
X376443Y81211D01*
X376615Y81125D01*
X376787Y81038D01*
X376795Y81035D01*
X376803Y81031D01*
X376989Y80981D01*
X377175Y80930D01*
X377183Y80929D01*
X377192Y80927D01*
X377523Y80900D01*
X396932Y80900D01*
X396958Y80902D01*
G37*
%LPC*%
G36*
X423479Y207581D02*
X423479Y207581D01*
X419838Y209089D01*
X417051Y211876D01*
X415543Y215517D01*
X415543Y219458D01*
X417051Y223099D01*
X419838Y225886D01*
X423479Y227394D01*
X427421Y227394D01*
X431062Y225886D01*
X433849Y223099D01*
X435357Y219458D01*
X435357Y215517D01*
X433849Y211876D01*
X431062Y209089D01*
X427421Y207581D01*
X423479Y207581D01*
G37*
%LPD*%
D10*
X674250Y153988D03*
X659250Y153988D03*
D11*
X755650Y65088D03*
X730250Y65088D03*
X704850Y65088D03*
X679450Y65088D03*
X654050Y65088D03*
X628650Y65088D03*
X603250Y65088D03*
X577850Y65088D03*
X552450Y65088D03*
X527050Y65088D03*
X501650Y65088D03*
X476250Y65088D03*
X450850Y65088D03*
X425450Y65088D03*
X400050Y65088D03*
X374650Y65088D03*
X349250Y65088D03*
X323850Y65088D03*
X298450Y65088D03*
X273050Y65088D03*
X273050Y217488D03*
X298450Y217488D03*
X323850Y217488D03*
X349250Y217488D03*
X374650Y217488D03*
X400050Y217488D03*
X425450Y217488D03*
X450850Y217488D03*
X476250Y217488D03*
X501650Y217488D03*
X527050Y217488D03*
X552450Y217488D03*
X577850Y217488D03*
X603250Y217488D03*
X628650Y217488D03*
X654050Y217488D03*
X679450Y217488D03*
X704850Y217488D03*
X730250Y217488D03*
X755650Y217488D03*
D12*
X411163Y185738D03*
D13*
X676838Y120650D03*
X659838Y120650D03*
D14*
X716280Y192088D02*
X731520Y192088D01*
X731520Y166688D02*
X716280Y166688D01*
X716280Y141288D02*
X731520Y141288D01*
X731520Y115888D02*
X716280Y115888D01*
X716280Y90488D02*
X731520Y90488D01*
D15*
G36*
X520664Y185356D02*
X522460Y187152D01*
X528206Y181406D01*
X526410Y179610D01*
X520664Y185356D01*
G37*
G36*
X517128Y181820D02*
X518924Y183616D01*
X524670Y177870D01*
X522874Y176074D01*
X517128Y181820D01*
G37*
G36*
X513591Y178283D02*
X515387Y180079D01*
X521133Y174333D01*
X519337Y172537D01*
X513591Y178283D01*
G37*
G36*
X510055Y174747D02*
X511851Y176543D01*
X517597Y170797D01*
X515801Y169001D01*
X510055Y174747D01*
G37*
G36*
X506519Y171211D02*
X508315Y173007D01*
X514061Y167261D01*
X512265Y165465D01*
X506519Y171211D01*
G37*
G36*
X502982Y167674D02*
X504778Y169470D01*
X510524Y163724D01*
X508728Y161928D01*
X502982Y167674D01*
G37*
G36*
X499445Y164138D02*
X501241Y165934D01*
X506987Y160188D01*
X505191Y158392D01*
X499445Y164138D01*
G37*
G36*
X495909Y160601D02*
X497705Y162397D01*
X503451Y156651D01*
X501655Y154855D01*
X495909Y160601D01*
G37*
G36*
X492373Y157065D02*
X494169Y158861D01*
X499915Y153115D01*
X498119Y151319D01*
X492373Y157065D01*
G37*
G36*
X488837Y153529D02*
X490633Y155325D01*
X496379Y149579D01*
X494583Y147783D01*
X488837Y153529D01*
G37*
G36*
X485300Y149992D02*
X487096Y151788D01*
X492842Y146042D01*
X491046Y144246D01*
X485300Y149992D01*
G37*
G36*
X481763Y146456D02*
X483559Y148252D01*
X489305Y142506D01*
X487509Y140710D01*
X481763Y146456D01*
G37*
G36*
X487509Y138300D02*
X489305Y136504D01*
X483559Y130758D01*
X481763Y132554D01*
X487509Y138300D01*
G37*
G36*
X491046Y134764D02*
X492842Y132968D01*
X487096Y127222D01*
X485300Y129018D01*
X491046Y134764D01*
G37*
G36*
X494583Y131227D02*
X496379Y129431D01*
X490633Y123685D01*
X488837Y125481D01*
X494583Y131227D01*
G37*
G36*
X498119Y127690D02*
X499915Y125894D01*
X494169Y120148D01*
X492373Y121944D01*
X498119Y127690D01*
G37*
G36*
X501655Y124154D02*
X503451Y122358D01*
X497705Y116612D01*
X495909Y118408D01*
X501655Y124154D01*
G37*
G36*
X505191Y120618D02*
X506987Y118822D01*
X501241Y113076D01*
X499445Y114872D01*
X505191Y120618D01*
G37*
G36*
X508728Y117081D02*
X510524Y115285D01*
X504778Y109539D01*
X502982Y111335D01*
X508728Y117081D01*
G37*
G36*
X512265Y113545D02*
X514061Y111749D01*
X508315Y106003D01*
X506519Y107799D01*
X512265Y113545D01*
G37*
G36*
X515801Y110008D02*
X517597Y108212D01*
X511851Y102466D01*
X510055Y104262D01*
X515801Y110008D01*
G37*
G36*
X519337Y106472D02*
X521133Y104676D01*
X515387Y98930D01*
X513591Y100726D01*
X519337Y106472D01*
G37*
G36*
X522874Y102935D02*
X524670Y101139D01*
X518924Y95393D01*
X517128Y97189D01*
X522874Y102935D01*
G37*
G36*
X526410Y99399D02*
X528206Y97603D01*
X522460Y91857D01*
X520664Y93653D01*
X526410Y99399D01*
G37*
G36*
X530616Y97603D02*
X532412Y99399D01*
X538158Y93653D01*
X536362Y91857D01*
X530616Y97603D01*
G37*
G36*
X534152Y101139D02*
X535948Y102935D01*
X541694Y97189D01*
X539898Y95393D01*
X534152Y101139D01*
G37*
G36*
X537689Y104676D02*
X539485Y106472D01*
X545231Y100726D01*
X543435Y98930D01*
X537689Y104676D01*
G37*
G36*
X541225Y108212D02*
X543021Y110008D01*
X548767Y104262D01*
X546971Y102466D01*
X541225Y108212D01*
G37*
G36*
X544762Y111749D02*
X546558Y113545D01*
X552304Y107799D01*
X550508Y106003D01*
X544762Y111749D01*
G37*
G36*
X548298Y115285D02*
X550094Y117081D01*
X555840Y111335D01*
X554044Y109539D01*
X548298Y115285D01*
G37*
G36*
X551835Y118822D02*
X553631Y120618D01*
X559377Y114872D01*
X557581Y113076D01*
X551835Y118822D01*
G37*
G36*
X555371Y122358D02*
X557167Y124154D01*
X562913Y118408D01*
X561117Y116612D01*
X555371Y122358D01*
G37*
G36*
X558907Y125894D02*
X560703Y127690D01*
X566449Y121944D01*
X564653Y120148D01*
X558907Y125894D01*
G37*
G36*
X562444Y129431D02*
X564240Y131227D01*
X569986Y125481D01*
X568190Y123685D01*
X562444Y129431D01*
G37*
G36*
X565981Y132968D02*
X567777Y134764D01*
X573523Y129018D01*
X571727Y127222D01*
X565981Y132968D01*
G37*
G36*
X569517Y136504D02*
X571313Y138300D01*
X577059Y132554D01*
X575263Y130758D01*
X569517Y136504D01*
G37*
G36*
X575263Y148252D02*
X577059Y146456D01*
X571313Y140710D01*
X569517Y142506D01*
X575263Y148252D01*
G37*
G36*
X571727Y151788D02*
X573523Y149992D01*
X567777Y144246D01*
X565981Y146042D01*
X571727Y151788D01*
G37*
G36*
X568190Y155325D02*
X569986Y153529D01*
X564240Y147783D01*
X562444Y149579D01*
X568190Y155325D01*
G37*
G36*
X564653Y158861D02*
X566449Y157065D01*
X560703Y151319D01*
X558907Y153115D01*
X564653Y158861D01*
G37*
G36*
X561117Y162397D02*
X562913Y160601D01*
X557167Y154855D01*
X555371Y156651D01*
X561117Y162397D01*
G37*
G36*
X557581Y165934D02*
X559377Y164138D01*
X553631Y158392D01*
X551835Y160188D01*
X557581Y165934D01*
G37*
G36*
X554044Y169470D02*
X555840Y167674D01*
X550094Y161928D01*
X548298Y163724D01*
X554044Y169470D01*
G37*
G36*
X550508Y173007D02*
X552304Y171211D01*
X546558Y165465D01*
X544762Y167261D01*
X550508Y173007D01*
G37*
G36*
X546971Y176543D02*
X548767Y174747D01*
X543021Y169001D01*
X541225Y170797D01*
X546971Y176543D01*
G37*
G36*
X543435Y180079D02*
X545231Y178283D01*
X539485Y172537D01*
X537689Y174333D01*
X543435Y180079D01*
G37*
G36*
X539898Y183616D02*
X541694Y181820D01*
X535948Y176074D01*
X534152Y177870D01*
X539898Y183616D01*
G37*
G36*
X536362Y187152D02*
X538158Y185356D01*
X532412Y179610D01*
X530616Y181406D01*
X536362Y187152D01*
G37*
D16*
G36*
X529411Y100531D02*
X490437Y139505D01*
X529411Y178479D01*
X568385Y139505D01*
X529411Y100531D01*
G37*
D17*
X299650Y159050D03*
X299650Y152550D03*
X299650Y146050D03*
X299650Y139550D03*
X299650Y133050D03*
D18*
X298800Y121175D03*
X298800Y170925D03*
D19*
X273050Y157550D03*
D20*
X273050Y130550D03*
D21*
X273050Y179800D03*
X273050Y112300D03*
D22*
G36*
X491445Y178335D02*
X481547Y188233D01*
X484375Y191061D01*
X494273Y181163D01*
X491445Y178335D01*
G37*
G36*
X482960Y169850D02*
X473062Y179748D01*
X475890Y182576D01*
X485788Y172678D01*
X482960Y169850D01*
G37*
G36*
X474475Y161364D02*
X464577Y171262D01*
X467405Y174090D01*
X477303Y164192D01*
X474475Y161364D01*
G37*
D23*
X334663Y174600D03*
X334663Y165100D03*
X334663Y155600D03*
X360663Y155600D03*
X360663Y174600D03*
D24*
X351400Y133350D03*
X334400Y133350D03*
D25*
X352425Y93688D03*
X352425Y112688D03*
D11*
X391732Y91313D03*
X436944Y91313D03*
X391732Y156337D03*
X436944Y156337D03*
D24*
X331788Y94688D03*
X331788Y111688D03*
D26*
X755650Y65088D02*
X755650Y192088D01*
D27*
X625475Y119063D03*
D28*
X625475Y111125D01*
X611900Y97550D01*
X612232Y97219D01*
D26*
X723900Y192088D02*
X746125Y192088D01*
X755650Y192088D01*
D28*
X612232Y97219D02*
X567913Y97219D01*
X559397Y105735D01*
X559397Y113056D01*
X555606Y116847D01*
D29*
X323850Y217488D02*
X323850Y221218D01*
X341455Y238824D01*
X733425Y238824D01*
D30*
X742950Y195263D02*
X746125Y192088D01*
X742950Y195263D02*
X742950Y230188D01*
X734314Y238824D01*
X733425Y238824D01*
D27*
X371791Y167389D03*
D31*
X360663Y178518D01*
X360663Y174600D02*
X360663Y173756D01*
D26*
X360663Y180675D02*
X323850Y217488D01*
X360663Y180675D02*
X360663Y178518D01*
X360663Y173756D01*
D30*
X371489Y167087D02*
X371791Y167389D01*
X361924Y101362D02*
X360099Y101362D01*
X352425Y93688D01*
X371489Y110926D02*
X371489Y167087D01*
X371489Y110926D02*
X361924Y101362D01*
D32*
X300038Y170925D02*
X298800Y170925D01*
D27*
X530225Y155575D03*
X530225Y125413D03*
D28*
X538536Y117101D01*
X548030Y117101D01*
X551821Y113310D02*
X552069Y113310D01*
X551821Y113310D02*
X548030Y117101D01*
D27*
X654050Y139700D03*
X441325Y176213D03*
X674688Y165100D03*
D32*
X674688Y154425D01*
X674250Y153988D01*
D28*
X492055Y204068D02*
X485775Y204068D01*
D27*
X485775Y204068D03*
D28*
X509986Y176611D02*
X513826Y172772D01*
X509986Y176611D02*
X508399Y178199D01*
X502656Y183942D01*
X502656Y184634D01*
X492055Y195236D02*
X492055Y204068D01*
X492055Y195236D02*
X502656Y184634D01*
X506753Y176553D02*
X506753Y165699D01*
X506753Y176553D02*
X508399Y178199D01*
X509986Y169539D02*
X510290Y169236D01*
X509986Y169539D02*
X509986Y176611D01*
X497830Y182635D02*
X485848Y194618D01*
X497830Y167549D02*
X503216Y162163D01*
X497830Y167549D02*
X497830Y182635D01*
X465148Y204731D02*
X463607Y204731D01*
X450850Y217488D01*
X475261Y194618D02*
X485848Y194618D01*
X475261Y194618D02*
X465148Y204731D01*
X470940Y167727D02*
X474475Y164192D01*
X470940Y167727D02*
X470940Y167727D01*
X474475Y164192D02*
X487042Y164192D01*
X496144Y155090D01*
X496144Y155090D01*
X489911Y182697D02*
X487910Y184698D01*
X489911Y182697D02*
X489911Y168395D01*
X499680Y158626D01*
X499680Y158626D01*
D32*
X400050Y196850D02*
X400050Y217488D01*
X400050Y196850D02*
X411163Y185738D01*
D28*
X492359Y151554D02*
X492608Y151554D01*
X492359Y151554D02*
X487278Y156634D01*
D30*
X436944Y156337D02*
X436944Y159957D01*
X411163Y185738D01*
D28*
X437241Y156634D02*
X436944Y156337D01*
X437241Y156634D02*
X487278Y156634D01*
D32*
X723900Y117475D02*
X723900Y115888D01*
D30*
X723900Y117475D02*
X723900Y141288D01*
X667012Y127824D02*
X659838Y120650D01*
X667012Y127824D02*
X667012Y128149D01*
X680150Y141288D01*
X723900Y141288D01*
D28*
X645959Y134529D02*
X573288Y134529D01*
X645959Y134529D02*
X659838Y120650D01*
D32*
X723900Y166688D02*
X734695Y166688D01*
X743776Y157607D01*
X743776Y61939D01*
X733081Y51244D01*
X700431Y51244D01*
X692150Y59526D01*
X692150Y69062D01*
X634141Y127071D01*
D28*
X573543Y127201D02*
X569752Y130993D01*
X573543Y127201D02*
X594846Y127201D01*
X594970Y127325D01*
X633887Y127325D01*
X634141Y127071D01*
D31*
X314678Y146050D02*
X299650Y146050D01*
X314678Y146050D02*
X315913Y144816D01*
X315913Y144375D01*
D27*
X315913Y144375D03*
D31*
X314678Y152550D02*
X299650Y152550D01*
X314678Y152550D02*
X315913Y153785D01*
X315913Y154225D01*
D27*
X315913Y154225D03*
D31*
X324345Y154857D02*
X324345Y171450D01*
X324345Y172814D01*
X334663Y155600D02*
X333920Y154857D01*
X324345Y154857D01*
X333818Y173756D02*
X334663Y174600D01*
X333818Y173756D02*
X325286Y173756D01*
X309282Y159050D02*
X299650Y159050D01*
X309282Y159050D02*
X317320Y167088D01*
X319982Y167088D02*
X324345Y171450D01*
X324345Y172814D02*
X325286Y173756D01*
X319982Y167088D02*
X317320Y167088D01*
D30*
X273050Y217488D02*
X292100Y236538D01*
X307975Y236538D01*
X311404Y233109D01*
X311404Y212332D01*
X334663Y189074D02*
X334663Y174600D01*
X334663Y189074D02*
X311404Y212332D01*
D27*
X579438Y104775D03*
D28*
X574679Y111919D02*
X562678Y123919D01*
X601663Y104775D02*
X601774Y104777D01*
X601884Y104783D01*
X601995Y104792D01*
X602105Y104806D01*
X602214Y104823D01*
X602323Y104844D01*
X602431Y104869D01*
X602538Y104898D01*
X602644Y104930D01*
X602749Y104966D01*
X602852Y105006D01*
X602954Y105049D01*
X603055Y105096D01*
X603154Y105147D01*
X603251Y105200D01*
X603345Y105257D01*
X603438Y105318D01*
X603529Y105381D01*
X603618Y105448D01*
X603704Y105518D01*
X603787Y105591D01*
X603869Y105666D01*
X603947Y105744D01*
X604022Y105826D01*
X604095Y105909D01*
X604165Y105995D01*
X604232Y106084D01*
X604295Y106175D01*
X604356Y106268D01*
X604413Y106362D01*
X604466Y106459D01*
X604517Y106558D01*
X604564Y106659D01*
X604607Y106761D01*
X604647Y106864D01*
X604683Y106969D01*
X604715Y107075D01*
X604744Y107182D01*
X604769Y107290D01*
X604790Y107399D01*
X604807Y107508D01*
X604821Y107618D01*
X604830Y107729D01*
X604836Y107839D01*
X604838Y107950D01*
X604836Y108075D01*
X604830Y108199D01*
X604820Y108324D01*
X604807Y108447D01*
X604789Y108571D01*
X604768Y108694D01*
X604742Y108816D01*
X604713Y108937D01*
X604680Y109057D01*
X604644Y109176D01*
X604603Y109294D01*
X604559Y109411D01*
X604512Y109526D01*
X604460Y109640D01*
X604405Y109752D01*
X604347Y109862D01*
X604285Y109970D01*
X604220Y110077D01*
X604152Y110181D01*
X604080Y110283D01*
X604005Y110383D01*
X603927Y110480D01*
X603846Y110575D01*
X603762Y110667D01*
X603676Y110757D01*
X603586Y110843D01*
X603494Y110927D01*
X603399Y111008D01*
X603302Y111086D01*
X603202Y111161D01*
X603100Y111233D01*
X602996Y111301D01*
X602889Y111366D01*
X602781Y111428D01*
X602671Y111486D01*
X602559Y111541D01*
X602445Y111593D01*
X602330Y111640D01*
X602213Y111684D01*
X602095Y111725D01*
X601976Y111761D01*
X601856Y111794D01*
X601735Y111823D01*
X601613Y111849D01*
X601490Y111870D01*
X601366Y111888D01*
X601243Y111901D01*
X601118Y111911D01*
X600994Y111917D01*
X600869Y111919D01*
X601663Y104775D02*
X579438Y104775D01*
X574679Y111919D02*
X600869Y111919D01*
X600075Y119987D02*
X598488Y121575D01*
X572096Y121575D01*
X566215Y127456D01*
D27*
X600075Y119987D03*
D32*
X430236Y143640D02*
X374650Y199226D01*
X374650Y217488D01*
D28*
X473917Y143640D02*
X482086Y151808D01*
X473917Y143640D02*
X430236Y143640D01*
X482086Y151808D02*
X485032Y151808D01*
X488823Y148017D02*
X489071Y148017D01*
X488823Y148017D02*
X485032Y151808D01*
X485534Y144481D02*
X479573Y138519D01*
X384072Y138519D01*
D32*
X379129Y143461D01*
D28*
X379129Y182846D01*
D32*
X349250Y212725D01*
X349250Y217488D01*
D28*
X483559Y132553D02*
X485534Y134529D01*
X485534Y134529D01*
X483559Y132553D02*
X405790Y132553D01*
X363575Y90338D01*
X363575Y84939D01*
X361397Y82762D01*
X290724Y82762D01*
D32*
X273050Y65088D01*
D28*
X484961Y126883D02*
X489071Y130993D01*
X489071Y130993D01*
X484961Y126883D02*
X408173Y126883D01*
X376361Y95071D01*
X376361Y89672D01*
X364440Y77751D01*
X311113Y77751D01*
X298450Y65088D01*
D32*
X403225Y80963D02*
X403225Y112713D01*
X403225Y80963D02*
X399606Y77343D01*
D28*
X371031Y77343D01*
D32*
X361506Y57494D02*
X353669Y49657D01*
X333719Y49657D01*
D28*
X361506Y67818D02*
X371031Y77343D01*
D32*
X361506Y67818D02*
X361506Y57494D01*
X333719Y49657D02*
X323850Y59526D01*
X323850Y65088D01*
D28*
X411163Y120650D02*
X485802Y120650D01*
D32*
X411163Y120650D02*
X403225Y112713D01*
D28*
X485802Y120650D02*
X492608Y127456D01*
X492608Y127456D01*
X496144Y123919D02*
X486525Y114300D01*
D32*
X412750Y114300D02*
X412750Y57150D01*
D28*
X412750Y114300D02*
X486525Y114300D01*
D32*
X412750Y57150D02*
X400050Y44450D01*
X388938Y44450D01*
D27*
X388938Y44450D03*
D28*
X499680Y120383D02*
X499680Y120383D01*
D27*
X414338Y44450D03*
D32*
X422275Y44450D02*
X438150Y60325D01*
X422275Y44450D02*
X414338Y44450D01*
D28*
X468784Y108014D02*
X487311Y108014D01*
X439674Y69717D02*
X439674Y61849D01*
X438150Y60325D01*
X463445Y102675D02*
X468784Y108014D01*
X463445Y102675D02*
X463445Y93488D01*
X439674Y69717D01*
X487311Y108014D02*
X499680Y120383D01*
D27*
X470783Y88017D03*
D28*
X489557Y103188D02*
X503216Y116847D01*
X489557Y103188D02*
X470783Y103188D01*
X470783Y88017D01*
D27*
X481535Y89091D03*
D28*
X490281Y96838D02*
X506753Y113310D01*
X490281Y96838D02*
X481535Y96838D01*
X481535Y89091D01*
X489587Y89071D02*
X510290Y109774D01*
X510290Y109774D01*
X489587Y89071D02*
X489587Y86765D01*
X481241Y78419D01*
X464181Y78419D01*
X450850Y65088D01*
X494776Y87187D02*
X513826Y106237D01*
X494776Y87187D02*
X494776Y77662D01*
X482201Y65088D01*
X476250Y65088D01*
X501650Y86989D02*
X517362Y102701D01*
X517362Y102701D01*
X501650Y86989D02*
X501650Y65088D01*
X516028Y94293D02*
X520899Y99164D01*
X520899Y99164D01*
X516028Y94293D02*
X516028Y76110D01*
D32*
X527050Y65088D01*
D28*
X521260Y92453D02*
X524435Y95628D01*
X521260Y92453D02*
X521260Y86752D01*
D32*
X527050Y80963D01*
D27*
X527050Y80963D03*
D28*
X539750Y90265D02*
X534387Y95628D01*
X539750Y90265D02*
X539750Y56351D01*
D32*
X544856Y51244D01*
X564007Y51244D01*
X577850Y65088D01*
X591260Y77078D02*
X603250Y65088D01*
D28*
X591260Y77078D02*
X560010Y77078D01*
X537923Y99164D01*
X537923Y99164D01*
X611473Y82265D02*
X628650Y65088D01*
X611473Y82265D02*
X561897Y82265D01*
X541460Y102701D01*
X631990Y87148D02*
X654050Y65088D01*
X631990Y87148D02*
X564086Y87148D01*
X544997Y106237D01*
X544996Y106237D01*
D32*
X652354Y92183D02*
X679450Y65088D01*
D28*
X652354Y92183D02*
X566846Y92183D01*
X566738Y92075D01*
X566231Y92075D01*
X548533Y109774D01*
X573288Y144481D02*
X629906Y144481D01*
D27*
X657239Y168261D03*
D28*
X653687Y168261D02*
X629906Y144481D01*
X653687Y168261D02*
X657239Y168261D01*
D32*
X721715Y217488D02*
X730250Y217488D01*
X721715Y217488D02*
X701791Y197564D01*
X675805Y197564D01*
X637224Y158982D01*
D28*
X580717Y158982D01*
X569752Y148017D01*
X569752Y148017D01*
D32*
X693027Y205665D02*
X704850Y217488D01*
X693027Y205665D02*
X673602Y205665D01*
X632906Y164969D01*
D28*
X579630Y164969D01*
X566215Y151554D01*
X566215Y151554D01*
D32*
X672722Y217488D02*
X679450Y217488D01*
X672722Y217488D02*
X625382Y170148D01*
D28*
X577736Y170148D01*
X562678Y155090D01*
X562678Y155090D01*
D32*
X612845Y176282D02*
X654050Y217488D01*
D28*
X612845Y176282D02*
X576798Y176282D01*
X559142Y158626D01*
X559142Y158626D01*
D32*
X595405Y184242D02*
X628650Y217488D01*
D28*
X595405Y184242D02*
X577686Y184242D01*
X555606Y162163D01*
X555606Y162163D01*
D32*
X603250Y216881D02*
X603250Y217488D01*
D28*
X603250Y216881D02*
X552069Y165699D01*
X552069Y165699D01*
X577850Y198553D02*
X577850Y217488D01*
X577850Y198553D02*
X548533Y169236D01*
X548533Y169236D01*
X557213Y212725D02*
X552450Y217488D01*
X557213Y212725D02*
X557213Y184988D01*
X544997Y172772D01*
X544996Y172772D01*
X550541Y200346D02*
X533400Y217488D01*
X527050Y217488D01*
X550541Y200346D02*
X550541Y185389D01*
X541460Y176308D01*
X541460Y176308D01*
X537923Y179845D02*
X542794Y184716D01*
X537923Y179845D02*
X537923Y179845D01*
X542794Y184716D02*
X542794Y194056D01*
X531618Y205232D01*
X513906Y205232D01*
X501650Y217488D01*
X534387Y183381D02*
X536363Y185357D01*
X534387Y183381D02*
X534387Y183381D01*
X536363Y185357D02*
X536363Y187153D01*
X527323Y196193D01*
X514916Y196193D01*
X505588Y205520D01*
X497742Y205520D01*
X485775Y217488D01*
X476250Y217488D01*
D30*
X360663Y155600D02*
X360663Y142613D01*
X351400Y133350D01*
D26*
X332788Y112688D02*
X331788Y111688D01*
X332788Y112688D02*
X352425Y112688D01*
M02*
