G04 EAGLE Gerber RS-274X export*
G75*
%MOMM*%
%FSLAX34Y34*%
%LPD*%
%INTop Copper*%
%IPPOS*%
%AMOC8*
5,1,8,0,0,1.08239X$1,22.5*%
G01*
%ADD10R,1.399997X0.400000*%
%ADD11R,0.300000X0.550000*%
%ADD12R,5.600000X5.600000*%
%ADD13R,0.800000X0.800000*%
%ADD14C,1.524000*%
%ADD15R,1.200000X0.550000*%
%ADD16C,1.524000*%
%ADD17R,1.350000X0.400000*%
%ADD18R,1.900000X1.800000*%
%ADD19R,1.900000X1.900000*%
%ADD20C,0.406400*%
%ADD21C,0.756400*%
%ADD22C,0.304800*%
%ADD23C,0.203200*%
%ADD24C,0.508000*%
%ADD25C,0.254000*%

G36*
X254182Y270D02*
X254182Y270D01*
X254300Y277D01*
X254339Y290D01*
X254379Y295D01*
X254490Y338D01*
X254603Y375D01*
X254637Y397D01*
X254675Y412D01*
X254771Y481D01*
X254872Y545D01*
X254899Y575D01*
X254932Y598D01*
X255008Y690D01*
X255090Y777D01*
X255109Y812D01*
X255135Y843D01*
X255186Y951D01*
X255243Y1055D01*
X255253Y1095D01*
X255270Y1131D01*
X255293Y1248D01*
X255323Y1363D01*
X255326Y1423D01*
X255330Y1443D01*
X255329Y1464D01*
X255333Y1524D01*
X255333Y225489D01*
X255318Y225607D01*
X255310Y225725D01*
X255298Y225764D01*
X255293Y225804D01*
X255249Y225915D01*
X255212Y226028D01*
X255191Y226062D01*
X255176Y226100D01*
X255106Y226196D01*
X255042Y226297D01*
X255013Y226324D01*
X254989Y226357D01*
X254897Y226433D01*
X254811Y226515D01*
X254775Y226534D01*
X254744Y226560D01*
X254636Y226611D01*
X254532Y226668D01*
X254493Y226678D01*
X254456Y226695D01*
X254340Y226718D01*
X254224Y226748D01*
X254164Y226751D01*
X254144Y226755D01*
X254124Y226754D01*
X254064Y226758D01*
X-254064Y226758D01*
X-254182Y226743D01*
X-254300Y226735D01*
X-254339Y226723D01*
X-254379Y226718D01*
X-254490Y226674D01*
X-254603Y226637D01*
X-254637Y226616D01*
X-254675Y226601D01*
X-254771Y226531D01*
X-254872Y226467D01*
X-254899Y226438D01*
X-254932Y226414D01*
X-255008Y226322D01*
X-255090Y226236D01*
X-255109Y226200D01*
X-255135Y226169D01*
X-255186Y226061D01*
X-255243Y225957D01*
X-255253Y225918D01*
X-255270Y225881D01*
X-255293Y225765D01*
X-255323Y225649D01*
X-255326Y225589D01*
X-255330Y225569D01*
X-255329Y225549D01*
X-255333Y225489D01*
X-255333Y1524D01*
X-255318Y1406D01*
X-255310Y1287D01*
X-255298Y1249D01*
X-255293Y1208D01*
X-255249Y1098D01*
X-255212Y985D01*
X-255191Y950D01*
X-255176Y913D01*
X-255106Y817D01*
X-255042Y716D01*
X-255013Y688D01*
X-254989Y655D01*
X-254897Y579D01*
X-254811Y498D01*
X-254775Y478D01*
X-254744Y453D01*
X-254636Y402D01*
X-254532Y344D01*
X-254493Y334D01*
X-254456Y317D01*
X-254340Y295D01*
X-254224Y265D01*
X-254164Y261D01*
X-254144Y257D01*
X-254124Y259D01*
X-254064Y255D01*
X254064Y255D01*
X254182Y270D01*
G37*
%LPC*%
G36*
X-243195Y26987D02*
X-243195Y26987D01*
X-246696Y28437D01*
X-249376Y31117D01*
X-250826Y34618D01*
X-250826Y38407D01*
X-249376Y41908D01*
X-246696Y44588D01*
X-243195Y46038D01*
X-239405Y46038D01*
X-238223Y45548D01*
X-238194Y45541D01*
X-238168Y45527D01*
X-238041Y45499D01*
X-237916Y45464D01*
X-237886Y45464D01*
X-237858Y45457D01*
X-237728Y45461D01*
X-237598Y45459D01*
X-237569Y45466D01*
X-237540Y45467D01*
X-237415Y45503D01*
X-237289Y45534D01*
X-237262Y45547D01*
X-237234Y45556D01*
X-237123Y45621D01*
X-237007Y45682D01*
X-236986Y45702D01*
X-236960Y45717D01*
X-236839Y45823D01*
X-229099Y53563D01*
X-226719Y55944D01*
X-180679Y55944D01*
X-180581Y55957D01*
X-180482Y55960D01*
X-180424Y55976D01*
X-180364Y55984D01*
X-180272Y56021D01*
X-180177Y56048D01*
X-180124Y56079D01*
X-180068Y56101D01*
X-179988Y56159D01*
X-179903Y56210D01*
X-179827Y56276D01*
X-179811Y56288D01*
X-179803Y56297D01*
X-179782Y56316D01*
X-160342Y75756D01*
X-143932Y75756D01*
X-143834Y75769D01*
X-143735Y75772D01*
X-143677Y75788D01*
X-143617Y75796D01*
X-143525Y75833D01*
X-143430Y75860D01*
X-143377Y75891D01*
X-143321Y75913D01*
X-143241Y75971D01*
X-143156Y76022D01*
X-143080Y76088D01*
X-143064Y76100D01*
X-143056Y76109D01*
X-143035Y76128D01*
X-142708Y76455D01*
X-99287Y76455D01*
X-99188Y76467D01*
X-99089Y76470D01*
X-99031Y76487D01*
X-98971Y76495D01*
X-98879Y76531D01*
X-98784Y76559D01*
X-98732Y76589D01*
X-98675Y76612D01*
X-98595Y76670D01*
X-98510Y76720D01*
X-98434Y76786D01*
X-98418Y76798D01*
X-98410Y76808D01*
X-98389Y76826D01*
X-53920Y121296D01*
X-53835Y121405D01*
X-53746Y121512D01*
X-53738Y121531D01*
X-53725Y121547D01*
X-53670Y121675D01*
X-53611Y121800D01*
X-53607Y121820D01*
X-53599Y121839D01*
X-53577Y121977D01*
X-53551Y122113D01*
X-53552Y122133D01*
X-53549Y122153D01*
X-53562Y122292D01*
X-53571Y122430D01*
X-53577Y122449D01*
X-53579Y122469D01*
X-53626Y122601D01*
X-53669Y122732D01*
X-53679Y122750D01*
X-53686Y122769D01*
X-53764Y122884D01*
X-53839Y123001D01*
X-53854Y123015D01*
X-53865Y123032D01*
X-53969Y123124D01*
X-54070Y123219D01*
X-54088Y123229D01*
X-54103Y123242D01*
X-54227Y123305D01*
X-54349Y123373D01*
X-54368Y123378D01*
X-54387Y123387D01*
X-54522Y123417D01*
X-54657Y123452D01*
X-54685Y123454D01*
X-54697Y123457D01*
X-54717Y123456D01*
X-54818Y123462D01*
X-55106Y123462D01*
X-57197Y124328D01*
X-58797Y125928D01*
X-59663Y128019D01*
X-59663Y130281D01*
X-58797Y132372D01*
X-57197Y133972D01*
X-55106Y134838D01*
X-52844Y134838D01*
X-50753Y133972D01*
X-50720Y133938D01*
X-50642Y133878D01*
X-50569Y133810D01*
X-50516Y133781D01*
X-50469Y133744D01*
X-50378Y133704D01*
X-50291Y133656D01*
X-50232Y133641D01*
X-50177Y133617D01*
X-50079Y133602D01*
X-49983Y133577D01*
X-49883Y133571D01*
X-49863Y133567D01*
X-49850Y133569D01*
X-49822Y133567D01*
X-44536Y133567D01*
X-44398Y133584D01*
X-44260Y133597D01*
X-44240Y133604D01*
X-44220Y133607D01*
X-44091Y133658D01*
X-43960Y133705D01*
X-43943Y133716D01*
X-43925Y133724D01*
X-43812Y133805D01*
X-43697Y133883D01*
X-43684Y133899D01*
X-43667Y133910D01*
X-43579Y134018D01*
X-43487Y134122D01*
X-43477Y134140D01*
X-43465Y134155D01*
X-43405Y134281D01*
X-43342Y134405D01*
X-43338Y134425D01*
X-43329Y134443D01*
X-43303Y134579D01*
X-43272Y134715D01*
X-43273Y134736D01*
X-43269Y134755D01*
X-43278Y134894D01*
X-43282Y135033D01*
X-43288Y135053D01*
X-43289Y135073D01*
X-43332Y135205D01*
X-43370Y135339D01*
X-43381Y135356D01*
X-43387Y135375D01*
X-43462Y135493D01*
X-43532Y135613D01*
X-43551Y135634D01*
X-43557Y135644D01*
X-43572Y135658D01*
X-43638Y135733D01*
X-47658Y139753D01*
X-47736Y139813D01*
X-47808Y139881D01*
X-47861Y139911D01*
X-47909Y139948D01*
X-48000Y139987D01*
X-48087Y140035D01*
X-48145Y140050D01*
X-48201Y140074D01*
X-48299Y140090D01*
X-48395Y140114D01*
X-48495Y140121D01*
X-48515Y140124D01*
X-48527Y140123D01*
X-48555Y140124D01*
X-54718Y140124D01*
X-54816Y140112D01*
X-54915Y140109D01*
X-54973Y140092D01*
X-55033Y140085D01*
X-55125Y140048D01*
X-55220Y140021D01*
X-55273Y139990D01*
X-55329Y139968D01*
X-55409Y139909D01*
X-55494Y139859D01*
X-55570Y139793D01*
X-55586Y139781D01*
X-55594Y139771D01*
X-55615Y139753D01*
X-58135Y137233D01*
X-59714Y137233D01*
X-70730Y148248D01*
X-70730Y149827D01*
X-66785Y153772D01*
X-65206Y153772D01*
X-58790Y147356D01*
X-58712Y147295D01*
X-58640Y147227D01*
X-58587Y147198D01*
X-58539Y147161D01*
X-58448Y147121D01*
X-58361Y147074D01*
X-58303Y147059D01*
X-58247Y147034D01*
X-58149Y147019D01*
X-58053Y146994D01*
X-57953Y146988D01*
X-57933Y146985D01*
X-57921Y146986D01*
X-57893Y146984D01*
X-48241Y146984D01*
X-48122Y146999D01*
X-48004Y147006D01*
X-47965Y147019D01*
X-47925Y147024D01*
X-47814Y147068D01*
X-47701Y147104D01*
X-47667Y147126D01*
X-47629Y147141D01*
X-47533Y147211D01*
X-47433Y147274D01*
X-47405Y147304D01*
X-47372Y147328D01*
X-47296Y147419D01*
X-47215Y147506D01*
X-47195Y147541D01*
X-47169Y147573D01*
X-47119Y147680D01*
X-47061Y147785D01*
X-47051Y147824D01*
X-47034Y147860D01*
X-47011Y147977D01*
X-46982Y148093D01*
X-46978Y148153D01*
X-46974Y148173D01*
X-46975Y148193D01*
X-46971Y148253D01*
X-46971Y157905D01*
X-46984Y158003D01*
X-46987Y158102D01*
X-47004Y158161D01*
X-47011Y158221D01*
X-47048Y158313D01*
X-47075Y158408D01*
X-47106Y158460D01*
X-47128Y158516D01*
X-47187Y158597D01*
X-47237Y158682D01*
X-47303Y158757D01*
X-47315Y158774D01*
X-47325Y158782D01*
X-47343Y158803D01*
X-53759Y165219D01*
X-53759Y166798D01*
X-50895Y169662D01*
X-50822Y169756D01*
X-50743Y169845D01*
X-50725Y169881D01*
X-50700Y169913D01*
X-50653Y170023D01*
X-50599Y170129D01*
X-50590Y170168D01*
X-50574Y170205D01*
X-50555Y170323D01*
X-50529Y170439D01*
X-50530Y170479D01*
X-50524Y170519D01*
X-50535Y170638D01*
X-50539Y170757D01*
X-50550Y170796D01*
X-50554Y170836D01*
X-50594Y170948D01*
X-50627Y171062D01*
X-50647Y171097D01*
X-50661Y171135D01*
X-50728Y171234D01*
X-50789Y171336D01*
X-50828Y171381D01*
X-50840Y171398D01*
X-50855Y171412D01*
X-50895Y171457D01*
X-56675Y177237D01*
X-56753Y177298D01*
X-56825Y177366D01*
X-56878Y177395D01*
X-56926Y177432D01*
X-57017Y177471D01*
X-57104Y177519D01*
X-57162Y177534D01*
X-57218Y177558D01*
X-57316Y177574D01*
X-57412Y177599D01*
X-57512Y177605D01*
X-57532Y177608D01*
X-57544Y177607D01*
X-57572Y177609D01*
X-69497Y177609D01*
X-78824Y186935D01*
X-78863Y186966D01*
X-78897Y187003D01*
X-78988Y187063D01*
X-79075Y187130D01*
X-79121Y187150D01*
X-79162Y187177D01*
X-79266Y187213D01*
X-79367Y187257D01*
X-79416Y187264D01*
X-79463Y187281D01*
X-79573Y187289D01*
X-79681Y187307D01*
X-79731Y187302D01*
X-79780Y187306D01*
X-79888Y187287D01*
X-79998Y187277D01*
X-80045Y187260D01*
X-80093Y187251D01*
X-80193Y187206D01*
X-80297Y187169D01*
X-80338Y187141D01*
X-80383Y187121D01*
X-80469Y187052D01*
X-80560Y186991D01*
X-80593Y186953D01*
X-80632Y186922D01*
X-80698Y186835D01*
X-80771Y186752D01*
X-80778Y186738D01*
X-83504Y184012D01*
X-87005Y182562D01*
X-90795Y182562D01*
X-94296Y184012D01*
X-96976Y186692D01*
X-98426Y190193D01*
X-98426Y190273D01*
X-98443Y190410D01*
X-98456Y190549D01*
X-98463Y190568D01*
X-98466Y190588D01*
X-98517Y190717D01*
X-98564Y190848D01*
X-98575Y190865D01*
X-98583Y190884D01*
X-98664Y190997D01*
X-98742Y191112D01*
X-98758Y191125D01*
X-98769Y191141D01*
X-98877Y191230D01*
X-98981Y191322D01*
X-98999Y191331D01*
X-99014Y191344D01*
X-99140Y191403D01*
X-99264Y191467D01*
X-99284Y191471D01*
X-99302Y191480D01*
X-99438Y191506D01*
X-99574Y191536D01*
X-99595Y191536D01*
X-99614Y191540D01*
X-99753Y191531D01*
X-99892Y191527D01*
X-99912Y191521D01*
X-99932Y191520D01*
X-100064Y191477D01*
X-100198Y191438D01*
X-100215Y191428D01*
X-100234Y191422D01*
X-100352Y191347D01*
X-100472Y191277D01*
X-100493Y191258D01*
X-100503Y191252D01*
X-100517Y191237D01*
X-100592Y191170D01*
X-103613Y188150D01*
X-104772Y188150D01*
X-104802Y188146D01*
X-104831Y188148D01*
X-104959Y188126D01*
X-105088Y188110D01*
X-105115Y188099D01*
X-105145Y188094D01*
X-105263Y188041D01*
X-105384Y187993D01*
X-105407Y187976D01*
X-105434Y187963D01*
X-105536Y187882D01*
X-105641Y187806D01*
X-105660Y187783D01*
X-105683Y187765D01*
X-105761Y187661D01*
X-105844Y187561D01*
X-105856Y187534D01*
X-105874Y187511D01*
X-105945Y187366D01*
X-106224Y186692D01*
X-108904Y184012D01*
X-112405Y182562D01*
X-116195Y182562D01*
X-119696Y184012D01*
X-122376Y186692D01*
X-123826Y190193D01*
X-123826Y193982D01*
X-122376Y197483D01*
X-119696Y200163D01*
X-116195Y201613D01*
X-112405Y201613D01*
X-108904Y200163D01*
X-106718Y197977D01*
X-106624Y197904D01*
X-106535Y197825D01*
X-106499Y197807D01*
X-106467Y197782D01*
X-106358Y197735D01*
X-106252Y197681D01*
X-106212Y197672D01*
X-106175Y197656D01*
X-106057Y197637D01*
X-105941Y197611D01*
X-105901Y197612D01*
X-105861Y197606D01*
X-105742Y197617D01*
X-105624Y197621D01*
X-105585Y197632D01*
X-105544Y197636D01*
X-105432Y197676D01*
X-105318Y197709D01*
X-105283Y197730D01*
X-105245Y197743D01*
X-105147Y197810D01*
X-105044Y197871D01*
X-104999Y197911D01*
X-104982Y197922D01*
X-104969Y197937D01*
X-104923Y197977D01*
X-96280Y206621D01*
X-96195Y206730D01*
X-96106Y206837D01*
X-96097Y206856D01*
X-96085Y206872D01*
X-96030Y207000D01*
X-95970Y207125D01*
X-95967Y207145D01*
X-95959Y207164D01*
X-95937Y207302D01*
X-95911Y207438D01*
X-95912Y207458D01*
X-95909Y207478D01*
X-95922Y207617D01*
X-95930Y207755D01*
X-95937Y207774D01*
X-95939Y207794D01*
X-95986Y207926D01*
X-96028Y208057D01*
X-96039Y208075D01*
X-96046Y208094D01*
X-96124Y208209D01*
X-96199Y208326D01*
X-96213Y208340D01*
X-96225Y208357D01*
X-96329Y208449D01*
X-96430Y208544D01*
X-96448Y208554D01*
X-96463Y208567D01*
X-96587Y208630D01*
X-96709Y208698D01*
X-96728Y208703D01*
X-96746Y208712D01*
X-96882Y208742D01*
X-97017Y208777D01*
X-97045Y208779D01*
X-97057Y208782D01*
X-97077Y208781D01*
X-97177Y208787D01*
X-116906Y208787D01*
X-117004Y208775D01*
X-117103Y208772D01*
X-117161Y208755D01*
X-117221Y208747D01*
X-117313Y208711D01*
X-117408Y208683D01*
X-117461Y208653D01*
X-117517Y208630D01*
X-117597Y208572D01*
X-117682Y208522D01*
X-117758Y208456D01*
X-117774Y208444D01*
X-117782Y208434D01*
X-117803Y208416D01*
X-130179Y196040D01*
X-130197Y196017D01*
X-130219Y195998D01*
X-130294Y195892D01*
X-130374Y195789D01*
X-130385Y195762D01*
X-130402Y195738D01*
X-130448Y195616D01*
X-130500Y195497D01*
X-130504Y195468D01*
X-130515Y195440D01*
X-130529Y195311D01*
X-130550Y195183D01*
X-130547Y195153D01*
X-130550Y195124D01*
X-130532Y194996D01*
X-130520Y194866D01*
X-130510Y194838D01*
X-130506Y194809D01*
X-130454Y194657D01*
X-130174Y193982D01*
X-130174Y190193D01*
X-131624Y186692D01*
X-134304Y184012D01*
X-137805Y182562D01*
X-141595Y182562D01*
X-145096Y184012D01*
X-147776Y186692D01*
X-149226Y190193D01*
X-149226Y193982D01*
X-147776Y197483D01*
X-145096Y200163D01*
X-141595Y201613D01*
X-137805Y201613D01*
X-137131Y201334D01*
X-137102Y201326D01*
X-137076Y201313D01*
X-136949Y201284D01*
X-136824Y201250D01*
X-136794Y201249D01*
X-136766Y201243D01*
X-136636Y201247D01*
X-136506Y201245D01*
X-136477Y201252D01*
X-136448Y201253D01*
X-136323Y201289D01*
X-136197Y201319D01*
X-136170Y201333D01*
X-136142Y201341D01*
X-136031Y201407D01*
X-135915Y201468D01*
X-135894Y201488D01*
X-135868Y201503D01*
X-135747Y201609D01*
X-120694Y216663D01*
X-55432Y216663D01*
X-55334Y216675D01*
X-55234Y216678D01*
X-55176Y216695D01*
X-55116Y216703D01*
X-55024Y216739D01*
X-54929Y216767D01*
X-54877Y216797D01*
X-54820Y216820D01*
X-54740Y216878D01*
X-54655Y216928D01*
X-54580Y216994D01*
X-54563Y217006D01*
X-54555Y217016D01*
X-54534Y217034D01*
X-54022Y217547D01*
X-51931Y218413D01*
X-49669Y218413D01*
X-47578Y217547D01*
X-45978Y215947D01*
X-45112Y213856D01*
X-45112Y211594D01*
X-46047Y209337D01*
X-46060Y209289D01*
X-46081Y209244D01*
X-46102Y209137D01*
X-46131Y209030D01*
X-46132Y208981D01*
X-46141Y208932D01*
X-46134Y208822D01*
X-46136Y208712D01*
X-46124Y208664D01*
X-46121Y208615D01*
X-46087Y208510D01*
X-46062Y208403D01*
X-46038Y208359D01*
X-46023Y208312D01*
X-45964Y208219D01*
X-45913Y208122D01*
X-45880Y208085D01*
X-45853Y208043D01*
X-45773Y207968D01*
X-45699Y207887D01*
X-45658Y207859D01*
X-45621Y207825D01*
X-45525Y207772D01*
X-45433Y207712D01*
X-45386Y207696D01*
X-45343Y207672D01*
X-45237Y207644D01*
X-45133Y207609D01*
X-45083Y207605D01*
X-45035Y207592D01*
X-44874Y207582D01*
X-33462Y207582D01*
X-33364Y207595D01*
X-33265Y207598D01*
X-33207Y207614D01*
X-33147Y207622D01*
X-33055Y207659D01*
X-32960Y207686D01*
X-32907Y207717D01*
X-32851Y207739D01*
X-32771Y207797D01*
X-32686Y207848D01*
X-32610Y207914D01*
X-32594Y207926D01*
X-32586Y207935D01*
X-32565Y207954D01*
X-31459Y209059D01*
X-31399Y209138D01*
X-31331Y209210D01*
X-31302Y209263D01*
X-31265Y209311D01*
X-31225Y209402D01*
X-31177Y209488D01*
X-31162Y209547D01*
X-31138Y209602D01*
X-31123Y209700D01*
X-31098Y209796D01*
X-31092Y209896D01*
X-31088Y209917D01*
X-31090Y209929D01*
X-31088Y209957D01*
X-31088Y210681D01*
X-30222Y212772D01*
X-28622Y214372D01*
X-26531Y215238D01*
X-24269Y215238D01*
X-22178Y214372D01*
X-20578Y212772D01*
X-19712Y210681D01*
X-19712Y208419D01*
X-20578Y206328D01*
X-22178Y204728D01*
X-24269Y203862D01*
X-24993Y203862D01*
X-25091Y203850D01*
X-25190Y203847D01*
X-25249Y203830D01*
X-25309Y203822D01*
X-25401Y203786D01*
X-25496Y203758D01*
X-25548Y203728D01*
X-25604Y203705D01*
X-25684Y203647D01*
X-25770Y203597D01*
X-25845Y203531D01*
X-25862Y203519D01*
X-25870Y203509D01*
X-25891Y203491D01*
X-29925Y199456D01*
X-30022Y199390D01*
X-30036Y199375D01*
X-30052Y199363D01*
X-30141Y199256D01*
X-30233Y199152D01*
X-30242Y199134D01*
X-30255Y199118D01*
X-30314Y198992D01*
X-30378Y198868D01*
X-30382Y198849D01*
X-30391Y198830D01*
X-30417Y198694D01*
X-30447Y198558D01*
X-30447Y198538D01*
X-30450Y198518D01*
X-30442Y198379D01*
X-30437Y198240D01*
X-30432Y198221D01*
X-30431Y198201D01*
X-30388Y198068D01*
X-30349Y197935D01*
X-30339Y197917D01*
X-30333Y197898D01*
X-30258Y197780D01*
X-30187Y197661D01*
X-30169Y197640D01*
X-30162Y197629D01*
X-30147Y197615D01*
X-30081Y197540D01*
X-30024Y197483D01*
X-28574Y193982D01*
X-28574Y190193D01*
X-30024Y186692D01*
X-32704Y184012D01*
X-34148Y183414D01*
X-34208Y183379D01*
X-34273Y183354D01*
X-34346Y183301D01*
X-34424Y183257D01*
X-34474Y183208D01*
X-34530Y183167D01*
X-34588Y183098D01*
X-34652Y183035D01*
X-34689Y182976D01*
X-34733Y182922D01*
X-34772Y182841D01*
X-34819Y182764D01*
X-34839Y182697D01*
X-34869Y182634D01*
X-34886Y182546D01*
X-34912Y182460D01*
X-34915Y182390D01*
X-34929Y182322D01*
X-34923Y182232D01*
X-34927Y182143D01*
X-34913Y182074D01*
X-34909Y182005D01*
X-34881Y181919D01*
X-34863Y181831D01*
X-34832Y181768D01*
X-34811Y181702D01*
X-34763Y181626D01*
X-34723Y181545D01*
X-34678Y181492D01*
X-34641Y181433D01*
X-34575Y181372D01*
X-34517Y181303D01*
X-34460Y181263D01*
X-34409Y181215D01*
X-34330Y181172D01*
X-34257Y181120D01*
X-34192Y181095D01*
X-34131Y181062D01*
X-34044Y181039D01*
X-33960Y181008D01*
X-33890Y181000D01*
X-33823Y180982D01*
X-33662Y180972D01*
X-17138Y180972D01*
X-17069Y180981D01*
X-16999Y180980D01*
X-16912Y181001D01*
X-16823Y181012D01*
X-16758Y181038D01*
X-16690Y181054D01*
X-16610Y181096D01*
X-16527Y181129D01*
X-16470Y181170D01*
X-16409Y181203D01*
X-16342Y181263D01*
X-16270Y181316D01*
X-16225Y181370D01*
X-16173Y181417D01*
X-16124Y181492D01*
X-16067Y181561D01*
X-16037Y181624D01*
X-15999Y181682D01*
X-15969Y181767D01*
X-15931Y181849D01*
X-15918Y181917D01*
X-15895Y181983D01*
X-15888Y182073D01*
X-15871Y182161D01*
X-15876Y182230D01*
X-15870Y182300D01*
X-15886Y182389D01*
X-15891Y182478D01*
X-15913Y182545D01*
X-15925Y182613D01*
X-15962Y182695D01*
X-15989Y182781D01*
X-16027Y182840D01*
X-16055Y182903D01*
X-16111Y182974D01*
X-16159Y183050D01*
X-16210Y183097D01*
X-16254Y183152D01*
X-16326Y183206D01*
X-16391Y183267D01*
X-16452Y183301D01*
X-16508Y183343D01*
X-16652Y183414D01*
X-18096Y184012D01*
X-20776Y186692D01*
X-22226Y190193D01*
X-22226Y193982D01*
X-20776Y197483D01*
X-18096Y200163D01*
X-14595Y201613D01*
X-10805Y201613D01*
X-7304Y200163D01*
X-4524Y197383D01*
X-4430Y197310D01*
X-4341Y197232D01*
X-4305Y197213D01*
X-4273Y197188D01*
X-4164Y197141D01*
X-4058Y197087D01*
X-4019Y197078D01*
X-3981Y197062D01*
X-3864Y197043D01*
X-3748Y197017D01*
X-3707Y197019D01*
X-3667Y197012D01*
X-3549Y197023D01*
X-3430Y197027D01*
X-3391Y197038D01*
X-3351Y197042D01*
X-3239Y197082D01*
X-3124Y197115D01*
X-3089Y197136D01*
X-3051Y197150D01*
X-2953Y197217D01*
X-2850Y197277D01*
X-2805Y197317D01*
X-2788Y197328D01*
X-2775Y197344D01*
X-2729Y197383D01*
X-1049Y199064D01*
X5724Y205836D01*
X8104Y208217D01*
X25023Y208217D01*
X25121Y208230D01*
X25220Y208233D01*
X25278Y208249D01*
X25338Y208257D01*
X25430Y208294D01*
X25526Y208321D01*
X25578Y208352D01*
X25634Y208374D01*
X25714Y208432D01*
X25799Y208483D01*
X25875Y208549D01*
X25891Y208561D01*
X25899Y208570D01*
X25920Y208589D01*
X26941Y209609D01*
X29031Y210475D01*
X31294Y210475D01*
X33384Y209609D01*
X34984Y208009D01*
X35850Y205919D01*
X35850Y203656D01*
X35731Y203368D01*
X35718Y203320D01*
X35697Y203275D01*
X35676Y203168D01*
X35647Y203062D01*
X35646Y203012D01*
X35637Y202963D01*
X35644Y202853D01*
X35642Y202744D01*
X35654Y202695D01*
X35657Y202646D01*
X35690Y202541D01*
X35716Y202434D01*
X35739Y202390D01*
X35755Y202343D01*
X35813Y202250D01*
X35865Y202153D01*
X35898Y202116D01*
X35925Y202074D01*
X36005Y201999D01*
X36079Y201918D01*
X36120Y201891D01*
X36156Y201856D01*
X36253Y201803D01*
X36344Y201743D01*
X36391Y201727D01*
X36435Y201703D01*
X36541Y201675D01*
X36645Y201640D01*
X36695Y201636D01*
X36743Y201623D01*
X36904Y201613D01*
X39995Y201613D01*
X43496Y200163D01*
X46176Y197483D01*
X47626Y193982D01*
X47626Y190193D01*
X47270Y189335D01*
X47257Y189287D01*
X47236Y189242D01*
X47215Y189134D01*
X47186Y189028D01*
X47186Y188978D01*
X47176Y188929D01*
X47183Y188820D01*
X47181Y188710D01*
X47193Y188662D01*
X47196Y188612D01*
X47230Y188508D01*
X47255Y188401D01*
X47279Y188357D01*
X47294Y188310D01*
X47353Y188217D01*
X47404Y188120D01*
X47438Y188083D01*
X47464Y188041D01*
X47544Y187966D01*
X47618Y187884D01*
X47660Y187857D01*
X47696Y187823D01*
X47792Y187770D01*
X47884Y187710D01*
X47931Y187693D01*
X47974Y187669D01*
X48081Y187642D01*
X48185Y187606D01*
X48234Y187602D01*
X48282Y187590D01*
X48443Y187580D01*
X53157Y187580D01*
X53206Y187586D01*
X53256Y187584D01*
X53363Y187606D01*
X53473Y187620D01*
X53519Y187638D01*
X53567Y187648D01*
X53666Y187696D01*
X53768Y187737D01*
X53808Y187766D01*
X53853Y187788D01*
X53937Y187859D01*
X54026Y187923D01*
X54057Y187962D01*
X54095Y187994D01*
X54158Y188084D01*
X54228Y188168D01*
X54250Y188213D01*
X54278Y188254D01*
X54317Y188357D01*
X54364Y188456D01*
X54373Y188505D01*
X54391Y188551D01*
X54403Y188661D01*
X54424Y188768D01*
X54421Y188818D01*
X54426Y188867D01*
X54411Y188976D01*
X54404Y189086D01*
X54389Y189133D01*
X54382Y189182D01*
X54330Y189335D01*
X53974Y190193D01*
X53974Y193982D01*
X55424Y197483D01*
X58104Y200163D01*
X61605Y201613D01*
X65395Y201613D01*
X68896Y200163D01*
X71576Y197483D01*
X73026Y193982D01*
X73026Y190193D01*
X71576Y186692D01*
X68896Y184012D01*
X65395Y182562D01*
X61605Y182562D01*
X60423Y183052D01*
X60394Y183059D01*
X60368Y183073D01*
X60241Y183101D01*
X60116Y183136D01*
X60086Y183136D01*
X60058Y183143D01*
X59928Y183139D01*
X59798Y183141D01*
X59769Y183134D01*
X59740Y183133D01*
X59615Y183097D01*
X59489Y183066D01*
X59462Y183053D01*
X59434Y183044D01*
X59323Y182979D01*
X59207Y182918D01*
X59186Y182898D01*
X59160Y182883D01*
X59039Y182777D01*
X56983Y180720D01*
X48210Y180720D01*
X48112Y180708D01*
X48013Y180705D01*
X47955Y180688D01*
X47895Y180680D01*
X47803Y180644D01*
X47707Y180616D01*
X47655Y180586D01*
X47599Y180563D01*
X47519Y180505D01*
X47433Y180455D01*
X47358Y180389D01*
X47342Y180377D01*
X47334Y180367D01*
X47313Y180349D01*
X46335Y179371D01*
X46305Y179332D01*
X46268Y179298D01*
X46208Y179206D01*
X46140Y179120D01*
X46121Y179074D01*
X46093Y179033D01*
X46058Y178929D01*
X46014Y178828D01*
X46006Y178779D01*
X45990Y178732D01*
X45981Y178623D01*
X45964Y178514D01*
X45969Y178464D01*
X45965Y178415D01*
X45984Y178307D01*
X45994Y178197D01*
X46011Y178150D01*
X46019Y178102D01*
X46064Y178002D01*
X46102Y177898D01*
X46129Y177857D01*
X46150Y177812D01*
X46218Y177726D01*
X46280Y177635D01*
X46317Y177602D01*
X46348Y177563D01*
X46436Y177497D01*
X46519Y177424D01*
X46563Y177402D01*
X46603Y177372D01*
X46747Y177301D01*
X47504Y176987D01*
X47513Y176985D01*
X47521Y176980D01*
X47666Y176943D01*
X47811Y176903D01*
X47820Y176903D01*
X47829Y176901D01*
X47990Y176891D01*
X50799Y176891D01*
X51916Y175774D01*
X51916Y168065D01*
X51931Y167947D01*
X51938Y167829D01*
X51951Y167790D01*
X51956Y167750D01*
X52000Y167639D01*
X52036Y167526D01*
X52058Y167492D01*
X52073Y167454D01*
X52143Y167358D01*
X52206Y167257D01*
X52236Y167230D01*
X52259Y167197D01*
X52351Y167121D01*
X52438Y167039D01*
X52473Y167020D01*
X52504Y166994D01*
X52612Y166943D01*
X52716Y166886D01*
X52756Y166876D01*
X52792Y166859D01*
X52909Y166836D01*
X53024Y166806D01*
X53085Y166803D01*
X53105Y166799D01*
X53125Y166800D01*
X53185Y166796D01*
X72754Y166796D01*
X72853Y166809D01*
X72952Y166812D01*
X73010Y166828D01*
X73070Y166836D01*
X73162Y166873D01*
X73257Y166900D01*
X73309Y166931D01*
X73366Y166953D01*
X73446Y167011D01*
X73531Y167062D01*
X73607Y167128D01*
X73623Y167140D01*
X73631Y167149D01*
X73652Y167168D01*
X85099Y178615D01*
X85159Y178693D01*
X85227Y178765D01*
X85256Y178818D01*
X85293Y178866D01*
X85333Y178957D01*
X85381Y179043D01*
X85396Y179102D01*
X85420Y179158D01*
X85435Y179256D01*
X85460Y179351D01*
X85466Y179451D01*
X85470Y179472D01*
X85468Y179484D01*
X85470Y179512D01*
X85470Y182349D01*
X85467Y182379D01*
X85469Y182408D01*
X85447Y182536D01*
X85430Y182665D01*
X85420Y182692D01*
X85415Y182722D01*
X85361Y182840D01*
X85313Y182961D01*
X85296Y182985D01*
X85284Y183012D01*
X85203Y183113D01*
X85127Y183218D01*
X85104Y183237D01*
X85085Y183260D01*
X84982Y183338D01*
X84882Y183421D01*
X84855Y183433D01*
X84831Y183451D01*
X84687Y183522D01*
X83504Y184012D01*
X80824Y186692D01*
X79374Y190193D01*
X79374Y193982D01*
X80824Y197483D01*
X83504Y200163D01*
X87005Y201613D01*
X90795Y201613D01*
X94296Y200163D01*
X96976Y197483D01*
X98426Y193982D01*
X98426Y190193D01*
X96976Y186692D01*
X94296Y184012D01*
X93113Y183522D01*
X93088Y183507D01*
X93060Y183498D01*
X92950Y183429D01*
X92837Y183365D01*
X92816Y183344D01*
X92791Y183328D01*
X92702Y183234D01*
X92609Y183143D01*
X92593Y183118D01*
X92573Y183097D01*
X92510Y182983D01*
X92442Y182872D01*
X92434Y182844D01*
X92419Y182818D01*
X92387Y182692D01*
X92349Y182568D01*
X92347Y182539D01*
X92340Y182510D01*
X92330Y182349D01*
X92330Y179619D01*
X92347Y179482D01*
X92360Y179343D01*
X92367Y179324D01*
X92370Y179304D01*
X92421Y179175D01*
X92468Y179044D01*
X92479Y179027D01*
X92487Y179008D01*
X92568Y178896D01*
X92646Y178781D01*
X92662Y178767D01*
X92673Y178751D01*
X92781Y178662D01*
X92885Y178570D01*
X92903Y178561D01*
X92918Y178548D01*
X93044Y178489D01*
X93168Y178425D01*
X93188Y178421D01*
X93206Y178412D01*
X93342Y178386D01*
X93478Y178356D01*
X93499Y178356D01*
X93518Y178353D01*
X93657Y178361D01*
X93796Y178365D01*
X93816Y178371D01*
X93836Y178372D01*
X93968Y178415D01*
X94102Y178454D01*
X94119Y178464D01*
X94138Y178470D01*
X94256Y178545D01*
X94376Y178615D01*
X94397Y178634D01*
X94407Y178641D01*
X94421Y178655D01*
X94496Y178722D01*
X104524Y188749D01*
X104542Y188773D01*
X104565Y188792D01*
X104639Y188898D01*
X104719Y189001D01*
X104731Y189028D01*
X104748Y189052D01*
X104794Y189173D01*
X104845Y189293D01*
X104850Y189322D01*
X104860Y189349D01*
X104875Y189478D01*
X104895Y189607D01*
X104892Y189636D01*
X104896Y189665D01*
X104878Y189794D01*
X104865Y189923D01*
X104855Y189951D01*
X104851Y189980D01*
X104799Y190133D01*
X104774Y190193D01*
X104774Y193982D01*
X106224Y197483D01*
X108904Y200163D01*
X112405Y201613D01*
X116195Y201613D01*
X119696Y200163D01*
X122376Y197483D01*
X123826Y193982D01*
X123826Y190193D01*
X122376Y186692D01*
X119696Y184012D01*
X116195Y182562D01*
X112405Y182562D01*
X110100Y183517D01*
X110072Y183524D01*
X110045Y183538D01*
X109918Y183566D01*
X109793Y183601D01*
X109764Y183601D01*
X109735Y183607D01*
X109605Y183604D01*
X109475Y183606D01*
X109447Y183599D01*
X109417Y183598D01*
X109292Y183562D01*
X109166Y183531D01*
X109140Y183518D01*
X109112Y183509D01*
X109000Y183443D01*
X108885Y183383D01*
X108863Y183363D01*
X108838Y183348D01*
X108717Y183241D01*
X107411Y181936D01*
X107326Y181826D01*
X107237Y181719D01*
X107229Y181701D01*
X107216Y181685D01*
X107161Y181557D01*
X107102Y181431D01*
X107098Y181412D01*
X107090Y181393D01*
X107068Y181255D01*
X107042Y181119D01*
X107043Y181099D01*
X107040Y181079D01*
X107053Y180940D01*
X107062Y180802D01*
X107068Y180782D01*
X107070Y180762D01*
X107117Y180631D01*
X107160Y180499D01*
X107171Y180482D01*
X107178Y180463D01*
X107256Y180348D01*
X107330Y180230D01*
X107345Y180216D01*
X107356Y180200D01*
X107460Y180108D01*
X107562Y180012D01*
X107579Y180003D01*
X107595Y179989D01*
X107719Y179926D01*
X107840Y179859D01*
X107860Y179854D01*
X107878Y179845D01*
X108014Y179814D01*
X108148Y179779D01*
X108176Y179778D01*
X108188Y179775D01*
X108209Y179776D01*
X108309Y179769D01*
X109083Y179769D01*
X112584Y178319D01*
X115264Y175639D01*
X116714Y172138D01*
X116714Y169078D01*
X116731Y168941D01*
X116744Y168802D01*
X116751Y168783D01*
X116754Y168763D01*
X116805Y168634D01*
X116852Y168503D01*
X116863Y168486D01*
X116871Y168467D01*
X116952Y168355D01*
X117030Y168240D01*
X117046Y168226D01*
X117057Y168210D01*
X117165Y168121D01*
X117269Y168029D01*
X117287Y168020D01*
X117302Y168007D01*
X117428Y167948D01*
X117552Y167884D01*
X117572Y167880D01*
X117590Y167871D01*
X117726Y167845D01*
X117862Y167815D01*
X117883Y167815D01*
X117902Y167812D01*
X118041Y167820D01*
X118180Y167824D01*
X118200Y167830D01*
X118220Y167831D01*
X118352Y167874D01*
X118486Y167913D01*
X118503Y167923D01*
X118522Y167929D01*
X118640Y168004D01*
X118760Y168074D01*
X118781Y168093D01*
X118791Y168100D01*
X118805Y168114D01*
X118880Y168181D01*
X133610Y182911D01*
X133683Y183005D01*
X133762Y183094D01*
X133780Y183130D01*
X133805Y183162D01*
X133853Y183271D01*
X133907Y183377D01*
X133916Y183417D01*
X133932Y183454D01*
X133950Y183572D01*
X133976Y183688D01*
X133975Y183728D01*
X133982Y183768D01*
X133970Y183887D01*
X133967Y184005D01*
X133955Y184044D01*
X133952Y184085D01*
X133911Y184197D01*
X133878Y184311D01*
X133858Y184346D01*
X133844Y184384D01*
X133777Y184483D01*
X133717Y184585D01*
X133677Y184630D01*
X133666Y184647D01*
X133650Y184660D01*
X133610Y184706D01*
X131624Y186692D01*
X130174Y190193D01*
X130174Y193982D01*
X131624Y197483D01*
X134304Y200163D01*
X137805Y201613D01*
X141595Y201613D01*
X145096Y200163D01*
X147776Y197483D01*
X149226Y193982D01*
X149226Y190193D01*
X147776Y186692D01*
X145096Y184012D01*
X143913Y183522D01*
X143888Y183507D01*
X143860Y183498D01*
X143750Y183429D01*
X143637Y183365D01*
X143616Y183344D01*
X143591Y183328D01*
X143502Y183234D01*
X143409Y183143D01*
X143393Y183118D01*
X143373Y183097D01*
X143310Y182983D01*
X143242Y182872D01*
X143234Y182844D01*
X143221Y182820D01*
X118968Y158568D01*
X118883Y158458D01*
X118794Y158351D01*
X118786Y158333D01*
X118773Y158317D01*
X118718Y158189D01*
X118659Y158063D01*
X118655Y158044D01*
X118647Y158025D01*
X118625Y157887D01*
X118599Y157751D01*
X118600Y157731D01*
X118597Y157711D01*
X118610Y157572D01*
X118619Y157434D01*
X118625Y157414D01*
X118627Y157394D01*
X118674Y157263D01*
X118717Y157131D01*
X118728Y157114D01*
X118735Y157095D01*
X118813Y156980D01*
X118887Y156862D01*
X118902Y156848D01*
X118913Y156832D01*
X119017Y156740D01*
X119119Y156644D01*
X119136Y156635D01*
X119152Y156621D01*
X119276Y156558D01*
X119397Y156491D01*
X119417Y156486D01*
X119435Y156477D01*
X119571Y156446D01*
X119705Y156411D01*
X119733Y156410D01*
X119745Y156407D01*
X119766Y156408D01*
X119866Y156401D01*
X124038Y156401D01*
X124136Y156414D01*
X124235Y156417D01*
X124293Y156433D01*
X124353Y156441D01*
X124445Y156478D01*
X124540Y156505D01*
X124593Y156536D01*
X124649Y156558D01*
X124729Y156616D01*
X124814Y156667D01*
X124890Y156733D01*
X124906Y156745D01*
X124914Y156754D01*
X124935Y156773D01*
X155789Y187627D01*
X155807Y187650D01*
X155830Y187669D01*
X155904Y187775D01*
X155984Y187878D01*
X155996Y187905D01*
X156013Y187929D01*
X156059Y188051D01*
X156110Y188170D01*
X156115Y188199D01*
X156125Y188227D01*
X156140Y188356D01*
X156160Y188484D01*
X156157Y188514D01*
X156161Y188543D01*
X156143Y188671D01*
X156130Y188801D01*
X156120Y188829D01*
X156116Y188858D01*
X156064Y189010D01*
X155574Y190193D01*
X155574Y193982D01*
X157024Y197483D01*
X159704Y200163D01*
X163205Y201613D01*
X166995Y201613D01*
X170496Y200163D01*
X173176Y197483D01*
X174626Y193982D01*
X174626Y190193D01*
X173176Y186692D01*
X170496Y184012D01*
X166995Y182562D01*
X163205Y182562D01*
X162023Y183052D01*
X161994Y183059D01*
X161968Y183073D01*
X161841Y183101D01*
X161716Y183136D01*
X161686Y183136D01*
X161658Y183143D01*
X161528Y183139D01*
X161398Y183141D01*
X161369Y183134D01*
X161340Y183133D01*
X161215Y183097D01*
X161089Y183066D01*
X161062Y183053D01*
X161034Y183044D01*
X160922Y182979D01*
X160807Y182918D01*
X160786Y182898D01*
X160760Y182883D01*
X160639Y182777D01*
X131478Y153615D01*
X131393Y153505D01*
X131304Y153398D01*
X131295Y153380D01*
X131283Y153364D01*
X131227Y153236D01*
X131168Y153110D01*
X131165Y153091D01*
X131157Y153072D01*
X131135Y152934D01*
X131109Y152798D01*
X131110Y152778D01*
X131107Y152758D01*
X131120Y152619D01*
X131128Y152481D01*
X131135Y152461D01*
X131137Y152441D01*
X131184Y152310D01*
X131226Y152178D01*
X131237Y152161D01*
X131244Y152142D01*
X131322Y152027D01*
X131397Y151909D01*
X131411Y151895D01*
X131423Y151879D01*
X131527Y151787D01*
X131628Y151691D01*
X131646Y151682D01*
X131661Y151668D01*
X131785Y151605D01*
X131907Y151538D01*
X131926Y151533D01*
X131944Y151524D01*
X132080Y151493D01*
X132215Y151458D01*
X132243Y151457D01*
X132255Y151454D01*
X132275Y151455D01*
X132375Y151448D01*
X163666Y151448D01*
X163764Y151461D01*
X163864Y151464D01*
X163922Y151480D01*
X163982Y151488D01*
X164074Y151525D01*
X164169Y151552D01*
X164221Y151583D01*
X164278Y151605D01*
X164358Y151663D01*
X164443Y151714D01*
X164518Y151780D01*
X164535Y151792D01*
X164543Y151801D01*
X164564Y151820D01*
X171295Y158551D01*
X171380Y158661D01*
X171469Y158768D01*
X171477Y158786D01*
X171490Y158802D01*
X171545Y158930D01*
X171604Y159056D01*
X171608Y159075D01*
X171616Y159094D01*
X171638Y159232D01*
X171664Y159368D01*
X171663Y159388D01*
X171666Y159408D01*
X171653Y159547D01*
X171644Y159685D01*
X171638Y159705D01*
X171636Y159725D01*
X171589Y159856D01*
X171546Y159988D01*
X171535Y160005D01*
X171529Y160024D01*
X171450Y160139D01*
X171376Y160257D01*
X171361Y160271D01*
X171350Y160287D01*
X171246Y160379D01*
X171144Y160475D01*
X171127Y160484D01*
X171112Y160498D01*
X170987Y160561D01*
X170866Y160628D01*
X170846Y160633D01*
X170828Y160642D01*
X170692Y160673D01*
X170558Y160708D01*
X170530Y160709D01*
X170518Y160712D01*
X170498Y160711D01*
X170397Y160718D01*
X170317Y160718D01*
X166816Y162168D01*
X164136Y164848D01*
X162686Y168349D01*
X162686Y172138D01*
X164136Y175639D01*
X166816Y178319D01*
X170317Y179769D01*
X174107Y179769D01*
X177608Y178319D01*
X177664Y178262D01*
X177774Y178177D01*
X177881Y178088D01*
X177900Y178080D01*
X177916Y178067D01*
X178043Y178012D01*
X178169Y177953D01*
X178189Y177949D01*
X178208Y177941D01*
X178345Y177919D01*
X178482Y177893D01*
X178502Y177894D01*
X178522Y177891D01*
X178660Y177904D01*
X178799Y177913D01*
X178818Y177919D01*
X178838Y177921D01*
X178969Y177968D01*
X179101Y178011D01*
X179119Y178022D01*
X179138Y178029D01*
X179252Y178107D01*
X179370Y178181D01*
X179384Y178196D01*
X179401Y178207D01*
X179492Y178311D01*
X179588Y178413D01*
X179598Y178430D01*
X179611Y178446D01*
X179674Y178569D01*
X179742Y178691D01*
X179747Y178711D01*
X179756Y178729D01*
X179786Y178865D01*
X179821Y178999D01*
X179823Y179027D01*
X179826Y179039D01*
X179825Y179060D01*
X179831Y179160D01*
X179831Y186269D01*
X181189Y187627D01*
X181207Y187650D01*
X181230Y187669D01*
X181304Y187775D01*
X181384Y187878D01*
X181396Y187905D01*
X181413Y187929D01*
X181459Y188051D01*
X181510Y188170D01*
X181515Y188199D01*
X181525Y188227D01*
X181540Y188356D01*
X181560Y188484D01*
X181557Y188514D01*
X181561Y188543D01*
X181543Y188671D01*
X181530Y188801D01*
X181520Y188829D01*
X181516Y188858D01*
X181464Y189010D01*
X180974Y190193D01*
X180974Y193982D01*
X182424Y197483D01*
X185104Y200163D01*
X188605Y201613D01*
X192395Y201613D01*
X195896Y200163D01*
X198576Y197483D01*
X200026Y193982D01*
X200026Y190193D01*
X198576Y186692D01*
X195896Y184012D01*
X192395Y182562D01*
X188605Y182562D01*
X188446Y182628D01*
X188398Y182641D01*
X188353Y182662D01*
X188245Y182683D01*
X188139Y182712D01*
X188089Y182713D01*
X188040Y182722D01*
X187931Y182715D01*
X187821Y182717D01*
X187773Y182705D01*
X187723Y182702D01*
X187619Y182668D01*
X187512Y182643D01*
X187468Y182619D01*
X187421Y182604D01*
X187328Y182545D01*
X187231Y182494D01*
X187194Y182461D01*
X187152Y182434D01*
X187077Y182354D01*
X186995Y182280D01*
X186968Y182239D01*
X186934Y182202D01*
X186881Y182106D01*
X186821Y182014D01*
X186804Y181967D01*
X186780Y181924D01*
X186753Y181818D01*
X186717Y181714D01*
X186713Y181664D01*
X186701Y181616D01*
X186691Y181455D01*
X186691Y169293D01*
X186708Y169156D01*
X186721Y169017D01*
X186728Y168998D01*
X186731Y168978D01*
X186782Y168849D01*
X186829Y168718D01*
X186840Y168701D01*
X186848Y168682D01*
X186929Y168570D01*
X187007Y168454D01*
X187023Y168441D01*
X187034Y168425D01*
X187142Y168336D01*
X187246Y168244D01*
X187264Y168235D01*
X187279Y168222D01*
X187405Y168163D01*
X187529Y168099D01*
X187549Y168095D01*
X187567Y168086D01*
X187703Y168060D01*
X187839Y168030D01*
X187860Y168030D01*
X187879Y168026D01*
X188018Y168035D01*
X188157Y168039D01*
X188177Y168045D01*
X188197Y168046D01*
X188329Y168089D01*
X188463Y168128D01*
X188480Y168138D01*
X188499Y168144D01*
X188617Y168219D01*
X188737Y168289D01*
X188758Y168308D01*
X188768Y168314D01*
X188782Y168329D01*
X188857Y168396D01*
X207028Y186566D01*
X207046Y186590D01*
X207069Y186609D01*
X207143Y186715D01*
X207223Y186818D01*
X207235Y186845D01*
X207252Y186869D01*
X207298Y186990D01*
X207350Y187110D01*
X207354Y187139D01*
X207365Y187166D01*
X207379Y187295D01*
X207399Y187424D01*
X207397Y187453D01*
X207400Y187482D01*
X207382Y187611D01*
X207370Y187740D01*
X207360Y187768D01*
X207355Y187797D01*
X207303Y187950D01*
X206374Y190193D01*
X206374Y193982D01*
X207824Y197483D01*
X210504Y200163D01*
X214005Y201613D01*
X217795Y201613D01*
X221296Y200163D01*
X223976Y197483D01*
X225426Y193982D01*
X225426Y190193D01*
X223976Y186692D01*
X223855Y186572D01*
X223770Y186462D01*
X223681Y186355D01*
X223673Y186336D01*
X223660Y186320D01*
X223605Y186192D01*
X223546Y186067D01*
X223542Y186047D01*
X223534Y186028D01*
X223512Y185891D01*
X223486Y185754D01*
X223487Y185734D01*
X223484Y185714D01*
X223497Y185576D01*
X223506Y185437D01*
X223512Y185418D01*
X223514Y185398D01*
X223561Y185267D01*
X223604Y185135D01*
X223615Y185117D01*
X223622Y185098D01*
X223700Y184983D01*
X223774Y184866D01*
X223789Y184852D01*
X223800Y184835D01*
X223904Y184743D01*
X224006Y184648D01*
X224023Y184638D01*
X224039Y184625D01*
X224163Y184561D01*
X224284Y184494D01*
X224304Y184489D01*
X224322Y184480D01*
X224458Y184450D01*
X224592Y184415D01*
X224620Y184413D01*
X224632Y184410D01*
X224653Y184411D01*
X224753Y184405D01*
X228241Y184405D01*
X228339Y184417D01*
X228438Y184420D01*
X228497Y184437D01*
X228557Y184445D01*
X228649Y184481D01*
X228744Y184509D01*
X228796Y184539D01*
X228852Y184562D01*
X228932Y184620D01*
X229018Y184670D01*
X229093Y184736D01*
X229110Y184748D01*
X229117Y184758D01*
X229139Y184776D01*
X231989Y187627D01*
X232007Y187650D01*
X232030Y187669D01*
X232104Y187775D01*
X232184Y187878D01*
X232196Y187905D01*
X232213Y187929D01*
X232259Y188051D01*
X232310Y188170D01*
X232315Y188199D01*
X232325Y188227D01*
X232340Y188356D01*
X232360Y188484D01*
X232357Y188514D01*
X232361Y188543D01*
X232343Y188671D01*
X232330Y188801D01*
X232320Y188829D01*
X232316Y188858D01*
X232264Y189010D01*
X231774Y190193D01*
X231774Y193982D01*
X233224Y197483D01*
X235904Y200163D01*
X239405Y201613D01*
X243195Y201613D01*
X246696Y200163D01*
X249376Y197483D01*
X250826Y193982D01*
X250826Y190193D01*
X249376Y186692D01*
X246696Y184012D01*
X243195Y182562D01*
X239405Y182562D01*
X238223Y183052D01*
X238194Y183059D01*
X238168Y183073D01*
X238041Y183101D01*
X237916Y183136D01*
X237886Y183136D01*
X237858Y183143D01*
X237728Y183139D01*
X237598Y183141D01*
X237569Y183134D01*
X237540Y183133D01*
X237415Y183097D01*
X237289Y183066D01*
X237262Y183053D01*
X237234Y183044D01*
X237123Y182979D01*
X237007Y182918D01*
X236986Y182898D01*
X236960Y182883D01*
X236839Y182777D01*
X231608Y177545D01*
X215238Y177545D01*
X215140Y177533D01*
X215041Y177530D01*
X214983Y177513D01*
X214923Y177505D01*
X214831Y177469D01*
X214735Y177441D01*
X214683Y177411D01*
X214627Y177388D01*
X214547Y177330D01*
X214462Y177280D01*
X214386Y177214D01*
X214370Y177202D01*
X214362Y177192D01*
X214341Y177174D01*
X171405Y134238D01*
X102502Y134238D01*
X102403Y134226D01*
X102304Y134223D01*
X102246Y134206D01*
X102186Y134198D01*
X102094Y134162D01*
X101999Y134134D01*
X101947Y134104D01*
X101890Y134081D01*
X101810Y134023D01*
X101725Y133973D01*
X101649Y133907D01*
X101633Y133895D01*
X101625Y133885D01*
X101604Y133867D01*
X97956Y130219D01*
X62418Y130219D01*
X62320Y130206D01*
X62221Y130203D01*
X62163Y130187D01*
X62102Y130179D01*
X62010Y130142D01*
X61915Y130115D01*
X61863Y130084D01*
X61807Y130062D01*
X61727Y130004D01*
X61641Y129953D01*
X61566Y129887D01*
X61549Y129875D01*
X61542Y129866D01*
X61521Y129847D01*
X58945Y127271D01*
X58860Y127162D01*
X58771Y127055D01*
X58762Y127036D01*
X58750Y127020D01*
X58695Y126892D01*
X58636Y126767D01*
X58632Y126747D01*
X58624Y126728D01*
X58602Y126590D01*
X58576Y126454D01*
X58577Y126434D01*
X58574Y126414D01*
X58587Y126275D01*
X58596Y126137D01*
X58602Y126118D01*
X58604Y126098D01*
X58651Y125966D01*
X58694Y125835D01*
X58704Y125817D01*
X58711Y125798D01*
X58789Y125683D01*
X58864Y125566D01*
X58878Y125552D01*
X58890Y125535D01*
X58994Y125443D01*
X59095Y125348D01*
X59113Y125338D01*
X59128Y125325D01*
X59252Y125261D01*
X59374Y125194D01*
X59393Y125189D01*
X59411Y125180D01*
X59547Y125150D01*
X59682Y125115D01*
X59710Y125113D01*
X59722Y125110D01*
X59742Y125111D01*
X59842Y125105D01*
X74235Y125105D01*
X74333Y125117D01*
X74433Y125120D01*
X74491Y125137D01*
X74551Y125145D01*
X74643Y125181D01*
X74738Y125209D01*
X74790Y125239D01*
X74847Y125262D01*
X74927Y125320D01*
X75012Y125370D01*
X75087Y125436D01*
X75104Y125448D01*
X75112Y125458D01*
X75133Y125476D01*
X76153Y126497D01*
X78244Y127363D01*
X80506Y127363D01*
X82597Y126497D01*
X84197Y124897D01*
X85063Y122806D01*
X85063Y120544D01*
X84624Y119485D01*
X84611Y119437D01*
X84590Y119392D01*
X84569Y119284D01*
X84540Y119178D01*
X84539Y119128D01*
X84530Y119079D01*
X84537Y118970D01*
X84535Y118860D01*
X84547Y118812D01*
X84550Y118762D01*
X84584Y118658D01*
X84609Y118551D01*
X84633Y118507D01*
X84648Y118460D01*
X84707Y118367D01*
X84758Y118270D01*
X84791Y118233D01*
X84818Y118191D01*
X84898Y118116D01*
X84972Y118034D01*
X85013Y118007D01*
X85050Y117973D01*
X85146Y117920D01*
X85238Y117860D01*
X85285Y117843D01*
X85328Y117819D01*
X85434Y117792D01*
X85538Y117756D01*
X85588Y117752D01*
X85636Y117740D01*
X85797Y117730D01*
X100157Y117730D01*
X100255Y117742D01*
X100354Y117745D01*
X100412Y117762D01*
X100472Y117770D01*
X100565Y117806D01*
X100630Y117825D01*
X103619Y117825D01*
X103755Y117689D01*
X103834Y117628D01*
X103906Y117560D01*
X103959Y117531D01*
X104007Y117494D01*
X104098Y117454D01*
X104184Y117407D01*
X104243Y117392D01*
X104299Y117367D01*
X104397Y117352D01*
X104492Y117327D01*
X104592Y117321D01*
X104613Y117318D01*
X104625Y117319D01*
X104653Y117317D01*
X111941Y117317D01*
X112039Y117329D01*
X112138Y117332D01*
X112196Y117349D01*
X112256Y117357D01*
X112348Y117393D01*
X112444Y117421D01*
X112496Y117452D01*
X112552Y117474D01*
X112632Y117532D01*
X112718Y117582D01*
X112793Y117649D01*
X112809Y117661D01*
X112817Y117670D01*
X112838Y117689D01*
X112879Y117730D01*
X115761Y117730D01*
X115772Y117724D01*
X115820Y117687D01*
X115911Y117647D01*
X115998Y117600D01*
X116056Y117584D01*
X116112Y117560D01*
X116210Y117545D01*
X116306Y117520D01*
X116406Y117514D01*
X116426Y117510D01*
X116438Y117512D01*
X116466Y117510D01*
X168328Y117510D01*
X168435Y117403D01*
X168513Y117342D01*
X168585Y117274D01*
X168638Y117245D01*
X168686Y117208D01*
X168777Y117169D01*
X168864Y117121D01*
X168922Y117106D01*
X168978Y117082D01*
X169076Y117066D01*
X169172Y117041D01*
X169272Y117035D01*
X169292Y117032D01*
X169304Y117033D01*
X169332Y117031D01*
X176743Y117031D01*
X176841Y117044D01*
X176940Y117047D01*
X176998Y117063D01*
X177058Y117071D01*
X177150Y117108D01*
X177245Y117135D01*
X177298Y117166D01*
X177354Y117188D01*
X177434Y117246D01*
X177519Y117297D01*
X177595Y117363D01*
X177611Y117375D01*
X177619Y117384D01*
X177640Y117403D01*
X177967Y117730D01*
X217592Y117730D01*
X217621Y117733D01*
X217651Y117731D01*
X217779Y117753D01*
X217908Y117770D01*
X217935Y117780D01*
X217964Y117785D01*
X218083Y117839D01*
X218203Y117887D01*
X218227Y117904D01*
X218254Y117916D01*
X218355Y117997D01*
X218461Y118073D01*
X218479Y118096D01*
X218502Y118115D01*
X218581Y118218D01*
X218663Y118318D01*
X218676Y118345D01*
X218694Y118369D01*
X218765Y118513D01*
X219254Y119696D01*
X221934Y122376D01*
X225435Y123826D01*
X244465Y123826D01*
X247966Y122376D01*
X250646Y119696D01*
X252096Y116195D01*
X252096Y112405D01*
X250646Y108904D01*
X247966Y106224D01*
X244465Y104774D01*
X225435Y104774D01*
X221934Y106224D01*
X219254Y108904D01*
X218765Y110087D01*
X218750Y110112D01*
X218741Y110140D01*
X218671Y110250D01*
X218607Y110363D01*
X218587Y110384D01*
X218571Y110409D01*
X218476Y110498D01*
X218386Y110591D01*
X218361Y110607D01*
X218339Y110627D01*
X218225Y110690D01*
X218115Y110758D01*
X218086Y110766D01*
X218061Y110781D01*
X217935Y110813D01*
X217811Y110851D01*
X217781Y110853D01*
X217753Y110860D01*
X217592Y110870D01*
X181207Y110870D01*
X181158Y110864D01*
X181108Y110866D01*
X181001Y110844D01*
X180892Y110830D01*
X180845Y110812D01*
X180797Y110802D01*
X180698Y110754D01*
X180596Y110713D01*
X180556Y110684D01*
X180511Y110662D01*
X180427Y110591D01*
X180339Y110527D01*
X180307Y110488D01*
X180269Y110456D01*
X180206Y110366D01*
X180136Y110282D01*
X180115Y110237D01*
X180086Y110196D01*
X180047Y110093D01*
X180000Y109994D01*
X179991Y109945D01*
X179973Y109899D01*
X179961Y109789D01*
X179940Y109682D01*
X179944Y109632D01*
X179938Y109583D01*
X179953Y109474D01*
X179960Y109364D01*
X179976Y109317D01*
X179982Y109268D01*
X180035Y109115D01*
X181547Y105463D01*
X181547Y101674D01*
X180097Y98173D01*
X177417Y95493D01*
X173916Y94043D01*
X170127Y94043D01*
X166626Y95493D01*
X163946Y98173D01*
X162496Y101674D01*
X162496Y105463D01*
X163917Y108895D01*
X163931Y108943D01*
X163952Y108988D01*
X163972Y109096D01*
X164001Y109202D01*
X164002Y109252D01*
X164011Y109301D01*
X164005Y109410D01*
X164006Y109520D01*
X163995Y109569D01*
X163992Y109618D01*
X163958Y109722D01*
X163932Y109829D01*
X163909Y109873D01*
X163894Y109921D01*
X163835Y110013D01*
X163784Y110110D01*
X163750Y110147D01*
X163724Y110189D01*
X163643Y110265D01*
X163570Y110346D01*
X163528Y110373D01*
X163492Y110407D01*
X163396Y110460D01*
X163304Y110521D01*
X163257Y110537D01*
X163213Y110561D01*
X163107Y110588D01*
X163003Y110624D01*
X162954Y110628D01*
X162905Y110640D01*
X162745Y110650D01*
X116274Y110650D01*
X116225Y110644D01*
X116175Y110646D01*
X116068Y110624D01*
X115959Y110611D01*
X115913Y110592D01*
X115864Y110582D01*
X115765Y110534D01*
X115663Y110493D01*
X115623Y110464D01*
X115578Y110442D01*
X115495Y110371D01*
X115406Y110307D01*
X115374Y110268D01*
X115336Y110236D01*
X115273Y110146D01*
X115203Y110062D01*
X115182Y110017D01*
X115153Y109976D01*
X115114Y109873D01*
X115067Y109774D01*
X115058Y109725D01*
X115040Y109679D01*
X115028Y109569D01*
X115008Y109462D01*
X115011Y109412D01*
X115005Y109363D01*
X115021Y109253D01*
X115027Y109144D01*
X115043Y109097D01*
X115050Y109048D01*
X115102Y108895D01*
X116523Y105463D01*
X116523Y101674D01*
X115073Y98173D01*
X112393Y95493D01*
X108892Y94043D01*
X105103Y94043D01*
X101602Y95493D01*
X98922Y98173D01*
X97472Y101674D01*
X97472Y105463D01*
X98984Y109115D01*
X98998Y109163D01*
X99019Y109208D01*
X99039Y109316D01*
X99068Y109422D01*
X99069Y109472D01*
X99079Y109521D01*
X99072Y109630D01*
X99073Y109740D01*
X99062Y109788D01*
X99059Y109838D01*
X99025Y109942D01*
X98999Y110049D01*
X98976Y110093D01*
X98961Y110140D01*
X98902Y110233D01*
X98851Y110330D01*
X98817Y110367D01*
X98791Y110409D01*
X98711Y110484D01*
X98637Y110566D01*
X98595Y110593D01*
X98559Y110627D01*
X98463Y110680D01*
X98371Y110740D01*
X98324Y110757D01*
X98280Y110781D01*
X98174Y110808D01*
X98070Y110844D01*
X98021Y110848D01*
X97973Y110860D01*
X97812Y110870D01*
X65559Y110870D01*
X65461Y110858D01*
X65362Y110855D01*
X65304Y110838D01*
X65243Y110830D01*
X65151Y110794D01*
X65056Y110766D01*
X65004Y110736D01*
X64948Y110713D01*
X64868Y110655D01*
X64782Y110605D01*
X64707Y110539D01*
X64690Y110527D01*
X64683Y110517D01*
X64662Y110499D01*
X61359Y107196D01*
X61274Y107087D01*
X61186Y106980D01*
X61177Y106961D01*
X61165Y106945D01*
X61109Y106817D01*
X61050Y106692D01*
X61046Y106672D01*
X61038Y106653D01*
X61016Y106515D01*
X60990Y106379D01*
X60992Y106359D01*
X60988Y106339D01*
X61001Y106200D01*
X61010Y106062D01*
X61016Y106043D01*
X61018Y106023D01*
X61065Y105891D01*
X61108Y105760D01*
X61119Y105742D01*
X61126Y105723D01*
X61204Y105608D01*
X61278Y105491D01*
X61293Y105477D01*
X61304Y105460D01*
X61409Y105368D01*
X61510Y105273D01*
X61528Y105263D01*
X61543Y105250D01*
X61667Y105186D01*
X61788Y105119D01*
X61808Y105114D01*
X61826Y105105D01*
X61962Y105075D01*
X62096Y105040D01*
X62124Y105038D01*
X62136Y105035D01*
X62157Y105036D01*
X62257Y105030D01*
X63123Y105030D01*
X63221Y105042D01*
X63320Y105045D01*
X63378Y105062D01*
X63438Y105070D01*
X63530Y105106D01*
X63626Y105134D01*
X63678Y105164D01*
X63734Y105187D01*
X63814Y105245D01*
X63899Y105295D01*
X63975Y105361D01*
X63991Y105373D01*
X63999Y105383D01*
X64020Y105401D01*
X65041Y106422D01*
X67131Y107288D01*
X69394Y107288D01*
X71484Y106422D01*
X73084Y104822D01*
X73950Y102731D01*
X73950Y101861D01*
X73965Y101743D01*
X73973Y101624D01*
X73985Y101586D01*
X73990Y101546D01*
X74034Y101435D01*
X74071Y101322D01*
X74092Y101288D01*
X74107Y101250D01*
X74177Y101154D01*
X74241Y101053D01*
X74270Y101026D01*
X74294Y100993D01*
X74386Y100917D01*
X74472Y100835D01*
X74508Y100816D01*
X74539Y100790D01*
X74647Y100739D01*
X74751Y100682D01*
X74790Y100672D01*
X74827Y100654D01*
X74943Y100632D01*
X75059Y100602D01*
X75119Y100599D01*
X75139Y100595D01*
X75159Y100596D01*
X75219Y100592D01*
X76090Y100592D01*
X78180Y99726D01*
X79780Y98126D01*
X80646Y96036D01*
X80646Y93773D01*
X79780Y91683D01*
X79419Y91322D01*
X79334Y91212D01*
X79245Y91105D01*
X79236Y91086D01*
X79224Y91070D01*
X79169Y90942D01*
X79109Y90817D01*
X79106Y90797D01*
X79098Y90778D01*
X79076Y90640D01*
X79050Y90504D01*
X79051Y90484D01*
X79048Y90464D01*
X79061Y90325D01*
X79069Y90187D01*
X79076Y90168D01*
X79078Y90148D01*
X79125Y90017D01*
X79167Y89885D01*
X79178Y89867D01*
X79185Y89848D01*
X79263Y89734D01*
X79338Y89616D01*
X79352Y89602D01*
X79364Y89585D01*
X79468Y89493D01*
X79569Y89398D01*
X79587Y89388D01*
X79602Y89375D01*
X79726Y89312D01*
X79848Y89244D01*
X79867Y89239D01*
X79885Y89230D01*
X80021Y89200D01*
X80156Y89165D01*
X80184Y89163D01*
X80196Y89160D01*
X80216Y89161D01*
X80316Y89155D01*
X179816Y89155D01*
X213669Y55302D01*
X213747Y55242D01*
X213819Y55174D01*
X213872Y55145D01*
X213920Y55107D01*
X214011Y55068D01*
X214098Y55020D01*
X214156Y55005D01*
X214212Y54981D01*
X214310Y54966D01*
X214406Y54941D01*
X214506Y54934D01*
X214526Y54931D01*
X214538Y54932D01*
X214566Y54931D01*
X227483Y54931D01*
X236663Y45750D01*
X236686Y45732D01*
X236706Y45710D01*
X236812Y45635D01*
X236914Y45556D01*
X236942Y45544D01*
X236966Y45527D01*
X237087Y45481D01*
X237206Y45429D01*
X237235Y45425D01*
X237263Y45414D01*
X237392Y45400D01*
X237520Y45379D01*
X237550Y45382D01*
X237579Y45379D01*
X237708Y45397D01*
X237837Y45409D01*
X237865Y45419D01*
X237894Y45423D01*
X238046Y45475D01*
X239405Y46038D01*
X243195Y46038D01*
X246696Y44588D01*
X249376Y41908D01*
X250826Y38407D01*
X250826Y34618D01*
X249376Y31117D01*
X246696Y28437D01*
X243195Y26987D01*
X239405Y26987D01*
X235904Y28437D01*
X233224Y31117D01*
X231774Y34618D01*
X231774Y38407D01*
X232191Y39414D01*
X232199Y39442D01*
X232212Y39468D01*
X232241Y39595D01*
X232275Y39720D01*
X232276Y39750D01*
X232282Y39779D01*
X232278Y39908D01*
X232280Y40038D01*
X232273Y40067D01*
X232272Y40097D01*
X232236Y40221D01*
X232206Y40348D01*
X232192Y40374D01*
X232184Y40402D01*
X232118Y40514D01*
X232057Y40629D01*
X232037Y40651D01*
X232022Y40676D01*
X231916Y40797D01*
X225013Y47699D01*
X224935Y47760D01*
X224863Y47828D01*
X224810Y47857D01*
X224762Y47894D01*
X224671Y47934D01*
X224585Y47981D01*
X224526Y47997D01*
X224470Y48021D01*
X224372Y48036D01*
X224277Y48061D01*
X224177Y48067D01*
X224156Y48070D01*
X224144Y48069D01*
X224116Y48071D01*
X219268Y48071D01*
X219199Y48062D01*
X219129Y48063D01*
X219041Y48043D01*
X218952Y48031D01*
X218888Y48006D01*
X218820Y47989D01*
X218740Y47947D01*
X218657Y47914D01*
X218600Y47873D01*
X218539Y47841D01*
X218472Y47780D01*
X218399Y47727D01*
X218355Y47674D01*
X218303Y47627D01*
X218254Y47552D01*
X218197Y47482D01*
X218167Y47419D01*
X218128Y47361D01*
X218099Y47276D01*
X218061Y47195D01*
X218048Y47126D01*
X218025Y47060D01*
X218018Y46970D01*
X218001Y46882D01*
X218006Y46813D01*
X218000Y46743D01*
X218015Y46654D01*
X218021Y46565D01*
X218042Y46499D01*
X218054Y46430D01*
X218091Y46348D01*
X218119Y46262D01*
X218156Y46203D01*
X218185Y46140D01*
X218241Y46070D01*
X218289Y45994D01*
X218340Y45946D01*
X218384Y45891D01*
X218455Y45837D01*
X218521Y45776D01*
X218582Y45742D01*
X218638Y45700D01*
X218782Y45629D01*
X221296Y44588D01*
X223976Y41908D01*
X225426Y38407D01*
X225426Y34618D01*
X223976Y31117D01*
X221296Y28437D01*
X217795Y26987D01*
X214005Y26987D01*
X210504Y28437D01*
X207824Y31117D01*
X206374Y34618D01*
X206374Y38407D01*
X206864Y39590D01*
X206872Y39618D01*
X206885Y39645D01*
X206914Y39771D01*
X206948Y39897D01*
X206949Y39926D01*
X206955Y39955D01*
X206951Y40085D01*
X206953Y40215D01*
X206946Y40243D01*
X206945Y40273D01*
X206909Y40397D01*
X206879Y40524D01*
X206865Y40550D01*
X206857Y40578D01*
X206791Y40690D01*
X206730Y40805D01*
X206710Y40827D01*
X206695Y40852D01*
X206589Y40973D01*
X172052Y75510D01*
X171974Y75571D01*
X171902Y75639D01*
X171849Y75668D01*
X171801Y75705D01*
X171710Y75744D01*
X171623Y75792D01*
X171565Y75807D01*
X171509Y75831D01*
X171411Y75847D01*
X171315Y75872D01*
X171215Y75878D01*
X171195Y75881D01*
X171183Y75880D01*
X171155Y75882D01*
X141519Y75882D01*
X141382Y75864D01*
X141243Y75851D01*
X141224Y75844D01*
X141204Y75842D01*
X141075Y75791D01*
X140944Y75744D01*
X140927Y75732D01*
X140908Y75725D01*
X140796Y75643D01*
X140681Y75565D01*
X140667Y75550D01*
X140651Y75538D01*
X140562Y75431D01*
X140470Y75327D01*
X140461Y75309D01*
X140448Y75293D01*
X140389Y75167D01*
X140325Y75043D01*
X140321Y75024D01*
X140312Y75005D01*
X140286Y74869D01*
X140256Y74733D01*
X140256Y74713D01*
X140253Y74693D01*
X140261Y74555D01*
X140265Y74415D01*
X140271Y74396D01*
X140272Y74376D01*
X140315Y74243D01*
X140354Y74110D01*
X140364Y74092D01*
X140370Y74073D01*
X140445Y73956D01*
X140515Y73836D01*
X140534Y73815D01*
X140541Y73804D01*
X140555Y73790D01*
X140622Y73715D01*
X161251Y53086D01*
X161306Y53043D01*
X161355Y52993D01*
X161431Y52946D01*
X161502Y52891D01*
X161566Y52863D01*
X161626Y52827D01*
X161712Y52800D01*
X161794Y52765D01*
X161863Y52754D01*
X161930Y52733D01*
X162019Y52729D01*
X162108Y52715D01*
X162178Y52721D01*
X162247Y52718D01*
X162335Y52736D01*
X162425Y52744D01*
X162491Y52768D01*
X162559Y52782D01*
X162640Y52822D01*
X162724Y52852D01*
X162782Y52891D01*
X162845Y52922D01*
X162913Y52980D01*
X162987Y53031D01*
X163033Y53083D01*
X163087Y53128D01*
X163138Y53202D01*
X163198Y53269D01*
X163230Y53331D01*
X163270Y53388D01*
X163302Y53472D01*
X163342Y53552D01*
X163358Y53620D01*
X163382Y53686D01*
X163392Y53775D01*
X163412Y53863D01*
X163410Y53932D01*
X163418Y54002D01*
X163405Y54091D01*
X163402Y54181D01*
X163383Y54248D01*
X163373Y54317D01*
X163321Y54469D01*
X162496Y56462D01*
X162496Y60251D01*
X163946Y63752D01*
X166626Y66432D01*
X170127Y67882D01*
X173916Y67882D01*
X177417Y66432D01*
X180097Y63752D01*
X181547Y60251D01*
X181547Y56462D01*
X180097Y52961D01*
X177417Y50281D01*
X176504Y49903D01*
X176461Y49878D01*
X176415Y49861D01*
X176324Y49800D01*
X176228Y49745D01*
X176193Y49711D01*
X176151Y49683D01*
X176079Y49600D01*
X176000Y49524D01*
X175974Y49482D01*
X175941Y49444D01*
X175891Y49346D01*
X175834Y49253D01*
X175819Y49205D01*
X175796Y49161D01*
X175772Y49054D01*
X175740Y48949D01*
X175738Y48899D01*
X175727Y48851D01*
X175730Y48741D01*
X175725Y48631D01*
X175735Y48583D01*
X175736Y48533D01*
X175767Y48428D01*
X175789Y48320D01*
X175811Y48275D01*
X175825Y48227D01*
X175880Y48133D01*
X175929Y48034D01*
X175961Y47996D01*
X175986Y47954D01*
X176093Y47833D01*
X181323Y42602D01*
X181417Y42529D01*
X181507Y42450D01*
X181543Y42432D01*
X181575Y42407D01*
X181684Y42360D01*
X181790Y42306D01*
X181829Y42297D01*
X181866Y42281D01*
X181984Y42262D01*
X182100Y42236D01*
X182140Y42237D01*
X182180Y42231D01*
X182299Y42242D01*
X182418Y42246D01*
X182457Y42257D01*
X182497Y42261D01*
X182609Y42301D01*
X182723Y42334D01*
X182758Y42355D01*
X182796Y42368D01*
X182895Y42435D01*
X182997Y42496D01*
X183043Y42536D01*
X183059Y42547D01*
X183073Y42562D01*
X183118Y42602D01*
X185104Y44588D01*
X188605Y46038D01*
X192395Y46038D01*
X195896Y44588D01*
X198576Y41908D01*
X200026Y38407D01*
X200026Y34618D01*
X198576Y31117D01*
X195896Y28437D01*
X192395Y26987D01*
X188605Y26987D01*
X185104Y28437D01*
X182424Y31117D01*
X181935Y32299D01*
X181920Y32325D01*
X181911Y32353D01*
X181841Y32463D01*
X181777Y32575D01*
X181757Y32597D01*
X181741Y32622D01*
X181646Y32711D01*
X181556Y32804D01*
X181531Y32819D01*
X181509Y32840D01*
X181395Y32902D01*
X181285Y32970D01*
X181256Y32979D01*
X181233Y32992D01*
X178761Y35464D01*
X176792Y37432D01*
X176683Y37517D01*
X176576Y37606D01*
X176557Y37615D01*
X176541Y37627D01*
X176413Y37683D01*
X176288Y37742D01*
X176268Y37745D01*
X176249Y37753D01*
X176111Y37775D01*
X175975Y37801D01*
X175955Y37800D01*
X175935Y37803D01*
X175796Y37790D01*
X175658Y37782D01*
X175639Y37775D01*
X175619Y37773D01*
X175487Y37726D01*
X175356Y37684D01*
X175338Y37673D01*
X175319Y37666D01*
X175204Y37588D01*
X175087Y37513D01*
X175073Y37499D01*
X175056Y37487D01*
X174964Y37383D01*
X174869Y37282D01*
X174859Y37264D01*
X174846Y37249D01*
X174782Y37125D01*
X174715Y37003D01*
X174710Y36984D01*
X174701Y36966D01*
X174671Y36830D01*
X174636Y36695D01*
X174634Y36667D01*
X174631Y36655D01*
X174632Y36635D01*
X174626Y36535D01*
X174626Y34618D01*
X173176Y31117D01*
X170496Y28437D01*
X166995Y26987D01*
X163205Y26987D01*
X159704Y28437D01*
X157024Y31117D01*
X155574Y34618D01*
X155574Y38407D01*
X156064Y39590D01*
X156072Y39618D01*
X156085Y39645D01*
X156114Y39771D01*
X156148Y39897D01*
X156149Y39926D01*
X156155Y39955D01*
X156151Y40085D01*
X156153Y40215D01*
X156146Y40243D01*
X156145Y40273D01*
X156109Y40397D01*
X156079Y40524D01*
X156065Y40550D01*
X156057Y40578D01*
X155991Y40690D01*
X155930Y40805D01*
X155910Y40827D01*
X155895Y40852D01*
X155789Y40973D01*
X131158Y65604D01*
X131080Y65665D01*
X131008Y65733D01*
X130955Y65762D01*
X130907Y65799D01*
X130816Y65838D01*
X130729Y65886D01*
X130671Y65901D01*
X130615Y65925D01*
X130517Y65941D01*
X130421Y65966D01*
X130321Y65972D01*
X130301Y65975D01*
X130289Y65974D01*
X130261Y65976D01*
X115914Y65976D01*
X115776Y65958D01*
X115637Y65945D01*
X115618Y65938D01*
X115598Y65936D01*
X115469Y65885D01*
X115338Y65838D01*
X115321Y65826D01*
X115303Y65819D01*
X115191Y65738D01*
X115075Y65659D01*
X115062Y65644D01*
X115045Y65632D01*
X114957Y65525D01*
X114865Y65421D01*
X114855Y65403D01*
X114842Y65387D01*
X114783Y65261D01*
X114720Y65137D01*
X114716Y65118D01*
X114707Y65099D01*
X114681Y64963D01*
X114650Y64827D01*
X114651Y64807D01*
X114647Y64787D01*
X114656Y64648D01*
X114660Y64509D01*
X114666Y64490D01*
X114667Y64470D01*
X114710Y64337D01*
X114748Y64204D01*
X114759Y64186D01*
X114765Y64167D01*
X114839Y64050D01*
X114910Y63930D01*
X114929Y63909D01*
X114935Y63898D01*
X114950Y63884D01*
X115016Y63809D01*
X115073Y63752D01*
X116523Y60251D01*
X116523Y56462D01*
X115073Y52961D01*
X115016Y52904D01*
X114931Y52794D01*
X114842Y52687D01*
X114834Y52669D01*
X114821Y52653D01*
X114766Y52525D01*
X114707Y52399D01*
X114703Y52380D01*
X114695Y52361D01*
X114673Y52224D01*
X114647Y52087D01*
X114648Y52067D01*
X114645Y52047D01*
X114658Y51908D01*
X114667Y51770D01*
X114673Y51750D01*
X114675Y51730D01*
X114722Y51599D01*
X114765Y51467D01*
X114776Y51450D01*
X114783Y51431D01*
X114861Y51316D01*
X114935Y51198D01*
X114950Y51184D01*
X114961Y51168D01*
X115065Y51076D01*
X115167Y50980D01*
X115184Y50971D01*
X115200Y50957D01*
X115323Y50894D01*
X115445Y50827D01*
X115465Y50822D01*
X115483Y50813D01*
X115619Y50782D01*
X115753Y50747D01*
X115781Y50746D01*
X115793Y50743D01*
X115814Y50744D01*
X115914Y50737D01*
X130326Y50737D01*
X135239Y45823D01*
X135263Y45805D01*
X135282Y45783D01*
X135388Y45708D01*
X135491Y45629D01*
X135518Y45617D01*
X135542Y45600D01*
X135663Y45554D01*
X135782Y45502D01*
X135812Y45498D01*
X135839Y45487D01*
X135968Y45473D01*
X136097Y45452D01*
X136126Y45455D01*
X136155Y45452D01*
X136284Y45470D01*
X136413Y45482D01*
X136441Y45492D01*
X136470Y45496D01*
X136623Y45548D01*
X137805Y46038D01*
X141595Y46038D01*
X145096Y44588D01*
X147776Y41908D01*
X149226Y38407D01*
X149226Y34618D01*
X147776Y31117D01*
X145096Y28437D01*
X141595Y26987D01*
X137805Y26987D01*
X134304Y28437D01*
X131624Y31117D01*
X130174Y34618D01*
X130174Y38407D01*
X130664Y39590D01*
X130672Y39618D01*
X130685Y39645D01*
X130714Y39771D01*
X130748Y39897D01*
X130749Y39926D01*
X130755Y39955D01*
X130751Y40085D01*
X130753Y40215D01*
X130746Y40243D01*
X130745Y40273D01*
X130709Y40398D01*
X130679Y40524D01*
X130665Y40550D01*
X130657Y40578D01*
X130591Y40690D01*
X130530Y40805D01*
X130510Y40827D01*
X130495Y40852D01*
X130389Y40973D01*
X127856Y43506D01*
X127778Y43567D01*
X127706Y43635D01*
X127653Y43664D01*
X127605Y43701D01*
X127514Y43740D01*
X127427Y43788D01*
X127369Y43803D01*
X127313Y43827D01*
X127215Y43843D01*
X127119Y43868D01*
X127019Y43874D01*
X126999Y43877D01*
X126987Y43876D01*
X126959Y43878D01*
X123459Y43878D01*
X123410Y43872D01*
X123360Y43874D01*
X123253Y43852D01*
X123144Y43838D01*
X123098Y43820D01*
X123049Y43810D01*
X122950Y43761D01*
X122848Y43721D01*
X122808Y43692D01*
X122763Y43670D01*
X122680Y43599D01*
X122591Y43534D01*
X122559Y43496D01*
X122521Y43464D01*
X122458Y43374D01*
X122388Y43289D01*
X122367Y43244D01*
X122338Y43203D01*
X122299Y43101D01*
X122252Y43001D01*
X122243Y42953D01*
X122225Y42906D01*
X122213Y42797D01*
X122193Y42689D01*
X122196Y42640D01*
X122190Y42590D01*
X122206Y42481D01*
X122212Y42372D01*
X122228Y42324D01*
X122235Y42275D01*
X122287Y42123D01*
X123826Y38407D01*
X123826Y34618D01*
X122376Y31117D01*
X119696Y28437D01*
X116195Y26987D01*
X112405Y26987D01*
X108904Y28437D01*
X106224Y31117D01*
X105735Y32299D01*
X105720Y32325D01*
X105711Y32353D01*
X105641Y32463D01*
X105577Y32575D01*
X105557Y32597D01*
X105541Y32622D01*
X105446Y32711D01*
X105356Y32804D01*
X105331Y32819D01*
X105309Y32840D01*
X105195Y32902D01*
X105085Y32970D01*
X105056Y32979D01*
X105031Y32993D01*
X104905Y33026D01*
X104781Y33064D01*
X104751Y33065D01*
X104723Y33073D01*
X104562Y33083D01*
X103105Y33083D01*
X100592Y35595D01*
X100483Y35681D01*
X100376Y35769D01*
X100357Y35778D01*
X100341Y35790D01*
X100213Y35846D01*
X100088Y35905D01*
X100068Y35909D01*
X100049Y35917D01*
X99911Y35939D01*
X99775Y35965D01*
X99755Y35963D01*
X99735Y35966D01*
X99596Y35953D01*
X99458Y35945D01*
X99439Y35939D01*
X99419Y35937D01*
X99287Y35889D01*
X99156Y35847D01*
X99138Y35836D01*
X99119Y35829D01*
X99004Y35751D01*
X98887Y35677D01*
X98873Y35662D01*
X98856Y35650D01*
X98764Y35546D01*
X98669Y35445D01*
X98659Y35427D01*
X98646Y35412D01*
X98582Y35288D01*
X98515Y35166D01*
X98510Y35147D01*
X98501Y35129D01*
X98471Y34993D01*
X98436Y34859D01*
X98434Y34830D01*
X98431Y34819D01*
X98432Y34798D01*
X98426Y34698D01*
X98426Y34618D01*
X96976Y31117D01*
X94296Y28437D01*
X90795Y26987D01*
X87005Y26987D01*
X83504Y28437D01*
X80824Y31117D01*
X79374Y34618D01*
X79374Y38407D01*
X79791Y39414D01*
X79799Y39442D01*
X79812Y39468D01*
X79841Y39595D01*
X79875Y39720D01*
X79876Y39750D01*
X79882Y39779D01*
X79878Y39908D01*
X79880Y40038D01*
X79873Y40067D01*
X79872Y40097D01*
X79836Y40221D01*
X79806Y40348D01*
X79792Y40374D01*
X79784Y40402D01*
X79718Y40514D01*
X79657Y40629D01*
X79637Y40651D01*
X79622Y40676D01*
X79516Y40797D01*
X71600Y48713D01*
X71522Y48774D01*
X71449Y48842D01*
X71396Y48871D01*
X71349Y48908D01*
X71258Y48947D01*
X71171Y48995D01*
X71112Y49010D01*
X71057Y49034D01*
X70959Y49050D01*
X70863Y49075D01*
X70763Y49081D01*
X70743Y49084D01*
X70730Y49083D01*
X70702Y49085D01*
X58593Y49085D01*
X58455Y49067D01*
X58317Y49054D01*
X58298Y49047D01*
X58277Y49045D01*
X58148Y48994D01*
X58017Y48947D01*
X58001Y48935D01*
X57982Y48928D01*
X57869Y48846D01*
X57754Y48768D01*
X57741Y48753D01*
X57724Y48741D01*
X57635Y48634D01*
X57544Y48530D01*
X57535Y48512D01*
X57522Y48496D01*
X57462Y48370D01*
X57399Y48246D01*
X57395Y48227D01*
X57386Y48208D01*
X57360Y48071D01*
X57330Y47936D01*
X57330Y47916D01*
X57326Y47896D01*
X57335Y47757D01*
X57339Y47618D01*
X57345Y47599D01*
X57346Y47579D01*
X57389Y47446D01*
X57428Y47313D01*
X57438Y47295D01*
X57444Y47276D01*
X57519Y47158D01*
X57589Y47039D01*
X57608Y47018D01*
X57614Y47007D01*
X57629Y46993D01*
X57696Y46918D01*
X57950Y46664D01*
X58028Y46603D01*
X58100Y46535D01*
X58153Y46506D01*
X58201Y46469D01*
X58292Y46430D01*
X58378Y46382D01*
X58437Y46367D01*
X58493Y46343D01*
X58525Y46338D01*
X59039Y45824D01*
X59063Y45805D01*
X59082Y45783D01*
X59188Y45708D01*
X59291Y45629D01*
X59318Y45617D01*
X59342Y45600D01*
X59463Y45554D01*
X59582Y45502D01*
X59612Y45498D01*
X59639Y45487D01*
X59768Y45473D01*
X59897Y45452D01*
X59926Y45455D01*
X59955Y45452D01*
X60084Y45470D01*
X60213Y45482D01*
X60241Y45492D01*
X60270Y45496D01*
X60423Y45548D01*
X61605Y46038D01*
X65395Y46038D01*
X68896Y44588D01*
X71576Y41908D01*
X73026Y38407D01*
X73026Y34618D01*
X71576Y31117D01*
X68896Y28437D01*
X65395Y26987D01*
X61605Y26987D01*
X58104Y28437D01*
X55424Y31117D01*
X53974Y34618D01*
X53974Y38407D01*
X54391Y39414D01*
X54399Y39442D01*
X54412Y39468D01*
X54441Y39595D01*
X54475Y39720D01*
X54476Y39750D01*
X54482Y39779D01*
X54478Y39908D01*
X54480Y40038D01*
X54473Y40067D01*
X54472Y40097D01*
X54436Y40221D01*
X54406Y40348D01*
X54392Y40374D01*
X54384Y40402D01*
X54318Y40514D01*
X54257Y40629D01*
X54237Y40651D01*
X54222Y40676D01*
X54116Y40797D01*
X51153Y43760D01*
X51075Y43821D01*
X51002Y43889D01*
X50949Y43918D01*
X50902Y43955D01*
X50811Y43994D01*
X50724Y44042D01*
X50665Y44057D01*
X50610Y44081D01*
X50512Y44097D01*
X50416Y44122D01*
X50316Y44128D01*
X50296Y44131D01*
X50283Y44130D01*
X50255Y44132D01*
X47016Y44132D01*
X46879Y44114D01*
X46740Y44101D01*
X46721Y44094D01*
X46701Y44092D01*
X46572Y44041D01*
X46441Y43994D01*
X46424Y43982D01*
X46405Y43975D01*
X46293Y43894D01*
X46178Y43815D01*
X46164Y43800D01*
X46148Y43788D01*
X46059Y43681D01*
X45967Y43577D01*
X45958Y43559D01*
X45945Y43543D01*
X45886Y43417D01*
X45822Y43293D01*
X45818Y43274D01*
X45809Y43255D01*
X45783Y43119D01*
X45753Y42983D01*
X45753Y42963D01*
X45750Y42943D01*
X45758Y42804D01*
X45763Y42665D01*
X45768Y42646D01*
X45769Y42626D01*
X45812Y42493D01*
X45851Y42360D01*
X45861Y42342D01*
X45867Y42323D01*
X45942Y42206D01*
X46013Y42086D01*
X46031Y42065D01*
X46038Y42054D01*
X46053Y42040D01*
X46119Y41965D01*
X46176Y41908D01*
X47626Y38407D01*
X47626Y34618D01*
X46176Y31117D01*
X43496Y28437D01*
X39995Y26987D01*
X36205Y26987D01*
X32704Y28437D01*
X30024Y31117D01*
X29535Y32299D01*
X29520Y32325D01*
X29511Y32353D01*
X29441Y32463D01*
X29377Y32575D01*
X29357Y32597D01*
X29341Y32622D01*
X29246Y32711D01*
X29156Y32804D01*
X29131Y32819D01*
X29109Y32840D01*
X28995Y32902D01*
X28885Y32970D01*
X28856Y32979D01*
X28831Y32993D01*
X28705Y33026D01*
X28581Y33064D01*
X28551Y33065D01*
X28523Y33073D01*
X28362Y33083D01*
X26905Y33083D01*
X24392Y35595D01*
X24283Y35681D01*
X24176Y35769D01*
X24157Y35778D01*
X24141Y35790D01*
X24013Y35846D01*
X23888Y35905D01*
X23868Y35909D01*
X23849Y35917D01*
X23711Y35939D01*
X23575Y35965D01*
X23555Y35963D01*
X23535Y35966D01*
X23396Y35953D01*
X23258Y35945D01*
X23239Y35939D01*
X23219Y35937D01*
X23087Y35889D01*
X22956Y35847D01*
X22938Y35836D01*
X22919Y35829D01*
X22804Y35751D01*
X22687Y35677D01*
X22673Y35662D01*
X22656Y35650D01*
X22564Y35546D01*
X22469Y35445D01*
X22459Y35427D01*
X22446Y35412D01*
X22382Y35288D01*
X22315Y35166D01*
X22310Y35147D01*
X22301Y35129D01*
X22271Y34993D01*
X22236Y34859D01*
X22234Y34830D01*
X22231Y34819D01*
X22232Y34798D01*
X22226Y34698D01*
X22226Y34618D01*
X20776Y31117D01*
X18096Y28437D01*
X14595Y26987D01*
X10805Y26987D01*
X7304Y28437D01*
X4624Y31117D01*
X4135Y32299D01*
X4120Y32325D01*
X4111Y32353D01*
X4041Y32463D01*
X3977Y32575D01*
X3957Y32597D01*
X3941Y32622D01*
X3846Y32711D01*
X3756Y32804D01*
X3731Y32819D01*
X3709Y32840D01*
X3595Y32902D01*
X3485Y32970D01*
X3456Y32979D01*
X3431Y32993D01*
X3305Y33026D01*
X3181Y33064D01*
X3151Y33065D01*
X3123Y33073D01*
X2962Y33083D01*
X1505Y33083D01*
X-1008Y35595D01*
X-1117Y35680D01*
X-1224Y35769D01*
X-1243Y35778D01*
X-1259Y35790D01*
X-1386Y35846D01*
X-1512Y35905D01*
X-1532Y35909D01*
X-1551Y35917D01*
X-1689Y35939D01*
X-1825Y35965D01*
X-1845Y35963D01*
X-1865Y35966D01*
X-2004Y35953D01*
X-2142Y35945D01*
X-2161Y35939D01*
X-2181Y35937D01*
X-2313Y35889D01*
X-2444Y35847D01*
X-2462Y35836D01*
X-2481Y35829D01*
X-2596Y35751D01*
X-2713Y35677D01*
X-2727Y35662D01*
X-2744Y35650D01*
X-2836Y35546D01*
X-2931Y35445D01*
X-2941Y35427D01*
X-2954Y35412D01*
X-3018Y35288D01*
X-3085Y35166D01*
X-3090Y35147D01*
X-3099Y35129D01*
X-3129Y34993D01*
X-3164Y34859D01*
X-3166Y34830D01*
X-3169Y34819D01*
X-3168Y34798D01*
X-3174Y34698D01*
X-3174Y34618D01*
X-4624Y31117D01*
X-7304Y28437D01*
X-10805Y26987D01*
X-14595Y26987D01*
X-18096Y28437D01*
X-20776Y31117D01*
X-22226Y34618D01*
X-22226Y37487D01*
X-22238Y37585D01*
X-22241Y37684D01*
X-22258Y37743D01*
X-22266Y37803D01*
X-22302Y37895D01*
X-22330Y37990D01*
X-22360Y38042D01*
X-22383Y38098D01*
X-22441Y38178D01*
X-22491Y38264D01*
X-22557Y38339D01*
X-22569Y38356D01*
X-22579Y38363D01*
X-22597Y38385D01*
X-32504Y48291D01*
X-32613Y48376D01*
X-32720Y48465D01*
X-32739Y48473D01*
X-32755Y48486D01*
X-32883Y48541D01*
X-33008Y48600D01*
X-33028Y48604D01*
X-33047Y48612D01*
X-33185Y48634D01*
X-33321Y48660D01*
X-33341Y48659D01*
X-33361Y48662D01*
X-33500Y48649D01*
X-33638Y48640D01*
X-33657Y48634D01*
X-33677Y48632D01*
X-33809Y48585D01*
X-33940Y48542D01*
X-33958Y48531D01*
X-33977Y48524D01*
X-34092Y48446D01*
X-34209Y48372D01*
X-34223Y48357D01*
X-34240Y48346D01*
X-34332Y48242D01*
X-34427Y48140D01*
X-34437Y48123D01*
X-34450Y48107D01*
X-34514Y47983D01*
X-34581Y47862D01*
X-34586Y47842D01*
X-34595Y47824D01*
X-34625Y47688D01*
X-34660Y47554D01*
X-34662Y47526D01*
X-34665Y47514D01*
X-34664Y47493D01*
X-34670Y47393D01*
X-34670Y46251D01*
X-34667Y46221D01*
X-34669Y46192D01*
X-34647Y46064D01*
X-34630Y45935D01*
X-34620Y45908D01*
X-34615Y45878D01*
X-34561Y45760D01*
X-34513Y45639D01*
X-34496Y45615D01*
X-34484Y45588D01*
X-34403Y45487D01*
X-34327Y45382D01*
X-34304Y45363D01*
X-34285Y45340D01*
X-34182Y45262D01*
X-34082Y45179D01*
X-34055Y45167D01*
X-34031Y45149D01*
X-33887Y45078D01*
X-32704Y44588D01*
X-30024Y41908D01*
X-28574Y38407D01*
X-28574Y34618D01*
X-30024Y31117D01*
X-32704Y28437D01*
X-36205Y26987D01*
X-39995Y26987D01*
X-43496Y28437D01*
X-46176Y31117D01*
X-47626Y34618D01*
X-47626Y38407D01*
X-46176Y41908D01*
X-43496Y44588D01*
X-42313Y45078D01*
X-42288Y45093D01*
X-42260Y45102D01*
X-42150Y45171D01*
X-42037Y45235D01*
X-42016Y45256D01*
X-41991Y45272D01*
X-41902Y45366D01*
X-41809Y45457D01*
X-41793Y45482D01*
X-41773Y45503D01*
X-41710Y45617D01*
X-41642Y45728D01*
X-41634Y45756D01*
X-41619Y45782D01*
X-41587Y45908D01*
X-41549Y46032D01*
X-41547Y46061D01*
X-41540Y46090D01*
X-41530Y46251D01*
X-41530Y68065D01*
X-41547Y68203D01*
X-41560Y68342D01*
X-41567Y68361D01*
X-41570Y68381D01*
X-41621Y68510D01*
X-41668Y68641D01*
X-41679Y68658D01*
X-41687Y68676D01*
X-41768Y68789D01*
X-41846Y68904D01*
X-41862Y68917D01*
X-41873Y68934D01*
X-41981Y69022D01*
X-42085Y69115D01*
X-42103Y69124D01*
X-42118Y69137D01*
X-42244Y69196D01*
X-42368Y69259D01*
X-42388Y69264D01*
X-42406Y69272D01*
X-42542Y69298D01*
X-42678Y69329D01*
X-42699Y69328D01*
X-42718Y69332D01*
X-42857Y69323D01*
X-42996Y69319D01*
X-43016Y69313D01*
X-43036Y69312D01*
X-43168Y69269D01*
X-43302Y69231D01*
X-43319Y69220D01*
X-43338Y69214D01*
X-43456Y69140D01*
X-43576Y69069D01*
X-43597Y69051D01*
X-43607Y69044D01*
X-43621Y69029D01*
X-43696Y68963D01*
X-59699Y52961D01*
X-59759Y52882D01*
X-59827Y52810D01*
X-59856Y52757D01*
X-59893Y52709D01*
X-59933Y52618D01*
X-59981Y52532D01*
X-59996Y52473D01*
X-60020Y52418D01*
X-60035Y52320D01*
X-60060Y52224D01*
X-60066Y52124D01*
X-60070Y52103D01*
X-60068Y52091D01*
X-60070Y52063D01*
X-60070Y46251D01*
X-60067Y46221D01*
X-60069Y46192D01*
X-60047Y46064D01*
X-60030Y45935D01*
X-60020Y45908D01*
X-60015Y45878D01*
X-59961Y45760D01*
X-59913Y45639D01*
X-59896Y45615D01*
X-59884Y45588D01*
X-59803Y45487D01*
X-59727Y45382D01*
X-59704Y45363D01*
X-59685Y45340D01*
X-59582Y45262D01*
X-59482Y45179D01*
X-59455Y45167D01*
X-59431Y45149D01*
X-59287Y45078D01*
X-58104Y44588D01*
X-55424Y41908D01*
X-53974Y38407D01*
X-53974Y34618D01*
X-55424Y31117D01*
X-58104Y28437D01*
X-61605Y26987D01*
X-65395Y26987D01*
X-68896Y28437D01*
X-71576Y31117D01*
X-73026Y34618D01*
X-73026Y38407D01*
X-71576Y41908D01*
X-68896Y44588D01*
X-67713Y45078D01*
X-67688Y45093D01*
X-67660Y45102D01*
X-67550Y45171D01*
X-67437Y45235D01*
X-67416Y45256D01*
X-67391Y45272D01*
X-67302Y45366D01*
X-67209Y45457D01*
X-67193Y45482D01*
X-67173Y45503D01*
X-67110Y45617D01*
X-67042Y45728D01*
X-67034Y45756D01*
X-67019Y45782D01*
X-66987Y45908D01*
X-66949Y46032D01*
X-66947Y46061D01*
X-66940Y46090D01*
X-66930Y46251D01*
X-66930Y49738D01*
X-66947Y49875D01*
X-66960Y50014D01*
X-66967Y50033D01*
X-66970Y50053D01*
X-67021Y50182D01*
X-67068Y50313D01*
X-67079Y50330D01*
X-67087Y50349D01*
X-67168Y50461D01*
X-67246Y50577D01*
X-67262Y50590D01*
X-67273Y50606D01*
X-67381Y50695D01*
X-67485Y50787D01*
X-67503Y50796D01*
X-67518Y50809D01*
X-67644Y50868D01*
X-67768Y50932D01*
X-67788Y50936D01*
X-67806Y50945D01*
X-67942Y50971D01*
X-68078Y51001D01*
X-68099Y51001D01*
X-68118Y51004D01*
X-68257Y50996D01*
X-68396Y50992D01*
X-68416Y50986D01*
X-68436Y50985D01*
X-68568Y50942D01*
X-68702Y50903D01*
X-68719Y50893D01*
X-68738Y50887D01*
X-68856Y50812D01*
X-68976Y50742D01*
X-68997Y50723D01*
X-69007Y50717D01*
X-69021Y50702D01*
X-69096Y50635D01*
X-79346Y40386D01*
X-79364Y40363D01*
X-79386Y40343D01*
X-79461Y40237D01*
X-79541Y40135D01*
X-79552Y40108D01*
X-79569Y40083D01*
X-79615Y39962D01*
X-79667Y39843D01*
X-79672Y39814D01*
X-79682Y39786D01*
X-79697Y39657D01*
X-79717Y39529D01*
X-79714Y39499D01*
X-79717Y39470D01*
X-79699Y39341D01*
X-79687Y39212D01*
X-79677Y39184D01*
X-79673Y39155D01*
X-79621Y39003D01*
X-79374Y38407D01*
X-79374Y34618D01*
X-80824Y31117D01*
X-83504Y28437D01*
X-87005Y26987D01*
X-90795Y26987D01*
X-94296Y28437D01*
X-96976Y31117D01*
X-98426Y34618D01*
X-98426Y34698D01*
X-98443Y34835D01*
X-98456Y34974D01*
X-98463Y34993D01*
X-98466Y35013D01*
X-98517Y35142D01*
X-98564Y35273D01*
X-98575Y35290D01*
X-98583Y35309D01*
X-98664Y35422D01*
X-98742Y35537D01*
X-98758Y35550D01*
X-98769Y35566D01*
X-98877Y35655D01*
X-98981Y35747D01*
X-98999Y35756D01*
X-99014Y35769D01*
X-99140Y35828D01*
X-99264Y35892D01*
X-99284Y35896D01*
X-99302Y35905D01*
X-99438Y35931D01*
X-99574Y35961D01*
X-99595Y35961D01*
X-99614Y35965D01*
X-99753Y35956D01*
X-99892Y35952D01*
X-99912Y35946D01*
X-99932Y35945D01*
X-100064Y35902D01*
X-100198Y35863D01*
X-100215Y35853D01*
X-100234Y35847D01*
X-100352Y35772D01*
X-100472Y35702D01*
X-100493Y35683D01*
X-100503Y35677D01*
X-100517Y35662D01*
X-100592Y35595D01*
X-103105Y33083D01*
X-104562Y33083D01*
X-104591Y33079D01*
X-104621Y33081D01*
X-104749Y33059D01*
X-104878Y33043D01*
X-104905Y33032D01*
X-104934Y33027D01*
X-105053Y32974D01*
X-105173Y32926D01*
X-105197Y32909D01*
X-105224Y32896D01*
X-105325Y32815D01*
X-105431Y32739D01*
X-105449Y32716D01*
X-105472Y32698D01*
X-105551Y32594D01*
X-105633Y32494D01*
X-105646Y32467D01*
X-105664Y32444D01*
X-105735Y32299D01*
X-106224Y31117D01*
X-108904Y28437D01*
X-112405Y26987D01*
X-116195Y26987D01*
X-119696Y28437D01*
X-122376Y31117D01*
X-123826Y34618D01*
X-123826Y34698D01*
X-123843Y34835D01*
X-123856Y34974D01*
X-123863Y34993D01*
X-123866Y35013D01*
X-123917Y35142D01*
X-123964Y35273D01*
X-123975Y35290D01*
X-123983Y35309D01*
X-124064Y35422D01*
X-124142Y35537D01*
X-124158Y35550D01*
X-124169Y35566D01*
X-124277Y35655D01*
X-124381Y35747D01*
X-124399Y35756D01*
X-124414Y35769D01*
X-124540Y35828D01*
X-124664Y35892D01*
X-124684Y35896D01*
X-124702Y35905D01*
X-124838Y35931D01*
X-124974Y35961D01*
X-124995Y35961D01*
X-125014Y35965D01*
X-125153Y35956D01*
X-125292Y35952D01*
X-125312Y35946D01*
X-125332Y35945D01*
X-125464Y35902D01*
X-125598Y35863D01*
X-125615Y35853D01*
X-125634Y35847D01*
X-125752Y35772D01*
X-125872Y35702D01*
X-125893Y35683D01*
X-125903Y35677D01*
X-125917Y35662D01*
X-125992Y35595D01*
X-128505Y33083D01*
X-129962Y33083D01*
X-129991Y33079D01*
X-130021Y33081D01*
X-130149Y33059D01*
X-130278Y33043D01*
X-130305Y33032D01*
X-130334Y33027D01*
X-130453Y32974D01*
X-130573Y32926D01*
X-130597Y32909D01*
X-130624Y32896D01*
X-130725Y32815D01*
X-130831Y32739D01*
X-130849Y32716D01*
X-130872Y32698D01*
X-130951Y32594D01*
X-131033Y32494D01*
X-131046Y32467D01*
X-131064Y32444D01*
X-131135Y32299D01*
X-131624Y31117D01*
X-134304Y28437D01*
X-137805Y26987D01*
X-141595Y26987D01*
X-145096Y28437D01*
X-147776Y31117D01*
X-149226Y34618D01*
X-149226Y34698D01*
X-149243Y34835D01*
X-149256Y34974D01*
X-149263Y34993D01*
X-149266Y35013D01*
X-149317Y35142D01*
X-149364Y35273D01*
X-149375Y35290D01*
X-149383Y35309D01*
X-149464Y35422D01*
X-149542Y35537D01*
X-149558Y35550D01*
X-149569Y35566D01*
X-149677Y35655D01*
X-149781Y35747D01*
X-149799Y35756D01*
X-149814Y35769D01*
X-149940Y35828D01*
X-150064Y35892D01*
X-150084Y35896D01*
X-150102Y35905D01*
X-150238Y35931D01*
X-150374Y35961D01*
X-150395Y35961D01*
X-150414Y35965D01*
X-150553Y35956D01*
X-150692Y35952D01*
X-150712Y35946D01*
X-150732Y35945D01*
X-150864Y35902D01*
X-150998Y35863D01*
X-151015Y35853D01*
X-151034Y35847D01*
X-151152Y35772D01*
X-151272Y35702D01*
X-151293Y35683D01*
X-151303Y35677D01*
X-151317Y35662D01*
X-151392Y35595D01*
X-153905Y33083D01*
X-155362Y33083D01*
X-155391Y33079D01*
X-155421Y33081D01*
X-155549Y33059D01*
X-155678Y33043D01*
X-155705Y33032D01*
X-155734Y33027D01*
X-155853Y32974D01*
X-155973Y32926D01*
X-155997Y32909D01*
X-156024Y32896D01*
X-156125Y32815D01*
X-156231Y32739D01*
X-156249Y32716D01*
X-156272Y32698D01*
X-156351Y32594D01*
X-156433Y32494D01*
X-156446Y32467D01*
X-156464Y32444D01*
X-156535Y32299D01*
X-157024Y31117D01*
X-159704Y28437D01*
X-163205Y26987D01*
X-166995Y26987D01*
X-170496Y28437D01*
X-173176Y31117D01*
X-174626Y34618D01*
X-174626Y34698D01*
X-174643Y34835D01*
X-174656Y34974D01*
X-174663Y34993D01*
X-174666Y35013D01*
X-174717Y35142D01*
X-174764Y35273D01*
X-174775Y35290D01*
X-174783Y35309D01*
X-174864Y35422D01*
X-174942Y35537D01*
X-174958Y35550D01*
X-174969Y35566D01*
X-175077Y35655D01*
X-175181Y35747D01*
X-175199Y35756D01*
X-175214Y35769D01*
X-175340Y35828D01*
X-175464Y35892D01*
X-175484Y35896D01*
X-175502Y35905D01*
X-175638Y35931D01*
X-175774Y35961D01*
X-175795Y35961D01*
X-175814Y35965D01*
X-175953Y35956D01*
X-176092Y35952D01*
X-176112Y35946D01*
X-176132Y35945D01*
X-176264Y35902D01*
X-176398Y35863D01*
X-176415Y35853D01*
X-176434Y35847D01*
X-176552Y35772D01*
X-176672Y35702D01*
X-176693Y35683D01*
X-176703Y35677D01*
X-176717Y35662D01*
X-176792Y35595D01*
X-179305Y33083D01*
X-180762Y33083D01*
X-180791Y33079D01*
X-180821Y33081D01*
X-180949Y33059D01*
X-181078Y33043D01*
X-181105Y33032D01*
X-181134Y33027D01*
X-181253Y32974D01*
X-181373Y32926D01*
X-181397Y32909D01*
X-181424Y32896D01*
X-181525Y32815D01*
X-181631Y32739D01*
X-181649Y32716D01*
X-181672Y32698D01*
X-181751Y32594D01*
X-181833Y32494D01*
X-181846Y32467D01*
X-181864Y32444D01*
X-181935Y32299D01*
X-182424Y31117D01*
X-185104Y28437D01*
X-188605Y26987D01*
X-192395Y26987D01*
X-195896Y28437D01*
X-198576Y31117D01*
X-200026Y34618D01*
X-200026Y38407D01*
X-198576Y41908D01*
X-198519Y41965D01*
X-198434Y42075D01*
X-198345Y42182D01*
X-198336Y42200D01*
X-198324Y42216D01*
X-198269Y42344D01*
X-198209Y42470D01*
X-198206Y42489D01*
X-198198Y42508D01*
X-198176Y42645D01*
X-198150Y42782D01*
X-198151Y42802D01*
X-198148Y42822D01*
X-198161Y42961D01*
X-198169Y43099D01*
X-198176Y43119D01*
X-198178Y43139D01*
X-198225Y43270D01*
X-198267Y43402D01*
X-198278Y43419D01*
X-198285Y43438D01*
X-198363Y43553D01*
X-198438Y43671D01*
X-198452Y43685D01*
X-198464Y43701D01*
X-198568Y43793D01*
X-198669Y43889D01*
X-198687Y43898D01*
X-198702Y43912D01*
X-198826Y43975D01*
X-198948Y44042D01*
X-198967Y44047D01*
X-198985Y44056D01*
X-199121Y44087D01*
X-199256Y44122D01*
X-199284Y44123D01*
X-199296Y44126D01*
X-199316Y44125D01*
X-199416Y44132D01*
X-202905Y44132D01*
X-203003Y44119D01*
X-203102Y44116D01*
X-203160Y44100D01*
X-203220Y44092D01*
X-203312Y44055D01*
X-203407Y44028D01*
X-203460Y43997D01*
X-203516Y43975D01*
X-203596Y43917D01*
X-203681Y43866D01*
X-203757Y43800D01*
X-203773Y43788D01*
X-203781Y43779D01*
X-203802Y43760D01*
X-206589Y40973D01*
X-206607Y40950D01*
X-206630Y40931D01*
X-206704Y40825D01*
X-206784Y40722D01*
X-206796Y40695D01*
X-206813Y40671D01*
X-206859Y40549D01*
X-206910Y40430D01*
X-206915Y40401D01*
X-206925Y40373D01*
X-206940Y40244D01*
X-206960Y40116D01*
X-206957Y40086D01*
X-206961Y40057D01*
X-206943Y39929D01*
X-206930Y39799D01*
X-206920Y39771D01*
X-206916Y39742D01*
X-206864Y39590D01*
X-206374Y38407D01*
X-206374Y34618D01*
X-207824Y31117D01*
X-210504Y28437D01*
X-214005Y26987D01*
X-217795Y26987D01*
X-221296Y28437D01*
X-223976Y31117D01*
X-225426Y34618D01*
X-225426Y38407D01*
X-223976Y41908D01*
X-221296Y44588D01*
X-217795Y46038D01*
X-214005Y46038D01*
X-212823Y45548D01*
X-212794Y45541D01*
X-212768Y45527D01*
X-212641Y45499D01*
X-212516Y45464D01*
X-212486Y45464D01*
X-212458Y45457D01*
X-212328Y45461D01*
X-212198Y45459D01*
X-212169Y45466D01*
X-212140Y45467D01*
X-212015Y45503D01*
X-211889Y45534D01*
X-211862Y45547D01*
X-211834Y45556D01*
X-211722Y45621D01*
X-211607Y45682D01*
X-211586Y45702D01*
X-211560Y45717D01*
X-211439Y45823D01*
X-210345Y46918D01*
X-210260Y47028D01*
X-210171Y47135D01*
X-210162Y47153D01*
X-210150Y47169D01*
X-210094Y47297D01*
X-210035Y47423D01*
X-210032Y47442D01*
X-210024Y47461D01*
X-210002Y47599D01*
X-209976Y47735D01*
X-209977Y47755D01*
X-209974Y47775D01*
X-209987Y47914D01*
X-209995Y48052D01*
X-210002Y48072D01*
X-210004Y48092D01*
X-210051Y48223D01*
X-210093Y48355D01*
X-210104Y48372D01*
X-210111Y48391D01*
X-210189Y48506D01*
X-210264Y48624D01*
X-210278Y48638D01*
X-210290Y48654D01*
X-210394Y48746D01*
X-210495Y48842D01*
X-210513Y48851D01*
X-210528Y48865D01*
X-210652Y48928D01*
X-210774Y48995D01*
X-210793Y49000D01*
X-210811Y49009D01*
X-210947Y49040D01*
X-211082Y49075D01*
X-211110Y49076D01*
X-211122Y49079D01*
X-211142Y49078D01*
X-211242Y49085D01*
X-223352Y49085D01*
X-223450Y49072D01*
X-223549Y49069D01*
X-223607Y49053D01*
X-223667Y49045D01*
X-223759Y49008D01*
X-223854Y48981D01*
X-223907Y48950D01*
X-223963Y48928D01*
X-224043Y48870D01*
X-224128Y48819D01*
X-224204Y48753D01*
X-224220Y48741D01*
X-224228Y48732D01*
X-224249Y48713D01*
X-231989Y40973D01*
X-232007Y40950D01*
X-232030Y40931D01*
X-232104Y40825D01*
X-232184Y40722D01*
X-232196Y40695D01*
X-232213Y40671D01*
X-232259Y40549D01*
X-232310Y40430D01*
X-232315Y40401D01*
X-232325Y40373D01*
X-232340Y40244D01*
X-232360Y40116D01*
X-232357Y40086D01*
X-232361Y40057D01*
X-232343Y39929D01*
X-232330Y39799D01*
X-232320Y39771D01*
X-232316Y39742D01*
X-232264Y39590D01*
X-231774Y38407D01*
X-231774Y34618D01*
X-233224Y31117D01*
X-235904Y28437D01*
X-239405Y26987D01*
X-243195Y26987D01*
G37*
%LPD*%
G36*
X406Y73621D02*
X406Y73621D01*
X525Y73625D01*
X563Y73636D01*
X604Y73640D01*
X716Y73680D01*
X830Y73713D01*
X865Y73734D01*
X903Y73748D01*
X1001Y73814D01*
X1104Y73875D01*
X1149Y73915D01*
X1166Y73926D01*
X1180Y73941D01*
X1225Y73981D01*
X13640Y86397D01*
X24694Y97451D01*
X28230Y100987D01*
X28231Y100987D01*
X31322Y104078D01*
X31322Y104079D01*
X38395Y111152D01*
X40646Y113402D01*
X40719Y113497D01*
X40798Y113586D01*
X40816Y113622D01*
X40841Y113654D01*
X40888Y113763D01*
X40942Y113869D01*
X40951Y113908D01*
X40967Y113946D01*
X40986Y114063D01*
X41012Y114179D01*
X41011Y114220D01*
X41017Y114260D01*
X41006Y114378D01*
X41002Y114497D01*
X40991Y114536D01*
X40987Y114576D01*
X40947Y114688D01*
X40914Y114803D01*
X40894Y114837D01*
X40880Y114876D01*
X40813Y114974D01*
X40752Y115077D01*
X40713Y115122D01*
X40701Y115139D01*
X40686Y115152D01*
X40646Y115197D01*
X38840Y117003D01*
X28231Y127613D01*
X13640Y142203D01*
X1225Y154619D01*
X1131Y154692D01*
X1041Y154770D01*
X1006Y154789D01*
X974Y154814D01*
X864Y154861D01*
X758Y154915D01*
X719Y154924D01*
X682Y154940D01*
X564Y154959D01*
X448Y154985D01*
X408Y154984D01*
X368Y154990D01*
X249Y154979D01*
X130Y154975D01*
X91Y154964D01*
X51Y154960D01*
X-61Y154920D01*
X-175Y154887D01*
X-210Y154866D01*
X-248Y154852D01*
X-347Y154786D01*
X-449Y154725D01*
X-495Y154685D01*
X-511Y154674D01*
X-525Y154659D01*
X-570Y154619D01*
X-2376Y152813D01*
X-12985Y142203D01*
X-12986Y142203D01*
X-27576Y127613D01*
X-37741Y117448D01*
X-39991Y115197D01*
X-40065Y115103D01*
X-40143Y115014D01*
X-40162Y114978D01*
X-40186Y114946D01*
X-40234Y114837D01*
X-40288Y114731D01*
X-40297Y114692D01*
X-40313Y114654D01*
X-40331Y114537D01*
X-40357Y114421D01*
X-40356Y114380D01*
X-40363Y114340D01*
X-40351Y114222D01*
X-40348Y114103D01*
X-40337Y114064D01*
X-40333Y114024D01*
X-40292Y113912D01*
X-40259Y113797D01*
X-40239Y113762D01*
X-40225Y113724D01*
X-40158Y113626D01*
X-40098Y113523D01*
X-40058Y113478D01*
X-40047Y113461D01*
X-40031Y113448D01*
X-39991Y113402D01*
X-38186Y111597D01*
X-27576Y100987D01*
X-12986Y86397D01*
X-12985Y86397D01*
X-2821Y76232D01*
X-570Y73981D01*
X-476Y73908D01*
X-387Y73829D01*
X-351Y73811D01*
X-319Y73786D01*
X-210Y73739D01*
X-104Y73685D01*
X-64Y73676D01*
X-27Y73660D01*
X91Y73641D01*
X207Y73615D01*
X247Y73616D01*
X287Y73610D01*
X406Y73621D01*
G37*
%LPC*%
G36*
X-161077Y90619D02*
X-161077Y90619D01*
X-162193Y91736D01*
X-162193Y98814D01*
X-161077Y99931D01*
X-148590Y99931D01*
X-148472Y99946D01*
X-148353Y99953D01*
X-148315Y99966D01*
X-148274Y99971D01*
X-148164Y100014D01*
X-148051Y100051D01*
X-148016Y100073D01*
X-147979Y100088D01*
X-147883Y100157D01*
X-147782Y100221D01*
X-147754Y100251D01*
X-147721Y100274D01*
X-147645Y100366D01*
X-147564Y100453D01*
X-147544Y100488D01*
X-147519Y100519D01*
X-147468Y100627D01*
X-147410Y100731D01*
X-147400Y100771D01*
X-147383Y100807D01*
X-147361Y100924D01*
X-147331Y101039D01*
X-147327Y101099D01*
X-147323Y101119D01*
X-147325Y101140D01*
X-147321Y101200D01*
X-147321Y108350D01*
X-147336Y108468D01*
X-147343Y108587D01*
X-147356Y108625D01*
X-147361Y108666D01*
X-147404Y108776D01*
X-147441Y108889D01*
X-147463Y108924D01*
X-147478Y108961D01*
X-147547Y109057D01*
X-147611Y109158D01*
X-147641Y109186D01*
X-147664Y109219D01*
X-147756Y109295D01*
X-147843Y109376D01*
X-147878Y109396D01*
X-147909Y109421D01*
X-148017Y109472D01*
X-148121Y109530D01*
X-148161Y109540D01*
X-148197Y109557D01*
X-148314Y109579D01*
X-148429Y109609D01*
X-148489Y109613D01*
X-148509Y109617D01*
X-148530Y109615D01*
X-148590Y109619D01*
X-161077Y109619D01*
X-162193Y110736D01*
X-162193Y115368D01*
X-162206Y115466D01*
X-162209Y115565D01*
X-162225Y115623D01*
X-162233Y115683D01*
X-162270Y115775D01*
X-162297Y115871D01*
X-162328Y115923D01*
X-162350Y115979D01*
X-162408Y116059D01*
X-162459Y116144D01*
X-162525Y116220D01*
X-162537Y116236D01*
X-162546Y116244D01*
X-162565Y116265D01*
X-174507Y128208D01*
X-177585Y131286D01*
X-177587Y131292D01*
X-177618Y131344D01*
X-177640Y131400D01*
X-177698Y131480D01*
X-177749Y131565D01*
X-177815Y131641D01*
X-177827Y131657D01*
X-177836Y131665D01*
X-177855Y131686D01*
X-177859Y131691D01*
X-178725Y133781D01*
X-178725Y136044D01*
X-177859Y138134D01*
X-176259Y139734D01*
X-174169Y140600D01*
X-171906Y140600D01*
X-169816Y139734D01*
X-168216Y138134D01*
X-167350Y136044D01*
X-167350Y134150D01*
X-167337Y134052D01*
X-167334Y133953D01*
X-167318Y133895D01*
X-167310Y133835D01*
X-167273Y133743D01*
X-167246Y133648D01*
X-167215Y133595D01*
X-167193Y133539D01*
X-167135Y133459D01*
X-167084Y133374D01*
X-167018Y133298D01*
X-167006Y133282D01*
X-166997Y133274D01*
X-166978Y133253D01*
X-153028Y119302D01*
X-152950Y119242D01*
X-152877Y119174D01*
X-152824Y119145D01*
X-152777Y119108D01*
X-152686Y119068D01*
X-152599Y119020D01*
X-152540Y119005D01*
X-152485Y118981D01*
X-152387Y118966D01*
X-152291Y118941D01*
X-152191Y118935D01*
X-152171Y118931D01*
X-152158Y118933D01*
X-152130Y118931D01*
X-147451Y118931D01*
X-147409Y118898D01*
X-147318Y118858D01*
X-147231Y118810D01*
X-147172Y118795D01*
X-147117Y118771D01*
X-147019Y118756D01*
X-146923Y118731D01*
X-146823Y118725D01*
X-146803Y118721D01*
X-146790Y118723D01*
X-146762Y118721D01*
X-141034Y118721D01*
X-138360Y116047D01*
X-138250Y115962D01*
X-138143Y115873D01*
X-138125Y115865D01*
X-138109Y115852D01*
X-137981Y115797D01*
X-137855Y115738D01*
X-137836Y115734D01*
X-137817Y115726D01*
X-137679Y115704D01*
X-137543Y115678D01*
X-137523Y115679D01*
X-137503Y115676D01*
X-137364Y115689D01*
X-137226Y115698D01*
X-137206Y115704D01*
X-137186Y115706D01*
X-137055Y115753D01*
X-136923Y115796D01*
X-136906Y115807D01*
X-136887Y115813D01*
X-136772Y115892D01*
X-136654Y115966D01*
X-136640Y115981D01*
X-136624Y115992D01*
X-136532Y116096D01*
X-136436Y116198D01*
X-136427Y116215D01*
X-136413Y116230D01*
X-136350Y116355D01*
X-136283Y116476D01*
X-136278Y116496D01*
X-136269Y116514D01*
X-136238Y116650D01*
X-136203Y116784D01*
X-136202Y116812D01*
X-136199Y116824D01*
X-136200Y116844D01*
X-136193Y116945D01*
X-136193Y118099D01*
X-136206Y118197D01*
X-136209Y118296D01*
X-136225Y118354D01*
X-136233Y118414D01*
X-136270Y118506D01*
X-136297Y118602D01*
X-136328Y118654D01*
X-136350Y118710D01*
X-136408Y118790D01*
X-136459Y118876D01*
X-136525Y118951D01*
X-136537Y118967D01*
X-136546Y118975D01*
X-136565Y118996D01*
X-136584Y119016D01*
X-137450Y121106D01*
X-137450Y123369D01*
X-136584Y125459D01*
X-134984Y127059D01*
X-133009Y127878D01*
X-132983Y127892D01*
X-132955Y127901D01*
X-132845Y127971D01*
X-132733Y128035D01*
X-132711Y128056D01*
X-132686Y128072D01*
X-132597Y128166D01*
X-132504Y128256D01*
X-132489Y128282D01*
X-132468Y128303D01*
X-132406Y128417D01*
X-132338Y128528D01*
X-132329Y128556D01*
X-132315Y128582D01*
X-132282Y128707D01*
X-132244Y128832D01*
X-132243Y128861D01*
X-132235Y128890D01*
X-132225Y129050D01*
X-132225Y135187D01*
X-132238Y135285D01*
X-132241Y135384D01*
X-132257Y135442D01*
X-132265Y135502D01*
X-132302Y135594D01*
X-132329Y135689D01*
X-132360Y135741D01*
X-132382Y135798D01*
X-132440Y135878D01*
X-132491Y135963D01*
X-132557Y136039D01*
X-132569Y136055D01*
X-132578Y136063D01*
X-132597Y136084D01*
X-157246Y160733D01*
X-157355Y160818D01*
X-157462Y160906D01*
X-157481Y160915D01*
X-157497Y160928D01*
X-157625Y160983D01*
X-157750Y161042D01*
X-157770Y161046D01*
X-157789Y161054D01*
X-157927Y161076D01*
X-158063Y161102D01*
X-158083Y161101D01*
X-158103Y161104D01*
X-158242Y161091D01*
X-158380Y161082D01*
X-158399Y161076D01*
X-158419Y161074D01*
X-158551Y161027D01*
X-158682Y160984D01*
X-158700Y160973D01*
X-158719Y160966D01*
X-158834Y160888D01*
X-158951Y160814D01*
X-158965Y160799D01*
X-158982Y160788D01*
X-159074Y160684D01*
X-159169Y160582D01*
X-159179Y160564D01*
X-159192Y160549D01*
X-159256Y160425D01*
X-159323Y160304D01*
X-159328Y160284D01*
X-159337Y160266D01*
X-159367Y160130D01*
X-159402Y159996D01*
X-159404Y159968D01*
X-159407Y159956D01*
X-159406Y159935D01*
X-159412Y159835D01*
X-159412Y159132D01*
X-160278Y157041D01*
X-161878Y155441D01*
X-163969Y154575D01*
X-166231Y154575D01*
X-168322Y155441D01*
X-169922Y157041D01*
X-170788Y159132D01*
X-170788Y159856D01*
X-170800Y159954D01*
X-170803Y160053D01*
X-170820Y160112D01*
X-170828Y160172D01*
X-170864Y160264D01*
X-170892Y160359D01*
X-170922Y160411D01*
X-170945Y160467D01*
X-171003Y160547D01*
X-171053Y160633D01*
X-171119Y160708D01*
X-171131Y160725D01*
X-171141Y160733D01*
X-171159Y160754D01*
X-172403Y161997D01*
X-172481Y162058D01*
X-172554Y162126D01*
X-172607Y162155D01*
X-172655Y162192D01*
X-172745Y162232D01*
X-172832Y162280D01*
X-172891Y162295D01*
X-172946Y162319D01*
X-173044Y162334D01*
X-173140Y162359D01*
X-173240Y162365D01*
X-173261Y162369D01*
X-173273Y162367D01*
X-173301Y162369D01*
X-178264Y162369D01*
X-179381Y163486D01*
X-179381Y173064D01*
X-178264Y174181D01*
X-173758Y174181D01*
X-173620Y174198D01*
X-173482Y174211D01*
X-173462Y174218D01*
X-173442Y174221D01*
X-173313Y174272D01*
X-173182Y174319D01*
X-173165Y174330D01*
X-173147Y174338D01*
X-173034Y174419D01*
X-172919Y174497D01*
X-172906Y174513D01*
X-172889Y174524D01*
X-172800Y174632D01*
X-172709Y174736D01*
X-172699Y174754D01*
X-172687Y174769D01*
X-172627Y174895D01*
X-172564Y175019D01*
X-172560Y175039D01*
X-172551Y175057D01*
X-172525Y175193D01*
X-172494Y175329D01*
X-172495Y175350D01*
X-172491Y175369D01*
X-172500Y175508D01*
X-172504Y175647D01*
X-172510Y175667D01*
X-172511Y175687D01*
X-172554Y175819D01*
X-172592Y175953D01*
X-172603Y175970D01*
X-172609Y175989D01*
X-172683Y176107D01*
X-172754Y176227D01*
X-172773Y176248D01*
X-172779Y176258D01*
X-172794Y176272D01*
X-172860Y176347D01*
X-181917Y185404D01*
X-182011Y185477D01*
X-182100Y185556D01*
X-182136Y185574D01*
X-182168Y185599D01*
X-182278Y185646D01*
X-182384Y185700D01*
X-182423Y185709D01*
X-182460Y185725D01*
X-182578Y185744D01*
X-182694Y185770D01*
X-182734Y185769D01*
X-182774Y185775D01*
X-182893Y185764D01*
X-183012Y185760D01*
X-183051Y185749D01*
X-183091Y185745D01*
X-183203Y185705D01*
X-183317Y185672D01*
X-183352Y185652D01*
X-183390Y185638D01*
X-183489Y185571D01*
X-183591Y185510D01*
X-183636Y185471D01*
X-183653Y185459D01*
X-183667Y185444D01*
X-183712Y185404D01*
X-185104Y184012D01*
X-188605Y182562D01*
X-192395Y182562D01*
X-195896Y184012D01*
X-198576Y186692D01*
X-200026Y190193D01*
X-200026Y193982D01*
X-198576Y197483D01*
X-195896Y200163D01*
X-192395Y201613D01*
X-188605Y201613D01*
X-185104Y200163D01*
X-182424Y197483D01*
X-182145Y196809D01*
X-182130Y196783D01*
X-182121Y196755D01*
X-182052Y196645D01*
X-181988Y196533D01*
X-181967Y196511D01*
X-181951Y196486D01*
X-181857Y196397D01*
X-181766Y196304D01*
X-181741Y196289D01*
X-181720Y196268D01*
X-181606Y196206D01*
X-181542Y196166D01*
X-176792Y191417D01*
X-176683Y191332D01*
X-176576Y191243D01*
X-176557Y191235D01*
X-176541Y191222D01*
X-176413Y191167D01*
X-176288Y191108D01*
X-176268Y191104D01*
X-176249Y191096D01*
X-176111Y191074D01*
X-175975Y191048D01*
X-175955Y191049D01*
X-175935Y191046D01*
X-175796Y191059D01*
X-175658Y191068D01*
X-175639Y191074D01*
X-175619Y191076D01*
X-175487Y191123D01*
X-175356Y191166D01*
X-175338Y191177D01*
X-175319Y191183D01*
X-175204Y191262D01*
X-175087Y191336D01*
X-175073Y191351D01*
X-175056Y191362D01*
X-174964Y191466D01*
X-174869Y191568D01*
X-174859Y191585D01*
X-174846Y191600D01*
X-174782Y191725D01*
X-174715Y191846D01*
X-174710Y191866D01*
X-174701Y191884D01*
X-174671Y192020D01*
X-174636Y192154D01*
X-174634Y192182D01*
X-174631Y192194D01*
X-174632Y192214D01*
X-174626Y192315D01*
X-174626Y193982D01*
X-173176Y197483D01*
X-170496Y200163D01*
X-166995Y201613D01*
X-163205Y201613D01*
X-159704Y200163D01*
X-157024Y197483D01*
X-155574Y193982D01*
X-155574Y190193D01*
X-157024Y186692D01*
X-159704Y184012D01*
X-163205Y182562D01*
X-164873Y182562D01*
X-165010Y182544D01*
X-165149Y182531D01*
X-165168Y182524D01*
X-165188Y182522D01*
X-165317Y182471D01*
X-165448Y182424D01*
X-165465Y182412D01*
X-165484Y182405D01*
X-165596Y182323D01*
X-165712Y182245D01*
X-165725Y182230D01*
X-165741Y182218D01*
X-165830Y182111D01*
X-165922Y182007D01*
X-165931Y181989D01*
X-165944Y181973D01*
X-166004Y181847D01*
X-166067Y181723D01*
X-166071Y181704D01*
X-166080Y181685D01*
X-166106Y181549D01*
X-166136Y181413D01*
X-166136Y181393D01*
X-166140Y181373D01*
X-166131Y181235D01*
X-166127Y181095D01*
X-166121Y181076D01*
X-166120Y181056D01*
X-166077Y180923D01*
X-166038Y180790D01*
X-166028Y180772D01*
X-166022Y180753D01*
X-165947Y180636D01*
X-165877Y180516D01*
X-165858Y180495D01*
X-165852Y180484D01*
X-165837Y180470D01*
X-165770Y180395D01*
X-124350Y138974D01*
X-124350Y120200D01*
X-124335Y120082D01*
X-124327Y119963D01*
X-124315Y119925D01*
X-124310Y119884D01*
X-124266Y119774D01*
X-124229Y119661D01*
X-124208Y119626D01*
X-124193Y119589D01*
X-124123Y119493D01*
X-124059Y119392D01*
X-124030Y119364D01*
X-124006Y119331D01*
X-123914Y119255D01*
X-123828Y119174D01*
X-123792Y119154D01*
X-123761Y119129D01*
X-123653Y119078D01*
X-123549Y119020D01*
X-123510Y119010D01*
X-123473Y118993D01*
X-123357Y118971D01*
X-123241Y118941D01*
X-123181Y118937D01*
X-123161Y118933D01*
X-123141Y118935D01*
X-123081Y118931D01*
X-121498Y118931D01*
X-121152Y118584D01*
X-121074Y118524D01*
X-121001Y118456D01*
X-120948Y118427D01*
X-120901Y118390D01*
X-120810Y118350D01*
X-120723Y118302D01*
X-120664Y118287D01*
X-120609Y118263D01*
X-120511Y118248D01*
X-120415Y118223D01*
X-120315Y118217D01*
X-120295Y118213D01*
X-120282Y118215D01*
X-120254Y118213D01*
X-116381Y118213D01*
X-116378Y118209D01*
X-116300Y118149D01*
X-116228Y118081D01*
X-116175Y118052D01*
X-116127Y118015D01*
X-116036Y117975D01*
X-115949Y117927D01*
X-115891Y117912D01*
X-115835Y117888D01*
X-115737Y117873D01*
X-115641Y117848D01*
X-115541Y117842D01*
X-115521Y117838D01*
X-115509Y117840D01*
X-115481Y117838D01*
X-114756Y117838D01*
X-112666Y116972D01*
X-111066Y115372D01*
X-110200Y113281D01*
X-110200Y111019D01*
X-111066Y108928D01*
X-112666Y107328D01*
X-114756Y106462D01*
X-117019Y106462D01*
X-119109Y107328D01*
X-120736Y108955D01*
X-120764Y108999D01*
X-120828Y109112D01*
X-120849Y109133D01*
X-120865Y109158D01*
X-120959Y109247D01*
X-121050Y109340D01*
X-121075Y109356D01*
X-121097Y109376D01*
X-121210Y109439D01*
X-121321Y109507D01*
X-121349Y109515D01*
X-121375Y109530D01*
X-121500Y109562D01*
X-121625Y109600D01*
X-121654Y109602D01*
X-121683Y109609D01*
X-121844Y109619D01*
X-125151Y109619D01*
X-125200Y109613D01*
X-125250Y109615D01*
X-125357Y109593D01*
X-125466Y109579D01*
X-125512Y109561D01*
X-125561Y109551D01*
X-125660Y109503D01*
X-125762Y109462D01*
X-125802Y109433D01*
X-125847Y109411D01*
X-125930Y109340D01*
X-126019Y109276D01*
X-126051Y109237D01*
X-126089Y109205D01*
X-126152Y109115D01*
X-126222Y109031D01*
X-126243Y108986D01*
X-126272Y108945D01*
X-126311Y108842D01*
X-126358Y108743D01*
X-126367Y108694D01*
X-126385Y108648D01*
X-126397Y108538D01*
X-126417Y108431D01*
X-126414Y108381D01*
X-126420Y108332D01*
X-126404Y108223D01*
X-126398Y108113D01*
X-126382Y108066D01*
X-126375Y108017D01*
X-126323Y107864D01*
X-125512Y105906D01*
X-125512Y105182D01*
X-125500Y105084D01*
X-125497Y104985D01*
X-125480Y104926D01*
X-125472Y104866D01*
X-125436Y104774D01*
X-125408Y104679D01*
X-125378Y104627D01*
X-125355Y104571D01*
X-125297Y104491D01*
X-125247Y104405D01*
X-125181Y104330D01*
X-125169Y104313D01*
X-125159Y104305D01*
X-125141Y104284D01*
X-124350Y103494D01*
X-124350Y101200D01*
X-124335Y101082D01*
X-124327Y100963D01*
X-124315Y100925D01*
X-124310Y100884D01*
X-124266Y100774D01*
X-124229Y100661D01*
X-124208Y100626D01*
X-124193Y100589D01*
X-124123Y100493D01*
X-124059Y100392D01*
X-124030Y100364D01*
X-124006Y100331D01*
X-123914Y100255D01*
X-123828Y100174D01*
X-123792Y100154D01*
X-123761Y100129D01*
X-123653Y100078D01*
X-123549Y100020D01*
X-123510Y100010D01*
X-123473Y99993D01*
X-123357Y99971D01*
X-123241Y99941D01*
X-123181Y99937D01*
X-123161Y99933D01*
X-123141Y99935D01*
X-123081Y99931D01*
X-121498Y99931D01*
X-120382Y98814D01*
X-120382Y91736D01*
X-121498Y90619D01*
X-135077Y90619D01*
X-136193Y91736D01*
X-136193Y92605D01*
X-136211Y92743D01*
X-136224Y92882D01*
X-136231Y92901D01*
X-136233Y92921D01*
X-136284Y93050D01*
X-136331Y93181D01*
X-136343Y93198D01*
X-136350Y93217D01*
X-136432Y93329D01*
X-136510Y93444D01*
X-136525Y93457D01*
X-136537Y93474D01*
X-136644Y93563D01*
X-136748Y93655D01*
X-136766Y93664D01*
X-136782Y93677D01*
X-136908Y93736D01*
X-137032Y93799D01*
X-137051Y93804D01*
X-137070Y93812D01*
X-137206Y93838D01*
X-137342Y93869D01*
X-137362Y93868D01*
X-137382Y93872D01*
X-137520Y93863D01*
X-137660Y93859D01*
X-137679Y93854D01*
X-137699Y93852D01*
X-137832Y93809D01*
X-137965Y93771D01*
X-137983Y93760D01*
X-138002Y93754D01*
X-138120Y93680D01*
X-138239Y93609D01*
X-138260Y93591D01*
X-138271Y93584D01*
X-138285Y93569D01*
X-138360Y93503D01*
X-141034Y90829D01*
X-146762Y90829D01*
X-146861Y90817D01*
X-146960Y90814D01*
X-147018Y90797D01*
X-147078Y90789D01*
X-147170Y90753D01*
X-147265Y90725D01*
X-147317Y90695D01*
X-147374Y90672D01*
X-147447Y90619D01*
X-161077Y90619D01*
G37*
%LPD*%
%LPC*%
G36*
X-199104Y107016D02*
X-199104Y107016D01*
X-201194Y107882D01*
X-202794Y109482D01*
X-202834Y109579D01*
X-202849Y109604D01*
X-202858Y109632D01*
X-202928Y109742D01*
X-202992Y109855D01*
X-203013Y109876D01*
X-203028Y109901D01*
X-203123Y109990D01*
X-203213Y110083D01*
X-203239Y110099D01*
X-203260Y110119D01*
X-203374Y110182D01*
X-203484Y110250D01*
X-203513Y110258D01*
X-203539Y110273D01*
X-203664Y110305D01*
X-203788Y110343D01*
X-203818Y110345D01*
X-203846Y110352D01*
X-204007Y110362D01*
X-214906Y110362D01*
X-214991Y110384D01*
X-215090Y110390D01*
X-215110Y110394D01*
X-215123Y110392D01*
X-215151Y110394D01*
X-220502Y110394D01*
X-221618Y111511D01*
X-221618Y121736D01*
X-221624Y121785D01*
X-221622Y121835D01*
X-221644Y121942D01*
X-221658Y122051D01*
X-221676Y122098D01*
X-221686Y122146D01*
X-221735Y122245D01*
X-221775Y122347D01*
X-221804Y122387D01*
X-221826Y122432D01*
X-221897Y122516D01*
X-221962Y122604D01*
X-222000Y122636D01*
X-222033Y122674D01*
X-222122Y122737D01*
X-222207Y122807D01*
X-222252Y122828D01*
X-222293Y122857D01*
X-222395Y122896D01*
X-222495Y122943D01*
X-222543Y122952D01*
X-222590Y122970D01*
X-222699Y122982D01*
X-222807Y123003D01*
X-222857Y122999D01*
X-222906Y123005D01*
X-223015Y122990D01*
X-223124Y122983D01*
X-223172Y122967D01*
X-223221Y122960D01*
X-223373Y122908D01*
X-223394Y122900D01*
X-225657Y122900D01*
X-227747Y123766D01*
X-229347Y125366D01*
X-230213Y127456D01*
X-230213Y129719D01*
X-229347Y131809D01*
X-227747Y133409D01*
X-225657Y134275D01*
X-223394Y134275D01*
X-221304Y133409D01*
X-220384Y132490D01*
X-220275Y132405D01*
X-220167Y132316D01*
X-220149Y132307D01*
X-220133Y132295D01*
X-220005Y132239D01*
X-219879Y132180D01*
X-219860Y132176D01*
X-219841Y132168D01*
X-219703Y132146D01*
X-219567Y132120D01*
X-219547Y132122D01*
X-219527Y132119D01*
X-219388Y132132D01*
X-219250Y132140D01*
X-219230Y132146D01*
X-219210Y132148D01*
X-219079Y132196D01*
X-218947Y132238D01*
X-218930Y132249D01*
X-218911Y132256D01*
X-218796Y132334D01*
X-218678Y132408D01*
X-218664Y132423D01*
X-218648Y132435D01*
X-218556Y132539D01*
X-218460Y132640D01*
X-218451Y132658D01*
X-218437Y132673D01*
X-218374Y132797D01*
X-218307Y132919D01*
X-218302Y132938D01*
X-218293Y132956D01*
X-218262Y133092D01*
X-218227Y133226D01*
X-218226Y133255D01*
X-218223Y133266D01*
X-218224Y133287D01*
X-218217Y133387D01*
X-218217Y136295D01*
X-216457Y138055D01*
X-213968Y138055D01*
X-212208Y136295D01*
X-212208Y133805D01*
X-212609Y133404D01*
X-212694Y133295D01*
X-212783Y133188D01*
X-212791Y133169D01*
X-212804Y133153D01*
X-212859Y133025D01*
X-212918Y132900D01*
X-212922Y132880D01*
X-212930Y132861D01*
X-212952Y132723D01*
X-212978Y132587D01*
X-212977Y132567D01*
X-212980Y132547D01*
X-212967Y132408D01*
X-212958Y132270D01*
X-212952Y132251D01*
X-212950Y132231D01*
X-212903Y132100D01*
X-212860Y131968D01*
X-212849Y131950D01*
X-212842Y131931D01*
X-212764Y131817D01*
X-212690Y131699D01*
X-212675Y131685D01*
X-212664Y131668D01*
X-212560Y131576D01*
X-212458Y131481D01*
X-212441Y131471D01*
X-212425Y131458D01*
X-212302Y131395D01*
X-212180Y131327D01*
X-212160Y131322D01*
X-212142Y131313D01*
X-212006Y131283D01*
X-211872Y131248D01*
X-211844Y131246D01*
X-211832Y131243D01*
X-211811Y131244D01*
X-211711Y131238D01*
X-210808Y131238D01*
X-210779Y131241D01*
X-210749Y131239D01*
X-210621Y131261D01*
X-210493Y131278D01*
X-210465Y131288D01*
X-210436Y131294D01*
X-210317Y131347D01*
X-210197Y131395D01*
X-210173Y131412D01*
X-210146Y131424D01*
X-210045Y131505D01*
X-209940Y131581D01*
X-209921Y131604D01*
X-209897Y131623D01*
X-209820Y131726D01*
X-209737Y131826D01*
X-209724Y131853D01*
X-209717Y131863D01*
X-208090Y133490D01*
X-205999Y134356D01*
X-203737Y134356D01*
X-201646Y133490D01*
X-200046Y131890D01*
X-199180Y129799D01*
X-199180Y129129D01*
X-199165Y129011D01*
X-199158Y128893D01*
X-199146Y128854D01*
X-199140Y128814D01*
X-199097Y128703D01*
X-199060Y128590D01*
X-199038Y128556D01*
X-199023Y128518D01*
X-198954Y128422D01*
X-198890Y128321D01*
X-198860Y128294D01*
X-198837Y128261D01*
X-198745Y128185D01*
X-198658Y128103D01*
X-198623Y128084D01*
X-198592Y128058D01*
X-198484Y128007D01*
X-198380Y127950D01*
X-198340Y127940D01*
X-198304Y127923D01*
X-198187Y127900D01*
X-198072Y127870D01*
X-198012Y127867D01*
X-197992Y127863D01*
X-197971Y127864D01*
X-197911Y127860D01*
X-196841Y127860D01*
X-194751Y126994D01*
X-193151Y125394D01*
X-192285Y123304D01*
X-192285Y121041D01*
X-193151Y118951D01*
X-193766Y118335D01*
X-193839Y118241D01*
X-193918Y118152D01*
X-193936Y118116D01*
X-193961Y118084D01*
X-194008Y117975D01*
X-194062Y117869D01*
X-194071Y117829D01*
X-194087Y117792D01*
X-194106Y117674D01*
X-194132Y117559D01*
X-194131Y117518D01*
X-194137Y117478D01*
X-194126Y117360D01*
X-194122Y117241D01*
X-194111Y117202D01*
X-194107Y117162D01*
X-194067Y117050D01*
X-194034Y116935D01*
X-194013Y116900D01*
X-193999Y116862D01*
X-193933Y116764D01*
X-193872Y116661D01*
X-193832Y116616D01*
X-193821Y116599D01*
X-193806Y116586D01*
X-193766Y116540D01*
X-193151Y115925D01*
X-192285Y113835D01*
X-192285Y111572D01*
X-193151Y109482D01*
X-194751Y107882D01*
X-196841Y107016D01*
X-199104Y107016D01*
G37*
%LPD*%
%LPC*%
G36*
X225435Y155574D02*
X225435Y155574D01*
X221934Y157024D01*
X219254Y159704D01*
X217804Y163205D01*
X217804Y166995D01*
X219254Y170496D01*
X221934Y173176D01*
X225435Y174626D01*
X244465Y174626D01*
X247966Y173176D01*
X250646Y170496D01*
X252096Y166995D01*
X252096Y163205D01*
X250646Y159704D01*
X247966Y157024D01*
X244465Y155574D01*
X225435Y155574D01*
G37*
%LPD*%
%LPC*%
G36*
X225435Y130174D02*
X225435Y130174D01*
X221934Y131624D01*
X219254Y134304D01*
X217804Y137805D01*
X217804Y141595D01*
X219254Y145096D01*
X221934Y147776D01*
X225435Y149226D01*
X244465Y149226D01*
X247966Y147776D01*
X250646Y145096D01*
X252096Y141595D01*
X252096Y137805D01*
X250646Y134304D01*
X247966Y131624D01*
X244465Y130174D01*
X225435Y130174D01*
G37*
%LPD*%
%LPC*%
G36*
X225435Y79374D02*
X225435Y79374D01*
X221934Y80824D01*
X219254Y83504D01*
X217804Y87005D01*
X217804Y90795D01*
X219254Y94296D01*
X221934Y96976D01*
X225435Y98426D01*
X244465Y98426D01*
X247966Y96976D01*
X250646Y94296D01*
X252096Y90795D01*
X252096Y87005D01*
X250646Y83504D01*
X247966Y80824D01*
X244465Y79374D01*
X225435Y79374D01*
G37*
%LPD*%
%LPC*%
G36*
X-243195Y182562D02*
X-243195Y182562D01*
X-246696Y184012D01*
X-249376Y186692D01*
X-250826Y190193D01*
X-250826Y193982D01*
X-249376Y197483D01*
X-246696Y200163D01*
X-243195Y201613D01*
X-239405Y201613D01*
X-235904Y200163D01*
X-233224Y197483D01*
X-231774Y193982D01*
X-231774Y190193D01*
X-233224Y186692D01*
X-235904Y184012D01*
X-239405Y182562D01*
X-243195Y182562D01*
G37*
%LPD*%
%LPC*%
G36*
X-216457Y90545D02*
X-216457Y90545D01*
X-218217Y92305D01*
X-218217Y94795D01*
X-216457Y96555D01*
X-213968Y96555D01*
X-212208Y94795D01*
X-212208Y92305D01*
X-213968Y90545D01*
X-216457Y90545D01*
G37*
%LPD*%
D10*
G36*
X-41955Y156110D02*
X-51853Y166008D01*
X-49025Y168836D01*
X-39127Y158938D01*
X-41955Y156110D01*
G37*
G36*
X-50440Y147625D02*
X-60338Y157523D01*
X-57510Y160351D01*
X-47612Y150453D01*
X-50440Y147625D01*
G37*
G36*
X-58925Y139139D02*
X-68823Y149037D01*
X-65995Y151865D01*
X-56097Y141967D01*
X-58925Y139139D01*
G37*
D11*
G36*
X-7128Y158534D02*
X-5006Y160656D01*
X-1118Y156768D01*
X-3240Y154646D01*
X-7128Y158534D01*
G37*
G36*
X-10664Y154997D02*
X-8542Y157119D01*
X-4654Y153231D01*
X-6776Y151109D01*
X-10664Y154997D01*
G37*
G36*
X-14201Y151460D02*
X-12079Y153582D01*
X-8191Y149694D01*
X-10313Y147572D01*
X-14201Y151460D01*
G37*
G36*
X-17737Y147924D02*
X-15615Y150046D01*
X-11727Y146158D01*
X-13849Y144036D01*
X-17737Y147924D01*
G37*
G36*
X-21273Y144388D02*
X-19151Y146510D01*
X-15263Y142622D01*
X-17385Y140500D01*
X-21273Y144388D01*
G37*
G36*
X-24809Y140852D02*
X-22687Y142974D01*
X-18799Y139086D01*
X-20921Y136964D01*
X-24809Y140852D01*
G37*
G36*
X-28346Y137315D02*
X-26224Y139437D01*
X-22336Y135549D01*
X-24458Y133427D01*
X-28346Y137315D01*
G37*
G36*
X-31883Y133778D02*
X-29761Y135900D01*
X-25873Y132012D01*
X-27995Y129890D01*
X-31883Y133778D01*
G37*
G36*
X-35419Y130242D02*
X-33297Y132364D01*
X-29409Y128476D01*
X-31531Y126354D01*
X-35419Y130242D01*
G37*
G36*
X-38955Y126706D02*
X-36833Y128828D01*
X-32945Y124940D01*
X-35067Y122818D01*
X-38955Y126706D01*
G37*
G36*
X-42492Y123169D02*
X-40370Y125291D01*
X-36482Y121403D01*
X-38604Y119281D01*
X-42492Y123169D01*
G37*
G36*
X-46028Y119633D02*
X-43906Y121755D01*
X-40018Y117867D01*
X-42140Y115745D01*
X-46028Y119633D01*
G37*
G36*
X-42140Y112855D02*
X-40018Y110733D01*
X-43906Y106845D01*
X-46028Y108967D01*
X-42140Y112855D01*
G37*
G36*
X-38604Y109319D02*
X-36482Y107197D01*
X-40370Y103309D01*
X-42492Y105431D01*
X-38604Y109319D01*
G37*
G36*
X-35067Y105782D02*
X-32945Y103660D01*
X-36833Y99772D01*
X-38955Y101894D01*
X-35067Y105782D01*
G37*
G36*
X-31531Y102246D02*
X-29409Y100124D01*
X-33297Y96236D01*
X-35419Y98358D01*
X-31531Y102246D01*
G37*
G36*
X-27995Y98710D02*
X-25873Y96588D01*
X-29761Y92700D01*
X-31883Y94822D01*
X-27995Y98710D01*
G37*
G36*
X-24458Y95173D02*
X-22336Y93051D01*
X-26224Y89163D01*
X-28346Y91285D01*
X-24458Y95173D01*
G37*
G36*
X-20921Y91636D02*
X-18799Y89514D01*
X-22687Y85626D01*
X-24809Y87748D01*
X-20921Y91636D01*
G37*
G36*
X-17385Y88100D02*
X-15263Y85978D01*
X-19151Y82090D01*
X-21273Y84212D01*
X-17385Y88100D01*
G37*
G36*
X-13849Y84564D02*
X-11727Y82442D01*
X-15615Y78554D01*
X-17737Y80676D01*
X-13849Y84564D01*
G37*
G36*
X-10313Y81028D02*
X-8191Y78906D01*
X-12079Y75018D01*
X-14201Y77140D01*
X-10313Y81028D01*
G37*
G36*
X-6776Y77491D02*
X-4654Y75369D01*
X-8542Y71481D01*
X-10664Y73603D01*
X-6776Y77491D01*
G37*
G36*
X-3240Y73954D02*
X-1118Y71832D01*
X-5006Y67944D01*
X-7128Y70066D01*
X-3240Y73954D01*
G37*
G36*
X1772Y71832D02*
X3894Y73954D01*
X7782Y70066D01*
X5660Y67944D01*
X1772Y71832D01*
G37*
G36*
X5308Y75369D02*
X7430Y77491D01*
X11318Y73603D01*
X9196Y71481D01*
X5308Y75369D01*
G37*
G36*
X8845Y78906D02*
X10967Y81028D01*
X14855Y77140D01*
X12733Y75018D01*
X8845Y78906D01*
G37*
G36*
X12382Y82442D02*
X14504Y84564D01*
X18392Y80676D01*
X16270Y78554D01*
X12382Y82442D01*
G37*
G36*
X15918Y85978D02*
X18040Y88100D01*
X21928Y84212D01*
X19806Y82090D01*
X15918Y85978D01*
G37*
G36*
X19454Y89514D02*
X21576Y91636D01*
X25464Y87748D01*
X23342Y85626D01*
X19454Y89514D01*
G37*
G36*
X22991Y93051D02*
X25113Y95173D01*
X29001Y91285D01*
X26879Y89163D01*
X22991Y93051D01*
G37*
G36*
X26527Y96588D02*
X28649Y98710D01*
X32537Y94822D01*
X30415Y92700D01*
X26527Y96588D01*
G37*
G36*
X30063Y100124D02*
X32185Y102246D01*
X36073Y98358D01*
X33951Y96236D01*
X30063Y100124D01*
G37*
G36*
X33600Y103660D02*
X35722Y105782D01*
X39610Y101894D01*
X37488Y99772D01*
X33600Y103660D01*
G37*
G36*
X37137Y107197D02*
X39259Y109319D01*
X43147Y105431D01*
X41025Y103309D01*
X37137Y107197D01*
G37*
G36*
X40673Y110733D02*
X42795Y112855D01*
X46683Y108967D01*
X44561Y106845D01*
X40673Y110733D01*
G37*
G36*
X44561Y121755D02*
X46683Y119633D01*
X42795Y115745D01*
X40673Y117867D01*
X44561Y121755D01*
G37*
G36*
X41025Y125291D02*
X43147Y123169D01*
X39259Y119281D01*
X37137Y121403D01*
X41025Y125291D01*
G37*
G36*
X37488Y128828D02*
X39610Y126706D01*
X35722Y122818D01*
X33600Y124940D01*
X37488Y128828D01*
G37*
G36*
X33951Y132364D02*
X36073Y130242D01*
X32185Y126354D01*
X30063Y128476D01*
X33951Y132364D01*
G37*
G36*
X30415Y135900D02*
X32537Y133778D01*
X28649Y129890D01*
X26527Y132012D01*
X30415Y135900D01*
G37*
G36*
X26879Y139437D02*
X29001Y137315D01*
X25113Y133427D01*
X22991Y135549D01*
X26879Y139437D01*
G37*
G36*
X23342Y142974D02*
X25464Y140852D01*
X21576Y136964D01*
X19454Y139086D01*
X23342Y142974D01*
G37*
G36*
X19806Y146510D02*
X21928Y144388D01*
X18040Y140500D01*
X15918Y142622D01*
X19806Y146510D01*
G37*
G36*
X16270Y150046D02*
X18392Y147924D01*
X14504Y144036D01*
X12382Y146158D01*
X16270Y150046D01*
G37*
G36*
X12733Y153582D02*
X14855Y151460D01*
X10967Y147572D01*
X8845Y149694D01*
X12733Y153582D01*
G37*
G36*
X9196Y157119D02*
X11318Y154997D01*
X7430Y151109D01*
X5308Y153231D01*
X9196Y157119D01*
G37*
G36*
X5660Y160656D02*
X7782Y158534D01*
X3894Y154646D01*
X1772Y156768D01*
X5660Y160656D01*
G37*
D12*
G36*
X327Y74703D02*
X-39270Y114300D01*
X327Y153897D01*
X39924Y114300D01*
X327Y74703D01*
G37*
D13*
X-173475Y168275D03*
X-188475Y168275D03*
D14*
X227330Y165100D02*
X242570Y165100D01*
X242570Y139700D02*
X227330Y139700D01*
X227330Y114300D02*
X242570Y114300D01*
X242570Y88900D02*
X227330Y88900D01*
X227330Y63500D02*
X242570Y63500D01*
D15*
X-154288Y114275D03*
X-154288Y104775D03*
X-154288Y95275D03*
X-128288Y95275D03*
X-128288Y114275D03*
D16*
X172212Y125032D03*
X172212Y170244D03*
X107188Y125032D03*
X107188Y170244D03*
D17*
X-212963Y114300D03*
X-212963Y107800D03*
X-212963Y120800D03*
X-212963Y127300D03*
X-212963Y101300D03*
D18*
X-239713Y74300D03*
D19*
X-239713Y102300D03*
X-239713Y126300D03*
D18*
X-239713Y154300D03*
D16*
X241300Y36513D03*
X215900Y36513D03*
X190500Y36513D03*
X165100Y36513D03*
X139700Y36513D03*
X114300Y36513D03*
X88900Y36513D03*
X63500Y36513D03*
X38100Y36513D03*
X12700Y36513D03*
X-12700Y36513D03*
X-38100Y36513D03*
X-63500Y36513D03*
X-88900Y36513D03*
X-114300Y36513D03*
X-139700Y36513D03*
X-165100Y36513D03*
X-190500Y36513D03*
X-215900Y36513D03*
X-241300Y36513D03*
X-241300Y192088D03*
X-215900Y192088D03*
X-190500Y192088D03*
X-165100Y192088D03*
X-139700Y192088D03*
X-114300Y192088D03*
X-88900Y192088D03*
X-63500Y192088D03*
X-38100Y192088D03*
X-12700Y192088D03*
X12700Y192088D03*
X38100Y192088D03*
X63500Y192088D03*
X88900Y192088D03*
X114300Y192088D03*
X139700Y192088D03*
X165100Y192088D03*
X190500Y192088D03*
X215900Y192088D03*
X241300Y192088D03*
X106998Y103569D03*
X106998Y58357D03*
X172022Y103569D03*
X172022Y58357D03*
D13*
X46010Y170985D03*
X61010Y170985D03*
D20*
X-128288Y137343D02*
X-128288Y114275D01*
X-183032Y192088D02*
X-190500Y192088D01*
X-183032Y192088D02*
X-128288Y137343D01*
X-131763Y117750D02*
X-128288Y114275D01*
X-131763Y117750D02*
X-131763Y122238D01*
D21*
X-131763Y122238D03*
D20*
X-128288Y114275D02*
X-118013Y114275D01*
X-115888Y112150D01*
D21*
X-115888Y112150D03*
X-17463Y115888D03*
X15875Y115888D03*
X-85725Y127000D03*
X-201613Y71438D03*
X-225425Y165100D03*
X-152400Y14288D03*
X203200Y14288D03*
X150813Y217488D03*
X100013Y215900D03*
X-34721Y170331D03*
D22*
X-30744Y148908D02*
X-21804Y139969D01*
X-30744Y148908D02*
X-30744Y163543D01*
X-34721Y167520D02*
X-34721Y170331D01*
X-34721Y167520D02*
X-30744Y163543D01*
X-60512Y143554D02*
X-62460Y145502D01*
X-60512Y143554D02*
X-46609Y143554D01*
X-32414Y129359D01*
X-43542Y160525D02*
X-45490Y162473D01*
X-43542Y160525D02*
X-43542Y147560D01*
X-28878Y132895D01*
D21*
X-53975Y129150D03*
D22*
X-52988Y130137D02*
X-40264Y130137D01*
X-52988Y130137D02*
X-53975Y129150D01*
X-40264Y130137D02*
X-35950Y125823D01*
X43678Y109850D02*
X55503Y121675D01*
X79375Y121675D01*
D21*
X79375Y121675D03*
D22*
X102103Y114300D02*
X102199Y114395D01*
D23*
X114205Y114395D01*
X114300Y114300D01*
D22*
X114520Y114080D01*
X166907Y114080D01*
D23*
X167626Y114080D01*
X167655Y114110D01*
X179197Y114110D02*
X179388Y114300D01*
X179197Y114110D02*
X167655Y114110D01*
D22*
X179388Y114300D02*
X234950Y114300D01*
X44856Y101600D02*
X40142Y106314D01*
X63613Y114300D02*
X102103Y114300D01*
X63613Y114300D02*
X50913Y101600D01*
X44856Y101600D01*
D24*
X-142875Y114275D02*
X-154288Y114275D01*
X-154288Y95275D02*
X-142875Y95275D01*
X-142875Y114275D01*
X-154288Y114275D02*
X-173038Y133025D01*
X-173038Y134913D01*
D21*
X-173038Y134913D03*
X74958Y94904D03*
D22*
X58226Y94904D02*
X55016Y91694D01*
X71765Y94904D02*
X74958Y94904D01*
X71765Y94904D02*
X71249Y94389D01*
X65276Y94389D01*
X64760Y94904D01*
X58226Y94904D01*
X40615Y91694D02*
X33068Y99241D01*
X40615Y91694D02*
X55016Y91694D01*
D21*
X68263Y101600D03*
D22*
X57917Y101600D01*
X52964Y96647D01*
X42735Y96647D02*
X36605Y102777D01*
X42735Y96647D02*
X52964Y96647D01*
X-225298Y52515D02*
X-241300Y36513D01*
X-178733Y52515D02*
X-158921Y72327D01*
X-141986Y72327D02*
X-141288Y73025D01*
X-141986Y72327D02*
X-158921Y72327D01*
X-141288Y73025D02*
X-97340Y73025D01*
X-178733Y52515D02*
X-225298Y52515D01*
X-39555Y122286D02*
X-39487Y122286D01*
X-49343Y121022D02*
X-97340Y73025D01*
X-49490Y121022D02*
X-49343Y121022D01*
X-49490Y121022D02*
X-45328Y125184D01*
X-42453Y125184D02*
X-39555Y122286D01*
X-42453Y125184D02*
X-45328Y125184D01*
X-43023Y118750D02*
X-52312Y109462D01*
X-94400Y67374D01*
X-156869Y67374D02*
X-176681Y47562D01*
X-204851Y47562D02*
X-215900Y36513D01*
X-156869Y67374D02*
X-94400Y67374D01*
X-176681Y47562D02*
X-204851Y47562D01*
X-190500Y36513D02*
X-180726Y36513D01*
X-154818Y62421D01*
X-90453Y62421D02*
X-43023Y109850D01*
X-90453Y62421D02*
X-154818Y62421D01*
X-88333Y57468D02*
X-39487Y106314D01*
X-155326Y36513D02*
X-165100Y36513D01*
X-134371Y57468D02*
X-88333Y57468D01*
X-134371Y57468D02*
X-155326Y36513D01*
X-86213Y52515D02*
X-35950Y102777D01*
X-129926Y36513D02*
X-139700Y36513D01*
X-113924Y52515D02*
X-86213Y52515D01*
X-113924Y52515D02*
X-129926Y36513D01*
X-84093Y47562D02*
X-32414Y99241D01*
X-104526Y36513D02*
X-114300Y36513D01*
X-93477Y47562D02*
X-84093Y47562D01*
X-93477Y47562D02*
X-104526Y36513D01*
X-88070Y36513D02*
X-28878Y95705D01*
X-88070Y36513D02*
X-88900Y36513D01*
X-63500Y54010D02*
X-25341Y92168D01*
X-63500Y54010D02*
X-63500Y36513D01*
X-38100Y36513D02*
X-38100Y72336D01*
X-21804Y88631D01*
X-15875Y36513D02*
X-12700Y36513D01*
X-15875Y36513D02*
X-30163Y50800D01*
X-30163Y73201D01*
X-18268Y85095D01*
X2926Y36513D02*
X12700Y36513D01*
X2926Y36513D02*
X-8123Y47562D01*
X-17399Y47562D01*
X-25210Y55372D01*
X-25210Y71081D01*
X-14732Y81559D01*
X28326Y36513D02*
X38100Y36513D01*
X28326Y36513D02*
X17277Y47562D01*
X-6072Y52515D02*
X-11518Y52515D01*
X-19050Y60047D01*
X-19050Y70236D01*
X-11264Y78023D01*
X-11196Y78023D01*
X-6072Y52515D02*
X-1119Y47562D01*
X17277Y47562D01*
X57150Y42863D02*
X63500Y36513D01*
X57150Y42863D02*
X56901Y42863D01*
X52202Y47562D01*
X24281Y47562D01*
X19328Y52515D01*
X933Y52515D02*
X-4020Y57468D01*
X-12700Y69444D02*
X-7659Y74486D01*
X-8402Y57468D02*
X-4020Y57468D01*
X-12700Y61766D02*
X-12700Y69444D01*
X-12700Y61766D02*
X-8402Y57468D01*
X933Y52515D02*
X19328Y52515D01*
X9359Y57468D02*
X-4123Y70949D01*
X9359Y57468D02*
X11113Y57468D01*
D25*
X23495Y57468D01*
X23813Y57150D01*
D22*
X28448Y52515D01*
X88651Y36513D02*
X88900Y36513D01*
X88651Y36513D02*
X72649Y52515D01*
X28448Y52515D01*
X104526Y36513D02*
X114300Y36513D01*
X104526Y36513D02*
X83571Y57468D01*
X30500Y57468D01*
X25801Y62167D01*
X13560Y62167D01*
X4777Y70949D01*
X15680Y67120D02*
X27852Y67120D01*
X32551Y62421D01*
X85622Y62421D01*
X100735Y47308D01*
D25*
X117475Y47308D01*
D22*
X128905Y47308D01*
X139700Y36513D01*
X15680Y67120D02*
X8313Y74486D01*
X11850Y78023D02*
X11918Y78023D01*
X17868Y72073D02*
X29904Y72073D01*
X32571Y69406D01*
X132207Y69406D02*
X165100Y36513D01*
X17868Y72073D02*
X11918Y78023D01*
X32571Y69406D02*
X132207Y69406D01*
X15454Y81559D02*
X15387Y81559D01*
X19988Y77026D02*
X31956Y77026D01*
X135128Y74359D02*
X161925Y47562D01*
D25*
X171514Y47562D01*
X174625Y44450D01*
D22*
X182563Y36513D01*
X190500Y36513D01*
X19988Y77026D02*
X15454Y81559D01*
X31956Y77026D02*
X34623Y74359D01*
X135128Y74359D01*
X21821Y82197D02*
X18923Y85095D01*
X33788Y82197D02*
X36674Y79312D01*
X173101Y79312D02*
X215900Y36513D01*
X33788Y82197D02*
X21821Y82197D01*
X36674Y79312D02*
X173101Y79312D01*
X45573Y118750D02*
X43678Y118750D01*
X100555Y137668D02*
X169985Y137668D01*
X213292Y180975D02*
X230188Y180975D01*
X241300Y192088D01*
X213292Y180975D02*
X169985Y137668D01*
X60472Y133649D02*
X45573Y118750D01*
X60472Y133649D02*
X96536Y133649D01*
X100555Y137668D01*
X215900Y190588D02*
X215900Y192088D01*
X215900Y190588D02*
X168378Y143066D01*
X98948Y143066D01*
X56457Y138602D02*
X40142Y122286D01*
X56457Y138602D02*
X94484Y138602D01*
X98948Y143066D01*
X54336Y143555D02*
X36605Y125823D01*
X54336Y143555D02*
X92432Y143555D01*
X96896Y148019D01*
X183261Y184849D02*
X190500Y192088D01*
X183261Y184849D02*
X183261Y165667D01*
X165613Y148019D01*
X96896Y148019D01*
X33136Y129359D02*
X33068Y129359D01*
X125984Y152972D02*
X165100Y192088D01*
X125984Y152972D02*
X91670Y152972D01*
X52285Y148508D02*
X33136Y129359D01*
X87206Y148508D02*
X91670Y152972D01*
X87206Y148508D02*
X52285Y148508D01*
X139700Y184150D02*
X139700Y192088D01*
X139700Y184150D02*
X113475Y157925D01*
X50097Y153461D02*
X29532Y132895D01*
X89618Y157925D02*
X113475Y157925D01*
X85154Y153461D02*
X50097Y153461D01*
X85154Y153461D02*
X89618Y157925D01*
X26064Y136432D02*
X25996Y136432D01*
X112713Y192088D02*
X114300Y192088D01*
X48046Y158414D02*
X26064Y136432D01*
X48046Y158414D02*
X79039Y158414D01*
X112713Y192088D01*
X88900Y192088D02*
X88900Y177566D01*
X45857Y163367D02*
X22459Y139969D01*
X74701Y163367D02*
X88900Y177566D01*
X74701Y163367D02*
X45857Y163367D01*
X31976Y156558D02*
X18923Y143505D01*
X31976Y156558D02*
X31976Y169863D01*
X46264Y184150D01*
X55563Y184150D02*
X63500Y192088D01*
X55563Y184150D02*
X46264Y184150D01*
X27023Y158678D02*
X15387Y147041D01*
X27023Y181011D02*
X38100Y192088D01*
X27023Y181011D02*
X27023Y158678D01*
X12700Y191138D02*
X12700Y192088D01*
X12700Y191138D02*
X22070Y181767D01*
X22070Y160797D02*
X11850Y150577D01*
X22070Y160797D02*
X22070Y181767D01*
D21*
X14859Y178781D03*
D22*
X14859Y160660D01*
X8313Y154114D01*
D21*
X7211Y173038D03*
D22*
X4953Y170780D01*
X4953Y159722D01*
X4777Y159546D01*
X4777Y157651D01*
X-18268Y143505D02*
X-23533Y148770D01*
X-23533Y168838D01*
D21*
X-23533Y168838D03*
X-50800Y212725D03*
D20*
X-119063Y212725D01*
X-139700Y192088D01*
D22*
X39512Y85725D02*
X178396Y85725D01*
X212620Y51501D01*
X241051Y36513D02*
X241300Y36513D01*
X226062Y51501D02*
X212620Y51501D01*
X226062Y51501D02*
X241051Y36513D01*
X39512Y85725D02*
X29532Y95705D01*
D21*
X-165100Y160263D03*
D20*
X-173109Y168272D01*
X-173475Y168275D01*
X-198085Y114300D02*
X-212963Y114300D01*
X-198085Y114300D02*
X-197972Y114188D01*
X-197972Y112703D01*
D21*
X-197972Y112703D03*
D20*
X-198085Y120800D02*
X-212963Y120800D01*
X-198085Y120800D02*
X-197972Y120912D01*
X-197972Y122172D01*
D21*
X-197972Y122172D03*
D20*
X-128288Y101863D02*
X-128288Y95275D01*
X-128288Y101863D02*
X-131200Y104775D01*
D21*
X-131200Y104775D03*
X-224526Y128588D03*
X-204868Y128668D03*
D20*
X-222938Y127000D02*
X-224526Y128588D01*
X-213263Y127000D02*
X-212963Y127300D01*
X-213263Y127000D02*
X-222938Y127000D01*
X-212743Y127081D02*
X-206456Y127081D01*
X-212743Y127081D02*
X-212963Y127300D01*
X-206456Y127081D02*
X-204868Y128668D01*
D22*
X-13126Y168275D02*
X-13126Y169863D01*
X-13126Y168275D02*
X-17630Y163771D01*
D21*
X-13126Y169863D03*
D22*
X-14732Y147143D02*
X-14732Y147041D01*
X-14732Y147143D02*
X-17630Y150041D01*
X-17630Y163771D01*
D21*
X-25400Y209550D03*
D20*
X-31306Y203645D01*
X-105244Y192088D02*
X-114300Y192088D01*
X-93687Y203645D02*
X-31306Y203645D01*
X-93687Y203645D02*
X-105244Y192088D01*
D22*
X-35697Y146787D02*
X-25341Y136432D01*
X-37326Y163120D02*
X-37708Y163120D01*
X-35697Y161492D02*
X-35697Y146787D01*
X-35697Y161492D02*
X-37326Y163120D01*
X-79126Y192088D02*
X-88900Y192088D01*
X-68077Y181039D02*
X-55626Y181039D01*
X-68077Y181039D02*
X-79126Y192088D01*
X-55626Y181039D02*
X-37708Y163120D01*
D21*
X45216Y171779D03*
D22*
X46010Y170985D01*
X0Y161773D02*
X-4123Y157651D01*
X0Y195263D02*
X9525Y204788D01*
X0Y195263D02*
X0Y161773D01*
X9525Y204788D02*
X30163Y204788D01*
D21*
X30163Y204788D03*
D22*
X-7659Y154182D02*
X-7659Y154114D01*
X-7659Y154182D02*
X-10557Y157080D01*
X-10557Y160646D02*
X-4953Y166250D01*
X-4953Y173038D01*
X-9458Y177542D01*
X-44192Y177542D01*
X-10557Y160646D02*
X-10557Y157080D01*
X-44192Y177542D02*
X-58738Y192088D01*
X-63500Y192088D01*
M02*
