G04 EAGLE Gerber RS-274X export*
G75*
%MOMM*%
%FSLAX34Y34*%
%LPD*%
%IN*%
%IPPOS*%
%AMOC8*
5,1,8,0,0,1.08239X$1,22.5*%
G01*
%ADD10C,0.254000*%


D10*
X-255588Y0D02*
X255588Y0D01*
X255588Y227013D01*
X-255588Y227013D01*
X-255588Y0D01*
X-215429Y132300D02*
X-215856Y132368D01*
X-216268Y132501D01*
X-216654Y132698D01*
X-217004Y132952D01*
X-217310Y133259D01*
X-217565Y133609D01*
X-217761Y133994D01*
X-217895Y134406D01*
X-217963Y134834D01*
X-217963Y135266D01*
X-217895Y135694D01*
X-217761Y136106D01*
X-217565Y136491D01*
X-217310Y136842D01*
X-217004Y137148D01*
X-216654Y137402D01*
X-216268Y137599D01*
X-215856Y137732D01*
X-215429Y137800D01*
X-214996Y137800D01*
X-214569Y137732D01*
X-214157Y137599D01*
X-213771Y137402D01*
X-213421Y137148D01*
X-213115Y136842D01*
X-212861Y136491D01*
X-212664Y136106D01*
X-212530Y135694D01*
X-212463Y135266D01*
X-212463Y134834D01*
X-212530Y134406D01*
X-212664Y133994D01*
X-212861Y133609D01*
X-213115Y133259D01*
X-213421Y132952D01*
X-213771Y132698D01*
X-214157Y132501D01*
X-214569Y132368D01*
X-214996Y132300D01*
X-215429Y132300D01*
X-215429Y90800D02*
X-215856Y90868D01*
X-216268Y91001D01*
X-216654Y91198D01*
X-217004Y91452D01*
X-217310Y91759D01*
X-217565Y92109D01*
X-217761Y92494D01*
X-217895Y92906D01*
X-217963Y93334D01*
X-217963Y93766D01*
X-217895Y94194D01*
X-217761Y94606D01*
X-217565Y94991D01*
X-217310Y95342D01*
X-217004Y95648D01*
X-216654Y95902D01*
X-216268Y96099D01*
X-215856Y96232D01*
X-215429Y96300D01*
X-214996Y96300D01*
X-214569Y96232D01*
X-214157Y96099D01*
X-213771Y95902D01*
X-213421Y95648D01*
X-213115Y95342D01*
X-212861Y94991D01*
X-212664Y94606D01*
X-212530Y94194D01*
X-212463Y93766D01*
X-212463Y93334D01*
X-212530Y92906D01*
X-212664Y92494D01*
X-212861Y92109D01*
X-213115Y91759D01*
X-213421Y91452D01*
X-213771Y91198D01*
X-214157Y91001D01*
X-214569Y90868D01*
X-214996Y90800D01*
X-215429Y90800D01*
M02*
