G04 EAGLE Gerber RS-274X export*
G75*
%MOMM*%
%FSLAX34Y34*%
%LPD*%
%INSilkscreen Bottom*%
%IPPOS*%
%AMOC8*
5,1,8,0,0,1.08239X$1,22.5*%
G01*
%ADD10C,0.152400*%
%ADD11C,0.076200*%


D10*
X677101Y186500D02*
X677101Y202756D01*
X677101Y195531D02*
X668069Y195531D01*
X668069Y202756D02*
X668069Y186500D01*
X654105Y195531D02*
X651396Y195531D01*
X651396Y186500D01*
X656815Y186500D01*
X656933Y186502D01*
X657051Y186508D01*
X657169Y186517D01*
X657286Y186531D01*
X657403Y186548D01*
X657520Y186569D01*
X657635Y186594D01*
X657750Y186623D01*
X657864Y186656D01*
X657976Y186692D01*
X658087Y186732D01*
X658197Y186775D01*
X658306Y186822D01*
X658413Y186872D01*
X658518Y186927D01*
X658621Y186984D01*
X658722Y187045D01*
X658822Y187109D01*
X658919Y187176D01*
X659014Y187246D01*
X659106Y187320D01*
X659197Y187396D01*
X659284Y187476D01*
X659369Y187558D01*
X659451Y187643D01*
X659531Y187730D01*
X659607Y187821D01*
X659681Y187913D01*
X659751Y188008D01*
X659818Y188105D01*
X659882Y188205D01*
X659943Y188306D01*
X660000Y188409D01*
X660055Y188514D01*
X660105Y188621D01*
X660152Y188730D01*
X660195Y188840D01*
X660235Y188951D01*
X660271Y189063D01*
X660304Y189177D01*
X660333Y189292D01*
X660358Y189407D01*
X660379Y189524D01*
X660396Y189641D01*
X660410Y189758D01*
X660419Y189876D01*
X660425Y189994D01*
X660427Y190112D01*
X660427Y199143D01*
X660425Y199261D01*
X660419Y199379D01*
X660410Y199497D01*
X660396Y199614D01*
X660379Y199731D01*
X660358Y199848D01*
X660333Y199963D01*
X660304Y200078D01*
X660271Y200192D01*
X660235Y200304D01*
X660195Y200415D01*
X660152Y200525D01*
X660105Y200634D01*
X660055Y200741D01*
X660000Y200846D01*
X659943Y200949D01*
X659882Y201050D01*
X659818Y201150D01*
X659751Y201247D01*
X659681Y201342D01*
X659607Y201434D01*
X659531Y201525D01*
X659451Y201612D01*
X659369Y201697D01*
X659284Y201779D01*
X659197Y201859D01*
X659106Y201935D01*
X659014Y202009D01*
X658919Y202079D01*
X658822Y202146D01*
X658722Y202210D01*
X658621Y202271D01*
X658518Y202328D01*
X658413Y202383D01*
X658306Y202433D01*
X658197Y202480D01*
X658087Y202523D01*
X657976Y202563D01*
X657864Y202599D01*
X657750Y202632D01*
X657635Y202661D01*
X657520Y202686D01*
X657403Y202707D01*
X657286Y202724D01*
X657169Y202738D01*
X657051Y202747D01*
X656933Y202753D01*
X656815Y202755D01*
X656815Y202756D02*
X651396Y202756D01*
X642920Y200498D02*
X643057Y200209D01*
X643187Y199917D01*
X643310Y199621D01*
X643425Y199323D01*
X643534Y199022D01*
X643635Y198719D01*
X643729Y198413D01*
X643816Y198106D01*
X643895Y197796D01*
X643967Y197484D01*
X644031Y197171D01*
X644088Y196856D01*
X644138Y196540D01*
X644180Y196223D01*
X644214Y195905D01*
X644241Y195587D01*
X644260Y195267D01*
X644271Y194948D01*
X644275Y194628D01*
X642920Y200498D02*
X642881Y200606D01*
X642838Y200713D01*
X642792Y200818D01*
X642741Y200922D01*
X642688Y201024D01*
X642631Y201124D01*
X642570Y201222D01*
X642506Y201317D01*
X642439Y201411D01*
X642368Y201502D01*
X642295Y201591D01*
X642218Y201677D01*
X642139Y201760D01*
X642057Y201841D01*
X641972Y201919D01*
X641884Y201993D01*
X641794Y202065D01*
X641702Y202133D01*
X641607Y202199D01*
X641510Y202261D01*
X641411Y202319D01*
X641309Y202375D01*
X641207Y202426D01*
X641102Y202474D01*
X640996Y202519D01*
X640888Y202560D01*
X640779Y202597D01*
X640669Y202630D01*
X640557Y202659D01*
X640445Y202685D01*
X640332Y202707D01*
X640218Y202724D01*
X640104Y202738D01*
X639989Y202748D01*
X639874Y202754D01*
X639759Y202756D01*
X639644Y202754D01*
X639529Y202748D01*
X639414Y202738D01*
X639300Y202724D01*
X639186Y202707D01*
X639073Y202685D01*
X638961Y202659D01*
X638849Y202630D01*
X638739Y202597D01*
X638630Y202560D01*
X638522Y202519D01*
X638416Y202474D01*
X638312Y202426D01*
X638209Y202375D01*
X638108Y202319D01*
X638008Y202261D01*
X637911Y202199D01*
X637817Y202134D01*
X637724Y202065D01*
X637634Y201993D01*
X637546Y201919D01*
X637461Y201841D01*
X637379Y201760D01*
X637300Y201677D01*
X637223Y201591D01*
X637150Y201502D01*
X637079Y201411D01*
X637012Y201317D01*
X636948Y201222D01*
X636887Y201124D01*
X636830Y201024D01*
X636777Y200922D01*
X636726Y200818D01*
X636680Y200713D01*
X636637Y200606D01*
X636598Y200498D01*
X636599Y200498D02*
X636462Y200209D01*
X636332Y199917D01*
X636209Y199621D01*
X636094Y199323D01*
X635985Y199022D01*
X635884Y198719D01*
X635790Y198413D01*
X635703Y198106D01*
X635624Y197796D01*
X635552Y197484D01*
X635488Y197171D01*
X635431Y196856D01*
X635381Y196540D01*
X635339Y196223D01*
X635305Y195905D01*
X635278Y195587D01*
X635259Y195267D01*
X635248Y194948D01*
X635244Y194628D01*
X644275Y194628D02*
X644271Y194308D01*
X644260Y193989D01*
X644241Y193669D01*
X644214Y193351D01*
X644180Y193033D01*
X644138Y192716D01*
X644088Y192400D01*
X644031Y192085D01*
X643967Y191772D01*
X643895Y191460D01*
X643816Y191150D01*
X643729Y190843D01*
X643635Y190537D01*
X643534Y190234D01*
X643425Y189933D01*
X643310Y189635D01*
X643187Y189339D01*
X643057Y189047D01*
X642920Y188758D01*
X642920Y188757D02*
X642881Y188649D01*
X642838Y188542D01*
X642792Y188437D01*
X642741Y188333D01*
X642688Y188231D01*
X642631Y188131D01*
X642570Y188033D01*
X642506Y187938D01*
X642439Y187844D01*
X642368Y187753D01*
X642295Y187664D01*
X642218Y187578D01*
X642139Y187495D01*
X642057Y187414D01*
X641972Y187336D01*
X641884Y187262D01*
X641794Y187190D01*
X641701Y187121D01*
X641607Y187056D01*
X641510Y186994D01*
X641410Y186936D01*
X641309Y186880D01*
X641207Y186829D01*
X641102Y186781D01*
X640996Y186736D01*
X640888Y186695D01*
X640779Y186658D01*
X640669Y186625D01*
X640557Y186596D01*
X640445Y186570D01*
X640332Y186548D01*
X640218Y186531D01*
X640104Y186517D01*
X639989Y186507D01*
X639874Y186501D01*
X639759Y186499D01*
X636599Y188758D02*
X636462Y189047D01*
X636332Y189339D01*
X636209Y189635D01*
X636094Y189933D01*
X635985Y190234D01*
X635884Y190537D01*
X635790Y190843D01*
X635703Y191150D01*
X635624Y191460D01*
X635552Y191772D01*
X635488Y192085D01*
X635431Y192400D01*
X635381Y192716D01*
X635339Y193033D01*
X635305Y193351D01*
X635278Y193669D01*
X635259Y193989D01*
X635248Y194308D01*
X635244Y194628D01*
X636598Y188757D02*
X636637Y188649D01*
X636680Y188542D01*
X636726Y188437D01*
X636777Y188333D01*
X636830Y188231D01*
X636888Y188131D01*
X636948Y188033D01*
X637012Y187938D01*
X637079Y187844D01*
X637150Y187753D01*
X637223Y187664D01*
X637300Y187578D01*
X637379Y187495D01*
X637461Y187414D01*
X637546Y187336D01*
X637634Y187262D01*
X637724Y187190D01*
X637817Y187121D01*
X637911Y187056D01*
X638008Y186994D01*
X638108Y186936D01*
X638209Y186880D01*
X638312Y186829D01*
X638416Y186781D01*
X638522Y186736D01*
X638630Y186695D01*
X638739Y186658D01*
X638849Y186625D01*
X638961Y186596D01*
X639073Y186570D01*
X639186Y186548D01*
X639300Y186531D01*
X639414Y186517D01*
X639529Y186507D01*
X639644Y186501D01*
X639759Y186499D01*
X643372Y190112D02*
X636147Y199143D01*
X627912Y195531D02*
X623396Y195531D01*
X623263Y195529D01*
X623131Y195523D01*
X622999Y195513D01*
X622867Y195500D01*
X622735Y195482D01*
X622605Y195461D01*
X622474Y195436D01*
X622345Y195407D01*
X622217Y195374D01*
X622089Y195338D01*
X621963Y195298D01*
X621838Y195254D01*
X621714Y195206D01*
X621592Y195155D01*
X621471Y195100D01*
X621352Y195042D01*
X621234Y194980D01*
X621119Y194915D01*
X621005Y194846D01*
X620894Y194775D01*
X620785Y194699D01*
X620678Y194621D01*
X620573Y194540D01*
X620471Y194455D01*
X620371Y194368D01*
X620274Y194278D01*
X620179Y194185D01*
X620088Y194089D01*
X619999Y193991D01*
X619913Y193890D01*
X619830Y193786D01*
X619750Y193680D01*
X619674Y193572D01*
X619600Y193462D01*
X619530Y193349D01*
X619463Y193235D01*
X619400Y193118D01*
X619340Y193000D01*
X619283Y192880D01*
X619230Y192758D01*
X619181Y192635D01*
X619135Y192511D01*
X619093Y192385D01*
X619055Y192258D01*
X619020Y192130D01*
X618989Y192001D01*
X618962Y191872D01*
X618939Y191741D01*
X618919Y191610D01*
X618904Y191478D01*
X618892Y191346D01*
X618884Y191214D01*
X618880Y191081D01*
X618880Y190949D01*
X618884Y190816D01*
X618892Y190684D01*
X618904Y190552D01*
X618919Y190420D01*
X618939Y190289D01*
X618962Y190158D01*
X618989Y190029D01*
X619020Y189900D01*
X619055Y189772D01*
X619093Y189645D01*
X619135Y189519D01*
X619181Y189395D01*
X619230Y189272D01*
X619283Y189150D01*
X619340Y189030D01*
X619400Y188912D01*
X619463Y188795D01*
X619530Y188681D01*
X619600Y188568D01*
X619674Y188458D01*
X619750Y188350D01*
X619830Y188244D01*
X619913Y188140D01*
X619999Y188039D01*
X620088Y187941D01*
X620179Y187845D01*
X620274Y187752D01*
X620371Y187662D01*
X620471Y187575D01*
X620573Y187490D01*
X620678Y187409D01*
X620785Y187331D01*
X620894Y187255D01*
X621005Y187184D01*
X621119Y187115D01*
X621234Y187050D01*
X621352Y186988D01*
X621471Y186930D01*
X621592Y186875D01*
X621714Y186824D01*
X621838Y186776D01*
X621963Y186732D01*
X622089Y186692D01*
X622217Y186656D01*
X622345Y186623D01*
X622474Y186594D01*
X622605Y186569D01*
X622735Y186548D01*
X622867Y186530D01*
X622999Y186517D01*
X623131Y186507D01*
X623263Y186501D01*
X623396Y186499D01*
X623396Y186500D02*
X627912Y186500D01*
X627912Y202756D01*
X623396Y202756D01*
X623396Y202755D02*
X623277Y202753D01*
X623157Y202747D01*
X623038Y202737D01*
X622920Y202723D01*
X622801Y202706D01*
X622684Y202684D01*
X622567Y202659D01*
X622452Y202629D01*
X622337Y202596D01*
X622223Y202559D01*
X622111Y202519D01*
X622000Y202474D01*
X621891Y202426D01*
X621783Y202375D01*
X621677Y202320D01*
X621573Y202261D01*
X621471Y202199D01*
X621371Y202134D01*
X621273Y202065D01*
X621177Y201993D01*
X621084Y201918D01*
X620994Y201841D01*
X620906Y201760D01*
X620821Y201676D01*
X620739Y201589D01*
X620659Y201500D01*
X620583Y201408D01*
X620509Y201314D01*
X620439Y201217D01*
X620372Y201119D01*
X620308Y201018D01*
X620248Y200914D01*
X620191Y200809D01*
X620138Y200702D01*
X620088Y200594D01*
X620042Y200484D01*
X620000Y200372D01*
X619961Y200259D01*
X619926Y200145D01*
X619895Y200030D01*
X619867Y199913D01*
X619844Y199796D01*
X619824Y199679D01*
X619808Y199560D01*
X619796Y199441D01*
X619788Y199322D01*
X619784Y199203D01*
X619784Y199083D01*
X619788Y198964D01*
X619796Y198845D01*
X619808Y198726D01*
X619824Y198607D01*
X619844Y198490D01*
X619867Y198373D01*
X619895Y198256D01*
X619926Y198141D01*
X619961Y198027D01*
X620000Y197914D01*
X620042Y197802D01*
X620088Y197692D01*
X620138Y197584D01*
X620191Y197477D01*
X620248Y197372D01*
X620308Y197268D01*
X620372Y197167D01*
X620439Y197069D01*
X620509Y196972D01*
X620583Y196878D01*
X620659Y196786D01*
X620739Y196697D01*
X620821Y196610D01*
X620906Y196526D01*
X620994Y196445D01*
X621084Y196368D01*
X621177Y196293D01*
X621273Y196221D01*
X621371Y196152D01*
X621471Y196087D01*
X621573Y196025D01*
X621677Y195966D01*
X621783Y195911D01*
X621891Y195860D01*
X622000Y195812D01*
X622111Y195767D01*
X622223Y195727D01*
X622337Y195690D01*
X622452Y195657D01*
X622567Y195627D01*
X622684Y195602D01*
X622801Y195580D01*
X622920Y195563D01*
X623038Y195549D01*
X623157Y195539D01*
X623277Y195533D01*
X623396Y195531D01*
X613012Y199143D02*
X608497Y202756D01*
X608497Y186500D01*
X613012Y186500D02*
X603981Y186500D01*
X593808Y186500D02*
X590196Y186500D01*
X593808Y186500D02*
X593926Y186502D01*
X594044Y186508D01*
X594162Y186517D01*
X594279Y186531D01*
X594396Y186548D01*
X594513Y186569D01*
X594628Y186594D01*
X594743Y186623D01*
X594857Y186656D01*
X594969Y186692D01*
X595080Y186732D01*
X595190Y186775D01*
X595299Y186822D01*
X595406Y186872D01*
X595511Y186927D01*
X595614Y186984D01*
X595715Y187045D01*
X595815Y187109D01*
X595912Y187176D01*
X596007Y187246D01*
X596099Y187320D01*
X596190Y187396D01*
X596277Y187476D01*
X596362Y187558D01*
X596444Y187643D01*
X596524Y187730D01*
X596600Y187821D01*
X596674Y187913D01*
X596744Y188008D01*
X596811Y188105D01*
X596875Y188205D01*
X596936Y188306D01*
X596993Y188409D01*
X597048Y188514D01*
X597098Y188621D01*
X597145Y188730D01*
X597188Y188840D01*
X597228Y188951D01*
X597264Y189063D01*
X597297Y189177D01*
X597326Y189292D01*
X597351Y189407D01*
X597372Y189524D01*
X597389Y189641D01*
X597403Y189758D01*
X597412Y189876D01*
X597418Y189994D01*
X597420Y190112D01*
X597421Y190112D02*
X597421Y199143D01*
X597420Y199143D02*
X597418Y199261D01*
X597412Y199379D01*
X597403Y199497D01*
X597389Y199614D01*
X597372Y199731D01*
X597351Y199848D01*
X597326Y199963D01*
X597297Y200078D01*
X597264Y200192D01*
X597228Y200304D01*
X597188Y200415D01*
X597145Y200525D01*
X597098Y200634D01*
X597048Y200741D01*
X596993Y200846D01*
X596936Y200949D01*
X596875Y201050D01*
X596811Y201150D01*
X596744Y201247D01*
X596674Y201342D01*
X596600Y201434D01*
X596524Y201525D01*
X596444Y201612D01*
X596362Y201697D01*
X596277Y201779D01*
X596190Y201859D01*
X596099Y201935D01*
X596007Y202009D01*
X595912Y202079D01*
X595815Y202146D01*
X595715Y202210D01*
X595614Y202271D01*
X595511Y202328D01*
X595406Y202383D01*
X595299Y202433D01*
X595190Y202480D01*
X595080Y202523D01*
X594969Y202563D01*
X594857Y202599D01*
X594743Y202632D01*
X594628Y202661D01*
X594513Y202686D01*
X594396Y202707D01*
X594279Y202724D01*
X594162Y202738D01*
X594044Y202747D01*
X593926Y202753D01*
X593808Y202755D01*
X593808Y202756D02*
X590196Y202756D01*
X583804Y186500D02*
X576579Y186500D01*
X583804Y186500D02*
X583804Y202756D01*
X576579Y202756D01*
X578386Y195531D02*
X583804Y195531D01*
X570287Y191015D02*
X570287Y202756D01*
X570288Y191015D02*
X570286Y190882D01*
X570280Y190750D01*
X570270Y190618D01*
X570257Y190486D01*
X570239Y190354D01*
X570218Y190224D01*
X570193Y190093D01*
X570164Y189964D01*
X570131Y189836D01*
X570095Y189708D01*
X570055Y189582D01*
X570011Y189457D01*
X569963Y189333D01*
X569912Y189211D01*
X569857Y189090D01*
X569799Y188971D01*
X569737Y188853D01*
X569672Y188738D01*
X569603Y188624D01*
X569532Y188513D01*
X569456Y188404D01*
X569378Y188297D01*
X569297Y188192D01*
X569212Y188090D01*
X569125Y187990D01*
X569035Y187893D01*
X568942Y187798D01*
X568846Y187707D01*
X568748Y187618D01*
X568647Y187532D01*
X568543Y187449D01*
X568437Y187369D01*
X568329Y187293D01*
X568219Y187219D01*
X568106Y187149D01*
X567992Y187082D01*
X567875Y187019D01*
X567757Y186959D01*
X567637Y186902D01*
X567515Y186849D01*
X567392Y186800D01*
X567268Y186754D01*
X567142Y186712D01*
X567015Y186674D01*
X566887Y186639D01*
X566758Y186608D01*
X566629Y186581D01*
X566498Y186558D01*
X566367Y186538D01*
X566235Y186523D01*
X566103Y186511D01*
X565971Y186503D01*
X565838Y186499D01*
X565706Y186499D01*
X565573Y186503D01*
X565441Y186511D01*
X565309Y186523D01*
X565177Y186538D01*
X565046Y186558D01*
X564915Y186581D01*
X564786Y186608D01*
X564657Y186639D01*
X564529Y186674D01*
X564402Y186712D01*
X564276Y186754D01*
X564152Y186800D01*
X564029Y186849D01*
X563907Y186902D01*
X563787Y186959D01*
X563669Y187019D01*
X563552Y187082D01*
X563438Y187149D01*
X563325Y187219D01*
X563215Y187293D01*
X563107Y187369D01*
X563001Y187449D01*
X562897Y187532D01*
X562796Y187618D01*
X562698Y187707D01*
X562602Y187798D01*
X562509Y187893D01*
X562419Y187990D01*
X562332Y188090D01*
X562247Y188192D01*
X562166Y188297D01*
X562088Y188404D01*
X562012Y188513D01*
X561941Y188624D01*
X561872Y188738D01*
X561807Y188853D01*
X561745Y188971D01*
X561687Y189090D01*
X561632Y189211D01*
X561581Y189333D01*
X561533Y189457D01*
X561489Y189582D01*
X561449Y189708D01*
X561413Y189836D01*
X561380Y189964D01*
X561351Y190093D01*
X561326Y190224D01*
X561305Y190354D01*
X561287Y190486D01*
X561274Y190618D01*
X561264Y190750D01*
X561258Y190882D01*
X561256Y191015D01*
X561256Y202756D01*
D11*
X526168Y167069D02*
X524080Y167069D01*
X526168Y167069D02*
X526257Y167071D01*
X526345Y167077D01*
X526433Y167086D01*
X526521Y167099D01*
X526608Y167116D01*
X526694Y167136D01*
X526779Y167161D01*
X526864Y167188D01*
X526947Y167220D01*
X527028Y167254D01*
X527108Y167293D01*
X527186Y167334D01*
X527263Y167379D01*
X527337Y167427D01*
X527410Y167478D01*
X527480Y167532D01*
X527547Y167590D01*
X527613Y167650D01*
X527675Y167712D01*
X527735Y167778D01*
X527793Y167845D01*
X527847Y167915D01*
X527898Y167988D01*
X527946Y168062D01*
X527991Y168139D01*
X528032Y168217D01*
X528071Y168297D01*
X528105Y168378D01*
X528137Y168461D01*
X528164Y168546D01*
X528189Y168631D01*
X528209Y168717D01*
X528226Y168804D01*
X528239Y168892D01*
X528248Y168980D01*
X528254Y169068D01*
X528256Y169157D01*
X528257Y169157D02*
X528257Y174378D01*
X528256Y174378D02*
X528254Y174467D01*
X528248Y174555D01*
X528239Y174643D01*
X528226Y174731D01*
X528209Y174818D01*
X528189Y174904D01*
X528164Y174989D01*
X528137Y175074D01*
X528105Y175157D01*
X528071Y175238D01*
X528032Y175318D01*
X527991Y175396D01*
X527946Y175473D01*
X527898Y175547D01*
X527847Y175620D01*
X527793Y175690D01*
X527735Y175757D01*
X527675Y175823D01*
X527613Y175885D01*
X527547Y175945D01*
X527480Y176003D01*
X527410Y176057D01*
X527337Y176108D01*
X527263Y176156D01*
X527186Y176201D01*
X527108Y176242D01*
X527028Y176281D01*
X526947Y176315D01*
X526864Y176347D01*
X526779Y176374D01*
X526694Y176399D01*
X526608Y176419D01*
X526521Y176436D01*
X526433Y176449D01*
X526345Y176458D01*
X526257Y176464D01*
X526168Y176466D01*
X526168Y176467D02*
X524080Y176467D01*
X520611Y174378D02*
X518000Y176467D01*
X518000Y167069D01*
X515390Y167069D02*
X520611Y167069D01*
D10*
X520217Y180327D02*
X520217Y200457D01*
D11*
X532017Y189294D02*
X534106Y189294D01*
X534195Y189296D01*
X534283Y189302D01*
X534371Y189311D01*
X534459Y189324D01*
X534546Y189341D01*
X534632Y189361D01*
X534717Y189386D01*
X534802Y189413D01*
X534885Y189445D01*
X534966Y189479D01*
X535046Y189518D01*
X535124Y189559D01*
X535201Y189604D01*
X535275Y189652D01*
X535348Y189703D01*
X535418Y189757D01*
X535485Y189815D01*
X535551Y189875D01*
X535613Y189937D01*
X535673Y190003D01*
X535731Y190070D01*
X535785Y190140D01*
X535836Y190213D01*
X535884Y190287D01*
X535929Y190364D01*
X535970Y190442D01*
X536009Y190522D01*
X536043Y190603D01*
X536075Y190686D01*
X536102Y190771D01*
X536127Y190856D01*
X536147Y190942D01*
X536164Y191029D01*
X536177Y191117D01*
X536186Y191205D01*
X536192Y191293D01*
X536194Y191382D01*
X536194Y196603D01*
X536192Y196692D01*
X536186Y196780D01*
X536177Y196868D01*
X536164Y196956D01*
X536147Y197043D01*
X536127Y197129D01*
X536102Y197214D01*
X536075Y197299D01*
X536043Y197382D01*
X536009Y197463D01*
X535970Y197543D01*
X535929Y197621D01*
X535884Y197698D01*
X535836Y197772D01*
X535785Y197845D01*
X535731Y197915D01*
X535673Y197982D01*
X535613Y198048D01*
X535551Y198110D01*
X535485Y198170D01*
X535418Y198228D01*
X535348Y198282D01*
X535275Y198333D01*
X535201Y198381D01*
X535124Y198426D01*
X535046Y198467D01*
X534966Y198506D01*
X534885Y198540D01*
X534802Y198572D01*
X534717Y198599D01*
X534632Y198624D01*
X534546Y198644D01*
X534459Y198661D01*
X534371Y198674D01*
X534283Y198683D01*
X534195Y198689D01*
X534106Y198691D01*
X534106Y198692D02*
X532017Y198692D01*
X525677Y198692D02*
X525582Y198690D01*
X525488Y198684D01*
X525394Y198675D01*
X525300Y198662D01*
X525207Y198645D01*
X525115Y198624D01*
X525023Y198599D01*
X524933Y198571D01*
X524844Y198539D01*
X524756Y198504D01*
X524670Y198465D01*
X524585Y198423D01*
X524502Y198377D01*
X524421Y198328D01*
X524342Y198276D01*
X524265Y198221D01*
X524191Y198162D01*
X524119Y198101D01*
X524049Y198037D01*
X523982Y197970D01*
X523918Y197900D01*
X523857Y197828D01*
X523798Y197754D01*
X523743Y197677D01*
X523691Y197598D01*
X523642Y197517D01*
X523596Y197434D01*
X523554Y197349D01*
X523515Y197263D01*
X523480Y197175D01*
X523448Y197086D01*
X523420Y196996D01*
X523395Y196904D01*
X523374Y196812D01*
X523357Y196719D01*
X523344Y196625D01*
X523335Y196531D01*
X523329Y196437D01*
X523327Y196342D01*
X525677Y198691D02*
X525785Y198689D01*
X525894Y198683D01*
X526002Y198673D01*
X526109Y198660D01*
X526216Y198642D01*
X526323Y198621D01*
X526428Y198596D01*
X526533Y198567D01*
X526636Y198535D01*
X526738Y198498D01*
X526839Y198458D01*
X526938Y198415D01*
X527036Y198368D01*
X527132Y198317D01*
X527226Y198263D01*
X527318Y198206D01*
X527408Y198145D01*
X527496Y198081D01*
X527581Y198015D01*
X527664Y197945D01*
X527744Y197872D01*
X527822Y197796D01*
X527897Y197718D01*
X527969Y197637D01*
X528038Y197553D01*
X528104Y197467D01*
X528167Y197379D01*
X528226Y197288D01*
X528283Y197196D01*
X528336Y197101D01*
X528385Y197004D01*
X528431Y196906D01*
X528474Y196807D01*
X528513Y196705D01*
X528548Y196603D01*
X524110Y194514D02*
X524041Y194583D01*
X523975Y194654D01*
X523911Y194727D01*
X523850Y194803D01*
X523792Y194882D01*
X523738Y194962D01*
X523686Y195045D01*
X523638Y195129D01*
X523592Y195215D01*
X523551Y195303D01*
X523512Y195393D01*
X523477Y195484D01*
X523446Y195576D01*
X523418Y195669D01*
X523394Y195763D01*
X523374Y195858D01*
X523357Y195954D01*
X523344Y196051D01*
X523335Y196148D01*
X523329Y196245D01*
X523327Y196342D01*
X524110Y194515D02*
X528548Y189294D01*
X523327Y189294D01*
X555830Y140081D02*
X557918Y140081D01*
X558007Y140083D01*
X558095Y140089D01*
X558183Y140098D01*
X558271Y140111D01*
X558358Y140128D01*
X558444Y140148D01*
X558529Y140173D01*
X558614Y140200D01*
X558697Y140232D01*
X558778Y140266D01*
X558858Y140305D01*
X558936Y140346D01*
X559013Y140391D01*
X559087Y140439D01*
X559160Y140490D01*
X559230Y140544D01*
X559297Y140602D01*
X559363Y140662D01*
X559425Y140724D01*
X559485Y140790D01*
X559543Y140857D01*
X559597Y140927D01*
X559648Y141000D01*
X559696Y141074D01*
X559741Y141151D01*
X559782Y141229D01*
X559821Y141309D01*
X559855Y141390D01*
X559887Y141473D01*
X559914Y141558D01*
X559939Y141643D01*
X559959Y141729D01*
X559976Y141816D01*
X559989Y141904D01*
X559998Y141992D01*
X560004Y142080D01*
X560006Y142169D01*
X560007Y142169D02*
X560007Y147391D01*
X560006Y147391D02*
X560004Y147480D01*
X559998Y147568D01*
X559989Y147656D01*
X559976Y147744D01*
X559959Y147831D01*
X559939Y147917D01*
X559914Y148002D01*
X559887Y148087D01*
X559855Y148170D01*
X559821Y148251D01*
X559782Y148331D01*
X559741Y148409D01*
X559696Y148486D01*
X559648Y148560D01*
X559597Y148633D01*
X559543Y148703D01*
X559485Y148770D01*
X559425Y148836D01*
X559363Y148898D01*
X559297Y148958D01*
X559230Y149016D01*
X559160Y149070D01*
X559087Y149121D01*
X559013Y149169D01*
X558936Y149214D01*
X558858Y149255D01*
X558778Y149294D01*
X558697Y149328D01*
X558614Y149360D01*
X558529Y149387D01*
X558444Y149412D01*
X558358Y149432D01*
X558271Y149449D01*
X558183Y149462D01*
X558095Y149471D01*
X558007Y149477D01*
X557918Y149479D01*
X555830Y149479D01*
X552361Y140081D02*
X549750Y140081D01*
X549649Y140083D01*
X549548Y140089D01*
X549447Y140099D01*
X549347Y140112D01*
X549247Y140130D01*
X549148Y140151D01*
X549050Y140177D01*
X548953Y140206D01*
X548857Y140238D01*
X548763Y140275D01*
X548670Y140315D01*
X548578Y140359D01*
X548489Y140406D01*
X548401Y140457D01*
X548315Y140511D01*
X548232Y140568D01*
X548150Y140628D01*
X548072Y140692D01*
X547995Y140758D01*
X547922Y140828D01*
X547851Y140900D01*
X547783Y140975D01*
X547718Y141053D01*
X547656Y141133D01*
X547597Y141215D01*
X547541Y141300D01*
X547489Y141387D01*
X547440Y141475D01*
X547394Y141566D01*
X547353Y141658D01*
X547314Y141752D01*
X547280Y141847D01*
X547249Y141943D01*
X547222Y142041D01*
X547198Y142139D01*
X547179Y142239D01*
X547163Y142339D01*
X547151Y142439D01*
X547143Y142540D01*
X547139Y142641D01*
X547139Y142743D01*
X547143Y142844D01*
X547151Y142945D01*
X547163Y143045D01*
X547179Y143145D01*
X547198Y143245D01*
X547222Y143343D01*
X547249Y143441D01*
X547280Y143537D01*
X547314Y143632D01*
X547353Y143726D01*
X547394Y143818D01*
X547440Y143909D01*
X547489Y143998D01*
X547541Y144084D01*
X547597Y144169D01*
X547656Y144251D01*
X547718Y144331D01*
X547783Y144409D01*
X547851Y144484D01*
X547922Y144556D01*
X547995Y144626D01*
X548072Y144692D01*
X548150Y144756D01*
X548232Y144816D01*
X548315Y144873D01*
X548401Y144927D01*
X548489Y144978D01*
X548578Y145025D01*
X548670Y145069D01*
X548763Y145109D01*
X548857Y145146D01*
X548953Y145178D01*
X549050Y145207D01*
X549148Y145233D01*
X549247Y145254D01*
X549347Y145272D01*
X549447Y145285D01*
X549548Y145295D01*
X549649Y145301D01*
X549750Y145303D01*
X549228Y149479D02*
X552361Y149479D01*
X549228Y149479D02*
X549138Y149477D01*
X549049Y149471D01*
X548959Y149462D01*
X548870Y149448D01*
X548782Y149431D01*
X548695Y149410D01*
X548608Y149385D01*
X548523Y149356D01*
X548439Y149324D01*
X548357Y149289D01*
X548276Y149249D01*
X548197Y149207D01*
X548120Y149161D01*
X548045Y149111D01*
X547972Y149059D01*
X547901Y149003D01*
X547833Y148945D01*
X547768Y148883D01*
X547705Y148819D01*
X547645Y148752D01*
X547588Y148683D01*
X547534Y148611D01*
X547483Y148537D01*
X547435Y148461D01*
X547391Y148383D01*
X547350Y148303D01*
X547312Y148221D01*
X547278Y148138D01*
X547248Y148053D01*
X547221Y147967D01*
X547198Y147881D01*
X547179Y147793D01*
X547164Y147704D01*
X547152Y147615D01*
X547144Y147526D01*
X547140Y147436D01*
X547140Y147346D01*
X547144Y147256D01*
X547152Y147167D01*
X547164Y147078D01*
X547179Y146989D01*
X547198Y146901D01*
X547221Y146815D01*
X547248Y146729D01*
X547278Y146644D01*
X547312Y146561D01*
X547350Y146479D01*
X547391Y146399D01*
X547435Y146321D01*
X547483Y146245D01*
X547534Y146171D01*
X547588Y146099D01*
X547645Y146030D01*
X547705Y145963D01*
X547768Y145899D01*
X547833Y145837D01*
X547901Y145779D01*
X547972Y145723D01*
X548045Y145671D01*
X548120Y145621D01*
X548197Y145575D01*
X548276Y145533D01*
X548357Y145493D01*
X548439Y145458D01*
X548523Y145426D01*
X548608Y145397D01*
X548695Y145372D01*
X548782Y145351D01*
X548870Y145334D01*
X548959Y145320D01*
X549049Y145311D01*
X549138Y145305D01*
X549228Y145303D01*
X549228Y145302D02*
X551317Y145302D01*
D10*
X574192Y150165D02*
X574192Y170294D01*
D11*
X556331Y171831D02*
X554242Y171831D01*
X556331Y171831D02*
X556420Y171833D01*
X556508Y171839D01*
X556596Y171848D01*
X556684Y171861D01*
X556771Y171878D01*
X556857Y171898D01*
X556942Y171923D01*
X557027Y171950D01*
X557110Y171982D01*
X557191Y172016D01*
X557271Y172055D01*
X557349Y172096D01*
X557426Y172141D01*
X557500Y172189D01*
X557573Y172240D01*
X557643Y172294D01*
X557710Y172352D01*
X557776Y172412D01*
X557838Y172474D01*
X557898Y172540D01*
X557956Y172607D01*
X558010Y172677D01*
X558061Y172750D01*
X558109Y172824D01*
X558154Y172901D01*
X558195Y172979D01*
X558234Y173059D01*
X558268Y173140D01*
X558300Y173223D01*
X558327Y173308D01*
X558352Y173393D01*
X558372Y173479D01*
X558389Y173566D01*
X558402Y173654D01*
X558411Y173742D01*
X558417Y173830D01*
X558419Y173919D01*
X558419Y179141D01*
X558417Y179230D01*
X558411Y179318D01*
X558402Y179406D01*
X558389Y179494D01*
X558372Y179581D01*
X558352Y179667D01*
X558327Y179752D01*
X558300Y179837D01*
X558268Y179920D01*
X558234Y180001D01*
X558195Y180081D01*
X558154Y180159D01*
X558109Y180236D01*
X558061Y180310D01*
X558010Y180383D01*
X557956Y180453D01*
X557898Y180520D01*
X557838Y180586D01*
X557776Y180648D01*
X557710Y180708D01*
X557643Y180766D01*
X557573Y180820D01*
X557500Y180871D01*
X557426Y180919D01*
X557349Y180964D01*
X557271Y181005D01*
X557191Y181044D01*
X557110Y181078D01*
X557027Y181110D01*
X556942Y181137D01*
X556857Y181162D01*
X556771Y181182D01*
X556684Y181199D01*
X556596Y181212D01*
X556508Y181221D01*
X556420Y181227D01*
X556331Y181229D01*
X554242Y181229D01*
X548685Y181229D02*
X550773Y173919D01*
X545552Y173919D01*
X547119Y171831D02*
X547119Y176008D01*
X527756Y140081D02*
X525667Y140081D01*
X527756Y140081D02*
X527845Y140083D01*
X527933Y140089D01*
X528021Y140098D01*
X528109Y140111D01*
X528196Y140128D01*
X528282Y140148D01*
X528367Y140173D01*
X528452Y140200D01*
X528535Y140232D01*
X528616Y140266D01*
X528696Y140305D01*
X528774Y140346D01*
X528851Y140391D01*
X528925Y140439D01*
X528998Y140490D01*
X529068Y140544D01*
X529135Y140602D01*
X529201Y140662D01*
X529263Y140724D01*
X529323Y140790D01*
X529381Y140857D01*
X529435Y140927D01*
X529486Y141000D01*
X529534Y141074D01*
X529579Y141151D01*
X529620Y141229D01*
X529659Y141309D01*
X529693Y141390D01*
X529725Y141473D01*
X529752Y141558D01*
X529777Y141643D01*
X529797Y141729D01*
X529814Y141816D01*
X529827Y141904D01*
X529836Y141992D01*
X529842Y142080D01*
X529844Y142169D01*
X529844Y147391D01*
X529842Y147480D01*
X529836Y147568D01*
X529827Y147656D01*
X529814Y147744D01*
X529797Y147831D01*
X529777Y147917D01*
X529752Y148002D01*
X529725Y148087D01*
X529693Y148170D01*
X529659Y148251D01*
X529620Y148331D01*
X529579Y148409D01*
X529534Y148486D01*
X529486Y148560D01*
X529435Y148633D01*
X529381Y148703D01*
X529323Y148770D01*
X529263Y148836D01*
X529201Y148898D01*
X529135Y148958D01*
X529068Y149016D01*
X528998Y149070D01*
X528925Y149121D01*
X528851Y149169D01*
X528774Y149214D01*
X528696Y149255D01*
X528616Y149294D01*
X528535Y149328D01*
X528452Y149360D01*
X528367Y149387D01*
X528282Y149412D01*
X528196Y149432D01*
X528109Y149449D01*
X528021Y149462D01*
X527933Y149471D01*
X527845Y149477D01*
X527756Y149479D01*
X525667Y149479D01*
X522198Y140081D02*
X519066Y140081D01*
X518977Y140083D01*
X518889Y140089D01*
X518801Y140098D01*
X518713Y140111D01*
X518626Y140128D01*
X518540Y140148D01*
X518455Y140173D01*
X518370Y140200D01*
X518287Y140232D01*
X518206Y140266D01*
X518126Y140305D01*
X518048Y140346D01*
X517971Y140391D01*
X517897Y140439D01*
X517824Y140490D01*
X517754Y140544D01*
X517687Y140602D01*
X517621Y140662D01*
X517559Y140724D01*
X517499Y140790D01*
X517441Y140857D01*
X517387Y140927D01*
X517336Y141000D01*
X517288Y141074D01*
X517243Y141151D01*
X517202Y141229D01*
X517163Y141309D01*
X517129Y141390D01*
X517097Y141473D01*
X517070Y141558D01*
X517045Y141643D01*
X517025Y141729D01*
X517008Y141816D01*
X516995Y141904D01*
X516986Y141992D01*
X516980Y142080D01*
X516978Y142169D01*
X516977Y142169D02*
X516977Y143214D01*
X516978Y143214D02*
X516980Y143303D01*
X516986Y143391D01*
X516995Y143479D01*
X517008Y143567D01*
X517025Y143654D01*
X517045Y143740D01*
X517070Y143825D01*
X517097Y143910D01*
X517129Y143993D01*
X517163Y144074D01*
X517202Y144154D01*
X517243Y144232D01*
X517288Y144309D01*
X517336Y144383D01*
X517387Y144456D01*
X517441Y144526D01*
X517499Y144593D01*
X517559Y144659D01*
X517621Y144721D01*
X517687Y144781D01*
X517754Y144839D01*
X517824Y144893D01*
X517897Y144944D01*
X517971Y144992D01*
X518048Y145037D01*
X518126Y145078D01*
X518206Y145117D01*
X518287Y145151D01*
X518370Y145183D01*
X518455Y145210D01*
X518540Y145235D01*
X518626Y145255D01*
X518713Y145272D01*
X518801Y145285D01*
X518889Y145294D01*
X518977Y145300D01*
X519066Y145302D01*
X522198Y145302D01*
X522198Y149479D01*
X516977Y149479D01*
D10*
X399567Y185090D02*
X399567Y205219D01*
D11*
X381706Y173419D02*
X379617Y173419D01*
X381706Y173419D02*
X381795Y173421D01*
X381883Y173427D01*
X381971Y173436D01*
X382059Y173449D01*
X382146Y173466D01*
X382232Y173486D01*
X382317Y173511D01*
X382402Y173538D01*
X382485Y173570D01*
X382566Y173604D01*
X382646Y173643D01*
X382724Y173684D01*
X382801Y173729D01*
X382875Y173777D01*
X382948Y173828D01*
X383018Y173882D01*
X383085Y173940D01*
X383151Y174000D01*
X383213Y174062D01*
X383273Y174128D01*
X383331Y174195D01*
X383385Y174265D01*
X383436Y174338D01*
X383484Y174412D01*
X383529Y174489D01*
X383570Y174567D01*
X383609Y174647D01*
X383643Y174728D01*
X383675Y174811D01*
X383702Y174896D01*
X383727Y174981D01*
X383747Y175067D01*
X383764Y175154D01*
X383777Y175242D01*
X383786Y175330D01*
X383792Y175418D01*
X383794Y175507D01*
X383794Y180728D01*
X383792Y180817D01*
X383786Y180905D01*
X383777Y180993D01*
X383764Y181081D01*
X383747Y181168D01*
X383727Y181254D01*
X383702Y181339D01*
X383675Y181424D01*
X383643Y181507D01*
X383609Y181588D01*
X383570Y181668D01*
X383529Y181746D01*
X383484Y181823D01*
X383436Y181897D01*
X383385Y181970D01*
X383331Y182040D01*
X383273Y182107D01*
X383213Y182173D01*
X383151Y182235D01*
X383085Y182295D01*
X383018Y182353D01*
X382948Y182407D01*
X382875Y182458D01*
X382801Y182506D01*
X382724Y182551D01*
X382646Y182592D01*
X382566Y182631D01*
X382485Y182665D01*
X382402Y182697D01*
X382317Y182724D01*
X382232Y182749D01*
X382146Y182769D01*
X382059Y182786D01*
X381971Y182799D01*
X381883Y182808D01*
X381795Y182814D01*
X381706Y182816D01*
X381706Y182817D02*
X379617Y182817D01*
X376148Y178640D02*
X373016Y178640D01*
X373016Y178639D02*
X372927Y178637D01*
X372839Y178631D01*
X372751Y178622D01*
X372663Y178609D01*
X372576Y178592D01*
X372490Y178572D01*
X372405Y178547D01*
X372320Y178520D01*
X372237Y178488D01*
X372156Y178454D01*
X372076Y178415D01*
X371998Y178374D01*
X371921Y178329D01*
X371847Y178281D01*
X371774Y178230D01*
X371704Y178176D01*
X371637Y178118D01*
X371571Y178058D01*
X371509Y177996D01*
X371449Y177930D01*
X371391Y177863D01*
X371337Y177793D01*
X371286Y177720D01*
X371238Y177646D01*
X371193Y177569D01*
X371152Y177491D01*
X371113Y177411D01*
X371079Y177330D01*
X371047Y177247D01*
X371020Y177162D01*
X370995Y177077D01*
X370975Y176991D01*
X370958Y176904D01*
X370945Y176816D01*
X370936Y176728D01*
X370930Y176640D01*
X370928Y176551D01*
X370927Y176551D02*
X370927Y176029D01*
X370929Y175928D01*
X370935Y175827D01*
X370945Y175726D01*
X370958Y175626D01*
X370976Y175526D01*
X370997Y175427D01*
X371023Y175329D01*
X371052Y175232D01*
X371084Y175136D01*
X371121Y175042D01*
X371161Y174949D01*
X371205Y174857D01*
X371252Y174768D01*
X371303Y174680D01*
X371357Y174594D01*
X371414Y174511D01*
X371474Y174429D01*
X371538Y174351D01*
X371604Y174274D01*
X371674Y174201D01*
X371746Y174130D01*
X371821Y174062D01*
X371899Y173997D01*
X371979Y173935D01*
X372061Y173876D01*
X372146Y173820D01*
X372233Y173768D01*
X372321Y173719D01*
X372412Y173673D01*
X372504Y173632D01*
X372598Y173593D01*
X372693Y173559D01*
X372789Y173528D01*
X372887Y173501D01*
X372985Y173477D01*
X373085Y173458D01*
X373185Y173442D01*
X373285Y173430D01*
X373386Y173422D01*
X373487Y173418D01*
X373589Y173418D01*
X373690Y173422D01*
X373791Y173430D01*
X373891Y173442D01*
X373991Y173458D01*
X374091Y173477D01*
X374189Y173501D01*
X374287Y173528D01*
X374383Y173559D01*
X374478Y173593D01*
X374572Y173632D01*
X374664Y173673D01*
X374755Y173719D01*
X374843Y173768D01*
X374930Y173820D01*
X375015Y173876D01*
X375097Y173935D01*
X375177Y173997D01*
X375255Y174062D01*
X375330Y174130D01*
X375402Y174201D01*
X375472Y174274D01*
X375538Y174351D01*
X375602Y174429D01*
X375662Y174511D01*
X375719Y174594D01*
X375773Y174680D01*
X375824Y174768D01*
X375871Y174857D01*
X375915Y174949D01*
X375955Y175042D01*
X375992Y175136D01*
X376024Y175232D01*
X376053Y175329D01*
X376079Y175427D01*
X376100Y175526D01*
X376118Y175626D01*
X376131Y175726D01*
X376141Y175827D01*
X376147Y175928D01*
X376149Y176029D01*
X376148Y176029D02*
X376148Y178640D01*
X376146Y178766D01*
X376140Y178892D01*
X376131Y179018D01*
X376118Y179143D01*
X376100Y179268D01*
X376080Y179393D01*
X376055Y179517D01*
X376027Y179640D01*
X375995Y179762D01*
X375959Y179883D01*
X375920Y180003D01*
X375877Y180121D01*
X375830Y180238D01*
X375780Y180354D01*
X375726Y180469D01*
X375670Y180581D01*
X375609Y180692D01*
X375546Y180801D01*
X375479Y180908D01*
X375409Y181013D01*
X375335Y181116D01*
X375259Y181216D01*
X375180Y181314D01*
X375098Y181410D01*
X375012Y181503D01*
X374925Y181594D01*
X374834Y181681D01*
X374741Y181767D01*
X374645Y181849D01*
X374547Y181928D01*
X374447Y182004D01*
X374344Y182078D01*
X374239Y182148D01*
X374132Y182215D01*
X374023Y182278D01*
X373912Y182339D01*
X373800Y182395D01*
X373685Y182449D01*
X373569Y182499D01*
X373452Y182546D01*
X373334Y182589D01*
X373214Y182628D01*
X373093Y182664D01*
X372971Y182696D01*
X372848Y182724D01*
X372724Y182749D01*
X372599Y182769D01*
X372474Y182787D01*
X372349Y182800D01*
X372223Y182809D01*
X372097Y182815D01*
X371971Y182817D01*
D10*
X504342Y136957D02*
X504342Y116827D01*
D11*
X516142Y122619D02*
X518231Y122619D01*
X518320Y122621D01*
X518408Y122627D01*
X518496Y122636D01*
X518584Y122649D01*
X518671Y122666D01*
X518757Y122686D01*
X518842Y122711D01*
X518927Y122738D01*
X519010Y122770D01*
X519091Y122804D01*
X519171Y122843D01*
X519249Y122884D01*
X519326Y122929D01*
X519400Y122977D01*
X519473Y123028D01*
X519543Y123082D01*
X519610Y123140D01*
X519676Y123200D01*
X519738Y123262D01*
X519798Y123328D01*
X519856Y123395D01*
X519910Y123465D01*
X519961Y123538D01*
X520009Y123612D01*
X520054Y123689D01*
X520095Y123767D01*
X520134Y123847D01*
X520168Y123928D01*
X520200Y124011D01*
X520227Y124096D01*
X520252Y124181D01*
X520272Y124267D01*
X520289Y124354D01*
X520302Y124442D01*
X520311Y124530D01*
X520317Y124618D01*
X520319Y124707D01*
X520319Y129928D01*
X520317Y130017D01*
X520311Y130105D01*
X520302Y130193D01*
X520289Y130281D01*
X520272Y130368D01*
X520252Y130454D01*
X520227Y130539D01*
X520200Y130624D01*
X520168Y130707D01*
X520134Y130788D01*
X520095Y130868D01*
X520054Y130946D01*
X520009Y131023D01*
X519961Y131097D01*
X519910Y131170D01*
X519856Y131240D01*
X519798Y131307D01*
X519738Y131373D01*
X519676Y131435D01*
X519610Y131495D01*
X519543Y131553D01*
X519473Y131607D01*
X519400Y131658D01*
X519326Y131706D01*
X519249Y131751D01*
X519171Y131792D01*
X519091Y131831D01*
X519010Y131865D01*
X518927Y131897D01*
X518842Y131924D01*
X518757Y131949D01*
X518671Y131969D01*
X518584Y131986D01*
X518496Y131999D01*
X518408Y132008D01*
X518320Y132014D01*
X518231Y132016D01*
X518231Y132017D02*
X516142Y132017D01*
X512673Y132017D02*
X512673Y130972D01*
X512673Y132017D02*
X507452Y132017D01*
X510063Y122619D01*
X464757Y197231D02*
X464757Y206629D01*
X460580Y206629D01*
X460580Y202452D02*
X464757Y202452D01*
X456718Y202452D02*
X454107Y202452D01*
X454107Y202453D02*
X454006Y202451D01*
X453905Y202445D01*
X453804Y202435D01*
X453704Y202422D01*
X453604Y202404D01*
X453505Y202383D01*
X453407Y202357D01*
X453310Y202328D01*
X453214Y202296D01*
X453120Y202259D01*
X453027Y202219D01*
X452935Y202175D01*
X452846Y202128D01*
X452758Y202077D01*
X452672Y202023D01*
X452589Y201966D01*
X452507Y201906D01*
X452429Y201842D01*
X452352Y201776D01*
X452279Y201706D01*
X452208Y201634D01*
X452140Y201559D01*
X452075Y201481D01*
X452013Y201401D01*
X451954Y201319D01*
X451898Y201234D01*
X451846Y201148D01*
X451797Y201059D01*
X451751Y200968D01*
X451710Y200876D01*
X451671Y200782D01*
X451637Y200687D01*
X451606Y200591D01*
X451579Y200493D01*
X451555Y200395D01*
X451536Y200295D01*
X451520Y200195D01*
X451508Y200095D01*
X451500Y199994D01*
X451496Y199893D01*
X451496Y199791D01*
X451500Y199690D01*
X451508Y199589D01*
X451520Y199489D01*
X451536Y199389D01*
X451555Y199289D01*
X451579Y199191D01*
X451606Y199093D01*
X451637Y198997D01*
X451671Y198902D01*
X451710Y198808D01*
X451751Y198716D01*
X451797Y198625D01*
X451846Y198537D01*
X451898Y198450D01*
X451954Y198365D01*
X452013Y198283D01*
X452075Y198203D01*
X452140Y198125D01*
X452208Y198050D01*
X452279Y197978D01*
X452352Y197908D01*
X452429Y197842D01*
X452507Y197778D01*
X452589Y197718D01*
X452672Y197661D01*
X452758Y197607D01*
X452846Y197556D01*
X452935Y197509D01*
X453027Y197465D01*
X453120Y197425D01*
X453214Y197388D01*
X453310Y197356D01*
X453407Y197327D01*
X453505Y197301D01*
X453604Y197280D01*
X453704Y197262D01*
X453804Y197249D01*
X453905Y197239D01*
X454006Y197233D01*
X454107Y197231D01*
X456718Y197231D01*
X456718Y206629D01*
X454107Y206629D01*
X454017Y206627D01*
X453928Y206621D01*
X453838Y206612D01*
X453749Y206598D01*
X453661Y206581D01*
X453574Y206560D01*
X453487Y206535D01*
X453402Y206506D01*
X453318Y206474D01*
X453236Y206439D01*
X453155Y206399D01*
X453076Y206357D01*
X452999Y206311D01*
X452924Y206261D01*
X452851Y206209D01*
X452780Y206153D01*
X452712Y206095D01*
X452647Y206033D01*
X452584Y205969D01*
X452524Y205902D01*
X452467Y205833D01*
X452413Y205761D01*
X452362Y205687D01*
X452314Y205611D01*
X452270Y205533D01*
X452229Y205453D01*
X452191Y205371D01*
X452157Y205288D01*
X452127Y205203D01*
X452100Y205117D01*
X452077Y205031D01*
X452058Y204943D01*
X452043Y204854D01*
X452031Y204765D01*
X452023Y204676D01*
X452019Y204586D01*
X452019Y204496D01*
X452023Y204406D01*
X452031Y204317D01*
X452043Y204228D01*
X452058Y204139D01*
X452077Y204051D01*
X452100Y203965D01*
X452127Y203879D01*
X452157Y203794D01*
X452191Y203711D01*
X452229Y203629D01*
X452270Y203549D01*
X452314Y203471D01*
X452362Y203395D01*
X452413Y203321D01*
X452467Y203249D01*
X452524Y203180D01*
X452584Y203113D01*
X452647Y203049D01*
X452712Y202987D01*
X452780Y202929D01*
X452851Y202873D01*
X452924Y202821D01*
X452999Y202771D01*
X453076Y202725D01*
X453155Y202683D01*
X453236Y202643D01*
X453318Y202608D01*
X453402Y202576D01*
X453487Y202547D01*
X453574Y202522D01*
X453661Y202501D01*
X453749Y202484D01*
X453838Y202470D01*
X453928Y202461D01*
X454017Y202455D01*
X454107Y202453D01*
X448010Y204541D02*
X445400Y206629D01*
X445400Y197231D01*
X448010Y197231D02*
X442789Y197231D01*
X687769Y141669D02*
X697167Y141669D01*
X697167Y144279D01*
X697165Y144380D01*
X697159Y144481D01*
X697149Y144582D01*
X697136Y144682D01*
X697118Y144782D01*
X697097Y144881D01*
X697071Y144979D01*
X697042Y145076D01*
X697010Y145172D01*
X696973Y145266D01*
X696933Y145359D01*
X696889Y145451D01*
X696842Y145540D01*
X696791Y145628D01*
X696737Y145714D01*
X696680Y145797D01*
X696620Y145879D01*
X696556Y145957D01*
X696490Y146034D01*
X696420Y146107D01*
X696348Y146178D01*
X696273Y146246D01*
X696195Y146311D01*
X696115Y146373D01*
X696033Y146432D01*
X695948Y146488D01*
X695862Y146540D01*
X695773Y146589D01*
X695682Y146635D01*
X695590Y146676D01*
X695496Y146715D01*
X695401Y146749D01*
X695305Y146780D01*
X695207Y146807D01*
X695109Y146831D01*
X695009Y146850D01*
X694909Y146866D01*
X694809Y146878D01*
X694708Y146886D01*
X694607Y146890D01*
X694505Y146890D01*
X694404Y146886D01*
X694303Y146878D01*
X694203Y146866D01*
X694103Y146850D01*
X694003Y146831D01*
X693905Y146807D01*
X693807Y146780D01*
X693711Y146749D01*
X693616Y146715D01*
X693522Y146676D01*
X693430Y146635D01*
X693339Y146589D01*
X693251Y146540D01*
X693164Y146488D01*
X693079Y146432D01*
X692997Y146373D01*
X692917Y146311D01*
X692839Y146246D01*
X692764Y146178D01*
X692692Y146107D01*
X692622Y146034D01*
X692556Y145957D01*
X692492Y145879D01*
X692432Y145797D01*
X692375Y145714D01*
X692321Y145628D01*
X692270Y145540D01*
X692223Y145451D01*
X692179Y145359D01*
X692139Y145266D01*
X692102Y145172D01*
X692070Y145076D01*
X692041Y144979D01*
X692015Y144881D01*
X691994Y144782D01*
X691976Y144682D01*
X691963Y144582D01*
X691953Y144481D01*
X691947Y144380D01*
X691945Y144279D01*
X691945Y141669D01*
X691945Y144801D02*
X687769Y146890D01*
X695078Y150755D02*
X697167Y153366D01*
X687769Y153366D01*
X687769Y150755D02*
X687769Y155977D01*
X436964Y125032D02*
X436964Y115634D01*
X436964Y125032D02*
X434353Y125032D01*
X434252Y125030D01*
X434151Y125024D01*
X434050Y125014D01*
X433950Y125001D01*
X433850Y124983D01*
X433751Y124962D01*
X433653Y124936D01*
X433556Y124907D01*
X433460Y124875D01*
X433366Y124838D01*
X433273Y124798D01*
X433181Y124754D01*
X433092Y124707D01*
X433004Y124656D01*
X432918Y124602D01*
X432835Y124545D01*
X432753Y124485D01*
X432675Y124421D01*
X432598Y124355D01*
X432525Y124285D01*
X432454Y124213D01*
X432386Y124138D01*
X432321Y124060D01*
X432259Y123980D01*
X432200Y123898D01*
X432144Y123813D01*
X432092Y123727D01*
X432043Y123638D01*
X431997Y123547D01*
X431956Y123455D01*
X431917Y123361D01*
X431883Y123266D01*
X431852Y123170D01*
X431825Y123072D01*
X431801Y122974D01*
X431782Y122874D01*
X431766Y122774D01*
X431754Y122674D01*
X431746Y122573D01*
X431742Y122472D01*
X431742Y122370D01*
X431746Y122269D01*
X431754Y122168D01*
X431766Y122068D01*
X431782Y121968D01*
X431801Y121868D01*
X431825Y121770D01*
X431852Y121672D01*
X431883Y121576D01*
X431917Y121481D01*
X431956Y121387D01*
X431997Y121295D01*
X432043Y121204D01*
X432092Y121116D01*
X432144Y121029D01*
X432200Y120944D01*
X432259Y120862D01*
X432321Y120782D01*
X432386Y120704D01*
X432454Y120629D01*
X432525Y120557D01*
X432598Y120487D01*
X432675Y120421D01*
X432753Y120357D01*
X432835Y120297D01*
X432918Y120240D01*
X433004Y120186D01*
X433092Y120135D01*
X433181Y120088D01*
X433273Y120044D01*
X433366Y120004D01*
X433460Y119967D01*
X433556Y119935D01*
X433653Y119906D01*
X433751Y119880D01*
X433850Y119859D01*
X433950Y119841D01*
X434050Y119828D01*
X434151Y119818D01*
X434252Y119812D01*
X434353Y119810D01*
X436964Y119810D01*
X433831Y119810D02*
X431743Y115634D01*
X422656Y122682D02*
X422658Y122777D01*
X422664Y122871D01*
X422673Y122965D01*
X422686Y123059D01*
X422703Y123152D01*
X422724Y123244D01*
X422749Y123336D01*
X422777Y123426D01*
X422809Y123515D01*
X422844Y123603D01*
X422883Y123689D01*
X422925Y123774D01*
X422971Y123857D01*
X423020Y123938D01*
X423072Y124017D01*
X423127Y124094D01*
X423186Y124168D01*
X423247Y124240D01*
X423311Y124310D01*
X423378Y124377D01*
X423448Y124441D01*
X423520Y124502D01*
X423594Y124561D01*
X423671Y124616D01*
X423750Y124668D01*
X423831Y124717D01*
X423914Y124763D01*
X423999Y124805D01*
X424085Y124844D01*
X424173Y124879D01*
X424262Y124911D01*
X424352Y124939D01*
X424444Y124964D01*
X424536Y124985D01*
X424629Y125002D01*
X424723Y125015D01*
X424817Y125024D01*
X424911Y125030D01*
X425006Y125032D01*
X425006Y125031D02*
X425114Y125029D01*
X425223Y125023D01*
X425331Y125013D01*
X425438Y125000D01*
X425545Y124982D01*
X425652Y124961D01*
X425757Y124936D01*
X425862Y124907D01*
X425965Y124875D01*
X426067Y124838D01*
X426168Y124798D01*
X426267Y124755D01*
X426365Y124708D01*
X426461Y124657D01*
X426555Y124603D01*
X426647Y124546D01*
X426737Y124485D01*
X426825Y124421D01*
X426910Y124355D01*
X426993Y124285D01*
X427073Y124212D01*
X427151Y124136D01*
X427226Y124058D01*
X427298Y123977D01*
X427367Y123893D01*
X427433Y123807D01*
X427496Y123719D01*
X427555Y123628D01*
X427612Y123536D01*
X427665Y123441D01*
X427714Y123344D01*
X427760Y123246D01*
X427803Y123147D01*
X427842Y123045D01*
X427877Y122943D01*
X423439Y120854D02*
X423370Y120923D01*
X423304Y120994D01*
X423240Y121067D01*
X423179Y121143D01*
X423121Y121222D01*
X423067Y121302D01*
X423015Y121385D01*
X422967Y121469D01*
X422921Y121555D01*
X422880Y121643D01*
X422841Y121733D01*
X422806Y121824D01*
X422775Y121916D01*
X422747Y122009D01*
X422723Y122103D01*
X422703Y122198D01*
X422686Y122294D01*
X422673Y122391D01*
X422664Y122488D01*
X422658Y122585D01*
X422656Y122682D01*
X423439Y120855D02*
X427877Y115634D01*
X422656Y115634D01*
X468714Y148971D02*
X468714Y158369D01*
X466103Y158369D01*
X466002Y158367D01*
X465901Y158361D01*
X465800Y158351D01*
X465700Y158338D01*
X465600Y158320D01*
X465501Y158299D01*
X465403Y158273D01*
X465306Y158244D01*
X465210Y158212D01*
X465116Y158175D01*
X465023Y158135D01*
X464931Y158091D01*
X464842Y158044D01*
X464754Y157993D01*
X464668Y157939D01*
X464585Y157882D01*
X464503Y157822D01*
X464425Y157758D01*
X464348Y157692D01*
X464275Y157622D01*
X464204Y157550D01*
X464136Y157475D01*
X464071Y157397D01*
X464009Y157317D01*
X463950Y157235D01*
X463894Y157150D01*
X463842Y157064D01*
X463793Y156975D01*
X463747Y156884D01*
X463706Y156792D01*
X463667Y156698D01*
X463633Y156603D01*
X463602Y156507D01*
X463575Y156409D01*
X463551Y156311D01*
X463532Y156211D01*
X463516Y156111D01*
X463504Y156011D01*
X463496Y155910D01*
X463492Y155809D01*
X463492Y155707D01*
X463496Y155606D01*
X463504Y155505D01*
X463516Y155405D01*
X463532Y155305D01*
X463551Y155205D01*
X463575Y155107D01*
X463602Y155009D01*
X463633Y154913D01*
X463667Y154818D01*
X463706Y154724D01*
X463747Y154632D01*
X463793Y154541D01*
X463842Y154453D01*
X463894Y154366D01*
X463950Y154281D01*
X464009Y154199D01*
X464071Y154119D01*
X464136Y154041D01*
X464204Y153966D01*
X464275Y153894D01*
X464348Y153824D01*
X464425Y153758D01*
X464503Y153694D01*
X464585Y153634D01*
X464668Y153577D01*
X464754Y153523D01*
X464842Y153472D01*
X464931Y153425D01*
X465023Y153381D01*
X465116Y153341D01*
X465210Y153304D01*
X465306Y153272D01*
X465403Y153243D01*
X465501Y153217D01*
X465600Y153196D01*
X465700Y153178D01*
X465800Y153165D01*
X465901Y153155D01*
X466002Y153149D01*
X466103Y153147D01*
X466103Y153148D02*
X468714Y153148D01*
X465581Y153148D02*
X463493Y148971D01*
X459627Y154192D02*
X456494Y154192D01*
X456405Y154190D01*
X456317Y154184D01*
X456229Y154175D01*
X456141Y154162D01*
X456054Y154145D01*
X455968Y154125D01*
X455883Y154100D01*
X455798Y154073D01*
X455715Y154041D01*
X455634Y154007D01*
X455554Y153968D01*
X455476Y153927D01*
X455399Y153882D01*
X455325Y153834D01*
X455252Y153783D01*
X455182Y153729D01*
X455115Y153671D01*
X455049Y153611D01*
X454987Y153549D01*
X454927Y153483D01*
X454869Y153416D01*
X454815Y153346D01*
X454764Y153273D01*
X454716Y153199D01*
X454671Y153122D01*
X454630Y153044D01*
X454591Y152964D01*
X454557Y152883D01*
X454525Y152800D01*
X454498Y152715D01*
X454473Y152630D01*
X454453Y152544D01*
X454436Y152457D01*
X454423Y152369D01*
X454414Y152281D01*
X454408Y152193D01*
X454406Y152104D01*
X454406Y151582D01*
X454408Y151481D01*
X454414Y151380D01*
X454424Y151279D01*
X454437Y151179D01*
X454455Y151079D01*
X454476Y150980D01*
X454502Y150882D01*
X454531Y150785D01*
X454563Y150689D01*
X454600Y150595D01*
X454640Y150502D01*
X454684Y150410D01*
X454731Y150321D01*
X454782Y150233D01*
X454836Y150147D01*
X454893Y150064D01*
X454953Y149982D01*
X455017Y149904D01*
X455083Y149827D01*
X455153Y149754D01*
X455225Y149683D01*
X455300Y149615D01*
X455378Y149550D01*
X455458Y149488D01*
X455540Y149429D01*
X455625Y149373D01*
X455712Y149321D01*
X455800Y149272D01*
X455891Y149226D01*
X455983Y149185D01*
X456077Y149146D01*
X456172Y149112D01*
X456268Y149081D01*
X456366Y149054D01*
X456464Y149030D01*
X456564Y149011D01*
X456664Y148995D01*
X456764Y148983D01*
X456865Y148975D01*
X456966Y148971D01*
X457068Y148971D01*
X457169Y148975D01*
X457270Y148983D01*
X457370Y148995D01*
X457470Y149011D01*
X457570Y149030D01*
X457668Y149054D01*
X457766Y149081D01*
X457862Y149112D01*
X457957Y149146D01*
X458051Y149185D01*
X458143Y149226D01*
X458234Y149272D01*
X458322Y149321D01*
X458409Y149373D01*
X458494Y149429D01*
X458576Y149488D01*
X458656Y149550D01*
X458734Y149615D01*
X458809Y149683D01*
X458881Y149754D01*
X458951Y149827D01*
X459017Y149904D01*
X459081Y149982D01*
X459141Y150064D01*
X459198Y150147D01*
X459252Y150233D01*
X459303Y150321D01*
X459350Y150410D01*
X459394Y150502D01*
X459434Y150595D01*
X459471Y150689D01*
X459503Y150785D01*
X459532Y150882D01*
X459558Y150980D01*
X459579Y151079D01*
X459597Y151179D01*
X459610Y151279D01*
X459620Y151380D01*
X459626Y151481D01*
X459628Y151582D01*
X459627Y151582D02*
X459627Y154192D01*
X459625Y154318D01*
X459619Y154444D01*
X459610Y154570D01*
X459597Y154695D01*
X459579Y154820D01*
X459559Y154945D01*
X459534Y155069D01*
X459506Y155192D01*
X459474Y155314D01*
X459438Y155435D01*
X459399Y155555D01*
X459356Y155673D01*
X459309Y155790D01*
X459259Y155906D01*
X459205Y156021D01*
X459149Y156133D01*
X459088Y156244D01*
X459025Y156353D01*
X458958Y156460D01*
X458888Y156565D01*
X458814Y156668D01*
X458738Y156768D01*
X458659Y156866D01*
X458577Y156962D01*
X458491Y157055D01*
X458404Y157146D01*
X458313Y157233D01*
X458220Y157319D01*
X458124Y157401D01*
X458026Y157480D01*
X457926Y157556D01*
X457823Y157630D01*
X457718Y157700D01*
X457611Y157767D01*
X457502Y157830D01*
X457391Y157891D01*
X457279Y157947D01*
X457164Y158001D01*
X457048Y158051D01*
X456931Y158098D01*
X456813Y158141D01*
X456693Y158180D01*
X456572Y158216D01*
X456450Y158248D01*
X456327Y158276D01*
X456203Y158301D01*
X456078Y158321D01*
X455953Y158339D01*
X455828Y158352D01*
X455702Y158361D01*
X455576Y158367D01*
X455450Y158369D01*
D10*
X267183Y180543D02*
X267183Y200673D01*
D11*
X293892Y170244D02*
X295981Y170244D01*
X296070Y170246D01*
X296158Y170252D01*
X296246Y170261D01*
X296334Y170274D01*
X296421Y170291D01*
X296507Y170311D01*
X296592Y170336D01*
X296677Y170363D01*
X296760Y170395D01*
X296841Y170429D01*
X296921Y170468D01*
X296999Y170509D01*
X297076Y170554D01*
X297150Y170602D01*
X297223Y170653D01*
X297293Y170707D01*
X297360Y170765D01*
X297426Y170825D01*
X297488Y170887D01*
X297548Y170953D01*
X297606Y171020D01*
X297660Y171090D01*
X297711Y171163D01*
X297759Y171237D01*
X297804Y171314D01*
X297845Y171392D01*
X297884Y171472D01*
X297918Y171553D01*
X297950Y171636D01*
X297977Y171721D01*
X298002Y171806D01*
X298022Y171892D01*
X298039Y171979D01*
X298052Y172067D01*
X298061Y172155D01*
X298067Y172243D01*
X298069Y172332D01*
X298069Y177553D01*
X298067Y177642D01*
X298061Y177730D01*
X298052Y177818D01*
X298039Y177906D01*
X298022Y177993D01*
X298002Y178079D01*
X297977Y178164D01*
X297950Y178249D01*
X297918Y178332D01*
X297884Y178413D01*
X297845Y178493D01*
X297804Y178571D01*
X297759Y178648D01*
X297711Y178722D01*
X297660Y178795D01*
X297606Y178865D01*
X297548Y178932D01*
X297488Y178998D01*
X297426Y179060D01*
X297360Y179120D01*
X297293Y179178D01*
X297223Y179232D01*
X297150Y179283D01*
X297076Y179331D01*
X296999Y179376D01*
X296921Y179417D01*
X296841Y179456D01*
X296760Y179490D01*
X296677Y179522D01*
X296592Y179549D01*
X296507Y179574D01*
X296421Y179594D01*
X296334Y179611D01*
X296246Y179624D01*
X296158Y179633D01*
X296070Y179639D01*
X295981Y179641D01*
X295981Y179642D02*
X293892Y179642D01*
X290423Y177553D02*
X287813Y179642D01*
X287813Y170244D01*
X290423Y170244D02*
X285202Y170244D01*
X281280Y174943D02*
X281278Y175128D01*
X281271Y175313D01*
X281260Y175497D01*
X281245Y175681D01*
X281225Y175865D01*
X281201Y176049D01*
X281172Y176231D01*
X281139Y176413D01*
X281102Y176594D01*
X281060Y176774D01*
X281014Y176954D01*
X280964Y177132D01*
X280910Y177308D01*
X280851Y177484D01*
X280789Y177658D01*
X280722Y177830D01*
X280651Y178001D01*
X280576Y178170D01*
X280497Y178337D01*
X280467Y178417D01*
X280434Y178496D01*
X280397Y178573D01*
X280357Y178649D01*
X280314Y178723D01*
X280268Y178795D01*
X280218Y178864D01*
X280166Y178932D01*
X280110Y178997D01*
X280052Y179060D01*
X279990Y179119D01*
X279927Y179177D01*
X279860Y179231D01*
X279792Y179282D01*
X279721Y179330D01*
X279648Y179375D01*
X279574Y179417D01*
X279497Y179455D01*
X279419Y179490D01*
X279340Y179522D01*
X279259Y179550D01*
X279177Y179574D01*
X279093Y179595D01*
X279010Y179612D01*
X278925Y179625D01*
X278840Y179634D01*
X278755Y179640D01*
X278669Y179642D01*
X278583Y179640D01*
X278498Y179634D01*
X278413Y179625D01*
X278328Y179612D01*
X278245Y179595D01*
X278161Y179574D01*
X278079Y179550D01*
X277999Y179522D01*
X277919Y179490D01*
X277841Y179455D01*
X277764Y179417D01*
X277690Y179375D01*
X277617Y179330D01*
X277546Y179282D01*
X277478Y179231D01*
X277411Y179177D01*
X277348Y179119D01*
X277287Y179060D01*
X277228Y178997D01*
X277173Y178932D01*
X277120Y178864D01*
X277070Y178795D01*
X277024Y178723D01*
X276981Y178649D01*
X276941Y178573D01*
X276904Y178496D01*
X276871Y178417D01*
X276841Y178337D01*
X276762Y178170D01*
X276687Y178001D01*
X276616Y177830D01*
X276549Y177658D01*
X276487Y177484D01*
X276428Y177308D01*
X276374Y177132D01*
X276324Y176954D01*
X276278Y176774D01*
X276236Y176594D01*
X276199Y176413D01*
X276166Y176231D01*
X276137Y176049D01*
X276113Y175865D01*
X276093Y175681D01*
X276078Y175497D01*
X276067Y175313D01*
X276060Y175128D01*
X276058Y174943D01*
X281279Y174943D02*
X281277Y174758D01*
X281270Y174573D01*
X281259Y174389D01*
X281244Y174205D01*
X281224Y174021D01*
X281200Y173837D01*
X281171Y173655D01*
X281138Y173473D01*
X281101Y173292D01*
X281059Y173112D01*
X281013Y172932D01*
X280963Y172754D01*
X280909Y172578D01*
X280850Y172402D01*
X280788Y172228D01*
X280721Y172056D01*
X280650Y171885D01*
X280575Y171716D01*
X280496Y171549D01*
X280497Y171548D02*
X280467Y171468D01*
X280434Y171389D01*
X280397Y171312D01*
X280357Y171236D01*
X280314Y171162D01*
X280268Y171090D01*
X280218Y171021D01*
X280165Y170953D01*
X280110Y170888D01*
X280051Y170825D01*
X279990Y170766D01*
X279927Y170708D01*
X279860Y170654D01*
X279792Y170603D01*
X279721Y170555D01*
X279648Y170510D01*
X279574Y170468D01*
X279497Y170430D01*
X279419Y170395D01*
X279340Y170363D01*
X279259Y170335D01*
X279177Y170311D01*
X279093Y170290D01*
X279010Y170273D01*
X278925Y170260D01*
X278840Y170251D01*
X278755Y170245D01*
X278669Y170243D01*
X276841Y171549D02*
X276762Y171716D01*
X276687Y171885D01*
X276616Y172056D01*
X276549Y172228D01*
X276487Y172402D01*
X276428Y172578D01*
X276374Y172754D01*
X276324Y172932D01*
X276278Y173112D01*
X276236Y173292D01*
X276199Y173473D01*
X276166Y173655D01*
X276137Y173837D01*
X276113Y174021D01*
X276093Y174205D01*
X276078Y174389D01*
X276067Y174573D01*
X276060Y174758D01*
X276058Y174943D01*
X276841Y171548D02*
X276871Y171468D01*
X276904Y171389D01*
X276941Y171312D01*
X276981Y171236D01*
X277024Y171162D01*
X277070Y171090D01*
X277120Y171021D01*
X277173Y170953D01*
X277228Y170888D01*
X277287Y170825D01*
X277348Y170766D01*
X277411Y170708D01*
X277478Y170654D01*
X277546Y170603D01*
X277617Y170555D01*
X277690Y170510D01*
X277764Y170468D01*
X277841Y170430D01*
X277919Y170395D01*
X277999Y170363D01*
X278079Y170335D01*
X278161Y170311D01*
X278245Y170290D01*
X278328Y170273D01*
X278413Y170260D01*
X278498Y170251D01*
X278583Y170245D01*
X278669Y170243D01*
X280757Y172332D02*
X276580Y177553D01*
X750634Y146885D02*
X750634Y144797D01*
X750636Y144708D01*
X750642Y144620D01*
X750651Y144532D01*
X750664Y144444D01*
X750681Y144357D01*
X750701Y144271D01*
X750726Y144186D01*
X750753Y144101D01*
X750785Y144018D01*
X750819Y143937D01*
X750858Y143857D01*
X750899Y143779D01*
X750944Y143702D01*
X750992Y143628D01*
X751043Y143555D01*
X751097Y143485D01*
X751155Y143418D01*
X751215Y143352D01*
X751277Y143290D01*
X751343Y143230D01*
X751410Y143172D01*
X751480Y143118D01*
X751553Y143067D01*
X751627Y143019D01*
X751704Y142974D01*
X751782Y142933D01*
X751862Y142894D01*
X751943Y142860D01*
X752026Y142828D01*
X752111Y142801D01*
X752196Y142776D01*
X752282Y142756D01*
X752369Y142739D01*
X752457Y142726D01*
X752545Y142717D01*
X752633Y142711D01*
X752722Y142709D01*
X752722Y142708D02*
X757943Y142708D01*
X757943Y142709D02*
X758034Y142711D01*
X758125Y142717D01*
X758216Y142727D01*
X758306Y142741D01*
X758395Y142758D01*
X758483Y142780D01*
X758571Y142806D01*
X758657Y142835D01*
X758742Y142868D01*
X758825Y142905D01*
X758907Y142945D01*
X758987Y142989D01*
X759065Y143036D01*
X759141Y143087D01*
X759214Y143140D01*
X759285Y143197D01*
X759354Y143258D01*
X759419Y143321D01*
X759482Y143386D01*
X759542Y143455D01*
X759600Y143526D01*
X759653Y143599D01*
X759704Y143675D01*
X759751Y143753D01*
X759795Y143833D01*
X759835Y143915D01*
X759872Y143998D01*
X759905Y144083D01*
X759934Y144169D01*
X759960Y144257D01*
X759982Y144345D01*
X759999Y144434D01*
X760013Y144524D01*
X760023Y144615D01*
X760029Y144706D01*
X760031Y144797D01*
X760032Y144797D02*
X760032Y146885D01*
X757943Y150354D02*
X760032Y152964D01*
X750634Y152964D01*
X750634Y150354D02*
X750634Y155575D01*
X757943Y159498D02*
X760032Y162108D01*
X750634Y162108D01*
X750634Y159498D02*
X750634Y164719D01*
X537782Y114554D02*
X537782Y105156D01*
X537782Y114554D02*
X535171Y114554D01*
X535070Y114552D01*
X534969Y114546D01*
X534868Y114536D01*
X534768Y114523D01*
X534668Y114505D01*
X534569Y114484D01*
X534471Y114458D01*
X534374Y114429D01*
X534278Y114397D01*
X534184Y114360D01*
X534091Y114320D01*
X533999Y114276D01*
X533910Y114229D01*
X533822Y114178D01*
X533736Y114124D01*
X533653Y114067D01*
X533571Y114007D01*
X533493Y113943D01*
X533416Y113877D01*
X533343Y113807D01*
X533272Y113735D01*
X533204Y113660D01*
X533139Y113582D01*
X533077Y113502D01*
X533018Y113420D01*
X532962Y113335D01*
X532910Y113249D01*
X532861Y113160D01*
X532815Y113069D01*
X532774Y112977D01*
X532735Y112883D01*
X532701Y112788D01*
X532670Y112692D01*
X532643Y112594D01*
X532619Y112496D01*
X532600Y112396D01*
X532584Y112296D01*
X532572Y112196D01*
X532564Y112095D01*
X532560Y111994D01*
X532560Y111892D01*
X532564Y111791D01*
X532572Y111690D01*
X532584Y111590D01*
X532600Y111490D01*
X532619Y111390D01*
X532643Y111292D01*
X532670Y111194D01*
X532701Y111098D01*
X532735Y111003D01*
X532774Y110909D01*
X532815Y110817D01*
X532861Y110726D01*
X532910Y110638D01*
X532962Y110551D01*
X533018Y110466D01*
X533077Y110384D01*
X533139Y110304D01*
X533204Y110226D01*
X533272Y110151D01*
X533343Y110079D01*
X533416Y110009D01*
X533493Y109943D01*
X533571Y109879D01*
X533653Y109819D01*
X533736Y109762D01*
X533822Y109708D01*
X533910Y109657D01*
X533999Y109610D01*
X534091Y109566D01*
X534184Y109526D01*
X534278Y109489D01*
X534374Y109457D01*
X534471Y109428D01*
X534569Y109402D01*
X534668Y109381D01*
X534768Y109363D01*
X534868Y109350D01*
X534969Y109340D01*
X535070Y109334D01*
X535171Y109332D01*
X535171Y109333D02*
X537782Y109333D01*
X534649Y109333D02*
X532560Y105156D01*
X528695Y107244D02*
X526606Y114554D01*
X528695Y107244D02*
X523474Y107244D01*
X525040Y109333D02*
X525040Y105156D01*
X537782Y97092D02*
X537782Y87694D01*
X537782Y97092D02*
X535171Y97092D01*
X535070Y97090D01*
X534969Y97084D01*
X534868Y97074D01*
X534768Y97061D01*
X534668Y97043D01*
X534569Y97022D01*
X534471Y96996D01*
X534374Y96967D01*
X534278Y96935D01*
X534184Y96898D01*
X534091Y96858D01*
X533999Y96814D01*
X533910Y96767D01*
X533822Y96716D01*
X533736Y96662D01*
X533653Y96605D01*
X533571Y96545D01*
X533493Y96481D01*
X533416Y96415D01*
X533343Y96345D01*
X533272Y96273D01*
X533204Y96198D01*
X533139Y96120D01*
X533077Y96040D01*
X533018Y95958D01*
X532962Y95873D01*
X532910Y95787D01*
X532861Y95698D01*
X532815Y95607D01*
X532774Y95515D01*
X532735Y95421D01*
X532701Y95326D01*
X532670Y95230D01*
X532643Y95132D01*
X532619Y95034D01*
X532600Y94934D01*
X532584Y94834D01*
X532572Y94734D01*
X532564Y94633D01*
X532560Y94532D01*
X532560Y94430D01*
X532564Y94329D01*
X532572Y94228D01*
X532584Y94128D01*
X532600Y94028D01*
X532619Y93928D01*
X532643Y93830D01*
X532670Y93732D01*
X532701Y93636D01*
X532735Y93541D01*
X532774Y93447D01*
X532815Y93355D01*
X532861Y93264D01*
X532910Y93176D01*
X532962Y93089D01*
X533018Y93004D01*
X533077Y92922D01*
X533139Y92842D01*
X533204Y92764D01*
X533272Y92689D01*
X533343Y92617D01*
X533416Y92547D01*
X533493Y92481D01*
X533571Y92417D01*
X533653Y92357D01*
X533736Y92300D01*
X533822Y92246D01*
X533910Y92195D01*
X533999Y92148D01*
X534091Y92104D01*
X534184Y92064D01*
X534278Y92027D01*
X534374Y91995D01*
X534471Y91966D01*
X534569Y91940D01*
X534668Y91919D01*
X534768Y91901D01*
X534868Y91888D01*
X534969Y91878D01*
X535070Y91872D01*
X535171Y91870D01*
X537782Y91870D01*
X534649Y91870D02*
X532560Y87694D01*
X528695Y87694D02*
X525562Y87694D01*
X525473Y87696D01*
X525385Y87702D01*
X525297Y87711D01*
X525209Y87724D01*
X525122Y87741D01*
X525036Y87761D01*
X524951Y87786D01*
X524866Y87813D01*
X524783Y87845D01*
X524702Y87879D01*
X524622Y87918D01*
X524544Y87959D01*
X524467Y88004D01*
X524393Y88052D01*
X524320Y88103D01*
X524250Y88157D01*
X524183Y88215D01*
X524117Y88275D01*
X524055Y88337D01*
X523995Y88403D01*
X523937Y88470D01*
X523883Y88540D01*
X523832Y88613D01*
X523784Y88687D01*
X523739Y88764D01*
X523698Y88842D01*
X523659Y88922D01*
X523625Y89003D01*
X523593Y89086D01*
X523566Y89171D01*
X523541Y89256D01*
X523521Y89342D01*
X523504Y89429D01*
X523491Y89517D01*
X523482Y89605D01*
X523476Y89693D01*
X523474Y89782D01*
X523474Y90826D01*
X523476Y90915D01*
X523482Y91003D01*
X523491Y91091D01*
X523504Y91179D01*
X523521Y91266D01*
X523541Y91352D01*
X523566Y91437D01*
X523593Y91522D01*
X523625Y91605D01*
X523659Y91686D01*
X523698Y91766D01*
X523739Y91844D01*
X523784Y91921D01*
X523832Y91995D01*
X523883Y92068D01*
X523937Y92138D01*
X523995Y92205D01*
X524055Y92271D01*
X524117Y92333D01*
X524183Y92393D01*
X524250Y92451D01*
X524320Y92505D01*
X524393Y92556D01*
X524467Y92604D01*
X524544Y92649D01*
X524622Y92690D01*
X524702Y92729D01*
X524783Y92763D01*
X524866Y92795D01*
X524951Y92822D01*
X525036Y92847D01*
X525122Y92867D01*
X525209Y92884D01*
X525297Y92897D01*
X525385Y92906D01*
X525473Y92912D01*
X525562Y92914D01*
X525562Y92915D02*
X528695Y92915D01*
X528695Y97092D01*
X523474Y97092D01*
M02*
