G04 EAGLE Gerber RS-274X export*
G75*
%MOMM*%
%FSLAX34Y34*%
%LPD*%
%INSoldermask Bottom*%
%IPPOS*%
%AMOC8*
5,1,8,0,0,1.08239X$1,22.5*%
G01*
%ADD10R,1.303200X1.203200*%
%ADD11R,1.503200X1.703200*%
%ADD12R,1.203200X1.303200*%
%ADD13C,1.727200*%
%ADD14P,1.869504X8X22.500000*%
%ADD15C,1.727200*%
%ADD16C,0.959600*%


D10*
X506975Y169863D03*
X489975Y169863D03*
D11*
X509563Y190500D03*
X490563Y190500D03*
D10*
X564125Y131763D03*
X547125Y131763D03*
D11*
X563538Y160338D03*
X544538Y160338D03*
D10*
X506975Y147638D03*
X489975Y147638D03*
D11*
X388913Y195263D03*
X369913Y195263D03*
X493688Y127000D03*
X474688Y127000D03*
D12*
X464113Y188913D03*
X447113Y188913D03*
D13*
X755650Y65088D03*
X730250Y65088D03*
X704850Y65088D03*
X679450Y65088D03*
X654050Y65088D03*
X628650Y65088D03*
X603250Y65088D03*
X577850Y65088D03*
X552450Y65088D03*
X527050Y65088D03*
X501650Y65088D03*
X476250Y65088D03*
X450850Y65088D03*
X425450Y65088D03*
X400050Y65088D03*
X374650Y65088D03*
X349250Y65088D03*
X323850Y65088D03*
X298450Y65088D03*
X273050Y65088D03*
X273050Y217488D03*
X298450Y217488D03*
X323850Y217488D03*
X349250Y217488D03*
X374650Y217488D03*
X400050Y217488D03*
X425450Y217488D03*
X450850Y217488D03*
X476250Y217488D03*
X501650Y217488D03*
X527050Y217488D03*
X552450Y217488D03*
X577850Y217488D03*
X603250Y217488D03*
X628650Y217488D03*
X654050Y217488D03*
X679450Y217488D03*
X704850Y217488D03*
X730250Y217488D03*
X755650Y217488D03*
D14*
X411163Y185738D03*
D10*
X690563Y167713D03*
X690563Y184713D03*
D12*
X420125Y133350D03*
X437125Y133350D03*
X451875Y166688D03*
X468875Y166688D03*
D15*
X716280Y192088D02*
X731520Y192088D01*
X731520Y166688D02*
X716280Y166688D01*
X716280Y141288D02*
X731520Y141288D01*
X731520Y115888D02*
X716280Y115888D01*
X716280Y90488D02*
X731520Y90488D01*
D11*
X277838Y190500D03*
X296838Y190500D03*
D12*
X755650Y191063D03*
X755650Y174063D03*
D13*
X391732Y91313D03*
X436944Y91313D03*
X391732Y156337D03*
X436944Y156337D03*
D12*
X564125Y111125D03*
X547125Y111125D03*
X564125Y90488D03*
X547125Y90488D03*
D16*
X625475Y119063D03*
X371791Y167389D03*
X530225Y155575D03*
X530225Y125413D03*
X654050Y139700D03*
X441325Y176213D03*
X674688Y165100D03*
X485775Y204068D03*
X315913Y144375D03*
X315913Y154225D03*
X579438Y104775D03*
X600075Y119987D03*
X388938Y44450D03*
X414338Y44450D03*
X470783Y88017D03*
X481535Y89091D03*
X527050Y80963D03*
X657239Y168261D03*
M02*
