G04 EAGLE Gerber RS-274X export*
G75*
%MOMM*%
%FSLAX34Y34*%
%LPD*%
%INSolderpaste Top*%
%IPPOS*%
%AMOC8*
5,1,8,0,0,1.08239X$1,22.5*%
G01*
%ADD10R,0.800000X0.800000*%
%ADD11R,1.000000X1.100000*%
%ADD12R,0.254000X0.812800*%
%ADD13R,1.380000X0.406400*%
%ADD14R,1.550000X1.425000*%
%ADD15R,1.900000X1.800000*%
%ADD16R,1.900000X1.000000*%
%ADD17R,1.300000X1.650000*%
%ADD18R,1.399997X0.400000*%
%ADD19R,1.200000X0.550000*%
%ADD20R,1.100000X1.000000*%
%ADD21R,1.500000X1.300000*%

G36*
X529415Y160909D02*
X529415Y160909D01*
X529417Y160909D01*
X529500Y160945D01*
X538144Y169589D01*
X538145Y169591D01*
X538147Y169592D01*
X538163Y169637D01*
X538181Y169680D01*
X538180Y169682D01*
X538181Y169684D01*
X538144Y169768D01*
X529500Y178411D01*
X529498Y178412D01*
X529498Y178414D01*
X529453Y178431D01*
X529409Y178448D01*
X529407Y178447D01*
X529405Y178448D01*
X529322Y178411D01*
X520678Y169768D01*
X520677Y169766D01*
X520675Y169765D01*
X520659Y169720D01*
X520641Y169676D01*
X520642Y169674D01*
X520641Y169672D01*
X520678Y169589D01*
X529322Y160945D01*
X529324Y160945D01*
X529325Y160943D01*
X529369Y160926D01*
X529413Y160908D01*
X529415Y160909D01*
G37*
G36*
X539473Y150851D02*
X539473Y150851D01*
X539475Y150851D01*
X539558Y150888D01*
X548202Y159531D01*
X548203Y159533D01*
X548205Y159534D01*
X548221Y159579D01*
X548239Y159622D01*
X548238Y159624D01*
X548239Y159627D01*
X548202Y159710D01*
X539558Y168353D01*
X539556Y168354D01*
X539555Y168356D01*
X539511Y168373D01*
X539467Y168390D01*
X539465Y168389D01*
X539463Y168390D01*
X539380Y168353D01*
X530736Y159710D01*
X530735Y159708D01*
X530733Y159707D01*
X530717Y159662D01*
X530699Y159618D01*
X530700Y159616D01*
X530699Y159614D01*
X530736Y159531D01*
X539380Y150888D01*
X539382Y150887D01*
X539383Y150885D01*
X539427Y150868D01*
X539471Y150851D01*
X539473Y150851D01*
G37*
G36*
X519357Y150851D02*
X519357Y150851D01*
X519359Y150851D01*
X519443Y150888D01*
X528086Y159531D01*
X528087Y159533D01*
X528089Y159534D01*
X528105Y159579D01*
X528123Y159622D01*
X528122Y159624D01*
X528123Y159627D01*
X528086Y159710D01*
X519443Y168353D01*
X519441Y168354D01*
X519440Y168356D01*
X519395Y168373D01*
X519351Y168390D01*
X519349Y168389D01*
X519347Y168390D01*
X519264Y168353D01*
X510620Y159710D01*
X510620Y159708D01*
X510618Y159707D01*
X510601Y159662D01*
X510583Y159618D01*
X510584Y159616D01*
X510584Y159614D01*
X510620Y159531D01*
X519264Y150888D01*
X519266Y150887D01*
X519267Y150885D01*
X519311Y150868D01*
X519355Y150851D01*
X519357Y150851D01*
G37*
G36*
X509299Y140794D02*
X509299Y140794D01*
X509301Y140793D01*
X509385Y140830D01*
X518028Y149473D01*
X518029Y149475D01*
X518031Y149476D01*
X518048Y149521D01*
X518065Y149565D01*
X518064Y149567D01*
X518065Y149569D01*
X518028Y149652D01*
X509385Y158296D01*
X509383Y158296D01*
X509382Y158298D01*
X509337Y158315D01*
X509293Y158332D01*
X509291Y158332D01*
X509289Y158332D01*
X509206Y158296D01*
X500562Y149652D01*
X500562Y149650D01*
X500560Y149649D01*
X500543Y149604D01*
X500525Y149561D01*
X500526Y149559D01*
X500526Y149557D01*
X500562Y149473D01*
X509206Y140830D01*
X509208Y140829D01*
X509209Y140827D01*
X509254Y140810D01*
X509297Y140793D01*
X509299Y140794D01*
G37*
G36*
X549531Y140794D02*
X549531Y140794D01*
X549533Y140793D01*
X549616Y140830D01*
X558260Y149473D01*
X558261Y149475D01*
X558263Y149476D01*
X558279Y149521D01*
X558297Y149565D01*
X558296Y149567D01*
X558297Y149569D01*
X558260Y149652D01*
X549616Y158296D01*
X549614Y158296D01*
X549613Y158298D01*
X549569Y158315D01*
X549525Y158332D01*
X549523Y158332D01*
X549521Y158332D01*
X549438Y158296D01*
X540794Y149652D01*
X540793Y149650D01*
X540791Y149649D01*
X540775Y149604D01*
X540757Y149561D01*
X540758Y149559D01*
X540757Y149557D01*
X540794Y149473D01*
X549438Y140830D01*
X549440Y140829D01*
X549441Y140827D01*
X549485Y140810D01*
X549529Y140793D01*
X549531Y140794D01*
G37*
G36*
X529415Y140794D02*
X529415Y140794D01*
X529417Y140793D01*
X529500Y140830D01*
X538144Y149473D01*
X538145Y149475D01*
X538147Y149476D01*
X538163Y149521D01*
X538181Y149565D01*
X538180Y149567D01*
X538181Y149569D01*
X538144Y149652D01*
X529500Y158296D01*
X529498Y158296D01*
X529498Y158298D01*
X529453Y158315D01*
X529409Y158332D01*
X529407Y158332D01*
X529405Y158332D01*
X529322Y158296D01*
X520678Y149652D01*
X520677Y149650D01*
X520675Y149649D01*
X520659Y149604D01*
X520641Y149561D01*
X520642Y149559D01*
X520641Y149557D01*
X520678Y149473D01*
X529322Y140830D01*
X529324Y140829D01*
X529325Y140827D01*
X529369Y140810D01*
X529413Y140793D01*
X529415Y140794D01*
G37*
G36*
X499241Y130736D02*
X499241Y130736D01*
X499244Y130735D01*
X499327Y130772D01*
X507970Y139415D01*
X507971Y139417D01*
X507973Y139418D01*
X507990Y139463D01*
X508007Y139507D01*
X508007Y139509D01*
X508007Y139511D01*
X507970Y139594D01*
X499327Y148238D01*
X499325Y148238D01*
X499324Y148240D01*
X499279Y148257D01*
X499235Y148275D01*
X499233Y148274D01*
X499231Y148274D01*
X499148Y148238D01*
X490505Y139594D01*
X490504Y139592D01*
X490502Y139591D01*
X490485Y139546D01*
X490468Y139503D01*
X490468Y139501D01*
X490468Y139499D01*
X490505Y139415D01*
X499148Y130772D01*
X499150Y130771D01*
X499151Y130769D01*
X499196Y130753D01*
X499240Y130735D01*
X499241Y130736D01*
G37*
G36*
X539473Y130736D02*
X539473Y130736D01*
X539475Y130735D01*
X539558Y130772D01*
X548202Y139415D01*
X548203Y139417D01*
X548205Y139418D01*
X548221Y139463D01*
X548239Y139507D01*
X548238Y139509D01*
X548239Y139511D01*
X548202Y139594D01*
X539558Y148238D01*
X539556Y148238D01*
X539555Y148240D01*
X539511Y148257D01*
X539467Y148275D01*
X539465Y148274D01*
X539463Y148274D01*
X539380Y148238D01*
X530736Y139594D01*
X530735Y139592D01*
X530733Y139591D01*
X530717Y139546D01*
X530699Y139503D01*
X530700Y139501D01*
X530699Y139499D01*
X530736Y139415D01*
X539380Y130772D01*
X539382Y130771D01*
X539383Y130769D01*
X539427Y130753D01*
X539471Y130735D01*
X539473Y130736D01*
G37*
G36*
X559589Y130736D02*
X559589Y130736D01*
X559591Y130735D01*
X559674Y130772D01*
X568318Y139415D01*
X568319Y139417D01*
X568321Y139418D01*
X568337Y139463D01*
X568355Y139507D01*
X568354Y139509D01*
X568355Y139511D01*
X568318Y139594D01*
X559674Y148238D01*
X559672Y148238D01*
X559671Y148240D01*
X559627Y148257D01*
X559583Y148275D01*
X559581Y148274D01*
X559579Y148274D01*
X559496Y148238D01*
X550852Y139594D01*
X550851Y139592D01*
X550849Y139591D01*
X550833Y139546D01*
X550815Y139503D01*
X550816Y139501D01*
X550815Y139499D01*
X550852Y139415D01*
X559496Y130772D01*
X559498Y130771D01*
X559498Y130769D01*
X559543Y130753D01*
X559587Y130735D01*
X559589Y130736D01*
G37*
G36*
X519357Y130736D02*
X519357Y130736D01*
X519359Y130735D01*
X519443Y130772D01*
X528086Y139415D01*
X528087Y139417D01*
X528089Y139418D01*
X528105Y139463D01*
X528123Y139507D01*
X528122Y139509D01*
X528123Y139511D01*
X528086Y139594D01*
X519443Y148238D01*
X519441Y148238D01*
X519440Y148240D01*
X519395Y148257D01*
X519351Y148275D01*
X519349Y148274D01*
X519347Y148274D01*
X519264Y148238D01*
X510620Y139594D01*
X510620Y139592D01*
X510618Y139591D01*
X510601Y139546D01*
X510583Y139503D01*
X510584Y139501D01*
X510584Y139499D01*
X510620Y139415D01*
X519264Y130772D01*
X519266Y130771D01*
X519267Y130769D01*
X519311Y130753D01*
X519355Y130735D01*
X519357Y130736D01*
G37*
G36*
X509299Y120678D02*
X509299Y120678D01*
X509301Y120677D01*
X509385Y120714D01*
X518028Y129358D01*
X518029Y129360D01*
X518031Y129360D01*
X518048Y129405D01*
X518065Y129449D01*
X518064Y129451D01*
X518065Y129453D01*
X518028Y129536D01*
X509385Y138180D01*
X509383Y138181D01*
X509382Y138183D01*
X509337Y138199D01*
X509293Y138217D01*
X509291Y138216D01*
X509289Y138217D01*
X509206Y138180D01*
X500562Y129536D01*
X500562Y129534D01*
X500560Y129533D01*
X500543Y129489D01*
X500525Y129445D01*
X500526Y129443D01*
X500526Y129441D01*
X500562Y129358D01*
X509206Y120714D01*
X509208Y120713D01*
X509209Y120711D01*
X509254Y120695D01*
X509297Y120677D01*
X509299Y120678D01*
G37*
G36*
X549531Y120678D02*
X549531Y120678D01*
X549533Y120677D01*
X549616Y120714D01*
X558260Y129358D01*
X558261Y129360D01*
X558263Y129360D01*
X558279Y129405D01*
X558297Y129449D01*
X558296Y129451D01*
X558297Y129453D01*
X558260Y129536D01*
X549616Y138180D01*
X549614Y138181D01*
X549613Y138183D01*
X549569Y138199D01*
X549525Y138217D01*
X549523Y138216D01*
X549521Y138217D01*
X549438Y138180D01*
X540794Y129536D01*
X540793Y129534D01*
X540791Y129533D01*
X540775Y129489D01*
X540757Y129445D01*
X540758Y129443D01*
X540757Y129441D01*
X540794Y129358D01*
X549438Y120714D01*
X549440Y120713D01*
X549441Y120711D01*
X549485Y120695D01*
X549529Y120677D01*
X549531Y120678D01*
G37*
G36*
X529415Y120678D02*
X529415Y120678D01*
X529417Y120677D01*
X529500Y120714D01*
X538144Y129358D01*
X538145Y129360D01*
X538147Y129360D01*
X538163Y129405D01*
X538181Y129449D01*
X538180Y129451D01*
X538181Y129453D01*
X538144Y129536D01*
X529500Y138180D01*
X529498Y138181D01*
X529498Y138183D01*
X529453Y138199D01*
X529409Y138217D01*
X529407Y138216D01*
X529405Y138217D01*
X529322Y138180D01*
X520678Y129536D01*
X520677Y129534D01*
X520675Y129533D01*
X520659Y129489D01*
X520641Y129445D01*
X520642Y129443D01*
X520641Y129441D01*
X520678Y129358D01*
X529322Y120714D01*
X529324Y120713D01*
X529325Y120711D01*
X529369Y120695D01*
X529413Y120677D01*
X529415Y120678D01*
G37*
G36*
X539473Y110620D02*
X539473Y110620D01*
X539475Y110619D01*
X539558Y110656D01*
X548202Y119300D01*
X548203Y119302D01*
X548205Y119303D01*
X548221Y119347D01*
X548239Y119391D01*
X548238Y119393D01*
X548239Y119395D01*
X548202Y119478D01*
X539558Y128122D01*
X539556Y128123D01*
X539555Y128125D01*
X539511Y128141D01*
X539467Y128159D01*
X539465Y128158D01*
X539463Y128159D01*
X539380Y128122D01*
X530736Y119478D01*
X530735Y119476D01*
X530733Y119475D01*
X530717Y119431D01*
X530699Y119387D01*
X530700Y119385D01*
X530699Y119383D01*
X530736Y119300D01*
X539380Y110656D01*
X539382Y110655D01*
X539383Y110653D01*
X539427Y110637D01*
X539471Y110619D01*
X539473Y110620D01*
G37*
G36*
X519357Y110620D02*
X519357Y110620D01*
X519359Y110619D01*
X519443Y110656D01*
X528086Y119300D01*
X528087Y119302D01*
X528089Y119303D01*
X528105Y119347D01*
X528123Y119391D01*
X528122Y119393D01*
X528123Y119395D01*
X528086Y119478D01*
X519443Y128122D01*
X519441Y128123D01*
X519440Y128125D01*
X519395Y128141D01*
X519351Y128159D01*
X519349Y128158D01*
X519347Y128159D01*
X519264Y128122D01*
X510620Y119478D01*
X510620Y119476D01*
X510618Y119475D01*
X510601Y119431D01*
X510583Y119387D01*
X510584Y119385D01*
X510584Y119383D01*
X510620Y119300D01*
X519264Y110656D01*
X519266Y110655D01*
X519267Y110653D01*
X519311Y110637D01*
X519355Y110619D01*
X519357Y110620D01*
G37*
G36*
X529415Y100562D02*
X529415Y100562D01*
X529417Y100561D01*
X529500Y100598D01*
X538144Y109242D01*
X538145Y109244D01*
X538147Y109245D01*
X538163Y109289D01*
X538181Y109333D01*
X538180Y109335D01*
X538181Y109337D01*
X538144Y109420D01*
X529500Y118064D01*
X529498Y118065D01*
X529498Y118067D01*
X529453Y118083D01*
X529409Y118101D01*
X529407Y118100D01*
X529405Y118101D01*
X529322Y118064D01*
X520678Y109420D01*
X520677Y109418D01*
X520675Y109417D01*
X520659Y109373D01*
X520641Y109329D01*
X520642Y109327D01*
X520641Y109325D01*
X520678Y109242D01*
X529322Y100598D01*
X529324Y100597D01*
X529325Y100595D01*
X529369Y100579D01*
X529413Y100561D01*
X529415Y100562D01*
G37*
D10*
X674250Y153988D03*
X659250Y153988D03*
D11*
X676838Y120650D03*
X659838Y120650D03*
D12*
G36*
X520664Y185356D02*
X522460Y187152D01*
X528206Y181406D01*
X526410Y179610D01*
X520664Y185356D01*
G37*
G36*
X517128Y181820D02*
X518924Y183616D01*
X524670Y177870D01*
X522874Y176074D01*
X517128Y181820D01*
G37*
G36*
X513591Y178283D02*
X515387Y180079D01*
X521133Y174333D01*
X519337Y172537D01*
X513591Y178283D01*
G37*
G36*
X510055Y174747D02*
X511851Y176543D01*
X517597Y170797D01*
X515801Y169001D01*
X510055Y174747D01*
G37*
G36*
X506519Y171211D02*
X508315Y173007D01*
X514061Y167261D01*
X512265Y165465D01*
X506519Y171211D01*
G37*
G36*
X502982Y167674D02*
X504778Y169470D01*
X510524Y163724D01*
X508728Y161928D01*
X502982Y167674D01*
G37*
G36*
X499445Y164138D02*
X501241Y165934D01*
X506987Y160188D01*
X505191Y158392D01*
X499445Y164138D01*
G37*
G36*
X495909Y160601D02*
X497705Y162397D01*
X503451Y156651D01*
X501655Y154855D01*
X495909Y160601D01*
G37*
G36*
X492373Y157065D02*
X494169Y158861D01*
X499915Y153115D01*
X498119Y151319D01*
X492373Y157065D01*
G37*
G36*
X488837Y153529D02*
X490633Y155325D01*
X496379Y149579D01*
X494583Y147783D01*
X488837Y153529D01*
G37*
G36*
X485300Y149992D02*
X487096Y151788D01*
X492842Y146042D01*
X491046Y144246D01*
X485300Y149992D01*
G37*
G36*
X481763Y146456D02*
X483559Y148252D01*
X489305Y142506D01*
X487509Y140710D01*
X481763Y146456D01*
G37*
G36*
X487509Y138300D02*
X489305Y136504D01*
X483559Y130758D01*
X481763Y132554D01*
X487509Y138300D01*
G37*
G36*
X491046Y134764D02*
X492842Y132968D01*
X487096Y127222D01*
X485300Y129018D01*
X491046Y134764D01*
G37*
G36*
X494583Y131227D02*
X496379Y129431D01*
X490633Y123685D01*
X488837Y125481D01*
X494583Y131227D01*
G37*
G36*
X498119Y127690D02*
X499915Y125894D01*
X494169Y120148D01*
X492373Y121944D01*
X498119Y127690D01*
G37*
G36*
X501655Y124154D02*
X503451Y122358D01*
X497705Y116612D01*
X495909Y118408D01*
X501655Y124154D01*
G37*
G36*
X505191Y120618D02*
X506987Y118822D01*
X501241Y113076D01*
X499445Y114872D01*
X505191Y120618D01*
G37*
G36*
X508728Y117081D02*
X510524Y115285D01*
X504778Y109539D01*
X502982Y111335D01*
X508728Y117081D01*
G37*
G36*
X512265Y113545D02*
X514061Y111749D01*
X508315Y106003D01*
X506519Y107799D01*
X512265Y113545D01*
G37*
G36*
X515801Y110008D02*
X517597Y108212D01*
X511851Y102466D01*
X510055Y104262D01*
X515801Y110008D01*
G37*
G36*
X519337Y106472D02*
X521133Y104676D01*
X515387Y98930D01*
X513591Y100726D01*
X519337Y106472D01*
G37*
G36*
X522874Y102935D02*
X524670Y101139D01*
X518924Y95393D01*
X517128Y97189D01*
X522874Y102935D01*
G37*
G36*
X526410Y99399D02*
X528206Y97603D01*
X522460Y91857D01*
X520664Y93653D01*
X526410Y99399D01*
G37*
G36*
X530616Y97603D02*
X532412Y99399D01*
X538158Y93653D01*
X536362Y91857D01*
X530616Y97603D01*
G37*
G36*
X534152Y101139D02*
X535948Y102935D01*
X541694Y97189D01*
X539898Y95393D01*
X534152Y101139D01*
G37*
G36*
X537689Y104676D02*
X539485Y106472D01*
X545231Y100726D01*
X543435Y98930D01*
X537689Y104676D01*
G37*
G36*
X541225Y108212D02*
X543021Y110008D01*
X548767Y104262D01*
X546971Y102466D01*
X541225Y108212D01*
G37*
G36*
X544762Y111749D02*
X546558Y113545D01*
X552304Y107799D01*
X550508Y106003D01*
X544762Y111749D01*
G37*
G36*
X548298Y115285D02*
X550094Y117081D01*
X555840Y111335D01*
X554044Y109539D01*
X548298Y115285D01*
G37*
G36*
X551835Y118822D02*
X553631Y120618D01*
X559377Y114872D01*
X557581Y113076D01*
X551835Y118822D01*
G37*
G36*
X555371Y122358D02*
X557167Y124154D01*
X562913Y118408D01*
X561117Y116612D01*
X555371Y122358D01*
G37*
G36*
X558907Y125894D02*
X560703Y127690D01*
X566449Y121944D01*
X564653Y120148D01*
X558907Y125894D01*
G37*
G36*
X562444Y129431D02*
X564240Y131227D01*
X569986Y125481D01*
X568190Y123685D01*
X562444Y129431D01*
G37*
G36*
X565981Y132968D02*
X567777Y134764D01*
X573523Y129018D01*
X571727Y127222D01*
X565981Y132968D01*
G37*
G36*
X569517Y136504D02*
X571313Y138300D01*
X577059Y132554D01*
X575263Y130758D01*
X569517Y136504D01*
G37*
G36*
X575263Y148252D02*
X577059Y146456D01*
X571313Y140710D01*
X569517Y142506D01*
X575263Y148252D01*
G37*
G36*
X571727Y151788D02*
X573523Y149992D01*
X567777Y144246D01*
X565981Y146042D01*
X571727Y151788D01*
G37*
G36*
X568190Y155325D02*
X569986Y153529D01*
X564240Y147783D01*
X562444Y149579D01*
X568190Y155325D01*
G37*
G36*
X564653Y158861D02*
X566449Y157065D01*
X560703Y151319D01*
X558907Y153115D01*
X564653Y158861D01*
G37*
G36*
X561117Y162397D02*
X562913Y160601D01*
X557167Y154855D01*
X555371Y156651D01*
X561117Y162397D01*
G37*
G36*
X557581Y165934D02*
X559377Y164138D01*
X553631Y158392D01*
X551835Y160188D01*
X557581Y165934D01*
G37*
G36*
X554044Y169470D02*
X555840Y167674D01*
X550094Y161928D01*
X548298Y163724D01*
X554044Y169470D01*
G37*
G36*
X550508Y173007D02*
X552304Y171211D01*
X546558Y165465D01*
X544762Y167261D01*
X550508Y173007D01*
G37*
G36*
X546971Y176543D02*
X548767Y174747D01*
X543021Y169001D01*
X541225Y170797D01*
X546971Y176543D01*
G37*
G36*
X543435Y180079D02*
X545231Y178283D01*
X539485Y172537D01*
X537689Y174333D01*
X543435Y180079D01*
G37*
G36*
X539898Y183616D02*
X541694Y181820D01*
X535948Y176074D01*
X534152Y177870D01*
X539898Y183616D01*
G37*
G36*
X536362Y187152D02*
X538158Y185356D01*
X532412Y179610D01*
X530616Y181406D01*
X536362Y187152D01*
G37*
D13*
X299650Y159050D03*
X299650Y152550D03*
X299650Y146050D03*
X299650Y139550D03*
X299650Y133050D03*
D14*
X298800Y121175D03*
X298800Y170925D03*
D15*
X273050Y157550D03*
D16*
X273050Y130550D03*
D17*
X273050Y179800D03*
X273050Y112300D03*
D18*
G36*
X491445Y178335D02*
X481547Y188233D01*
X484375Y191061D01*
X494273Y181163D01*
X491445Y178335D01*
G37*
G36*
X482960Y169850D02*
X473062Y179748D01*
X475890Y182576D01*
X485788Y172678D01*
X482960Y169850D01*
G37*
G36*
X474475Y161364D02*
X464577Y171262D01*
X467405Y174090D01*
X477303Y164192D01*
X474475Y161364D01*
G37*
D19*
X334663Y174600D03*
X334663Y165100D03*
X334663Y155600D03*
X360663Y155600D03*
X360663Y174600D03*
D20*
X351400Y133350D03*
X334400Y133350D03*
D21*
X352425Y93688D03*
X352425Y112688D03*
D20*
X331788Y94688D03*
X331788Y111688D03*
M02*
