G04 EAGLE Gerber RS-274X export*
G75*
%MOMM*%
%FSLAX34Y34*%
%LPD*%
%INSolderpaste Bottom*%
%IPPOS*%
%AMOC8*
5,1,8,0,0,1.08239X$1,22.5*%
G01*
%ADD10R,1.000000X1.100000*%
%ADD11R,1.500000X1.300000*%
%ADD12R,1.100000X1.000000*%
%ADD13R,1.300000X1.500000*%
%ADD14R,1.168400X1.600200*%
%ADD15R,0.800000X1.600000*%


D10*
X-23813Y164075D03*
X-23813Y147075D03*
D11*
X-6350Y165075D03*
X-6350Y146075D03*
D10*
X-38100Y164075D03*
X-38100Y147075D03*
D11*
X-52388Y165075D03*
X-52388Y146075D03*
D10*
X-169300Y171450D03*
X-186300Y171450D03*
D12*
X-77788Y148663D03*
X-77788Y165663D03*
D10*
X-169300Y152400D03*
X-186300Y152400D03*
D12*
X79375Y138675D03*
X79375Y121675D03*
X-131200Y104775D03*
X-148200Y104775D03*
D13*
X-130200Y144463D03*
X-149200Y144463D03*
D10*
X204788Y164075D03*
X204788Y147075D03*
X-131200Y65088D03*
X-148200Y65088D03*
X-131200Y85725D03*
X-148200Y85725D03*
D11*
X-180975Y131738D03*
X-180975Y112738D03*
D12*
X-131200Y123825D03*
X-148200Y123825D03*
D13*
X-130200Y158750D03*
X-149200Y158750D03*
D12*
X-131200Y133350D03*
X-148200Y133350D03*
D10*
X-168275Y130738D03*
X-168275Y113738D03*
X-41275Y116450D03*
X-41275Y99450D03*
D14*
X-136843Y214313D03*
X-152083Y214313D03*
X-98743Y214313D03*
X-113983Y214313D03*
D12*
X-61913Y116450D03*
X-61913Y99450D03*
D15*
X-241300Y132225D03*
X-241300Y166225D03*
D10*
X51363Y215900D03*
X34363Y215900D03*
M02*
