G04 EAGLE Gerber RS-274X export*
G75*
%MOMM*%
%FSLAX34Y34*%
%LPD*%
%INSoldermask Top*%
%IPPOS*%
%AMOC8*
5,1,8,0,0,1.08239X$1,22.5*%
G01*
%ADD10R,1.003200X1.003200*%
%ADD11C,1.727200*%
%ADD12P,1.869504X8X22.500000*%
%ADD13R,1.203200X1.303200*%
%ADD14C,1.727200*%
%ADD15R,0.457200X1.016000*%
%ADD16R,5.715000X5.715000*%
%ADD17R,0.952500X0.396875*%
%ADD18R,0.396875X1.031875*%
%ADD19R,1.031875X0.396875*%
%ADD20R,0.396875X0.952500*%
%ADD21R,1.583200X0.609600*%
%ADD22R,1.753200X1.628200*%
%ADD23R,2.103200X2.003200*%
%ADD24R,2.103200X1.203200*%
%ADD25R,1.503200X1.853200*%
%ADD26R,1.603197X0.603200*%
%ADD27R,1.403200X0.753200*%
%ADD28R,1.303200X1.203200*%
%ADD29R,1.703200X1.503200*%
%ADD30C,0.959600*%


D10*
X674250Y153988D03*
X659250Y153988D03*
D11*
X755650Y65088D03*
X730250Y65088D03*
X704850Y65088D03*
X679450Y65088D03*
X654050Y65088D03*
X628650Y65088D03*
X603250Y65088D03*
X577850Y65088D03*
X552450Y65088D03*
X527050Y65088D03*
X501650Y65088D03*
X476250Y65088D03*
X450850Y65088D03*
X425450Y65088D03*
X400050Y65088D03*
X374650Y65088D03*
X349250Y65088D03*
X323850Y65088D03*
X298450Y65088D03*
X273050Y65088D03*
X273050Y217488D03*
X298450Y217488D03*
X323850Y217488D03*
X349250Y217488D03*
X374650Y217488D03*
X400050Y217488D03*
X425450Y217488D03*
X450850Y217488D03*
X476250Y217488D03*
X501650Y217488D03*
X527050Y217488D03*
X552450Y217488D03*
X577850Y217488D03*
X603250Y217488D03*
X628650Y217488D03*
X654050Y217488D03*
X679450Y217488D03*
X704850Y217488D03*
X730250Y217488D03*
X755650Y217488D03*
D12*
X411163Y185738D03*
D13*
X676838Y120650D03*
X659838Y120650D03*
D14*
X716280Y192088D02*
X731520Y192088D01*
X731520Y166688D02*
X716280Y166688D01*
X716280Y141288D02*
X731520Y141288D01*
X731520Y115888D02*
X716280Y115888D01*
X716280Y90488D02*
X731520Y90488D01*
D15*
G36*
X515691Y181820D02*
X518924Y185053D01*
X526107Y177870D01*
X522874Y174637D01*
X515691Y181820D01*
G37*
G36*
X512154Y178283D02*
X515387Y181516D01*
X522570Y174333D01*
X519337Y171100D01*
X512154Y178283D01*
G37*
G36*
X508618Y174747D02*
X511851Y177980D01*
X519034Y170797D01*
X515801Y167564D01*
X508618Y174747D01*
G37*
G36*
X505082Y171211D02*
X508315Y174444D01*
X515498Y167261D01*
X512265Y164028D01*
X505082Y171211D01*
G37*
G36*
X501545Y167674D02*
X504778Y170907D01*
X511961Y163724D01*
X508728Y160491D01*
X501545Y167674D01*
G37*
G36*
X498008Y164138D02*
X501241Y167371D01*
X508424Y160188D01*
X505191Y156955D01*
X498008Y164138D01*
G37*
G36*
X494472Y160601D02*
X497705Y163834D01*
X504888Y156651D01*
X501655Y153418D01*
X494472Y160601D01*
G37*
G36*
X490936Y157065D02*
X494169Y160298D01*
X501352Y153115D01*
X498119Y149882D01*
X490936Y157065D01*
G37*
G36*
X487400Y153529D02*
X490633Y156762D01*
X497816Y149579D01*
X494583Y146346D01*
X487400Y153529D01*
G37*
G36*
X483863Y149992D02*
X487096Y153225D01*
X494279Y146042D01*
X491046Y142809D01*
X483863Y149992D01*
G37*
G36*
X491046Y136201D02*
X494279Y132968D01*
X487096Y125785D01*
X483863Y129018D01*
X491046Y136201D01*
G37*
G36*
X494583Y132664D02*
X497816Y129431D01*
X490633Y122248D01*
X487400Y125481D01*
X494583Y132664D01*
G37*
G36*
X498119Y129127D02*
X501352Y125894D01*
X494169Y118711D01*
X490936Y121944D01*
X498119Y129127D01*
G37*
G36*
X501655Y125591D02*
X504888Y122358D01*
X497705Y115175D01*
X494472Y118408D01*
X501655Y125591D01*
G37*
G36*
X505191Y122055D02*
X508424Y118822D01*
X501241Y111639D01*
X498008Y114872D01*
X505191Y122055D01*
G37*
G36*
X508728Y118518D02*
X511961Y115285D01*
X504778Y108102D01*
X501545Y111335D01*
X508728Y118518D01*
G37*
G36*
X512265Y114982D02*
X515498Y111749D01*
X508315Y104566D01*
X505082Y107799D01*
X512265Y114982D01*
G37*
G36*
X515801Y111445D02*
X519034Y108212D01*
X511851Y101029D01*
X508618Y104262D01*
X515801Y111445D01*
G37*
G36*
X519337Y107909D02*
X522570Y104676D01*
X515387Y97493D01*
X512154Y100726D01*
X519337Y107909D01*
G37*
G36*
X522874Y104372D02*
X526107Y101139D01*
X518924Y93956D01*
X515691Y97189D01*
X522874Y104372D01*
G37*
G36*
X532715Y101139D02*
X535948Y104372D01*
X543131Y97189D01*
X539898Y93956D01*
X532715Y101139D01*
G37*
G36*
X536252Y104676D02*
X539485Y107909D01*
X546668Y100726D01*
X543435Y97493D01*
X536252Y104676D01*
G37*
G36*
X539788Y108212D02*
X543021Y111445D01*
X550204Y104262D01*
X546971Y101029D01*
X539788Y108212D01*
G37*
G36*
X543325Y111749D02*
X546558Y114982D01*
X553741Y107799D01*
X550508Y104566D01*
X543325Y111749D01*
G37*
G36*
X546861Y115285D02*
X550094Y118518D01*
X557277Y111335D01*
X554044Y108102D01*
X546861Y115285D01*
G37*
G36*
X550398Y118822D02*
X553631Y122055D01*
X560814Y114872D01*
X557581Y111639D01*
X550398Y118822D01*
G37*
G36*
X553934Y122358D02*
X557167Y125591D01*
X564350Y118408D01*
X561117Y115175D01*
X553934Y122358D01*
G37*
G36*
X557470Y125894D02*
X560703Y129127D01*
X567886Y121944D01*
X564653Y118711D01*
X557470Y125894D01*
G37*
G36*
X561007Y129431D02*
X564240Y132664D01*
X571423Y125481D01*
X568190Y122248D01*
X561007Y129431D01*
G37*
G36*
X564544Y132968D02*
X567777Y136201D01*
X574960Y129018D01*
X571727Y125785D01*
X564544Y132968D01*
G37*
G36*
X571727Y153225D02*
X574960Y149992D01*
X567777Y142809D01*
X564544Y146042D01*
X571727Y153225D01*
G37*
G36*
X568190Y156762D02*
X571423Y153529D01*
X564240Y146346D01*
X561007Y149579D01*
X568190Y156762D01*
G37*
G36*
X564653Y160298D02*
X567886Y157065D01*
X560703Y149882D01*
X557470Y153115D01*
X564653Y160298D01*
G37*
G36*
X561117Y163834D02*
X564350Y160601D01*
X557167Y153418D01*
X553934Y156651D01*
X561117Y163834D01*
G37*
G36*
X557581Y167371D02*
X560814Y164138D01*
X553631Y156955D01*
X550398Y160188D01*
X557581Y167371D01*
G37*
G36*
X554044Y170907D02*
X557277Y167674D01*
X550094Y160491D01*
X546861Y163724D01*
X554044Y170907D01*
G37*
G36*
X550508Y174444D02*
X553741Y171211D01*
X546558Y164028D01*
X543325Y167261D01*
X550508Y174444D01*
G37*
G36*
X546971Y177980D02*
X550204Y174747D01*
X543021Y167564D01*
X539788Y170797D01*
X546971Y177980D01*
G37*
G36*
X543435Y181516D02*
X546668Y178283D01*
X539485Y171100D01*
X536252Y174333D01*
X543435Y181516D01*
G37*
G36*
X539898Y185053D02*
X543131Y181820D01*
X535948Y174637D01*
X532715Y177870D01*
X539898Y185053D01*
G37*
D16*
G36*
X529411Y99094D02*
X489000Y139505D01*
X529411Y179916D01*
X569822Y139505D01*
X529411Y99094D01*
G37*
D17*
G36*
X575435Y129403D02*
X568701Y136137D01*
X571507Y138943D01*
X578241Y132209D01*
X575435Y129403D01*
G37*
D18*
G36*
X570945Y139506D02*
X568140Y142311D01*
X575435Y149606D01*
X578240Y146801D01*
X570945Y139506D01*
G37*
G36*
X532218Y178233D02*
X529413Y181038D01*
X536708Y188333D01*
X539513Y185528D01*
X532218Y178233D01*
G37*
D17*
G36*
X526043Y178794D02*
X519309Y185528D01*
X522115Y188334D01*
X528849Y181600D01*
X526043Y178794D01*
G37*
D19*
G36*
X487877Y139506D02*
X480582Y146801D01*
X483387Y149606D01*
X490682Y142311D01*
X487877Y139506D01*
G37*
D20*
G36*
X483388Y129403D02*
X480582Y132209D01*
X487316Y138943D01*
X490122Y136137D01*
X483388Y129403D01*
G37*
G36*
X522115Y90675D02*
X519309Y93481D01*
X526043Y100215D01*
X528849Y97409D01*
X522115Y90675D01*
G37*
D19*
G36*
X536708Y90676D02*
X529413Y97971D01*
X532218Y100776D01*
X539513Y93481D01*
X536708Y90676D01*
G37*
D21*
X299650Y159050D03*
X299650Y152550D03*
X299650Y146050D03*
X299650Y139550D03*
X299650Y133050D03*
D22*
X298800Y121175D03*
X298800Y170925D03*
D23*
X273050Y157550D03*
D24*
X273050Y130550D03*
D25*
X273050Y179800D03*
X273050Y112300D03*
D26*
G36*
X491445Y176898D02*
X480110Y188233D01*
X484375Y192498D01*
X495710Y181163D01*
X491445Y176898D01*
G37*
G36*
X482960Y168413D02*
X471625Y179748D01*
X475890Y184013D01*
X487225Y172678D01*
X482960Y168413D01*
G37*
G36*
X474475Y159927D02*
X463140Y171262D01*
X467405Y175527D01*
X478740Y164192D01*
X474475Y159927D01*
G37*
D27*
X334663Y174600D03*
X334663Y165100D03*
X334663Y155600D03*
X360663Y155600D03*
X360663Y174600D03*
D28*
X351400Y133350D03*
X334400Y133350D03*
D29*
X352425Y93688D03*
X352425Y112688D03*
D11*
X391732Y91313D03*
X436944Y91313D03*
X391732Y156337D03*
X436944Y156337D03*
D28*
X331788Y94688D03*
X331788Y111688D03*
D30*
X625475Y119063D03*
X371791Y167389D03*
X530225Y155575D03*
X530225Y125413D03*
X654050Y139700D03*
X441325Y176213D03*
X674688Y165100D03*
X485775Y204068D03*
X315913Y144375D03*
X315913Y154225D03*
X579438Y104775D03*
X600075Y119987D03*
X388938Y44450D03*
X414338Y44450D03*
X470783Y88017D03*
X481535Y89091D03*
X527050Y80963D03*
X657239Y168261D03*
M02*
