G04 EAGLE Gerber RS-274X export*
G75*
%MOMM*%
%FSLAX34Y34*%
%LPD*%
%INSolderpaste Top*%
%IPPOS*%
%AMOC8*
5,1,8,0,0,1.08239X$1,22.5*%
G01*
%ADD10R,1.399997X0.400000*%
%ADD11R,0.300000X0.550000*%
%ADD12R,0.800000X0.800000*%
%ADD13R,1.200000X0.550000*%
%ADD14R,1.350000X0.400000*%
%ADD15R,1.900000X1.800000*%
%ADD16R,1.900000X1.900000*%

G36*
X10389Y125647D02*
X10389Y125647D01*
X10391Y125646D01*
X10474Y125683D01*
X19118Y134326D01*
X19119Y134329D01*
X19121Y134329D01*
X19137Y134374D01*
X19155Y134418D01*
X19154Y134420D01*
X19155Y134422D01*
X19118Y134505D01*
X10474Y143149D01*
X10472Y143150D01*
X10472Y143152D01*
X10427Y143168D01*
X10383Y143186D01*
X10381Y143185D01*
X10379Y143186D01*
X10296Y143149D01*
X1652Y134505D01*
X1651Y134503D01*
X1649Y134502D01*
X1633Y134458D01*
X1615Y134414D01*
X1616Y134412D01*
X1615Y134410D01*
X1652Y134326D01*
X10296Y125683D01*
X10298Y125682D01*
X10299Y125680D01*
X10343Y125664D01*
X10387Y125646D01*
X10389Y125647D01*
G37*
G36*
X-9727Y125647D02*
X-9727Y125647D01*
X-9725Y125646D01*
X-9641Y125683D01*
X-998Y134326D01*
X-997Y134329D01*
X-995Y134329D01*
X-978Y134374D01*
X-961Y134418D01*
X-962Y134420D01*
X-961Y134422D01*
X-998Y134505D01*
X-9641Y143149D01*
X-9643Y143150D01*
X-9644Y143152D01*
X-9689Y143168D01*
X-9733Y143186D01*
X-9735Y143185D01*
X-9737Y143186D01*
X-9820Y143149D01*
X-18464Y134505D01*
X-18464Y134503D01*
X-18466Y134502D01*
X-18483Y134458D01*
X-18500Y134414D01*
X-18500Y134412D01*
X-18500Y134410D01*
X-18464Y134326D01*
X-9820Y125683D01*
X-9818Y125682D01*
X-9817Y125680D01*
X-9772Y125664D01*
X-9729Y125646D01*
X-9727Y125647D01*
G37*
G36*
X20447Y115589D02*
X20447Y115589D01*
X20449Y115588D01*
X20532Y115625D01*
X29176Y124269D01*
X29177Y124271D01*
X29179Y124272D01*
X29195Y124316D01*
X29213Y124360D01*
X29212Y124362D01*
X29213Y124364D01*
X29176Y124447D01*
X20532Y133091D01*
X20530Y133092D01*
X20529Y133094D01*
X20485Y133110D01*
X20441Y133128D01*
X20439Y133127D01*
X20437Y133128D01*
X20354Y133091D01*
X11710Y124447D01*
X11709Y124445D01*
X11707Y124444D01*
X11691Y124400D01*
X11673Y124356D01*
X11674Y124354D01*
X11673Y124352D01*
X11710Y124269D01*
X20354Y115625D01*
X20356Y115624D01*
X20357Y115622D01*
X20401Y115606D01*
X20445Y115588D01*
X20447Y115589D01*
G37*
G36*
X-19784Y115589D02*
X-19784Y115589D01*
X-19782Y115588D01*
X-19699Y115625D01*
X-11056Y124269D01*
X-11055Y124271D01*
X-11053Y124272D01*
X-11036Y124316D01*
X-11019Y124360D01*
X-11019Y124362D01*
X-11019Y124364D01*
X-11056Y124447D01*
X-19699Y133091D01*
X-19701Y133092D01*
X-19702Y133094D01*
X-19747Y133110D01*
X-19790Y133128D01*
X-19792Y133127D01*
X-19795Y133128D01*
X-19878Y133091D01*
X-28521Y124447D01*
X-28522Y124445D01*
X-28524Y124444D01*
X-28541Y124400D01*
X-28558Y124356D01*
X-28557Y124354D01*
X-28558Y124352D01*
X-28521Y124269D01*
X-19878Y115625D01*
X-19876Y115624D01*
X-19875Y115622D01*
X-19830Y115606D01*
X-19786Y115588D01*
X-19784Y115589D01*
G37*
G36*
X10389Y105531D02*
X10389Y105531D01*
X10391Y105530D01*
X10474Y105567D01*
X19118Y114211D01*
X19119Y114213D01*
X19121Y114214D01*
X19137Y114258D01*
X19155Y114302D01*
X19154Y114304D01*
X19155Y114306D01*
X19118Y114389D01*
X10474Y123033D01*
X10472Y123034D01*
X10472Y123036D01*
X10427Y123052D01*
X10383Y123070D01*
X10381Y123069D01*
X10379Y123070D01*
X10296Y123033D01*
X1652Y114389D01*
X1651Y114387D01*
X1649Y114386D01*
X1633Y114342D01*
X1615Y114298D01*
X1616Y114296D01*
X1615Y114294D01*
X1652Y114211D01*
X10296Y105567D01*
X10298Y105566D01*
X10299Y105564D01*
X10343Y105548D01*
X10387Y105530D01*
X10389Y105531D01*
G37*
G36*
X-29842Y105531D02*
X-29842Y105531D01*
X-29840Y105530D01*
X-29757Y105567D01*
X-21113Y114211D01*
X-21113Y114213D01*
X-21111Y114214D01*
X-21094Y114258D01*
X-21076Y114302D01*
X-21077Y114304D01*
X-21077Y114306D01*
X-21113Y114389D01*
X-29757Y123033D01*
X-29759Y123034D01*
X-29760Y123036D01*
X-29805Y123052D01*
X-29848Y123070D01*
X-29850Y123069D01*
X-29852Y123070D01*
X-29936Y123033D01*
X-38579Y114389D01*
X-38580Y114387D01*
X-38582Y114386D01*
X-38599Y114342D01*
X-38616Y114298D01*
X-38615Y114296D01*
X-38616Y114294D01*
X-38579Y114211D01*
X-29936Y105567D01*
X-29934Y105566D01*
X-29933Y105564D01*
X-29888Y105548D01*
X-29844Y105530D01*
X-29842Y105531D01*
G37*
G36*
X30505Y105531D02*
X30505Y105531D01*
X30507Y105530D01*
X30590Y105567D01*
X39234Y114211D01*
X39235Y114213D01*
X39237Y114214D01*
X39253Y114258D01*
X39271Y114302D01*
X39270Y114304D01*
X39271Y114306D01*
X39234Y114389D01*
X30590Y123033D01*
X30588Y123034D01*
X30587Y123036D01*
X30543Y123052D01*
X30499Y123070D01*
X30497Y123069D01*
X30495Y123070D01*
X30412Y123033D01*
X21768Y114389D01*
X21767Y114387D01*
X21765Y114386D01*
X21749Y114342D01*
X21731Y114298D01*
X21732Y114296D01*
X21731Y114294D01*
X21768Y114211D01*
X30412Y105567D01*
X30414Y105566D01*
X30415Y105564D01*
X30459Y105548D01*
X30503Y105530D01*
X30505Y105531D01*
G37*
G36*
X-9727Y105531D02*
X-9727Y105531D01*
X-9725Y105530D01*
X-9641Y105567D01*
X-998Y114211D01*
X-997Y114213D01*
X-995Y114214D01*
X-978Y114258D01*
X-961Y114302D01*
X-962Y114304D01*
X-961Y114306D01*
X-998Y114389D01*
X-9641Y123033D01*
X-9643Y123034D01*
X-9644Y123036D01*
X-9689Y123052D01*
X-9733Y123070D01*
X-9735Y123069D01*
X-9737Y123070D01*
X-9820Y123033D01*
X-18464Y114389D01*
X-18464Y114387D01*
X-18466Y114386D01*
X-18483Y114342D01*
X-18500Y114298D01*
X-18500Y114296D01*
X-18500Y114294D01*
X-18464Y114211D01*
X-9820Y105567D01*
X-9818Y105566D01*
X-9817Y105564D01*
X-9772Y105548D01*
X-9729Y105530D01*
X-9727Y105531D01*
G37*
G36*
X-19784Y95473D02*
X-19784Y95473D01*
X-19782Y95472D01*
X-19699Y95509D01*
X-11056Y104153D01*
X-11055Y104155D01*
X-11053Y104156D01*
X-11036Y104200D01*
X-11019Y104244D01*
X-11019Y104246D01*
X-11019Y104248D01*
X-11056Y104331D01*
X-19699Y112975D01*
X-19701Y112976D01*
X-19702Y112978D01*
X-19747Y112994D01*
X-19790Y113012D01*
X-19792Y113011D01*
X-19795Y113012D01*
X-19878Y112975D01*
X-28521Y104331D01*
X-28522Y104329D01*
X-28524Y104328D01*
X-28541Y104284D01*
X-28558Y104240D01*
X-28557Y104238D01*
X-28558Y104236D01*
X-28521Y104153D01*
X-19878Y95509D01*
X-19876Y95508D01*
X-19875Y95506D01*
X-19830Y95490D01*
X-19786Y95472D01*
X-19784Y95473D01*
G37*
G36*
X20447Y95473D02*
X20447Y95473D01*
X20449Y95472D01*
X20532Y95509D01*
X29176Y104153D01*
X29177Y104155D01*
X29179Y104156D01*
X29195Y104200D01*
X29213Y104244D01*
X29212Y104246D01*
X29213Y104248D01*
X29176Y104331D01*
X20532Y112975D01*
X20530Y112976D01*
X20529Y112978D01*
X20485Y112994D01*
X20441Y113012D01*
X20439Y113011D01*
X20437Y113012D01*
X20354Y112975D01*
X11710Y104331D01*
X11709Y104329D01*
X11707Y104328D01*
X11691Y104284D01*
X11673Y104240D01*
X11674Y104238D01*
X11673Y104236D01*
X11710Y104153D01*
X20354Y95509D01*
X20356Y95508D01*
X20357Y95506D01*
X20401Y95490D01*
X20445Y95472D01*
X20447Y95473D01*
G37*
G36*
X10389Y85415D02*
X10389Y85415D01*
X10391Y85414D01*
X10474Y85451D01*
X19118Y94095D01*
X19119Y94097D01*
X19121Y94098D01*
X19137Y94142D01*
X19155Y94186D01*
X19154Y94188D01*
X19155Y94190D01*
X19118Y94274D01*
X10474Y102917D01*
X10472Y102918D01*
X10472Y102920D01*
X10427Y102936D01*
X10383Y102954D01*
X10381Y102953D01*
X10379Y102954D01*
X10296Y102917D01*
X1652Y94274D01*
X1651Y94271D01*
X1649Y94271D01*
X1633Y94226D01*
X1615Y94182D01*
X1616Y94180D01*
X1615Y94178D01*
X1652Y94095D01*
X10296Y85451D01*
X10298Y85450D01*
X10299Y85448D01*
X10343Y85432D01*
X10387Y85414D01*
X10389Y85415D01*
G37*
G36*
X-9727Y85415D02*
X-9727Y85415D01*
X-9725Y85414D01*
X-9641Y85451D01*
X-998Y94095D01*
X-997Y94097D01*
X-995Y94098D01*
X-978Y94142D01*
X-961Y94186D01*
X-962Y94188D01*
X-961Y94190D01*
X-998Y94274D01*
X-9641Y102917D01*
X-9643Y102918D01*
X-9644Y102920D01*
X-9689Y102936D01*
X-9733Y102954D01*
X-9735Y102953D01*
X-9737Y102954D01*
X-9820Y102917D01*
X-18464Y94274D01*
X-18464Y94271D01*
X-18466Y94271D01*
X-18483Y94226D01*
X-18500Y94182D01*
X-18500Y94180D01*
X-18500Y94178D01*
X-18464Y94095D01*
X-9820Y85451D01*
X-9818Y85450D01*
X-9817Y85448D01*
X-9772Y85432D01*
X-9729Y85414D01*
X-9727Y85415D01*
G37*
G36*
X331Y135705D02*
X331Y135705D01*
X333Y135704D01*
X417Y135741D01*
X9060Y144384D01*
X9061Y144386D01*
X9063Y144387D01*
X9079Y144432D01*
X9097Y144476D01*
X9096Y144478D01*
X9097Y144480D01*
X9060Y144563D01*
X417Y153207D01*
X415Y153207D01*
X414Y153209D01*
X369Y153226D01*
X325Y153244D01*
X323Y153243D01*
X321Y153243D01*
X238Y153207D01*
X-8406Y144563D01*
X-8406Y144561D01*
X-8408Y144560D01*
X-8425Y144515D01*
X-8443Y144472D01*
X-8442Y144470D01*
X-8442Y144468D01*
X-8406Y144384D01*
X238Y135741D01*
X240Y135740D01*
X241Y135738D01*
X286Y135721D01*
X329Y135704D01*
X331Y135705D01*
G37*
G36*
X331Y115589D02*
X331Y115589D01*
X333Y115588D01*
X417Y115625D01*
X9060Y124269D01*
X9061Y124271D01*
X9063Y124272D01*
X9079Y124316D01*
X9097Y124360D01*
X9096Y124362D01*
X9097Y124364D01*
X9060Y124447D01*
X417Y133091D01*
X415Y133092D01*
X414Y133094D01*
X369Y133110D01*
X325Y133128D01*
X323Y133127D01*
X321Y133128D01*
X238Y133091D01*
X-8406Y124447D01*
X-8406Y124445D01*
X-8408Y124444D01*
X-8425Y124400D01*
X-8443Y124356D01*
X-8442Y124354D01*
X-8442Y124352D01*
X-8406Y124269D01*
X238Y115625D01*
X240Y115624D01*
X241Y115622D01*
X286Y115606D01*
X329Y115588D01*
X331Y115589D01*
G37*
G36*
X331Y95473D02*
X331Y95473D01*
X333Y95472D01*
X417Y95509D01*
X9060Y104153D01*
X9061Y104155D01*
X9063Y104156D01*
X9079Y104200D01*
X9097Y104244D01*
X9096Y104246D01*
X9097Y104248D01*
X9060Y104331D01*
X417Y112975D01*
X415Y112976D01*
X414Y112978D01*
X369Y112994D01*
X325Y113012D01*
X323Y113011D01*
X321Y113012D01*
X238Y112975D01*
X-8406Y104331D01*
X-8406Y104329D01*
X-8408Y104328D01*
X-8425Y104284D01*
X-8443Y104240D01*
X-8442Y104238D01*
X-8442Y104236D01*
X-8406Y104153D01*
X238Y95509D01*
X240Y95508D01*
X241Y95506D01*
X286Y95490D01*
X329Y95472D01*
X331Y95473D01*
G37*
G36*
X331Y75357D02*
X331Y75357D01*
X333Y75357D01*
X417Y75393D01*
X9060Y84037D01*
X9061Y84039D01*
X9063Y84040D01*
X9079Y84085D01*
X9097Y84128D01*
X9096Y84130D01*
X9097Y84132D01*
X9060Y84216D01*
X417Y92859D01*
X415Y92860D01*
X414Y92862D01*
X369Y92879D01*
X325Y92896D01*
X323Y92895D01*
X321Y92896D01*
X238Y92859D01*
X-8406Y84216D01*
X-8406Y84214D01*
X-8408Y84213D01*
X-8425Y84168D01*
X-8443Y84124D01*
X-8442Y84122D01*
X-8442Y84120D01*
X-8406Y84037D01*
X238Y75393D01*
X240Y75393D01*
X241Y75391D01*
X286Y75374D01*
X329Y75356D01*
X331Y75357D01*
G37*
D10*
G36*
X-41955Y156110D02*
X-51853Y166008D01*
X-49025Y168836D01*
X-39127Y158938D01*
X-41955Y156110D01*
G37*
G36*
X-50440Y147625D02*
X-60338Y157523D01*
X-57510Y160351D01*
X-47612Y150453D01*
X-50440Y147625D01*
G37*
G36*
X-58925Y139139D02*
X-68823Y149037D01*
X-65995Y151865D01*
X-56097Y141967D01*
X-58925Y139139D01*
G37*
D11*
G36*
X-7128Y158534D02*
X-5006Y160656D01*
X-1118Y156768D01*
X-3240Y154646D01*
X-7128Y158534D01*
G37*
G36*
X-10664Y154997D02*
X-8542Y157119D01*
X-4654Y153231D01*
X-6776Y151109D01*
X-10664Y154997D01*
G37*
G36*
X-14201Y151460D02*
X-12079Y153582D01*
X-8191Y149694D01*
X-10313Y147572D01*
X-14201Y151460D01*
G37*
G36*
X-17737Y147924D02*
X-15615Y150046D01*
X-11727Y146158D01*
X-13849Y144036D01*
X-17737Y147924D01*
G37*
G36*
X-21273Y144388D02*
X-19151Y146510D01*
X-15263Y142622D01*
X-17385Y140500D01*
X-21273Y144388D01*
G37*
G36*
X-24809Y140852D02*
X-22687Y142974D01*
X-18799Y139086D01*
X-20921Y136964D01*
X-24809Y140852D01*
G37*
G36*
X-28346Y137315D02*
X-26224Y139437D01*
X-22336Y135549D01*
X-24458Y133427D01*
X-28346Y137315D01*
G37*
G36*
X-31883Y133778D02*
X-29761Y135900D01*
X-25873Y132012D01*
X-27995Y129890D01*
X-31883Y133778D01*
G37*
G36*
X-35419Y130242D02*
X-33297Y132364D01*
X-29409Y128476D01*
X-31531Y126354D01*
X-35419Y130242D01*
G37*
G36*
X-38955Y126706D02*
X-36833Y128828D01*
X-32945Y124940D01*
X-35067Y122818D01*
X-38955Y126706D01*
G37*
G36*
X-42492Y123169D02*
X-40370Y125291D01*
X-36482Y121403D01*
X-38604Y119281D01*
X-42492Y123169D01*
G37*
G36*
X-46028Y119633D02*
X-43906Y121755D01*
X-40018Y117867D01*
X-42140Y115745D01*
X-46028Y119633D01*
G37*
G36*
X-42140Y112855D02*
X-40018Y110733D01*
X-43906Y106845D01*
X-46028Y108967D01*
X-42140Y112855D01*
G37*
G36*
X-38604Y109319D02*
X-36482Y107197D01*
X-40370Y103309D01*
X-42492Y105431D01*
X-38604Y109319D01*
G37*
G36*
X-35067Y105782D02*
X-32945Y103660D01*
X-36833Y99772D01*
X-38955Y101894D01*
X-35067Y105782D01*
G37*
G36*
X-31531Y102246D02*
X-29409Y100124D01*
X-33297Y96236D01*
X-35419Y98358D01*
X-31531Y102246D01*
G37*
G36*
X-27995Y98710D02*
X-25873Y96588D01*
X-29761Y92700D01*
X-31883Y94822D01*
X-27995Y98710D01*
G37*
G36*
X-24458Y95173D02*
X-22336Y93051D01*
X-26224Y89163D01*
X-28346Y91285D01*
X-24458Y95173D01*
G37*
G36*
X-20921Y91636D02*
X-18799Y89514D01*
X-22687Y85626D01*
X-24809Y87748D01*
X-20921Y91636D01*
G37*
G36*
X-17385Y88100D02*
X-15263Y85978D01*
X-19151Y82090D01*
X-21273Y84212D01*
X-17385Y88100D01*
G37*
G36*
X-13849Y84564D02*
X-11727Y82442D01*
X-15615Y78554D01*
X-17737Y80676D01*
X-13849Y84564D01*
G37*
G36*
X-10313Y81028D02*
X-8191Y78906D01*
X-12079Y75018D01*
X-14201Y77140D01*
X-10313Y81028D01*
G37*
G36*
X-6776Y77491D02*
X-4654Y75369D01*
X-8542Y71481D01*
X-10664Y73603D01*
X-6776Y77491D01*
G37*
G36*
X-3240Y73954D02*
X-1118Y71832D01*
X-5006Y67944D01*
X-7128Y70066D01*
X-3240Y73954D01*
G37*
G36*
X1772Y71832D02*
X3894Y73954D01*
X7782Y70066D01*
X5660Y67944D01*
X1772Y71832D01*
G37*
G36*
X5308Y75369D02*
X7430Y77491D01*
X11318Y73603D01*
X9196Y71481D01*
X5308Y75369D01*
G37*
G36*
X8845Y78906D02*
X10967Y81028D01*
X14855Y77140D01*
X12733Y75018D01*
X8845Y78906D01*
G37*
G36*
X12382Y82442D02*
X14504Y84564D01*
X18392Y80676D01*
X16270Y78554D01*
X12382Y82442D01*
G37*
G36*
X15918Y85978D02*
X18040Y88100D01*
X21928Y84212D01*
X19806Y82090D01*
X15918Y85978D01*
G37*
G36*
X19454Y89514D02*
X21576Y91636D01*
X25464Y87748D01*
X23342Y85626D01*
X19454Y89514D01*
G37*
G36*
X22991Y93051D02*
X25113Y95173D01*
X29001Y91285D01*
X26879Y89163D01*
X22991Y93051D01*
G37*
G36*
X26527Y96588D02*
X28649Y98710D01*
X32537Y94822D01*
X30415Y92700D01*
X26527Y96588D01*
G37*
G36*
X30063Y100124D02*
X32185Y102246D01*
X36073Y98358D01*
X33951Y96236D01*
X30063Y100124D01*
G37*
G36*
X33600Y103660D02*
X35722Y105782D01*
X39610Y101894D01*
X37488Y99772D01*
X33600Y103660D01*
G37*
G36*
X37137Y107197D02*
X39259Y109319D01*
X43147Y105431D01*
X41025Y103309D01*
X37137Y107197D01*
G37*
G36*
X40673Y110733D02*
X42795Y112855D01*
X46683Y108967D01*
X44561Y106845D01*
X40673Y110733D01*
G37*
G36*
X44561Y121755D02*
X46683Y119633D01*
X42795Y115745D01*
X40673Y117867D01*
X44561Y121755D01*
G37*
G36*
X41025Y125291D02*
X43147Y123169D01*
X39259Y119281D01*
X37137Y121403D01*
X41025Y125291D01*
G37*
G36*
X37488Y128828D02*
X39610Y126706D01*
X35722Y122818D01*
X33600Y124940D01*
X37488Y128828D01*
G37*
G36*
X33951Y132364D02*
X36073Y130242D01*
X32185Y126354D01*
X30063Y128476D01*
X33951Y132364D01*
G37*
G36*
X30415Y135900D02*
X32537Y133778D01*
X28649Y129890D01*
X26527Y132012D01*
X30415Y135900D01*
G37*
G36*
X26879Y139437D02*
X29001Y137315D01*
X25113Y133427D01*
X22991Y135549D01*
X26879Y139437D01*
G37*
G36*
X23342Y142974D02*
X25464Y140852D01*
X21576Y136964D01*
X19454Y139086D01*
X23342Y142974D01*
G37*
G36*
X19806Y146510D02*
X21928Y144388D01*
X18040Y140500D01*
X15918Y142622D01*
X19806Y146510D01*
G37*
G36*
X16270Y150046D02*
X18392Y147924D01*
X14504Y144036D01*
X12382Y146158D01*
X16270Y150046D01*
G37*
G36*
X12733Y153582D02*
X14855Y151460D01*
X10967Y147572D01*
X8845Y149694D01*
X12733Y153582D01*
G37*
G36*
X9196Y157119D02*
X11318Y154997D01*
X7430Y151109D01*
X5308Y153231D01*
X9196Y157119D01*
G37*
G36*
X5660Y160656D02*
X7782Y158534D01*
X3894Y154646D01*
X1772Y156768D01*
X5660Y160656D01*
G37*
D12*
X-173475Y168275D03*
X-188475Y168275D03*
D13*
X-154288Y114275D03*
X-154288Y104775D03*
X-154288Y95275D03*
X-128288Y95275D03*
X-128288Y114275D03*
D14*
X-212963Y114300D03*
X-212963Y107800D03*
X-212963Y120800D03*
X-212963Y127300D03*
X-212963Y101300D03*
D15*
X-239713Y74300D03*
D16*
X-239713Y102300D03*
X-239713Y126300D03*
D15*
X-239713Y154300D03*
D12*
X46010Y170985D03*
X61010Y170985D03*
M02*
