M48
;GenerationSoftware,Autodesk,EAGLE,9.6.2*%
;CreationDate,2022-08-13T09:52:17Z*%
FMAT,2
ICI,OFF
METRIC,TZ,000.000
T2C0.350
T1C1.016
%
G90
M71
T1
X57785Y21749
X60325Y21749
X62865Y21749
X65405Y21749
X67945Y21749
X70485Y21749
X73025Y21749
X75565Y21749
X34925Y6509
X41116Y18574
X72390Y16669
X72390Y14129
X72390Y11589
X72390Y9049
X39173Y9131
X43694Y9131
X39173Y15634
X43694Y15634
X75565Y6509
X73025Y6509
X70485Y6509
X67945Y6509
X65405Y6509
X62865Y6509
X60325Y6509
X57785Y6509
X55245Y6509
X52705Y6509
X50165Y6509
X47625Y6509
X45085Y6509
X42545Y6509
X40005Y6509
X37465Y6509
X72390Y19209
X32385Y6509
X29845Y6509
X27305Y6509
X27305Y21749
X29845Y21749
X32385Y21749
X34925Y21749
X37465Y21749
X40005Y21749
X42545Y21749
X45085Y21749
X47625Y21749
X50165Y21749
X52705Y21749
X55245Y21749
T2
X62547Y11906
X37179Y16739
X53022Y15557
X53022Y12541
X65405Y13970
X44132Y17621
X67469Y16510
X48577Y20407
X31591Y15422
X57944Y10478
X60007Y11999
X38894Y4445
X41434Y4445
X47078Y8802
X48153Y8909
X52705Y8096
X65724Y16826
X31591Y14437
M30