M48
;GenerationSoftware,Autodesk,EAGLE,9.6.1*%
;CreationDate,2022-12-27T14:24:32Z*%
FMAT,2
ICI,OFF
METRIC,TZ,000.000
T3C0.350
T2C0.550
T1C1.016
%
G90
M71
T1
X-3810Y3651
X-6350Y3651
X-8890Y3651
X-11430Y3651
X-13970Y3651
X-16510Y3651
X-19050Y3651
X-21590Y3651
X-24130Y3651
X-24130Y19209
X21590Y3651
X-21590Y19209
X-19050Y19209
X-16510Y19209
X-13970Y19209
X-11430Y19209
X-8890Y19209
X-6350Y19209
X-3810Y19209
X-1270Y19209
X1270Y19209
X3810Y19209
X6350Y19209
X11430Y19209
X13970Y19209
X16510Y19209
X19050Y19209
X21590Y19209
X24130Y19209
X10700Y10357
X10700Y5836
X17202Y10357
X17202Y5836
X23495Y16510
X23495Y13970
X23495Y11430
X23495Y8890
X23495Y6350
X17221Y12503
X17221Y17024
X10719Y12503
X10719Y17024
X24130Y3651
X8890Y19209
X19050Y3651
X16510Y3651
X13970Y3651
X11430Y3651
X8890Y3651
X6350Y3651
X3810Y3651
X1270Y3651
X-1270Y3651
T2
X-21521Y13505
X-21521Y9355
T3
X-1746Y11589
X1587Y11589
X-8573Y12700
X-20161Y7144
X-22542Y16510
X-15240Y1429
X20320Y1429
X15081Y21749
X-3472Y17033
X-5398Y12915
X7937Y12167
X-17304Y13491
X7496Y9490
X6826Y10160
X1486Y17878
X721Y17304
X-2353Y16884
X-5080Y21273
X-16510Y16026
X-19797Y11270
X-19797Y12217
X-13120Y10478
X-22453Y12859
X-20487Y12867
X-1313Y16986
X-2540Y20955
X4522Y17178
X3016Y20479
X-13176Y12224
X-11589Y11215
X10001Y21590
M30